<svg version="1.1" viewBox="0.0 0.0 753.1312335958005 479.34645669291336" fill="none" stroke="none" stroke-linecap="square" stroke-miterlimit="10" xmlns:xlink="http://www.w3.org/1999/xlink" xmlns="http://www.w3.org/2000/svg"><clipPath id="p.0"><path d="m0 0l753.1312 0l0 479.34647l-753.1312 0l0 -479.34647z" clip-rule="nonzero"/></clipPath><g clip-path="url(#p.0)"><path fill="#000000" fill-opacity="0.0" d="m0 0l753.1312 0l0 479.34647l-753.1312 0z" fill-rule="evenodd"/><path fill="#ffffff" d="m26.971128 35.280838l397.5748 0l0 354.80316l-397.5748 0z" fill-rule="evenodd"/><path stroke="#000000" stroke-width="1.0" stroke-linejoin="round" stroke-linecap="butt" d="m26.971128 35.280838l397.5748 0l0 354.80316l-397.5748 0z" fill-rule="evenodd"/><path fill="#f3f3f3" d="m39.687664 125.03992l0 0c0 -15.104782 12.244846 -27.349625 27.349628 -27.349625l109.39523 0l0 0c7.2535706 0 14.2100525 2.8814697 19.339111 8.010513c5.1290436 5.129051 8.010513 12.085541 8.010513 19.339111l0 184.54483c0 15.104797 -12.244843 27.34964 -27.349625 27.34964l-109.39523 0c-15.104782 0 -27.349628 -12.244843 -27.349628 -27.34964z" fill-rule="evenodd"/><path fill="#d9d9d9" d="m66.267715 276.0551l0 0c0 -2.7657776 7.523613 -5.0078735 16.804466 -5.0078735c9.280846 0 16.804459 2.242096 16.804459 5.0078735l0 20.031494c0 2.7657776 -7.523613 5.0078735 -16.804459 5.0078735c-9.280853 0 -16.804466 -2.242096 -16.804466 -5.0078735z" fill-rule="evenodd"/><path fill="#000000" fill-opacity="0.0" d="m99.87664 276.0551l0 0c0 2.7657776 -7.523613 5.0078735 -16.804459 5.0078735c-9.280853 0 -16.804466 -2.242096 -16.804466 -5.0078735" fill-rule="evenodd"/><path fill="#000000" fill-opacity="0.0" d="m66.267715 276.0551l0 0c0 -2.7657776 7.523613 -5.0078735 16.804466 -5.0078735c9.280846 0 16.804459 2.242096 16.804459 5.0078735l0 20.031494c0 2.7657776 -7.523613 5.0078735 -16.804459 5.0078735c-9.280853 0 -16.804466 -2.242096 -16.804466 -5.0078735z" fill-rule="evenodd"/><path stroke="#000000" stroke-width="1.0" stroke-linejoin="round" stroke-linecap="butt" d="m99.87664 276.0551l0 0c0 2.7657776 -7.523613 5.0078735 -16.804459 5.0078735c-9.280853 0 -16.804466 -2.242096 -16.804466 -5.0078735" fill-rule="evenodd"/><path stroke="#000000" stroke-width="1.0" stroke-linejoin="round" stroke-linecap="butt" d="m66.267715 276.0551l0 0c0 -2.7657776 7.523613 -5.0078735 16.804466 -5.0078735c9.280846 0 16.804459 2.242096 16.804459 5.0078735l0 20.031494c0 2.7657776 -7.523613 5.0078735 -16.804459 5.0078735c-9.280853 0 -16.804466 -2.242096 -16.804466 -5.0078735z" fill-rule="evenodd"/><path fill="#f3f3f3" d="m224.59842 132.94022l0 0c0 -16.276047 13.194351 -29.470398 29.470413 -29.470398l117.8781 0l0 0c7.8160095 0 15.311951 3.1049042 20.838715 8.631683c5.526764 5.5267715 8.631683 13.022682 8.631683 20.838715l0 174.53952c0 16.276031 -13.194366 29.470398 -29.470398 29.470398l-117.8781 0c-16.276062 0 -29.470413 -13.194366 -29.470413 -29.470398z" fill-rule="evenodd"/><path fill="#d9d9d9" d="m130.04724 276.17673l0 0c0 -2.8329468 8.742783 -5.129486 19.527557 -5.129486c10.784775 0 19.527557 2.2965393 19.527557 5.129486l0 20.517944c0 2.8329163 -8.742783 5.129486 -19.527557 5.129486c-10.784775 0 -19.527557 -2.2965698 -19.527557 -5.129486z" fill-rule="evenodd"/><path fill="#000000" fill-opacity="0.0" d="m169.10236 276.17673l0 0c0 2.8329468 -8.742783 5.129486 -19.527557 5.129486c-10.784775 0 -19.527557 -2.2965393 -19.527557 -5.129486" fill-rule="evenodd"/><path fill="#000000" fill-opacity="0.0" d="m130.04724 276.17673l0 0c0 -2.8329468 8.742783 -5.129486 19.527557 -5.129486c10.784775 0 19.527557 2.2965393 19.527557 5.129486l0 20.517944c0 2.8329163 -8.742783 5.129486 -19.527557 5.129486c-10.784775 0 -19.527557 -2.2965698 -19.527557 -5.129486z" fill-rule="evenodd"/><path stroke="#000000" stroke-width="1.0" stroke-linejoin="round" stroke-linecap="butt" d="m169.10236 276.17673l0 0c0 2.8329468 -8.742783 5.129486 -19.527557 5.129486c-10.784775 0 -19.527557 -2.2965393 -19.527557 -5.129486" fill-rule="evenodd"/><path stroke="#000000" stroke-width="1.0" stroke-linejoin="round" stroke-linecap="butt" d="m130.04724 276.17673l0 0c0 -2.8329468 8.742783 -5.129486 19.527557 -5.129486c10.784775 0 19.527557 2.2965393 19.527557 5.129486l0 20.517944c0 2.8329163 -8.742783 5.129486 -19.527557 5.129486c-10.784775 0 -19.527557 -2.2965698 -19.527557 -5.129486z" fill-rule="evenodd"/><path fill="#d9d9d9" d="m239.26509 276.17673l0 0c0 -2.8329468 7.5236206 -5.129486 16.804459 -5.129486c9.280853 0 16.804474 2.2965393 16.804474 5.129486l0 20.517944c0 2.8329163 -7.5236206 5.129486 -16.804474 5.129486c-9.280838 0 -16.804459 -2.2965698 -16.804459 -5.129486z" fill-rule="evenodd"/><path fill="#000000" fill-opacity="0.0" d="m272.87402 276.17673l0 0c0 2.8329468 -7.5236206 5.129486 -16.804474 5.129486c-9.280838 0 -16.804459 -2.2965393 -16.804459 -5.129486" fill-rule="evenodd"/><path fill="#000000" fill-opacity="0.0" d="m239.26509 276.17673l0 0c0 -2.8329468 7.5236206 -5.129486 16.804459 -5.129486c9.280853 0 16.804474 2.2965393 16.804474 5.129486l0 20.517944c0 2.8329163 -7.5236206 5.129486 -16.804474 5.129486c-9.280838 0 -16.804459 -2.2965698 -16.804459 -5.129486z" fill-rule="evenodd"/><path stroke="#000000" stroke-width="1.0" stroke-linejoin="round" stroke-linecap="butt" d="m272.87402 276.17673l0 0c0 2.8329468 -7.5236206 5.129486 -16.804474 5.129486c-9.280838 0 -16.804459 -2.2965393 -16.804459 -5.129486" fill-rule="evenodd"/><path stroke="#000000" stroke-width="1.0" stroke-linejoin="round" stroke-linecap="butt" d="m239.26509 276.17673l0 0c0 -2.8329468 7.5236206 -5.129486 16.804459 -5.129486c9.280853 0 16.804474 2.2965393 16.804474 5.129486l0 20.517944c0 2.8329163 -7.5236206 5.129486 -16.804474 5.129486c-9.280838 0 -16.804459 -2.2965698 -16.804459 -5.129486z" fill-rule="evenodd"/><path fill="#d9d9d9" d="m293.87402 276.17673l0 0c0 -2.8329468 8.742767 -5.129486 19.527557 -5.129486c10.7847595 0 19.527557 2.2965393 19.527557 5.129486l0 20.517944c0 2.8329163 -8.742798 5.129486 -19.527557 5.129486c-10.78479 0 -19.527557 -2.2965698 -19.527557 -5.129486z" fill-rule="evenodd"/><path fill="#000000" fill-opacity="0.0" d="m332.92914 276.17673l0 0c0 2.8329468 -8.742798 5.129486 -19.527557 5.129486c-10.78479 0 -19.527557 -2.2965393 -19.527557 -5.129486" fill-rule="evenodd"/><path fill="#000000" fill-opacity="0.0" d="m293.87402 276.17673l0 0c0 -2.8329468 8.742767 -5.129486 19.527557 -5.129486c10.7847595 0 19.527557 2.2965393 19.527557 5.129486l0 20.517944c0 2.8329163 -8.742798 5.129486 -19.527557 5.129486c-10.78479 0 -19.527557 -2.2965698 -19.527557 -5.129486z" fill-rule="evenodd"/><path stroke="#000000" stroke-width="1.0" stroke-linejoin="round" stroke-linecap="butt" d="m332.92914 276.17673l0 0c0 2.8329468 -8.742798 5.129486 -19.527557 5.129486c-10.78479 0 -19.527557 -2.2965393 -19.527557 -5.129486" fill-rule="evenodd"/><path stroke="#000000" stroke-width="1.0" stroke-linejoin="round" stroke-linecap="butt" d="m293.87402 276.17673l0 0c0 -2.8329468 8.742767 -5.129486 19.527557 -5.129486c10.7847595 0 19.527557 2.2965393 19.527557 5.129486l0 20.517944c0 2.8329163 -8.742798 5.129486 -19.527557 5.129486c-10.78479 0 -19.527557 -2.2965698 -19.527557 -5.129486z" fill-rule="evenodd"/><path fill="#d9d9d9" d="m348.48294 276.17673l0 0c0 -2.8329468 7.5236206 -5.129486 16.804474 -5.129486c9.280823 0 16.804443 2.2965393 16.804443 5.129486l0 20.517944c0 2.8329163 -7.5236206 5.129486 -16.804443 5.129486c-9.280853 0 -16.804474 -2.2965698 -16.804474 -5.129486z" fill-rule="evenodd"/><path fill="#000000" fill-opacity="0.0" d="m382.09186 276.17673l0 0c0 2.8329468 -7.5236206 5.129486 -16.804443 5.129486c-9.280853 0 -16.804474 -2.2965393 -16.804474 -5.129486" fill-rule="evenodd"/><path fill="#000000" fill-opacity="0.0" d="m348.48294 276.17673l0 0c0 -2.8329468 7.5236206 -5.129486 16.804474 -5.129486c9.280823 0 16.804443 2.2965393 16.804443 5.129486l0 20.517944c0 2.8329163 -7.5236206 5.129486 -16.804443 5.129486c-9.280853 0 -16.804474 -2.2965698 -16.804474 -5.129486z" fill-rule="evenodd"/><path stroke="#000000" stroke-width="1.0" stroke-linejoin="round" stroke-linecap="butt" d="m382.09186 276.17673l0 0c0 2.8329468 -7.5236206 5.129486 -16.804443 5.129486c-9.280853 0 -16.804474 -2.2965393 -16.804474 -5.129486" fill-rule="evenodd"/><path stroke="#000000" stroke-width="1.0" stroke-linejoin="round" stroke-linecap="butt" d="m348.48294 276.17673l0 0c0 -2.8329468 7.5236206 -5.129486 16.804474 -5.129486c9.280823 0 16.804443 2.2965393 16.804443 5.129486l0 20.517944c0 2.8329163 -7.5236206 5.129486 -16.804443 5.129486c-9.280853 0 -16.804474 -2.2965698 -16.804474 -5.129486z" fill-rule="evenodd"/><path fill="#000000" fill-opacity="0.0" d="m83.07218 301.09448l0 25.729675l66.48818 0l0 -25.005249" fill-rule="evenodd"/><path stroke="#000000" stroke-width="1.0" stroke-linejoin="round" stroke-linecap="butt" d="m83.07218 307.09448l0 19.729675l66.48818 0l0 -19.005249" fill-rule="evenodd"/><path fill="#000000" stroke="#000000" stroke-width="1.0" stroke-linecap="butt" d="m84.72391 307.09448l-1.6517258 -4.538086l-1.6517334 4.538086z" fill-rule="evenodd"/><path fill="#000000" stroke="#000000" stroke-width="1.0" stroke-linecap="butt" d="m151.2121 307.8189l-1.6517334 -4.5381165l-1.6517334 4.5381165z" fill-rule="evenodd"/><path fill="#000000" fill-opacity="0.0" d="m256.06955 301.82416l0 25.0l109.22836 0l0 -24.937012" fill-rule="evenodd"/><path stroke="#000000" stroke-width="1.0" stroke-linejoin="round" stroke-linecap="butt" d="m256.06955 307.82416l0 19.0l109.22836 0l0 -18.937012" fill-rule="evenodd"/><path fill="#000000" stroke="#000000" stroke-width="1.0" stroke-linecap="butt" d="m257.72128 307.82416l-1.6517334 -4.5381165l-1.6517334 4.5381165z" fill-rule="evenodd"/><path fill="#000000" stroke="#000000" stroke-width="1.0" stroke-linecap="butt" d="m366.94965 307.88715l-1.6517334 -4.5381165l-1.6517334 4.5381165z" fill-rule="evenodd"/><path fill="#000000" fill-opacity="0.0" d="m39.687664 97.69029l60.188976 0l0 38.771652l-60.188976 0z" fill-rule="evenodd"/><path fill="#000000" d="m48.656414 122.05029l4.40625 -11.453125l1.640625 0l4.6875 11.453125l-1.734375 0l-1.328125 -3.46875l-4.796875 0l-1.25 3.46875l-1.625 0zm3.3125 -4.703125l3.890625 0l-1.203125 -3.171875q-0.546875 -1.453125 -0.8125 -2.375q-0.21875 1.09375 -0.609375 2.1875l-1.265625 3.359375zm7.71875 4.703125l0 -1.40625l5.859379 -7.34375q0.625 -0.78125 1.1875 -1.359375l-6.390629 0l0 -1.34375l8.203129 0l0 1.34375l-6.421879 7.953125l-0.703125 0.796875l7.312504 0l0 1.359375l-9.046879 0zm9.960941 -3.4375l0 -1.421875l4.3125 0l0 1.421875l-4.3125 0zm10.78125 3.4375l-1.40625 0l0 -8.96875q-0.515625 0.484375 -1.34375 0.96875q-0.8125 0.484375 -1.46875 0.734375l0 -1.359375q1.171875 -0.5625 2.046875 -1.34375q0.890625 -0.796875 1.265625 -1.53125l0.90625 0l0 11.5z" fill-rule="nonzero"/><path fill="#000000" fill-opacity="0.0" d="m337.91602 97.69029l60.188965 0l0 38.771652l-60.188965 0z" fill-rule="evenodd"/><path fill="#000000" d="m346.88477 122.05029l4.40625 -11.453125l1.640625 0l4.6875 11.453125l-1.734375 0l-1.328125 -3.46875l-4.796875 0l-1.25 3.46875l-1.625 0zm3.3125 -4.703125l3.890625 0l-1.203125 -3.171875q-0.546875 -1.453125 -0.8125 -2.375q-0.21875 1.09375 -0.609375 2.1875l-1.265625 3.359375zm7.71875 4.703125l0 -1.40625l5.859375 -7.34375q0.625 -0.78125 1.1875 -1.359375l-6.390625 0l0 -1.34375l8.203125 0l0 1.34375l-6.421875 7.953125l-0.703125 0.796875l7.3125 0l0 1.359375l-9.046875 0zm9.9609375 -3.4375l0 -1.421875l4.3125 0l0 1.421875l-4.3125 0zm12.875 2.078125l0 1.359375l-7.578125 0q-0.015625 -0.515625 0.171875 -0.984375q0.28125 -0.765625 0.921875 -1.515625q0.640625 -0.75 1.84375 -1.734375q1.859375 -1.53125 2.515625 -2.421875q0.65625 -0.90625 0.65625 -1.703125q0 -0.828125 -0.59375 -1.40625q-0.59375 -0.578125 -1.5625 -0.578125q-1.015625 0 -1.625 0.609375q-0.609375 0.609375 -0.609375 1.6875l-1.453125 -0.140625q0.15625 -1.625 1.125 -2.46875q0.96875 -0.84375 2.59375 -0.84375q1.65625 0 2.609375 0.921875q0.96875 0.90625 0.96875 2.25q0 0.6875 -0.28125 1.359375q-0.28125 0.65625 -0.9375 1.390625q-0.65625 0.734375 -2.171875 2.015625q-1.265625 1.0625 -1.625 1.453125q-0.359375 0.375 -0.59375 0.75l5.625 0z" fill-rule="nonzero"/><path fill="#000000" fill-opacity="0.0" d="m343.85828 45.68504l63.77951 0l0 38.771656l-63.77951 0z" fill-rule="evenodd"/><path fill="#000000" d="m364.35828 70.04504l-2.515625 0l-1.0 -2.609375l-4.578125 0l-0.953125 2.609375l-2.453125 0l4.46875 -11.453121l2.4375 0l4.59375 11.453121zm-4.265625 -4.53125l-1.578125 -4.249996l-1.546875 4.249996l3.125 0zm6.234375 4.53125l-2.734375 -11.453121l2.359375 0l1.734375 7.859371l2.09375 -7.859371l2.75 0l2.0 7.999996l1.765625 -7.999996l2.328125 0l-2.78125 11.453121l-2.453125 0l-2.28125 -8.562496l-2.28125 8.562496l-2.5 0zm12.8828125 -3.734375l2.25 -0.21875q0.203125 1.140625 0.828125 1.671875q0.625 0.53125 1.671875 0.53125q1.125 0 1.6875 -0.46875q0.5625 -0.484375 0.5625 -1.109375q0 -0.40625 -0.234375 -0.6875q-0.234375 -0.296875 -0.828125 -0.5q-0.40625 -0.140625 -1.859375 -0.5q-1.859375 -0.46875 -2.609375 -1.1406212q-1.046875 -0.9375 -1.046875 -2.296875q0 -0.875 0.484375 -1.640625q0.5 -0.765625 1.4375 -1.15625q0.9375 -0.40625 2.25 -0.40625q2.15625 0 3.25 0.953125q1.09375 0.9375 1.140625 2.515625l-2.3125 0.109375q-0.140625 -0.890625 -0.640625 -1.265625q-0.484375 -0.390625 -1.453125 -0.390625q-1.015625 0 -1.578125 0.40625q-0.375 0.265625 -0.375 0.71875q0 0.40625 0.34375 0.6875q0.4375 0.375 2.125 0.78125q1.6875 0.390625 2.5 0.8125q0.8125 0.4218712 1.265625 1.1718712q0.453125 0.734375 0.453125 1.8125q0 0.984375 -0.546875 1.84375q-0.546875 0.859375 -1.546875 1.28125q-1.0 0.421875 -2.484375 0.421875q-2.171875 0 -3.34375 -1.0q-1.15625 -1.015625 -1.390625 -2.9375z" fill-rule="nonzero"/><path fill="#ffffff" d="m514.6168 35.280838l197.79523 0l0 354.80316l-197.79523 0z" fill-rule="evenodd"/><path stroke="#000000" stroke-width="1.0" stroke-linejoin="round" stroke-linecap="butt" d="m514.6168 35.280838l197.79523 0l0 354.80316l-197.79523 0z" fill-rule="evenodd"/><path fill="#ffffff" d="m149.5748 110.4042l124.50394 0l0 30.047249l-124.50394 0z" fill-rule="evenodd"/><path stroke="#000000" stroke-width="1.0" stroke-linejoin="round" stroke-linecap="butt" d="m149.5748 110.4042l124.50394 0l0 30.047249l-124.50394 0z" fill-rule="evenodd"/><path fill="#000000" d="m194.20177 124.66282q-0.75 3.25 -1.625 4.6875076q1.25 1.1875 2.75 1.75l-0.75 1.375q-1.375 -0.625 -2.75 -1.875q-0.9375 1.25 -2.3125 2.0625l-0.8125 -1.3125q1.4375 -0.8125 2.1875 -1.875q-1.1875 -1.8125076 -1.4375 -4.4375076l-0.8125 0l0 7.5625076l-1.25 0l0 -13.812508l6.4375 0l0 3.125q0 1.0 -1.0 1.0l-1.75 0l-0.125 -1.1875l1.375 0q0.25 0 0.25 -0.25l0 -1.5l-3.9375 0l0 3.875l4.5 0l0.1875 -0.1875l1.0625 0.6875q0.25 0.25 -0.1875 0.3125zm-2.5 3.6250076q0.5 -1.1875076 1.0625 -3.2500076l-2.0625 0q0.125 1.5 1.0 3.2500076zm-10.0625 -9.437508l4.5 0l0 12.562508q0 1.0 -1.0 1.0l-1.25 0l-0.0625 -1.1875l0.8125 0q0.25 0 0.25 -0.25l0 -3.8125076l-2.0 0l0 0.375q0 3.1250076 -1.3125 5.1250076l-1.0625 -1.125q1.125 -2.0 1.125 -4.1875076l0 -8.5zm3.25 4.75l-2.0 0l0 2.375l2.0 0l0 -2.375zm0 -1.1875l0 -2.375l-2.0 0l0 2.375l2.0 0z" fill-rule="nonzero"/><path fill="#000000" d="m202.95177 118.91282q-0.5 0.4375 -0.875 1.0l6.9375 0q-0.5625 0.9375 -1.46875 2.0q-0.90625 1.0625 -2.28125 2.0q0.875 0.5625 2.375 0.84375q1.5 0.28125 3.5625 0.34375q-0.5 0.5625 -0.6875 1.3125q-1.75 -0.125 -3.4375 -0.625q-1.6875 -0.5 -2.8125 -1.1875q-2.0 0.9375 -3.625 1.375q-1.625 0.4375 -3.1875 0.6875q-0.25 -0.75 -0.75 -1.3125q1.375 0 3.125 -0.375q1.75 -0.375 3.4375 -1.0625q-1.3125 -1.25 -2.25 -2.5625q-1.0625 1.3125 -2.1875 2.1875q-0.4375 -0.5 -1.125 -0.75q1.75 -1.25 2.5625 -2.40625q0.8125 -1.15625 1.1875 -2.15625q0.8125 0.4375 1.5 0.6875zm-0.125 8.25q0.125 -0.75 0.125 -1.75q0.75 0.125 1.5 0.1875q-0.1875 0.375 -0.375 1.5625l5.0625 0q-0.0625 0.75 -0.125 1.7187576q-0.0625 0.96875 -0.21875 2.09375q-0.15625 1.125 -0.90625 1.3125q-0.75 0.1875 -2.375 0.375q-0.125 -0.8125 -0.625 -1.375q1.8125 0 2.1875 -0.125q0.375 -0.125 0.5 -0.6875l0.1875 -2.375l-3.8125 0q-0.875 2.6875 -2.46875 3.5q-1.59375 0.8125 -3.40625 1.4375q-0.1875 -0.5625 -0.875 -1.3125q1.5 -0.125 3.125 -0.9375q1.625 -0.8125 2.3125 -2.6875l-1.4375 0q-1.875 0 -2.75 0.125l0 -1.1250076q0.9375 0.0625 2.8125 0.0625l1.5625 0zm1.5 -3.9375q1.25 -0.75 2.4375 -2.375l-4.6875 0q1.1875 1.5625 2.25 2.375z" fill-rule="nonzero"/><path fill="#000000" d="m217.76427 126.97532q-0.75 1.9375076 -2.25 3.6250076l-0.6875 -0.9375q1.4375 -1.7500076 2.1875 -3.6875076q-0.9375 -1.375 -1.9375 -2.6875l0.625 -0.625q0.875 1.0 1.5625 1.9375q0.25 -1.5 0.375 -3.0625l1.0625 0.25q0.5 0.1875 -0.0625 0.375q-0.1875 1.5 -0.5 3.4375q0.875 1.1875 1.625 2.3125l-0.625 1.0625076q-0.6875 -1.0000076 -1.375 -2.0000076zm-3.25 -6.375l0 11.562508l-1.25 0l0 -12.750008l12.9375 0l0 11.625008q0 1.0 -0.9375 1.0l-1.5625 0l-0.25 -1.1875l1.3125 0q0.1875 0 0.1875 -0.1875l0 -10.062508l-10.4375 0zm7.375 4.375q0.375 -1.875 0.5 -3.5l1.0 0.125q0.625 0.1875 0 0.4375q-0.1875 1.75 -0.6875 3.875q0.9375 1.3125 1.625 2.5000076l-0.625 1.0q-0.75 -1.25 -1.4375 -2.3125076q-0.9375 2.4375076 -2.1875 3.7500076l-0.6875 -1.0q1.25 -1.3125 2.0625 -3.6875076q-0.9375 -1.5 -1.875 -2.625l0.625 -0.6875q0.75 0.875 1.6875 2.125zm7.75 1.5625l0 -1.1875l5.5 0l0 -2.25l-4.75 0l0 -1.1875l10.625 0l0 1.1875l-4.625 0l0 2.25l5.5625 0l0 1.1875l-5.3125 0q0.8125 3.1875076 5.8125 4.3125076l-0.8125 1.4375q-4.0625 -0.8125 -5.625 -4.1875q-1.0 3.4375 -6.3125 4.625l-0.5625 -1.4375q5.5625 -1.0625 5.875 -4.7500076l-5.375 0zm10.0625 -7.25q-0.5 1.125 -1.25 2.4375l-1.1875 -0.5q0.75 -1.3125 1.1875 -2.75l1.4375 0.5q0.25 0.25 -0.1875 0.3125zm-6.9375 -0.625q1.0 0.9375 1.5625 2.3125l-1.25 0.75q-0.75 -1.4375 -1.5 -2.3125l1.1875 -0.75z" fill-rule="nonzero"/><path fill="#ffffff" d="m54.065617 183.53018l124.50394 0l0 25.007874l-124.50394 0z" fill-rule="evenodd"/><path stroke="#000000" stroke-width="1.0" stroke-linejoin="round" stroke-linecap="butt" d="m54.065617 183.53018l124.50394 0l0 25.007874l-124.50394 0z" fill-rule="evenodd"/><path fill="#000000" d="m109.35665 195.26912q-0.75 3.25 -1.625 4.6875q1.25 1.1875 2.75 1.75l-0.75 1.375q-1.375 -0.625 -2.75 -1.875q-0.9375 1.25 -2.3125 2.0625l-0.8125 -1.3125q1.4375 -0.8125 2.1875 -1.875q-1.1875 -1.8125 -1.4375 -4.4375l-0.8125 0l0 7.5625l-1.25 0l0 -13.8125l6.4375 0l0 3.125q0 1.0 -1.0 1.0l-1.75 0l-0.125 -1.1875l1.375 0q0.25 0 0.25 -0.25l0 -1.5l-3.9375 0l0 3.875l4.5 0l0.1875 -0.1875l1.0625 0.6875q0.25 0.25 -0.1875 0.3125zm-2.5 3.625q0.5 -1.1875 1.0625 -3.25l-2.0625 0q0.125 1.5 1.0 3.25zm-10.0625 -9.4375l4.5 0l0 12.5625q0 1.0 -1.0 1.0l-1.25 0l-0.0625 -1.1875l0.8125 0q0.25 0 0.25 -0.25l0 -3.8125l-2.0 0l0 0.375q0 3.125 -1.3125 5.125l-1.0625 -1.125q1.125 -2.0 1.125 -4.1875l0 -8.5zm3.25 4.75l-2.0 0l0 2.375l2.0 0l0 -2.375zm0 -1.1875l0 -2.375l-2.0 0l0 2.375l2.0 0z" fill-rule="nonzero"/><path fill="#000000" d="m118.10665 189.51912q-0.5 0.4375 -0.875 1.0l6.9375 0q-0.5625 0.9375 -1.46875 2.0q-0.90625 1.0625 -2.28125 2.0q0.875 0.5625 2.375 0.84375q1.5 0.28125 3.5625 0.34375q-0.5 0.5625 -0.6875 1.3125q-1.75 -0.125 -3.4375 -0.625q-1.6875 -0.5 -2.8125 -1.1875q-2.0 0.9375 -3.625 1.375q-1.625 0.4375 -3.1875 0.6875q-0.25 -0.75 -0.75 -1.3125q1.375 0 3.125 -0.375q1.75 -0.375 3.4375 -1.0625q-1.3125 -1.25 -2.25 -2.5625q-1.0625 1.3125 -2.1875 2.1875q-0.4375 -0.5 -1.125 -0.75q1.75 -1.25 2.5625 -2.40625q0.8125 -1.15625 1.1875 -2.15625q0.8125 0.4375 1.5 0.6875zm-0.125 8.25q0.125 -0.75 0.125 -1.75q0.75 0.125 1.5 0.1875q-0.1875 0.375 -0.375 1.5625l5.0625 0q-0.0625 0.75 -0.125 1.71875q-0.0625 0.96875 -0.21875 2.09375q-0.15625 1.125 -0.90625 1.3125q-0.75 0.1875 -2.375 0.375q-0.125 -0.8125 -0.625 -1.375q1.8125 0 2.1875 -0.125q0.375 -0.125 0.5 -0.6875l0.1875 -2.375l-3.8125 0q-0.875 2.6875 -2.46875 3.5q-1.59375 0.8125 -3.40625 1.4375q-0.1875 -0.5625 -0.875 -1.3125q1.5 -0.125 3.125 -0.9375q1.625 -0.8125 2.3125 -2.6875l-1.4375 0q-1.875 0 -2.75 0.125l0 -1.125q0.9375 0.0625 2.8125 0.0625l1.5625 0zm1.5 -3.9375q1.25 -0.75 2.4375 -2.375l-4.6875 0q1.1875 1.5625 2.25 2.375z" fill-rule="nonzero"/><path fill="#000000" d="m128.15352 201.89412l0 -11.453125l4.296875 0q1.3125 0 2.109375 0.34375q0.796875 0.34375 1.234375 1.078125q0.453125 0.71875 0.453125 1.5q0 0.734375 -0.40625 1.390625q-0.390625 0.640625 -1.1875 1.046875q1.03125 0.296875 1.59375 1.03125q0.5625 0.734375 0.5625 1.734375q0 0.8125 -0.34375 1.5q-0.34375 0.6875 -0.84375 1.0625q-0.5 0.375 -1.25 0.578125q-0.75 0.1875 -1.84375 0.1875l-4.375 0zm1.515625 -6.640625l2.484375 0q1.0 0 1.4375 -0.140625q0.578125 -0.171875 0.875 -0.5625q0.296875 -0.40625 0.296875 -1.0q0 -0.578125 -0.28125 -1.0q-0.265625 -0.4375 -0.78125 -0.59375q-0.5 -0.171875 -1.734375 -0.171875l-2.296875 0l0 3.46875zm0 5.28125l2.859375 0q0.734375 0 1.03125 -0.046875q0.515625 -0.09375 0.859375 -0.3125q0.359375 -0.21875 0.578125 -0.640625q0.234375 -0.421875 0.234375 -0.96875q0 -0.640625 -0.328125 -1.109375q-0.328125 -0.46875 -0.90625 -0.65625q-0.578125 -0.203125 -1.671875 -0.203125l-2.65625 0l0 3.9375z" fill-rule="nonzero"/><path fill="#ffffff" d="m54.065617 208.53806l124.50394 0l0 25.007874l-124.50394 0z" fill-rule="evenodd"/><path stroke="#000000" stroke-width="1.0" stroke-linejoin="round" stroke-linecap="butt" d="m54.065617 208.53806l124.50394 0l0 25.007874l-124.50394 0z" fill-rule="evenodd"/><path fill="#000000" d="m108.915245 220.277q-0.75 3.25 -1.625 4.6875q1.25 1.1875 2.75 1.75l-0.75 1.375q-1.375 -0.625 -2.75 -1.875q-0.9375 1.25 -2.3125 2.0625l-0.8125 -1.3125q1.4375 -0.8125 2.1875 -1.875q-1.1875 -1.8125 -1.4375 -4.4375l-0.8125 0l0 7.5625l-1.25 0l0 -13.8125l6.4375 0l0 3.125q0 1.0 -1.0 1.0l-1.75 0l-0.125 -1.1875l1.375 0q0.25 0 0.25 -0.25l0 -1.5l-3.9375 0l0 3.875l4.5 0l0.1875 -0.1875l1.0625 0.6875q0.25 0.25 -0.1875 0.3125zm-2.5 3.625q0.5 -1.1875 1.0625 -3.25l-2.0625 0q0.125 1.5 1.0 3.25zm-10.0625 -9.4375l4.5 0l0 12.5625q0 1.0 -1.0 1.0l-1.25 0l-0.0625 -1.1875l0.8125 0q0.25 0 0.25 -0.25l0 -3.8125l-2.0 0l0 0.375q0 3.125 -1.3125 5.125l-1.0625 -1.125q1.125 -2.0 1.125 -4.1875l0 -8.5zm3.25 4.75l-2.0 0l0 2.375l2.0 0l0 -2.375zm0 -1.1875l0 -2.375l-2.0 0l0 2.375l2.0 0z" fill-rule="nonzero"/><path fill="#000000" d="m117.665245 214.527q-0.5 0.4375 -0.875 1.0l6.9375 0q-0.5625 0.9375 -1.46875 2.0q-0.90625 1.0625 -2.28125 2.0q0.875 0.5625 2.375 0.84375q1.5 0.28125 3.5625 0.34375q-0.5 0.5625 -0.6875 1.3125q-1.75 -0.125 -3.4375 -0.625q-1.6875 -0.5 -2.8125 -1.1875q-2.0 0.9375 -3.625 1.375q-1.625 0.4375 -3.1875 0.6875q-0.25 -0.75 -0.75 -1.3125q1.375 0 3.125 -0.375q1.75 -0.375 3.4375 -1.0625q-1.3125 -1.25 -2.25 -2.5625q-1.0625 1.3125 -2.1875 2.1875q-0.4375 -0.5 -1.125 -0.75q1.75 -1.25 2.5625 -2.40625q0.8125 -1.15625 1.1875 -2.15625q0.8125 0.4375 1.5 0.6875zm-0.125 8.25q0.125 -0.75 0.125 -1.75q0.75 0.125 1.5 0.1875q-0.1875 0.375 -0.375 1.5625l5.0625 0q-0.0625 0.75 -0.125 1.71875q-0.0625 0.96875 -0.21875 2.09375q-0.15625 1.125 -0.90625 1.3125q-0.75 0.1875 -2.375 0.375q-0.125 -0.8125 -0.625 -1.375q1.8125 0 2.1875 -0.125q0.375 -0.125 0.5 -0.6875l0.1875 -2.375l-3.8125 0q-0.875 2.6875 -2.46875 3.5q-1.59375 0.8125 -3.40625 1.4375q-0.1875 -0.5625 -0.875 -1.3125q1.5 -0.125 3.125 -0.9375q1.625 -0.8125 2.3125 -2.6875l-1.4375 0q-1.875 0 -2.75 0.125l0 -1.125q0.9375 0.0625 2.8125 0.0625l1.5625 0zm1.5 -3.9375q1.25 -0.75 2.4375 -2.375l-4.6875 0q1.1875 1.5625 2.25 2.375z" fill-rule="nonzero"/><path fill="#000000" d="m135.94649 222.88637l1.515625 0.375q-0.46875 1.875 -1.71875 2.859375q-1.234375 0.984375 -3.015625 0.984375q-1.859375 0 -3.015625 -0.75q-1.15625 -0.765625 -1.7656174 -2.1875q-0.609375 -1.4375 -0.609375 -3.078125q0 -1.796875 0.6874924 -3.125q0.6875 -1.328125 1.9375 -2.015625q1.265625 -0.703125 2.78125 -0.703125q1.71875 0 2.890625 0.875q1.171875 0.875 1.640625 2.46875l-1.5 0.34375q-0.390625 -1.25 -1.15625 -1.8125q-0.75 -0.578125 -1.90625 -0.578125q-1.3125 0 -2.203125 0.640625q-0.890625 0.625 -1.25 1.703125q-0.359375 1.0625 -0.359375 2.1875q0 1.46875 0.421875 2.5625q0.4375 1.078125 1.328125 1.625q0.90625 0.53125 1.953125 0.53125q1.265625 0 2.140625 -0.734375q0.890625 -0.734375 1.203125 -2.171875z" fill-rule="nonzero"/><path fill="#ffffff" d="m54.065617 158.52231l124.50394 0l0 25.007874l-124.50394 0z" fill-rule="evenodd"/><path stroke="#000000" stroke-width="1.0" stroke-linejoin="round" stroke-linecap="butt" d="m54.065617 158.52231l124.50394 0l0 25.007874l-124.50394 0z" fill-rule="evenodd"/><path fill="#000000" d="m109.35665 170.26125q-0.75 3.25 -1.625 4.6875q1.25 1.1875 2.75 1.75l-0.75 1.375q-1.375 -0.625 -2.75 -1.875q-0.9375 1.25 -2.3125 2.0625l-0.8125 -1.3125q1.4375 -0.8125 2.1875 -1.875q-1.1875 -1.8125 -1.4375 -4.4375l-0.8125 0l0 7.5625l-1.25 0l0 -13.8125l6.4375 0l0 3.125q0 1.0 -1.0 1.0l-1.75 0l-0.125 -1.1875l1.375 0q0.25 0 0.25 -0.25l0 -1.5l-3.9375 0l0 3.875l4.5 0l0.1875 -0.1875l1.0625 0.6875q0.25 0.25 -0.1875 0.3125zm-2.5 3.625q0.5 -1.1875 1.0625 -3.25l-2.0625 0q0.125 1.5 1.0 3.25zm-10.0625 -9.4375l4.5 0l0 12.5625q0 1.0 -1.0 1.0l-1.25 0l-0.0625 -1.1875l0.8125 0q0.25 0 0.25 -0.25l0 -3.8125l-2.0 0l0 0.375q0 3.125 -1.3125 5.125l-1.0625 -1.125q1.125 -2.0 1.125 -4.1875l0 -8.5zm3.25 4.75l-2.0 0l0 2.375l2.0 0l0 -2.375zm0 -1.1875l0 -2.375l-2.0 0l0 2.375l2.0 0z" fill-rule="nonzero"/><path fill="#000000" d="m118.10665 164.51125q-0.5 0.4375 -0.875 1.0l6.9375 0q-0.5625 0.9375 -1.46875 2.0q-0.90625 1.0625 -2.28125 2.0q0.875 0.5625 2.375 0.84375q1.5 0.28125 3.5625 0.34375q-0.5 0.5625 -0.6875 1.3125q-1.75 -0.125 -3.4375 -0.625q-1.6875 -0.5 -2.8125 -1.1875q-2.0 0.9375 -3.625 1.375q-1.625 0.4375 -3.1875 0.6875q-0.25 -0.75 -0.75 -1.3125q1.375 0 3.125 -0.375q1.75 -0.375 3.4375 -1.0625q-1.3125 -1.25 -2.25 -2.5625q-1.0625 1.3125 -2.1875 2.1875q-0.4375 -0.5 -1.125 -0.75q1.75 -1.25 2.5625 -2.40625q0.8125 -1.15625 1.1875 -2.15625q0.8125 0.4375 1.5 0.6875zm-0.125 8.25q0.125 -0.75 0.125 -1.75q0.75 0.125 1.5 0.1875q-0.1875 0.375 -0.375 1.5625l5.0625 0q-0.0625 0.75 -0.125 1.71875q-0.0625 0.96875 -0.21875 2.09375q-0.15625 1.125 -0.90625 1.3125q-0.75 0.1875 -2.375 0.375q-0.125 -0.8125 -0.625 -1.375q1.8125 0 2.1875 -0.125q0.375 -0.125 0.5 -0.6875l0.1875 -2.375l-3.8125 0q-0.875 2.6875 -2.46875 3.5q-1.59375 0.8125 -3.40625 1.4375q-0.1875 -0.5625 -0.875 -1.3125q1.5 -0.125 3.125 -0.9375q1.625 -0.8125 2.3125 -2.6875l-1.4375 0q-1.875 0 -2.75 0.125l0 -1.125q0.9375 0.0625 2.8125 0.0625l1.5625 0zm1.5 -3.9375q1.25 -0.75 2.4375 -2.375l-4.6875 0q1.1875 1.5625 2.25 2.375z" fill-rule="nonzero"/><path fill="#000000" d="m126.9504 176.88625l4.4062424 -11.453125l1.640625 0l4.6875 11.453125l-1.734375 0l-1.328125 -3.46875l-4.796875 0l-1.25 3.46875l-1.6249924 0zm3.3124924 -4.703125l3.890625 0l-1.203125 -3.171875q-0.546875 -1.453125 -0.8125 -2.375q-0.21875 1.09375 -0.609375 2.1875l-1.265625 3.359375z" fill-rule="nonzero"/><path fill="#000000" fill-opacity="0.0" d="m121.73491 336.9344l0 25.015747l191.27559 0l0 -24.952759" fill-rule="evenodd"/><path stroke="#000000" stroke-width="1.0" stroke-linejoin="round" stroke-linecap="butt" d="m121.73491 342.9344l0 19.015747l191.27559 0l0 -18.952759" fill-rule="evenodd"/><path fill="#000000" stroke="#000000" stroke-width="1.0" stroke-linecap="butt" d="m123.38664 342.9344l-1.6517334 -4.5381165l-1.6517334 4.5381165z" fill-rule="evenodd"/><path fill="#000000" stroke="#000000" stroke-width="1.0" stroke-linecap="butt" d="m314.66223 342.99738l-1.6517334 -4.538086l-1.6517334 4.538086z" fill-rule="evenodd"/><path fill="#000000" fill-opacity="0.0" d="m178.75853 355.01575l77.22835 0l0 38.771667l-77.22835 0z" fill-rule="evenodd"/><path fill="#000000" d="m193.63353 379.31326q1.875 -0.125 4.0 -0.5l0 -2.4375l-2.125 0l0 0.5625l-1.1875 0q0.0625 -1.875 0.0625 -2.6875l0 -2.0625l3.25 0l0 -1.5625l-2.75 0q0.0625 -1.0 0.0625 -1.9375q0 -1.0 -0.0625 -1.875l6.6875 0q-0.0625 0.875 -0.0625 1.875q0 0.9375 0.0625 1.9375l-2.8125 0l0 1.5625l3.375 0q-0.0625 0.75 -0.0625 2.0q0 1.25 0.0625 2.1875l-3.375 0l0 2.3125l2.125 -0.375q-0.25 -0.375 -0.5 -0.8125q0.625 -0.1875 1.0625 -0.4375q1.125 1.8125 1.75 2.9375q-0.625 0.25 -1.125 0.625q-0.25 -0.625 -0.75 -1.5q-0.75 0.125 -3.0 0.59375q-2.25 0.46875 -4.0625 0.96875q-0.1875 -0.8125 -0.625 -1.375zm-4.375 0.125q1.625 0 2.0 -0.1875q0.375 -0.1875 0.4375 -0.6875l0.25 -3.8125l-2.9375 0q0.125 -1.25 0.15625 -2.28125q0.03125 -1.03125 0.03125 -2.03125l3.0625 0l0 -2.4375l-1.3125 0q-1.125 0 -2.125 0.0625l0 -1.0625q1.0625 0.0625 2.125 0.0625l2.5 0q-0.0625 1.0 -0.0625 2.125q0 1.0625 0.0625 2.1875l-3.0 0l-0.125 2.4375l2.875 0q-0.125 1.125 -0.1875 2.0l-0.1875 3.1875q-0.125 1.0 -0.96875 1.34375q-0.84375 0.34375 -1.96875 0.53125q-0.1875 -0.8125 -0.625 -1.4375zm11.125 -9.75l0 -1.9375l-4.3125 0l0 1.9375l4.3125 0zm-2.75 5.75l0 -2.3125l-2.125 0l0 2.3125l2.125 0zm3.25 0l0 -2.3125l-2.125 0l0 2.3125l2.125 0z" fill-rule="nonzero"/><path fill="#000000" d="m209.94603 374.06326l0 2.5625l3.5 0l0 -2.5625l-3.5 0zm3.5 3.5625l-3.5 0l0 0.9375l-1.25 0l0 -5.5l6.0 0l0 5.0l-1.25 0l0 -0.4375zm-5.8125 -7.375l8.0625 0l0 1.1875l-8.0625 0l0 -1.1875zm9.0625 -1.625l-9.8125 0l0 11.9375l-1.25 0l0 -13.125l12.3125 0l0 12.0625q0 0.875 -0.875 0.875l-1.75 0l-0.25 -1.1875l1.375 0q0.25 0 0.25 -0.25l0 -10.3125zm11.625 -2.25q0.5 0.0625 0.0625 0.375l0 1.4375l4.5 0l0 1.1875l-4.5 0l0 1.875l6.0625 0l0 1.1875l-6.125 0q0.5625 0.125 0.0625 0.4375l0 3.5q0 1.0625 -1.0 1.0625l-1.375 0l-0.1875 -1.1875l1.125 0q0.1875 0 0.1875 -0.1875l0 -3.625l-6.3125 0l0 -1.1875l2.75 0l0 -3.75l1.1875 0q0.5 0.0625 0.0625 0.375l0 3.375l2.3125 0l0 -4.875l1.1875 0zm-2.5 7.5625q0.3125 0.25 -0.25 0.25q-1.5 2.0 -3.8125 3.375l-0.9375 -1.1875q2.4375 -1.375 3.8125 -3.1875l1.1875 0.75zm7.6875 0.375q0.3125 0.3125 -0.1875 0.3125q-3.625 6.3125 -11.125 6.1875l-0.4375 -1.5q7.3125 0.3125 10.5625 -5.8125l1.1875 0.8125z" fill-rule="nonzero"/><path fill="#ffffff" d="m149.5748 20.301838l124.50394 0l0 30.047245l-124.50394 0z" fill-rule="evenodd"/><path stroke="#000000" stroke-width="1.0" stroke-linejoin="round" stroke-linecap="butt" d="m149.5748 20.301838l124.50394 0l0 30.047245l-124.50394 0z" fill-rule="evenodd"/><path fill="#000000" d="m203.21349 41.18546l0 -11.453125l1.515625 0l0 10.09375l5.640625 0l0 1.359375l-7.15625 0zm8.8984375 0l0 -11.453125l4.296875 0q1.3125 0 2.109375 0.34375q0.796875 0.34375 1.234375 1.078125q0.453125 0.71875 0.453125 1.5q0 0.734375 -0.40625 1.390625q-0.390625 0.640625 -1.1875 1.046875q1.03125 0.296875 1.59375 1.03125q0.5625 0.734375 0.5625 1.734375q0 0.8125 -0.34375 1.5q-0.34375 0.6875 -0.84375 1.0625q-0.5 0.375 -1.25 0.578125q-0.75 0.1875 -1.84375 0.1875l-4.375 0zm1.515625 -6.640625l2.484375 0q1.0 0 1.4375 -0.140625q0.578125 -0.171875 0.875 -0.5625q0.296875 -0.40625 0.296875 -1.0q0 -0.578125 -0.28125 -1.0q-0.265625 -0.4375 -0.78125 -0.59375q-0.5 -0.171875 -1.734375 -0.171875l-2.296875 0l0 3.46875zm0 5.28125l2.859375 0q0.734375 0 1.03125 -0.046875q0.515625 -0.09375 0.859375 -0.3125q0.359375 -0.21875 0.578125 -0.640625q0.234375 -0.421875 0.234375 -0.96875q0 -0.640625 -0.328125 -1.109375q-0.328125 -0.46875 -0.90625 -0.65625q-0.578125 -0.203125 -1.671875 -0.203125l-2.65625 0l0 3.9375z" fill-rule="nonzero"/><path fill="#ffffff" d="m248.43307 182.25853l124.50394 0l0 25.007874l-124.50394 0z" fill-rule="evenodd"/><path stroke="#000000" stroke-width="1.0" stroke-linejoin="round" stroke-linecap="butt" d="m248.43307 182.25853l124.50394 0l0 25.007874l-124.50394 0z" fill-rule="evenodd"/><path fill="#000000" d="m303.7241 193.99747q-0.75 3.25 -1.625 4.6875q1.25 1.1875 2.75 1.75l-0.75 1.375q-1.375 -0.625 -2.75 -1.875q-0.9375 1.25 -2.3125 2.0625l-0.8125 -1.3125q1.4375 -0.8125 2.1875 -1.875q-1.1875 -1.8125 -1.4375 -4.4375l-0.8125 0l0 7.5625l-1.25 0l0 -13.8125l6.4375 0l0 3.125q0 1.0 -1.0 1.0l-1.75 0l-0.125 -1.1875l1.375 0q0.25 0 0.25 -0.25l0 -1.5l-3.9375 0l0 3.875l4.5 0l0.1875 -0.1875l1.0625 0.6875q0.25 0.25 -0.1875 0.3125zm-2.5 3.625q0.5 -1.1875 1.0625 -3.25l-2.0625 0q0.125 1.5 1.0 3.25zm-10.0625 -9.4375l4.5 0l0 12.5625q0 1.0 -1.0 1.0l-1.25 0l-0.0625 -1.1875l0.8125 0q0.25 0 0.25 -0.25l0 -3.8125l-2.0 0l0 0.375q0 3.125 -1.3125 5.125l-1.0625 -1.125q1.125 -2.0 1.125 -4.1875l0 -8.5zm3.25 4.75l-2.0 0l0 2.375l2.0 0l0 -2.375zm0 -1.1875l0 -2.375l-2.0 0l0 2.375l2.0 0z" fill-rule="nonzero"/><path fill="#000000" d="m312.4741 188.24747q-0.5 0.4375 -0.875 1.0l6.9375 0q-0.5625 0.9375 -1.46875 2.0q-0.90625 1.0625 -2.28125 2.0q0.875 0.5625 2.375 0.84375q1.5 0.28125 3.5625 0.34375q-0.5 0.5625 -0.6875 1.3125q-1.75 -0.125 -3.4375 -0.625q-1.6875 -0.5 -2.8125 -1.1875q-2.0 0.9375 -3.625 1.375q-1.625 0.4375 -3.1875 0.6875q-0.25 -0.75 -0.75 -1.3125q1.375 0 3.125 -0.375q1.75 -0.375 3.4375 -1.0625q-1.3125 -1.25 -2.25 -2.5625q-1.0625 1.3125 -2.1875 2.1875q-0.4375 -0.5 -1.125 -0.75q1.75 -1.25 2.5625 -2.40625q0.8125 -1.15625 1.1875 -2.15625q0.8125 0.4375 1.5 0.6875zm-0.125 8.25q0.125 -0.75 0.125 -1.75q0.75 0.125 1.5 0.1875q-0.1875 0.375 -0.375 1.5625l5.0625 0q-0.0625 0.75 -0.125 1.71875q-0.0625 0.96875 -0.21875 2.09375q-0.15625 1.125 -0.90625 1.3125q-0.75 0.1875 -2.375 0.375q-0.125 -0.8125 -0.625 -1.375q1.8125 0 2.1875 -0.125q0.375 -0.125 0.5 -0.6875l0.1875 -2.375l-3.8125 0q-0.875 2.6875 -2.46875 3.5q-1.59375 0.8125 -3.40625 1.4375q-0.1875 -0.5625 -0.875 -1.3125q1.5 -0.125 3.125 -0.9375q1.625 -0.8125 2.3125 -2.6875l-1.4375 0q-1.875 0 -2.75 0.125l0 -1.125q0.9375 0.0625 2.8125 0.0625l1.5625 0zm1.5 -3.9375q1.25 -0.75 2.4375 -2.375l-4.6875 0q1.1875 1.5625 2.25 2.375z" fill-rule="nonzero"/><path fill="#000000" d="m322.61472 200.62247l0 -11.453125l8.28125 0l0 1.34375l-6.765625 0l0 3.515625l6.34375 0l0 1.34375l-6.34375 0l0 3.890625l7.03125 0l0 1.359375l-8.546875 0z" fill-rule="nonzero"/><path fill="#ffffff" d="m248.43307 207.2664l124.50394 0l0 25.007874l-124.50394 0z" fill-rule="evenodd"/><path stroke="#000000" stroke-width="1.0" stroke-linejoin="round" stroke-linecap="butt" d="m248.43307 207.2664l124.50394 0l0 25.007874l-124.50394 0z" fill-rule="evenodd"/><path fill="#000000" d="m303.28268 219.00534q-0.75 3.25 -1.625 4.6875q1.25 1.1875 2.75 1.75l-0.75 1.375q-1.375 -0.625 -2.75 -1.875q-0.9375 1.25 -2.3125 2.0625l-0.8125 -1.3125q1.4375 -0.8125 2.1875 -1.875q-1.1875 -1.8125 -1.4375 -4.4375l-0.8125 0l0 7.5625l-1.25 0l0 -13.8125l6.4375 0l0 3.125q0 1.0 -1.0 1.0l-1.75 0l-0.125 -1.1875l1.375 0q0.25 0 0.25 -0.25l0 -1.5l-3.9375 0l0 3.875l4.5 0l0.1875 -0.1875l1.0625 0.6875q0.25 0.25 -0.1875 0.3125zm-2.5 3.625q0.5 -1.1875 1.0625 -3.25l-2.0625 0q0.125 1.5 1.0 3.25zm-10.0625 -9.4375l4.5 0l0 12.5625q0 1.0 -1.0 1.0l-1.25 0l-0.0625 -1.1875l0.8125 0q0.25 0 0.25 -0.25l0 -3.8125l-2.0 0l0 0.375q0 3.125 -1.3125 5.125l-1.0625 -1.125q1.125 -2.0 1.125 -4.1875l0 -8.5zm3.25 4.75l-2.0 0l0 2.375l2.0 0l0 -2.375zm0 -1.1875l0 -2.375l-2.0 0l0 2.375l2.0 0z" fill-rule="nonzero"/><path fill="#000000" d="m312.03268 213.25534q-0.5 0.4375 -0.875 1.0l6.9375 0q-0.5625 0.9375 -1.46875 2.0q-0.90625 1.0625 -2.28125 2.0q0.875 0.5625 2.375 0.84375q1.5 0.28125 3.5625 0.34375q-0.5 0.5625 -0.6875 1.3125q-1.75 -0.125 -3.4375 -0.625q-1.6875 -0.5 -2.8125 -1.1875q-2.0 0.9375 -3.625 1.375q-1.625 0.4375 -3.1875 0.6875q-0.25 -0.75 -0.75 -1.3125q1.375 0 3.125 -0.375q1.75 -0.375 3.4375 -1.0625q-1.3125 -1.25 -2.25 -2.5625q-1.0625 1.3125 -2.1875 2.1875q-0.4375 -0.5 -1.125 -0.75q1.75 -1.25 2.5625 -2.40625q0.8125 -1.15625 1.1875 -2.15625q0.8125 0.4375 1.5 0.6875zm-0.125 8.25q0.125 -0.75 0.125 -1.75q0.75 0.125 1.5 0.1875q-0.1875 0.375 -0.375 1.5625l5.0625 0q-0.0625 0.75 -0.125 1.71875q-0.0625 0.96875 -0.21875 2.09375q-0.15625 1.125 -0.90625 1.3125q-0.75 0.1875 -2.375 0.375q-0.125 -0.8125 -0.625 -1.375q1.8125 0 2.1875 -0.125q0.375 -0.125 0.5 -0.6875l0.1875 -2.375l-3.8125 0q-0.875 2.6875 -2.46875 3.5q-1.59375 0.8125 -3.40625 1.4375q-0.1875 -0.5625 -0.875 -1.3125q1.5 -0.125 3.125 -0.9375q1.625 -0.8125 2.3125 -2.6875l-1.4375 0q-1.875 0 -2.75 0.125l0 -1.125q0.9375 0.0625 2.8125 0.0625l1.5625 0zm1.5 -3.9375q1.25 -0.75 2.4375 -2.375l-4.6875 0q1.1875 1.5625 2.25 2.375z" fill-rule="nonzero"/><path fill="#000000" d="m322.14206 225.63034l0 -11.453125l3.953125 0q1.328125 0 2.03125 0.15625q0.984375 0.234375 1.6875 0.828125q0.90625 0.765625 1.34375 1.953125q0.453125 1.1875 0.453125 2.71875q0 1.3125 -0.3125 2.328125q-0.296875 1.0 -0.78125 1.65625q-0.46875 0.65625 -1.03125 1.046875q-0.5625 0.375 -1.375 0.578125q-0.796875 0.1875 -1.828125 0.1875l-4.140625 0zm1.515625 -1.359375l2.453125 0q1.125 0 1.765625 -0.203125q0.65625 -0.21875 1.03125 -0.59375q0.546875 -0.546875 0.84375 -1.453125q0.296875 -0.90625 0.296875 -2.203125q0 -1.796875 -0.59375 -2.765625q-0.578125 -0.96875 -1.421875 -1.296875q-0.609375 -0.234375 -1.96875 -0.234375l-2.40625 0l0 8.75z" fill-rule="nonzero"/><path fill="#ffffff" d="m248.43307 157.25066l124.50394 0l0 25.007874l-124.50394 0z" fill-rule="evenodd"/><path stroke="#000000" stroke-width="1.0" stroke-linejoin="round" stroke-linecap="butt" d="m248.43307 157.25066l124.50394 0l0 25.007874l-124.50394 0z" fill-rule="evenodd"/><path fill="#000000" d="m303.7241 168.9896q-0.75 3.25 -1.625 4.6875q1.25 1.1875 2.75 1.75l-0.75 1.375q-1.375 -0.625 -2.75 -1.875q-0.9375 1.25 -2.3125 2.0625l-0.8125 -1.3125q1.4375 -0.8125 2.1875 -1.875q-1.1875 -1.8125 -1.4375 -4.4375l-0.8125 0l0 7.5625l-1.25 0l0 -13.8125l6.4375 0l0 3.125q0 1.0 -1.0 1.0l-1.75 0l-0.125 -1.1875l1.375 0q0.25 0 0.25 -0.25l0 -1.5l-3.9375 0l0 3.875l4.5 0l0.1875 -0.1875l1.0625 0.6875q0.25 0.25 -0.1875 0.3125zm-2.5 3.625q0.5 -1.1875 1.0625 -3.25l-2.0625 0q0.125 1.5 1.0 3.25zm-10.0625 -9.4375l4.5 0l0 12.5625q0 1.0 -1.0 1.0l-1.25 0l-0.0625 -1.1875l0.8125 0q0.25 0 0.25 -0.25l0 -3.8125l-2.0 0l0 0.375q0 3.125 -1.3125 5.125l-1.0625 -1.125q1.125 -2.0 1.125 -4.1875l0 -8.5zm3.25 4.75l-2.0 0l0 2.375l2.0 0l0 -2.375zm0 -1.1875l0 -2.375l-2.0 0l0 2.375l2.0 0z" fill-rule="nonzero"/><path fill="#000000" d="m312.4741 163.2396q-0.5 0.4375 -0.875 1.0l6.9375 0q-0.5625 0.9375 -1.46875 2.0q-0.90625 1.0625 -2.28125 2.0q0.875 0.5625 2.375 0.84375q1.5 0.28125 3.5625 0.34375q-0.5 0.5625 -0.6875 1.3125q-1.75 -0.125 -3.4375 -0.625q-1.6875 -0.5 -2.8125 -1.1875q-2.0 0.9375 -3.625 1.375q-1.625 0.4375 -3.1875 0.6875q-0.25 -0.75 -0.75 -1.3125q1.375 0 3.125 -0.375q1.75 -0.375 3.4375 -1.0625q-1.3125 -1.25 -2.25 -2.5625q-1.0625 1.3125 -2.1875 2.1875q-0.4375 -0.5 -1.125 -0.75q1.75 -1.25 2.5625 -2.40625q0.8125 -1.15625 1.1875 -2.15625q0.8125 0.4375 1.5 0.6875zm-0.125 8.25q0.125 -0.75 0.125 -1.75q0.75 0.125 1.5 0.1875q-0.1875 0.375 -0.375 1.5625l5.0625 0q-0.0625 0.75 -0.125 1.71875q-0.0625 0.96875 -0.21875 2.09375q-0.15625 1.125 -0.90625 1.3125q-0.75 0.1875 -2.375 0.375q-0.125 -0.8125 -0.625 -1.375q1.8125 0 2.1875 -0.125q0.375 -0.125 0.5 -0.6875l0.1875 -2.375l-3.8125 0q-0.875 2.6875 -2.46875 3.5q-1.59375 0.8125 -3.40625 1.4375q-0.1875 -0.5625 -0.875 -1.3125q1.5 -0.125 3.125 -0.9375q1.625 -0.8125 2.3125 -2.6875l-1.4375 0q-1.875 0 -2.75 0.125l0 -1.125q0.9375 0.0625 2.8125 0.0625l1.5625 0zm1.5 -3.9375q1.25 -0.75 2.4375 -2.375l-4.6875 0q1.1875 1.5625 2.25 2.375z" fill-rule="nonzero"/><path fill="#000000" d="m321.31784 175.6146l4.40625 -11.453125l1.640625 0l4.6875 11.453125l-1.734375 0l-1.328125 -3.46875l-4.796875 0l-1.25 3.46875l-1.625 0zm3.3125 -4.703125l3.890625 0l-1.203125 -3.171875q-0.546875 -1.453125 -0.8125 -2.375q-0.21875 1.09375 -0.609375 2.1875l-1.265625 3.359375z" fill-rule="nonzero"/><path fill="#f3f3f3" d="m531.46716 120.409996l0 0c0 -15.104782 12.244873 -27.349632 27.34967 -27.349632l109.3952 0l0 0c7.253601 0 14.210083 2.8814774 19.339111 8.010521c5.1290894 5.129051 8.010559 12.085541 8.010559 19.339111l0 184.54483c0 15.104797 -12.244873 27.34964 -27.34967 27.34964l-109.3952 0c-15.104797 0 -27.34967 -12.244843 -27.34967 -27.34964z" fill-rule="evenodd"/><path fill="#d9d9d9" d="m556.3097 282.56693l0 0c0 -2.7657776 7.5236206 -5.0078735 16.804504 -5.0078735c9.280823 0 16.804443 2.242096 16.804443 5.0078735l0 20.031494c0 2.7657776 -7.5236206 5.0078735 -16.804443 5.0078735c-9.280884 0 -16.804504 -2.242096 -16.804504 -5.0078735z" fill-rule="evenodd"/><path fill="#000000" fill-opacity="0.0" d="m589.91864 282.56693l0 0c0 2.7657776 -7.5236206 5.0078735 -16.804443 5.0078735c-9.280884 0 -16.804504 -2.242096 -16.804504 -5.0078735" fill-rule="evenodd"/><path fill="#000000" fill-opacity="0.0" d="m556.3097 282.56693l0 0c0 -2.7657776 7.5236206 -5.0078735 16.804504 -5.0078735c9.280823 0 16.804443 2.242096 16.804443 5.0078735l0 20.031494c0 2.7657776 -7.5236206 5.0078735 -16.804443 5.0078735c-9.280884 0 -16.804504 -2.242096 -16.804504 -5.0078735z" fill-rule="evenodd"/><path stroke="#000000" stroke-width="1.0" stroke-linejoin="round" stroke-linecap="butt" d="m589.91864 282.56693l0 0c0 2.7657776 -7.5236206 5.0078735 -16.804443 5.0078735c-9.280884 0 -16.804504 -2.242096 -16.804504 -5.0078735" fill-rule="evenodd"/><path stroke="#000000" stroke-width="1.0" stroke-linejoin="round" stroke-linecap="butt" d="m556.3097 282.56693l0 0c0 -2.7657776 7.5236206 -5.0078735 16.804504 -5.0078735c9.280823 0 16.804443 2.242096 16.804443 5.0078735l0 20.031494c0 2.7657776 -7.5236206 5.0078735 -16.804443 5.0078735c-9.280884 0 -16.804504 -2.242096 -16.804504 -5.0078735z" fill-rule="evenodd"/><path fill="#d9d9d9" d="m618.35956 282.3237l0 0c0 -2.8329163 8.742798 -5.129486 19.527588 -5.129486c10.78479 0 19.527527 2.2965698 19.527527 5.129486l0 20.517944c0 2.8329468 -8.742737 5.129486 -19.527527 5.129486c-10.78479 0 -19.527588 -2.2965393 -19.527588 -5.129486z" fill-rule="evenodd"/><path fill="#000000" fill-opacity="0.0" d="m657.4147 282.3237l0 0c0 2.8329468 -8.742737 5.129486 -19.527527 5.129486c-10.78479 0 -19.527588 -2.2965393 -19.527588 -5.129486" fill-rule="evenodd"/><path fill="#000000" fill-opacity="0.0" d="m618.35956 282.3237l0 0c0 -2.8329163 8.742798 -5.129486 19.527588 -5.129486c10.78479 0 19.527527 2.2965698 19.527527 5.129486l0 20.517944c0 2.8329468 -8.742737 5.129486 -19.527527 5.129486c-10.78479 0 -19.527588 -2.2965393 -19.527588 -5.129486z" fill-rule="evenodd"/><path stroke="#000000" stroke-width="1.0" stroke-linejoin="round" stroke-linecap="butt" d="m657.4147 282.3237l0 0c0 2.8329468 -8.742737 5.129486 -19.527527 5.129486c-10.78479 0 -19.527588 -2.2965393 -19.527588 -5.129486" fill-rule="evenodd"/><path stroke="#000000" stroke-width="1.0" stroke-linejoin="round" stroke-linecap="butt" d="m618.35956 282.3237l0 0c0 -2.8329163 8.742798 -5.129486 19.527588 -5.129486c10.78479 0 19.527527 2.2965698 19.527527 5.129486l0 20.517944c0 2.8329468 -8.742737 5.129486 -19.527527 5.129486c-10.78479 0 -19.527588 -2.2965393 -19.527588 -5.129486z" fill-rule="evenodd"/><path fill="#000000" fill-opacity="0.0" d="m526.1391 103.00656l60.188965 0l0 38.771652l-60.188965 0z" fill-rule="evenodd"/><path fill="#000000" d="m535.10785 127.36656l4.40625 -11.453125l1.640625 0l4.6875 11.453125l-1.734375 0l-1.328125 -3.46875l-4.796875 0l-1.25 3.46875l-1.625 0zm3.3125 -4.703125l3.890625 0l-1.203125 -3.171875q-0.546875 -1.453125 -0.8125 -2.375q-0.21875 1.09375 -0.609375 2.1875l-1.265625 3.359375zm7.71875 4.703125l0 -1.40625l5.859375 -7.34375q0.625 -0.78125 1.1875 -1.359375l-6.390625 0l0 -1.34375l8.203125 0l0 1.34375l-6.421875 7.953125l-0.703125 0.796875l7.3125 0l0 1.359375l-9.046875 0zm9.9609375 -3.4375l0 -1.421875l4.3125 0l0 1.421875l-4.3125 0zm5.484375 0.40625l1.40625 -0.1875q0.25 1.203125 0.828125 1.734375q0.578125 0.515625 1.421875 0.515625q0.984375 0 1.671875 -0.6875q0.6875 -0.6875 0.6875 -1.703125q0 -0.96875 -0.640625 -1.59375q-0.625 -0.625 -1.609375 -0.625q-0.390625 0 -0.984375 0.15625l0.15625 -1.234375q0.140625 0.015625 0.21875 0.015625q0.90625 0 1.625 -0.46875q0.71875 -0.46875 0.71875 -1.453125q0 -0.765625 -0.53125 -1.265625q-0.515625 -0.515625 -1.34375 -0.515625q-0.828125 0 -1.375 0.515625q-0.546875 0.515625 -0.703125 1.546875l-1.40625 -0.25q0.265625 -1.421875 1.171875 -2.1875q0.921875 -0.78125 2.28125 -0.78125q0.9375 0 1.71875 0.40625q0.796875 0.390625 1.203125 1.09375q0.421875 0.6875 0.421875 1.46875q0 0.75 -0.40625 1.359375q-0.390625 0.609375 -1.171875 0.96875q1.015625 0.234375 1.578125 0.96875q0.5625 0.734375 0.5625 1.84375q0 1.5 -1.09375 2.546875q-1.09375 1.046875 -2.765625 1.046875q-1.5 0 -2.5 -0.890625q-1.0 -0.90625 -1.140625 -2.34375z" fill-rule="nonzero"/><path fill="#ffffff" d="m545.84515 167.18373l124.50391 0l0 25.007874l-124.50391 0z" fill-rule="evenodd"/><path stroke="#000000" stroke-width="1.0" stroke-linejoin="round" stroke-linecap="butt" d="m545.84515 167.18373l124.50391 0l0 25.007874l-124.50391 0z" fill-rule="evenodd"/><path fill="#000000" d="m601.13617 178.92267q-0.75 3.25 -1.625 4.6875q1.25 1.1875 2.75 1.75l-0.75 1.375q-1.375 -0.625 -2.75 -1.875q-0.9375 1.25 -2.3125 2.0625l-0.8125 -1.3125q1.4375 -0.8125 2.1875 -1.875q-1.1875 -1.8125 -1.4375 -4.4375l-0.8125 0l0 7.5625l-1.25 0l0 -13.8125l6.4375 0l0 3.125q0 1.0 -1.0 1.0l-1.75 0l-0.125 -1.1875l1.375 0q0.25 0 0.25 -0.25l0 -1.5l-3.9375 0l0 3.875l4.5 0l0.1875 -0.1875l1.0625 0.6875q0.25 0.25 -0.1875 0.3125zm-2.5 3.625q0.5 -1.1875 1.0625 -3.25l-2.0625 0q0.125 1.5 1.0 3.25zm-10.0625 -9.4375l4.5 0l0 12.5625q0 1.0 -1.0 1.0l-1.25 0l-0.0625 -1.1875l0.8125 0q0.25 0 0.25 -0.25l0 -3.8125l-2.0 0l0 0.375q0 3.125 -1.3125 5.125l-1.0625 -1.125q1.125 -2.0 1.125 -4.1875l0 -8.5zm3.25 4.75l-2.0 0l0 2.375l2.0 0l0 -2.375zm0 -1.1875l0 -2.375l-2.0 0l0 2.375l2.0 0z" fill-rule="nonzero"/><path fill="#000000" d="m609.88617 173.17267q-0.5 0.4375 -0.875 1.0l6.9375 0q-0.5625 0.9375 -1.46875 2.0q-0.90625 1.0625 -2.28125 2.0q0.875 0.5625 2.375 0.84375q1.5 0.28125 3.5625 0.34375q-0.5 0.5625 -0.6875 1.3125q-1.75 -0.125 -3.4375 -0.625q-1.6875 -0.5 -2.8125 -1.1875q-2.0 0.9375 -3.625 1.375q-1.625 0.4375 -3.1875 0.6875q-0.25 -0.75 -0.75 -1.3125q1.375 0 3.125 -0.375q1.75 -0.375 3.4375 -1.0625q-1.3125 -1.25 -2.25 -2.5625q-1.0625 1.3125 -2.1875 2.1875q-0.4375 -0.5 -1.125 -0.75q1.75 -1.25 2.5625 -2.40625q0.8125 -1.15625 1.1875 -2.15625q0.8125 0.4375 1.5 0.6875zm-0.125 8.25q0.125 -0.75 0.125 -1.75q0.75 0.125 1.5 0.1875q-0.1875 0.375 -0.375 1.5625l5.0625 0q-0.0625 0.75 -0.125 1.71875q-0.0625 0.96875 -0.21875 2.09375q-0.15625 1.125 -0.90625 1.3125q-0.75 0.1875 -2.375 0.375q-0.125 -0.8125 -0.625 -1.375q1.8125 0 2.1875 -0.125q0.375 -0.125 0.5 -0.6875l0.1875 -2.375l-3.8125 0q-0.875 2.6875 -2.46875 3.5q-1.59375 0.8125 -3.40625 1.4375q-0.1875 -0.5625 -0.875 -1.3125q1.5 -0.125 3.125 -0.9375q1.625 -0.8125 2.3125 -2.6875l-1.4375 0q-1.875 0 -2.75 0.125l0 -1.125q0.9375 0.0625 2.8125 0.0625l1.5625 0zm1.5 -3.9375q1.25 -0.75 2.4375 -2.375l-4.6875 0q1.1875 1.5625 2.25 2.375z" fill-rule="nonzero"/><path fill="#000000" d="m619.93304 185.54767l0 -11.453125l4.296875 0q1.3125 0 2.109375 0.34375q0.796875 0.34375 1.234375 1.078125q0.453125 0.71875 0.453125 1.5q0 0.734375 -0.40625 1.390625q-0.390625 0.640625 -1.1875 1.046875q1.03125 0.296875 1.59375 1.03125q0.5625 0.734375 0.5625 1.734375q0 0.8125 -0.34375 1.5q-0.34375 0.6875 -0.84375 1.0625q-0.5 0.375 -1.25 0.578125q-0.75 0.1875 -1.84375 0.1875l-4.375 0zm1.515625 -6.640625l2.484375 0q1.0 0 1.4375 -0.140625q0.578125 -0.171875 0.875 -0.5625q0.296875 -0.40625 0.296875 -1.0q0 -0.578125 -0.28125 -1.0q-0.265625 -0.4375 -0.78125 -0.59375q-0.5 -0.171875 -1.734375 -0.171875l-2.296875 0l0 3.46875zm0 5.28125l2.859375 0q0.734375 0 1.03125 -0.046875q0.515625 -0.09375 0.859375 -0.3125q0.359375 -0.21875 0.578125 -0.640625q0.234375 -0.421875 0.234375 -0.96875q0 -0.640625 -0.328125 -1.109375q-0.328125 -0.46875 -0.90625 -0.65625q-0.578125 -0.203125 -1.671875 -0.203125l-2.65625 0l0 3.9375z" fill-rule="nonzero"/><path fill="#ffffff" d="m545.84515 192.1916l124.50391 0l0 25.007874l-124.50391 0z" fill-rule="evenodd"/><path stroke="#000000" stroke-width="1.0" stroke-linejoin="round" stroke-linecap="butt" d="m545.84515 192.1916l124.50391 0l0 25.007874l-124.50391 0z" fill-rule="evenodd"/><path fill="#000000" d="m600.69476 203.93054q-0.75 3.25 -1.625 4.6875q1.25 1.1875 2.75 1.75l-0.75 1.375q-1.375 -0.625 -2.75 -1.875q-0.9375 1.25 -2.3125 2.0625l-0.8125 -1.3125q1.4375 -0.8125 2.1875 -1.875q-1.1875 -1.8125 -1.4375 -4.4375l-0.8125 0l0 7.5625l-1.25 0l0 -13.8125l6.4375 0l0 3.125q0 1.0 -1.0 1.0l-1.75 0l-0.125 -1.1875l1.375 0q0.25 0 0.25 -0.25l0 -1.5l-3.9375 0l0 3.875l4.5 0l0.1875 -0.1875l1.0625 0.6875q0.25 0.25 -0.1875 0.3125zm-2.5 3.625q0.5 -1.1875 1.0625 -3.25l-2.0625 0q0.125 1.5 1.0 3.25zm-10.0625 -9.4375l4.5 0l0 12.5625q0 1.0 -1.0 1.0l-1.25 0l-0.0625 -1.1875l0.8125 0q0.25 0 0.25 -0.25l0 -3.8125l-2.0 0l0 0.375q0 3.125 -1.3125 5.125l-1.0625 -1.125q1.125 -2.0 1.125 -4.1875l0 -8.5zm3.25 4.75l-2.0 0l0 2.375l2.0 0l0 -2.375zm0 -1.1875l0 -2.375l-2.0 0l0 2.375l2.0 0z" fill-rule="nonzero"/><path fill="#000000" d="m609.44476 198.18054q-0.5 0.4375 -0.875 1.0l6.9375 0q-0.5625 0.9375 -1.46875 2.0q-0.90625 1.0625 -2.28125 2.0q0.875 0.5625 2.375 0.84375q1.5 0.28125 3.5625 0.34375q-0.5 0.5625 -0.6875 1.3125q-1.75 -0.125 -3.4375 -0.625q-1.6875 -0.5 -2.8125 -1.1875q-2.0 0.9375 -3.625 1.375q-1.625 0.4375 -3.1875 0.6875q-0.25 -0.75 -0.75 -1.3125q1.375 0 3.125 -0.375q1.75 -0.375 3.4375 -1.0625q-1.3125 -1.25 -2.25 -2.5625q-1.0625 1.3125 -2.1875 2.1875q-0.4375 -0.5 -1.125 -0.75q1.75 -1.25 2.5625 -2.40625q0.8125 -1.15625 1.1875 -2.15625q0.8125 0.4375 1.5 0.6875zm-0.125 8.25q0.125 -0.75 0.125 -1.75q0.75 0.125 1.5 0.1875q-0.1875 0.375 -0.375 1.5625l5.0625 0q-0.0625 0.75 -0.125 1.71875q-0.0625 0.96875 -0.21875 2.09375q-0.15625 1.125 -0.90625 1.3125q-0.75 0.1875 -2.375 0.375q-0.125 -0.8125 -0.625 -1.375q1.8125 0 2.1875 -0.125q0.375 -0.125 0.5 -0.6875l0.1875 -2.375l-3.8125 0q-0.875 2.6875 -2.46875 3.5q-1.59375 0.8125 -3.40625 1.4375q-0.1875 -0.5625 -0.875 -1.3125q1.5 -0.125 3.125 -0.9375q1.625 -0.8125 2.3125 -2.6875l-1.4375 0q-1.875 0 -2.75 0.125l0 -1.125q0.9375 0.0625 2.8125 0.0625l1.5625 0zm1.5 -3.9375q1.25 -0.75 2.4375 -2.375l-4.6875 0q1.1875 1.5625 2.25 2.375z" fill-rule="nonzero"/><path fill="#000000" d="m627.726 206.53992l1.515625 0.375q-0.46875 1.875 -1.71875 2.859375q-1.234375 0.984375 -3.015625 0.984375q-1.859375 0 -3.015625 -0.75q-1.15625 -0.765625 -1.765625 -2.1875q-0.609375 -1.4375 -0.609375 -3.078125q0 -1.796875 0.6875 -3.125q0.6875 -1.328125 1.9375 -2.015625q1.265625 -0.703125 2.78125 -0.703125q1.71875 0 2.890625 0.875q1.171875 0.875 1.640625 2.46875l-1.5 0.34375q-0.390625 -1.25 -1.15625 -1.8125q-0.75 -0.578125 -1.90625 -0.578125q-1.3125 0 -2.203125 0.640625q-0.890625 0.625 -1.25 1.703125q-0.359375 1.0625 -0.359375 2.1875q0 1.46875 0.421875 2.5625q0.4375 1.078125 1.328125 1.625q0.90625 0.53125 1.953125 0.53125q1.265625 0 2.140625 -0.734375q0.890625 -0.734375 1.203125 -2.171875z" fill-rule="nonzero"/><path fill="#ffffff" d="m545.84515 142.17586l124.50391 0l0 25.007874l-124.50391 0z" fill-rule="evenodd"/><path stroke="#000000" stroke-width="1.0" stroke-linejoin="round" stroke-linecap="butt" d="m545.84515 142.17586l124.50391 0l0 25.007874l-124.50391 0z" fill-rule="evenodd"/><path fill="#000000" d="m601.13617 153.9148q-0.75 3.25 -1.625 4.6875q1.25 1.1875 2.75 1.75l-0.75 1.375q-1.375 -0.625 -2.75 -1.875q-0.9375 1.25 -2.3125 2.0625l-0.8125 -1.3125q1.4375 -0.8125 2.1875 -1.875q-1.1875 -1.8125 -1.4375 -4.4375l-0.8125 0l0 7.5625l-1.25 0l0 -13.8125l6.4375 0l0 3.125q0 1.0 -1.0 1.0l-1.75 0l-0.125 -1.1875l1.375 0q0.25 0 0.25 -0.25l0 -1.5l-3.9375 0l0 3.875l4.5 0l0.1875 -0.1875l1.0625 0.6875q0.25 0.25 -0.1875 0.3125zm-2.5 3.625q0.5 -1.1875 1.0625 -3.25l-2.0625 0q0.125 1.5 1.0 3.25zm-10.0625 -9.4375l4.5 0l0 12.5625q0 1.0 -1.0 1.0l-1.25 0l-0.0625 -1.1875l0.8125 0q0.25 0 0.25 -0.25l0 -3.8125l-2.0 0l0 0.375q0 3.125 -1.3125 5.125l-1.0625 -1.125q1.125 -2.0 1.125 -4.1875l0 -8.5zm3.25 4.75l-2.0 0l0 2.375l2.0 0l0 -2.375zm0 -1.1875l0 -2.375l-2.0 0l0 2.375l2.0 0z" fill-rule="nonzero"/><path fill="#000000" d="m609.88617 148.1648q-0.5 0.4375 -0.875 1.0l6.9375 0q-0.5625 0.9375 -1.46875 2.0q-0.90625 1.0625 -2.28125 2.0q0.875 0.5625 2.375 0.84375q1.5 0.28125 3.5625 0.34375q-0.5 0.5625 -0.6875 1.3125q-1.75 -0.125 -3.4375 -0.625q-1.6875 -0.5 -2.8125 -1.1875q-2.0 0.9375 -3.625 1.375q-1.625 0.4375 -3.1875 0.6875q-0.25 -0.75 -0.75 -1.3125q1.375 0 3.125 -0.375q1.75 -0.375 3.4375 -1.0625q-1.3125 -1.25 -2.25 -2.5625q-1.0625 1.3125 -2.1875 2.1875q-0.4375 -0.5 -1.125 -0.75q1.75 -1.25 2.5625 -2.40625q0.8125 -1.15625 1.1875 -2.15625q0.8125 0.4375 1.5 0.6875zm-0.125 8.25q0.125 -0.75 0.125 -1.75q0.75 0.125 1.5 0.1875q-0.1875 0.375 -0.375 1.5625l5.0625 0q-0.0625 0.75 -0.125 1.71875q-0.0625 0.96875 -0.21875 2.09375q-0.15625 1.125 -0.90625 1.3125q-0.75 0.1875 -2.375 0.375q-0.125 -0.8125 -0.625 -1.375q1.8125 0 2.1875 -0.125q0.375 -0.125 0.5 -0.6875l0.1875 -2.375l-3.8125 0q-0.875 2.6875 -2.46875 3.5q-1.59375 0.8125 -3.40625 1.4375q-0.1875 -0.5625 -0.875 -1.3125q1.5 -0.125 3.125 -0.9375q1.625 -0.8125 2.3125 -2.6875l-1.4375 0q-1.875 0 -2.75 0.125l0 -1.125q0.9375 0.0625 2.8125 0.0625l1.5625 0zm1.5 -3.9375q1.25 -0.75 2.4375 -2.375l-4.6875 0q1.1875 1.5625 2.25 2.375z" fill-rule="nonzero"/><path fill="#000000" d="m618.7299 160.5398l4.40625 -11.453125l1.640625 0l4.6875 11.453125l-1.734375 0l-1.328125 -3.46875l-4.796875 0l-1.25 3.46875l-1.625 0zm3.3125 -4.703125l3.890625 0l-1.203125 -3.171875q-0.546875 -1.453125 -0.8125 -2.375q-0.21875 1.09375 -0.609375 2.1875l-1.265625 3.359375z" fill-rule="nonzero"/><path fill="#000000" fill-opacity="0.0" d="m382.09186 286.4357c43.555542 0 65.33548 1.5354309 87.111084 3.0708618c21.775574 1.5354309 43.546814 3.0708618 87.09363 3.0708618" fill-rule="evenodd"/><path stroke="#000000" stroke-width="1.0" stroke-linejoin="round" stroke-linecap="butt" stroke-dasharray="4.0,3.0" d="m388.09186 286.44684l1.9168091 0.0064697266c2.5574036 0.011627197 5.035095 0.028869629 7.4382935 0.051361084c4.806488 0.04498291 9.315247 0.110961914 13.568787 0.19491577c8.507141 0.16793823 15.993439 0.40786743 22.799133 0.69577026c13.611389 0.57577515 24.500244 1.3434753 35.38803 2.111206c10.887817 0.7677307 21.774536 1.5354309 35.38263 2.111206c6.8040466 0.28790283 14.288483 0.52783203 22.793549 0.69577026c4.2525024 0.08395386 8.760193 0.14993286 13.565613 0.19491577c2.40271 0.022491455 4.879883 0.039733887 7.4367065 0.051361084l1.9151611 0.0064697266" fill-rule="evenodd"/><path fill="#000000" stroke="#000000" stroke-width="1.0" stroke-linecap="butt" d="m388.0949 284.7951l-4.5411377 1.6433105l4.5350037 1.6601562z" fill-rule="evenodd"/><path fill="#000000" stroke="#000000" stroke-width="1.0" stroke-linecap="butt" d="m550.2935 294.21802l4.5411987 -1.6433105l-4.535034 -1.6601562z" fill-rule="evenodd"/><path fill="#ffffff" d="m577.5066 22.548557l82.11023 0l0 30.047245l-82.11023 0z" fill-rule="evenodd"/><path stroke="#000000" stroke-width="1.0" stroke-linejoin="round" stroke-linecap="butt" d="m577.5066 22.548557l82.11023 0l0 30.047245l-82.11023 0z" fill-rule="evenodd"/><path fill="#000000" d="m609.9484 43.43218l0 -11.453125l1.515625 0l0 10.09375l5.640625 0l0 1.359375l-7.15625 0zm8.8984375 0l0 -11.453125l4.296875 0q1.3125 0 2.109375 0.34375q0.796875 0.34375 1.234375 1.078125q0.453125 0.71875 0.453125 1.5q0 0.734375 -0.40625 1.390625q-0.390625 0.640625 -1.1875 1.046875q1.03125 0.296875 1.59375 1.03125q0.5625 0.734375 0.5625 1.734375q0 0.8125 -0.34375 1.5q-0.34375 0.6875 -0.84375 1.0625q-0.5 0.375 -1.25 0.578125q-0.75 0.1875 -1.84375 0.1875l-4.375 0zm1.515625 -6.640625l2.484375 0q1.0 0 1.4375 -0.140625q0.578125 -0.171875 0.875 -0.5625q0.296875 -0.40625 0.296875 -1.0q0 -0.578125 -0.28125 -1.0q-0.265625 -0.4375 -0.78125 -0.59375q-0.5 -0.171875 -1.734375 -0.171875l-2.296875 0l0 3.46875zm0 5.28125l2.859375 0q0.734375 0 1.03125 -0.046875q0.515625 -0.09375 0.859375 -0.3125q0.359375 -0.21875 0.578125 -0.640625q0.234375 -0.421875 0.234375 -0.96875q0 -0.640625 -0.328125 -1.109375q-0.328125 -0.46875 -0.90625 -0.65625q-0.578125 -0.203125 -1.671875 -0.203125l-2.65625 0l0 3.9375z" fill-rule="nonzero"/><path fill="#ffffff" d="m556.3097 82.36089l124.50397 0l0 30.047241l-124.50397 0z" fill-rule="evenodd"/><path stroke="#000000" stroke-width="1.0" stroke-linejoin="round" stroke-linecap="butt" d="m556.3097 82.36089l124.50397 0l0 30.047241l-124.50397 0z" fill-rule="evenodd"/><path fill="#000000" d="m600.9367 96.619514q-0.75 3.25 -1.625 4.6875q1.25 1.1875 2.75 1.75l-0.75 1.375q-1.375 -0.625 -2.75 -1.875q-0.9375 1.25 -2.3125 2.0625l-0.8125 -1.3125q1.4375 -0.8125 2.1875 -1.875q-1.1875 -1.8125 -1.4375 -4.4375l-0.8125 0l0 7.5625l-1.25 0l0 -13.8125l6.4375 0l0 3.125q0 1.0 -1.0 1.0l-1.75 0l-0.125 -1.1875l1.375 0q0.25 0 0.25 -0.25l0 -1.5l-3.9375 0l0 3.875l4.5 0l0.1875 -0.1875l1.0625 0.6875q0.25 0.25 -0.1875 0.3125zm-2.5 3.625q0.5 -1.1875 1.0625 -3.25l-2.0625 0q0.125 1.5 1.0 3.25zm-10.0625 -9.4375l4.5 0l0 12.5625q0 1.0 -1.0 1.0l-1.25 0l-0.0625 -1.1875l0.8125 0q0.25 0 0.25 -0.25l0 -3.8125l-2.0 0l0 0.375q0 3.125 -1.3125 5.125l-1.0625 -1.125q1.125 -2.0 1.125 -4.1875l0 -8.5zm3.25 4.75l-2.0 0l0 2.375l2.0 0l0 -2.375zm0 -1.1875l0 -2.375l-2.0 0l0 2.375l2.0 0z" fill-rule="nonzero"/><path fill="#000000" d="m609.6867 90.869514q-0.5 0.4375 -0.875 1.0l6.9375 0q-0.5625 0.9375 -1.46875 2.0q-0.90625 1.0625 -2.28125 2.0q0.875 0.5625 2.375 0.84375q1.5 0.28125 3.5625 0.34375q-0.5 0.5625 -0.6875 1.3125q-1.75 -0.125 -3.4375 -0.625q-1.6875 -0.5 -2.8125 -1.1875q-2.0 0.9375 -3.625 1.375q-1.625 0.4375 -3.1875 0.6875q-0.25 -0.75 -0.75 -1.3125q1.375 0 3.125 -0.375q1.75 -0.375 3.4375 -1.0625q-1.3125 -1.25 -2.25 -2.5625q-1.0625 1.3125 -2.1875 2.1875q-0.4375 -0.5 -1.125 -0.75q1.75 -1.25 2.5625 -2.40625q0.8125 -1.15625 1.1875 -2.15625q0.8125 0.4375 1.5 0.6875zm-0.125 8.25q0.125 -0.75 0.125 -1.75q0.75 0.125 1.5 0.1875q-0.1875 0.375 -0.375 1.5625l5.0625 0q-0.0625 0.75 -0.125 1.71875q-0.0625 0.96875 -0.21875 2.09375q-0.15625 1.125 -0.90625 1.3125q-0.75 0.1875 -2.375 0.375q-0.125 -0.8125 -0.625 -1.375q1.8125 0 2.1875 -0.125q0.375 -0.125 0.5 -0.6875l0.1875 -2.375l-3.8125 0q-0.875 2.6875 -2.46875 3.5q-1.59375 0.8125 -3.40625 1.4375q-0.1875 -0.5625 -0.875 -1.3125q1.5 -0.125 3.125 -0.9375q1.625 -0.8125 2.3125 -2.6875l-1.4375 0q-1.875 0 -2.75 0.125l0 -1.125q0.9375 0.0625 2.8125 0.0625l1.5625 0zm1.5 -3.9375q1.25 -0.75 2.4375 -2.375l-4.6875 0q1.1875 1.5625 2.25 2.375z" fill-rule="nonzero"/><path fill="#000000" d="m624.4992 98.932014q-0.75 1.9375 -2.25 3.625l-0.6875 -0.9375q1.4375 -1.75 2.1875 -3.6875q-0.9375 -1.375 -1.9375 -2.6875l0.625 -0.625q0.875 1.0 1.5625 1.9375q0.25 -1.5 0.375 -3.0625l1.0625 0.25q0.5 0.1875 -0.0625 0.375q-0.1875 1.5 -0.5 3.4375q0.875 1.1875 1.625 2.3125l-0.625 1.0625q-0.6875 -1.0 -1.375 -2.0zm-3.25 -6.375l0 11.5625l-1.25 0l0 -12.75l12.9375 0l0 11.625q0 1.0 -0.9375 1.0l-1.5625 0l-0.25 -1.1875l1.3125 0q0.1875 0 0.1875 -0.1875l0 -10.0625l-10.4375 0zm7.375 4.375q0.375 -1.875 0.5 -3.5l1.0 0.125q0.625 0.1875 0 0.4375q-0.1875 1.75 -0.6875 3.875q0.9375 1.3125 1.625 2.5l-0.625 1.0q-0.75 -1.25 -1.4375 -2.3125q-0.9375 2.4375 -2.1875 3.75l-0.6875 -1.0q1.25 -1.3125 2.0625 -3.6875q-0.9375 -1.5 -1.875 -2.625l0.625 -0.6875q0.75 0.875 1.6875 2.125zm7.75 1.5625l0 -1.1875l5.5 0l0 -2.25l-4.75 0l0 -1.1875l10.625 0l0 1.1875l-4.625 0l0 2.25l5.5625 0l0 1.1875l-5.3125 0q0.8125 3.1875 5.8125 4.3125l-0.8125 1.4375q-4.0625 -0.8125 -5.625 -4.1875q-1.0 3.4375 -6.3125 4.625l-0.5625 -1.4375q5.5625 -1.0625 5.875 -4.75l-5.375 0zm10.0625 -7.25q-0.5 1.125 -1.25 2.4375l-1.1875 -0.5q0.75 -1.3125 1.1875 -2.75l1.4375 0.5q0.25 0.25 -0.1875 0.3125zm-6.9375 -0.625q1.0 0.9375 1.5625 2.3125l-1.25 0.75q-0.75 -1.4375 -1.5 -2.3125l1.1875 -0.75z" fill-rule="nonzero"/><path fill="#000000" fill-opacity="0.0" d="m430.9672 286.4357l77.22833 0l0 38.771637l-77.22833 0z" fill-rule="evenodd"/><path fill="#000000" d="m452.7797 302.6707l0 -0.4375l-2.875 0l-0.1875 1.5l4.8125 0l-0.25 5.875q-0.125 2.4375 -2.0 2.4375l-1.6875 0l-0.25 -1.375l1.875 0q0.75 0 0.8125 -0.8125l0.125 -1.6875q-2.5 1.4375 -4.1875 2.0q-0.1875 0.4375 -0.3125 0.1875l-0.5 -1.375q2.3125 -0.6875 4.4375 -1.875l0.5625 0.875l0.125 -3.0625l-3.8125 0l-0.0625 0.375l-1.1875 -0.0625q0.375 -2.125 0.5625 -4.0l4.0 0l0 -1.625l-4.8125 0l0 -1.1875l6.0625 0l0 4.25l-1.25 0zm-8.8125 4.8125q-0.9375 -0.5625 -2.0625 -0.9375l0.625 -1.0625q1.0 0.3125 2.0 0.8125l-0.5625 1.1875zm-1.125 -3.75l4.6875 0l-0.375 6.0625q-0.25 2.25 -1.8125 2.25l-1.9375 0l-0.1875 -1.375l1.8125 0q0.75 0 0.875 -0.875l0.1875 -1.6875q-2.1875 1.1875 -4.0625 1.875q-0.1875 0.5625 -0.375 0.125l-0.5625 -1.1875q2.5625 -0.75 4.5625 -1.875l0.4375 0.875l0.1875 -3.0l-3.625 0l-0.125 0.375l-1.1875 -0.0625q0.5 -2.125 0.625 -4.0l4.0 0l0 -1.625l-4.75 0l0 -1.1875l6.0 0l0 4.3125l-1.25 0l0 -0.5l-2.875 0l-0.25 1.5zm8.125 3.8125q-0.875 -0.5625 -2.1875 -0.875l0.625 -1.0625q1.4375 0.25 2.125 0.8125l-0.5625 1.125zm11.1875 -2.0625l0 2.5625l3.5 0l0 -2.5625l-3.5 0zm3.5 3.5625l-3.5 0l0 0.9375l-1.25 0l0 -5.5l6.0 0l0 5.0l-1.25 0l0 -0.4375zm-5.8125 -7.375l8.0625 0l0 1.1875l-8.0625 0l0 -1.1875zm9.0625 -1.625l-9.8125 0l0 11.9375l-1.25 0l0 -13.125l12.3125 0l0 12.0625q0 0.875 -0.875 0.875l-1.75 0l-0.25 -1.1875l1.375 0q0.25 0 0.25 -0.25l0 -10.3125zm11.625 -2.25q0.5 0.0625 0.0625 0.375l0 1.4375l4.5 0l0 1.1875l-4.5 0l0 1.875l6.0625 0l0 1.1875l-6.125 0q0.5625 0.125 0.0625 0.4375l0 3.5q0 1.0625 -1.0 1.0625l-1.375 0l-0.1875 -1.1875l1.125 0q0.1875 0 0.1875 -0.1875l0 -3.625l-6.3125 0l0 -1.1875l2.75 0l0 -3.75l1.1875 0q0.5 0.0625 0.0625 0.375l0 3.375l2.3125 0l0 -4.875l1.1875 0zm-2.5 7.5625q0.3125 0.25 -0.25 0.25q-1.5 2.0 -3.8125 3.375l-0.9375 -1.1875q2.4375 -1.375 3.8125 -3.1875l1.1875 0.75zm7.6875 0.375q0.3125 0.3125 -0.1875 0.3125q-3.625 6.3125 -11.125 6.1875l-0.4375 -1.5q7.3125 0.3125 10.5625 -5.8125l1.1875 0.8125z" fill-rule="nonzero"/><path fill="#000000" fill-opacity="0.0" d="m313.0105 421.38058l227.40155 0l0 38.771637l-227.40155 0z" fill-rule="evenodd"/><path fill="#000000" d="m326.52612 445.74057l-4.4375 -11.453125l1.640625 0l2.96875 8.3125q0.359375 1.0 0.609375 1.875q0.265625 -0.9375 0.609375 -1.875l3.09375 -8.3125l1.546875 0l-4.484375 11.453125l-1.546875 0zm7.390625 0l0 -11.453125l4.328125 0q1.140625 0 1.734375 0.109375q0.84375 0.140625 1.40625 0.53125q0.578125 0.390625 0.921875 1.109375q0.359375 0.703125 0.359375 1.5625q0 1.453125 -0.9375 2.46875q-0.921875 1.015625 -3.359375 1.015625l-2.9375 0l0 4.65625l-1.515625 0zm1.515625 -6.015625l2.96875 0q1.46875 0 2.078125 -0.546875q0.625 -0.546875 0.625 -1.53125q0 -0.71875 -0.375 -1.234375q-0.359375 -0.515625 -0.953125 -0.671875q-0.375 -0.109375 -1.40625 -0.109375l-2.9375 0l0 4.09375zm9.140625 6.015625l0 -11.453125l1.5625 0l6.015625 8.984375l0 -8.984375l1.453125 0l0 11.453125l-1.5625 0l-6.015625 -9.0l0 9.0l-1.453125 0zm10.3359375 0.203125l3.328125 -11.859375l1.125 0l-3.3125 11.859375l-1.140625 0zm5.1640625 -3.890625l1.4375 -0.125q0.09375 0.859375 0.46875 1.421875q0.375 0.546875 1.15625 0.890625q0.78125 0.328125 1.75 0.328125q0.875 0 1.53125 -0.25q0.671875 -0.265625 0.984375 -0.703125q0.328125 -0.453125 0.328125 -0.984375q0 -0.546875 -0.3125 -0.9375q-0.3125 -0.40625 -1.03125 -0.6875q-0.453125 -0.171875 -2.03125 -0.546875q-1.578125 -0.390625 -2.21875 -0.71875q-0.8125 -0.4375 -1.21875 -1.0625q-0.40625 -0.640625 -0.40625 -1.4375q0 -0.859375 0.484375 -1.609375q0.5 -0.765625 1.4375 -1.15625q0.953125 -0.390625 2.109375 -0.390625q1.28125 0 2.25 0.421875q0.96875 0.40625 1.484375 1.203125q0.53125 0.796875 0.578125 1.796875l-1.453125 0.109375q-0.125 -1.078125 -0.796875 -1.625q-0.671875 -0.5625 -2.0 -0.5625q-1.375 0 -2.0 0.5q-0.625 0.5 -0.625 1.21875q0 0.609375 0.4375 1.015625q0.4375 0.390625 2.28125 0.8125q1.859375 0.421875 2.546875 0.734375q1.0 0.453125 1.46875 1.171875q0.484375 0.703125 0.484375 1.625q0 0.90625 -0.53125 1.71875q-0.515625 0.8125 -1.5 1.265625q-0.984375 0.453125 -2.203125 0.453125q-1.5625 0 -2.609375 -0.453125q-1.046875 -0.46875 -1.65625 -1.375q-0.59375 -0.90625 -0.625 -2.0625zm11.1875 3.6875l0 -11.453125l3.953125 0q1.328125 0 2.03125 0.15625q0.984375 0.234375 1.6875 0.828125q0.90625 0.765625 1.34375 1.953125q0.453125 1.1875 0.453125 2.71875q0 1.3125 -0.3125 2.328125q-0.296875 1.0 -0.78125 1.65625q-0.46875 0.65625 -1.03125 1.046875q-0.5625 0.375 -1.375 0.578125q-0.796875 0.1875 -1.828125 0.1875l-4.140625 0zm1.515625 -1.359375l2.453125 0q1.125 0 1.765625 -0.203125q0.65625 -0.21875 1.03125 -0.59375q0.546875 -0.546875 0.84375 -1.453125q0.296875 -0.90625 0.296875 -2.203125q0 -1.796875 -0.59375 -2.765625q-0.578125 -0.96875 -1.421875 -1.296875q-0.609375 -0.234375 -1.96875 -0.234375l-2.40625 0l0 8.75zm9.3203125 -2.078125l0 -1.421875l4.3125 0l0 1.421875l-4.3125 0zm8.046875 3.4375l-3.03125 -11.453125l1.546875 0l1.75 7.5q0.28125 1.1875 0.484375 2.34375q0.4375 -1.828125 0.515625 -2.109375l2.171875 -7.734375l1.828125 0l1.640625 5.796875q0.625 2.15625 0.890625 4.046875q0.21875 -1.078125 0.578125 -2.484375l1.796875 -7.359375l1.515625 0l-3.140625 11.453125l-1.453125 0l-2.421875 -8.734375q-0.296875 -1.09375 -0.359375 -1.34375q-0.171875 0.796875 -0.328125 1.34375l-2.4375 8.734375l-1.546875 0zm11.2421875 0l4.40625 -11.453125l1.640625 0l4.6875 11.453125l-1.734375 0l-1.328125 -3.46875l-4.796875 0l-1.25 3.46875l-1.625 0zm3.3125 -4.703125l3.890625 0l-1.203125 -3.171875q-0.546875 -1.453125 -0.8125 -2.375q-0.21875 1.09375 -0.609375 2.1875l-1.265625 3.359375zm8.609375 4.703125l0 -11.453125l1.5625 0l6.015625 8.984375l0 -8.984375l1.453125 0l0 11.453125l-1.5625 0l-6.015625 -9.0l0 9.0l-1.453125 0zm10.3359375 0.203125l3.328125 -11.859375l1.125 0l-3.3125 11.859375l-1.140625 0z" fill-rule="nonzero"/><path fill="#000000" d="m430.71362 435.92807l1.0 0l0 -3.1875l1.1875 0q0.5 0.0625 0.0625 0.375l0 2.8125l1.75 0l0 1.1875l-1.75 0l0 3.4375l1.625 -0.625l0.3125 1.0625l-1.9375 0.8125l0 5.375l-1.25 0l0 -4.9375l-1.9375 0.625q-0.0625 0.4375 -0.3125 0.1875l-0.4375 -1.375l2.6875 -0.75l0 -3.8125l-1.0625 0q-0.125 1.1875 -0.5 2.3125l-1.1875 -0.4375q0.75 -2.1875 0.75 -4.8125l1.25 0.1875q0.1875 0.1875 -0.125 0.375l-0.125 1.1875zm12.1875 -0.125l-0.0625 7.6875q0 3.3125 -1.875 3.3125l-1.8125 0l-0.25 -1.375l1.5625 0q1.125 0.125 1.125 -1.9375l0.0625 -6.5l-0.6875 0q0.0625 5.5 -5.4375 10.125l-0.8125 -1.125q4.625 -3.4375 5.0625 -9.0l-1.0 0q-0.25 3.8125 -3.8125 6.75l-0.875 -1.0625q3.125 -2.4375 3.5 -5.6875l-1.0 0q-0.6875 1.6875 -1.75 2.875l-1.0625 -0.75q2.1875 -2.6875 2.6875 -6.1875l1.3125 0.25q0.25 0.25 -0.1875 0.3125q-0.1875 1.0625 -0.5625 2.3125l5.875 0zm7.375 7.5q-2.4375 0.875 -4.5625 1.4375q-0.1875 0.5 -0.375 0.1875l-0.4375 -1.4375l2.1875 -0.4375l0 -3.4375l-1.6875 0l0 -1.1875l1.6875 0l0 -3.3125l-1.875 0l0 -1.1875l5.0 0l0 1.1875l-1.875 0l0 3.3125l1.6875 0l0 1.1875l-1.6875 0l0 3.125q0.5 -0.0625 1.8125 -0.5l0.125 1.0625zm4.9375 -2.9375l0 1.8125l3.5 0l0 1.1875l-3.5 0l0 1.9375l4.125 0l0 1.1875l-9.9375 0l0 -1.1875l4.75 0l0 -1.9375l-3.375 0l0 -1.1875l3.375 0l0 -1.8125l-2.25 0l0 0.8125l-1.0625 0l0 -7.6875l7.75 0l0 7.4375l-1.0625 0l0 -0.5625l-2.3125 0zm2.3125 -2.875l-2.3125 0l0 1.875l2.3125 0l0 -1.875zm0 -3.0l-2.3125 0l0 2.0l2.3125 0l0 -2.0zm-3.375 2.0l0 -2.0l-2.25 0l0 2.0l2.25 0zm0 1.0l-2.25 0l0 1.875l2.25 0l0 -1.875z" fill-rule="nonzero"/><path fill="#000000" d="m471.21362 447.24057q-1.1875 -0.625 -6.1875 -2.5q0.3125 -0.75 0.4375 -1.1875q1.1875 0.4375 3.1875 1.1875q1.0 -1.0625 2.25 -2.6875l-4.5 0q-1.0 0.0625 -1.4375 0.1875q0 -0.375 -0.5 -1.1875q0.625 -0.3125 1.125 -1.875l-2.4375 0q-1.1875 0 -2.125 0.0625l0 -1.25q0.9375 0.0625 2.125 0.0625l2.8125 0l0.5625 -1.875l-2.375 0q-1.0 0 -1.6875 0.0625l0 -1.1875q0.6875 0.0625 1.6875 0.0625l2.625 0q0.4375 -1.5 0.5625 -2.5q1.1875 0.1875 1.375 0.1875q-0.3125 0.9375 -0.6875 2.3125l3.375 0q0.875 0 2.125 -0.0625l0 1.1875q-0.875 -0.0625 -2.125 -0.0625l-3.625 0l-0.5625 1.875l5.5625 0q0.9375 0 2.1875 -0.0625l0 1.25q-0.9375 -0.0625 -2.125 -0.0625l-5.9375 0q-0.4375 1.1875 -0.625 1.75l6.8125 0l0 1.0625q-0.4375 0.125 -1.53125 1.25q-1.09375 1.125 -1.78125 2.0q1.625 0.625 2.0625 0.75l-0.625 1.25zm13.5 -12.25q0 -0.9375 -0.1875 -2.0625q0.8125 0.0625 1.6875 0.1875q-0.1875 0.375 -0.25 1.21875q-0.0625 0.84375 0 2.40625l2.125 -0.375q1.0625 -0.25 2.125 -0.5625l0.25 1.1875q-1.0625 0.125 -2.1875 0.3125l-2.25 0.4375q0 1.0 0.125 1.75l2.4375 -0.4375q1.25 -0.25 2.375 -0.625l0.1875 1.1875q-1.125 0.1875 -2.375 0.4375l-2.4375 0.4375q0.125 1.25 0.625 2.3125q0.5625 -0.4375 1.09375 -1.0q0.53125 -0.5625 0.96875 -1.25q0.9375 0.75 1.4375 1.0q-0.8125 0.375 -1.28125 0.84375q-0.46875 0.46875 -1.53125 1.46875q0.75 1.25 1.34375 1.59375q0.59375 0.34375 0.84375 0.03125q0.25 -0.3125 0.4375 -1.3125q0.5625 0.4375 1.3125 0.6875q-1.0625 2.75 -2.3125 2.21875q-1.25 -0.53125 -2.625 -2.46875q-0.875 0.6875 -1.71875 1.28125q-0.84375 0.59375 -2.09375 1.21875q-0.3125 -0.625 -0.9375 -1.125q1.25 -0.4375 2.125 -0.9375q0.875 -0.5 2.0 -1.4375q-0.5625 -1.25 -0.8125 -2.9375q-1.875 0.3125 -2.625 0.5625l-0.1875 -1.1875q0.75 0 2.5625 -0.375q-0.125 -1.0 -0.125 -1.6875q-1.6875 0.375 -2.3125 0.5625l-0.25 -1.1875q0.625 0 2.4375 -0.375l0 -2.0zm-3.75 -1.4375q-0.625 0.5625 -1.21875 1.59375q-0.59375 1.03125 -1.59375 2.53125q1.5 -0.0625 2.0625 -0.0625q0.5625 -0.9375 1.0 -2.0625q0.625 0.4375 1.375 0.6875q-0.625 0.625 -1.28125 1.6875q-0.65625 1.0625 -2.28125 3.625q1.6875 -0.125 3.0 -0.25q-0.1875 0.625 -0.1875 1.0625q-0.4375 0 -1.9375 0.15625q-1.5 0.15625 -2.4375 0.40625q-0.0625 -0.625 -0.375 -1.3125q0.75 -0.1875 1.375 -1.0q0.625 -0.8125 1.3125 -2.0625q-2.0625 0.125 -2.625 0.5q-0.1875 -0.6875 -0.5625 -1.375q0.8125 -0.5625 1.5625 -1.84375q0.75 -1.28125 1.375 -2.96875q0.625 0.4375 1.4375 0.6875zm1.5625 10.0q-0.0625 0.6875 0 1.0625q-1.5625 0.3125 -2.8125 0.625q-1.25 0.3125 -2.3125 0.6875q-0.1875 -0.6875 -0.6875 -1.375q1.75 -0.1875 2.6875 -0.34375q0.9375 -0.15625 3.125 -0.65625zm5.6875 -7.875q-0.4375 -0.6875 -1.1875 -1.625l1.0 -0.5q0.25 0.3125 1.25 1.5q-0.625 0.25 -1.0625 0.625z" fill-rule="nonzero"/><path fill="#000000" fill-opacity="0.0" d="m217.3727 393.7874l0 24.99997l396.15753 0l0 -28.716522" fill-rule="evenodd"/><path stroke="#000000" stroke-width="1.0" stroke-linejoin="round" stroke-linecap="butt" d="m217.3727 399.7874l0 19.0l396.15753 0l0 -22.716553" fill-rule="evenodd"/><path fill="#000000" stroke="#000000" stroke-width="1.0" stroke-linecap="butt" d="m219.02443 399.7874l-1.6517334 -4.5381165l-1.6517181 4.5381165z" fill-rule="evenodd"/><path fill="#000000" stroke="#000000" stroke-width="1.0" stroke-linecap="butt" d="m615.18195 396.07086l-1.6517334 -4.538086l-1.6517334 4.538086z" fill-rule="evenodd"/><path fill="#000000" fill-opacity="0.0" d="m211.82677 50.349083l0 30.02729l0.06300354 0l0 30.035698" fill-rule="evenodd"/><path stroke="#000000" stroke-width="1.0" stroke-linejoin="round" stroke-linecap="butt" d="m211.82677 56.349083l0 24.02729l0.06300354 0l0 24.035698" fill-rule="evenodd"/><path fill="#000000" stroke="#000000" stroke-width="1.0" stroke-linecap="butt" d="m213.4785 56.349083l-1.6517334 -4.538101l-1.6517334 4.538101z" fill-rule="evenodd"/><path fill="#000000" stroke="#000000" stroke-width="1.0" stroke-linecap="butt" d="m210.23804 104.41207l1.6517334 4.538101l1.6517181 -4.538101z" fill-rule="evenodd"/><path fill="#000000" fill-opacity="0.0" d="m618.5617 52.595802l0 14.882484l0.06298828 0l0 14.881294" fill-rule="evenodd"/><path stroke="#000000" stroke-width="1.0" stroke-linejoin="round" stroke-linecap="butt" d="m618.5617 58.595802l0 8.882484l0.06298828 0l0 8.881294" fill-rule="evenodd"/><path fill="#000000" stroke="#000000" stroke-width="1.0" stroke-linecap="butt" d="m620.21344 58.5958l-1.6517334 -4.5380974l-1.6517334 4.5380974z" fill-rule="evenodd"/><path fill="#000000" stroke="#000000" stroke-width="1.0" stroke-linecap="butt" d="m616.97296 76.35958l1.6517334 4.5380936l1.6517334 -4.5380936z" fill-rule="evenodd"/><path fill="#000000" fill-opacity="0.0" d="m310.68503 232.27428c0 9.693298 -13.653534 14.540146 -27.307068 19.386597c-13.653564 4.846451 -27.307098 9.69252 -27.307098 19.385056" fill-rule="evenodd"/><path stroke="#000000" stroke-width="1.0" stroke-linejoin="round" stroke-linecap="butt" d="m310.68503 232.27428c0 9.693298 -13.653534 14.540146 -27.307068 19.386597c-13.653564 4.846451 -27.307098 9.69252 -27.307098 19.385056" fill-rule="evenodd"/><path fill="#000000" fill-opacity="0.0" d="m310.68503 232.27428c0 9.693298 0.67718506 14.540146 1.3543396 19.386597c0.67715454 4.846451 1.3543396 9.69252 1.3543396 19.385056" fill-rule="evenodd"/><path stroke="#000000" stroke-width="1.0" stroke-linejoin="round" stroke-linecap="butt" d="m310.68503 232.27428c0 9.693298 0.67718506 14.540146 1.3543396 19.386597c0.67715454 4.846451 1.3543396 9.69252 1.3543396 19.385056" fill-rule="evenodd"/><path fill="#000000" fill-opacity="0.0" d="m310.68503 232.27428c0 9.693298 13.653564 14.540146 27.307098 19.386597c13.653534 4.846451 27.307098 9.69252 27.307098 19.385056" fill-rule="evenodd"/><path stroke="#000000" stroke-width="1.0" stroke-linejoin="round" stroke-linecap="butt" d="m310.68503 232.27428c0 9.693298 13.653564 14.540146 27.307098 19.386597c13.653534 4.846451 27.307098 9.69252 27.307098 19.385056" fill-rule="evenodd"/><path fill="#000000" fill-opacity="0.0" d="m313.40158 301.82416c0 30.063019 -0.09448242 55.736298 -0.18899536 60.12607c-0.09448242 4.38974 -0.18896484 -12.503998 -0.18896484 -25.007965" fill-rule="evenodd"/><path stroke="#000000" stroke-width="1.0" stroke-linejoin="round" stroke-linecap="butt" d="m313.39926 307.82416l-0.0019226074 5.0348816c-0.0027770996 3.587677 -0.0068359375 7.0737915 -0.011993408 10.4253235c-0.010345459 6.7030945 -0.025115967 12.867828 -0.042816162 18.230286c-0.03543091 10.724945 -0.08267212 18.240692 -0.12994385 20.435577c-0.09448242 4.38974 -0.18896484 -12.503998 -0.18896484 -25.007965" fill-rule="evenodd"/><path fill="#000000" stroke="#000000" stroke-width="1.0" stroke-linecap="butt" d="m315.051 307.82477l-1.6499939 -4.538727l-1.6534729 4.5374756z" fill-rule="evenodd"/><path fill="#000000" fill-opacity="0.0" d="m648.63257 43.40945l77.22833 0l0 38.77165l-77.22833 0z" fill-rule="evenodd"/><path fill="#000000" d="m660.8982 66.70695l-0.09375 -2.03125l1.15625 0q0.5625 0 0.421875 -1.0624962q-0.171875 -1.546875 -1.34375 -3.109375l1.046875 -3.796875l-1.109375 0l0 12.312496l-1.90625 0l0 -14.156246l3.75 0l0.390625 -0.203125l1.28125 1.28125l-0.359375 0.359375l-1.125 3.9375q1.078125 1.375 1.34375 2.96875q0.5625 3.4999962 -2.140625 3.4999962l-1.3125 0zm12.578125 -11.531246l0 1.84375l-1.3125 0l0 10.484371q0 1.328125 -1.328125 1.328125l-1.59375 0l-0.359375 -2.03125l1.453125 0q0 0.078125 -0.078125 0.078125l0 -9.859371l-6.125 0l0 -1.84375l9.34375 0zm-7.25 4.96875l0 2.65625l1.40625 0l0 -2.65625l-1.40625 0zm3.125 -1.65625l0 6.718746l-1.71875 0l0 -0.75l-1.40625 0l0 1.5l-1.71875 0l0 -7.468746l4.84375 0zm18.0 -3.625l0 8.03125l-1.90625 0l0.015625 -0.328125l-2.609375 0.015625l0 1.03125l4.875 0l0 1.8437462l-4.875 0l0 1.21875l6.3125 0l0 1.84375l-14.46875 0l0 -1.84375l6.25 0l0 -1.21875l-4.875 0l0 -1.8437462l4.875 0l0 -1.03125l-2.59375 0l0 0.5625l-1.90625 0l0 -8.28125l10.90625 0zm-6.40625 2.9375l0 -1.09375l-2.59375 0l0 1.09375l2.59375 0zm4.5 0l0 -1.09375l-2.59375 0l0 1.09375l2.59375 0zm-4.5 2.9375l0 -1.09375l-2.59375 0l0 1.09375l2.59375 0zm4.5 -1.09375l-2.59375 0l0 1.09375l2.59375 0l0 -1.09375zm7.359375 8.484371q-0.4375 0.96875 -1.03125 -0.0625l-0.484375 -1.9375l2.28125 -0.078125l2.1875 -4.593746l-4.8125 0l0 -2.03125l14.15625 0l0 2.03125l-6.953125 0l-2.546875 4.499996l5.640625 -0.3125q-0.703125 -0.84375 -2.0 -1.9218712l1.3125 -1.484375q3.34375 2.8593712 4.78125 5.031246l-1.921875 1.484375q-0.53125 -1.0 -0.90625 -1.40625l-9.703125 0.78125zm-0.234375 -10.734371l0 -2.03125l10.96875 0l0 2.03125l-10.96875 0z" fill-rule="nonzero"/><path fill="#000000" fill-opacity="0.0" d="m608.0971 217.19948c0 15.089935 -8.748047 22.63655 -17.496033 30.17987c-8.748047 7.5433044 -17.496094 15.083298 -17.496094 30.16658" fill-rule="evenodd"/><path stroke="#000000" stroke-width="1.0" stroke-linejoin="round" stroke-linecap="butt" d="m608.0971 217.19948c0 15.089935 -8.748047 22.63655 -17.496033 30.17987c-8.748047 7.5433044 -17.496094 15.083298 -17.496094 30.16658" fill-rule="evenodd"/><path fill="#000000" fill-opacity="0.0" d="m608.0971 217.19948c0 14.998795 7.4488525 22.497604 14.897644 29.997604c7.4487915 7.5 14.897644 15.00119 14.897644 30.00238" fill-rule="evenodd"/><path stroke="#000000" stroke-width="1.0" stroke-linejoin="round" stroke-linecap="butt" d="m608.0971 217.19948c0 14.998795 7.4488525 22.497604 14.897644 29.997604c7.4487915 7.5 14.897644 15.00119 14.897644 30.00238" fill-rule="evenodd"/><path fill="#000000" fill-opacity="0.0" d="m116.31759 233.54593c0 9.375336 -8.314964 14.061676 -16.629921 18.750656c-8.314964 4.68898 -16.629929 9.380569 -16.629929 18.761154" fill-rule="evenodd"/><path stroke="#000000" stroke-width="1.0" stroke-linejoin="round" stroke-linecap="butt" d="m116.31759 233.54593c0 9.375336 -8.314964 14.061676 -16.629921 18.750656c-8.314964 4.68898 -16.629929 9.380569 -16.629929 18.761154" fill-rule="evenodd"/><path fill="#000000" fill-opacity="0.0" d="m116.31759 233.54593c0 9.375336 8.314957 14.061676 16.629921 18.750656c8.314957 4.68898 16.629913 9.380569 16.629913 18.761154" fill-rule="evenodd"/><path stroke="#000000" stroke-width="1.0" stroke-linejoin="round" stroke-linecap="butt" d="m116.31759 233.54593c0 9.375336 8.314957 14.061676 16.629921 18.750656c8.314957 4.68898 16.629913 9.380569 16.629913 18.761154" fill-rule="evenodd"/><path fill="#000000" fill-opacity="0.0" d="m178.56955 196.03412c16.629929 0 33.259842 -27.795273 33.259842 -55.590546" fill-rule="evenodd"/><path stroke="#000000" stroke-width="1.0" stroke-linejoin="round" stroke-linecap="butt" d="m184.46243 194.90547l0.3108673 -0.11994934c2.0462494 -0.81433105 4.060028 -2.008667 6.00885 -3.528717c3.897644 -3.0401 7.535431 -7.3831177 10.653549 -12.594727c6.2362213 -10.423233 10.393692 -24.320877 10.393692 -38.218506" fill-rule="evenodd"/><path fill="#000000" stroke="#000000" stroke-width="1.0" stroke-linecap="butt" d="m184.15173 193.28323l-4.1463776 2.475891l4.7677917 0.76860046z" fill-rule="evenodd"/><path fill="#000000" fill-opacity="0.0" d="m211.82677 140.45145c0 39.653534 18.299225 79.30708 36.598434 79.30708" fill-rule="evenodd"/><path stroke="#000000" stroke-width="1.0" stroke-linejoin="round" stroke-linecap="butt" d="m211.96504 146.44986l0.022918701 0.5007477c0.015213013 0.30888367 0.03147888 0.61761475 0.04878235 0.92619324c0.13848877 2.4686737 0.34399414 4.927658 0.61206055 7.367279c0.53611755 4.879242 1.322403 9.68103 2.3231506 14.327942c2.0014648 9.293793 4.860718 17.968002 8.291824 25.403046c6.862213 14.870071 16.01181 24.783463 25.161423 24.783463" fill-rule="evenodd"/><path fill="#000000" stroke="#000000" stroke-width="1.0" stroke-linecap="butt" d="m213.61632 146.41179l-1.7558594 -4.498825l-1.5467224 4.574951z" fill-rule="evenodd"/></g></svg>