<svg id="SvgjsSvg1216" width="787.3046875" height="528" xmlns="http://www.w3.org/2000/svg" version="1.1" xmlns:xlink="http://www.w3.org/1999/xlink" xmlns:svgjs="http://svgjs.com/svgjs"><defs id="SvgjsDefs1217"><pattern patternUnits="userSpaceOnUse" id="pattern_mark_0" width="300" height="300"><text x="150" y="100" fill="rgba(229,229,229,0.8)" font-size="18" transform="rotate(-45, 150, 150)" style="dominant-baseline: middle; text-anchor: middle;"></text></pattern><pattern patternUnits="userSpaceOnUse" id="pattern_mark_1" width="300" height="300"><text x="150" y="200" fill="rgba(229,229,229,0.8)" font-size="18" transform="rotate(-45, 150, 150)" style="dominant-baseline: middle; text-anchor: middle;"></text></pattern><marker id="SvgjsMarker1246" markerWidth="13" markerHeight="9" refX="9.5" refY="4.5" viewBox="0 0 13 9" orient="auto" markerUnits="userSpaceOnUse" stroke-dasharray="0,0"><path id="SvgjsPath1247" d="M0,0 L13,4.5 L0,9 L0,0" fill="#323232" stroke="#323232" stroke-width="1"></path></marker><marker id="SvgjsMarker1256" markerWidth="13" markerHeight="9" refX="9.5" refY="4.5" viewBox="0 0 13 9" orient="auto" markerUnits="userSpaceOnUse" stroke-dasharray="0,0"><path id="SvgjsPath1257" d="M0,0 L13,4.5 L0,9 L0,0" fill="#323232" stroke="#323232" stroke-width="1"></path></marker><marker id="SvgjsMarker1273" markerWidth="13" markerHeight="9" refX="9.5" refY="4.5" viewBox="0 0 13 9" orient="auto" markerUnits="userSpaceOnUse" stroke-dasharray="0,0"><path id="SvgjsPath1274" d="M0,0 L13,4.5 L0,9 L0,0" fill="#323232" stroke="#323232" stroke-width="1"></path></marker><marker id="SvgjsMarker1311" markerWidth="13" markerHeight="9" refX="9.5" refY="4.5" viewBox="0 0 13 9" orient="auto" markerUnits="userSpaceOnUse" stroke-dasharray="0,0"><path id="SvgjsPath1312" d="M0,0 L13,4.5 L0,9 L0,0" fill="#323232" stroke="#323232" stroke-width="1"></path></marker><marker id="SvgjsMarker1327" markerWidth="13" markerHeight="9" refX="3.5" refY="4.5" viewBox="0 0 13 9" orient="0" markerUnits="userSpaceOnUse" stroke-dasharray="0,0"><path id="SvgjsPath1328" d="M13,0 L0,4.5 L13,9 L13,0" fill="#323232" stroke="#323232" stroke-width="1"></path></marker><marker id="SvgjsMarker1331" markerWidth="13" markerHeight="9" refX="3.5" refY="4.5" viewBox="0 0 13 9" orient="0" markerUnits="userSpaceOnUse" stroke-dasharray="0,0"><path id="SvgjsPath1332" d="M13,0 L0,4.5 L13,9 L13,0" fill="#323232" stroke="#323232" stroke-width="1"></path></marker><marker id="SvgjsMarker1348" markerWidth="13" markerHeight="9" refX="3.5" refY="4.5" viewBox="0 0 13 9" orient="0" markerUnits="userSpaceOnUse" stroke-dasharray="0,0"><path id="SvgjsPath1349" d="M13,0 L0,4.5 L13,9 L13,0" fill="#323232" stroke="#323232" stroke-width="1"></path></marker><marker id="SvgjsMarker1386" markerWidth="13" markerHeight="9" refX="9.5" refY="4.5" viewBox="0 0 13 9" orient="auto" markerUnits="userSpaceOnUse" stroke-dasharray="0,0"><path id="SvgjsPath1387" d="M0,0 L13,4.5 L0,9 L0,0" fill="#323232" stroke="#323232" stroke-width="1"></path></marker><marker id="SvgjsMarker1402" markerWidth="13" markerHeight="9" refX="3.5" refY="4.5" viewBox="0 0 13 9" orient="0" markerUnits="userSpaceOnUse" stroke-dasharray="0,0"><path id="SvgjsPath1403" d="M13,0 L0,4.5 L13,9 L13,0" fill="#323232" stroke="#323232" stroke-width="1"></path></marker><marker id="SvgjsMarker1406" markerWidth="13" markerHeight="9" refX="3.5" refY="4.5" viewBox="0 0 13 9" orient="0" markerUnits="userSpaceOnUse" stroke-dasharray="0,0"><path id="SvgjsPath1407" d="M13,0 L0,4.5 L13,9 L13,0" fill="#323232" stroke="#323232" stroke-width="1"></path></marker><marker id="SvgjsMarker1416" markerWidth="13" markerHeight="9" refX="3.5" refY="4.5" viewBox="0 0 13 9" orient="0" markerUnits="userSpaceOnUse" stroke-dasharray="0,0"><path id="SvgjsPath1417" d="M13,0 L0,4.5 L13,9 L13,0" fill="#323232" stroke="#323232" stroke-width="1"></path></marker></defs><rect id="svgbackgroundid" width="787.3046875" height="528" fill="transparent"></rect><rect id="SvgjsRect1219" width="787.3046875" height="528" fill="url(#pattern_mark_0)"></rect><rect id="SvgjsRect1220" width="787.3046875" height="528" fill="url(#pattern_mark_1)"></rect><g id="SvgjsG1221" transform="translate(201.7478065851734,25.000059637404604)"><path id="SvgjsPath1222" d="M 53.49645110410091 30L 53.49645110410091 477.52337786259534" stroke-dasharray="3,4" stroke="rgba(0,0,0,1)" stroke-width="2" fill="none"></path><path id="SvgjsPath1223" d="M 0 0L 106.99290220820183 0L 106.99290220820183 30L 0 30Z" stroke="rgba(0,0,0,1)" stroke-width="1" fill-opacity="1" fill="#ffffcc"></path><g id="SvgjsG1224"><text id="SvgjsText1225" font-family="微软雅黑" text-anchor="middle" font-size="13px" width="87px" fill="#323232" font-weight="700" align="middle" lineHeight="125%" anchor="middle" family="微软雅黑" size="13px" weight="700" font-style="" opacity="1" y="4.375" transform="rotate(0)"><tspan id="SvgjsTspan1226" dy="16.25" x="53.5"><tspan id="SvgjsTspan1227" style="">支付服务</tspan></tspan></text></g></g><g id="SvgjsG1228" transform="translate(375.0025384463722,25.000059637404604)"><path id="SvgjsPath1229" d="M 42.082807570977934 30L 42.082807570977934 477.52337786259534" stroke-dasharray="3,4" stroke="rgba(0,0,0,1)" stroke-width="2" fill="none"></path><path id="SvgjsPath1230" d="M 0 0L 84.16561514195587 0L 84.16561514195587 30L 0 30Z" stroke="rgba(0,0,0,1)" stroke-width="1" fill-opacity="1" fill="#ffffcc"></path><g id="SvgjsG1231"><text id="SvgjsText1232" font-family="微软雅黑" text-anchor="middle" font-size="13px" width="65px" fill="#323232" font-weight="700" align="middle" lineHeight="125%" anchor="middle" family="微软雅黑" size="13px" weight="700" font-style="" opacity="1" y="4.375" transform="rotate(0)"><tspan id="SvgjsTspan1233" dy="16.25" x="42.5"><tspan id="SvgjsTspan1234" style="">消息队列</tspan></tspan></text></g></g><g id="SvgjsG1235" transform="translate(25.002538446372228,25.000059637404547)"><path id="SvgjsPath1236" d="M 51.7569006309148 30L 51.7569006309148 477.52337786259545" stroke-dasharray="3,4" stroke="rgba(0,0,0,1)" stroke-width="2" fill="none"></path><path id="SvgjsPath1237" d="M 0 0L 103.5138012618296 0L 103.5138012618296 30L 0 30Z" stroke="rgba(0,0,0,1)" stroke-width="1" fill-opacity="1" fill="#ffffff"></path><g id="SvgjsG1238"><text id="SvgjsText1239" font-family="微软雅黑" text-anchor="middle" font-size="13px" width="84px" fill="#323232" font-weight="700" align="middle" lineHeight="125%" anchor="middle" family="微软雅黑" size="13px" weight="700" font-style="" opacity="1" y="4.375" transform="rotate(0)"><tspan id="SvgjsTspan1240" dy="16.25" x="52"><tspan id="SvgjsTspan1241" style="">商店</tspan></tspan></text></g></g><g id="SvgjsG1242" transform="translate(241.5234375,74.2734375)"><path id="SvgjsPath1243" d="M 0 4Q 0 0 4 0L 26 0Q 30 0 30 4L 30 48Q 30 52 26 52L 4 52Q 0 52 0 48L 0 4Z" stroke="rgba(33,41,48,1)" stroke-width="1.5" fill-opacity="1" fill="#ffffff"></path></g><g id="SvgjsG1244"><path id="SvgjsPath1245" d="M83.5234375 90.2734375L162.5234375 90.2734375L162.5234375 90.2734375L238.8234375 90.2734375" stroke="#323232" stroke-width="1.5" fill="none" marker-end="url(#SvgjsMarker1246)"></path></g><g id="SvgjsG1248" transform="translate(111.5234375,54.2734375)"><path id="SvgjsPath1249" d="M 0 0L 100 0L 100 40L 0 40Z" stroke="none" fill="none"></path><g id="SvgjsG1250"><text id="SvgjsText1251" font-family="微软雅黑" text-anchor="middle" font-size="13px" width="100px" fill="#323232" font-weight="400" align="middle" lineHeight="125%" anchor="middle" family="微软雅黑" size="13px" weight="400" font-style="" opacity="1" y="9.375" transform="rotate(0)"><tspan id="SvgjsTspan1252" dy="16.25" x="50"><tspan id="SvgjsTspan1253" style="">启动事务</tspan></tspan></text></g></g><g id="SvgjsG1254"><path id="SvgjsPath1255" d="M272.0778844176796 88.77850048169196C 286.7234375 88.2734375 286.7234375 126.2734375 273.5194464036466 124.45521076590893" stroke="#323232" stroke-width="1.5" fill="none" marker-end="url(#SvgjsMarker1256)"></path></g><g id="SvgjsG1258" transform="translate(526.6543523264985,25.000059637404604)"><path id="SvgjsPath1259" d="M 42.082807570977934 30L 42.082807570977934 477.52337786259534" stroke-dasharray="3,4" stroke="rgba(0,0,0,1)" stroke-width="2" fill="none"></path><path id="SvgjsPath1260" d="M 0 0L 84.16561514195587 0L 84.16561514195587 30L 0 30Z" stroke="rgba(0,0,0,1)" stroke-width="1" fill-opacity="1" fill="#ffffcc"></path><g id="SvgjsG1261"><text id="SvgjsText1262" font-family="微软雅黑" text-anchor="middle" font-size="13px" width="65px" fill="#323232" font-weight="700" align="middle" lineHeight="125%" anchor="middle" family="微软雅黑" size="13px" weight="700" font-style="" opacity="1" y="4.375" transform="rotate(0)"><tspan id="SvgjsTspan1263" dy="16.25" x="42.5"><tspan id="SvgjsTspan1264" style="">仓库服务</tspan></tspan></text></g></g><g id="SvgjsG1265" transform="translate(252.7629879731861,60.2734375)"><path id="SvgjsPath1266" d="M 0 0L 100 0L 100 40L 0 40Z" stroke="none" fill="none"></path><g id="SvgjsG1267"><text id="SvgjsText1268" font-family="微软雅黑" text-anchor="middle" font-size="13px" width="100px" fill="#323232" font-weight="400" align="middle" lineHeight="125%" anchor="middle" family="微软雅黑" size="13px" weight="400" font-style="" opacity="1" y="9.375" transform="rotate(0)"><tspan id="SvgjsTspan1269" dy="16.25" x="50"><tspan id="SvgjsTspan1270" style="">银行扣款</tspan></tspan></text></g></g><g id="SvgjsG1271"><path id="SvgjsPath1272" d="M253.5234375 138.2734375L333.5234375 138.2734375L333.5234375 138.2734375L413.5234375 138.2734375" stroke="#323232" stroke-width="1.5" fill="none" marker-end="url(#SvgjsMarker1273)"></path></g><g id="SvgjsG1275" transform="translate(285.7629879731861,90.2734375)"><path id="SvgjsPath1276" d="M 0 0L 100 0L 100 40L 0 40Z" stroke="none" fill="none"></path><g id="SvgjsG1277"><text id="SvgjsText1278" font-family="微软雅黑" text-anchor="middle" font-size="13px" width="100px" fill="#323232" font-weight="400" align="middle" lineHeight="125%" anchor="middle" family="微软雅黑" size="13px" weight="400" font-style="" opacity="1" y="0.875" transform="rotate(0)"><tspan id="SvgjsTspan1279" dy="16.25" x="50"><tspan id="SvgjsTspan1280" style="">提交本地事务，</tspan></tspan><tspan id="SvgjsTspan1281" dy="16.25" x="50"><tspan id="SvgjsTspan1282" style="">发出消息</tspan></tspan></text></g></g><g id="SvgjsG1283" transform="translate(400.5234375,142.91012643129773)"><path id="SvgjsPath1284" d="M 0 4Q 0 0 4 0L 180 0Q 184 0 184 4L 184 141.22662213740455Q 184 145.22662213740455 180 145.22662213740455L 4 145.22662213740455Q 0 145.22662213740455 0 141.22662213740455Z" stroke="rgba(33,41,48,1)" stroke-width="1.5" fill-opacity="1" fill="#ffffff"></path><path id="SvgjsPath1285" d="M 0 25L 55.199999999999996 25L 63.199999999999996 17L 63.199999999999996 0" stroke="rgba(33,41,48,1)" stroke-width="1.5" fill-opacity="1" fill="#ffffff"></path><path id="SvgjsPath1286" d="M 0 0L 184 0L 184 145.22662213740455L 0 145.22662213740455Z" stroke="none" fill="none"></path><g id="SvgjsG1287"><text id="SvgjsText1288" font-family="微软雅黑" text-anchor="start" font-size="13px" width="164px" fill="#323232" font-weight="400" align="top" lineHeight="125%" anchor="start" family="微软雅黑" size="13px" weight="400" font-style="" opacity="1" y="27.375" transform="rotate(0)"></text></g><g id="SvgjsG1289"><text id="SvgjsText1290" font-family="微软雅黑" text-anchor="start" font-size="13px" width="46px" fill="#323232" font-weight="400" align="middle" lineHeight="125%" anchor="start" family="微软雅黑" size="13px" weight="400" font-style="" opacity="1" y="1.875" transform="rotate(0)"><tspan id="SvgjsTspan1291" dy="16.25" x="10"><tspan id="SvgjsTspan1292" style="">loop</tspan></tspan></text></g></g><g id="SvgjsG1293" transform="translate(410.5234375,198.5234375)"><path id="SvgjsPath1294" d="M 0 4Q 0 0 4 0L 162 0Q 166 0 166 4L 166 76Q 166 80 162 80L 4 80Q 0 80 0 76Z" stroke="rgba(33,41,48,1)" stroke-width="1.5" fill-opacity="1" fill="#ffffff"></path><path id="SvgjsPath1295" d="M 0 25L 49.8 25L 57.8 17L 57.8 0" stroke="rgba(33,41,48,1)" stroke-width="1.5" fill-opacity="1" fill="#ffffff"></path><path id="SvgjsPath1296" d="M 0 0L 166 0L 166 80L 0 80Z" stroke="none" fill="none"></path><g id="SvgjsG1297"><text id="SvgjsText1298" font-family="微软雅黑" text-anchor="start" font-size="13px" width="146px" fill="#323232" font-weight="400" align="top" lineHeight="125%" anchor="start" family="微软雅黑" size="13px" weight="400" font-style="" opacity="1" y="27.375" transform="rotate(0)"></text></g><g id="SvgjsG1299"><text id="SvgjsText1300" font-family="微软雅黑" text-anchor="start" font-size="13px" width="40px" fill="#323232" font-weight="400" align="middle" lineHeight="125%" anchor="start" family="微软雅黑" size="13px" weight="400" font-style="" opacity="1" y="1.875" transform="rotate(0)"><tspan id="SvgjsTspan1301" dy="16.25" x="10"><tspan id="SvgjsTspan1302" style="">alt</tspan></tspan></text></g></g><g id="SvgjsG1303" transform="translate(464.5234375,138.2734375)"><path id="SvgjsPath1304" d="M 0 0L 100 0L 100 40L 0 40Z" stroke="none" fill="none"></path><g id="SvgjsG1305"><text id="SvgjsText1306" font-family="微软雅黑" text-anchor="middle" font-size="13px" width="100px" fill="#323232" font-weight="400" align="middle" lineHeight="125%" anchor="middle" family="微软雅黑" size="13px" weight="400" font-style="" opacity="1" y="9.375" transform="rotate(0)"><tspan id="SvgjsTspan1307" dy="16.25" x="50"><tspan id="SvgjsTspan1308" style="">[循环直至成功]</tspan></tspan></text></g></g><g id="SvgjsG1309"><path id="SvgjsPath1310" d="M412.5234375 190.2734375L492.5234375 190.2734375L492.5234375 190.2734375L572.5234375 190.2734375" stroke="#323232" stroke-width="1.5" fill="none" marker-end="url(#SvgjsMarker1311)"></path></g><g id="SvgjsG1313" transform="translate(443.5234375,159.2734375)"><path id="SvgjsPath1314" d="M 0 0L 100 0L 100 40L 0 40Z" stroke="none" fill="none"></path><g id="SvgjsG1315"><text id="SvgjsText1316" font-family="微软雅黑" text-anchor="middle" font-size="13px" width="100px" fill="#323232" font-weight="400" align="middle" lineHeight="125%" anchor="middle" family="微软雅黑" size="13px" weight="400" font-style="" opacity="1" y="9.375" transform="rotate(0)"><tspan id="SvgjsTspan1317" dy="16.25" x="50"><tspan id="SvgjsTspan1318" style="">扣减库存</tspan></tspan></text></g></g><g id="SvgjsG1319" transform="translate(464.5234375,204.5234375)"><path id="SvgjsPath1320" d="M 0 0L 100 0L 100 40L 0 40Z" stroke="none" fill="none"></path><g id="SvgjsG1321"><text id="SvgjsText1322" font-family="微软雅黑" text-anchor="middle" font-size="13px" width="100px" fill="#323232" font-weight="400" align="middle" lineHeight="125%" anchor="middle" family="微软雅黑" size="13px" weight="400" font-style="" opacity="1" y="9.375" transform="rotate(0)"><tspan id="SvgjsTspan1323" dy="16.25" x="50"><tspan id="SvgjsTspan1324" style="">扣减成功</tspan></tspan></text></g></g><g id="SvgjsG1325"><path id="SvgjsPath1326" d="M422.5234375 239.2734375L502.5234375 239.2734375L502.5234375 239.2734375L582.5234375 239.2734375" stroke-dasharray="8,5" stroke="#323232" stroke-width="1.5" fill="none" marker-start="url(#SvgjsMarker1327)"></path></g><g id="SvgjsG1329"><path id="SvgjsPath1330" d="M420.5234375 264.2734375L500.5234375 264.2734375L500.5234375 264.2734375L580.5234375 264.2734375" stroke-dasharray="8,5" stroke="#323232" stroke-width="1.5" fill="none" marker-start="url(#SvgjsMarker1331)"></path></g><g id="SvgjsG1333" transform="translate(464.5234375,232.5234375)"><path id="SvgjsPath1334" d="M 0 0L 100 0L 100 40L 0 40Z" stroke="none" fill="none"></path><g id="SvgjsG1335"><text id="SvgjsText1336" font-family="微软雅黑" text-anchor="middle" font-size="13px" width="100px" fill="#323232" font-weight="400" align="middle" lineHeight="125%" anchor="middle" family="微软雅黑" size="13px" weight="400" font-style="" opacity="1" y="9.375" transform="rotate(0)"><tspan id="SvgjsTspan1337" dy="16.25" x="50"><tspan id="SvgjsTspan1338" style="">扣减失败</tspan></tspan></text></g></g><g id="SvgjsG1339" transform="translate(678.3061662066248,25.000059637404604)"><path id="SvgjsPath1340" d="M 42.082807570977934 30L 42.082807570977934 477.52337786259534" stroke-dasharray="3,4" stroke="rgba(0,0,0,1)" stroke-width="2" fill="none"></path><path id="SvgjsPath1341" d="M 0 0L 84.16561514195587 0L 84.16561514195587 30L 0 30Z" stroke="rgba(0,0,0,1)" stroke-width="1" fill-opacity="1" fill="#ffffcc"></path><g id="SvgjsG1342"><text id="SvgjsText1343" font-family="微软雅黑" text-anchor="middle" font-size="13px" width="65px" fill="#323232" font-weight="700" align="middle" lineHeight="125%" anchor="middle" family="微软雅黑" size="13px" weight="700" font-style="" opacity="1" y="4.375" transform="rotate(0)"><tspan id="SvgjsTspan1344" dy="16.25" x="42.5"><tspan id="SvgjsTspan1345" style="">积分服务</tspan></tspan></text></g></g><g id="SvgjsG1346"><path id="SvgjsPath1347" d="M255.5234375 296.2734375L335.5234375 296.2734375L335.5234375 296.2734375L415.5234375 296.2734375" stroke-dasharray="8,5" stroke="#323232" stroke-width="1.5" fill="none" marker-start="url(#SvgjsMarker1348)"></path></g><g id="SvgjsG1350" transform="translate(290.7629879731861,239.38674856870227)"><path id="SvgjsPath1351" d="M 0 0L 100 0L 100 48.75L 0 48.75Z" stroke="none" fill="none"></path><g id="SvgjsG1352"><text id="SvgjsText1353" font-family="微软雅黑" text-anchor="middle" font-size="13px" width="100px" fill="#323232" font-weight="400" align="middle" lineHeight="125%" anchor="middle" family="微软雅黑" size="13px" weight="400" font-style="" opacity="1" y="5.25" transform="rotate(0)"><tspan id="SvgjsTspan1354" dy="16.25" x="50"><tspan id="SvgjsTspan1355" style="">更新消息表，</tspan></tspan><tspan id="SvgjsTspan1356" dy="16.25" x="50"><tspan id="SvgjsTspan1357" style="">仓库服务完成</tspan></tspan></text></g></g><g id="SvgjsG1358" transform="translate(415.5234375,310.9101264312977)"><path id="SvgjsPath1359" d="M 0 4Q 0 0 4 0L 307 0Q 311 0 311 4L 311 145.36331106870227Q 311 149.36331106870227 307 149.36331106870227L 4 149.36331106870227Q 0 149.36331106870227 0 145.36331106870227Z" stroke="rgba(33,41,48,1)" stroke-width="1.5" fill-opacity="1" fill="#ffffff"></path><path id="SvgjsPath1360" d="M 0 25L 93.3 25L 101.3 17L 101.3 0" stroke="rgba(33,41,48,1)" stroke-width="1.5" fill-opacity="1" fill="#ffffff"></path><path id="SvgjsPath1361" d="M 0 0L 311 0L 311 149.36331106870227L 0 149.36331106870227Z" stroke="none" fill="none"></path><g id="SvgjsG1362"><text id="SvgjsText1363" font-family="微软雅黑" text-anchor="start" font-size="13px" width="291px" fill="#323232" font-weight="400" align="top" lineHeight="125%" anchor="start" family="微软雅黑" size="13px" weight="400" font-style="" opacity="1" y="27.375" transform="rotate(0)"></text></g><g id="SvgjsG1364"><text id="SvgjsText1365" font-family="微软雅黑" text-anchor="start" font-size="13px" width="84px" fill="#323232" font-weight="400" align="middle" lineHeight="125%" anchor="start" family="微软雅黑" size="13px" weight="400" font-style="" opacity="1" y="1.875" transform="rotate(0)"><tspan id="SvgjsTspan1366" dy="16.25" x="10"><tspan id="SvgjsTspan1367" style="">loop</tspan></tspan></text></g></g><g id="SvgjsG1368" transform="translate(434.5234375,373.0234375)"><path id="SvgjsPath1369" d="M 0 4Q 0 0 4 0L 288 0Q 292 0 292 4L 292 76Q 292 80 288 80L 4 80Q 0 80 0 76Z" stroke="rgba(33,41,48,1)" stroke-width="1.5" fill-opacity="1" fill="#ffffff"></path><path id="SvgjsPath1370" d="M 0 25L 87.6 25L 95.6 17L 95.6 0" stroke="rgba(33,41,48,1)" stroke-width="1.5" fill-opacity="1" fill="#ffffff"></path><path id="SvgjsPath1371" d="M 0 0L 292 0L 292 80L 0 80Z" stroke="none" fill="none"></path><g id="SvgjsG1372"><text id="SvgjsText1373" font-family="微软雅黑" text-anchor="start" font-size="13px" width="272px" fill="#323232" font-weight="400" align="top" lineHeight="125%" anchor="start" family="微软雅黑" size="13px" weight="400" font-style="" opacity="1" y="27.375" transform="rotate(0)"></text></g><g id="SvgjsG1374"><text id="SvgjsText1375" font-family="微软雅黑" text-anchor="start" font-size="13px" width="78px" fill="#323232" font-weight="400" align="middle" lineHeight="125%" anchor="start" family="微软雅黑" size="13px" weight="400" font-style="" opacity="1" y="1.875" transform="rotate(0)"><tspan id="SvgjsTspan1376" dy="16.25" x="10"><tspan id="SvgjsTspan1377" style="">alt</tspan></tspan></text></g></g><g id="SvgjsG1378" transform="translate(543.5234375,305.7734375)"><path id="SvgjsPath1379" d="M 0 0L 100 0L 100 40L 0 40Z" stroke="none" fill="none"></path><g id="SvgjsG1380"><text id="SvgjsText1381" font-family="微软雅黑" text-anchor="middle" font-size="13px" width="100px" fill="#323232" font-weight="400" align="middle" lineHeight="125%" anchor="middle" family="微软雅黑" size="13px" weight="400" font-style="" opacity="1" y="9.375" transform="rotate(0)"><tspan id="SvgjsTspan1382" dy="16.25" x="50"><tspan id="SvgjsTspan1383" style="">[循环直至成功]</tspan></tspan></text></g></g><g id="SvgjsG1384"><path id="SvgjsPath1385" d="M422.5234375 357.2734375L572.0234375 357.2734375L572.0234375 357.2734375L721.5234375 357.2734375" stroke="#323232" stroke-width="1.5" fill="none" marker-end="url(#SvgjsMarker1386)"></path></g><g id="SvgjsG1388" transform="translate(533.5234375,326.7734375)"><path id="SvgjsPath1389" d="M 0 0L 100 0L 100 40L 0 40Z" stroke="none" fill="none"></path><g id="SvgjsG1390"><text id="SvgjsText1391" font-family="微软雅黑" text-anchor="middle" font-size="13px" width="100px" fill="#323232" font-weight="400" align="middle" lineHeight="125%" anchor="middle" family="微软雅黑" size="13px" weight="400" font-style="" opacity="1" y="9.375" transform="rotate(0)"><tspan id="SvgjsTspan1392" dy="16.25" x="50"><tspan id="SvgjsTspan1393" style="">赠送积分</tspan></tspan></text></g></g><g id="SvgjsG1394" transform="translate(538.5234375,379.0234375)"><path id="SvgjsPath1395" d="M 0 0L 100 0L 100 40L 0 40Z" stroke="none" fill="none"></path><g id="SvgjsG1396"><text id="SvgjsText1397" font-family="微软雅黑" text-anchor="middle" font-size="13px" width="100px" fill="#323232" font-weight="400" align="middle" lineHeight="125%" anchor="middle" family="微软雅黑" size="13px" weight="400" font-style="" opacity="1" y="9.375" transform="rotate(0)"><tspan id="SvgjsTspan1398" dy="16.25" x="50"><tspan id="SvgjsTspan1399" style="">扣减成功</tspan></tspan></text></g></g><g id="SvgjsG1400"><path id="SvgjsPath1401" d="M443.5234375 413.0234375L581.0234375 413.0234375L581.0234375 413.0234375L718.5234375 413.0234375" stroke-dasharray="8,5" stroke="#323232" stroke-width="1.5" fill="none" marker-start="url(#SvgjsMarker1402)"></path></g><g id="SvgjsG1404"><path id="SvgjsPath1405" d="M447.5234375 439.0234375L585.0234375 439.0234375L585.0234375 439.0234375L722.5234375 439.0234375" stroke-dasharray="8,5" stroke="#323232" stroke-width="1.5" fill="none" marker-start="url(#SvgjsMarker1406)"></path></g><g id="SvgjsG1408" transform="translate(539.5234375,405.4101264312977)"><path id="SvgjsPath1409" d="M 0 0L 100 0L 100 40L 0 40Z" stroke="none" fill="none"></path><g id="SvgjsG1410"><text id="SvgjsText1411" font-family="微软雅黑" text-anchor="middle" font-size="13px" width="100px" fill="#323232" font-weight="400" align="middle" lineHeight="125%" anchor="middle" family="微软雅黑" size="13px" weight="400" font-style="" opacity="1" y="9.375" transform="rotate(0)"><tspan id="SvgjsTspan1412" dy="16.25" x="50"><tspan id="SvgjsTspan1413" style="">扣减失败</tspan></tspan></text></g></g><g id="SvgjsG1414"><path id="SvgjsPath1415" d="M254.5234375 470.2734375L334.5234375 470.2734375L334.5234375 470.2734375L414.5234375 470.2734375" stroke-dasharray="8,5" stroke="#323232" stroke-width="1.5" fill="none" marker-start="url(#SvgjsMarker1416)"></path></g><g id="SvgjsG1418" transform="translate(290.7629879731861,423.0234375)"><path id="SvgjsPath1419" d="M 0 0L 100 0L 100 48.75L 0 48.75Z" stroke="none" fill="none"></path><g id="SvgjsG1420"><text id="SvgjsText1421" font-family="微软雅黑" text-anchor="middle" font-size="13px" width="100px" fill="#323232" font-weight="400" align="middle" lineHeight="125%" anchor="middle" family="微软雅黑" size="13px" weight="400" font-style="" opacity="1" y="5.25" transform="rotate(0)"><tspan id="SvgjsTspan1422" dy="16.25" x="50"><tspan id="SvgjsTspan1423" style="">更新消息表，</tspan></tspan><tspan id="SvgjsTspan1424" dy="16.25" x="50"><tspan id="SvgjsTspan1425" style="">积分服务完成</tspan></tspan></text></g></g></svg>