<svg version="1.1" viewBox="0.0 0.0 560.1601049868766 385.6509186351706" fill="none" stroke="none" stroke-linecap="square" stroke-miterlimit="10" xmlns:xlink="http://www.w3.org/1999/xlink" xmlns="http://www.w3.org/2000/svg"><clipPath id="p.0"><path d="m0 0l560.1601 0l0 385.6509l-560.1601 0l0 -385.6509z" clip-rule="nonzero"/></clipPath><g clip-path="url(#p.0)"><path fill="#000000" fill-opacity="0.0" d="m0 0l560.1601 0l0 385.6509l-560.1601 0z" fill-rule="evenodd"/><path fill="#ffffff" d="m5.3307085 0l546.83466 0l0 377.35434l-546.83466 0z" fill-rule="evenodd"/><path stroke="#d9d9d9" stroke-width="1.0" stroke-linejoin="round" stroke-linecap="butt" d="m5.3307085 0l546.83466 0l0 377.35434l-546.83466 0z" fill-rule="evenodd"/><path fill="#f3f3f3" d="m28.11811 38.41019l0 0c0 -9.85746 7.9910507 -17.84851 17.84851 -17.84851l466.25574 0c4.7337036 0 9.27356 1.8804626 12.620789 5.227707c3.34729 3.3472462 5.227722 7.887085 5.227722 12.620804l0 193.68881c0 9.857452 -7.991028 17.84851 -17.84851 17.84851l-466.25574 0c-9.85746 0 -17.84851 -7.9910583 -17.84851 -17.84851z" fill-rule="evenodd"/><path stroke="#000000" stroke-width="1.0" stroke-linejoin="round" stroke-linecap="butt" d="m28.11811 38.41019l0 0c0 -9.85746 7.9910507 -17.84851 17.84851 -17.84851l466.25574 0c4.7337036 0 9.27356 1.8804626 12.620789 5.227707c3.34729 3.3472462 5.227722 7.887085 5.227722 12.620804l0 193.68881c0 9.857452 -7.991028 17.84851 -17.84851 17.84851l-466.25574 0c-9.85746 0 -17.84851 -7.9910583 -17.84851 -17.84851z" fill-rule="evenodd"/><path fill="#ffffff" d="m33.125984 293.45953l0 0c0 -5.9404297 4.8156776 -10.756134 10.756123 -10.756134l195.18066 0c2.852707 0 5.588562 1.1332397 7.605728 3.1504211c2.0171661 2.0171509 3.1503906 4.7530212 3.1503906 7.605713l0 43.023193c0 5.9404297 -4.815674 10.7561035 -10.756119 10.7561035l-195.18066 0c-5.940445 0 -10.756123 -4.815674 -10.756123 -10.7561035z" fill-rule="evenodd"/><path stroke="#000000" stroke-width="1.0" stroke-linejoin="round" stroke-linecap="butt" d="m33.125984 293.45953l0 0c0 -5.9404297 4.8156776 -10.756134 10.756123 -10.756134l195.18066 0c2.852707 0 5.588562 1.1332397 7.605728 3.1504211c2.0171661 2.0171509 3.1503906 4.7530212 3.1503906 7.605713l0 43.023193c0 5.9404297 -4.815674 10.7561035 -10.756119 10.7561035l-195.18066 0c-5.940445 0 -10.756123 -4.815674 -10.756123 -10.7561035z" fill-rule="evenodd"/><path fill="#ffffff" d="m68.855644 141.43307l0 0c0 -0.0020446777 0.0016479492 -0.003692627 0.0036849976 -0.003692627l442.04358 0.003692627c9.765625E-4 0 0.0019226074 3.8146973E-4 0.0025939941 0.0010681152c7.019043E-4 7.019043E-4 0.0010986328 0.0016326904 0.0010986328 0.002609253l-0.003692627 71.87033c0 0.0020446777 -0.0016479492 0.003692627 -0.003692627 0.003692627l-442.04355 -0.003692627l0 0c-0.0020370483 0 -0.0036849976 -0.0016479492 -0.0036849976 -0.0036773682z" fill-rule="evenodd"/><path stroke="#000000" stroke-width="1.0" stroke-linejoin="round" stroke-linecap="butt" d="m68.855644 141.43307l0 0c0 -0.0020446777 0.0016479492 -0.003692627 0.0036849976 -0.003692627l442.04358 0.003692627c9.765625E-4 0 0.0019226074 3.8146973E-4 0.0025939941 0.0010681152c7.019043E-4 7.019043E-4 0.0010986328 0.0016326904 0.0010986328 0.002609253l-0.003692627 71.87033c0 0.0020446777 -0.0016479492 0.003692627 -0.003692627 0.003692627l-442.04355 -0.003692627l0 0c-0.0020370483 0 -0.0036849976 -0.0016479492 -0.0036849976 -0.0036773682z" fill-rule="evenodd"/><path fill="#ffffff" d="m196.88507 73.1524l0 0c-1.3200226 -4.1734467 3.0138702 -8.304901 11.162643 -10.641239c8.148773 -2.3363419 18.683304 -2.4678192 27.133408 -0.33864975l0 0c2.9932861 -2.4266129 8.471878 -4.1020203 14.778595 -4.5194473c6.306732 -0.41742706 12.700836 0.47216034 17.24823 2.3996735l0 0c2.5498962 -2.2001228 7.556671 -3.6783257 13.243622 -3.910061c5.686981 -0.23173904 11.249298 0.81578445 14.713196 2.770855l0 0c4.6067505 -2.3321266 11.936218 -3.3140488 18.816895 -2.5208817c6.8806763 0.7931633 12.076752 3.218956 13.339813 6.2277184l0 0c5.644043 0.66233444 10.345428 2.3460732 12.889465 4.616192c2.5440063 2.2701263 2.6810913 4.9039307 0.3758545 7.2209396l0 0c5.5577393 3.111992 6.857849 7.2586746 3.4151306 10.892593c-3.442749 3.6339188 -11.111084 6.209114 -20.14331 6.7645645c-0.06365967 3.4105606 -4.411316 6.5400467 -11.367157 8.182228c-6.9558716 1.6421738 -15.433777 1.5406036 -22.165955 -0.26555634l0 0c-2.8675232 4.084732 -10.938721 7.090248 -20.726501 7.7180405c-9.787781 0.62779236 -19.537506 -1.2346802 -25.036926 -4.782753l0 0c-6.7411346 1.7488556 -14.829926 2.2526474 -22.441727 1.397728c-7.611801 -0.85492706 -14.105408 -2.996544 -18.016006 -5.941757l0 0c-6.8885956 0.34680176 -13.54892 -1.1886597 -16.67546 -3.8443527c-3.1265564 -2.6556854 -2.053772 -5.866272 2.6859283 -8.038345l0 0c-6.144806 -1.5559692 -9.280258 -4.643532 -7.771332 -7.6526413c1.5089111 -3.0091171 7.320282 -5.2578964 14.403687 -5.5737z" fill-rule="evenodd"/><path fill="#000000" fill-opacity="0.0" d="m190.11655 86.53959l0 0c2.8997498 0.7342682 6.249649 1.0673447 9.599899 0.9545212m4.3881226 10.928444c1.4407349 -0.072532654 2.8529205 -0.22613525 4.2001495 -0.45684052m36.25557 5.000679c-1.0133057 -0.65377045 -1.8617096 -1.3523712 -2.5307465 -2.0839157m48.29593 -0.85150146l0 0c0.52279663 -0.7447052 0.86154175 -1.5111694 1.0105286 -2.2866058m32.5213 -5.629776c0.06777954 -3.631073 -4.7259216 -6.9557114 -12.3220825 -8.545898m29.05011 -9.110878c-1.2301636 1.2364502 -3.1081848 2.3332825 -5.4867554 3.2045135m-7.777405 -15.041962l0 0c0.20959473 0.4993019 0.3066101 1.006115 0.28967285 1.5134048m-32.44583 -5.2200966l0 0c-1.1491699 0.58174896 -2.0959167 1.2318459 -2.810791 1.9300499m-25.146301 -0.79109573l0 0c-0.61239624 0.5284004 -1.0697021 1.0875359 -1.3613586 1.6645279m-30.665924 0.45529175l0 0c1.7880249 0.450531 3.442215 0.99279404 4.926193 1.6148758m-43.221756 9.36507l0 0c0.18193054 0.57520294 0.46939087 1.1433258 0.85969543 1.699028" fill-rule="evenodd"/><path stroke="#000000" stroke-width="1.0" stroke-linejoin="round" stroke-linecap="butt" d="m196.88507 73.1524l0 0c-1.3200226 -4.1734467 3.0138702 -8.304901 11.162643 -10.641239c8.148773 -2.3363419 18.683304 -2.4678192 27.133408 -0.33864975l0 0c2.9932861 -2.4266129 8.471878 -4.1020203 14.778595 -4.5194473c6.306732 -0.41742706 12.700836 0.47216034 17.24823 2.3996735l0 0c2.5498962 -2.2001228 7.556671 -3.6783257 13.243622 -3.910061c5.686981 -0.23173904 11.249298 0.81578445 14.713196 2.770855l0 0c4.6067505 -2.3321266 11.936218 -3.3140488 18.816895 -2.5208817c6.8806763 0.7931633 12.076752 3.218956 13.339813 6.2277184l0 0c5.644043 0.66233444 10.345428 2.3460732 12.889465 4.616192c2.5440063 2.2701263 2.6810913 4.9039307 0.3758545 7.2209396l0 0c5.5577393 3.111992 6.857849 7.2586746 3.4151306 10.892593c-3.442749 3.6339188 -11.111084 6.209114 -20.14331 6.7645645c-0.06365967 3.4105606 -4.411316 6.5400467 -11.367157 8.182228c-6.9558716 1.6421738 -15.433777 1.5406036 -22.165955 -0.26555634l0 0c-2.8675232 4.084732 -10.938721 7.090248 -20.726501 7.7180405c-9.787781 0.62779236 -19.537506 -1.2346802 -25.036926 -4.782753l0 0c-6.7411346 1.7488556 -14.829926 2.2526474 -22.441727 1.397728c-7.611801 -0.85492706 -14.105408 -2.996544 -18.016006 -5.941757l0 0c-6.8885956 0.34680176 -13.54892 -1.1886597 -16.67546 -3.8443527c-3.1265564 -2.6556854 -2.053772 -5.866272 2.6859283 -8.038345l0 0c-6.144806 -1.5559692 -9.280258 -4.643532 -7.771332 -7.6526413c1.5089111 -3.0091171 7.320282 -5.2578964 14.403687 -5.5737z" fill-rule="evenodd"/><path stroke="#000000" stroke-width="1.0" stroke-linejoin="round" stroke-linecap="butt" d="m190.11655 86.53959l0 0c2.8997498 0.7342682 6.249649 1.0673447 9.599899 0.9545212m4.3881226 10.928444c1.4407349 -0.072532654 2.8529205 -0.22613525 4.2001495 -0.45684052m36.25557 5.000679c-1.0133057 -0.65377045 -1.8617096 -1.3523712 -2.5307465 -2.0839157m48.29593 -0.85150146l0 0c0.52279663 -0.7447052 0.86154175 -1.5111694 1.0105286 -2.2866058m32.5213 -5.629776c0.06777954 -3.631073 -4.7259216 -6.9557114 -12.3220825 -8.545898m29.05011 -9.110878c-1.2301636 1.2364502 -3.1081848 2.3332825 -5.4867554 3.2045135m-7.777405 -15.041962l0 0c0.20959473 0.4993019 0.3066101 1.006115 0.28967285 1.5134048m-32.44583 -5.2200966l0 0c-1.1491699 0.58174896 -2.0959167 1.2318459 -2.810791 1.9300499m-25.146301 -0.79109573l0 0c-0.61239624 0.5284004 -1.0697021 1.0875359 -1.3613586 1.6645279m-30.665924 0.45529175l0 0c1.7880249 0.450531 3.442215 0.99279404 4.926193 1.6148758m-43.221756 9.36507l0 0c0.18193054 0.57520294 0.46939087 1.1433258 0.85969543 1.699028" fill-rule="evenodd"/><path fill="#000000" d="m225.24808 83.9856l1.609375 0.21875q-0.265625 1.65625 -1.359375 2.609375q-1.078125 0.9375 -2.671875 0.9375q-1.984375 0 -3.1875 -1.296875q-1.203125 -1.296875 -1.203125 -3.71875q0 -1.578125 0.515625 -2.75q0.515625 -1.171875 1.578125 -1.75q1.0625 -0.59375 2.3125 -0.59375q1.578125 0 2.578125 0.796875q1.0 0.796875 1.28125 2.265625l-1.59375 0.234375q-0.234375 -0.96875 -0.8125 -1.453125q-0.578125 -0.5 -1.390625 -0.5q-1.234375 0 -2.015625 0.890625q-0.78125 0.890625 -0.78125 2.8125q0 1.953125 0.75 2.84375q0.75 0.875 1.953125 0.875q0.96875 0 1.609375 -0.59375q0.65625 -0.59375 0.828125 -1.828125zm2.40625 -1.296875q0 -2.6875 1.484375 -3.96875q1.25 -1.078125 3.046875 -1.078125q2.0 0 3.265625 1.3125q1.265625 1.296875 1.265625 3.609375q0 1.859375 -0.5625 2.9375q-0.5625 1.0625 -1.640625 1.65625q-1.0625 0.59375 -2.328125 0.59375q-2.03125 0 -3.28125 -1.296875q-1.25 -1.3125 -1.25 -3.765625zm1.6875 0q0 1.859375 0.796875 2.796875q0.8125 0.921875 2.046875 0.921875q1.21875 0 2.03125 -0.921875q0.8125 -0.9375 0.8125 -2.84375q0 -1.796875 -0.8125 -2.71875q-0.8125 -0.921875 -2.03125 -0.921875q-1.234375 0 -2.046875 0.921875q-0.796875 0.90625 -0.796875 2.765625zm9.297592 4.84375l0 -9.671875l1.46875 0l0 1.375q1.0625 -1.59375 3.078125 -1.59375q0.875 0 1.609375 0.3125q0.734375 0.3125 1.09375 0.828125q0.375 0.5 0.515625 1.203125q0.09375 0.453125 0.09375 1.59375l0 5.953125l-1.640625 0l0 -5.890625q0 -1.0 -0.203125 -1.484375q-0.1875 -0.5 -0.671875 -0.796875q-0.484375 -0.296875 -1.140625 -0.296875q-1.046875 0 -1.8125 0.671875q-0.75 0.65625 -0.75 2.515625l0 5.28125l-1.640625 0zm10.375717 0l0 -9.671875l1.46875 0l0 1.375q1.0625 -1.59375 3.078125 -1.59375q0.875 0 1.609375 0.3125q0.734375 0.3125 1.09375 0.828125q0.375 0.5 0.515625 1.203125q0.09375 0.453125 0.09375 1.59375l0 5.953125l-1.640625 0l0 -5.890625q0 -1.0 -0.203125 -1.484375q-0.1875 -0.5 -0.671875 -0.796875q-0.484375 -0.296875 -1.140625 -0.296875q-1.046875 0 -1.8125 0.671875q-0.75 0.65625 -0.75 2.515625l0 5.28125l-1.640625 0zm13.953827 -1.46875l0.234375 1.453125q-0.6875 0.140625 -1.234375 0.140625q-0.890625 0 -1.390625 -0.28125q-0.484375 -0.28125 -0.6875 -0.734375q-0.203125 -0.46875 -0.203125 -1.9375l0 -5.578125l-1.203125 0l0 -1.265625l1.203125 0l0 -2.390625l1.625 -0.984375l0 3.375l1.65625 0l0 1.265625l-1.65625 0l0 5.671875q0 0.6875 0.078125 0.890625q0.09375 0.203125 0.28125 0.328125q0.203125 0.109375 0.578125 0.109375q0.265625 0 0.71875 -0.0625zm1.5895691 1.46875l0 -9.671875l1.46875 0l0 1.46875q0.5625 -1.03125 1.03125 -1.359375q0.484375 -0.328125 1.0625 -0.328125q0.828125 0 1.6875 0.53125l-0.5625 1.515625q-0.609375 -0.359375 -1.203125 -0.359375q-0.546875 0 -0.96875 0.328125q-0.421875 0.328125 -0.609375 0.890625q-0.28125 0.875 -0.28125 1.921875l0 5.0625l-1.625 0zm12.540802 -1.1875q-0.921875 0.765625 -1.765625 1.09375q-0.828125 0.3125 -1.796875 0.3125q-1.59375 0 -2.453125 -0.78125q-0.859375 -0.78125 -0.859375 -1.984375q0 -0.71875 0.328125 -1.296875q0.328125 -0.59375 0.84375 -0.9375q0.53125 -0.359375 1.1875 -0.546875q0.46875 -0.125 1.453125 -0.25q1.984375 -0.234375 2.921875 -0.5625q0.015625 -0.34375 0.015625 -0.421875q0 -1.0 -0.46875 -1.421875q-0.625 -0.546875 -1.875 -0.546875q-1.15625 0 -1.703125 0.40625q-0.546875 0.40625 -0.8125 1.421875l-1.609375 -0.21875q0.21875 -1.015625 0.71875 -1.640625q0.5 -0.640625 1.453125 -0.984375q0.953125 -0.34375 2.1875 -0.34375q1.25 0 2.015625 0.296875q0.78125 0.28125 1.140625 0.734375q0.375 0.4375 0.515625 1.109375q0.078125 0.421875 0.078125 1.515625l0 2.1875q0 2.28125 0.109375 2.890625q0.109375 0.59375 0.40625 1.15625l-1.703125 0q-0.265625 -0.515625 -0.328125 -1.1875zm-0.140625 -3.671875q-0.890625 0.375 -2.671875 0.625q-1.015625 0.140625 -1.4375 0.328125q-0.421875 0.1875 -0.65625 0.53125q-0.21875 0.34375 -0.21875 0.78125q0 0.65625 0.5 1.09375q0.5 0.4375 1.453125 0.4375q0.9375 0 1.671875 -0.40625q0.75 -0.421875 1.09375 -1.140625q0.265625 -0.5625 0.265625 -1.640625l0 -0.609375zm10.516327 1.3125l1.609375 0.21875q-0.265625 1.65625 -1.359375 2.609375q-1.078125 0.9375 -2.671875 0.9375q-1.984375 0 -3.1875 -1.296875q-1.203125 -1.296875 -1.203125 -3.71875q0 -1.578125 0.515625 -2.75q0.515625 -1.171875 1.578125 -1.75q1.0625 -0.59375 2.3125 -0.59375q1.578125 0 2.578125 0.796875q1.0 0.796875 1.28125 2.265625l-1.59375 0.234375q-0.234375 -0.96875 -0.8125 -1.453125q-0.578125 -0.5 -1.390625 -0.5q-1.234375 0 -2.015625 0.890625q-0.78125 0.890625 -0.78125 2.8125q0 1.953125 0.75 2.84375q0.75 0.875 1.953125 0.875q0.96875 0 1.609375 -0.59375q0.65625 -0.59375 0.828125 -1.828125zm3.015625 3.546875l0 -13.359375l1.640625 0l0 7.625l3.890625 -3.9375l2.109375 0l-3.6875 3.59375l4.0625 6.078125l-2.015625 0l-3.203125 -4.953125l-1.15625 1.125l0 3.828125l-1.640625 0z" fill-rule="nonzero"/><path fill="#cfe2f3" d="m101.50131 275.11285l61.70079 0l0 25.763794l-61.70079 0z" fill-rule="evenodd"/><path stroke="#000000" stroke-width="1.0" stroke-linejoin="round" stroke-linecap="butt" d="m101.50131 275.11285l61.70079 0l0 25.763794l-61.70079 0z" fill-rule="evenodd"/><path fill="#000000" d="m122.055855 291.80536l1.6875 0.203125q-0.40625 1.484375 -1.484375 2.3125q-1.078125 0.8125 -2.765625 0.8125q-2.125 0 -3.375 -1.296875q-1.234375 -1.3125 -1.234375 -3.671875q0 -2.453125 1.25 -3.796875q1.265625 -1.34375 3.265625 -1.34375q1.9375 0 3.15625 1.328125q1.234375 1.3125 1.234375 3.703125q0 0.15625 0 0.4375l-7.21875 0q0.09375 1.59375 0.90625 2.453125q0.8125 0.84375 2.015625 0.84375q0.90625 0 1.546875 -0.46875q0.640625 -0.484375 1.015625 -1.515625zm-5.390625 -2.65625l5.40625 0q-0.109375 -1.21875 -0.625 -1.828125q-0.78125 -0.953125 -2.03125 -0.953125q-1.125 0 -1.90625 0.765625q-0.765625 0.75 -0.84375 2.015625zm12.71946 4.296875l0.234375 1.453125q-0.6875 0.140625 -1.234375 0.140625q-0.8906174 0 -1.3906174 -0.28125q-0.484375 -0.28125 -0.6875 -0.734375q-0.203125 -0.46875 -0.203125 -1.9375l0 -5.578125l-1.203125 0l0 -1.265625l1.203125 0l0 -2.390625l1.625 -0.984375l0 3.375l1.6562424 0l0 1.265625l-1.6562424 0l0 5.671875q0 0.6875 0.078125 0.890625q0.09375 0.203125 0.28124237 0.328125q0.203125 0.109375 0.578125 0.109375q0.265625 0 0.71875 -0.0625zm1.6051788 1.46875l0 -13.359375l1.640625 0l0 4.796875q1.1406403 -1.328125 2.8906403 -1.328125q1.078125 0 1.859375 0.421875q0.796875 0.421875 1.140625 1.171875q0.34375 0.75 0.34375 2.171875l0 6.125l-1.640625 0l0 -6.125q0 -1.234375 -0.53125 -1.796875q-0.53125 -0.5625 -1.515625 -0.5625q-0.71875 0 -1.359375 0.390625q-0.64064026 0.375 -0.92189026 1.015625q-0.265625 0.640625 -0.265625 1.78125l0 5.296875l-1.640625 0zm9.922607 -6.59375q0 -2.359375 0.484375 -3.796875q0.484375 -1.453125 1.4375 -2.234375q0.96875 -0.78125 2.421875 -0.78125q1.078125 0 1.890625 0.4375q0.8125 0.421875 1.328125 1.25q0.53125 0.8125 0.828125 1.984375q0.3125 1.15625 0.3125 3.140625q0 2.359375 -0.484375 3.8125q-0.484375 1.4375 -1.453125 2.234375q-0.953125 0.78125 -2.421875 0.78125q-1.921875 0 -3.03125 -1.390625q-1.3125 -1.671875 -1.3125 -5.4375zm1.671875 0q0 3.296875 0.765625 4.390625q0.78125 1.078125 1.90625 1.078125q1.140625 0 1.90625 -1.09375q0.765625 -1.09375 0.765625 -4.375q0 -3.296875 -0.765625 -4.375q-0.765625 -1.078125 -1.921875 -1.078125q-1.125 0 -1.796875 0.953125q-0.859375 1.21875 -0.859375 4.5z" fill-rule="nonzero"/><path fill="#ffffff" d="m308.68503 291.25482l0 0c0 -6.1839905 5.0131226 -11.1970825 11.1970825 -11.1970825l198.99167 0c2.9696655 0 5.817688 1.1796875 7.9175415 3.279541c2.0998535 2.0998535 3.279541 4.947876 3.279541 7.9175415l0 44.786957c0 6.18396 -5.0131226 11.197052 -11.1970825 11.197052l-198.99167 0c-6.18396 0 -11.1970825 -5.013092 -11.1970825 -11.197052z" fill-rule="evenodd"/><path stroke="#000000" stroke-width="1.0" stroke-linejoin="round" stroke-linecap="butt" d="m308.68503 291.25482l0 0c0 -6.1839905 5.0131226 -11.1970825 11.1970825 -11.1970825l198.99167 0c2.9696655 0 5.817688 1.1796875 7.9175415 3.279541c2.0998535 2.0998535 3.279541 4.947876 3.279541 7.9175415l0 44.786957c0 6.18396 -5.0131226 11.197052 -11.1970825 11.197052l-198.99167 0c-6.18396 0 -11.1970825 -5.013092 -11.1970825 -11.197052z" fill-rule="evenodd"/><path fill="#cfe2f3" d="m422.5315 278.7533l61.700775 0l0 25.763763l-61.700775 0z" fill-rule="evenodd"/><path stroke="#000000" stroke-width="1.0" stroke-linejoin="round" stroke-linecap="butt" d="m422.5315 278.7533l61.700775 0l0 25.763763l-61.700775 0z" fill-rule="evenodd"/><path fill="#000000" d="m443.08603 295.4458l1.6875 0.203125q-0.40625 1.484375 -1.484375 2.3125q-1.078125 0.8125 -2.765625 0.8125q-2.125 0 -3.375 -1.296875q-1.234375 -1.3125 -1.234375 -3.671875q0 -2.453125 1.25 -3.796875q1.265625 -1.34375 3.265625 -1.34375q1.9375 0 3.15625 1.328125q1.234375 1.3125 1.234375 3.703125q0 0.15625 0 0.4375l-7.21875 0q0.09375 1.59375 0.90625 2.453125q0.8125 0.84375 2.015625 0.84375q0.90625 0 1.546875 -0.46875q0.640625 -0.484375 1.015625 -1.515625zm-5.390625 -2.65625l5.40625 0q-0.109375 -1.21875 -0.625 -1.828125q-0.78125 -0.953125 -2.03125 -0.953125q-1.125 0 -1.90625 0.765625q-0.765625 0.75 -0.84375 2.015625zm12.719482 4.296875l0.234375 1.453125q-0.6875 0.140625 -1.234375 0.140625q-0.890625 0 -1.390625 -0.28125q-0.484375 -0.28125 -0.6875 -0.734375q-0.203125 -0.46875 -0.203125 -1.9375l0 -5.578125l-1.203125 0l0 -1.265625l1.203125 0l0 -2.390625l1.625 -0.984375l0 3.375l1.65625 0l0 1.265625l-1.65625 0l0 5.671875q0 0.6875 0.078125 0.890625q0.09375 0.203125 0.28125 0.328125q0.203125 0.109375 0.578125 0.109375q0.265625 0 0.71875 -0.0625zm1.6051636 1.46875l0 -13.359375l1.640625 0l0 4.796875q1.140625 -1.328125 2.890625 -1.328125q1.078125 0 1.859375 0.421875q0.796875 0.421875 1.140625 1.171875q0.34375 0.75 0.34375 2.171875l0 6.125l-1.640625 0l0 -6.125q0 -1.234375 -0.53125 -1.796875q-0.53125 -0.5625 -1.515625 -0.5625q-0.71875 0 -1.359375 0.390625q-0.640625 0.375 -0.921875 1.015625q-0.265625 0.640625 -0.265625 1.78125l0 5.296875l-1.640625 0zm9.922607 -6.59375q0 -2.359375 0.484375 -3.796875q0.484375 -1.453125 1.4375 -2.234375q0.96875 -0.78125 2.421875 -0.78125q1.078125 0 1.890625 0.4375q0.8125 0.421875 1.328125 1.25q0.53125 0.8125 0.828125 1.984375q0.3125 1.15625 0.3125 3.140625q0 2.359375 -0.484375 3.8125q-0.484375 1.4375 -1.453125 2.234375q-0.953125 0.78125 -2.421875 0.78125q-1.921875 0 -3.03125 -1.390625q-1.3125 -1.671875 -1.3125 -5.4375zm1.671875 0q0 3.296875 0.765625 4.390625q0.78125 1.078125 1.90625 1.078125q1.140625 0 1.90625 -1.09375q0.765625 -1.09375 0.765625 -4.375q0 -3.296875 -0.765625 -4.375q-0.765625 -1.078125 -1.921875 -1.078125q-1.125 0 -1.796875 0.953125q-0.859375 1.21875 -0.859375 4.5z" fill-rule="nonzero"/><path fill="#000000" fill-opacity="0.0" d="m223.19685 138.1811l147.71654 0l0 42.015747l-147.71654 0z" fill-rule="evenodd"/><path fill="#000000" d="m233.63435 165.1011l0 -13.25l2.6875 0l0 11.0l6.703125 0l0 2.25l-9.390625 0zm11.302231 -10.984375l0 -2.375l2.5625 0l0 2.375l-2.5625 0zm0 10.984375l0 -9.671875l2.5625 0l0 9.671875l-2.5625 0zm13.980164 0l-2.5625 0l0 -4.9375q0 -1.5625 -0.171875 -2.015625q-0.15625 -0.46875 -0.53123474 -0.71875q-0.359375 -0.265625 -0.875 -0.265625q-0.671875 0 -1.203125 0.375q-0.53125 0.359375 -0.734375 0.96875q-0.1875 0.59375 -0.1875 2.21875l0 4.375l-2.546875 0l0 -9.671875l2.375 0l0 1.421875q1.265625 -1.640625 3.1875 -1.640625q0.84373474 0 1.5468597 0.3125q0.703125 0.296875 1.0625 0.78125q0.359375 0.46875 0.5 1.078125q0.140625 0.59375 0.140625 1.703125l0 6.015625zm8.958496 0l0 -1.453125q-0.53125 0.78125 -1.390625 1.234375q-0.859375 0.4375 -1.8125 0.4375q-0.96875 0 -1.75 -0.421875q-0.765625 -0.4375 -1.125 -1.203125q-0.34375 -0.78125 -0.34375 -2.140625l0 -6.125l2.5625 0l0 4.4375q0 2.046875 0.140625 2.515625q0.140625 0.453125 0.515625 0.71875q0.375 0.265625 0.953125 0.265625q0.65625 0 1.171875 -0.359375q0.515625 -0.359375 0.703125 -0.890625q0.203125 -0.53125 0.203125 -2.609375l0 -4.078125l2.546875 0l0 9.671875l-2.375 0zm3.8022156 0l3.484375 -4.984375l-3.34375 -4.6875l3.125 0l1.71875 2.65625l1.796875 -2.65625l3.015625 0l-3.28125 4.578125l3.578125 5.09375l-3.140625 0l-1.96875 -3.0l-1.984375 3.0l-3.0 0zm16.684021 0l0 -13.359375l2.5625 0l0 4.8125q1.171875 -1.34375 2.796875 -1.34375q1.765625 0 2.921875 1.28125q1.15625 1.28125 1.15625 3.671875q0 2.484375 -1.1875 3.828125q-1.171875 1.328125 -2.859375 1.328125q-0.828125 0 -1.640625 -0.40625q-0.796875 -0.421875 -1.375 -1.234375l0 1.421875l-2.375 0zm2.53125 -5.046875q0 1.5 0.484375 2.21875q0.65625 1.03125 1.765625 1.03125q0.84375 0 1.4375 -0.71875q0.59375 -0.734375 0.59375 -2.296875q0 -1.65625 -0.609375 -2.390625q-0.59375 -0.734375 -1.53125 -0.734375q-0.921875 0 -1.53125 0.71875q-0.609375 0.71875 -0.609375 2.171875zm11.427246 5.046875l-2.5625 0l0 -9.671875l2.375 0l0 1.375q0.609375 -0.984375 1.09375 -1.28125q0.484375 -0.3125 1.109375 -0.3125q0.875 0 1.6875 0.484375l-0.796875 2.234375q-0.640625 -0.421875 -1.203125 -0.421875q-0.53125 0 -0.90625 0.296875q-0.375 0.296875 -0.59375 1.078125q-0.203125 0.765625 -0.203125 3.234375l0 2.984375zm4.807129 -10.984375l0 -2.375l2.5625 0l0 2.375l-2.5625 0zm0 10.984375l0 -9.671875l2.5625 0l0 9.671875l-2.5625 0zm14.058319 0l-2.390625 0l0 -1.421875q-0.59375 0.828125 -1.40625 1.234375q-0.796875 0.40625 -1.609375 0.40625q-1.671875 0 -2.859375 -1.34375q-1.1875 -1.34375 -1.1875 -3.75q0 -2.453125 1.15625 -3.734375q1.15625 -1.28125 2.921875 -1.28125q1.625 0 2.8125 1.34375l0 -4.8125l2.5625 0l0 13.359375zm-6.84375 -5.046875q0 1.546875 0.4375 2.234375q0.609375 1.015625 1.71875 1.015625q0.890625 0 1.5 -0.75q0.625 -0.765625 0.625 -2.25q0 -1.671875 -0.609375 -2.40625q-0.59375 -0.734375 -1.53125 -0.734375q-0.90625 0 -1.53125 0.734375q-0.609375 0.71875 -0.609375 2.15625zm9.130341 5.6875l2.921875 0.359375q0.0625 0.5 0.328125 0.6875q0.375 0.28125 1.15625 0.28125q1.0 0 1.5 -0.296875q0.328125 -0.203125 0.515625 -0.65625q0.109375 -0.3125 0.109375 -1.171875l0 -1.40625q-1.140625 1.5625 -2.890625 1.5625q-1.953125 0 -3.09375 -1.65625q-0.890625 -1.296875 -0.890625 -3.234375q0 -2.4375 1.171875 -3.71875q1.171875 -1.28125 2.90625 -1.28125q1.796875 0 2.96875 1.578125l0 -1.359375l2.390625 0l0 8.671875q0 1.71875 -0.28125 2.5625q-0.28125 0.84375 -0.796875 1.328125q-0.5 0.484375 -1.359375 0.75q-0.84375 0.28125 -2.15625 0.28125q-2.453125 0 -3.484375 -0.84375q-1.03125 -0.84375 -1.03125 -2.125q0 -0.140625 0.015625 -0.3125zm2.28125 -5.671875q0 1.53125 0.59375 2.25q0.59375 0.71875 1.46875 0.71875q0.9375 0 1.578125 -0.734375q0.65625 -0.734375 0.65625 -2.171875q0 -1.515625 -0.625 -2.234375q-0.609375 -0.734375 -1.5625 -0.734375q-0.921875 0 -1.515625 0.71875q-0.59375 0.71875 -0.59375 2.1875zm14.942871 1.953125l2.546875 0.421875q-0.484375 1.40625 -1.546875 2.140625q-1.0625 0.734375 -2.65625 0.734375q-2.515625 0 -3.734375 -1.65625q-0.953125 -1.3125 -0.953125 -3.328125q0 -2.40625 1.25 -3.765625q1.265625 -1.359375 3.1875 -1.359375q2.15625 0 3.40625 1.421875q1.25 1.421875 1.1875 4.375l-6.40625 0q0.03125 1.140625 0.609375 1.78125q0.59375 0.625 1.484375 0.625q0.59375 0 1.0 -0.328125q0.421875 -0.328125 0.625 -1.0625zm0.15625 -2.59375q-0.03125 -1.109375 -0.578125 -1.6875q-0.546875 -0.578125 -1.328125 -0.578125q-0.84375 0 -1.390625 0.609375q-0.546875 0.609375 -0.53125 1.65625l3.828125 0z" fill-rule="nonzero"/><path fill="#cfe2f3" d="m101.50131 174.80052l61.70079 0l0 25.763779l-61.70079 0z" fill-rule="evenodd"/><path stroke="#000000" stroke-width="1.0" stroke-linejoin="round" stroke-linecap="butt" d="m101.50131 174.80052l61.70079 0l0 25.763779l-61.70079 0z" fill-rule="evenodd"/><path fill="#000000" d="m118.64215 194.60242l-3.6875 -9.671875l1.734375 0l2.078125 5.796875q0.328125 0.9375 0.625 1.9375q0.203125 -0.765625 0.609375 -1.828125l2.140625 -5.90625l1.6875 0l-3.65625 9.671875l-1.53125 0zm13.265625 -3.109375l1.6875 0.203125q-0.40625 1.484375 -1.484375 2.3125q-1.078125 0.8125 -2.765625 0.8125q-2.125 0 -3.375 -1.296875q-1.234375 -1.3125 -1.234375 -3.671875q0 -2.453125 1.25 -3.796875q1.265625 -1.34375 3.265625 -1.34375q1.9375 0 3.15625 1.328125q1.234375 1.3125 1.234375 3.703125q0 0.15625 0 0.4375l-7.21875 0q0.09375 1.59375 0.90625 2.453125q0.8125 0.84375 2.015625 0.84375q0.90625 0 1.546875 -0.46875q0.640625 -0.484375 1.015625 -1.515625zm-5.390625 -2.65625l5.40625 0q-0.109375 -1.21875 -0.625 -1.828125q-0.78125 -0.953125 -2.03125 -0.953125q-1.125 0 -1.90625 0.765625q-0.765625 0.75 -0.84375 2.015625zm12.719467 4.296875l0.234375 1.453125q-0.6875 0.140625 -1.234375 0.140625q-0.890625 0 -1.390625 -0.28125q-0.484375 -0.28125 -0.6875 -0.734375q-0.203125 -0.46875 -0.203125 -1.9375l0 -5.578125l-1.203125 0l0 -1.265625l1.203125 0l0 -2.390625l1.625 -0.984375l0 3.375l1.65625 0l0 1.265625l-1.65625 0l0 5.671875q0 0.6875 0.078125 0.890625q0.09375 0.203125 0.28125 0.328125q0.203125 0.109375 0.578125 0.109375q0.265625 0 0.71875 -0.0625zm1.6051788 1.46875l0 -13.359375l1.640625 0l0 4.796875q1.140625 -1.328125 2.890625 -1.328125q1.078125 0 1.859375 0.421875q0.796875 0.421875 1.140625 1.171875q0.34375 0.75 0.34375 2.171875l0 6.125l-1.640625 0l0 -6.125q0 -1.234375 -0.53125 -1.796875q-0.53125 -0.5625 -1.515625 -0.5625q-0.71875 0 -1.359375 0.390625q-0.640625 0.375 -0.921875 1.015625q-0.265625 0.640625 -0.265625 1.78125l0 5.296875l-1.640625 0z" fill-rule="nonzero"/><path fill="#cfe2f3" d="m422.5327 174.7874l61.700775 0l0 25.763779l-61.700775 0z" fill-rule="evenodd"/><path stroke="#000000" stroke-width="1.0" stroke-linejoin="round" stroke-linecap="butt" d="m422.5327 174.7874l61.700775 0l0 25.763779l-61.700775 0z" fill-rule="evenodd"/><path fill="#000000" d="m439.67355 194.5893l-3.6875 -9.671875l1.734375 0l2.078125 5.796875q0.328125 0.9375 0.625 1.9375q0.203125 -0.765625 0.609375 -1.828125l2.140625 -5.90625l1.6875 0l-3.65625 9.671875l-1.53125 0zm13.265625 -3.109375l1.6875 0.203125q-0.40625 1.484375 -1.484375 2.3125q-1.078125 0.8125 -2.765625 0.8125q-2.125 0 -3.375 -1.296875q-1.234375 -1.3125 -1.234375 -3.671875q0 -2.453125 1.25 -3.796875q1.265625 -1.34375 3.265625 -1.34375q1.9375 0 3.15625 1.328125q1.234375 1.3125 1.234375 3.703125q0 0.15625 0 0.4375l-7.21875 0q0.09375 1.59375 0.90625 2.453125q0.8125 0.84375 2.015625 0.84375q0.90625 0 1.546875 -0.46875q0.640625 -0.484375 1.015625 -1.515625zm-5.390625 -2.65625l5.40625 0q-0.109375 -1.21875 -0.625 -1.828125q-0.78125 -0.953125 -2.03125 -0.953125q-1.125 0 -1.90625 0.765625q-0.765625 0.75 -0.84375 2.015625zm12.719452 4.296875l0.234375 1.453125q-0.6875 0.140625 -1.234375 0.140625q-0.890625 0 -1.390625 -0.28125q-0.484375 -0.28125 -0.6875 -0.734375q-0.203125 -0.46875 -0.203125 -1.9375l0 -5.578125l-1.203125 0l0 -1.265625l1.203125 0l0 -2.390625l1.625 -0.984375l0 3.375l1.65625 0l0 1.265625l-1.65625 0l0 5.671875q0 0.6875 0.078125 0.890625q0.09375 0.203125 0.28125 0.328125q0.203125 0.109375 0.578125 0.109375q0.265625 0 0.71875 -0.0625zm1.6051941 1.46875l0 -13.359375l1.640625 0l0 4.796875q1.140625 -1.328125 2.890625 -1.328125q1.078125 0 1.859375 0.421875q0.796875 0.421875 1.140625 1.171875q0.34375 0.75 0.34375 2.171875l0 6.125l-1.640625 0l0 -6.125q0 -1.234375 -0.53125 -1.796875q-0.53125 -0.5625 -1.515625 -0.5625q-0.71875 0 -1.359375 0.390625q-0.640625 0.375 -0.921875 1.015625q-0.265625 0.640625 -0.265625 1.78125l0 5.296875l-1.640625 0z" fill-rule="nonzero"/><path fill="#000000" fill-opacity="0.0" d="m132.3517 275.11285l0 -74.55118" fill-rule="evenodd"/><path stroke="#000000" stroke-width="1.0" stroke-linejoin="round" stroke-linecap="butt" d="m132.3517 275.11285l0 -68.55118" fill-rule="evenodd"/><path fill="#000000" stroke="#000000" stroke-width="1.0" stroke-linecap="butt" d="m134.00343 206.56168l-1.6517334 -4.538101l-1.6517334 4.538101z" fill-rule="evenodd"/><path fill="#000000" fill-opacity="0.0" d="m132.3517 174.80052l131.62206 -67.1811" fill-rule="evenodd"/><path stroke="#000000" stroke-width="1.0" stroke-linejoin="round" stroke-linecap="butt" d="m132.3517 174.80052l126.27794 -64.45341" fill-rule="evenodd"/><path fill="#000000" stroke="#000000" stroke-width="1.0" stroke-linecap="butt" d="m259.38052 111.81829l3.2911377 -3.5342636l-4.792938 0.5919113z" fill-rule="evenodd"/><path fill="#000000" fill-opacity="0.0" d="m263.9639 107.6252l189.4173 67.14961" fill-rule="evenodd"/><path stroke="#000000" stroke-width="1.0" stroke-linejoin="round" stroke-linecap="butt" d="m263.9639 107.625206l183.76215 65.14481" fill-rule="evenodd"/><path fill="#000000" stroke="#000000" stroke-width="1.0" stroke-linecap="butt" d="m447.17413 174.32683l4.8291626 -0.040481567l-3.7253723 -3.07312z" fill-rule="evenodd"/><path fill="#000000" fill-opacity="0.0" d="m422.5315 291.63516l0 -103.96849" fill-rule="evenodd"/><path stroke="#000000" stroke-width="3.0" stroke-linejoin="round" stroke-linecap="butt" d="m422.5315 291.63516l0 -85.96849" fill-rule="evenodd"/><path fill="#000000" stroke="#000000" stroke-width="3.0" stroke-linecap="butt" d="m427.4867 205.66667l-4.9552 -13.614304l-4.9552 13.614304z" fill-rule="evenodd"/><path fill="#000000" fill-opacity="0.0" d="m422.5327 187.6693l-259.3386 0" fill-rule="evenodd"/><path stroke="#000000" stroke-width="3.0" stroke-linejoin="round" stroke-linecap="butt" d="m422.5327 187.6693l-241.3386 0" fill-rule="evenodd"/><path fill="#000000" stroke="#000000" stroke-width="3.0" stroke-linecap="butt" d="m181.19412 182.7141l-13.614288 4.9552l13.614288 4.955185z" fill-rule="evenodd"/><path fill="#000000" fill-opacity="0.0" d="m193.76903 209.63649l163.71654 0l0 35.55905l-163.71654 0z" fill-rule="evenodd"/><path fill="#000000" d="m212.97215 224.21773l0.109375 -0.25l0.90625 0.71875q0.3125 0.25 -0.203125 0.34375q-0.546875 1.78125 -1.46875 3.0q1.125 0.921875 2.484375 1.375l-0.5 1.109375q-1.375 -0.5 -2.6875 -1.671875q-1.28125 1.171875 -2.59375 1.828125l-0.609375 -0.96875q1.0625 -0.5 2.4375 -1.5625q-1.0625 -1.53125 -1.421875 -2.953125l-0.765625 0l0 1.46875q0 2.4375 -1.21875 3.65625l-0.65625 -1.015625q0.859375 -0.703125 0.859375 -2.734375l0 -5.078125l6.75 0l0 1.109375l-5.734375 0l0 1.625l4.3125 0zm2.140625 6.96875l-0.203125 0.96875l-6.203125 0q-1.828125 0 -2.890625 -1.328125q-0.453125 0.765625 -1.625 1.46875l-0.65625 -1.109375q1.109375 -0.46875 1.71875 -1.015625l0 -3.109375l-1.671875 0l0 -1.109375l2.6875 0l0 4.15625q0.8125 1.078125 2.390625 1.078125l6.453125 0zm-10.203125 -9.953125q1.21875 0.8125 1.875 1.875l-0.8125 0.8125q-0.765625 -1.0625 -1.828125 -1.875l0.765625 -0.8125zm5.484375 3.953125q0.453125 1.375 1.15625 2.140625q0.765625 -1.078125 1.078125 -2.140625l-2.234375 0zm10.453125 2.75l2.84375 0l0 -2.703125l-2.84375 0l0 2.703125zm2.84375 1.46875l0 -0.515625l-2.84375 0l0 0.5625l-1.015625 0l0 -5.171875l4.875 0l0 5.125l-1.015625 0zm-5.53125 1.421875l8.171875 0l0 -8.28125l-8.171875 0l0 8.28125zm8.171875 1.421875l0 -0.453125l-8.171875 0l0 0.703125l-1.015625 0l0 -10.921875l10.203125 0l0 10.671875l-1.015625 0zm13.609375 -5.03125q0.25 0.25 -0.09375 0.25q-1.125 1.578125 -2.390625 2.59375q1.171875 0.65625 3.546875 1.015625l-0.296875 1.125q-2.390625 -0.3125 -4.015625 -1.421875q-1.71875 1.109375 -3.75 1.671875l-0.40625 -1.21875q2.078125 -0.40625 3.34375 -1.171875q-0.90625 -1.015625 -1.421875 -2.328125l-1.0625 0l0 -0.96875l5.484375 0l0.203125 -0.203125l0.859375 0.65625zm-3.25 2.28125q1.015625 -0.8125 1.671875 -1.765625l-2.9375 0q0.5 1.015625 1.265625 1.765625zm-4.21875 -0.90625q-0.953125 2.125 -1.71875 3.5q0.09375 0.40625 -0.15625 0.203125l-0.859375 -0.859375q0.90625 -1.328125 1.875 -3.5l0.859375 0.65625zm-1.875 -4.015625q0.921875 0.515625 1.828125 1.328125l-0.703125 0.953125q-0.96875 -0.8125 -1.78125 -1.359375l0.65625 -0.921875zm1.625 -0.96875q-1.015625 -0.8125 -1.78125 -1.3125l0.671875 -0.859375q1.0625 0.546875 1.765625 1.265625l-0.65625 0.90625zm6.296875 0.875q0 0.40625 0.359375 0.40625l0.65625 0q0.25 0 0.3125 -0.359375l0.140625 -0.765625l1.015625 0.3125l-0.203125 0.953125q-0.140625 0.8125 -0.703125 0.8125l-1.671875 0q-0.921875 0 -0.921875 -0.859375l0 -2.59375l-2.28125 0l0 1.53125q0 1.875 -2.078125 2.640625l-0.515625 -0.96875q1.578125 -0.453125 1.578125 -1.71875l0 -2.4375l4.3125 0l0 3.046875zm3.96875 3.5q2.984375 -1.671875 3.859375 -4.3125l-3.40625 0l0 -0.96875l3.65625 0q0.15625 -0.609375 0.25 -1.828125l1.328125 0.25q0.203125 0.203125 -0.15625 0.25l-0.25 1.328125l6.09375 0l0 0.96875l-6.296875 0q-0.203125 0.703125 -0.46875 1.15625l5.03125 0l0 6.765625q0 0.8125 -0.8125 0.8125l-1.171875 0l-0.25 -0.96875l1.015625 0q0.203125 0 0.203125 -0.203125l0 -1.375l-4.421875 0l0 2.703125l-1.015625 0l0 -5.59375q-1.21875 1.265625 -2.578125 2.078125l-0.609375 -1.0625zm4.203125 -0.203125l0 1.109375l4.421875 0l0 -1.109375l-4.421875 0zm4.421875 -0.96875l0 -1.015625l-4.421875 0l0 1.015625l4.421875 0z" fill-rule="nonzero"/><path fill="#000000" d="m258.9878 221.54585q-0.3125 0.421875 -0.78125 1.203125q-0.46875 0.78125 -1.515625 2.328125q0.375 0 2.03125 -0.09375q0.578125 -0.828125 1.0 -1.71875q0.40625 0.421875 0.984375 0.625q-0.515625 0.625 -1.25 1.609375q-0.734375 0.984375 -2.1875 2.765625q2.03125 -0.265625 2.921875 -0.46875q-0.0625 0.3125 -0.0625 0.875q-0.46875 0.109375 -1.71875 0.265625q-1.25 0.15625 -2.34375 0.421875q-0.046875 -0.375 -0.35939026 -0.9375q0.57814026 -0.265625 1.1718903 -0.9375q0.59375 -0.6875 1.28125 -1.671875q-0.578125 0 -1.234375 0.078125q-0.640625 0.078125 -1.0625153 0.1875q-0.109375 -0.375 -0.421875 -0.9375q0.57814026 -0.375 1.2968903 -1.609375q0.734375 -1.25 1.203125 -2.5625q0.375 0.3125 1.046875 0.578125zm6.03125 5.984375q0.84375 0 1.5625 -0.046875l0 0.9375q-0.671875 -0.0625 -1.5 -0.0625l-0.84375 0l0 3.078125l1.515625 0q0.734375 0 1.5625 -0.046875l0 0.9375q-0.828125 -0.0625 -1.5625 -0.0625l-4.0625 0q-0.671875 0 -1.765625 0.0625l0 -0.9375q1.09375 0.046875 1.765625 0.046875l1.5625 0l0 -3.078125l-0.734375 0q-0.875 0 -1.703125 0.0625l0 -0.9375q0.828125 0.046875 1.703125 0.046875l2.5 0zm1.203125 -5.78125q-0.265625 0.53125 -0.6875 1.15625q-0.40625 0.625 -1.078125 1.40625q2.28125 1.5 3.015625 1.96875q-0.421875 0.421875 -0.78125 0.890625q-0.671875 -0.6875 -2.765625 -2.25q-0.671875 0.625 -1.375 1.125q-0.703125 0.5 -1.890625 1.21875q-0.3125 -0.515625 -0.734375 -0.875q0.890625 -0.3125 1.578125 -0.734375q0.703125 -0.421875 1.640625 -1.296875q0.9375 -0.890625 1.515625 -1.765625l-2.234375 0q-0.9375 0 -1.765625 0.046875l0 -0.9375q0.828125 0.046875 1.765625 0.046875l3.796875 0zm-5.9375 8.328125q0 0.3125 0.0625 0.890625q-0.9375 0.15625 -2.171875 0.421875q-1.21875 0.25 -2.2031403 0.515625q-0.265625 -0.625 -0.46875 -1.09375q1.4531403 -0.15625 2.1718903 -0.28125q0.734375 -0.140625 2.609375 -0.453125zm8.328125 1.78125q1.625 -1.40625 2.140625 -1.78125l0 -3.796875q-1.25 0 -1.828125 0.046875l0 -1.03125q0.46875 0.09375 1.9375 0.09375l0.984375 0q-0.046875 0.78125 -0.046875 1.5625l0 3.234375q1.5 1.296875 4.4375 1.328125q2.953125 0.03125 4.671875 -0.234375q-0.3125 0.515625 -0.46875 1.296875l-3.125 0q-1.3125 0 -2.40625 -0.078125q-1.078125 -0.078125 -1.84375 -0.4375q-0.75 -0.359375 -1.328125 -0.78125q-0.5625 -0.421875 -1.0625 0.078125q-0.5 0.5 -1.125 1.375q-0.3125 -0.515625 -0.9375 -0.875zm7.03125 -2.1875q1.203125 0.046875 1.515625 -0.046875q0.3125 -0.109375 0.3125 -0.890625l0 -4.734375l-3.390625 0q-0.5625 0 -1.25 0.046875l0 -0.984375q0.6875 0.046875 1.671875 0.046875l2.96875 0q0 -1.359375 -0.109375 -2.34375l1.203125 0q-0.0625 0.671875 -0.0625 2.34375q1.09375 0 1.984375 -0.046875l0 0.984375q-0.828125 -0.046875 -1.984375 -0.046875l0 5.140625q0 1.203125 -0.703125 1.4375q-0.703125 0.234375 -1.734375 0.28125q-0.109375 -0.5625 -0.421875 -1.1875zm-1.03125 -1.5625q-0.46875 -1.40625 -1.15625 -2.609375q0.46875 -0.203125 1.0 -0.578125q0.921875 1.875 1.1875 2.609375q-0.359375 0.203125 -1.03125 0.578125zm-4.125 -7.03125q0.53125 0.625 1.625 2.296875q-0.53125 0.3125 -1.0 0.671875q-1.03125 -1.765625 -1.5625 -2.234375q0.46875 -0.265625 0.9375 -0.734375z" fill-rule="nonzero"/><path fill="#000000" d="m285.72202 228.37398l1.203125 -0.109375q0.078125 0.71875 0.390625 1.1875q0.3125 0.453125 0.953125 0.734375q0.65625 0.28125 1.46875 0.28125q0.71875 0 1.265625 -0.21875q0.5625 -0.21875 0.828125 -0.578125q0.265625 -0.375 0.265625 -0.828125q0 -0.453125 -0.265625 -0.78125q-0.25 -0.328125 -0.84375 -0.5625q-0.390625 -0.15625 -1.703125 -0.46875q-1.3125 -0.3125 -1.84375 -0.59375q-0.671875 -0.359375 -1.015625 -0.890625q-0.328125 -0.53125 -0.328125 -1.1875q0 -0.71875 0.40625 -1.34375q0.40625 -0.625 1.1875 -0.953125q0.796875 -0.328125 1.765625 -0.328125q1.046875 0 1.859375 0.34375q0.8125 0.34375 1.25 1.015625q0.4375 0.65625 0.46875 1.484375l-1.203125 0.09375q-0.109375 -0.90625 -0.671875 -1.359375q-0.5625 -0.46875 -1.65625 -0.46875q-1.140625 0 -1.671875 0.421875q-0.515625 0.421875 -0.515625 1.015625q0 0.515625 0.359375 0.84375q0.375 0.328125 1.90625 0.6875q1.546875 0.34375 2.109375 0.59375q0.84375 0.390625 1.234375 0.984375q0.390625 0.578125 0.390625 1.359375q0 0.75 -0.4375 1.4375q-0.421875 0.671875 -1.25 1.046875q-0.8125 0.359375 -1.828125 0.359375q-1.296875 0 -2.171875 -0.375q-0.875 -0.375 -1.375 -1.125q-0.5 -0.765625 -0.53125 -1.71875zm9.3116455 3.0625l0 -9.546875l1.296875 0l5.015625 7.5l0 -7.5l1.203125 0l0 9.546875l-1.296875 0l-5.015625 -7.5l0 7.5l-1.203125 0zm8.593903 0l3.65625 -9.546875l1.359375 0l3.90625 9.546875l-1.4375 0l-1.109375 -2.890625l-3.984375 0l-1.046875 2.890625l-1.34375 0zm2.75 -3.921875l3.234375 0l-1.0 -2.640625q-0.453125 -1.203125 -0.671875 -1.96875q-0.1875 0.90625 -0.515625 1.8125l-1.046875 2.796875zm8.618927 3.921875l0 -8.421875l-3.140625 0l0 -1.125l7.5625 0l0 1.125l-3.15625 0l0 8.421875l-1.265625 0z" fill-rule="nonzero"/><path fill="#000000" fill-opacity="0.0" d="m68.855644 294.48032l126.99212 0l0 42.015747l-126.99212 0z" fill-rule="evenodd"/><path fill="#000000" d="m94.58009 316.7128l1.765625 0.453125q-0.5625 2.171875 -2.0 3.328125q-1.4375 1.140625 -3.53125 1.140625q-2.15625 0 -3.515625 -0.875q-1.34375 -0.890625 -2.0625 -2.546875q-0.703125 -1.671875 -0.703125 -3.59375q0 -2.078125 0.796875 -3.625q0.796875 -1.5625 2.265625 -2.359375q1.484375 -0.8125 3.25 -0.8125q2.0 0 3.359375 1.015625q1.375 1.015625 1.90625 2.875l-1.734375 0.40625q-0.46875 -1.453125 -1.359375 -2.109375q-0.875 -0.671875 -2.203125 -0.671875q-1.546875 0 -2.578125 0.734375q-1.03125 0.734375 -1.453125 1.984375q-0.421875 1.234375 -0.421875 2.5625q0 1.703125 0.5 2.96875q0.5 1.265625 1.546875 1.90625q1.046875 0.625 2.265625 0.625q1.484375 0 2.515625 -0.859375q1.03125 -0.859375 1.390625 -2.546875zm3.1291962 -0.15625q0 -2.6875 1.484375 -3.96875q1.25 -1.078125 3.046875 -1.078125q2.0 0 3.265625 1.3125q1.265625 1.296875 1.265625 3.609375q0 1.859375 -0.5625 2.9375q-0.5625 1.0625 -1.640625 1.65625q-1.0625 0.59375 -2.328125 0.59375q-2.03125 0 -3.28125 -1.296875q-1.25 -1.3125 -1.25 -3.765625zm1.6875 0q0 1.859375 0.796875 2.796875q0.8125 0.921875 2.046875 0.921875q1.21875 0 2.03125 -0.921875q0.8125 -0.9375 0.8125 -2.84375q0 -1.796875 -0.8125 -2.71875q-0.8125 -0.921875 -2.03125 -0.921875q-1.234375 0 -2.046875 0.921875q-0.796875 0.90625 -0.796875 2.765625zm9.297592 4.84375l0 -9.671875l1.46875 0l0 1.375q1.0625 -1.59375 3.078125 -1.59375q0.875 0 1.609375 0.3125q0.734375 0.3125 1.09375 0.828125q0.375 0.5 0.515625 1.203125q0.09375 0.453125 0.09375 1.59375l0 5.953125l-1.640625 0l0 -5.890625q0 -1.0 -0.203125 -1.484375q-0.1875 -0.5 -0.671875 -0.796875q-0.484375 -0.296875 -1.140625 -0.296875q-1.046875 0 -1.8125 0.671875q-0.75 0.65625 -0.75 2.515625l0 5.28125l-1.640625 0zm13.953842 -1.46875l0.234375 1.453125q-0.6875 0.140625 -1.234375 0.140625q-0.890625 0 -1.390625 -0.28125q-0.484375 -0.28125 -0.6875 -0.734375q-0.203125 -0.46875 -0.203125 -1.9375l0 -5.578125l-1.203125 0l0 -1.265625l1.203125 0l0 -2.390625l1.625 -0.984375l0 3.375l1.65625 0l0 1.265625l-1.65625 0l0 5.671875q0 0.6875 0.078125 0.890625q0.09375 0.203125 0.28125 0.328125q0.203125 0.109375 0.578125 0.109375q0.265625 0 0.71875 -0.0625zm7.917679 0.28125q-0.921875 0.765625 -1.765625 1.09375q-0.828125 0.3125 -1.796875 0.3125q-1.59375 0 -2.453125 -0.78125q-0.859375 -0.78125 -0.859375 -1.984375q0 -0.71875 0.328125 -1.296875q0.328125 -0.59375 0.84375 -0.9375q0.53125 -0.359375 1.1875 -0.546875q0.46875 -0.125 1.453125 -0.25q1.984375 -0.234375 2.921875 -0.5625q0.015625 -0.34375 0.015625 -0.421875q0 -1.0 -0.46875 -1.421875q-0.625 -0.546875 -1.875 -0.546875q-1.15625 0 -1.703125 0.40625q-0.546875 0.40625 -0.8125 1.421875l-1.609375 -0.21875q0.21875 -1.015625 0.71875 -1.640625q0.5 -0.640625 1.453125 -0.984375q0.953125 -0.34375 2.1875 -0.34375q1.25 0 2.015625 0.296875q0.78125 0.28125 1.140625 0.734375q0.375 0.4375 0.515625 1.109375q0.078125 0.421875 0.078125 1.515625l0 2.1875q0 2.28125 0.109375 2.890625q0.109375 0.59375 0.40625 1.15625l-1.703125 0q-0.265625 -0.515625 -0.328125 -1.1875zm-0.140625 -3.671875q-0.890625 0.375 -2.671875 0.625q-1.015625 0.140625 -1.4375 0.328125q-0.421875 0.1875 -0.65625 0.53125q-0.21875 0.34375 -0.21875 0.78125q0 0.65625 0.5 1.09375q0.5 0.4375 1.453125 0.4375q0.9375 0 1.671875 -0.40625q0.75 -0.421875 1.09375 -1.140625q0.265625 -0.5625 0.265625 -1.640625l0 -0.609375zm4.203842 -6.609375l0 -1.890625l1.640625 0l0 1.890625l-1.640625 0zm0 11.46875l0 -9.671875l1.640625 0l0 9.671875l-1.640625 0zm4.144821 0l0 -9.671875l1.46875 0l0 1.375q1.0625 -1.59375 3.078125 -1.59375q0.875 0 1.609375 0.3125q0.734375 0.3125 1.09375 0.828125q0.375 0.5 0.515625 1.203125q0.09375 0.453125 0.09375 1.59375l0 5.953125l-1.640625 0l0 -5.890625q0 -1.0 -0.203125 -1.484375q-0.1875 -0.5 -0.671875 -0.796875q-0.484375 -0.296875 -1.140625 -0.296875q-1.046875 0 -1.8125 0.671875q-0.75 0.65625 -0.75 2.515625l0 5.28125l-1.640625 0zm17.000717 -3.109375l1.6875 0.203125q-0.40625 1.484375 -1.484375 2.3125q-1.078125 0.8125 -2.765625 0.8125q-2.125 0 -3.375 -1.296875q-1.234375 -1.3125 -1.234375 -3.671875q0 -2.453125 1.25 -3.796875q1.265625 -1.34375 3.265625 -1.34375q1.9375 0 3.15625 1.328125q1.234375 1.3125 1.234375 3.703125q0 0.15625 0 0.4375l-7.21875 0q0.09375 1.59375 0.90625 2.453125q0.8125 0.84375 2.015625 0.84375q0.90625 0 1.546875 -0.46875q0.640625 -0.484375 1.015625 -1.515625zm-5.390625 -2.65625l5.40625 0q-0.109375 -1.21875 -0.625 -1.828125q-0.78125 -0.953125 -2.03125 -0.953125q-1.125 0 -1.90625 0.765625q-0.765625 0.75 -0.84375 2.015625zm9.125717 5.765625l0 -9.671875l1.46875 0l0 1.46875q0.5625 -1.03125 1.03125 -1.359375q0.484375 -0.328125 1.0625 -0.328125q0.828125 0 1.6875 0.53125l-0.5625 1.515625q-0.609375 -0.359375 -1.203125 -0.359375q-0.546875 0 -0.96875 0.328125q-0.421875 0.328125 -0.609375 0.890625q-0.28125 0.875 -0.28125 1.921875l0 5.0625l-1.625 0zm5.587677 -4.015625l0 -1.640625l5.03125 0l0 1.640625l-5.03125 0zm12.572052 4.015625l-1.640625 0l0 -10.453125q-0.59375 0.5625 -1.5625 1.140625q-0.953125 0.5625 -1.71875 0.84375l0 -1.59375q1.375 -0.640625 2.40625 -1.5625q1.03125 -0.921875 1.453125 -1.78125l1.0625 0l0 13.40625z" fill-rule="nonzero"/><path fill="#000000" fill-opacity="0.0" d="m350.71652 295.38583l126.99213 0l0 42.015747l-126.99213 0z" fill-rule="evenodd"/><path fill="#000000" d="m376.44098 317.61832l1.765625 0.453125q-0.5625 2.171875 -2.0 3.328125q-1.4375 1.140625 -3.53125 1.140625q-2.15625 0 -3.515625 -0.875q-1.34375 -0.890625 -2.0625 -2.546875q-0.703125 -1.671875 -0.703125 -3.59375q0 -2.078125 0.796875 -3.625q0.796875 -1.5625 2.265625 -2.359375q1.484375 -0.8125 3.25 -0.8125q2.0 0 3.359375 1.015625q1.375 1.015625 1.90625 2.875l-1.734375 0.40625q-0.46875 -1.453125 -1.359375 -2.109375q-0.875 -0.671875 -2.203125 -0.671875q-1.546875 0 -2.578125 0.734375q-1.03125 0.734375 -1.453125 1.984375q-0.421875 1.234375 -0.421875 2.5625q0 1.703125 0.5 2.96875q0.5 1.265625 1.546875 1.90625q1.046875 0.625 2.265625 0.625q1.484375 0 2.515625 -0.859375q1.03125 -0.859375 1.390625 -2.546875zm3.1292114 -0.15625q0 -2.6875 1.484375 -3.96875q1.25 -1.078125 3.046875 -1.078125q2.0 0 3.265625 1.3125q1.265625 1.296875 1.265625 3.609375q0 1.859375 -0.5625 2.9375q-0.5625 1.0625 -1.640625 1.65625q-1.0625 0.59375 -2.328125 0.59375q-2.03125 0 -3.28125 -1.296875q-1.25 -1.3125 -1.25 -3.765625zm1.6875 0q0 1.859375 0.796875 2.796875q0.8125 0.921875 2.046875 0.921875q1.21875 0 2.03125 -0.921875q0.8125 -0.9375 0.8125 -2.84375q0 -1.796875 -0.8125 -2.71875q-0.8125 -0.921875 -2.03125 -0.921875q-1.234375 0 -2.046875 0.921875q-0.796875 0.90625 -0.796875 2.765625zm9.297577 4.84375l0 -9.671875l1.46875 0l0 1.375q1.0625 -1.59375 3.078125 -1.59375q0.875 0 1.609375 0.3125q0.734375 0.3125 1.09375 0.828125q0.375 0.5 0.515625 1.203125q0.09375 0.453125 0.09375 1.59375l0 5.953125l-1.640625 0l0 -5.890625q0 -1.0 -0.203125 -1.484375q-0.1875 -0.5 -0.671875 -0.796875q-0.484375 -0.296875 -1.140625 -0.296875q-1.046875 0 -1.8125 0.671875q-0.75 0.65625 -0.75 2.515625l0 5.28125l-1.640625 0zm13.953857 -1.46875l0.234375 1.453125q-0.6875 0.140625 -1.234375 0.140625q-0.890625 0 -1.390625 -0.28125q-0.484375 -0.28125 -0.6875 -0.734375q-0.203125 -0.46875 -0.203125 -1.9375l0 -5.578125l-1.203125 0l0 -1.265625l1.203125 0l0 -2.390625l1.625 -0.984375l0 3.375l1.65625 0l0 1.265625l-1.65625 0l0 5.671875q0 0.6875 0.078125 0.890625q0.09375 0.203125 0.28125 0.328125q0.203125 0.109375 0.578125 0.109375q0.265625 0 0.71875 -0.0625zm7.9176636 0.28125q-0.921875 0.765625 -1.765625 1.09375q-0.828125 0.3125 -1.796875 0.3125q-1.59375 0 -2.453125 -0.78125q-0.859375 -0.78125 -0.859375 -1.984375q0 -0.71875 0.328125 -1.296875q0.328125 -0.59375 0.84375 -0.9375q0.53125 -0.359375 1.1875 -0.546875q0.46875 -0.125 1.453125 -0.25q1.984375 -0.234375 2.921875 -0.5625q0.015625 -0.34375 0.015625 -0.421875q0 -1.0 -0.46875 -1.421875q-0.625 -0.546875 -1.875 -0.546875q-1.15625 0 -1.703125 0.40625q-0.546875 0.40625 -0.8125 1.421875l-1.609375 -0.21875q0.21875 -1.015625 0.71875 -1.640625q0.5 -0.640625 1.453125 -0.984375q0.953125 -0.34375 2.1875 -0.34375q1.25 0 2.015625 0.296875q0.78125 0.28125 1.140625 0.734375q0.375 0.4375 0.515625 1.109375q0.078125 0.421875 0.078125 1.515625l0 2.1875q0 2.28125 0.109375 2.890625q0.109375 0.59375 0.40625 1.15625l-1.703125 0q-0.265625 -0.515625 -0.328125 -1.1875zm-0.140625 -3.671875q-0.890625 0.375 -2.671875 0.625q-1.015625 0.140625 -1.4375 0.328125q-0.421875 0.1875 -0.65625 0.53125q-0.21875 0.34375 -0.21875 0.78125q0 0.65625 0.5 1.09375q0.5 0.4375 1.453125 0.4375q0.9375 0 1.671875 -0.40625q0.75 -0.421875 1.09375 -1.140625q0.265625 -0.5625 0.265625 -1.640625l0 -0.609375zm4.2038574 -6.609375l0 -1.890625l1.640625 0l0 1.890625l-1.640625 0zm0 11.46875l0 -9.671875l1.640625 0l0 9.671875l-1.640625 0zm4.144806 0l0 -9.671875l1.46875 0l0 1.375q1.0625 -1.59375 3.078125 -1.59375q0.875 0 1.609375 0.3125q0.734375 0.3125 1.09375 0.828125q0.375 0.5 0.515625 1.203125q0.09375 0.453125 0.09375 1.59375l0 5.953125l-1.640625 0l0 -5.890625q0 -1.0 -0.203125 -1.484375q-0.1875 -0.5 -0.671875 -0.796875q-0.484375 -0.296875 -1.140625 -0.296875q-1.046875 0 -1.8125 0.671875q-0.75 0.65625 -0.75 2.515625l0 5.28125l-1.640625 0zm17.000732 -3.109375l1.6875 0.203125q-0.40625 1.484375 -1.484375 2.3125q-1.078125 0.8125 -2.765625 0.8125q-2.125 0 -3.375 -1.296875q-1.234375 -1.3125 -1.234375 -3.671875q0 -2.453125 1.25 -3.796875q1.265625 -1.34375 3.265625 -1.34375q1.9375 0 3.15625 1.328125q1.234375 1.3125 1.234375 3.703125q0 0.15625 0 0.4375l-7.21875 0q0.09375 1.59375 0.90625 2.453125q0.8125 0.84375 2.015625 0.84375q0.90625 0 1.546875 -0.46875q0.640625 -0.484375 1.015625 -1.515625zm-5.390625 -2.65625l5.40625 0q-0.109375 -1.21875 -0.625 -1.828125q-0.78125 -0.953125 -2.03125 -0.953125q-1.125 0 -1.90625 0.765625q-0.765625 0.75 -0.84375 2.015625zm9.125702 5.765625l0 -9.671875l1.46875 0l0 1.46875q0.5625 -1.03125 1.03125 -1.359375q0.484375 -0.328125 1.0625 -0.328125q0.828125 0 1.6875 0.53125l-0.5625 1.515625q-0.609375 -0.359375 -1.203125 -0.359375q-0.546875 0 -0.96875 0.328125q-0.421875 0.328125 -0.609375 0.890625q-0.28125 0.875 -0.28125 1.921875l0 5.0625l-1.625 0zm5.587677 -4.015625l0 -1.640625l5.03125 0l0 1.640625l-5.03125 0zm15.009552 2.4375l0 1.578125l-8.828125 0q-0.015625 -0.59375 0.1875 -1.140625q0.34375 -0.90625 1.078125 -1.78125q0.75 -0.875 2.15625 -2.015625q2.171875 -1.78125 2.9375 -2.828125q0.765625 -1.046875 0.765625 -1.96875q0 -0.984375 -0.703125 -1.640625q-0.6875 -0.671875 -1.8125 -0.671875q-1.1875 0 -1.90625 0.71875q-0.703125 0.703125 -0.703125 1.953125l-1.6875 -0.171875q0.171875 -1.890625 1.296875 -2.875q1.140625 -0.984375 3.03125 -0.984375q1.921875 0 3.046875 1.0625q1.125 1.0625 1.125 2.640625q0 0.796875 -0.328125 1.578125q-0.328125 0.78125 -1.09375 1.640625q-0.75 0.84375 -2.53125 2.34375q-1.46875 1.234375 -1.890625 1.6875q-0.421875 0.4375 -0.6875 0.875l6.546875 0z" fill-rule="nonzero"/><path fill="#000000" fill-opacity="0.0" d="m453.3831 200.55118l0 78.20474" fill-rule="evenodd"/><path stroke="#000000" stroke-width="1.0" stroke-linejoin="round" stroke-linecap="butt" d="m453.38312 200.55118l0 72.20474" fill-rule="evenodd"/><path fill="#000000" stroke="#000000" stroke-width="1.0" stroke-linecap="butt" d="m451.73138 272.75592l1.6517334 4.538086l1.6517334 -4.538086z" fill-rule="evenodd"/><path fill="#000000" fill-opacity="0.0" d="m162.91864 181.28609l0.28346252 106.708664" fill-rule="evenodd"/><path stroke="#000000" stroke-width="3.0" stroke-linejoin="round" stroke-linecap="butt" d="m162.91864 181.28609l0.23564148 88.708725" fill-rule="evenodd"/><path fill="#000000" stroke="#000000" stroke-width="3.0" stroke-linecap="butt" d="m158.1991 270.00797l4.9913483 13.601105l4.9190216 -13.627411z" fill-rule="evenodd"/><path fill="#000000" fill-opacity="0.0" d="m33.125984 340.72964l86.01575 0l0 42.015747l-86.01575 0z" fill-rule="evenodd"/><path fill="#000000" d="m43.51661 367.64966l0 -13.359375l2.625 0l5.453125 8.921875l0 -8.921875l2.515625 0l0 13.359375l-2.703125 0l-5.390625 -8.703125l0 8.703125l-2.5 0zm12.832321 -4.96875q0 -1.28125 0.625 -2.46875q0.625 -1.203125 1.78125 -1.828125q1.15625 -0.625 2.578125 -0.625q2.1875 0 3.59375 1.421875q1.40625 1.421875 1.40625 3.609375q0 2.1875 -1.421875 3.640625q-1.421875 1.4375 -3.5625 1.4375q-1.328125 0 -2.546875 -0.59375q-1.203125 -0.609375 -1.828125 -1.765625q-0.625 -1.171875 -0.625 -2.828125zm2.625 0.125q0 1.453125 0.671875 2.21875q0.6875 0.75 1.6875 0.75q1.0 0 1.671875 -0.75q0.6875 -0.765625 0.6875 -2.234375q0 -1.421875 -0.6875 -2.1875q-0.671875 -0.765625 -1.671875 -0.765625q-1.0 0 -1.6875 0.765625q-0.671875 0.765625 -0.671875 2.203125zm18.23973 4.84375l-2.390625 0l0 -1.421875q-0.59375 0.828125 -1.40625 1.234375q-0.796875 0.40625 -1.609375 0.40625q-1.671875 0 -2.859375 -1.34375q-1.1875 -1.34375 -1.1875 -3.75q0 -2.453125 1.15625 -3.734375q1.15625 -1.28125 2.921875 -1.28125q1.625 0 2.8125 1.34375l0 -4.8125l2.5625 0l0 13.359375zm-6.84375 -5.046875q0 1.546875 0.4375 2.234375q0.609375 1.015625 1.71875 1.015625q0.890625 0 1.5 -0.75q0.625 -0.765625 0.625 -2.25q0 -1.671875 -0.609375 -2.40625q-0.59375 -0.734375 -1.53125 -0.734375q-0.90625 0 -1.53125 0.734375q-0.609375 0.71875 -0.609375 2.15625zm14.958481 1.96875l2.546875 0.421875q-0.484375 1.40625 -1.546875 2.140625q-1.0625 0.734375 -2.65625 0.734375q-2.515625 0 -3.734375 -1.65625q-0.953125 -1.3125 -0.953125 -3.328125q0 -2.40625 1.25 -3.765625q1.265625 -1.359375 3.1875 -1.359375q2.15625 0 3.40625 1.421875q1.25 1.421875 1.1875 4.375l-6.40625 0q0.03125 1.140625 0.609375 1.78125q0.59375 0.625 1.484375 0.625q0.59375 0 1.0 -0.328125q0.421875 -0.328125 0.625 -1.0625zm0.15625 -2.59375q-0.03125 -1.109375 -0.578125 -1.6875q-0.546875 -0.578125 -1.328125 -0.578125q-0.84375 0 -1.390625 0.609375q-0.546875 0.609375 -0.53125 1.65625l3.828125 0z" fill-rule="nonzero"/><path fill="#000000" fill-opacity="0.0" d="m28.11811 20.56168l188.62991 0l0 42.015747l-188.62991 0z" fill-rule="evenodd"/><path fill="#000000" d="m50.93061 44.653553q-2.375 -2.59375 -4.3125 -4.296875q-0.96875 3.046875 -4.15625 5.125l-1.03125 -1.484375q4.15625 -2.453125 4.15625 -7.359375l-4.609375 0l0 11.953125l-1.703125 0l0 -13.359375l6.375 0l0 -2.59375l1.640625 0q0.734375 0.140625 0.078125 0.59375l0 2.0l6.671875 0l0 11.734375q0 1.484375 -1.40625 1.484375l-1.78125 0l-0.296875 -1.640625l1.484375 0q0.296875 0 0.296875 -0.296875l0 -9.875l-5.046875 0q0 1.125 -0.21875 2.234375q2.890625 1.921875 4.96875 4.15625l-1.109375 1.625zm21.8125 4.3125q-1.78125 -2.078125 -2.96875 -3.046875q-2.8125 2.3125 -6.015625 3.265625l-0.65625 -1.484375q5.703125 -1.484375 9.046875 -7.203125l1.1875 0.828125q0.296875 0.296875 -0.21875 0.359375q-0.8125 1.5625 -2.296875 3.125q2.140625 1.484375 3.1875 2.59375l-1.265625 1.5625zm-0.671875 -10.84375q0.296875 0.234375 -0.296875 0.375q-2.515625 4.453125 -6.828125 6.6875l-0.734375 -1.484375q1.859375 -0.890625 2.96875 -1.859375q-1.109375 -1.1875 -2.75 -2.375l0.890625 -1.1875l0.671875 0.4375q0.96875 -1.328125 1.5625 -2.375l-3.34375 0l0 -1.40625l3.640625 0l0 -2.671875l1.40625 0q0.59375 0.078125 0.078125 0.453125l0 2.21875l4.296875 0l0 1.40625l-4.234375 0q-1.109375 1.78125 -2.375 3.265625q0.59375 0.375 1.34375 1.125q1.328125 -1.34375 2.453125 -3.421875l1.25 0.8125zm-10.453125 11.0l-1.484375 0l0 -7.734375q-0.75 2.15625 -2.234375 3.796875l-0.890625 -1.484375q2.375 -2.671875 3.125 -6.390625l-2.609375 0l0 -1.40625l2.609375 0l0 -3.71875l1.40625 0q0.59375 0.078125 0.078125 0.453125l0 3.265625l1.921875 0l0 1.40625l-1.921875 0l0 2.296875q1.546875 0.75 2.671875 1.78125l-0.828125 1.5625q-0.953125 -1.109375 -1.84375 -1.703125l0 7.875zm20.546875 -6.765625q-0.890625 2.296875 -2.671875 4.3125l-0.8125 -1.125q1.703125 -2.078125 2.59375 -4.375q-1.109375 -1.625 -2.296875 -3.1875l0.75 -0.75q1.03125 1.1875 1.84375 2.3125q0.296875 -1.78125 0.453125 -3.640625l1.265625 0.296875q0.59375 0.21875 -0.078125 0.4375q-0.21875 1.78125 -0.59375 4.09375q1.03125 1.40625 1.921875 2.734375l-0.734375 1.265625q-0.8125 -1.1875 -1.640625 -2.375zm-3.859375 -7.5625l0 13.734375l-1.484375 0l0 -15.15625l15.375 0l0 13.8125q0 1.1875 -1.125 1.1875l-1.84375 0l-0.296875 -1.40625l1.546875 0q0.234375 0 0.234375 -0.234375l0 -11.9375l-12.40625 0zm8.765625 5.1875q0.4375 -2.21875 0.59375 -4.15625l1.1875 0.15625q0.734375 0.21875 0 0.515625q-0.21875 2.078125 -0.8125 4.59375q1.109375 1.5625 1.921875 2.96875l-0.734375 1.1875q-0.890625 -1.484375 -1.71875 -2.734375q-1.109375 2.890625 -2.59375 4.453125l-0.8125 -1.1875q1.484375 -1.5625 2.453125 -4.390625q-1.125 -1.78125 -2.234375 -3.109375l0.75 -0.8125q0.890625 1.03125 2.0 2.515625z" fill-rule="nonzero"/><path fill="#000000" d="m101.11811 38.450428q0.796875 -0.875 1.296875 -1.75q0.515625 -0.875 0.984375 -1.9375q0.484375 -1.0625 0.78125 -2.4375q0.796875 0.359375 1.75 0.515625q-0.4375 0.640625 -0.953125 1.671875l5.90625 0q-1.09375 2.1875 -1.828125 3.28125q-0.734375 1.09375 -1.53125 1.96875q0.953125 0.65625 2.265625 1.09375q1.3125 0.4375 2.40625 0.65625q-0.375 0.578125 -0.734375 1.515625q-0.734375 -0.21875 -1.3125 -0.421875q-0.140625 1.015625 -0.140625 1.890625l0 2.625q0 1.09375 0.0625 2.25l-1.375 0l0 -1.375l-4.375 0l0 1.53125l-1.390625 0q0.078125 -1.09375 0.078125 -2.046875l0 -2.921875q0 -0.578125 -0.078125 -1.953125q-0.4375 0.203125 -1.234375 0.5q-0.296875 -0.796875 -0.796875 -1.375q1.09375 -0.296875 2.4375 -0.84375q1.34375 -0.546875 2.15625 -1.203125q-0.953125 -1.234375 -1.609375 -2.765625q-0.796875 1.234375 -1.609375 2.328125q-0.4375 -0.4375 -1.15625 -0.796875zm-1.6875 -4.75q-0.5 0.65625 -1.15625 2.015625q-0.65625 1.34375 -1.53125 2.875l2.046875 0q0.796875 -1.53125 1.15625 -2.703125q0.734375 0.59375 1.453125 0.953125q-0.4375 0.515625 -1.3125 2.078125q-0.875 1.5625 -2.390625 4.109375q2.171875 -0.359375 3.125 -0.5q-0.078125 0.9375 0 1.375q-1.75 0.21875 -2.703125 0.40625q-0.9375 0.1875 -2.171875 0.46875q-0.21875 -0.796875 -0.515625 -1.375q0.734375 -0.296875 1.421875 -1.3125q0.6875 -1.015625 1.421875 -2.484375q-1.96875 0.078125 -2.984375 0.515625q-0.21875 -0.65625 -0.515625 -1.453125q0.875 -0.4375 1.75 -2.21875q0.875 -1.796875 1.3125 -3.546875q0.796875 0.515625 1.59375 0.796875zm9.265625 13.125l0 -3.140625l-4.375 0l0 3.140625l4.375 0zm-7.65625 -1.390625q0.140625 0.734375 0.140625 1.3125q-0.796875 0.15625 -2.296875 0.671875q-1.484375 0.5 -2.875 1.078125q-0.28125 -0.875 -0.65625 -1.59375q1.828125 -0.375 3.03125 -0.65625q1.203125 -0.296875 2.65625 -0.8125zm5.546875 -6.625q0.4375 -0.4375 1.046875 -1.3125q0.625 -0.875 1.0625 -1.828125l-3.9375 0q0.734375 1.828125 1.828125 3.140625zm3.484375 3.71875q-1.015625 -0.4375 -1.921875 -0.875q-0.90625 -0.4375 -1.71875 -1.015625q-0.875 0.578125 -1.640625 1.015625q-0.765625 0.4375 -1.703125 0.875l6.984375 0z" fill-rule="nonzero"/><path fill="#000000" d="m121.383736 34.419178q-3.1875 0.140625 -6.234375 0.140625l-0.375 -1.328125q7.359375 -0.078125 13.0625 -1.046875l1.0468674 1.421875q0.140625 0.359375 -0.515625 0.140625q-2.9687424 0.375 -6.2343674 0.59375l0.890625 0.59375q0.515625 0.375 -0.375 0.453125q-1.859375 2.078125 -2.890625 3.109375l1.703125 1.046875q2.296875 -2.078125 3.859375 -3.859375l1.40625 1.03125q0.515625 0.375 -0.375 0.375q-2.375 2.078125 -4.96875 4.15625l5.421875 -0.296875q-0.75 -0.75 -1.40625 -1.1875l1.109375 -1.046875q2.4531174 1.640625 3.9999924 3.796875l-1.40625 1.25q-0.8125 -1.25 -1.2656174 -1.625l-4.8125 0.375l0 6.609375l-1.484375 0l0 -6.46875l-6.234375 0.375q-0.078125 0.515625 -0.375 0.21875l-0.515625 -1.859375l4.75 -0.0625l0.953125 -0.671875q-1.84375 -1.34375 -3.859375 -2.375l0.96875 -1.1875l1.34375 0.671875q0.8125 -0.75 2.8125 -3.34375zm8.171867 14.03125q-2.9062424 -1.265625 -4.9843674 -3.796875l1.421875 -1.109375q1.625 2.0 4.5156174 3.265625l-0.953125 1.640625zm-9.499992 -3.9375q0.59375 0.375 -0.234375 0.4375q-1.703125 2.234375 -4.21875 3.796875l-1.125 -1.5625q2.53125 -1.5625 4.09375 -3.5625l1.484375 0.890625z" fill-rule="nonzero"/><path fill="#000000" d="m146.78998 34.950428q1.09375 0 2.328125 -0.078125l0 1.3125q-1.171875 -0.078125 -2.265625 -0.078125l-4.078125 0q0.59375 0.4375 1.390625 0.875q-0.578125 0.4375 -1.203125 1.28125q-0.625 0.84375 -1.78125 2.296875q1.671875 0 5.234375 -0.359375q-0.28125 -0.375 -1.15625 -1.390625q0.65625 -0.359375 1.15625 -0.796875q1.25 1.3125 2.703125 3.34375q-0.734375 0.4375 -1.234375 0.953125q-0.4375 -0.578125 -0.734375 -1.015625q-1.015625 0.0625 -1.3125 0.140625l0 5.46875q0 0.875 0.734375 0.875l0.71875 0q0.65625 0 0.875 -1.96875q0.65625 0.5 1.53125 0.71875q-0.65625 2.484375 -1.8125 2.484375l-1.96875 0q-1.453125 0 -1.453125 -1.53125l0 -5.90625q-1.03125 0.078125 -1.390625 0.15625q0.078125 2.6875 -0.6875 4.40625q-0.765625 1.703125 -2.953125 3.390625q-0.375 -0.59375 -1.3125 -0.953125q1.15625 -0.734375 1.953125 -1.609375q0.8125 -0.875 1.25 -1.96875q0.4375 -1.09375 0.359375 -3.125q-1.09375 0.078125 -1.96875 0.296875q-0.21875 -1.09375 -0.578125 -1.90625q0.875 -0.0625 1.921875 -1.453125q1.0625 -1.390625 1.4375 -2.703125l-1.171875 0q-0.953125 0 -2.328125 0.078125l0 -1.3125q1.15625 0.078125 2.25 0.078125l5.546875 0zm-9.546875 -1.53125q-0.515625 0.65625 -1.09375 1.671875q-0.578125 1.015625 -1.75 2.921875q1.390625 -0.078125 2.1875 -0.078125q0.578125 -1.015625 0.9375 -2.046875q0.8125 0.515625 1.6875 0.875q-0.515625 0.515625 -1.390625 1.875q-0.875 1.34375 -2.46875 3.8125q2.109375 -0.21875 3.703125 -0.5q-0.359375 0.859375 -0.359375 1.375q-0.65625 0.078125 -2.296875 0.296875q-1.640625 0.21875 -2.875 0.578125q-0.21875 -0.734375 -0.515625 -1.453125q0.8125 -0.21875 1.53125 -1.3125q0.734375 -1.09375 1.46875 -2.40625q-0.65625 0.078125 -1.53125 0.1875q-0.875 0.109375 -1.46875 0.25q-0.28125 -0.734375 -0.65625 -1.390625q0.875 -0.21875 1.9375 -2.328125q1.0625 -2.109375 1.203125 -3.0625q0.875 0.4375 1.75 0.734375zm1.96875 11.65625q-0.078125 0.734375 0 1.390625q-1.6875 0.4375 -3.328125 0.90625q-1.625 0.46875 -2.5 0.84375q-0.296875 -0.734375 -0.8125 -1.53125q1.828125 -0.296875 3.421875 -0.65625q1.609375 -0.375 3.21875 -0.953125zm4.515625 -12.96875q0.796875 1.3125 1.171875 2.03125q-0.515625 0.21875 -1.390625 0.65625q-0.578125 -1.375 -1.09375 -2.109375q0.875 -0.28125 1.3125 -0.578125z" fill-rule="nonzero"/><path fill="#000000" fill-opacity="0.0" d="m397.46457 41.181103l120.22049 0l0 38.771656l-120.22049 0z" fill-rule="evenodd"/><path fill="#999999" d="m423.5123 61.228603q-0.75 1.9375 -2.25 3.6249962l-0.6875 -0.9374962q1.4375 -1.75 2.1875 -3.6875q-0.9375 -1.375 -1.9375 -2.6875l0.625 -0.625q0.875 1.0 1.5625 1.9375q0.25 -1.5 0.375 -3.0625l1.0625 0.25q0.5 0.1875 -0.0625 0.375q-0.1875 1.5 -0.5 3.4375q0.875 1.1875 1.625 2.3125l-0.625 1.0625q-0.6875 -1.0 -1.375 -2.0zm-3.25 -6.375l0 11.562496l-1.25 0l0 -12.749996l12.9375 0l0 11.624996q0 1.0 -0.9375 1.0l-1.5625 0l-0.25 -1.1875l1.3125 0q0.1875 0 0.1875 -0.1875l0 -10.062496l-10.4375 0zm7.375 4.375q0.375 -1.875 0.5 -3.5l1.0 0.125q0.625 0.1875 0 0.4375q-0.1875 1.75 -0.6875 3.875q0.9375 1.3125 1.625 2.5l-0.625 1.0q-0.75 -1.25 -1.4375 -2.3125q-0.9375 2.4375 -2.1875 3.7499962l-0.6875 -1.0q1.25 -1.3124962 2.0625 -3.6874962q-0.9375 -1.5 -1.875 -2.625l0.625 -0.6875q0.75 0.875 1.6875 2.125z" fill-rule="nonzero"/><path fill="#999999" d="m439.5748 57.791103q0.6875 -0.75 1.125 -1.5q0.4375 -0.75 0.84375 -1.65625q0.40625 -0.90625 0.65625 -2.09375q0.6875 0.3125 1.5 0.4375q-0.375 0.5625 -0.8125 1.4375l5.0625 0q-0.9375 1.875 -1.5625 2.8125q-0.625 0.9375 -1.3125 1.6875q0.8125 0.5625 1.9375 0.9375q1.125 0.375 2.0625 0.5625q-0.3125 0.5 -0.625 1.3125q-0.625 -0.1875 -1.125 -0.375q-0.125 0.875 -0.125 1.625l0 2.2499962q0 0.9375 0.0625 1.9375l-1.1875 0l0 -1.1875l-3.75 0l0 1.3125l-1.1875 0q0.0625 -0.9375 0.0625 -1.75l0 -2.4999962q0 -0.5 -0.0625 -1.6875q-0.375 0.1875 -1.0625 0.4375q-0.25 -0.6875 -0.6875 -1.1875q0.9375 -0.25 2.09375 -0.71875q1.15625 -0.46875 1.84375 -1.03125q-0.8125 -1.0625 -1.375 -2.375q-0.6875 1.0625 -1.375 2.0q-0.375 -0.375 -1.0 -0.6875zm-1.4375 -4.0625q-0.4375 0.5625 -1.0 1.71875q-0.5625 1.15625 -1.3125 2.46875l1.75 0q0.6875 -1.3125 1.0 -2.3125q0.625 0.5 1.25 0.8125q-0.375 0.4375 -1.125 1.78125q-0.75 1.34375 -2.0625 3.53125q1.875 -0.3125 2.6875 -0.4375q-0.0625 0.8125 0 1.1875q-1.5 0.1875 -2.3125 0.34375q-0.8125 0.15625 -1.875 0.40625q-0.1875 -0.6875 -0.4375 -1.1875q0.625 -0.25 1.21875 -1.125q0.59375 -0.875 1.21875 -2.125q-1.6875 0.0625 -2.5625 0.4375q-0.1875 -0.5625 -0.4375 -1.25q0.75 -0.375 1.5 -1.90625q0.75 -1.53125 1.125 -3.03125q0.6875 0.4375 1.375 0.6875zm7.9375 11.249996l0 -2.6874962l-3.75 0l0 2.6874962l3.75 0zm-6.5625 -1.1874962q0.125 0.6249962 0.125 1.1249962q-0.6875 0.125 -1.96875 0.5625q-1.28125 0.4375 -2.46875 0.9375q-0.25 -0.75 -0.5625 -1.375q1.5625 -0.3125 2.59375 -0.5625q1.03125 -0.25 2.28125 -0.6874962zm4.75 -5.6875q0.375 -0.375 0.90625 -1.125q0.53125 -0.75 0.90625 -1.5625l-3.375 0q0.625 1.5625 1.5625 2.6875zm3.0 3.1875q-0.875 -0.375 -1.65625 -0.75q-0.78125 -0.375 -1.46875 -0.875q-0.75 0.5 -1.40625 0.875q-0.65625 0.375 -1.46875 0.75l6.0 0zm15.875 -8.3125q-0.0625 1.3125 -0.0625 2.125q0 0.75 0.0625 1.875l-9.875 0q0 2.75 -0.25 5.0625q-0.25 2.3124962 -1.625 5.124996q-0.5 -0.375 -1.125 -0.6875q0.75 -1.0625 1.125 -2.40625q0.375 -1.3437462 0.5625 -3.1562462q0.1875 -1.8125 0.1875 -3.875q0 -2.125 -0.0625 -4.0625l11.0625 0zm-0.875 8.625q0.9375 0 2.0625 -0.0625l0 1.1875q-1.125 -0.0625 -2.0625 -0.0625l-3.875 0q-1.0625 1.8124962 -2.25 2.9374962q2.125 -0.0625 5.5 -0.1875q-0.5625 -0.625 -1.3125 -1.375q0.5 -0.4374962 0.9375 -0.8124962q1.625 1.5624962 3.0625 3.1874962q-0.4375 0.375 -1.0625 0.875q-0.375 -0.4375 -0.8125 -0.9375q-2.0625 0.0625 -4.34375 0.25q-2.28125 0.1875 -3.15625 0.4375q-0.25 -0.75 -0.5625 -1.375q0.625 -0.1875 1.375 -1.0625q0.75 -0.8749962 1.1875 -1.9374962l-1.3125 0q-0.75 0 -2.0625 0.0625l0 -1.1875q1.3125 0.0625 2.25 0.0625l6.4375 0zm-0.25 -5.6875l0 -1.875l-8.75 0l0 1.875l8.75 0zm-1.25 2.75q1.25 0 2.3125 -0.0625l0 1.1875q-0.8125 -0.0625 -2.1875 -0.0625l-4.0 0q-1.0 0 -2.125 0.0625l0 -1.1875q1.125 0.0625 2.125 0.0625l3.875 0z" fill-rule="nonzero"/><path fill="#999999" d="m472.7623 66.6661q-1.9375 0 -3.5625 -1.5q-0.75 0.875 -2.3125 1.75l-0.5 -1.5625q0.6875 -0.1875 2.125 -1.125l0 -4.062496l-1.9375 0l0 -1.1875l3.1875 0l0 5.187496q1.25 1.125 3.25 1.125l7.75 0l-0.25 1.375l-7.75 0zm0.875 -12.124996q1.5625 0.375 2.0 0.5625l1.1875 -0.875l-5.75 0l0 -1.1875l7.125 0l0.3125 -0.1875l0.9375 0.6875q0.375 0.3125 -0.3125 0.375l-2.4375 1.625l0.8125 0.375l-0.75 0.75l2.8125 0l0 7.125q0 0.8749962 -0.875 0.8749962l-1.375 0l-0.0625 -1.1874962l0.8125 0q0.25 0 0.25 -0.25l0 -1.1875l-2.375 0l0 2.4374962l-1.25 0l0 -2.4374962l-2.25 0l0 2.6874962l-1.25 0l0 -8.062496l4.625 0q-2.625 -1.0625 -3.125 -1.1875l0.9375 -0.9375zm2.3125 3.125l0 1.1875l2.375 0l0 -1.1875l-2.375 0zm-3.5 0l0 1.1875l2.25 0l0 -1.1875l-2.25 0zm2.25 2.1875l-2.25 0l0 1.1875l2.25 0l0 -1.1875zm3.625 0l-2.375 0l0 1.1875l2.375 0l0 -1.1875zm-10.1875 -6.9375q1.6875 1.0625 2.3125 2.0625l-1.0625 1.125q-1.0 -1.25 -2.125 -2.125l0.875 -1.0625zm14.0625 6.75q2.375 -2.8125 2.8125 -6.9375l1.4375 0.375q0.25 0.25 -0.1875 0.375q-0.3125 1.8125 -0.8125 3.25q0.6875 0.0625 0.125 0.4375l0 9.749996l-1.25 0l0 -7.874996q-0.4375 0.875 -1.1875 1.75l-0.9375 -1.125zm12.125 3.5l-5.5625 0l0 1.8124962l5.5625 0l0 -1.8124962zm-6.8125 -1.1875l8.0625 0l0 4.749996l-1.25 0l0 -0.5625l-5.5625 0l0 0.75l-1.25 0l0 -4.937496zm0.375 -1.0625l0 -1.1875l7.0625 0l0 1.1875l-7.0625 0zm0 -2.1875l0 -1.1875l7.0625 0l0 1.1875l-7.0625 0zm-1.4375 -3.3125l10.0625 0l0 1.1875l-10.0625 0l0 -1.1875zm1.4375 -2.25l7.0625 0l0 1.1875l-7.0625 0l0 -1.1875z" fill-rule="nonzero"/><path fill="#000000" fill-opacity="0.0" d="m397.46457 136.0315l120.22049 0l0 38.771652l-120.22049 0z" fill-rule="evenodd"/><path fill="#999999" d="m427.8873 149.3915q0.375 -0.6875 0.625 -2.125l1.5 0.5q-0.375 0.5625 -0.875 1.625l1.75 0q0.9375 0 1.875 -0.0625l0 1.0625q-0.9375 -0.0625 -1.875 -0.0625l-2.0 0q-0.875 2.0625 -1.3125 3.25l1.5 0q0 -0.75 -0.0625 -1.6875l1.25 0q-0.0625 1.25 -0.0625 1.6875l0.625 0q0.75 0 1.625 -0.0625l0 1.0625q-0.875 -0.0625 -1.5625 -0.0625l-0.6875 0l0 2.0625l0.75 0q0.875 0 1.6875 -0.0625l0 1.0625q-0.75 -0.0625 -1.6875 -0.0625l-0.75 0q0 0.9375 0.0625 2.375l-1.25 0q0.0625 -1.4375 0.0625 -2.375l-1.0 0q-0.875 0 -1.75 0.0625l0 -1.0625q0.875 0.0625 1.75 0.0625l1.0 0l0 -2.0625l-0.9375 0q-1.1875 0 -1.6875 0.25q-0.1875 -0.5625 -0.4375 -1.1875q0.5 -0.25 0.9375 -1.25q0.4375 -1.0 0.75 -2.0q-0.4375 0 -1.4375 0.0625l0 -1.0625q0.8125 0.0625 1.625 0.0625zm-6.0625 3.0625q0.4375 0 0.9375 -0.0625l0 1.125q-1.0 -0.0625 -1.375 -0.0625l0 1.75q0.75 0 1.625 -0.0625l0 1.1875q-0.875 -0.125 -1.625 -0.125l0 3.0625q1.25 -1.0 1.6875 -1.5q0.125 0.5625 0.5 1.125q-0.625 0.375 -1.375 1.03125q-0.75 0.65625 -1.5625 1.46875q-0.375 -0.4375 -0.875 -0.875q0.4375 -0.4375 0.5625 -1.5625l0 -2.75q-0.8125 0 -1.8125 0.0625l0 -1.125q1.0 0.0625 1.8125 0.0625l0 -1.75q-0.375 0 -0.9375 0.0625l0 -1.0l-0.5 0.625q-0.3125 -0.4375 -0.8125 -0.9375q0.9375 -0.9375 1.46875 -2.125q0.53125 -1.1875 0.84375 -2.5625q1.0 0.4375 1.5625 0.5625q-0.4375 0.375 -0.65625 0.875q-0.21875 0.5 -0.46875 0.9375q1.0625 0 2.25 -0.0625l0 1.125q-1.3125 -0.0625 -2.625 -0.0625q-0.375 0.625 -0.9375 1.4375q0.4375 0 0.875 0.125l1.4375 0zm1.5625 0.5q0.5625 0.0625 1.0625 0.0625l1.1875 0q-0.125 1.0 -0.125 1.75l0 4.25q0.5 0.5 1.46875 0.8125q0.96875 0.3125 2.09375 0.40625q1.125 0.09375 4.0 -0.15625q-0.4375 0.6875 -0.5625 1.4375q-2.0625 0 -3.28125 -0.125q-1.21875 -0.125 -1.90625 -0.3125q-0.6875 -0.1875 -1.5625 -0.78125q-0.875 -0.59375 -1.34375 -0.09375q-0.46875 0.5 -0.96875 1.0625q-0.4375 -0.6875 -0.875 -1.125q1.25 -0.8125 1.875 -1.125l0 -5.0l-0.25 0q-0.3125 0 -0.8125 0.125l0 -1.1875zm1.375 -4.6875q0.5 1.0625 0.875 2.5q-0.5625 0.1875 -1.125 0.5q-0.375 -1.4375 -0.875 -2.625q0.4375 -0.1875 1.125 -0.375z" fill-rule="nonzero"/><path fill="#999999" d="m446.2623 159.829l0 -2.8125l-3.125 0l0 2.8125l3.125 0zm1.25 1.6875l-1.25 0l0 -0.6875l-3.125 0l0 0.875l-1.25 0l0 -5.6875l5.625 0l0 5.5zm-4.4375 -11.625q0.3125 0.875 1.5625 2.25q1.125 -1.5 1.4375 -2.25l-3.0 0zm1.5625 4.0q-2.1875 2.0 -4.0625 2.6875l-0.5625 -1.25q1.75 -0.5625 3.8125 -2.375q-0.5 -0.5 -1.3125 -1.8125q-0.625 1.4375 -1.25 2.0625l-0.9375 -0.9375q1.5 -2.0 2.3125 -5.0l1.3125 0.375q0.25 0.25 -0.1875 0.3125l-0.3125 0.75l3.1875 0l0.1875 -0.3125l1.0 0.8125q0.25 0.1875 -0.25 0.375q-0.875 2.0 -2.0625 3.375q2.125 1.625 3.625 2.125l-0.5 1.375q-1.5 -0.5 -4.0 -2.5625zm-4.5625 -5.625l0 4.625l-1.5625 0l0 2.3125l1.4375 0l0 1.1875l-1.4375 0l0 2.875l2.1875 -0.6875l0.25 1.125l-5.75 1.625q-0.0625 0.5 -0.3125 0.25l-0.5 -1.375l0.75 -0.125l0 -5.8125l1.1875 0q0.5 0.0625 0.0625 0.375l0 5.125l0.875 -0.1875l0 -6.6875l-1.125 0l-1.0625 0l0 -4.625l5.0 0zm-1.25 3.625l0 -2.625l-2.5 0l0 2.625l2.5 0z" fill-rule="nonzero"/><path fill="#999999" d="m463.1373 147.829q-0.0625 1.3125 -0.0625 2.125q0 0.75 0.0625 1.875l-9.875 0q0 2.75 -0.25 5.0625q-0.25 2.3125 -1.625 5.125q-0.5 -0.375 -1.125 -0.6875q0.75 -1.0625 1.125 -2.40625q0.375 -1.34375 0.5625 -3.15625q0.1875 -1.8125 0.1875 -3.875q0 -2.125 -0.0625 -4.0625l11.0625 0zm-0.875 8.625q0.9375 0 2.0625 -0.0625l0 1.1875q-1.125 -0.0625 -2.0625 -0.0625l-3.875 0q-1.0625 1.8125 -2.25 2.9375q2.125 -0.0625 5.5 -0.1875q-0.5625 -0.625 -1.3125 -1.375q0.5 -0.4375 0.9375 -0.8125q1.625 1.5625 3.0625 3.1875q-0.4375 0.375 -1.0625 0.875q-0.375 -0.4375 -0.8125 -0.9375q-2.0625 0.0625 -4.34375 0.25q-2.28125 0.1875 -3.15625 0.4375q-0.25 -0.75 -0.5625 -1.375q0.625 -0.1875 1.375 -1.0625q0.75 -0.875 1.1875 -1.9375l-1.3125 0q-0.75 0 -2.0625 0.0625l0 -1.1875q1.3125 0.0625 2.25 0.0625l6.4375 0zm-0.25 -5.6875l0 -1.875l-8.75 0l0 1.875l8.75 0zm-1.25 2.75q1.25 0 2.3125 -0.0625l0 1.1875q-0.8125 -0.0625 -2.1875 -0.0625l-4.0 0q-1.0 0 -2.125 0.0625l0 -1.1875q1.125 0.0625 2.125 0.0625l3.875 0z" fill-rule="nonzero"/><path fill="#999999" d="m472.7623 161.5165q-1.9375 0 -3.5625 -1.5q-0.75 0.875 -2.3125 1.75l-0.5 -1.5625q0.6875 -0.1875 2.125 -1.125l0 -4.0625l-1.9375 0l0 -1.1875l3.1875 0l0 5.1875q1.25 1.125 3.25 1.125l7.75 0l-0.25 1.375l-7.75 0zm0.875 -12.125q1.5625 0.375 2.0 0.5625l1.1875 -0.875l-5.75 0l0 -1.1875l7.125 0l0.3125 -0.1875l0.9375 0.6875q0.375 0.3125 -0.3125 0.375l-2.4375 1.625l0.8125 0.375l-0.75 0.75l2.8125 0l0 7.125q0 0.875 -0.875 0.875l-1.375 0l-0.0625 -1.1875l0.8125 0q0.25 0 0.25 -0.25l0 -1.1875l-2.375 0l0 2.4375l-1.25 0l0 -2.4375l-2.25 0l0 2.6875l-1.25 0l0 -8.0625l4.625 0q-2.625 -1.0625 -3.125 -1.1875l0.9375 -0.9375zm2.3125 3.125l0 1.1875l2.375 0l0 -1.1875l-2.375 0zm-3.5 0l0 1.1875l2.25 0l0 -1.1875l-2.25 0zm2.25 2.1875l-2.25 0l0 1.1875l2.25 0l0 -1.1875zm3.625 0l-2.375 0l0 1.1875l2.375 0l0 -1.1875zm-10.1875 -6.9375q1.6875 1.0625 2.3125 2.0625l-1.0625 1.125q-1.0 -1.25 -2.125 -2.125l0.875 -1.0625zm14.0625 6.75q2.375 -2.8125 2.8125 -6.9375l1.4375 0.375q0.25 0.25 -0.1875 0.375q-0.3125 1.8125 -0.8125 3.25q0.6875 0.0625 0.125 0.4375l0 9.75l-1.25 0l0 -7.875q-0.4375 0.875 -1.1875 1.75l-0.9375 -1.125zm12.125 3.5l-5.5625 0l0 1.8125l5.5625 0l0 -1.8125zm-6.8125 -1.1875l8.0625 0l0 4.75l-1.25 0l0 -0.5625l-5.5625 0l0 0.75l-1.25 0l0 -4.9375zm0.375 -1.0625l0 -1.1875l7.0625 0l0 1.1875l-7.0625 0zm0 -2.1875l0 -1.1875l7.0625 0l0 1.1875l-7.0625 0zm-1.4375 -3.3125l10.0625 0l0 1.1875l-10.0625 0l0 -1.1875zm1.4375 -2.25l7.0625 0l0 1.1875l-7.0625 0l0 -1.1875z" fill-rule="nonzero"/><path fill="#000000" fill-opacity="0.0" d="m64.59055 100.908134l185.22833 0l0 35.55906l-185.22833 0z" fill-rule="evenodd"/><path fill="#000000" d="m79.16868 119.69251q0 -0.890625 -0.0625 -2.09375l6.046875 0q-0.0625 0.890625 -0.0625 1.78125l0 3.75q0 0.46875 -0.34375 0.59375q-0.328125 0.125 -1.15625 0.28125q-0.109375 -0.46875 -0.421875 -0.9375q0.9375 0 0.9375 -0.3125l0 -1.03125l-3.953125 0l0 2.1875l-1.046875 0q0.0625 -1.046875 0.0625 -2.03125l0 -2.1875zm-1.09375 -3.546875q0.828125 0.046875 3.53125 0.046875l0 -0.984375q-1.96875 0 -2.8125 0.0625l0 -0.78125q0.84375 0.046875 2.8125 0.046875l0 -0.78125q-2.234375 0 -3.125 0.046875l0 -0.828125q0.9375 0.046875 3.125 0.046875q0 -0.5625 -0.046875 -1.09375l1.09375 0q-0.0625 0.578125 -0.0625 1.09375q2.453125 0 3.28125 -0.046875l0 0.828125q-0.828125 -0.046875 -3.28125 -0.046875l0 0.78125q2.296875 0 2.96875 -0.046875l0 0.78125q-0.78125 -0.0625 -2.96875 -0.0625l0 0.984375q2.96875 0 3.75 -0.046875l0 0.828125q-0.671875 -0.046875 -4.0625 -0.046875q-3.328125 0 -4.203125 0.046875l0 -0.828125zm0.515625 4.84375q-0.671875 0.515625 -1.40625 1.171875q-0.734375 0.65625 -1.203125 1.171875q-0.359375 -0.578125 -0.71875 -0.9375q0.515625 -0.359375 0.515625 -0.984375l0 -4.4375q-0.78125 0 -1.609375 0.0625l0 -0.9375q0.671875 0.046875 1.09375 0.046875l1.5 0q-0.046875 0.828125 -0.046875 1.875l0 3.390625q0.828125 -0.734375 1.296875 -1.3125q0.21875 0.53125 0.578125 0.890625zm5.515625 0l0 -0.984375l-3.953125 0l0 0.984375l3.953125 0zm0 -1.71875l0 -0.890625l-3.953125 0l0 0.890625l3.953125 0zm-7.234375 -4.375q-0.78125 -1.140625 -1.765625 -2.03125q0.359375 -0.25 0.671875 -0.5625q1.203125 1.03125 1.875 1.921875q-0.46875 0.421875 -0.78125 0.671875z" fill-rule="nonzero"/><path fill="#000000" d="m87.73118 121.38001q3.09375 -1.671875 5.03125 -3.34375l0 -2.484375l-4.984375 0l0 -0.96875l4.984375 0l0 -2.28125l0.96875 0q0.40625 0.046875 0.046875 0.296875l0 1.984375l2.640625 0q-0.609375 -0.609375 -1.625 -1.0625l0.8125 -0.875q0.90625 0.359375 1.78125 1.171875l-0.8125 0.765625l2.125 0l0 0.96875l-4.921875 0l0 0.40625q0.203125 0.859375 1.0625 2.171875q1.125 -0.8125 2.078125 -1.96875l0.96875 0.859375q0.046875 0.25 -0.25 0.15625q-0.71875 0.703125 -2.140625 1.71875q1.125 1.46875 3.609375 2.59375l-0.65625 1.265625q-3.09375 -1.515625 -4.671875 -4.671875l0 4.828125q0 0.8125 -0.8125 0.8125l-1.265625 0l-0.203125 -1.125l1.0625 0q0.203125 0 0.203125 -0.203125l0 -2.984375q-1.328125 1.21875 -4.015625 2.9375q0.109375 0.3125 -0.15625 0.25l-0.859375 -1.21875zm2.796875 -2.4375q-0.8125 -1.015625 -1.671875 -1.671875l0.859375 -0.859375q0.90625 0.5 1.78125 1.515625l-0.96875 1.015625z" fill-rule="nonzero"/><path fill="#000000" d="m104.215416 119.64564l1.203125 -0.109375q0.078125 0.71875 0.390625 1.1875q0.3125 0.453125 0.953125 0.734375q0.65625 0.28125 1.46875 0.28125q0.71875 0 1.265625 -0.21875q0.5625 -0.21875 0.828125 -0.578125q0.265625 -0.375 0.265625 -0.828125q0 -0.453125 -0.265625 -0.78125q-0.25 -0.328125 -0.84375 -0.5625q-0.390625 -0.15625 -1.703125 -0.46875q-1.3125 -0.3125 -1.84375 -0.59375q-0.671875 -0.359375 -1.015625 -0.890625q-0.328125 -0.53125 -0.328125 -1.1875q0 -0.71875 0.40625 -1.34375q0.40625 -0.625 1.1875 -0.953125q0.796875 -0.328125 1.765625 -0.328125q1.046875 0 1.859375 0.34375q0.8125 0.34375 1.25 1.015625q0.4375 0.65625 0.46875 1.484375l-1.203125 0.09375q-0.109375 -0.90625 -0.671875 -1.359375q-0.5625 -0.46875 -1.65625 -0.46875q-1.140625 0 -1.671875 0.421875q-0.515625 0.421875 -0.515625 1.015625q0 0.515625 0.359375 0.84375q0.375 0.328125 1.90625 0.6875q1.546875 0.34375 2.109375 0.59375q0.84375 0.390625 1.234375 0.984375q0.390625 0.578125 0.390625 1.359375q0 0.75 -0.4375 1.4375q-0.421875 0.671875 -1.25 1.046875q-0.8125 0.359375 -1.828125 0.359375q-1.296875 0 -2.171875 -0.375q-0.875 -0.375 -1.375 -1.125q-0.5 -0.765625 -0.53125 -1.71875zm13.90538 0.84375l1.203125 0.140625q-0.28125 1.0625 -1.0625 1.65625q-0.765625 0.578125 -1.96875 0.578125q-1.515625 0 -2.40625 -0.9375q-0.890625 -0.9375 -0.890625 -2.609375q0 -1.75 0.890625 -2.703125q0.90625 -0.96875 2.34375 -0.96875q1.390625 0 2.265625 0.9375q0.875 0.9375 0.875 2.65625q0 0.109375 0 0.3125l-5.15625 0q0.0625 1.140625 0.640625 1.75q0.578125 0.59375 1.4375 0.59375q0.65625 0 1.109375 -0.328125q0.453125 -0.34375 0.71875 -1.078125zm-3.84375 -1.90625l3.859375 0q-0.078125 -0.859375 -0.4375 -1.296875q-0.5625 -0.6875 -1.453125 -0.6875q-0.8125 0 -1.359375 0.546875q-0.546875 0.53125 -0.609375 1.4375zm6.5062256 4.125l0 -6.90625l1.0625 0l0 1.046875q0.40625 -0.734375 0.734375 -0.96875q0.34375 -0.234375 0.765625 -0.234375q0.59375 0 1.203125 0.375l-0.40625 1.078125q-0.4375 -0.25 -0.859375 -0.25q-0.390625 0 -0.703125 0.234375q-0.296875 0.234375 -0.421875 0.640625q-0.203125 0.625 -0.203125 1.359375l0 3.625l-1.171875 0zm6.3758698 0l-2.625 -6.90625l1.234375 0l1.484375 4.140625q0.234375 0.65625 0.4375 1.390625q0.15625 -0.546875 0.43749237 -1.3125l1.53125 -4.21875l1.21875 0l-2.625 6.90625l-1.0937424 0zm4.757805 -8.1875l0 -1.359375l1.171875 0l0 1.359375l-1.171875 0zm0 8.1875l0 -6.90625l1.171875 0l0 6.90625l-1.171875 0zm7.46109 -2.53125l1.15625 0.15625q-0.1875 1.1875 -0.96875 1.859375q-0.78125 0.671875 -1.921875 0.671875q-1.40625 0 -2.28125 -0.921875q-0.859375 -0.9375 -0.859375 -2.65625q0 -1.125 0.375 -1.96875q0.375 -0.84375 1.125 -1.25q0.765625 -0.421875 1.65625 -0.421875q1.125 0 1.84375 0.578125q0.71875 0.5625 0.921875 1.609375l-1.140625 0.171875q-0.171875 -0.703125 -0.59375 -1.046875q-0.40625 -0.359375 -0.984375 -0.359375q-0.890625 0 -1.453125 0.640625q-0.546875 0.640625 -0.546875 2.0q0 1.40625 0.53125 2.03125q0.546875 0.625 1.40625 0.625q0.6875 0 1.140625 -0.421875q0.46875 -0.421875 0.59375 -1.296875zm6.8828125 0.3125l1.203125 0.140625q-0.28125 1.0625 -1.0625 1.65625q-0.765625 0.578125 -1.96875 0.578125q-1.515625 0 -2.40625 -0.9375q-0.890625 -0.9375 -0.890625 -2.609375q0 -1.75 0.890625 -2.703125q0.90625 -0.96875 2.34375 -0.96875q1.390625 0 2.265625 0.9375q0.875 0.9375 0.875 2.65625q0 0.109375 0 0.3125l-5.15625 0q0.0625 1.140625 0.640625 1.75q0.578125 0.59375 1.4375 0.59375q0.65625 0 1.109375 -0.328125q0.453125 -0.34375 0.71875 -1.078125zm-3.84375 -1.90625l3.859375 0q-0.078125 -0.859375 -0.4375 -1.296875q-0.5625 -0.6875 -1.453125 -0.6875q-0.8125 0 -1.359375 0.546875q-0.546875 0.53125 -0.609375 1.4375z" fill-rule="nonzero"/><path fill="#000000" d="m149.32957 121.38001l1.171875 0l0 1.125l-0.609375 1.375l-0.5625 0l0.515625 -1.375l-0.515625 0l0 -1.125z" fill-rule="nonzero"/><path fill="#000000" d="m165.85301 114.17689q0 -1.046875 -0.046875 -2.296875l1.09375 0q-0.046875 0.625 -0.046875 2.296875q1.09375 0 2.125 -0.0625l0 1.0q-1.03125 -0.0625 -2.125 -0.0625l0 2.296875q1.25 0 2.390625 -0.0625l0 1.0q-1.140625 -0.0625 -2.390625 -0.0625l0 2.140625q0 0.890625 0.046875 1.828125l-1.09375 0q0 -0.9375 0.046875 -1.828125l0 -2.140625l-1.96875 0q-0.21875 1.40625 -0.609375 2.296875q-0.375 0.890625 -1.15625 1.765625q-0.53125 -0.40625 -1.0 -0.671875q1.0 -0.890625 1.3125 -1.640625q0.3125 -0.75 0.46875 -1.75q-1.203125 0 -2.09375 0.0625l0 -1.0q0.9375 0.0625 2.1875 0.0625q0.109375 -1.203125 0.109375 -2.296875q-1.046875 0 -2.03125 0.109375l0 -1.046875q0.984375 0.0625 2.078125 0.0625q0 -1.203125 -0.046875 -2.296875q0.515625 0.046875 1.09375 0.109375q-0.0625 0.671875 -0.109375 2.1875l1.765625 0zm-5.828125 2.015625q-0.09375 1.15625 -0.09375 1.9375l0 3.28125q1.5 1.03125 3.21875 1.21875q1.71875 0.1875 3.359375 0.125q1.640625 -0.046875 2.9375 -0.25q-0.25 0.625 -0.3125 1.296875q-2.5 0 -4.09375 -0.0625q-1.578125 -0.046875 -2.90625 -0.390625q-1.328125 -0.328125 -2.0 -0.71875q-0.671875 -0.390625 -1.171875 0q-0.5 0.390625 -1.0625 1.015625q-0.3125 -0.46875 -0.78125 -0.828125q1.25 -0.9375 1.8125 -1.3125l0 -4.421875q-0.5625 0 -1.453125 0.109375l0 -1.046875q1.046875 0.046875 1.5625 0.046875l0.984375 0zm5.828125 1.15625l0 -2.296875l-1.765625 0q-0.046875 1.09375 -0.15625 2.296875l1.921875 0zm-6.65625 -5.15625q0.828125 1.671875 1.046875 2.34375q-0.578125 0.109375 -1.046875 0.421875q-0.15625 -0.9375 -1.046875 -2.34375l1.046875 -0.421875z" fill-rule="nonzero"/><path fill="#000000" d="m174.60301 113.36439q-1.578125 1.921875 -2.90625 2.6875l-0.609375 -0.90625q1.421875 -0.8125 2.84375 -2.703125l0.765625 0.671875q0.25 0.296875 -0.09375 0.25zm-0.71875 10.40625l-1.015625 0l0 -5.375q-0.5 0.546875 -1.515625 1.21875l-0.671875 -1.015625q2.1875 -1.328125 3.71875 -3.71875l0.8125 0.671875q0.25 0.296875 -0.109375 0.25q-0.609375 0.8125 -1.21875 1.578125l0 6.390625zm7.421875 -10.65625l0 0.953125l-5.484375 0l0 -0.953125l5.484375 0zm-6.046875 4.203125l0 -0.953125l7.0625 0l0 0.953125l-2.140625 0l0 5.1875q0 1.0625 -0.859375 1.0625l-1.375 0l-0.203125 -0.96875l1.21875 0q0.203125 0 0.203125 -0.203125l0 -5.078125l-3.90625 0z" fill-rule="nonzero"/><path fill="#000000" d="m187.75912 122.70814l0 -9.546875l3.28125 0q1.109375 0 1.703125 0.140625q0.8125 0.1875 1.390625 0.6875q0.765625 0.640625 1.140625 1.640625q0.375 0.984375 0.375 2.25q0 1.09375 -0.265625 1.9375q-0.25 0.828125 -0.65625 1.390625q-0.390625 0.546875 -0.859375 0.859375q-0.46875 0.3125 -1.140625 0.484375q-0.65625 0.15625 -1.53125 0.15625l-3.4375 0zm1.265625 -1.125l2.03125 0q0.9375 0 1.46875 -0.171875q0.546875 -0.1875 0.875 -0.5q0.4375 -0.453125 0.6875 -1.203125q0.25 -0.765625 0.25 -1.84375q0 -1.5 -0.5 -2.296875q-0.484375 -0.8125 -1.1875 -1.078125q-0.5 -0.203125 -1.625 -0.203125l-2.0 0l0 7.296875zm8.343903 1.125l0 -9.546875l1.296875 0l5.015625 7.5l0 -7.5l1.203125 0l0 9.546875l-1.296875 0l-5.015625 -7.5l0 7.5l-1.203125 0zm8.593903 0l3.65625 -9.546875l1.359375 0l3.90625 9.546875l-1.4375 0l-1.109375 -2.890625l-3.984375 0l-1.046875 2.890625l-1.34375 0zm2.75 -3.921875l3.234375 0l-1.0 -2.640625q-0.453125 -1.203125 -0.671875 -1.96875q-0.1875 0.90625 -0.515625 1.8125l-1.046875 2.796875zm8.618927 3.921875l0 -8.421875l-3.140625 0l0 -1.125l7.5625 0l0 1.125l-3.15625 0l0 8.421875l-1.265625 0z" fill-rule="nonzero"/></g></svg>