<svg version="1.1" viewBox="0.0 0.0 670.3044619422573 301.6377952755906" fill="none" stroke="none" stroke-linecap="square" stroke-miterlimit="10" xmlns:xlink="http://www.w3.org/1999/xlink" xmlns="http://www.w3.org/2000/svg"><clipPath id="p.0"><path d="m0 0l670.30444 0l0 301.6378l-670.30444 0l0 -301.6378z" clip-rule="nonzero"/></clipPath><g clip-path="url(#p.0)"><path fill="#000000" fill-opacity="0.0" d="m0 0l670.30444 0l0 301.6378l-670.30444 0z" fill-rule="evenodd"/><path fill="#ff9900" d="m327.81628 93.62205l7.873993 0l0 69.16535l-7.873993 0z" fill-rule="evenodd"/><path fill="#ff9900" d="m467.01337 107.4726l6.204712 4.850395l-42.740143 54.362213l-6.2047424 -4.850403z" fill-rule="evenodd"/><path fill="#ff9900" d="m190.18636 115.40898l5.5747986 -5.574806l48.91339 48.913383l-5.5747986 5.574814z" fill-rule="evenodd"/><path fill="#ff9900" d="m104.291336 205.71391l102.58267 0l0 5.7637787l-102.58267 0z" fill-rule="evenodd"/><path fill="#ff9900" d="m222.5601 190.5923l0 0c-2.227005 -11.466675 5.0846863 -22.817993 18.832458 -29.237167c13.747787 -6.419159 31.520554 -6.780411 45.77672 -0.9304352l0 0c5.0499573 -6.667206 14.292877 -11.270447 24.932922 -12.417343c10.640076 -1.1468964 21.427551 1.2972717 29.099457 6.5931854l0 0c4.3019104 -6.044922 12.74881 -10.106323 22.343292 -10.743027c9.594482 -0.63671875 18.978668 2.241394 24.822601 7.613022l0 0c7.7720337 -6.407608 20.137573 -9.105469 31.745941 -6.9262238c11.608368 2.1792603 20.374603 8.844208 22.505524 17.110886l0 0c9.522095 1.8197784 17.453766 6.445923 21.745789 12.683151c4.291992 6.2372437 4.523285 13.473724 0.63409424 19.839767l0 0c9.376495 8.550308 11.569885 19.943481 5.7616577 29.927795c-5.8082275 9.984314 -18.745453 17.059738 -33.983704 18.585846c-0.107421875 9.370636 -7.442322 17.96904 -19.17752 22.480972c-11.7352295 4.5119324 -26.038269 4.2328796 -37.396088 -0.7296448l0 0c-4.8378296 11.222961 -18.454712 19.480713 -34.96765 21.205597c-16.51294 1.724884 -32.96167 -3.392334 -42.239716 -13.140778l0 0c-11.372955 4.8050537 -25.019562 6.1892395 -37.86139 3.8403015c-12.841858 -2.348938 -23.79721 -8.233124 -30.394775 -16.325195l0 0c-11.621735 0.95288086 -22.858337 -3.2658691 -28.133133 -10.5624695c-5.2747955 -7.2966003 -3.4649048 -16.117783 4.531433 -22.085632l0 0c-10.366882 -4.2750854 -15.6566925 -12.75827 -13.110992 -21.02591c2.5457 -8.267639 12.350021 -14.446243 24.300415 -15.313934z" fill-rule="evenodd"/><path fill="#000000" fill-opacity="0.0" d="m211.14096 227.37408l0 0c4.892151 2.0174255 10.543747 2.9325867 16.195969 2.622589m7.403183 30.026276c2.4306488 -0.1993103 4.813156 -0.6213074 7.086075 -1.255188m61.16667 13.739532c-1.7095642 -1.7962646 -3.1408997 -3.7156982 -4.269623 -5.7256165m81.47995 -2.3395386l0 0c0.88201904 -2.046112 1.4534912 -4.152008 1.7048645 -6.2825317m54.866608 -15.468002c0.114349365 -9.976486 -7.973114 -19.111069 -20.788605 -23.480164m49.010406 -25.03244c-2.0754395 3.3971863 -5.243805 6.410782 -9.256683 8.804504m-13.121277 -41.32831l0 0c0.3536377 1.3718567 0.51727295 2.7643433 0.4887085 4.158142m-54.739258 -14.342392l0 0c-1.9387512 1.5983734 -3.5360107 3.3845367 -4.7420654 5.3028717m-42.424255 -2.1735535l0 0c-1.0332031 1.4517822 -1.804718 2.988037 -2.2967834 4.573349m-51.73639 1.2509155l0 0c3.0166016 1.237854 5.8073425 2.7277374 8.310974 4.4369354m-72.91933 25.730835l0 0c0.3069458 1.5804138 0.7919159 3.141327 1.4503937 4.668167" fill-rule="evenodd"/><path fill="#674ea7" d="m569.7559 206.12599l0 0c0 -23.935242 19.40332 -43.338593 43.338562 -43.338593l0 0c11.494141 0 22.517456 4.566025 30.64502 12.693573c8.127563 8.127563 12.6935425 19.15091 12.6935425 30.64502l0 0c0 23.935226 -19.40332 43.338577 -43.338562 43.338577l0 0c-23.935242 0 -43.338562 -19.40335 -43.338562 -43.338577z" fill-rule="evenodd"/><path fill="#000000" fill-opacity="0.0" d="m561.80316 173.81102l102.58264 0l0 58.173233l-102.58264 0z" fill-rule="evenodd"/><path fill="#ffffff" d="m591.8445 191.29602l10.8125 0l0 4.625l-1.25 0l0 -0.5625l-8.3125 0q0.125 2.5625 -2.0 4.375l-1.0 -1.0q1.75 -1.1875 1.75 -3.25l0 -4.1875zm12.25 -4.5l0 1.1875l-6.4375 0l0 1.1875l5.1875 0l0 1.1875l-11.5 0l0 -1.1875l5.0625 0l0 -1.1875l-6.25 0l0 -1.1875l6.25 0l0 -1.625l1.1875 0q0.5 0.0625 0.0625 0.375l0 1.25l6.4375 0zm-7.5625 5.6875l-3.4375 0l0 1.6875l3.4375 0l0 -1.6875zm4.875 0l-3.625 0l0 1.6875l3.625 0l0 -1.6875zm12.0 -6.5l6.0625 0l0 12.1875q0 1.0625 -1.0625 1.0625l-1.5625 0l-0.1875 -1.1875l1.375 0q0.1875 0 0.1875 -0.1875l0 -3.375l-3.5625 0q-0.1875 3.3125 -4.4375 5.0625l-0.625 -1.375q3.8125 -1.0 3.8125 -4.375l0 -7.8125zm-5.4375 8.5625l2.75 0l0 -3.125l-2.75 0l0 3.125zm0 -4.3125l2.75 0l0 -2.6875l-2.75 0l0 2.6875zm0 5.5l0 1.0625l-1.25 0l0 -10.4375l5.25 0l0 9.375l-4.0 0zm10.25 -4.9375l-3.5625 0l0 2.5l3.5625 0l0 -2.5zm-3.5625 -1.1875l3.5625 0l0 -2.4375l-3.5625 0l0 2.4375zm18.0625 6.25q0.8125 1.5 1.4375 1.5q0.25 0 0.3125 -0.375l0.125 -1.0625l1.375 0.625l-0.25 1.5q-0.1875 1.0625 -1.125 1.0625q-1.875 0 -3.1875 -2.5625q-1.25 -2.4375 -1.3125 -6.875l-7.6875 0l0 -1.375l7.625 0l0 -2.875l1.375 0q0.625 0.125 0.0625 0.5l0 2.375l4.375 0l0 1.375l-4.375 0q0.25 4.375 1.25 6.1875zm-2.4375 1.125q-3.5 0.75 -7.0625 1.375q-0.125 0.5625 -0.4375 0.125l-0.3125 -1.5625q1.5625 -0.125 3.0625 -0.375l0 -3.5625l-2.5 0l0 -1.1875l6.1875 0l0 1.1875l-2.4375 0l0 3.375q1.4375 -0.1875 3.3125 -0.5625l0.1875 1.1875zm2.875 -11.25q0.875 0.4375 1.6875 1.1875l-1.125 0.9375q-0.625 -0.625 -1.625 -1.1875l1.0625 -0.9375z" fill-rule="nonzero"/><path fill="#ffffff" d="m600.1687 217.37102l4.40625 -11.453125l1.640625 0l4.6875 11.453125l-1.734375 0l-1.328125 -3.46875l-4.796875 0l-1.25 3.46875l-1.625 0zm3.3125 -4.703125l3.890625 0l-1.203125 -3.171875q-0.546875 -1.453125 -0.8125 -2.375q-0.21875 1.09375 -0.609375 2.1875l-1.265625 3.359375zm8.625 4.703125l0 -11.453125l4.328125 0q1.140625 0 1.734375 0.109375q0.84375 0.140625 1.40625 0.53125q0.578125 0.390625 0.921875 1.109375q0.359375 0.703125 0.359375 1.5625q0 1.453125 -0.9375 2.46875q-0.921875 1.015625 -3.359375 1.015625l-2.9375 0l0 4.65625l-1.515625 0zm1.515625 -6.015625l2.96875 0q1.46875 0 2.078125 -0.546875q0.625 -0.546875 0.625 -1.53125q0 -0.71875 -0.375 -1.234375q-0.359375 -0.515625 -0.953125 -0.671875q-0.375 -0.109375 -1.40625 -0.109375l-2.9375 0l0 4.09375zm9.421875 6.015625l0 -11.453125l1.515625 0l0 11.453125l-1.515625 0z" fill-rule="nonzero"/><path fill="#666666" d="m456.3176 78.02362l0 0c0 -23.935238 19.40332 -43.33858 43.338562 -43.33858l0 0c11.49411 0 22.517426 4.566017 30.644989 12.693577c8.127563 8.12756 12.6936035 19.150902 12.6936035 30.645004l0 0c0 23.935242 -19.40332 43.338585 -43.338593 43.338585l0 0c-23.935242 0 -43.338562 -19.403343 -43.338562 -43.338585z" fill-rule="evenodd"/><path fill="#000000" fill-opacity="0.0" d="m448.36484 57.015747l102.58267 0l0 38.771652l-102.58267 0z" fill-rule="evenodd"/><path fill="#ffffff" d="m490.34366 82.43825q-1.375 -0.9375 -2.4375 -2.5q-1.625 1.9375 -3.625 2.875l-0.5 -1.1875q2.6875 -1.5625 3.5 -2.75q-0.625 -1.4375 -0.9375 -4.5q-0.25 0.5625 -0.6875 1.0l-0.75 -0.875q1.75 -1.875 2.125 -5.75l1.25 0.25q0.25 0.25 -0.1875 0.3125q-0.3125 1.75 -0.5625 2.4375l3.1875 0l0 1.1875l-0.875 0q0 3.625 -1.125 6.0q0.5625 1.0 2.3125 2.3125l-0.6875 1.1875zm-13.9375 -10.3125q1.5625 -1.25 2.625 -3.4375l1.0 0.5625q0.3125 0.125 -0.125 0.3125q-1.125 2.3125 -2.75 3.5625l-0.75 -1.0zm6.5 7.8125l0.4375 -0.25l0 -3.375l-1.0 0l0 1.75q0 2.875 -1.75 4.25l-0.6875 -1.0q1.375 -1.3125 1.375 -3.1875l0 -1.8125l-1.0625 0l0 -1.1875l5.0625 0l0 1.1875l-0.875 0l0 2.8125l1.5 -0.9375l0.375 0.875q-1.0 0.75 -2.5625 1.625q-0.125 0.375 -0.3125 0.125l-0.5 -0.875zm-6.75 -3.75q2.125 -1.75 3.125 -4.5625l1.0625 0.5625q0.1875 0.1875 -0.125 0.3125q-0.4375 0.9375 -0.8125 1.625l0 8.6875l-1.0625 0l0 -7.0625q-0.6875 1.0 -1.625 1.625l-0.5625 -1.1875zm7.4375 -3.5l0.8125 0l0 -2.875l1.0 0q0.5 0.0625 0.0625 0.375l0 3.5l-3.8125 0l0 0.6875l-1.0625 0l0 -4.5625l1.0 0q0.5 0.0625 0.0625 0.375l0 2.5l0.875 0l0 -4.0l1.0 0q0.5 0.0625 0.0625 0.375l0 3.625zm4.4375 5.125q0.75 -1.75 0.75 -4.875l-1.4375 0q0.0625 2.75 0.6875 4.875zm18.0 -3.0625q-0.75 3.25 -1.625 4.6875q1.25 1.1875 2.75 1.75l-0.75 1.375q-1.375 -0.625 -2.75 -1.875q-0.9375 1.25 -2.3125 2.0625l-0.8125 -1.3125q1.4375 -0.8125 2.1875 -1.875q-1.1875 -1.8125 -1.4375 -4.4375l-0.8125 0l0 7.5625l-1.25 0l0 -13.8125l6.4375 0l0 3.125q0 1.0 -1.0 1.0l-1.75 0l-0.125 -1.1875l1.375 0q0.25 0 0.25 -0.25l0 -1.5l-3.9375 0l0 3.875l4.5 0l0.1875 -0.1875l1.0625 0.6875q0.25 0.25 -0.1875 0.3125zm-2.5 3.625q0.5 -1.1875 1.0625 -3.25l-2.0625 0q0.125 1.5 1.0 3.25zm-10.0625 -9.4375l4.5 0l0 12.5625q0 1.0 -1.0 1.0l-1.25 0l-0.0625 -1.1875l0.8125 0q0.25 0 0.25 -0.25l0 -3.8125l-2.0 0l0 0.375q0 3.125 -1.3125 5.125l-1.0625 -1.125q1.125 -2.0 1.125 -4.1875l0 -8.5zm3.25 4.75l-2.0 0l0 2.375l2.0 0l0 -2.375zm0 -1.1875l0 -2.375l-2.0 0l0 2.375l2.0 0z" fill-rule="nonzero"/><path fill="#ffffff" d="m514.7812 69.00075q-0.5 0.4375 -0.875 1.0l6.9375 0q-0.5625 0.9375 -1.46875 2.0q-0.90625 1.0625 -2.28125 2.0q0.875 0.5625 2.375 0.84375q1.5 0.28125 3.5625 0.34375q-0.5 0.5625 -0.6875 1.3125q-1.75 -0.125 -3.4375 -0.625q-1.6875 -0.5 -2.8125 -1.1875q-2.0 0.9375 -3.625 1.375q-1.6250305 0.4375 -3.1875305 0.6875q-0.25 -0.75 -0.75 -1.3125q1.375 0 3.125 -0.375q1.7500305 -0.375 3.4375305 -1.0625q-1.3125 -1.25 -2.25 -2.5625q-1.0625305 1.3125 -2.1875305 2.1875q-0.4375 -0.5 -1.125 -0.75q1.75 -1.25 2.5625305 -2.40625q0.8125 -1.15625 1.1875 -2.15625q0.8125 0.4375 1.5 0.6875zm-0.125 8.25q0.125 -0.75 0.125 -1.75q0.75 0.125 1.5 0.1875q-0.1875 0.375 -0.375 1.5625l5.0625 0q-0.0625 0.75 -0.125 1.71875q-0.0625 0.96875 -0.21875 2.09375q-0.15625 1.125 -0.90625 1.3125q-0.75 0.1875 -2.375 0.375q-0.125 -0.8125 -0.625 -1.375q1.8125 0 2.1875 -0.125q0.375 -0.125 0.5 -0.6875l0.1875 -2.375l-3.8125 0q-0.875 2.6875 -2.46875 3.5q-1.5937805 0.8125 -3.4062805 1.4375q-0.1875 -0.5625 -0.875 -1.3125q1.5 -0.125 3.1250305 -0.9375q1.625 -0.8125 2.3125 -2.6875l-1.4375 0q-1.8750305 0 -2.7500305 0.125l0 -1.125q0.9375 0.0625 2.8125305 0.0625l1.5625 0zm1.5 -3.9375q1.25 -0.75 2.4375 -2.375l-4.6875 0q1.1875 1.5625 2.25 2.375z" fill-rule="nonzero"/><path fill="#6d9eeb" d="m288.4134 59.157482l0 0c0 -23.935242 19.40335 -43.338585 43.338593 -43.338585l0 0c11.49408 0 22.517426 4.566017 30.644989 12.693577c8.127563 8.12756 12.693573 19.150898 12.693573 30.645008l0 0c0 23.935238 -19.40335 43.33858 -43.338562 43.33858l0 0c-23.935242 0 -43.338593 -19.403343 -43.338593 -43.33858z" fill-rule="evenodd"/><path fill="#000000" fill-opacity="0.0" d="m280.46063 38.149605l102.58267 0l0 38.771652l-102.58267 0z" fill-rule="evenodd"/><path fill="#ffffff" d="m314.12698 55.884605q-0.75 3.25 -1.625 4.6875q1.25 1.1875 2.75 1.75l-0.75 1.375q-1.375 -0.625 -2.75 -1.875q-0.9375 1.25 -2.3125 2.0625l-0.8125 -1.3125q1.4375 -0.8125 2.1875 -1.875q-1.1875 -1.8125 -1.4375 -4.4375l-0.8125 0l0 7.5625l-1.25 0l0 -13.8125l6.4375 0l0 3.125q0 1.0 -1.0 1.0l-1.75 0l-0.125 -1.1875l1.375 0q0.25 0 0.25 -0.25l0 -1.5l-3.9375 0l0 3.875l4.5 0l0.1875 -0.1875l1.0625 0.6875q0.25 0.25 -0.1875 0.3125zm-2.5 3.625q0.5 -1.1875 1.0625 -3.25l-2.0625 0q0.125 1.5 1.0 3.25zm-10.0625 -9.4375l4.5 0l0 12.5625q0 1.0 -1.0 1.0l-1.25 0l-0.0625 -1.1875l0.8125 0q0.25 0 0.25 -0.25l0 -3.8125l-2.0 0l0 0.375q0 3.125 -1.3125 5.125l-1.0625 -1.125q1.125 -2.0 1.125 -4.1875l0 -8.5zm3.25 4.75l-2.0 0l0 2.375l2.0 0l0 -2.375zm0 -1.1875l0 -2.375l-2.0 0l0 2.375l2.0 0z" fill-rule="nonzero"/><path fill="#ffffff" d="m322.87698 50.134605q-0.5 0.4375 -0.875 1.0l6.9375 0q-0.5625 0.9375 -1.46875 2.0q-0.90625 1.0625 -2.28125 2.0q0.875 0.5625 2.375 0.84375q1.5 0.28125 3.5625 0.34375q-0.5 0.5625 -0.6875 1.3125q-1.75 -0.125 -3.4375 -0.625q-1.6875 -0.5 -2.8125 -1.1875q-2.0 0.9375 -3.625 1.375q-1.625 0.4375 -3.1875 0.6875q-0.25 -0.75 -0.75 -1.3125q1.375 0 3.125 -0.375q1.75 -0.375 3.4375 -1.0625q-1.3125 -1.25 -2.25 -2.5625q-1.0625 1.3125 -2.1875 2.1875q-0.4375 -0.5 -1.125 -0.75q1.75 -1.25 2.5625 -2.40625q0.8125 -1.15625 1.1875 -2.15625q0.8125 0.4375 1.5 0.6875zm-0.125 8.25q0.125 -0.75 0.125 -1.75q0.75 0.125 1.5 0.1875q-0.1875 0.375 -0.375 1.5625l5.0625 0q-0.0625 0.75 -0.125 1.71875q-0.0625 0.96875 -0.21875 2.09375q-0.15625 1.125 -0.90625 1.3125q-0.75 0.1875 -2.375 0.375q-0.125 -0.8125 -0.625 -1.375q1.8125 0 2.1875 -0.125q0.375 -0.125 0.5 -0.6875l0.1875 -2.375l-3.8125 0q-0.875 2.6875 -2.46875 3.5q-1.59375 0.8125 -3.40625 1.4375q-0.1875 -0.5625 -0.875 -1.3125q1.5 -0.125 3.125 -0.9375q1.625 -0.8125 2.3125 -2.6875l-1.4375 0q-1.875 0 -2.75 0.125l0 -1.125q0.9375 0.0625 2.8125 0.0625l1.5625 0zm1.5 -3.9375q1.25 -0.75 2.4375 -2.375l-4.6875 0q1.1875 1.5625 2.25 2.375z" fill-rule="nonzero"/><path fill="#ffffff" d="m337.68948 58.197105q-0.75 1.9375 -2.25 3.625l-0.6875 -0.9375q1.4375 -1.75 2.1875 -3.6875q-0.9375 -1.375 -1.9375 -2.6875l0.625 -0.625q0.875 1.0 1.5625 1.9375q0.25 -1.5 0.375 -3.0625l1.0625 0.25q0.5 0.1875 -0.0625 0.375q-0.1875 1.5 -0.5 3.4375q0.875 1.1875 1.625 2.3125l-0.625 1.0625q-0.6875 -1.0 -1.375 -2.0zm-3.25 -6.375l0 11.5625l-1.25 0l0 -12.75l12.9374695 0l0 11.625q0 1.0 -0.9375 1.0l-1.5624695 0l-0.25 -1.1875l1.3124695 0q0.1875 0 0.1875 -0.1875l0 -10.0625l-10.4374695 0zm7.375 4.375q0.375 -1.875 0.5 -3.5l1.0 0.125q0.625 0.1875 0 0.4375q-0.1875 1.75 -0.6875 3.875q0.9375 1.3125 1.625 2.5l-0.625 1.0q-0.75 -1.25 -1.4375 -2.3125q-0.9375 2.4375 -2.1875 3.75l-0.6875 -1.0q1.25 -1.3125 2.0625 -3.6875q-0.9375 -1.5 -1.875 -2.625l0.625 -0.6875q0.75 0.875 1.6875 2.125zm20.62497 2.0625q-2.625 -0.875 -4.3125 -2.25q-1.3125 1.1875 -3.9375 2.4375l-0.375 -1.0l-0.5625 0.8125q-0.5 -0.8125 -1.0625 -1.3125l0 6.9375l-1.25 0l0 -6.875q-0.5625 1.6875 -1.75 3.125l-0.8125 -1.1875q2.0625 -2.625 2.5 -5.25l-2.125 0l0 -1.1875l2.1875 0l0 -2.875l1.1875 0q0.4375 0.125 0.0625 0.375l0 2.5l1.8125 0l0 1.1875l-1.8125 0l0 1.875q1.125 0.625 1.75 1.4375q2.25 -0.8125 3.3125 -1.8125q-0.625 -0.6875 -1.1875 -1.75q-0.3125 0.8125 -1.5625 2.125l-0.9375 -1.0q2.25 -2.125 2.875 -5.0625l1.3125 0.3125q0.25 0.25 -0.1875 0.3125l-0.375 1.125l3.25 0l0.25 -0.3125l0.9375 0.8125l-0.3125 0.1875q-0.875 1.75 -2.25 3.25q1.625 1.0625 3.9375 1.75l-0.5625 1.3125zm-2.375 5.3125l0 -0.625l-3.6875 0l0 0.875l-1.25 0l0 -5.75l6.1875 0l0 5.5l-1.25 0zm0 -1.625l0 -2.875l-3.6875 0l0 2.875l3.6875 0zm-1.875 -7.5625q0.875 -0.8125 1.5 -2.125l-2.9375 0q0.5625 1.1875 1.4375 2.125z" fill-rule="nonzero"/><path fill="#9900ff" d="m128.46326 83.80052l0 0c0 -23.935234 19.403336 -43.33858 43.338577 -43.33858l0 0c11.49411 0 22.51744 4.566017 30.645004 12.693577c8.127563 8.127563 12.693588 19.150902 12.693588 30.645004l0 0c0 23.935242 -19.40335 43.338585 -43.338593 43.338585l0 0c-23.935242 0 -43.338577 -19.403343 -43.338577 -43.338585z" fill-rule="evenodd"/><path fill="#000000" fill-opacity="0.0" d="m120.5105 62.792652l102.58267 0l0 38.771656l-102.58267 0z" fill-rule="evenodd"/><path fill="#ffffff" d="m167.61433 83.40265q-2.3125 -1.1875 -4.0 -3.1875q-1.25 1.8125 -3.25 3.1875l7.25 0zm-3.375 -4.125q3.0625 3.125 6.875 4.0l-0.375 1.4375q-1.9375 -0.5625 -2.8125 -1.125l0 4.75l-1.25 0l0 -0.375l-5.8125 0l0 0.625l-1.25 0l0 -4.6875q-1.25 0.875 -2.375 1.1875l-0.5625 -1.3125q4.875 -1.875 6.5625 -5.4375l1.3125 0.4375q0.25 0.25 -0.1875 0.3125l-0.125 0.1875zm-6.6875 0.875q1.8125 -0.625 3.5625 -2.5625l0.9375 0.875q0.375 0.3125 -0.25 0.3125q-2.0 1.9375 -3.5625 2.5625l-0.6875 -1.1875zm9.125 6.625l0 -2.1875l-5.8125 0l0 2.1875l5.8125 0zm-0.25 -8.875q1.4375 1.125 3.8125 2.0625l-0.5625 1.25q-2.1875 -0.8125 -4.0 -2.375l0.75 -0.9375zm2.625 -0.9375l-10.625 0l0 1.8125l-1.25 0l0 -3.0l5.8125 0l0 -1.5625l1.375 0q0.5 0.0625 0.0625 0.375l0 1.1875l5.875 0l0 2.875l-1.25 0l0 -1.6875zm11.1875 1.5q0.5 0.125 0 0.375q-0.125 0.5625 -0.3125 1.0625l6.625 0l0 1.1875l-4.75 0q2.1875 1.5 5.375 2.0625l-0.3125 1.3125q-1.25 -0.25 -1.75 -0.5l0 4.25l-1.25 0l0 -0.6875l-2.1875 0l0 0.875l-1.25 0l0 -5.0l3.25 0q-1.8125 -0.75 -3.3125 -2.3125l-1.0 0q-1.0 1.4375 -2.6875 2.3125l2.5 0l0 4.875l-1.25 0l0 -0.75l-2.125 0l0 0.9375l-1.25 0l0 -4.125q-0.5625 0.3125 -1.6875 0.5625l-0.4375 -1.3125q3.375 -0.5 5.5 -2.5l-4.875 0l0 -1.1875l5.625 0q0.375 -0.6875 0.5 -1.5l1.0625 0.0625zm-1.25 0.3125l-1.25 0l0 -0.3125l-2.4375 0l0 0.5625l-1.25 0l0 -4.375l4.9375 0l0 4.125zm1.5625 -4.125l5.0 0l0 4.125l-1.25 0l0 -0.3125l-2.5 0l0 0.5625l-1.25 0l0 -4.375zm3.3125 11.875l0 -2.125l-2.1875 0l0 2.125l2.1875 0zm-6.125 -9.0625l0 -1.8125l-2.4375 0l0 1.8125l2.4375 0zm6.5625 -1.8125l-2.5 0l0 1.8125l2.5 0l0 -1.8125zm-6.375 10.875l0 -2.125l-2.125 0l0 2.125l2.125 0z" fill-rule="nonzero"/><path fill="#990000" d="m25.880577 206.12599l0 0c0 -23.935242 19.403343 -43.338593 43.338585 -43.338593l0 0c11.4941025 0 22.51744 4.566025 30.645004 12.693573c8.127563 8.127563 12.693573 19.15091 12.693573 30.64502l0 0c0 23.935226 -19.403343 43.338577 -43.338577 43.338577l0 0c-23.935242 0 -43.338585 -19.40335 -43.338585 -43.338577z" fill-rule="evenodd"/><path fill="#000000" fill-opacity="0.0" d="m17.927822 173.81102l102.58267 0l0 58.173233l-102.58267 0z" fill-rule="evenodd"/><path fill="#ffffff" d="m59.031662 195.23352q-2.0625 -2.3125 -4.375 -3.6875l0.875 -1.125q2.4375 1.25 4.625 3.625l-1.125 1.1875zm-12.3125 -8.75l13.125 0l0 1.375l-5.4375 0q-0.1875 0.625 -0.5625 1.3125l0 10.125l-1.4375 0l0 -8.0q-2.125 2.6875 -5.375 4.125l-0.875 -1.4375q4.625 -1.9375 6.6875 -6.125l-6.125 0l0 -1.375zm15.5625 -0.0625l13.75 0l0 1.375l-1.9375 0l0 10.25q0 1.1875 -1.125 1.1875l-2.125 0l-0.25 -1.375l1.8125 0q0.25 0 0.25 -0.25l0 -9.8125l-10.375 0l0 -1.375zm8.25 9.625l-1.4375 0l0 -0.5625l-3.4375 0l0 1.1875l-1.4375 0l0 -6.6875l6.3125 0l0 6.0625zm-1.4375 -4.875l-3.4375 0l0 3.125l3.4375 0l0 -3.125z" fill-rule="nonzero"/><path fill="#ffffff" d="m90.219154 193.23352q-0.625 0.9375 -1.65625 2.09375q-1.03125 1.15625 -2.15625 1.90625q0.625 0.375 2.3125 0.71875q1.6875 0.34375 3.5 0.40625q-0.75 0.8125 -0.875 1.375q-2.0 -0.25 -3.59375 -0.78125q-1.59375 -0.53125 -2.46875 -1.09375q-1.0625 0.625 -2.6875 1.125q-1.6249924 0.5 -3.6249924 0.875q-0.25 -0.625 -0.75 -1.25q1.375 -0.0625 3.21875 -0.46875q1.8437424 -0.40625 2.8437424 -0.90625q-1.375 -1.0 -2.8749924 -3.0q-0.8125 0 -1.6875 0.0625l0 -1.125q1.125 0.0625 2.6874924 0.0625l7.8125 0zm-4.9375 -8.25q0.4375 0.9375 0.8125 2.0l2.8125 0q1.8125 0 3.25 -0.0625l0 1.1875q-1.5 -0.0625 -3.125 -0.0625l-1.5 0l0 2.75q0 1.0 0.0625 2.0l-1.375 0q0.0625 -1.0 0.0625 -2.0l0 -2.75l-2.1875 0l0 2.75q0 0.6875 0.0625 2.0l-1.375 0q0.0625 -1.3125 0.0625 -2.0l0 -2.75l-1.3749924 0q-1.8125 0 -3.1875 0.0625l0 -1.1875q1.3125 0.0625 3.1875 0.0625l3.1874924 0q-0.125 -0.5 -0.6875 -1.625q0.625 -0.0625 1.3125 -0.375zm-2.5625 9.25q1.125 1.5 2.625 2.4375q1.5 -1.0 2.5625 -2.4375l-5.1875 0zm6.625 -5.4375q1.3125 1.1875 2.75 2.6875q-0.5 0.375 -1.125 0.9375q-1.0625 -1.25 -2.625 -2.75q0.5625 -0.4375 1.0 -0.875zm-7.5624924 0.625q-0.3125 0.3125 -1.0 1.1875q-0.6875 0.875 -1.5 1.8125q-0.625 -0.4375 -1.125 -0.75q1.5 -1.375 2.3125 -3.0625q0.5625 0.4375 1.3125 0.8125z" fill-rule="nonzero"/><path fill="#ffffff" d="m52.031662 216.30852q-3.3125 -0.9375 -5.0 -3.4375l-3.6875 0q-1.4375 2.8125 -4.875 3.75l-0.5 -1.25q2.875 -0.75 4.0625 -2.5l-3.8125 0l0 -1.0l3.625 0l0 -4.75l-2.6875 0l0 -1.0l2.6875 0l0 -1.75l1.1875 0q0.625 0.0625 0.0625 0.375l0 1.375l4.1875 0l0 -1.75l1.1875 0q0.625 0.0625 0.0625 0.375l0 1.375l2.5625 0l0 1.0l-2.5625 0l0 4.75l3.5625 0l0 1.0l-3.625 0q0.875 1.3125 4.0625 2.125l-0.5 1.3125zm-9.9375 -0.4375l0 -1.0l2.4375 0l0 -1.375l1.1875 0q0.625 0.0625 0.0625 0.375l0 1.0l2.5625 0l0 1.0l-2.5625 0l0 1.25l5.375 0l0 1.1875l-11.9375 0l0 -1.1875l5.3125 0l0 -1.25l-2.4375 0zm1.0 -8.75l0 0.9375l4.1875 0l0 -0.9375l-4.1875 0zm0 1.9375l0 0.875l4.1875 0l0 -0.875l-4.1875 0zm0 1.875l0 0.9375l4.1875 0l0 -0.9375l-4.1875 0z" fill-rule="nonzero"/><path fill="#ffffff" d="m62.094162 206.18352q-0.0625 0.75 -0.0625 1.875l0 2.0625l1.875 0l0 -3.9375q-0.0625 -1.0625 -0.125 -1.9375l1.375 0q-0.125 0.875 -0.125 1.875l0 4.0l1.875 0l0 -2.375q0 -1.0 -0.0625 -1.625l1.25 0q-0.0625 0.625 -0.0625 1.625l0 1.75q0 1.0625 0.0625 1.6875l-3.0625 0l0 6.0l2.0625 -0.0625l0 -2.5625q0 -0.9375 -0.0625 -1.8125l1.25 0q-0.0625 0.8125 -0.0625 1.6875l0 2.25q0 1.25 0.0625 2.4375l-1.1875 0l0 -1.0625l-6.25 0.25q0.0625 -0.875 0.0625 -1.9375l0 -1.875q0 -1.1875 -0.0625 -1.75l1.25 0q-0.0625 0.75 -0.0625 1.75l0 2.8125l1.875 -0.0625l0 -6.0625l-3.0625 0q0.0625 -1.0625 0.0625 -1.875l0 -1.0q0 -1.3125 -0.0625 -2.125l1.25 0zm-3.5625 -0.1875q0.75 0 1.5 -0.0625l0 1.125q-0.375 -0.0625 -1.5 -0.0625l-0.5625 0q-0.3125 1.5 -0.875 3.1875l2.5 0q-0.0625 1.125 -0.0625 1.9375l0 2.9375q0 1.0 0.0625 2.4375l-1.125 0l0 -0.875l-1.6875 0l0 1.6875l-1.1875 0q0.125 -1.5625 0.125 -2.5625l0 -3.1875q-0.4375 0.6875 -1.0625 1.3125q-0.25 -0.5625 -0.875 -1.1875q0.75 -0.625 1.1875 -1.1875q0.4375 -0.5625 0.9375 -1.6875q0.5 -1.125 0.8125 -2.8125q-1.0625 0 -2.0625 0.0625l0 -1.125q0.75 0.0625 1.4375 0.0625l2.4375 0zm-0.0625 9.625l0 -4.375l-1.6875 0l0 4.375l1.6875 0zm16.4375 -4.5625q1.0 0.0625 2.25 0.0625l5.6249924 0q-0.375 1.125 -1.0312424 2.46875q-0.65625 1.34375 -1.78125 2.65625q1.9999924 1.3125 4.6249924 1.375q-0.5 0.5625 -0.75 1.3125q-2.6874924 -0.5625 -4.8124924 -1.9375q-0.8125 0.5 -1.9375 1.09375q-1.125 0.59375 -2.4375 0.96875q-0.25 -0.5 -0.9375 -0.9375q1.375 -0.25 2.59375 -0.8125q1.21875 -0.5625 1.84375 -1.125q-1.375 -1.4375 -2.25 -4.0625l-1.0 0l0 -1.0625zm6.375 -0.625q-1.0625 0 -1.125 -0.875l0 -3.5l-2.75 0q0 1.75 -0.40625 2.75q-0.40625 1.0 -1.71875 2.0625q-0.25 -0.4375 -1.0 -0.75q1.5625 -1.0625 1.78125 -2.4375q0.21875 -1.375 0.15625 -2.625l5.25 0q-0.0625 0.75 -0.0625 1.875l0 1.6875q0 0.5 0.34375 0.59375q0.34374237 0.09375 0.9687424 0.0625q0.625 -0.03125 1.4375 -0.09375q-0.125 0.625 0 1.25l-2.8749924 0zm-7.9375 -1.125q-0.0625 1.125 -0.0625 2.5l0 3.8125q0.8125 -0.75 1.375 -1.5q0.1875 0.625 0.625 1.3125q-0.8125 0.75 -1.5 1.4375q-0.6875 0.6875 -1.25 1.5q-0.4375 -0.6875 -0.9375 -1.0625q0.5 -0.5 0.5 -1.4375l0 -5.5q-1.3125 0 -2.1875 0.0625l0 -1.1875q0.8125 0.0625 1.6875 0.0625l1.75 0zm5.75 6.0625q1.25 -1.25 1.9375 -3.25l-3.875 0q0.4375 1.9375 1.9375 3.25zm-7.3125 -10.9375q1.0 0.8125 2.4375 2.5625q-0.5 0.3125 -1.0 0.8125q-1.0625 -1.4375 -2.25 -2.5625q0.375 -0.25 0.8125 -0.8125z" fill-rule="nonzero"/><path fill="#ffffff" d="m90.219154 211.43352l-1.25 0q0 4.5625 -2.0 7.25l-1.0 -0.8125q1.875 -2.25 1.875 -6.6875l0 -2.9375l-1.625 0l0 -1.1875l2.0625 0l0 -2.625l1.1875 0q0.5 0.0625 0.0625 0.375l0 2.25l2.375 0l0 1.1875l-3.0 0l0 2.1875l2.375 0l-0.125 6.0625q-0.0625 2.125 -1.4375 2.125l-1.0 0l-0.125 -1.1875l0.875 0q0.5 0 0.625 -0.9375l0.125 -5.0625zm7.3125 3.8125l-0.125 -1.0l0.5 0q0.25 0 0.25 -0.25l0 -2.75l-1.6875 0.5625l0 4.25l-1.0625 0l0 -3.9375l-1.375 0.4375l0 4.3125q0 0.4375 0.4375 0.4375l4.0 0q0.5 0 0.625 -0.625l0.1875 -0.9375l1.25 0.3125l-0.25 1.375q-0.1875 1.0625 -1.5 1.0625l-4.6875 0q-1.125 0 -1.125 -1.125l0 -4.5l-0.8125 0.25l-0.3125 -1.1875l1.125 -0.3125l0 -2.375l1.0 0q0.5 0.0625 0.0625 0.375l0 1.6875l1.375 -0.4375l0 -2.5l1.0 0q0.5 0.0625 0.0625 0.375l0 1.8125l1.75 -0.5625l0.1875 -0.25l0.9375 0.625l-0.125 0.25l0 3.6875q0 0.9375 -0.6875 0.9375l-1.0 0zm-2.8125 -10.5625q0.5 0.1875 0 0.375q-0.25 0.8125 -0.5 1.4375l5.75 0l0 1.1875l-6.1875 0q-0.6875 1.375 -1.875 2.625l-0.8125 -0.9375q1.9375 -1.9375 2.5 -5.0l1.125 0.3125z" fill-rule="nonzero"/><path fill="#000000" fill-opacity="0.0" d="m183.67717 192.57217l314.96063 0l0 40.409454l-314.96063 0z" fill-rule="evenodd"/><path fill="#ffffff" d="m301.74234 213.86842l1.640625 0.40625q-0.515625 2.03125 -1.859375 3.09375q-1.34375 1.0625 -3.28125 1.0625q-2.0 0 -3.265625 -0.8125q-1.25 -0.828125 -1.90625 -2.375q-0.65625 -1.546875 -0.65625 -3.328125q0 -1.9375 0.734375 -3.375q0.75 -1.453125 2.109375 -2.1875q1.375 -0.75 3.015625 -0.75q1.859375 0 3.125 0.953125q1.28125 0.9375 1.765625 2.65625l-1.609375 0.375q-0.4375 -1.34375 -1.265625 -1.953125q-0.8125 -0.625 -2.046875 -0.625q-1.4375 0 -2.40625 0.6875q-0.953125 0.671875 -1.34375 1.828125q-0.375 1.15625 -0.375 2.390625q0 1.578125 0.453125 2.765625q0.46875 1.171875 1.4375 1.765625q0.96875 0.578125 2.109375 0.578125q1.375 0 2.328125 -0.796875q0.953125 -0.796875 1.296875 -2.359375zm3.4356995 4.34375l0 -12.40625l1.515625 0l0 12.40625l-1.515625 0zm3.318512 -4.5q0 -2.484375 1.390625 -3.6875q1.15625 -1.0 2.8125 -1.0q1.859375 0 3.03125 1.21875q1.1875 1.203125 1.1875 3.34375q0 1.734375 -0.53125 2.734375q-0.515625 1.0 -1.515625 1.546875q-0.984375 0.546875 -2.171875 0.546875q-1.875 0 -3.046875 -1.203125q-1.15625 -1.21875 -1.15625 -3.5zm1.5625 0q0 1.734375 0.75 2.59375q0.75 0.859375 1.890625 0.859375q1.140625 0 1.890625 -0.859375q0.75 -0.875 0.75 -2.640625q0 -1.65625 -0.75 -2.515625q-0.75 -0.859375 -1.890625 -0.859375q-1.140625 0 -1.890625 0.859375q-0.75 0.84375 -0.75 2.5625zm14.52771 4.5l0 -1.3125q-1.046875 1.515625 -2.84375 1.515625q-0.796875 0 -1.5 -0.296875q-0.6875 -0.3125 -1.015625 -0.765625q-0.328125 -0.46875 -0.46875 -1.140625q-0.09375 -0.4375 -0.09375 -1.421875l0 -5.5625l1.515625 0l0 4.984375q0 1.1875 0.09375 1.609375q0.15625 0.59375 0.609375 0.9375q0.46875 0.34375 1.15625 0.34375q0.6875 0 1.28125 -0.34375q0.609375 -0.359375 0.859375 -0.953125q0.25 -0.609375 0.25 -1.765625l0 -4.8125l1.515625 0l0 8.984375l-1.359375 0zm9.574585 0l0 -1.140625q-0.84375 1.34375 -2.515625 1.34375q-1.0625 0 -1.96875 -0.59375q-0.90625 -0.59375 -1.40625 -1.65625q-0.484375 -1.0625 -0.484375 -2.4375q0 -1.34375 0.4375 -2.4375q0.453125 -1.09375 1.34375 -1.671875q0.90625 -0.59375 2.015625 -0.59375q0.8125 0 1.4375 0.34375q0.640625 0.34375 1.046875 0.890625l0 -4.453125l1.515625 0l0 12.40625l-1.421875 0zm-4.8125 -4.484375q0 1.71875 0.71875 2.578125q0.734375 0.859375 1.734375 0.859375q0.984375 0 1.6875 -0.8125q0.703125 -0.828125 0.703125 -2.5q0 -1.84375 -0.71875 -2.703125q-0.703125 -0.859375 -1.75 -0.859375q-1.015625 0 -1.703125 0.828125q-0.671875 0.828125 -0.671875 2.609375zm13.6076355 4.484375l0 -12.40625l1.6875 0l6.515625 9.734375l0 -9.734375l1.578125 0l0 12.40625l-1.6875 0l-6.515625 -9.75l0 9.75l-1.578125 0zm18.201324 -1.109375q-0.84375 0.71875 -1.625 1.015625q-0.78125 0.296875 -1.671875 0.296875q-1.484375 0 -2.28125 -0.71875q-0.796875 -0.734375 -0.796875 -1.859375q0 -0.65625 0.296875 -1.203125q0.3125 -0.546875 0.796875 -0.875q0.484375 -0.328125 1.09375 -0.5q0.4375 -0.109375 1.34375 -0.21875q1.84375 -0.21875 2.71875 -0.53125q0.015625 -0.3125 0.015625 -0.390625q0 -0.9375 -0.4375 -1.3125q-0.578125 -0.515625 -1.734375 -0.515625q-1.078125 0 -1.59375 0.375q-0.5 0.375 -0.75 1.328125l-1.484375 -0.203125q0.203125 -0.953125 0.65625 -1.53125q0.46875 -0.59375 1.34375 -0.90625q0.890625 -0.328125 2.046875 -0.328125q1.15625 0 1.875 0.28125q0.71875 0.265625 1.046875 0.671875q0.34375 0.40625 0.484375 1.03125q0.078125 0.390625 0.078125 1.40625l0 2.03125q0 2.125 0.09375 2.6875q0.09375 0.5625 0.390625 1.078125l-1.59375 0q-0.234375 -0.46875 -0.3125 -1.109375zm-0.125 -3.40625q-0.828125 0.34375 -2.484375 0.578125q-0.9375 0.140625 -1.328125 0.3125q-0.390625 0.171875 -0.609375 0.5q-0.203125 0.3125 -0.203125 0.71875q0 0.609375 0.453125 1.015625q0.46875 0.40625 1.359375 0.40625q0.875 0 1.5625 -0.390625q0.6875 -0.390625 1.015625 -1.046875q0.234375 -0.515625 0.234375 -1.53125l0 -0.5625zm7.230835 3.15625l0.21875 1.34375q-0.640625 0.140625 -1.15625 0.140625q-0.828125 0 -1.28125 -0.265625q-0.453125 -0.265625 -0.640625 -0.6875q-0.1875 -0.4375 -0.1875 -1.796875l0 -5.171875l-1.125 0l0 -1.1875l1.125 0l0 -2.21875l1.515625 -0.921875l0 3.140625l1.53125 0l0 1.1875l-1.53125 0l0 5.25q0 0.65625 0.078125 0.84375q0.078125 0.1875 0.25 0.296875q0.1875 0.109375 0.53125 0.109375q0.25 0 0.671875 -0.0625zm1.501831 -9.296875l0 -1.75l1.515625 0l0 1.75l-1.515625 0zm0 10.65625l0 -8.984375l1.515625 0l0 8.984375l-1.515625 0zm6.334137 0l-3.421875 -8.984375l1.609375 0l1.921875 5.375q0.3125 0.875 0.578125 1.8125q0.203125 -0.703125 0.578125 -1.703125l1.984375 -5.484375l1.578125 0l-3.40625 8.984375l-1.421875 0zm12.3203125 -2.890625l1.5625 0.1875q-0.359375 1.390625 -1.375 2.15625q-1.0 0.75 -2.5625 0.75q-1.984375 0 -3.140625 -1.203125q-1.140625 -1.21875 -1.140625 -3.421875q0 -2.265625 1.15625 -3.515625q1.171875 -1.25 3.03125 -1.25q1.8125 0 2.953125 1.234375q1.140625 1.21875 1.140625 3.4375q0 0.140625 -0.015625 0.40625l-6.703125 0q0.09375 1.484375 0.84375 2.28125q0.75 0.78125 1.875 0.78125q0.84375 0 1.4375 -0.4375q0.59375 -0.4375 0.9375 -1.40625zm-5.0 -2.46875l5.015625 0q-0.109375 -1.125 -0.578125 -1.703125q-0.734375 -0.875 -1.890625 -0.875q-1.046875 0 -1.765625 0.703125q-0.703125 0.703125 -0.78125 1.875z" fill-rule="nonzero"/><path fill="#ff9900" d="m466.15485 205.71391l102.5827 0l0 5.7637787l-102.5827 0z" fill-rule="evenodd"/></g></svg>