<svg version="1.1" viewBox="0.0 0.0 480.4776902887139 310.28608923884514" fill="none" stroke="none" stroke-linecap="square" stroke-miterlimit="10" xmlns:xlink="http://www.w3.org/1999/xlink" xmlns="http://www.w3.org/2000/svg"><clipPath id="p.0"><path d="m0 0l480.4777 0l0 310.2861l-480.4777 0l0 -310.2861z" clip-rule="nonzero"/></clipPath><g clip-path="url(#p.0)"><path fill="#000000" fill-opacity="0.0" d="m0 0l480.4777 0l0 310.2861l-480.4777 0z" fill-rule="evenodd"/><path fill="#000000" fill-opacity="0.0" d="m79.2126 249.3937l0 -245.00787" fill-rule="evenodd"/><path stroke="#000000" stroke-width="1.0" stroke-linejoin="round" stroke-linecap="butt" d="m79.2126 249.3937l0 -239.00787" fill-rule="evenodd"/><path fill="#000000" stroke="#000000" stroke-width="1.0" stroke-linecap="butt" d="m80.864334 10.385826l-1.6517334 -4.538097l-1.6517334 4.538097z" fill-rule="evenodd"/><path fill="#000000" fill-opacity="0.0" d="m79.2126 250.55905l372.12598 -1.1653442" fill-rule="evenodd"/><path stroke="#000000" stroke-width="1.0" stroke-linejoin="round" stroke-linecap="butt" d="m79.2126 250.55905l366.12604 -1.1465607" fill-rule="evenodd"/><path fill="#000000" stroke="#000000" stroke-width="1.0" stroke-linecap="butt" d="m445.34378 251.06421l4.532898 -1.6659241l-4.5432434 -1.6375122z" fill-rule="evenodd"/><path fill="#000000" fill-opacity="0.0" d="m81.52231 249.3937l331.68503 -208.0315" fill-rule="evenodd"/><path stroke="#000000" stroke-width="1.0" stroke-linejoin="round" stroke-linecap="butt" d="m81.52231 249.3937l326.60208 -204.84348" fill-rule="evenodd"/><path fill="#000000" stroke="#000000" stroke-width="1.0" stroke-linecap="butt" d="m409.002 45.949505l2.966858 -3.8105392l-4.722107 1.0119705z" fill-rule="evenodd"/><path fill="#000000" fill-opacity="0.0" d="m95.391075 22.87664l339.7795 206.86615" fill-rule="evenodd"/><path stroke="#000000" stroke-width="1.0" stroke-linejoin="round" stroke-linecap="butt" d="m95.391075 22.87664l334.6546 203.74597" fill-rule="evenodd"/><path fill="#000000" stroke="#000000" stroke-width="1.0" stroke-linecap="butt" d="m429.18677 228.03345l4.735138 0.94911194l-3.0172424 -3.7707672z" fill-rule="evenodd"/><path fill="#000000" fill-opacity="0.0" d="m7.6614175 15.942257l69.22835 0l0 38.771652l-69.22835 0z" fill-rule="evenodd"/><path fill="#000000" d="m28.33809 28.489758q-0.0625 0.625 -0.0625 1.8125l0 4.4375q0 1.125 0.0625 2.1875l-1.1875 0l0 -7.4375l-3.0 0l0 7.5l-1.125 0q0.0625 -1.125 0.0625 -2.25l0 -4.4375q0 -0.5 -0.0625 -1.8125l5.3125 0zm-5.4375 -0.5625q-0.375 0.375 -1.1875 2.8125l0 7.9375q0 1.8125 0.0625 3.125l-1.1875 0q0.0625 -1.3125 0.0625 -3.125l0 -6.0q-0.25 0.5625 -1.0 1.875q-0.4375 -0.625 -0.875 -1.0q0.9375 -1.25 1.75 -3.25q0.8125 -2.0 0.9375 -3.0q0.75 0.4375 1.4375 0.625zm10.125002 -0.3125q-0.0625 0.6875 -0.0625 1.75l0 10.9375q0 0.8125 -0.5625 1.0625q-0.5625019 0.25 -1.6875019 0.4375q-0.125 -0.6875 -0.5 -1.375q0.875 0 1.21875 -0.0625q0.34375 -0.0625 0.34375 -0.6875l0 -10.3125q0 -1.0 -0.0625 -1.75l1.3125019 0zm-6.562502 3.375q-0.125 0.8125 -0.1875 3.5q-0.0625 2.6875 -0.90625 4.4375q-0.84375 1.75 -1.90625 2.875q-0.5625 -0.5 -1.1875 -0.6875q1.5 -1.4375 2.1875 -3.21875q0.6875 -1.78125 0.71875 -3.78125q0.03125 -2.0 -0.09375 -3.3125q0.6875 0.125 1.375 0.1875zm4.1875 -1.375q-0.0625 0.6875 -0.0625 1.75l0 4.375q0 1.3125 0.0625 2.4375l-1.25 0q0.0625 -0.75 0.0625 -2.4375l0 -4.375q0 -1.0625 -0.0625 -1.75l1.25 0zm-3.875 8.0625q1.0 1.0 2.25 2.9375q-0.5 0.25 -1.0625 0.8125q-1.0 -1.8125 -2.125 -3.0q0.5 -0.3125 0.9375 -0.75z" fill-rule="nonzero"/><path fill="#000000" d="m41.775593 29.177258q-2.375 0.0625 -4.625 0l-0.25 -1.0q6.4375 0.0625 9.5625 -0.625l0.6875 1.125q0.125 0.3125 -0.4375 0.125l-3.6875 0.25l0 1.0l6.0625 0l0 1.0l-6.0625 0l0 0.9375l4.25 0l0 4.8125l-4.25 0l0 1.125l4.6875 0l0 1.0l-4.6875 0l0 1.25l6.25 0l0 1.0l-13.875 0l0 -1.0l6.375 0l0 -1.25l-4.8125 0l0 -1.0l4.8125 0l0 -1.125l-2.125 0l-2.0625 0l0 -4.8125l4.1875 0l0 -0.9375l-6.125 0l0 -1.0l6.125 0l0 -0.875zm-3.125 4.8125l3.125 0l0 -1.0l-3.125 0l0 1.0zm0 1.8125l3.125 0l0 -1.0625l-3.125 0l0 1.0625zm4.375 -1.8125l3.1875 0l0 -1.0l-3.1875 0l0 1.0zm3.1875 1.8125l0 -1.0625l-3.1875 0l0 1.0625l3.1875 0zm16.5 1.875q1.25 1.1875 2.2499962 2.9375l-1.4999962 0.75q-0.875 -1.875 -1.875 -3.0625l1.125 -0.625zm-2.875 0.0625q1.0625 1.75 1.25 3.375l-1.5625 0.375q-0.25 -1.6875 -0.9375 -3.3125l1.25 -0.4375zm-8.25 3.0625q1.125 -1.125 1.8125 -3.0l1.3125 0.5q-0.4375 1.875 -1.75 3.3125l-1.375 -0.8125zm5.4375 -2.6875q0.5 1.1875 0.375 3.3125l-1.5 0.0625q0.0625 -2.125 -0.1875 -3.3125l1.3125 -0.0625zm4.875 -2.375l0 -2.4375l-7.0 0l0 2.4375l7.0 0zm-3.3125 -8.25q0.5 0.0625 0.0625 0.375l0 1.375l5.25 0l0 1.1875l-5.25 0l0 1.6875l4.6875 0l0 5.1875l-1.4375 0l0 -0.375l-7.0 0l0 0.5l-1.4375 0l0 -5.3125l3.75 0l0 -4.625l1.375 0z" fill-rule="nonzero"/><path fill="#000000" fill-opacity="0.0" d="m341.5538 259.61417l100.53543 0l0 38.771667l-100.53543 0z" fill-rule="evenodd"/><path fill="#000000" d="m354.57153 277.09918l10.8125 0l0 4.625l-1.25 0l0 -0.5625l-8.3125 0q0.125 2.5625 -2.0 4.375l-1.0 -1.0q1.75 -1.1875 1.75 -3.25l0 -4.1875zm12.25 -4.5l0 1.1875l-6.4375 0l0 1.1875l5.1875 0l0 1.1875l-11.5 0l0 -1.1875l5.0625 0l0 -1.1875l-6.25 0l0 -1.1875l6.25 0l0 -1.625l1.1875 0q0.5 0.0625 0.0625 0.375l0 1.25l6.4375 0zm-7.5625 5.6875l-3.4375 0l0 1.6875l3.4375 0l0 -1.6875zm4.875 0l-3.625 0l0 1.6875l3.625 0l0 -1.6875zm12.0 -6.5l6.0625 0l0 12.1875q0 1.0625 -1.0625 1.0625l-1.5625 0l-0.1875 -1.1875l1.375 0q0.1875 0 0.1875 -0.1875l0 -3.375l-3.5625 0q-0.1875 3.3125 -4.4375 5.0625l-0.625 -1.375q3.8125 -1.0 3.8125 -4.375l0 -7.8125zm-5.4375 8.5625l2.75 0l0 -3.125l-2.75 0l0 3.125zm0 -4.3125l2.75 0l0 -2.6875l-2.75 0l0 2.6875zm0 5.5l0 1.0625l-1.25 0l0 -10.4375l5.25 0l0 9.375l-4.0 0zm10.25 -4.9375l-3.5625 0l0 2.5l3.5625 0l0 -2.5zm-3.5625 -1.1875l3.5625 0l0 -2.4375l-3.5625 0l0 2.4375zm18.0625 6.25q0.8125 1.5 1.4375 1.5q0.25 0 0.3125 -0.375l0.125 -1.0625l1.375 0.625l-0.25 1.5q-0.1875 1.0625 -1.125 1.0625q-1.875 0 -3.1875 -2.5625q-1.25 -2.4375 -1.3125 -6.875l-7.6875 0l0 -1.375l7.625 0l0 -2.875l1.375 0q0.625 0.125 0.0625 0.5l0 2.375l4.375 0l0 1.375l-4.375 0q0.25 4.375 1.25 6.1875zm-2.4375 1.125q-3.5 0.75 -7.0625 1.375q-0.125 0.5625 -0.4375 0.125l-0.3125 -1.5625q1.5625 -0.125 3.0625 -0.375l0 -3.5625l-2.5 0l0 -1.1875l6.1875 0l0 1.1875l-2.4375 0l0 3.375q1.4375 -0.1875 3.3125 -0.5625l0.1875 1.1875zm2.875 -11.25q0.875 0.4375 1.6875 1.1875l-1.125 0.9375q-0.625 -0.625 -1.625 -1.1875l1.0625 -0.9375z" fill-rule="nonzero"/><path fill="#000000" d="m410.50903 270.84918q0.25 1.0 0.5 1.875l3.25 0q-0.0625 0.75 -0.0625 1.6875q0 0.9375 0.0625 1.625l-6.6875 0q-0.0625 0.9375 -0.125 1.5625l7.375 0q-0.0625 1.0 -0.0625 2.125l0 4.3125q0 0.9375 -0.40625 1.1875q-0.40625 0.25 -1.34375 0.5q-0.1875 -0.75 -0.5625 -1.375q0.875 0 1.0625 -0.09375q0.1875 -0.09375 0.1875 -0.65625l0 -2.125l-1.25 0q0 1.375 0.0625 2.625l-1.125 0q0.0625 -1.25 0.0625 -2.625l-1.25 0q0 1.9375 0.0625 2.6875l-1.125 0q0.0625 -0.75 0.0625 -2.6875l-1.25 0l0 4.125l-1.1875 0q0.125 -1.1875 0.125 -2.3125l0 -3.375q-0.5 1.375 -1.1875 2.5625q-0.4375 -0.8125 -0.8125 -1.25q0.5625 -0.75 0.875 -1.5q0.3125 -0.75 0.5 -2.0625q0.1875 -1.3125 0.1875 -2.625q0 -1.3125 -0.0625 -2.3125l3.25 0q-0.125 -0.6875 -0.4375 -1.5q0.8125 -0.1875 1.3125 -0.375zm-6.125 0.9375q-0.375 0.375 -1.09375 1.8125q-0.71875 1.4375 -1.28125 2.5l1.75 -0.0625q0.375 -0.75 0.75 -1.6875q0.5625 0.4375 1.25 0.875q-0.5625 0.5625 -1.28125 1.71875q-0.71875 1.15625 -1.96875 2.84375q1.3125 -0.125 2.5 -0.3125l-0.125 1.125q-0.75 0.0625 -1.6875 0.1875q-0.9375 0.125 -2.0 0.5625q-0.125 -0.6875 -0.375 -1.3125q0.5 -0.0625 1.0625 -0.875q0.5625 -0.8125 1.4375 -2.1875q-0.5625 0 -1.125 0.0625q-0.5625 0.0625 -1.25 0.3125q-0.1875 -0.75 -0.4375 -1.3125q0.625 -0.125 1.3125 -1.71875q0.6875 -1.59375 1.0625 -3.15625q0.75 0.4375 1.5 0.625zm8.75 3.375l0 -1.5625l-5.5625 0l0 1.5625l5.5625 0zm-8.0625 6.8125q-0.0625 0.6875 0 1.25q-1.3125 0.3125 -2.21875 0.625q-0.90625 0.3125 -2.03125 0.875l-0.5 -1.5q0.75 -0.0625 2.09375 -0.40625q1.34375 -0.34375 2.65625 -0.84375zm6.375 -1.375l0 -2.125l-1.25 0l0 2.125l1.25 0zm2.25 0l0 -2.125l-1.25 0l0 2.125l1.25 0zm-4.5 0l0 -2.125l-1.25 0l0 2.125l1.25 0z" fill-rule="nonzero"/><path fill="#000000" d="m421.82153 280.66168l-1.375 -1.5625l0 6.25l-1.25 0l0 -5.9375q-0.9375 1.75 -2.0 2.6875l-0.8125 -1.1875q2.125 -2.0625 2.8125 -4.6875l-2.3125 0l0 -1.1875l2.3125 0l0 -1.75l-1.9375 0.3125l-0.375 -1.25q3.0 -0.5 4.8125 -1.1875l0.875 1.1875q0.0625 0.4375 -0.375 0.1875l-1.75 0.5l0 2.0l2.25 0l0 1.1875l-2.25 0l0 1.25q1.0 0.6875 2.3125 2.0625l-0.9375 1.125zm5.5625 -1.4375l0 1.625l2.625 0l0 1.1875l-2.625 0l0 1.6875l3.5 0l0 1.1875l-8.875 0l0 -1.1875l4.125 0l0 -1.6875l-2.8125 0l0 -1.1875l2.8125 0l0 -1.625l-3.0625 0l0 -1.1875l7.375 0l0 1.1875l-3.0625 0zm1.4375 -6.125l-3.9375 0l0 2.25l3.9375 0l0 -2.25zm0 4.0l0 -0.5625l-3.9375 0l0 0.625l-1.25 0l0 -5.25l6.4375 0l0 5.1875l-1.25 0z" fill-rule="nonzero"/><path fill="#000000" fill-opacity="0.0" d="m72.27559 259.61417l100.53543 0l0 38.771667l-100.53543 0z" fill-rule="evenodd"/><path fill="#000000" d="m83.355804 275.72418q4.5625 -1.5 6.5625 -4.75l1.5 0.1875q0.25 0.25 -0.1875 0.3125l-0.0625 0.125q2.6875 2.8125 6.4375 3.6875l-0.6875 1.375q-1.75 -0.5 -3.25 -1.5l0 1.0625l-6.375 0l0 -0.9375q-1.5625 1.0625 -3.3125 1.6875l-0.625 -1.25zm7.0625 -3.3125q-1.0625 1.4375 -2.75 2.625l5.6875 0q-1.25 -0.8125 -2.9375 -2.625zm3.125 10.1875l1.3125 0q0.1875 0 0.1875 -0.1875l0 -3.8125l-2.6875 0l0 6.875l-1.25 0l0 -8.0625l5.1875 0l0 5.3125q0 1.0625 -1.0625 1.0625l-1.5 0l-0.1875 -1.1875zm-8.8125 -5.125l5.0 0l0 6.1875l-1.25 0l0 -0.5625l-2.5 0l0 0.9375l-1.25 0l0 -6.5625zm3.75 1.1875l-2.5 0l0 3.25l2.5 0l0 -3.25zm18.875 -7.3125q0.25 0.25 -0.1875 0.3125q2.375 2.875 6.5 4.1875l-0.5625 1.375q-4.25 -1.5 -6.6875 -4.6875q-2.0 3.1875 -6.3125 5.0l-0.6875 -1.375q4.4375 -1.5 6.375 -5.125l1.5625 0.3125zm-3.9375 4.5l6.3125 0l0 1.1875l-6.3125 0l0 -1.1875zm8.0 7.3125q0 0.875 -0.8125 0.875l-2.0 0l-0.1875 -1.1875l1.5 0q0.25 0 0.25 -0.25l0 -3.0625l-3.9375 0l0 5.875l-1.25 0l0 -5.875l-4.0 0l0 -1.1875l10.4375 0l0 4.8125zm14.75 -1.5q0.8125 1.5 1.4375 1.5q0.25 0 0.3125 -0.375l0.125 -1.0625l1.375 0.625l-0.25 1.5q-0.1875 1.0625 -1.125 1.0625q-1.875 0 -3.1875 -2.5625q-1.25 -2.4375 -1.3125 -6.875l-7.6875 0l0 -1.375l7.625 0l0 -2.875l1.375 0q0.625 0.125 0.0625 0.5l0 2.375l4.375 0l0 1.375l-4.375 0q0.25 4.375 1.25 6.1875zm-2.4375 1.125q-3.5 0.75 -7.0625 1.375q-0.125 0.5625 -0.4375 0.125l-0.3125 -1.5625q1.5625 -0.125 3.0625 -0.375l0 -3.5625l-2.5 0l0 -1.1875l6.1875 0l0 1.1875l-2.4375 0l0 3.375q1.4375 -0.1875 3.3125 -0.5625l0.1875 1.1875zm2.875 -11.25q0.875 0.4375 1.6875 1.1875l-1.125 0.9375q-0.625 -0.625 -1.625 -1.1875l1.0625 -0.9375z" fill-rule="nonzero"/><path fill="#000000" d="m141.2308 270.84918q0.25 1.0 0.5 1.875l3.25 0q-0.0625 0.75 -0.0625 1.6875q0 0.9375 0.0625 1.625l-6.6875 0q-0.0625 0.9375 -0.125 1.5625l7.375 0q-0.0625 1.0 -0.0625 2.125l0 4.3125q0 0.9375 -0.40625 1.1875q-0.40625 0.25 -1.34375 0.5q-0.1875 -0.75 -0.5625 -1.375q0.875 0 1.0625 -0.09375q0.1875 -0.09375 0.1875 -0.65625l0 -2.125l-1.25 0q0 1.375 0.0625 2.625l-1.125 0q0.0625 -1.25 0.0625 -2.625l-1.25 0q0 1.9375 0.0625 2.6875l-1.125 0q0.0625 -0.75 0.0625 -2.6875l-1.25 0l0 4.125l-1.1875 0q0.125 -1.1875 0.125 -2.3125l0 -3.375q-0.5 1.375 -1.1875 2.5625q-0.4375 -0.8125 -0.8125 -1.25q0.5625 -0.75 0.875 -1.5q0.3125 -0.75 0.5 -2.0625q0.1875 -1.3125 0.1875 -2.625q0 -1.3125 -0.0625 -2.3125l3.25 0q-0.125 -0.6875 -0.4375 -1.5q0.8125 -0.1875 1.3125 -0.375zm-6.125 0.9375q-0.375 0.375 -1.09375 1.8125q-0.71875 1.4375 -1.28125 2.5l1.75 -0.0625q0.375 -0.75 0.75 -1.6875q0.5625 0.4375 1.25 0.875q-0.5625 0.5625 -1.28125 1.71875q-0.71875 1.15625 -1.96875 2.84375q1.3125 -0.125 2.5 -0.3125l-0.125 1.125q-0.75 0.0625 -1.6875 0.1875q-0.9375 0.125 -2.0 0.5625q-0.125 -0.6875 -0.375 -1.3125q0.5 -0.0625 1.0625 -0.875q0.5625 -0.8125 1.4375 -2.1875q-0.5625 0 -1.125 0.0625q-0.5625 0.0625 -1.25 0.3125q-0.1875 -0.75 -0.4375 -1.3125q0.625 -0.125 1.3125 -1.71875q0.6875 -1.59375 1.0625 -3.15625q0.75 0.4375 1.5 0.625zm8.75 3.375l0 -1.5625l-5.5625 0l0 1.5625l5.5625 0zm-8.0625 6.8125q-0.0625 0.6875 0 1.25q-1.3125 0.3125 -2.21875 0.625q-0.90625 0.3125 -2.03125 0.875l-0.5 -1.5q0.75 -0.0625 2.09375 -0.40625q1.34375 -0.34375 2.65625 -0.84375zm6.375 -1.375l0 -2.125l-1.25 0l0 2.125l1.25 0zm2.25 0l0 -2.125l-1.25 0l0 2.125l1.25 0zm-4.5 0l0 -2.125l-1.25 0l0 2.125l1.25 0z" fill-rule="nonzero"/><path fill="#000000" d="m152.5433 280.66168l-1.375 -1.5625l0 6.25l-1.25 0l0 -5.9375q-0.9375 1.75 -2.0 2.6875l-0.8125 -1.1875q2.125 -2.0625 2.8125 -4.6875l-2.3125 0l0 -1.1875l2.3125 0l0 -1.75l-1.9375 0.3125l-0.375 -1.25q3.0 -0.5 4.8125 -1.1875l0.875 1.1875q0.0625 0.4375 -0.375 0.1875l-1.75 0.5l0 2.0l2.25 0l0 1.1875l-2.25 0l0 1.25q1.0 0.6875 2.3125 2.0625l-0.9375 1.125zm5.5625 -1.4375l0 1.625l2.625 0l0 1.1875l-2.625 0l0 1.6875l3.5 0l0 1.1875l-8.875 0l0 -1.1875l4.125 0l0 -1.6875l-2.8125 0l0 -1.1875l2.8125 0l0 -1.625l-3.0625 0l0 -1.1875l7.375 0l0 1.1875l-3.0625 0zm1.4375 -6.125l-3.9375 0l0 2.25l3.9375 0l0 -2.25zm0 4.0l0 -0.5625l-3.9375 0l0 0.625l-1.25 0l0 -5.25l6.4375 0l0 5.1875l-1.25 0z" fill-rule="nonzero"/><path fill="#000000" fill-opacity="0.0" d="m118.32284 22.87664l100.53542 0l0 38.771652l-100.53542 0z" fill-rule="evenodd"/><path fill="#000000" d="m154.97726 47.23664l0 -11.453125l1.40625 0l0 4.109375q0.984375 -1.140625 2.484375 -1.140625q0.921875 0 1.59375 0.359375q0.6875 0.359375 0.96875 1.0q0.296875 0.640625 0.296875 1.859375l0 5.265625l-1.40625 0l0 -5.265625q0 -1.046875 -0.453125 -1.53125q-0.453125 -0.484375 -1.296875 -0.484375q-0.625 0 -1.171875 0.328125q-0.546875 0.328125 -0.78125 0.890625q-0.234375 0.546875 -0.234375 1.515625l0 4.546875l-1.40625 0zm8.3671875 -4.15625q0 -2.296875 1.28125 -3.40625q1.078125 -0.921875 2.609375 -0.921875q1.71875 0 2.796875 1.125q1.09375 1.109375 1.09375 3.09375q0 1.59375 -0.484375 2.515625q-0.484375 0.921875 -1.40625 1.4375q-0.90625 0.5 -2.0 0.5q-1.734375 0 -2.8125 -1.109375q-1.078125 -1.125 -1.078125 -3.234375zm1.453125 0q0 1.59375 0.6875 2.390625q0.703125 0.796875 1.75 0.796875q1.046875 0 1.734375 -0.796875q0.703125 -0.796875 0.703125 -2.4375q0 -1.53125 -0.703125 -2.328125q-0.6875 -0.796875 -1.734375 -0.796875q-1.046875 0 -1.75 0.796875q-0.6875 0.78125 -0.6875 2.375zm9.5078125 4.15625l-2.546875 -8.296875l1.453125 0l1.328125 4.78125l0.484375 1.78125q0.03125 -0.125 0.4375 -1.703125l1.3125 -4.859375l1.453125 0l1.234375 4.8125l0.421875 1.578125l0.46875 -1.59375l1.421875 -4.796875l1.375 0l-2.59375 8.296875l-1.46875 0l-1.3125 -4.96875l-0.328125 -1.421875l-1.671875 6.390625l-1.46875 0z" fill-rule="nonzero"/><path fill="#000000" fill-opacity="0.0" d="m101.96326 156.75853l100.53543 0l0 38.771652l-100.53543 0z" fill-rule="evenodd"/><path fill="#000000" d="m137.92628 181.11853l-2.546875 -8.296875l1.453125 0l1.328125 4.78125l0.484375 1.78125q0.03125 -0.125 0.4375 -1.703125l1.3125 -4.859375l1.453125 0l1.234375 4.8125l0.421875 1.578125l0.46875 -1.59375l1.421875 -4.796875l1.375 0l-2.59375 8.296875l-1.46875 0l-1.3125 -4.96875l-0.328125 -1.421875l-1.671875 6.390625l-1.46875 0zm10.0234375 0l0 -11.453125l1.40625 0l0 4.109375q0.984375 -1.140625 2.484375 -1.140625q0.921875 0 1.59375 0.359375q0.6875 0.359375 0.96875 1.0q0.296875 0.640625 0.296875 1.859375l0 5.265625l-1.40625 0l0 -5.265625q0 -1.046875 -0.453125 -1.53125q-0.453125 -0.484375 -1.296875 -0.484375q-0.625 0 -1.171875 0.328125q-0.546875 0.328125 -0.78125 0.890625q-0.234375 0.546875 -0.234375 1.515625l0 4.546875l-1.40625 0zm14.3046875 -1.03125q-0.78125 0.671875 -1.5 0.953125q-0.71875 0.265625 -1.546875 0.265625q-1.375 0 -2.109375 -0.671875q-0.734375 -0.671875 -0.734375 -1.703125q0 -0.609375 0.28125 -1.109375q0.28125 -0.515625 0.71875 -0.8125q0.453125 -0.3125 1.015625 -0.46875q0.421875 -0.109375 1.25 -0.203125q1.703125 -0.203125 2.515625 -0.484375q0 -0.296875 0 -0.375q0 -0.859375 -0.390625 -1.203125q-0.546875 -0.484375 -1.609375 -0.484375q-0.984375 0 -1.46875 0.359375q-0.46875 0.34375 -0.6875 1.21875l-1.375 -0.1875q0.1875 -0.875 0.609375 -1.421875q0.4375 -0.546875 1.25 -0.828125q0.8125 -0.296875 1.875 -0.296875q1.0625 0 1.71875 0.25q0.671875 0.25 0.984375 0.625q0.3125 0.375 0.4375 0.953125q0.078125 0.359375 0.078125 1.296875l0 1.875q0 1.96875 0.078125 2.484375q0.09375 0.515625 0.359375 1.0l-1.46875 0q-0.21875 -0.4375 -0.28125 -1.03125zm-0.109375 -3.140625q-0.765625 0.3125 -2.296875 0.53125q-0.875 0.125 -1.234375 0.28125q-0.359375 0.15625 -0.5625 0.46875q-0.1875 0.296875 -0.1875 0.65625q0 0.5625 0.421875 0.9375q0.4375 0.375 1.25 0.375q0.8125 0 1.4375 -0.34375q0.640625 -0.359375 0.9375 -0.984375q0.234375 -0.46875 0.234375 -1.40625l0 -0.515625zm6.6640625 2.90625l0.203125 1.25q-0.59375 0.125 -1.0625 0.125q-0.765625 0 -1.1875 -0.234375q-0.421875 -0.25 -0.59375 -0.640625q-0.171875 -0.40625 -0.171875 -1.671875l0 -4.765625l-1.03125 0l0 -1.09375l1.03125 0l0 -2.0625l1.40625 -0.84375l0 2.90625l1.40625 0l0 1.09375l-1.40625 0l0 4.84375q0 0.609375 0.0625 0.78125q0.078125 0.171875 0.25 0.28125q0.171875 0.09375 0.484375 0.09375q0.234375 0 0.609375 -0.0625z" fill-rule="nonzero"/></g></svg>