<?xml version="1.0" encoding="utf-8"?>
<!-- Generator: Adobe Illustrator 22.0.1, SVG Export Plug-In . SVG Version: 6.00 Build 0)  -->
<svg version="1.1" id="Layer_1" xmlns="http://www.w3.org/2000/svg" xmlns:xlink="http://www.w3.org/1999/xlink" x="0px" y="0px"
	 viewBox="0 0 520 530" style="enable-background:new 0 0 520 530;" xml:space="preserve">
<style type="text/css">
	.st0{opacity:5.000000e-02;fill:#343741;}
	.st1{fill:url(#SVGID_1_);}
	.st2{fill:#FFFFFF;}
	.st3{fill:#343741;}
	.st4{fill:#00A9E5;}
	.st5{fill:url(#SVGID_2_);}
	.st6{fill:#FED10A;}
	.st7{clip-path:url(#SVGID_4_);}
	.st8{clip-path:url(#SVGID_6_);}
	.st9{fill:url(#SVGID_7_);}
	.st10{fill:#00BFB3;}
	.st11{clip-path:url(#SVGID_9_);}
	.st12{fill:url(#SVGID_10_);}
	.st13{fill:#F04E98;}
	.st14{opacity:0.2;}
	.st15{fill:#31C8FA;}
	.st16{opacity:0.47;}
	.st17{opacity:0.83;}
	.st18{fill:none;}
	.st19{fill:#FFFFFF;stroke:#CCCCCC;stroke-width:0.7595;stroke-miterlimit:10;}
</style>
<title>ELK Page Assets Outlined</title>
<g>
	<g id="Stack">
		<path class="st0" d="M50.1,401.1l215.4-123.7c1.2-0.7,2.8-0.7,4,0l87.4,50.4c1.9,1.1,2.6,3.6,1.5,5.5c-0.3,0.6-0.9,1.1-1.5,1.5
			L143.7,459.5c-1.2,0.7-2.8,0.7-4,0L50.1,408c-1.9-1.1-2.6-3.5-1.5-5.5C49,402,49.5,401.5,50.1,401.1z"/>
		<path class="st0" d="M170.4,473.2l215.4-123.7c1.2-0.7,2.8-0.7,4,0l87.4,50.4c1.9,1.1,2.6,3.6,1.5,5.5c-0.3,0.6-0.9,1.1-1.5,1.5
			L264,531.5c-1.2,0.7-2.8,0.7-4,0l-89.6-51.5c-1.9-1.1-2.6-3.5-1.5-5.5C169.3,474,169.8,473.5,170.4,473.2z"/>
		
			<linearGradient id="SVGID_1_" gradientUnits="userSpaceOnUse" x1="198.5821" y1="134.849" x2="198.5821" y2="195.599" gradientTransform="matrix(1 0 0 -1 0 574.618)">
			<stop  offset="0" style="stop-color:#31C8FA"/>
			<stop  offset="1" style="stop-color:#0078A0"/>
		</linearGradient>
		<path class="st1" d="M45.2,365.8l215.4-123.7c1.2-0.7,2.8-0.7,4,0l87.4,50.4c1.9,1.1,2.6,3.6,1.5,5.5c-0.3,0.6-0.9,1.1-1.5,1.5
			L138.8,424.1c-1.2,0.7-2.8,0.7-4,0l-89.6-51.5c-1.9-1.1-2.6-3.5-1.5-5.5C44.1,366.6,44.6,366.1,45.2,365.8z"/>
		<path class="st2" d="M259.3,537.3c0-0.6,0.4-1,1-1l0,0c0.6,0,1,0.4,1,1l0,0c0,0.6-0.4,1-1,1l0,0
			C259.8,538.3,259.3,537.9,259.3,537.3z M259.3,529.3c0-0.6,0.4-1,1-1l0,0c0.6,0,1,0.4,1,1l0,0c0,0.6-0.4,1-1,1l0,0
			C259.8,530.3,259.3,529.9,259.3,529.3z M259.3,521.3c0-0.6,0.4-1,1-1l0,0c0.6,0,1,0.4,1,1l0,0c0,0.6-0.4,1-1,1l0,0
			C259.8,522.3,259.3,521.9,259.3,521.3z M259.3,513.3c0-0.6,0.4-1,1-1l0,0c0.6,0,1,0.4,1,1l0,0c0,0.6-0.4,1-1,1l0,0
			C259.8,514.3,259.3,513.9,259.3,513.3z M259.3,505.3c0-0.6,0.4-1,1-1l0,0c0.6,0,1,0.4,1,1l0,0c0,0.6-0.4,1-1,1l0,0
			C259.8,506.3,259.3,505.9,259.3,505.3z M259.3,497.3c0-0.6,0.4-1,1-1l0,0c0.6,0,1,0.4,1,1l0,0c0,0.6-0.4,1-1,1l0,0
			C259.8,498.3,259.3,497.9,259.3,497.3z M259.3,489.3c0-0.6,0.4-1,1-1l0,0c0.6,0,1,0.4,1,1l0,0c0,0.6-0.4,1-1,1l0,0
			C259.8,490.3,259.3,489.9,259.3,489.3z M259.3,481.3c0-0.6,0.4-1,1-1l0,0c0.6,0,1,0.4,1,1l0,0c0,0.6-0.4,1-1,1l0,0
			C259.8,482.3,259.3,481.9,259.3,481.3z M259.3,473.3c0-0.6,0.4-1,1-1l0,0c0.6,0,1,0.4,1,1l0,0c0,0.6-0.4,1-1,1l0,0
			C259.8,474.3,259.3,473.9,259.3,473.3z M259.3,465.3c0-0.6,0.4-1,1-1l0,0c0.6,0,1,0.4,1,1l0,0c0,0.6-0.4,1-1,1l0,0
			C259.8,466.3,259.3,465.9,259.3,465.3z M259.3,457.3c0-0.6,0.4-1,1-1l0,0c0.6,0,1,0.4,1,1l0,0c0,0.6-0.4,1-1,1l0,0
			C259.8,458.3,259.3,457.9,259.3,457.3z M259.3,449.3c0-0.6,0.4-1,1-1l0,0c0.6,0,1,0.4,1,1l0,0c0,0.6-0.4,1-1,1l0,0
			C259.8,450.3,259.3,449.9,259.3,449.3z M259.3,441.3c0-0.6,0.4-1,1-1l0,0c0.6,0,1,0.4,1,1l0,0c0,0.6-0.4,1-1,1l0,0
			C259.8,442.3,259.3,441.9,259.3,441.3z M259.3,433.3c0-0.6,0.4-1,1-1l0,0c0.6,0,1,0.4,1,1l0,0c0,0.6-0.4,1-1,1l0,0
			C259.8,434.3,259.3,433.9,259.3,433.3z M259.3,425.3c0-0.6,0.4-1,1-1l0,0c0.6,0,1,0.4,1,1l0,0c0,0.6-0.4,1-1,1l0,0
			C259.8,426.3,259.3,425.9,259.3,425.3z M259.3,417.3c0-0.6,0.4-1,1-1l0,0c0.6,0,1,0.4,1,1l0,0c0,0.6-0.4,1-1,1l0,0
			C259.8,418.3,259.3,417.9,259.3,417.3z M259.3,409.3c0-0.6,0.4-1,1-1l0,0c0.6,0,1,0.4,1,1l0,0c0,0.6-0.4,1-1,1l0,0
			C259.8,410.3,259.3,409.9,259.3,409.3z M259.3,401.3c0-0.6,0.4-1,1-1l0,0c0.6,0,1,0.4,1,1l0,0c0,0.6-0.4,1-1,1l0,0
			C259.8,402.3,259.3,401.9,259.3,401.3z M259.3,393.3c0-0.6,0.4-1,1-1l0,0c0.6,0,1,0.4,1,1l0,0c0,0.6-0.4,1-1,1l0,0
			C259.8,394.3,259.3,393.9,259.3,393.3z M259.3,385.3c0-0.6,0.4-1,1-1l0,0c0.6,0,1,0.4,1,1l0,0c0,0.6-0.4,1-1,1l0,0
			C259.8,386.3,259.3,385.9,259.3,385.3z"/>
		<path class="st3" d="M45.2,361.8l215.4-123.7c1.2-0.7,2.8-0.7,4,0l87.4,50.4c1.9,1.1,2.6,3.6,1.5,5.5c-0.3,0.6-0.9,1.1-1.5,1.5
			L138.8,420.1c-1.2,0.7-2.8,0.7-4,0l-89.6-51.5c-1.9-1.1-2.6-3.5-1.5-5.5C44.1,362.6,44.6,362.1,45.2,361.8z"/>
		<path class="st4" d="M262.6,238.6L262.6,238.6c0.5,0,1,0.1,1.5,0.4l87.4,50.4c1.4,0.8,1.9,2.7,1.1,4.1c-0.3,0.5-0.6,0.8-1.1,1.1
			L138.3,419.3c-0.9,0.5-2.1,0.5-3,0l-89.6-51.5c-1.4-0.8-1.9-2.7-1.1-4.1c0.3-0.5,0.6-0.8,1.1-1.1L261.1,239
			C261.6,238.7,262.1,238.6,262.6,238.6 M262.6,237.6c-0.7,0-1.4,0.2-2,0.5L45.2,361.8c-1.9,1.1-2.6,3.5-1.5,5.5
			c0.4,0.6,0.9,1.1,1.5,1.5l89.6,51.5c1.2,0.7,2.8,0.7,4,0L352,295.4c1.9-1.1,2.6-3.6,1.5-5.5c-0.3-0.6-0.9-1.1-1.5-1.5l-87.4-50.4
			C264,237.7,263.3,237.6,262.6,237.6L262.6,237.6z"/>
		
			<linearGradient id="SVGID_2_" gradientUnits="userSpaceOnUse" x1="320.5303" y1="65.329" x2="320.5303" y2="168.769" gradientTransform="matrix(1 0 0 -1 0 574.618)">
			<stop  offset="0" style="stop-color:#FED10A"/>
			<stop  offset="1" style="stop-color:#E5830E"/>
		</linearGradient>
		<path class="st5" d="M167.1,440.9l215.4-123.7c1.2-0.7,2.8-0.7,4,0l87.4,50.4c1.9,1.1,2.6,3.6,1.5,5.5c-0.3,0.6-0.9,1.1-1.5,1.5
			L260.8,499.3c-1.2,0.7-2.8,0.7-4,0l-89.6-51.5c-1.9-1.1-2.6-3.5-1.5-5.5C166,441.8,166.5,441.3,167.1,440.9z"/>
		<path class="st3" d="M167.1,436.9l215.4-123.7c1.2-0.7,2.8-0.7,4,0l87.4,50.4c1.9,1.1,2.6,3.6,1.5,5.5c-0.3,0.6-0.9,1.1-1.5,1.5
			L260.8,495.3c-1.2,0.7-2.8,0.7-4,0l-89.6-51.5c-1.9-1.1-2.6-3.5-1.5-5.5C166,437.8,166.5,437.3,167.1,436.9z"/>
		<path class="st6" d="M384.5,313.7c0.5,0,1,0.1,1.5,0.4l87.4,50.4c1.4,0.8,1.9,2.7,1.1,4.1c-0.3,0.5-0.6,0.8-1.1,1.1L260.3,494.4
			c-0.9,0.5-2.1,0.5-3,0L167.6,443c-1.4-0.8-1.9-2.7-1.1-4.1c0.3-0.5,0.6-0.8,1.1-1.1l215.4-123.7
			C383.5,313.8,384,313.7,384.5,313.7 M384.5,312.7c-0.7,0-1.4,0.2-2,0.5L167.1,436.9c-1.9,1.1-2.6,3.5-1.5,5.5
			c0.4,0.6,0.9,1.1,1.5,1.5l89.6,51.5c1.2,0.7,2.8,0.7,4,0L474,370.6c1.9-1.1,2.6-3.6,1.5-5.5c-0.3-0.6-0.9-1.1-1.5-1.5l-87.4-50.4
			C385.9,312.9,385.2,312.7,384.5,312.7z"/>
		<g>
			<defs>
				<path id="SVGID_3_" d="M170.3,437.4L383.6,315c1.2-0.7,2.7-0.7,4,0l86.5,49.9c1.9,1.1,2.5,3.6,1.4,5.5c-0.3,0.6-0.8,1-1.4,1.4
					L263,495.1c-1.2,0.7-2.8,0.7-4,0l-88.7-50.9c-1.9-1.1-2.5-3.6-1.4-5.5C169.3,438.2,169.8,437.7,170.3,437.4z"/>
			</defs>
			<clipPath id="SVGID_4_">
				<use xlink:href="#SVGID_3_"  style="overflow:visible;"/>
			</clipPath>
			<g class="st7">
				<path d="M46.3,307.2l213.2-122.4c1.2-0.7,2.7-0.7,3.9,0l213.2,122.4c1.9,1.1,2.5,3.6,1.4,5.5c-0.3,0.6-0.8,1-1.4,1.4
					L263.5,436.5c-1.2,0.7-2.7,0.7-3.9,0L46.3,314.1c-1.9-1.1-2.5-3.6-1.4-5.5C45.3,308,45.8,307.6,46.3,307.2z"/>
			</g>
		</g>
		<g>
			<defs>
				<path id="SVGID_5_" d="M17.3,379.3L228,257.6c1.2-0.7,2.7-0.7,3.9,0l85.4,49.6c1.9,1.2,2.5,3.6,1.3,5.5c-0.3,0.5-0.8,1-1.3,1.3
					L108.9,436.8c-1.2,0.7-2.7,0.7-3.9,0l-87.6-50.6c-1.9-1.2-2.5-3.6-1.3-5.5C16.4,380.1,16.8,379.6,17.3,379.3z"/>
			</defs>
			<clipPath id="SVGID_6_">
				<use xlink:href="#SVGID_5_"  style="overflow:visible;"/>
			</clipPath>
			<g class="st8">
				<path d="M13.7,285.8l210.7-121.7c1.2-0.7,2.7-0.7,3.9,0L439,285.8c1.9,1.2,2.5,3.6,1.3,5.5c-0.3,0.5-0.8,1-1.3,1.3L228.3,414.4
					c-1.2,0.7-2.7,0.7-3.9,0L13.7,292.6c-1.9-1.2-2.5-3.6-1.3-5.5C12.7,286.6,13.1,286.2,13.7,285.8z"/>
			</g>
		</g>
		
			<linearGradient id="SVGID_7_" gradientUnits="userSpaceOnUse" x1="261.8971" y1="252.779" x2="261.8971" y2="129.639" gradientTransform="matrix(1 0 0 -1 0 574.618)">
			<stop  offset="0" style="stop-color:#017169"/>
			<stop  offset="1" style="stop-color:#00BFB3"/>
		</linearGradient>
		<path class="st9" d="M44.4,282.8l215.4-123.7c1.2-0.7,2.8-0.7,4,0l215.5,123.7c1.9,1.1,2.6,3.5,1.5,5.5c-0.4,0.6-0.9,1.1-1.5,1.5
			L263.9,413.4c-1.2,0.7-2.8,0.7-4,0L44.4,289.7c-1.9-1.1-2.6-3.5-1.5-5.5C43.3,283.7,43.8,283.2,44.4,282.8z"/>
		<path class="st3" d="M44.4,277.8l215.4-123.7c1.2-0.7,2.8-0.7,4,0l215.5,123.7c1.9,1.1,2.6,3.5,1.5,5.5c-0.4,0.6-0.9,1.1-1.5,1.5
			L263.9,408.4c-1.2,0.7-2.8,0.7-4,0L44.4,284.7c-1.9-1.1-2.6-3.5-1.5-5.5C43.3,278.7,43.8,278.2,44.4,277.8z"/>
		<path class="st10" d="M261.9,154.6c0.5,0,1,0.1,1.5,0.4l215.4,123.7c1.4,0.8,1.9,2.7,1.1,4.1c-0.3,0.5-0.6,0.8-1.1,1.1
			L263.3,407.5c-0.9,0.5-2.1,0.5-3,0L44.9,283.9c-1.4-0.8-1.9-2.7-1.1-4.1c0.3-0.5,0.6-0.8,1.1-1.1L260.3,155
			C260.8,154.7,261.3,154.6,261.9,154.6 M261.8,153.6c-0.7,0-1.4,0.2-2,0.5L44.4,277.8c-1.9,1.1-2.6,3.5-1.5,5.5
			c0.4,0.6,0.9,1.1,1.5,1.5l215.4,123.7c1.2,0.7,2.8,0.7,4,0l215.5-123.7c1.9-1.1,2.6-3.5,1.5-5.5c-0.4-0.6-0.9-1.1-1.5-1.5
			L263.9,154.1C263.3,153.8,262.6,153.6,261.8,153.6L261.8,153.6z"/>
		<g>
			<defs>
				<path id="SVGID_8_" d="M46.4,278.7L259.9,156c1.2-0.7,2.7-0.7,4,0l213.5,122.7c1.9,1.1,2.5,3.6,1.4,5.5
					c-0.3,0.6-0.8,1.1-1.4,1.4L263.9,408.2c-1.2,0.7-2.7,0.7-4,0L46.4,285.6c-1.9-1.1-2.5-3.6-1.4-5.5
					C45.4,279.5,45.9,279,46.4,278.7z"/>
			</defs>
			<clipPath id="SVGID_9_">
				<use xlink:href="#SVGID_8_"  style="overflow:visible;"/>
			</clipPath>
			<g class="st11">
				<path d="M46.4,223.1l213.5-122.7c1.2-0.7,2.7-0.7,4,0l213.5,122.7c1.9,1.1,2.5,3.6,1.4,5.5c-0.3,0.6-0.8,1.1-1.4,1.4
					L263.9,352.7c-1.2,0.7-2.7,0.7-4,0L46.4,230c-1.9-1.1-2.5-3.6-1.4-5.5C45.4,224,45.9,223.5,46.4,223.1z"/>
			</g>
		</g>
		
			<linearGradient id="SVGID_10_" gradientUnits="userSpaceOnUse" x1="261.8971" y1="231.809" x2="261.8971" y2="368.179" gradientTransform="matrix(1 0 0 -1 0 574.618)">
			<stop  offset="0" style="stop-color:#F04E98"/>
			<stop  offset="1" style="stop-color:#AF0058"/>
		</linearGradient>
		<path class="st12" d="M44.4,201L259.9,77.3c1.2-0.7,2.8-0.7,4,0L479.3,201c1.9,1.1,2.6,3.5,1.5,5.5c-0.4,0.6-0.9,1.1-1.5,1.5
			L263.9,331.6c-1.2,0.7-2.8,0.7-4,0L44.4,207.9c-1.9-1.1-2.6-3.5-1.5-5.5C43.3,201.9,43.8,201.4,44.4,201z"/>
		<path class="st3" d="M44.4,196L259.9,72.3c1.2-0.7,2.8-0.7,4,0L479.3,196c1.9,1.1,2.6,3.5,1.5,5.5c-0.4,0.6-0.9,1.1-1.5,1.5
			L263.9,326.6c-1.2,0.7-2.8,0.7-4,0L44.4,202.9c-1.9-1.1-2.6-3.5-1.5-5.5C43.3,196.9,43.8,196.4,44.4,196z"/>
		<path class="st13" d="M261.9,72.8c0.5,0,1,0.1,1.5,0.4l215.4,123.7c1.4,0.8,1.9,2.7,1.1,4.1c-0.3,0.5-0.6,0.8-1.1,1.1L263.3,325.8
			c-0.9,0.5-2.1,0.5-3,0L44.9,202.1c-1.4-0.8-1.9-2.7-1.1-4.1c0.3-0.5,0.6-0.8,1.1-1.1L260.3,73.2C260.8,72.9,261.3,72.8,261.9,72.8
			 M261.8,71.8c-0.7,0-1.4,0.2-2,0.5L44.4,196c-1.9,1.1-2.6,3.5-1.5,5.5c0.4,0.6,0.9,1.1,1.5,1.5l215.4,123.7c1.2,0.7,2.8,0.7,4,0
			l215.5-123.7c1.9-1.1,2.6-3.5,1.5-5.5c-0.4-0.6-0.9-1.1-1.5-1.5L263.9,72.3C263.3,72,262.6,71.8,261.8,71.8L261.8,71.8z"/>
		<g class="st14">
			<path class="st15" d="M202.9,184.6l56.4-32.4c0.3-0.2,0.7-0.2,1,0l56.4,32.4c0.5,0.2,0.7,0.8,0.5,1.3c-0.1,0.2-0.3,0.4-0.5,0.5
				l-56.4,32.4c-0.3,0.2-0.7,0.2-1,0l-56.4-32.4c-0.5-0.2-0.8-0.7-0.6-1.3C202.4,184.9,202.6,184.6,202.9,184.6z"/>
		</g>
		<g class="st16">
			<path class="st15" d="M202.9,145.6l56.4-32.4c0.3-0.2,0.7-0.2,1,0l56.4,32.4c0.5,0.2,0.7,0.8,0.5,1.3c-0.1,0.2-0.3,0.4-0.5,0.5
				l-56.4,32.4c-0.3,0.2-0.7,0.2-1,0l-56.4-32.4c-0.5-0.2-0.7-0.8-0.5-1.3C202.5,145.8,202.7,145.7,202.9,145.6z"/>
		</g>
		<g class="st16">
			<path class="st10" d="M202.9,106.6l56.4-32.4c0.3-0.2,0.7-0.2,1,0l56.4,32.4c0.5,0.2,0.7,0.8,0.5,1.3c-0.1,0.2-0.3,0.4-0.5,0.5
				l-56.4,32.4c-0.3,0.2-0.7,0.2-1,0l-56.4-32.4c-0.5-0.2-0.7-0.8-0.5-1.3C202.5,106.8,202.7,106.7,202.9,106.6z"/>
		</g>
		<g class="st17">
			<path class="st10" d="M202.9,67.6l56.4-32.4c0.3-0.2,0.7-0.2,1,0l56.4,32.4c0.5,0.2,0.7,0.8,0.5,1.3c-0.1,0.2-0.3,0.4-0.5,0.5
				l-56.4,32.4c-0.3,0.2-0.7,0.2-1,0l-56.4-32.4c-0.5-0.2-0.7-0.8-0.5-1.3C202.5,67.8,202.7,67.7,202.9,67.6z"/>
		</g>
		<path class="st2" d="M259.3,189.9c0-0.6,0.4-1,1-1l0,0c0.6,0,1,0.4,1,1l0,0c0,0.6-0.4,1-1,1l0,0
			C259.8,190.9,259.3,190.5,259.3,189.9z M259.3,181.9c0-0.6,0.4-1,1-1l0,0c0.6,0,1,0.4,1,1l0,0c0,0.6-0.4,1-1,1l0,0
			C259.8,182.9,259.3,182.5,259.3,181.9L259.3,181.9z M259.3,173.9c0-0.6,0.4-1,1-1l0,0c0.6,0,1,0.4,1,1l0,0c0,0.6-0.4,1-1,1l0,0
			C259.8,174.9,259.3,174.5,259.3,173.9L259.3,173.9z M259.3,165.9c0-0.6,0.4-1,1-1l0,0c0.6,0,1,0.4,1,1l0,0c0,0.6-0.4,1-1,1l0,0
			C259.8,166.9,259.3,166.5,259.3,165.9L259.3,165.9z M259.3,157.9c0-0.6,0.4-1,1-1l0,0c0.6,0,1,0.4,1,1l0,0c0,0.6-0.4,1-1,1l0,0
			C259.8,158.9,259.3,158.5,259.3,157.9L259.3,157.9z M259.3,149.9c0-0.6,0.4-1,1-1l0,0c0.6,0,1,0.4,1,1l0,0c0,0.6-0.4,1-1,1l0,0
			C259.8,150.9,259.3,150.5,259.3,149.9L259.3,149.9z M259.3,141.9c0-0.6,0.4-1,1-1l0,0c0.6,0,1,0.4,1,1l0,0c0,0.6-0.4,1-1,1l0,0
			C259.8,142.9,259.3,142.5,259.3,141.9L259.3,141.9z M259.3,133.9c0-0.6,0.4-1,1-1l0,0c0.6,0,1,0.4,1,1l0,0c0,0.6-0.4,1-1,1l0,0
			C259.8,134.9,259.3,134.5,259.3,133.9L259.3,133.9z M259.3,125.9c0-0.6,0.4-1,1-1l0,0c0.6,0,1,0.4,1,1l0,0c0,0.6-0.4,1-1,1l0,0
			C259.8,126.9,259.3,126.5,259.3,125.9L259.3,125.9z M259.3,117.9c0-0.6,0.4-1,1-1l0,0c0.6,0,1,0.4,1,1l0,0c0,0.6-0.4,1-1,1l0,0
			C259.8,118.9,259.3,118.5,259.3,117.9L259.3,117.9z M259.3,109.9c0-0.6,0.4-1,1-1l0,0c0.6,0,1,0.4,1,1l0,0c0,0.6-0.4,1-1,1l0,0
			C259.8,110.9,259.3,110.5,259.3,109.9L259.3,109.9z M259.3,101.9c0-0.6,0.4-1,1-1l0,0c0.6,0,1,0.4,1,1l0,0c0,0.6-0.4,1-1,1l0,0
			C259.8,102.9,259.3,102.5,259.3,101.9L259.3,101.9z M259.3,93.9c0-0.6,0.4-1,1-1l0,0c0.6,0,1,0.4,1,1l0,0c0,0.6-0.4,1-1,1l0,0
			C259.8,94.9,259.3,94.5,259.3,93.9L259.3,93.9z M259.3,85.9c0-0.6,0.4-1,1-1l0,0c0.6,0,1,0.4,1,1l0,0c0,0.6-0.4,1-1,1l0,0
			C259.8,86.9,259.3,86.5,259.3,85.9L259.3,85.9z M259.3,77.9c0-0.6,0.4-1,1-1l0,0c0.6,0,1,0.4,1,1l0,0c0,0.6-0.4,1-1,1l0,0
			C259.8,78.9,259.3,78.5,259.3,77.9L259.3,77.9z M259.3,69.9c0-0.6,0.4-1,1-1l0,0c0.6,0,1,0.4,1,1l0,0c0,0.6-0.4,1-1,1l0,0
			C259.8,70.9,259.3,70.5,259.3,69.9L259.3,69.9z M259.3,61.9c0-0.6,0.4-1,1-1l0,0c0.6,0,1,0.4,1,1l0,0c0,0.6-0.4,1-1,1l0,0
			C259.8,62.9,259.3,62.5,259.3,61.9L259.3,61.9z M259.3,53.9c0-0.6,0.4-1,1-1l0,0c0.6,0,1,0.4,1,1l0,0c0,0.6-0.4,1-1,1l0,0
			C259.8,54.9,259.3,54.5,259.3,53.9L259.3,53.9z M259.3,45.9c0-0.6,0.4-1,1-1l0,0c0.6,0,1,0.4,1,1l0,0c0,0.6-0.4,1-1,1l0,0
			C259.8,46.9,259.3,46.5,259.3,45.9L259.3,45.9z M259.3,37.9c0-0.6,0.4-1,1-1l0,0c0.6,0,1,0.4,1,1l0,0c0,0.6-0.4,1-1,1l0,0
			C259.8,38.9,259.3,38.5,259.3,37.9L259.3,37.9z M259.3,29.9c0-0.6,0.4-1,1-1l0,0c0.6,0,1,0.4,1,1l0,0c0,0.6-0.4,1-1,1l0,0
			C259.8,30.9,259.3,30.5,259.3,29.9L259.3,29.9z"/>
		<polygon class="st2" points="254.4,31.7 260.3,21.3 266.3,31.7 		"/>
		<g>
			<path class="st2" d="M88.1,201.4h-1.2l-3.3-4.4l-1,0.9v3.6h-1v-9.1h1.1v4.5l4.1-4.5h1.3l-3.7,4L88.1,201.4z"/>
			<path class="st2" d="M89.1,192.7c0-0.2,0.1-0.4,0.2-0.5c0.1-0.1,0.3-0.2,0.4-0.2c0.2,0,0.3,0.1,0.4,0.2c0.1,0.1,0.2,0.3,0.2,0.5
				c0,0.2,0,0.4-0.2,0.5c-0.2,0.2-0.6,0.2-0.9,0C89.1,193,89.1,192.9,89.1,192.7z M90.2,201.4h-1v-6.8h1V201.4z"/>
			<path class="st2" d="M95.6,194.4c0.8,0,1.6,0.3,2.1,0.9c1,1.6,1,3.6,0,5.2c-0.5,0.6-1.3,1-2.1,0.9c-0.4,0-0.8-0.1-1.2-0.2
				c-0.4-0.2-0.7-0.4-0.9-0.8h-0.1l-0.2,0.9h-0.7v-9.7h1v2.4c0,0.5,0,1,0,1.4l0,0C93.9,194.7,94.7,194.3,95.6,194.4z M95.4,195.3
				c-0.6-0.1-1.1,0.2-1.5,0.6c-0.6,1.3-0.6,2.8,0,4.1c0.4,0.4,1,0.7,1.5,0.6c0.6,0,1.1-0.2,1.4-0.7c0.3-0.6,0.5-1.3,0.5-2
				c0.1-0.7-0.1-1.4-0.5-2C96.5,195.5,96,195.2,95.4,195.3z"/>
			<path class="st2" d="M104.4,201.4l-0.2-1l0,0c-0.3,0.4-0.6,0.7-1,0.9c-0.4,0.2-0.8,0.2-1.3,0.2c-0.6,0-1.2-0.2-1.6-0.5
				c-0.4-0.4-0.6-0.9-0.6-1.5c0-1.4,1.1-2.1,3.3-2.2h1.2v-0.4c0-0.4-0.1-0.8-0.3-1.2c-0.3-0.3-0.7-0.4-1.1-0.4
				c-0.7,0-1.3,0.2-1.9,0.5l-0.3-0.8c0.4-0.2,0.7-0.3,1.1-0.4c0.4-0.1,0.8-0.2,1.2-0.2c0.6-0.1,1.3,0.1,1.8,0.5
				c0.4,0.5,0.6,1.1,0.6,1.7v4.7L104.4,201.4z M102.1,200.6c0.6,0,1.1-0.2,1.5-0.5c0.4-0.4,0.6-0.9,0.6-1.5V198h-1
				c-0.6,0-1.2,0.1-1.8,0.4c-0.4,0.2-0.6,0.6-0.6,1.1c0,0.3,0.1,0.6,0.3,0.9C101.4,200.5,101.8,200.6,102.1,200.6z"/>
			<path class="st2" d="M112,201.4v-4.4c0-0.4-0.1-0.9-0.4-1.2c-0.3-0.3-0.8-0.4-1.2-0.4c-0.6,0-1.2,0.2-1.6,0.6
				c-0.4,0.6-0.6,1.2-0.5,1.9v3.6h-1v-6.8h0.8l0.2,0.9l0,0c0.2-0.3,0.5-0.6,0.9-0.8c0.4-0.2,0.8-0.3,1.3-0.3c0.7,0,1.3,0.2,1.9,0.6
				c0.5,0.5,0.7,1.2,0.6,1.9v4.5L112,201.4z"/>
			<path class="st2" d="M119.4,201.4l-0.2-1l0,0c-0.3,0.4-0.6,0.7-1,0.9c-0.4,0.2-0.8,0.2-1.3,0.2c-0.6,0-1.2-0.2-1.6-0.5
				c-0.4-0.4-0.6-0.9-0.6-1.5c0-1.4,1.1-2.1,3.3-2.2h1.2v-0.4c0-0.4-0.1-0.8-0.3-1.2c-0.3-0.3-0.7-0.4-1.1-0.4
				c-0.7,0-1.3,0.2-1.9,0.5l-0.3-0.8c0.4-0.2,0.7-0.3,1.1-0.4c0.4-0.1,0.8-0.2,1.2-0.2c0.6-0.1,1.3,0.1,1.8,0.5
				c0.4,0.5,0.6,1.1,0.6,1.7v4.7L119.4,201.4z M117.1,200.6c0.6,0,1.1-0.2,1.5-0.5c0.4-0.4,0.6-0.9,0.6-1.5V198h-1
				c-0.6,0-1.2,0.1-1.8,0.4c-0.4,0.2-0.6,0.6-0.6,1.1c0,0.3,0.1,0.6,0.3,0.9C116.4,200.5,116.7,200.6,117.1,200.6L117.1,200.6z"/>
		</g>
		<g>
			<path class="st2" d="M81.5,360.5H84c0.9-0.1,1.8,0.1,2.6,0.5c0.6,0.4,0.9,1,0.8,1.7c0,0.5-0.1,1-0.4,1.3
				c-0.3,0.4-0.8,0.6-1.3,0.7v0.1c1.4,0.2,2.1,1,2.1,2.2c0,0.7-0.3,1.4-0.8,1.9c-0.7,0.5-1.5,0.7-2.3,0.7h-3.2V360.5z M82.5,364.4
				h1.8c0.6,0,1.1-0.1,1.6-0.4c0.4-0.3,0.5-0.7,0.5-1.2c0-0.4-0.2-0.9-0.6-1.1c-0.5-0.3-1.1-0.4-1.8-0.3h-1.5L82.5,364.4z
				 M82.5,365.3v3.4h1.9c0.6,0,1.2-0.1,1.7-0.4c0.4-0.3,0.6-0.8,0.6-1.3c0-0.5-0.2-1-0.6-1.2c-0.5-0.3-1.1-0.4-1.7-0.4L82.5,365.3z"
				/>
			<path class="st2" d="M92.5,369.7c-0.9,0-1.8-0.3-2.4-0.9c-0.6-0.7-0.9-1.6-0.9-2.6c-0.1-0.9,0.2-1.9,0.8-2.6c0.5-0.7,1.3-1,2.2-1
				c0.8,0,1.5,0.3,2,0.9c0.5,0.6,0.8,1.4,0.8,2.2v0.7h-4.7c0,0.7,0.2,1.3,0.6,1.8c0.4,0.4,1,0.7,1.6,0.6c0.8,0,1.5-0.2,2.2-0.5v0.9
				c-0.3,0.1-0.7,0.3-1,0.3C93.3,369.7,92.9,369.8,92.5,369.7z M92.2,363.5c-0.5,0-1,0.2-1.3,0.5c-0.4,0.4-0.6,0.9-0.6,1.5h3.6
				c0-0.5-0.1-1.1-0.4-1.5C93.1,363.7,92.7,363.5,92.2,363.5L92.2,363.5z"/>
			<path class="st2" d="M101,369.6l-0.2-1l0,0c-0.3,0.4-0.6,0.7-1,0.9c-0.4,0.2-0.8,0.2-1.3,0.2c-0.6,0-1.2-0.2-1.6-0.5
				c-0.4-0.4-0.6-0.9-0.6-1.5c0-1.4,1.1-2.1,3.3-2.2h1.2v-0.4c0-0.4-0.1-0.9-0.3-1.2c-0.3-0.3-0.7-0.4-1.1-0.4
				c-0.7,0-1.3,0.2-1.9,0.5l-0.3-0.8c0.4-0.2,0.7-0.3,1.1-0.4c0.4-0.1,0.8-0.2,1.2-0.2c0.6-0.1,1.3,0.1,1.8,0.5
				c0.4,0.5,0.6,1.1,0.6,1.7v4.7L101,369.6z M98.7,368.9c0.6,0,1.1-0.2,1.5-0.5c0.4-0.4,0.6-0.9,0.6-1.5v-0.6h-1
				c-0.6,0-1.2,0.1-1.8,0.4c-0.4,0.2-0.6,0.6-0.6,1.1c0,0.3,0.1,0.6,0.3,0.9C98,368.8,98.3,368.9,98.7,368.9L98.7,368.9z"/>
			<path class="st2" d="M106.1,368.9c0.2,0,0.4,0,0.5,0l0.4-0.2v0.8c-0.2,0.1-0.3,0.1-0.5,0.1c-0.2,0-0.4,0-0.6,0
				c-1.3,0-2-0.7-2-2.1v-4.1h-1v-0.5l1-0.4l0.4-1.5h0.6v1.6h2v0.8h-2v4c0,0.4,0.1,0.7,0.3,1C105.5,368.8,105.8,369,106.1,368.9z"/>
			<path class="st2" d="M112.8,367.7c0,0.6-0.2,1.1-0.7,1.5c-0.6,0.4-1.3,0.6-2,0.5c-0.7,0-1.5-0.1-2.1-0.4v-1
				c0.3,0.2,0.7,0.3,1.1,0.4c0.4,0.1,0.7,0.1,1.1,0.1c0.4,0,0.9-0.1,1.2-0.3c0.4-0.3,0.6-0.8,0.3-1.2c-0.1-0.1-0.1-0.2-0.2-0.3
				c-0.4-0.3-0.9-0.5-1.3-0.7c-0.5-0.2-0.9-0.4-1.4-0.6c-0.2-0.2-0.4-0.4-0.6-0.6c-0.1-0.2-0.2-0.5-0.2-0.8c0-0.5,0.2-1,0.7-1.3
				c0.6-0.3,1.2-0.5,1.9-0.5c0.7,0,1.5,0.2,2.2,0.5l-0.4,0.8c-0.6-0.3-1.2-0.4-1.9-0.4c-0.4,0-0.8,0.1-1.1,0.2
				c-0.2,0.1-0.4,0.4-0.4,0.6c0,0.2,0,0.3,0.1,0.5c0.1,0.2,0.3,0.3,0.4,0.4c0.4,0.2,0.8,0.4,1.2,0.5c0.6,0.2,1.2,0.5,1.7,0.9
				C112.7,366.9,112.9,367.3,112.8,367.7z"/>
		</g>
		<rect x="0" y="0" class="st18" width="520" height="530"/>
		<circle class="st19" cx="49.1" cy="201.2" r="23.6"/>
		<path class="st13" d="M57.6,213.3H41l9.7-11.6C54.9,204.4,57.6,208.6,57.6,213.3z M57.6,189.8H39.9V211L57.6,189.8z"/>
		<circle class="st19" cx="49.1" cy="283.1" r="23.6"/>
		<circle class="st19" cx="49.1" cy="365" r="23.6"/>
		<circle class="st19" cx="169.5" cy="441.1" r="23.6"/>
		<path class="st10" d="M47.2,286.8h-9.9c-0.8-2.4-0.8-5,0-7.4h16.3c2,0,3.7,1.7,3.7,3.7c0,2-1.6,3.7-3.7,3.7H47.2z M46.7,288.1h-9
			c1,2.2,2.5,4,4.5,5.3l0,0c5.6,3.7,13.2,2.2,17-3.4c-1.2-1.2-2.8-1.9-4.5-1.9L46.7,288.1z M54.7,278.2c1.7,0,3.3-0.7,4.5-1.9
			c-3.7-5.6-11.3-7.1-17-3.4l0,0c-2,1.3-3.5,3.2-4.5,5.3H54.7z"/>
		<path class="st4" d="M60.5,370.6L60.5,370.6c0,4-3.2,7.3-7.3,7.3H41.2v-7.3h8.5c3.6,0,6.9-2.1,8.6-5.3
			C59.7,366.7,60.5,368.6,60.5,370.6z M56.2,364c0.4-1,0.7-2,0.7-3.1l0,0c0-4-3.2-7.3-7.3-7.3h-8.5v14.5h8.5
			C52.5,368.2,55,366.6,56.2,364z"/>
		<path class="st6" d="M170,437.3v15.9c-5,0-10.2-3.9-10.2-8.8v-14h3.4C166.9,430.6,169.9,433.6,170,437.3z M172.3,443v10.2h6.8V443
			L172.3,443z"/>
		<g>
			<path class="st2" d="M86.6,287.7h-5.1v-9.1h5.1v0.9h-4v2.9h3.8v0.9h-3.8v3.4h4L86.6,287.7z"/>
			<path class="st2" d="M89.5,287.7h-1V278h1V287.7z"/>
			<path class="st2" d="M95.9,287.7l-0.2-1l0,0c-0.3,0.4-0.6,0.7-1,0.9c-0.4,0.2-0.8,0.2-1.3,0.2c-0.6,0-1.2-0.1-1.6-0.5
				c-0.4-0.4-0.6-0.9-0.6-1.5c0-1.4,1.1-2.1,3.3-2.2h1.2v-0.4c0-0.4-0.1-0.9-0.3-1.2c-0.3-0.3-0.7-0.4-1.1-0.4
				c-0.7,0-1.3,0.2-1.9,0.5l-0.3-0.8c0.7-0.4,1.5-0.6,2.3-0.6c0.6-0.1,1.3,0.1,1.8,0.5c0.4,0.5,0.6,1.1,0.6,1.7v4.7L95.9,287.7z
				 M93.5,287c0.6,0,1.1-0.2,1.5-0.5c0.4-0.4,0.6-0.9,0.6-1.5v-0.6h-1c-0.6,0-1.2,0.1-1.8,0.4c-0.4,0.2-0.6,0.6-0.6,1.1
				c0,0.3,0.1,0.6,0.3,0.9C92.9,286.9,93.2,287,93.5,287z"/>
			<path class="st2" d="M103.2,285.9c0,0.6-0.2,1.1-0.7,1.5c-0.6,0.4-1.3,0.6-2,0.5c-0.7,0-1.5-0.1-2.1-0.4v-1
				c0.3,0.2,0.7,0.3,1.1,0.4c0.4,0.1,0.7,0.1,1.1,0.1c0.4,0,0.9-0.1,1.2-0.3c0.4-0.3,0.6-0.8,0.3-1.2c-0.1-0.1-0.1-0.2-0.2-0.3
				c-0.4-0.3-0.9-0.5-1.3-0.7c-0.5-0.2-0.9-0.4-1.4-0.6c-0.2-0.2-0.4-0.4-0.6-0.6c-0.1-0.2-0.2-0.5-0.2-0.8c0-0.5,0.2-1,0.7-1.3
				c0.6-0.4,1.2-0.5,1.9-0.5c0.7,0,1.5,0.2,2.2,0.5l-0.4,0.8c-0.6-0.3-1.2-0.4-1.9-0.4c-0.4,0-0.8,0.1-1.1,0.2
				c-0.2,0.1-0.4,0.4-0.4,0.6c0,0.2,0,0.3,0.1,0.5c0.1,0.2,0.3,0.3,0.4,0.4c0.4,0.2,0.8,0.4,1.2,0.5c0.6,0.2,1.2,0.5,1.6,0.9
				C103.1,285,103.2,285.4,103.2,285.9z"/>
			<path class="st2" d="M107.1,287c0.2,0,0.4,0,0.5,0l0.4-0.1v0.8c-0.2,0.1-0.3,0.1-0.5,0.1c-0.2,0-0.4,0-0.6,0c-1.3,0-2-0.7-2-2.1
				v-4.1h-1v-0.5l1-0.4l0.4-1.5h0.6v1.6h2v0.8h-2v4c0,0.3,0.1,0.7,0.3,1C106.5,286.9,106.8,287,107.1,287z"/>
			<path class="st2" d="M109.3,279c0-0.2,0-0.4,0.2-0.5c0.2-0.2,0.6-0.2,0.9,0c0.1,0.1,0.2,0.3,0.2,0.5c0,0.2,0,0.4-0.2,0.5
				c-0.1,0.1-0.3,0.2-0.4,0.2c-0.2,0-0.3-0.1-0.4-0.2C109.4,279.4,109.3,279.2,109.3,279z M110.4,287.7h-1v-6.8h1V287.7z"/>
			<path class="st2" d="M115.4,287.9c-0.9,0-1.7-0.3-2.3-0.9c-0.6-0.7-0.9-1.7-0.8-2.6c-0.1-1,0.2-1.9,0.8-2.6
				c0.6-0.6,1.5-1,2.4-0.9c0.3,0,0.7,0,1,0.1c0.3,0.1,0.5,0.1,0.8,0.2l-0.3,0.9c-0.2-0.1-0.5-0.2-0.8-0.2c-0.2-0.1-0.5-0.1-0.7-0.1
				c-1.4,0-2.1,0.9-2.1,2.7c0,0.7,0.1,1.4,0.5,1.9c0.4,0.5,0.9,0.7,1.5,0.7c0.6,0,1.2-0.1,1.8-0.4v0.9
				C116.6,287.8,116,287.9,115.4,287.9z"/>
			<path class="st2" d="M123.1,285.9c0,0.6-0.2,1.1-0.7,1.5c-0.6,0.4-1.3,0.6-2,0.5c-0.7,0-1.5-0.1-2.1-0.4v-1
				c0.3,0.2,0.7,0.3,1.1,0.4c0.4,0.1,0.7,0.1,1.1,0.1c0.4,0,0.9-0.1,1.2-0.3c0.4-0.3,0.6-0.8,0.3-1.2c-0.1-0.1-0.1-0.2-0.2-0.3
				c-0.4-0.3-0.9-0.5-1.3-0.7c-0.5-0.2-0.9-0.4-1.4-0.6c-0.2-0.2-0.4-0.4-0.6-0.6c-0.1-0.2-0.2-0.5-0.2-0.8c0-0.5,0.2-1,0.7-1.3
				c0.6-0.4,1.2-0.5,1.9-0.5c0.7,0,1.5,0.2,2.2,0.5l-0.4,0.8c-0.6-0.3-1.2-0.4-1.9-0.4c-0.4,0-0.8,0.1-1.1,0.2
				c-0.2,0.1-0.4,0.4-0.4,0.6c0,0.2,0,0.3,0.1,0.5c0.1,0.2,0.3,0.3,0.4,0.4c0.4,0.2,0.8,0.4,1.2,0.5c0.6,0.2,1.2,0.5,1.7,0.9
				C123,285,123.2,285.4,123.1,285.9z"/>
			<path class="st2" d="M127.7,287.9c-0.9,0-1.8-0.3-2.4-0.9c-0.6-0.7-0.9-1.6-0.9-2.6c0-0.9,0.2-1.9,0.8-2.6c0.5-0.7,1.3-1,2.2-1
				c0.8,0,1.5,0.3,2,0.9c0.5,0.6,0.8,1.4,0.8,2.2v0.7h-4.7c0,0.7,0.2,1.3,0.6,1.8c0.4,0.4,1,0.7,1.6,0.6c0.8,0,1.5-0.2,2.2-0.5v0.9
				c-0.3,0.1-0.7,0.3-1,0.3C128.5,287.8,128.1,287.9,127.7,287.9z M127.4,281.6c-0.5,0-1,0.2-1.3,0.5c-0.4,0.4-0.6,0.9-0.6,1.5h3.6
				c0-0.5-0.1-1.1-0.4-1.5C128.4,281.8,127.9,281.6,127.4,281.6z"/>
			<path class="st2" d="M136.2,287.7l-0.2-1l0,0c-0.3,0.4-0.6,0.7-1,0.9c-0.4,0.2-0.8,0.2-1.3,0.2c-0.6,0-1.2-0.1-1.6-0.5
				c-0.4-0.4-0.6-0.9-0.6-1.5c0-1.4,1.1-2.1,3.3-2.2h1.2v-0.4c0-0.4-0.1-0.8-0.4-1.2c-0.3-0.3-0.7-0.4-1.1-0.4
				c-0.7,0-1.3,0.2-1.9,0.5l-0.3-0.8c0.7-0.4,1.5-0.6,2.3-0.6c0.6-0.1,1.3,0.1,1.8,0.5c0.4,0.5,0.6,1.1,0.6,1.7v4.7L136.2,287.7z
				 M133.9,287c0.6,0,1.1-0.2,1.5-0.5c0.4-0.4,0.6-0.9,0.6-1.5v-0.6h-1c-0.6,0-1.2,0.1-1.8,0.4c-0.4,0.2-0.6,0.6-0.6,1.1
				c0,0.3,0.1,0.6,0.3,0.9C133.2,286.9,133.5,287,133.9,287L133.9,287z"/>
			<path class="st2" d="M142.2,280.8c0.3,0,0.5,0,0.8,0.1l-0.1,1c-0.2-0.1-0.5-0.1-0.8-0.1c-0.5,0-1.1,0.2-1.4,0.7
				c-0.4,0.5-0.6,1.1-0.6,1.7v3.7h-1v-6.8h0.8l0.1,1.3l0,0c0.2-0.4,0.5-0.7,0.9-1C141.4,280.9,141.8,280.8,142.2,280.8z"/>
			<path class="st2" d="M147.1,287.9c-0.9,0-1.7-0.3-2.3-0.9c-0.6-0.7-0.9-1.7-0.8-2.6c-0.1-1,0.2-1.9,0.8-2.6
				c0.6-0.6,1.5-1,2.4-0.9c0.3,0,0.7,0,1,0.1c0.3,0.1,0.5,0.1,0.8,0.2l-0.3,0.9c-0.2-0.1-0.5-0.2-0.8-0.2c-0.2-0.1-0.5-0.1-0.7-0.1
				c-1.4,0-2.1,0.9-2.1,2.7c0,0.7,0.1,1.4,0.5,1.9c0.3,0.5,0.9,0.7,1.5,0.7c0.6,0,1.2-0.1,1.8-0.4v0.9
				C148.2,287.8,147.6,287.9,147.1,287.9z"/>
			<path class="st2" d="M155.1,287.7v-4.4c0-0.4-0.1-0.9-0.4-1.2c-0.3-0.3-0.8-0.4-1.2-0.4c-0.6,0-1.2,0.2-1.6,0.6
				c-0.4,0.6-0.6,1.2-0.5,1.9v3.6h-1V278h1v3c0,0.3,0,0.6,0,0.9h0.1c0.2-0.3,0.5-0.6,0.9-0.8c0.4-0.2,0.8-0.3,1.3-0.3
				c0.7-0.1,1.4,0.2,1.9,0.6c0.5,0.5,0.7,1.2,0.6,1.9v4.5L155.1,287.7z"/>
		</g>
		<g>
			<path class="st2" d="M210.5,443.9v-9.1h1.1v8.2h4v1L210.5,443.9z"/>
			<path class="st2" d="M222.9,440.5c0,0.9-0.3,1.9-0.9,2.6c-0.6,0.6-1.5,1-2.3,0.9c-0.6,0-1.1-0.1-1.6-0.4
				c-0.5-0.3-0.9-0.7-1.1-1.2c-0.3-0.6-0.4-1.2-0.4-1.9c-0.1-0.9,0.2-1.9,0.8-2.6c0.6-0.6,1.4-1,2.3-0.9c0.9,0,1.7,0.3,2.3,1
				C222.6,438.7,222.9,439.6,222.9,440.5z M217.7,440.5c0,0.7,0.1,1.4,0.5,2c0.8,0.9,2.1,0.9,2.9,0.2c0.1,0,0.1-0.1,0.2-0.2
				c0.4-0.6,0.6-1.3,0.5-2c0.1-0.7-0.1-1.4-0.5-2c-0.4-0.5-1-0.7-1.6-0.7c-0.6,0-1.2,0.2-1.5,0.7
				C217.8,439.1,217.6,439.8,217.7,440.5L217.7,440.5z"/>
			<path class="st2" d="M230.3,437.1v0.7l-1.3,0.2c0.3,0.4,0.5,0.9,0.4,1.4c0,0.6-0.2,1.2-0.7,1.6c-0.5,0.4-1.2,0.6-1.9,0.6
				c-0.2,0-0.4,0-0.6,0c-0.4,0.1-0.6,0.5-0.7,0.9c0,0.2,0.1,0.3,0.2,0.4c0.2,0.1,0.5,0.2,0.8,0.1h1.2c0.6,0,1.2,0.1,1.7,0.5
				c0.4,0.3,0.6,0.8,0.6,1.4c0,0.7-0.3,1.4-0.9,1.7c-0.8,0.4-1.7,0.7-2.7,0.6c-0.7,0-1.4-0.1-2.1-0.5c-0.5-0.3-0.7-0.8-0.7-1.4
				c0-0.4,0.1-0.8,0.4-1.1c0.3-0.3,0.7-0.5,1.1-0.6c-0.2-0.1-0.3-0.2-0.4-0.4c-0.1-0.2-0.2-0.4-0.2-0.6c0-0.2,0.1-0.5,0.2-0.7
				c0.2-0.2,0.4-0.4,0.6-0.5c-0.4-0.1-0.7-0.4-0.9-0.7c-0.2-0.4-0.3-0.8-0.3-1.2c0-0.6,0.2-1.3,0.7-1.7c0.5-0.4,1.2-0.7,1.9-0.6
				c0.3,0,0.7,0,1,0.1L230.3,437.1z M224.9,445.1c0,0.3,0.2,0.7,0.5,0.8c0.4,0.2,0.9,0.3,1.3,0.3c0.7,0,1.3-0.1,1.9-0.4
				c0.4-0.2,0.6-0.6,0.6-1.1c0-0.3-0.1-0.6-0.3-0.8c-0.4-0.2-0.8-0.3-1.3-0.2h-1.2c-0.4,0-0.8,0.1-1.1,0.3
				C225,444.3,224.9,444.7,224.9,445.1z M225.4,439.3c0,0.4,0.1,0.8,0.4,1.1c0.3,0.3,0.7,0.4,1.1,0.4c0.7,0.1,1.4-0.4,1.5-1.1
				c0-0.1,0-0.3,0-0.4c0.1-0.7-0.4-1.4-1.2-1.5c-0.1,0-0.3,0-0.4,0c-0.4,0-0.8,0.1-1.1,0.4C225.5,438.4,225.4,438.9,225.4,439.3
				L225.4,439.3z"/>
			<path class="st2" d="M236.2,442.1c0,0.6-0.2,1.1-0.7,1.5c-0.6,0.4-1.3,0.6-2,0.5c-0.7,0-1.5-0.1-2.1-0.4v-1
				c0.3,0.2,0.7,0.3,1.1,0.4c0.4,0.1,0.7,0.1,1.1,0.1c0.4,0,0.9-0.1,1.2-0.3c0.4-0.3,0.6-0.8,0.3-1.2c-0.1-0.1-0.1-0.2-0.2-0.3
				c-0.4-0.3-0.9-0.5-1.4-0.7c-0.5-0.2-0.9-0.4-1.4-0.6c-0.2-0.2-0.4-0.4-0.6-0.6c-0.1-0.2-0.2-0.5-0.2-0.8c0-0.5,0.2-1,0.7-1.3
				c0.6-0.4,1.2-0.5,1.9-0.5c0.7,0,1.5,0.2,2.2,0.5l-0.4,0.8c-0.6-0.3-1.2-0.4-1.9-0.4c-0.4,0-0.8,0.1-1.1,0.2
				c-0.2,0.1-0.4,0.4-0.4,0.6c0,0.2,0,0.3,0.1,0.5c0.1,0.2,0.3,0.3,0.4,0.4c0.4,0.2,0.8,0.4,1.2,0.5c0.6,0.2,1.2,0.5,1.7,0.9
				C236,441.2,236.2,441.6,236.2,442.1z"/>
			<path class="st2" d="M240,443.2c0.2,0,0.4,0,0.5,0l0.4-0.1v0.8c-0.2,0.1-0.3,0.1-0.5,0.1c-0.2,0-0.4,0-0.6,0c-1.3,0-2-0.7-2-2.1
				v-4.1h-1v-0.5l1-0.4l0.4-1.5h0.6v1.6h2v0.8h-2v4c0,0.4,0.1,0.7,0.3,1C239.4,443.1,239.7,443.2,240,443.2z"/>
			<path class="st2" d="M246.6,443.9l-0.2-1l0,0c-0.3,0.4-0.6,0.7-1,0.9c-0.4,0.2-0.8,0.2-1.3,0.2c-0.6,0-1.2-0.1-1.6-0.5
				c-0.4-0.4-0.6-0.9-0.6-1.5c0-1.4,1.1-2.1,3.3-2.2h1.2v-0.4c0-0.4-0.1-0.8-0.3-1.2c-0.3-0.3-0.7-0.4-1.1-0.4
				c-0.7,0-1.3,0.2-1.9,0.5l-0.3-0.8c0.7-0.4,1.5-0.6,2.3-0.6c0.6-0.1,1.3,0.1,1.8,0.5c0.4,0.5,0.6,1.1,0.6,1.7v4.7L246.6,443.9z
				 M244.2,443.2c0.6,0,1.1-0.2,1.5-0.5c0.4-0.4,0.6-0.9,0.6-1.5v-0.6h-1c-0.6,0-1.2,0.1-1.8,0.4c-0.4,0.2-0.6,0.6-0.6,1.1
				c0,0.3,0.1,0.6,0.3,0.9C243.6,443.1,243.9,443.2,244.2,443.2L244.2,443.2z"/>
			<path class="st2" d="M253.9,442.1c0,0.6-0.2,1.1-0.7,1.5c-0.6,0.4-1.3,0.6-2,0.5c-0.7,0-1.5-0.1-2.1-0.4v-1
				c0.3,0.2,0.7,0.3,1.1,0.4c0.4,0.1,0.7,0.1,1.1,0.1c0.4,0,0.9-0.1,1.2-0.3c0.4-0.3,0.6-0.8,0.3-1.2c-0.1-0.1-0.1-0.2-0.2-0.3
				c-0.4-0.3-0.9-0.5-1.4-0.7c-0.5-0.2-0.9-0.4-1.4-0.6c-0.2-0.2-0.4-0.4-0.6-0.6c-0.1-0.2-0.2-0.5-0.2-0.8c0-0.5,0.2-1,0.7-1.3
				c0.6-0.4,1.2-0.5,1.9-0.5c0.7,0,1.5,0.2,2.2,0.5l-0.4,0.8c-0.6-0.3-1.2-0.4-1.9-0.4c-0.4,0-0.8,0.1-1.1,0.2
				c-0.2,0.1-0.4,0.4-0.4,0.6c0,0.2,0,0.3,0.1,0.5c0.1,0.2,0.3,0.3,0.4,0.4c0.4,0.2,0.8,0.4,1.2,0.5c0.6,0.2,1.2,0.5,1.7,0.9
				C253.8,441.2,253.9,441.6,253.9,442.1z"/>
			<path class="st2" d="M260.3,443.9v-4.4c0-0.4-0.1-0.9-0.4-1.2c-0.3-0.3-0.8-0.4-1.2-0.4c-0.6,0-1.2,0.2-1.6,0.6
				c-0.4,0.6-0.6,1.2-0.5,1.9v3.6h-1v-9.7h1v2.9c0,0.3,0,0.6,0,0.9h0.1c0.2-0.3,0.5-0.6,0.9-0.8c0.4-0.2,0.8-0.3,1.3-0.3
				c0.7-0.1,1.4,0.2,1.9,0.6c0.5,0.5,0.7,1.2,0.6,1.9v4.5L260.3,443.9z"/>
		</g>
	</g>
</g>
</svg>
