<svg version="1.1" viewBox="0.0 0.0 454.50918635170603 177.98425196850394" fill="none" stroke="none" stroke-linecap="square" stroke-miterlimit="10" xmlns:xlink="http://www.w3.org/1999/xlink" xmlns="http://www.w3.org/2000/svg"><clipPath id="p.0"><path d="m0 0l454.5092 0l0 177.98425l-454.5092 0l0 -177.98425z" clip-rule="nonzero"/></clipPath><g clip-path="url(#p.0)"><path fill="#000000" fill-opacity="0.0" d="m0 0l454.5092 0l0 177.98425l-454.5092 0z" fill-rule="evenodd"/><path fill="#f3f3f3" d="m16.325459 78.39399l0 0c0 -7.9437866 6.4397087 -14.3834915 14.38349 -14.3834915l99.89445 0c3.8147278 0 7.473236 1.5153961 10.170654 4.2128296c2.6974335 2.6974258 4.2128296 6.355919 4.2128296 10.170662l0 57.532234c0 7.9437866 -6.4397125 14.383484 -14.383484 14.383484l-99.89445 0c-7.943781 0 -14.38349 -6.4396973 -14.38349 -14.383484z" fill-rule="evenodd"/><path stroke="#f3f3f3" stroke-width="1.0" stroke-linejoin="round" stroke-linecap="butt" d="m16.325459 78.39399l0 0c0 -7.9437866 6.4397087 -14.3834915 14.38349 -14.3834915l99.89445 0c3.8147278 0 7.473236 1.5153961 10.170654 4.2128296c2.6974335 2.6974258 4.2128296 6.355919 4.2128296 10.170662l0 57.532234c0 7.9437866 -6.4397125 14.383484 -14.383484 14.383484l-99.89445 0c-7.943781 0 -14.38349 -6.4396973 -14.38349 -14.383484z" fill-rule="evenodd"/><path fill="#cfe2f3" d="m32.64042 99.18372c0 1.7960129 8.467812 3.2519684 18.913387 3.2519684c10.445576 0 18.913387 -1.4559555 18.913387 -3.2519684l0 19.511818c0 1.7960129 -8.467812 3.2519684 -18.913387 3.2519684c-10.445576 0 -18.913387 -1.4559555 -18.913387 -3.2519684z" fill-rule="evenodd"/><path fill="#e2edf7" d="m32.64042 99.18372c0 -1.7960052 8.467812 -3.2519684 18.913387 -3.2519684c10.445576 0 18.913387 1.4559631 18.913387 3.2519684l0 0c0 1.7960129 -8.467812 3.2519684 -18.913387 3.2519684c-10.445576 0 -18.913387 -1.4559555 -18.913387 -3.2519684z" fill-rule="evenodd"/><path fill="#000000" fill-opacity="0.0" d="m70.46719 99.18372l0 0c0 1.7960129 -8.467812 3.2519684 -18.913387 3.2519684c-10.445576 0 -18.913387 -1.4559555 -18.913387 -3.2519684c0 -1.7960052 8.467812 -3.2519684 18.913387 -3.2519684c10.445576 0 18.913387 1.4559631 18.913387 3.2519684l0 19.511818c0 1.7960129 -8.467812 3.2519684 -18.913387 3.2519684c-10.445576 0 -18.913387 -1.4559555 -18.913387 -3.2519684l0 -19.511818" fill-rule="evenodd"/><path stroke="#000000" stroke-width="1.0" stroke-linejoin="round" stroke-linecap="butt" d="m70.46719 99.18372l0 0c0 1.7960129 -8.467812 3.2519684 -18.913387 3.2519684c-10.445576 0 -18.913387 -1.4559555 -18.913387 -3.2519684c0 -1.7960052 8.467812 -3.2519684 18.913387 -3.2519684c10.445576 0 18.913387 1.4559631 18.913387 3.2519684l0 19.511818c0 1.7960129 -8.467812 3.2519684 -18.913387 3.2519684c-10.445576 0 -18.913387 -1.4559555 -18.913387 -3.2519684l0 -19.511818" fill-rule="evenodd"/><path fill="#cfe2f3" d="m86.8189 99.18372c0 1.7960129 8.467812 3.2519684 18.913383 3.2519684c10.445572 0 18.913383 -1.4559555 18.913383 -3.2519684l0 19.511818c0 1.7960129 -8.467812 3.2519684 -18.913383 3.2519684c-10.445572 0 -18.913383 -1.4559555 -18.913383 -3.2519684z" fill-rule="evenodd"/><path fill="#e2edf7" d="m86.8189 99.18372c0 -1.7960052 8.467812 -3.2519684 18.913383 -3.2519684c10.445572 0 18.913383 1.4559631 18.913383 3.2519684l0 0c0 1.7960129 -8.467812 3.2519684 -18.913383 3.2519684c-10.445572 0 -18.913383 -1.4559555 -18.913383 -3.2519684z" fill-rule="evenodd"/><path fill="#000000" fill-opacity="0.0" d="m124.64567 99.18372l0 0c0 1.7960129 -8.467812 3.2519684 -18.913383 3.2519684c-10.445572 0 -18.913383 -1.4559555 -18.913383 -3.2519684c0 -1.7960052 8.467812 -3.2519684 18.913383 -3.2519684c10.445572 0 18.913383 1.4559631 18.913383 3.2519684l0 19.511818c0 1.7960129 -8.467812 3.2519684 -18.913383 3.2519684c-10.445572 0 -18.913383 -1.4559555 -18.913383 -3.2519684l0 -19.511818" fill-rule="evenodd"/><path stroke="#000000" stroke-width="1.0" stroke-linejoin="round" stroke-linecap="butt" d="m124.64567 99.18372l0 0c0 1.7960129 -8.467812 3.2519684 -18.913383 3.2519684c-10.445572 0 -18.913383 -1.4559555 -18.913383 -3.2519684c0 -1.7960052 8.467812 -3.2519684 18.913383 -3.2519684c10.445572 0 18.913383 1.4559631 18.913383 3.2519684l0 19.511818c0 1.7960129 -8.467812 3.2519684 -18.913383 3.2519684c-10.445572 0 -18.913383 -1.4559555 -18.913383 -3.2519684l0 -19.511818" fill-rule="evenodd"/><path fill="#f3f3f3" d="m170.88977 78.39399l0 0c0 -7.9437866 6.4396973 -14.3834915 14.383484 -14.3834915l101.62671 0c3.8147583 0 7.473236 1.5153961 10.170685 4.2128296c2.6974182 2.6974258 4.2128296 6.355919 4.2128296 10.170662l0 57.532234c0 7.9437866 -6.439728 14.383484 -14.383514 14.383484l-101.62671 0c-7.9437866 0 -14.383484 -6.4396973 -14.383484 -14.383484z" fill-rule="evenodd"/><path fill="#cfe2f3" d="m189.96588 99.18372c0 1.7960129 8.467804 3.2519684 18.913391 3.2519684c10.445572 0 18.913376 -1.4559555 18.913376 -3.2519684l0 19.511818c0 1.7960129 -8.467804 3.2519684 -18.913376 3.2519684c-10.445587 0 -18.913391 -1.4559555 -18.913391 -3.2519684z" fill-rule="evenodd"/><path fill="#e2edf7" d="m189.96588 99.18372c0 -1.7960052 8.467804 -3.2519684 18.913391 -3.2519684c10.445572 0 18.913376 1.4559631 18.913376 3.2519684l0 0c0 1.7960129 -8.467804 3.2519684 -18.913376 3.2519684c-10.445587 0 -18.913391 -1.4559555 -18.913391 -3.2519684z" fill-rule="evenodd"/><path fill="#000000" fill-opacity="0.0" d="m227.79265 99.18372l0 0c0 1.7960129 -8.467804 3.2519684 -18.913376 3.2519684c-10.445587 0 -18.913391 -1.4559555 -18.913391 -3.2519684c0 -1.7960052 8.467804 -3.2519684 18.913391 -3.2519684c10.445572 0 18.913376 1.4559631 18.913376 3.2519684l0 19.511818c0 1.7960129 -8.467804 3.2519684 -18.913376 3.2519684c-10.445587 0 -18.913391 -1.4559555 -18.913391 -3.2519684l0 -19.511818" fill-rule="evenodd"/><path stroke="#000000" stroke-width="1.0" stroke-linejoin="round" stroke-linecap="butt" d="m227.79265 99.18372l0 0c0 1.7960129 -8.467804 3.2519684 -18.913376 3.2519684c-10.445587 0 -18.913391 -1.4559555 -18.913391 -3.2519684c0 -1.7960052 8.467804 -3.2519684 18.913391 -3.2519684c10.445572 0 18.913376 1.4559631 18.913376 3.2519684l0 19.511818c0 1.7960129 -8.467804 3.2519684 -18.913376 3.2519684c-10.445587 0 -18.913391 -1.4559555 -18.913391 -3.2519684l0 -19.511818" fill-rule="evenodd"/><path fill="#cfe2f3" d="m245.1811 99.18372c0 1.7960129 8.467804 3.2519684 18.913376 3.2519684c10.445587 0 18.913391 -1.4559555 18.913391 -3.2519684l0 19.511818c0 1.7960129 -8.467804 3.2519684 -18.913391 3.2519684c-10.445572 0 -18.913376 -1.4559555 -18.913376 -3.2519684z" fill-rule="evenodd"/><path fill="#e2edf7" d="m245.1811 99.18372c0 -1.7960052 8.467804 -3.2519684 18.913376 -3.2519684c10.445587 0 18.913391 1.4559631 18.913391 3.2519684l0 0c0 1.7960129 -8.467804 3.2519684 -18.913391 3.2519684c-10.445572 0 -18.913376 -1.4559555 -18.913376 -3.2519684z" fill-rule="evenodd"/><path fill="#000000" fill-opacity="0.0" d="m283.00787 99.18372l0 0c0 1.7960129 -8.467804 3.2519684 -18.913391 3.2519684c-10.445572 0 -18.913376 -1.4559555 -18.913376 -3.2519684c0 -1.7960052 8.467804 -3.2519684 18.913376 -3.2519684c10.445587 0 18.913391 1.4559631 18.913391 3.2519684l0 19.511818c0 1.7960129 -8.467804 3.2519684 -18.913391 3.2519684c-10.445572 0 -18.913376 -1.4559555 -18.913376 -3.2519684l0 -19.511818" fill-rule="evenodd"/><path stroke="#000000" stroke-width="1.0" stroke-linejoin="round" stroke-linecap="butt" d="m283.00787 99.18372l0 0c0 1.7960129 -8.467804 3.2519684 -18.913391 3.2519684c-10.445572 0 -18.913376 -1.4559555 -18.913376 -3.2519684c0 -1.7960052 8.467804 -3.2519684 18.913376 -3.2519684c10.445587 0 18.913391 1.4559631 18.913391 3.2519684l0 19.511818c0 1.7960129 -8.467804 3.2519684 -18.913391 3.2519684c-10.445572 0 -18.913376 -1.4559555 -18.913376 -3.2519684l0 -19.511818" fill-rule="evenodd"/><path fill="#f3f3f3" d="m327.18634 78.39399l0 0c0 -7.9437866 6.439728 -14.3834915 14.383514 -14.3834915l81.6582 0c3.8147278 0 7.473236 1.5153961 10.170654 4.2128296c2.6974487 2.6974258 4.2128296 6.355919 4.2128296 10.170662l0 57.532234c0 7.9437866 -6.4396973 14.383484 -14.383484 14.383484l-81.6582 0l0 0c-7.9437866 0 -14.383514 -6.4396973 -14.383514 -14.383484z" fill-rule="evenodd"/><path fill="#cfe2f3" d="m363.48557 99.18372c0 1.7960129 8.467804 3.2519684 18.913391 3.2519684c10.445557 0 18.913391 -1.4559555 18.913391 -3.2519684l0 19.511818c0 1.7960129 -8.467834 3.2519684 -18.913391 3.2519684c-10.445587 0 -18.913391 -1.4559555 -18.913391 -3.2519684z" fill-rule="evenodd"/><path fill="#e2edf7" d="m363.48557 99.18372c0 -1.7960052 8.467804 -3.2519684 18.913391 -3.2519684c10.445557 0 18.913391 1.4559631 18.913391 3.2519684l0 0c0 1.7960129 -8.467834 3.2519684 -18.913391 3.2519684c-10.445587 0 -18.913391 -1.4559555 -18.913391 -3.2519684z" fill-rule="evenodd"/><path fill="#000000" fill-opacity="0.0" d="m401.31235 99.18372l0 0c0 1.7960129 -8.467834 3.2519684 -18.913391 3.2519684c-10.445587 0 -18.913391 -1.4559555 -18.913391 -3.2519684c0 -1.7960052 8.467804 -3.2519684 18.913391 -3.2519684c10.445557 0 18.913391 1.4559631 18.913391 3.2519684l0 19.511818c0 1.7960129 -8.467834 3.2519684 -18.913391 3.2519684c-10.445587 0 -18.913391 -1.4559555 -18.913391 -3.2519684l0 -19.511818" fill-rule="evenodd"/><path stroke="#000000" stroke-width="1.0" stroke-linejoin="round" stroke-linecap="butt" d="m401.31235 99.18372l0 0c0 1.7960129 -8.467834 3.2519684 -18.913391 3.2519684c-10.445587 0 -18.913391 -1.4559555 -18.913391 -3.2519684c0 -1.7960052 8.467804 -3.2519684 18.913391 -3.2519684c10.445557 0 18.913391 1.4559631 18.913391 3.2519684l0 19.511818c0 1.7960129 -8.467834 3.2519684 -18.913391 3.2519684c-10.445587 0 -18.913391 -1.4559555 -18.913391 -3.2519684l0 -19.511818" fill-rule="evenodd"/><path fill="#000000" fill-opacity="0.0" d="m25.44357 21.994751l110.425186 0l0 42.015747l-110.425186 0z" fill-rule="evenodd"/><path fill="#000000" d="m48.233932 34.961624l16.328125 0l0 1.625l-2.296875 0l0 12.171875q0 1.421875 -1.34375 1.421875l-2.515625 0l-0.296875 -1.640625l2.140625 0q0.296875 0 0.296875 -0.296875l0 -11.65625l-12.3125 0l0 -1.625zm9.796875 11.421875l-1.703125 0l0 -0.65625l-4.09375 0l0 1.40625l-1.703125 0l0 -7.9375l7.5 0l0 7.1875zm-1.703125 -5.78125l-4.09375 0l0 3.703125l4.09375 0l0 -3.703125zm25.0 3.703125l-4.8125 0l0 5.65625l-1.484375 0l0 -5.65625l-4.453125 0q-0.15625 3.859375 -2.3125 6.171875l-1.1875 -1.1875q2.015625 -2.234375 2.015625 -5.203125l0 -9.5l13.71875 0l0 14.171875q0 1.203125 -1.1875 1.203125l-2.078125 0l-0.359375 -1.640625l1.84375 0q0.296875 0 0.296875 -0.296875l0 -3.71875zm-10.75 -4.15625l0 2.75l4.453125 0l0 -2.75l-4.453125 0zm0 -4.15625l0 2.75l4.453125 0l0 -2.75l-4.453125 0zm5.9375 4.15625l0 2.75l4.8125 0l0 -2.75l-4.8125 0zm0 -4.15625l0 2.75l4.8125 0l0 -2.75l-4.8125 0zm25.15625 0.453125l-12.84375 0l0 10.984375l13.4375 0l0 1.640625l-13.4375 0l0 1.03125l-1.703125 0l0 -15.296875l14.546875 0l0 1.640625zm-6.09375 4.234375q1.421875 -1.71875 2.375 -3.71875l1.484375 0.8125q0.671875 0.234375 -0.0625 0.53125q-0.671875 1.484375 -2.234375 3.40625q1.78125 1.109375 4.15625 3.1875l-1.265625 1.5625q-2.078125 -1.859375 -4.078125 -3.40625q-1.78125 1.84375 -5.421875 3.859375l-1.03125 -1.484375q3.265625 -1.78125 4.890625 -3.421875q-1.546875 -1.1875 -4.078125 -2.59375l0.96875 -1.265625q2.296875 1.1875 4.296875 2.53125z" fill-rule="nonzero"/><path fill="#000000" d="m110.92143 48.91475l-1.640625 0l0 -10.453125q-0.59375 0.5625 -1.5625 1.140625q-0.953125 0.5625 -1.71875 0.84375l0 -1.59375q1.375 -0.640625 2.40625 -1.5625q1.03125 -0.921875 1.453125 -1.78125l1.0625 0l0 13.40625z" fill-rule="nonzero"/><path fill="#000000" fill-opacity="0.0" d="m180.87401 21.994751l110.42522 0l0 42.015747l-110.42522 0z" fill-rule="evenodd"/><path fill="#000000" d="m203.66438 34.961624l16.328125 0l0 1.625l-2.296875 0l0 12.171875q0 1.421875 -1.34375 1.421875l-2.515625 0l-0.296875 -1.640625l2.140625 0q0.296875 0 0.296875 -0.296875l0 -11.65625l-12.3125 0l0 -1.625zm9.796875 11.421875l-1.703125 0l0 -0.65625l-4.09375 0l0 1.40625l-1.703125 0l0 -7.9375l7.5 0l0 7.1875zm-1.703125 -5.78125l-4.09375 0l0 3.703125l4.09375 0l0 -3.703125zm25.0 3.703125l-4.8125 0l0 5.65625l-1.484375 0l0 -5.65625l-4.453125 0q-0.15625 3.859375 -2.3125 6.171875l-1.1875 -1.1875q2.015625 -2.234375 2.015625 -5.203125l0 -9.5l13.71875 0l0 14.171875q0 1.203125 -1.1875 1.203125l-2.078125 0l-0.359375 -1.640625l1.84375 0q0.296875 0 0.296875 -0.296875l0 -3.71875zm-10.75 -4.15625l0 2.75l4.453125 0l0 -2.75l-4.453125 0zm0 -4.15625l0 2.75l4.453125 0l0 -2.75l-4.453125 0zm5.9375 4.15625l0 2.75l4.8125 0l0 -2.75l-4.8125 0zm0 -4.15625l0 2.75l4.8125 0l0 -2.75l-4.8125 0zm25.156235 0.453125l-12.843735 0l0 10.984375l13.437485 0l0 1.640625l-13.437485 0l0 1.03125l-1.703125 0l0 -15.296875l14.54686 0l0 1.640625zm-6.09375 4.234375q1.421875 -1.71875 2.375 -3.71875l1.484375 0.8125q0.671875 0.234375 -0.0625 0.53125q-0.671875 1.484375 -2.234375 3.40625q1.78125 1.109375 4.15625 3.1875l-1.265625 1.5625q-2.078125 -1.859375 -4.078125 -3.40625q-1.78125 1.84375 -5.421875 3.859375l-1.03125 -1.484375q3.265625 -1.78125 4.890625 -3.421875q-1.546875 -1.1875 -4.078125 -2.59375l0.96875 -1.265625q2.296875 1.1875 4.296875 2.53125z" fill-rule="nonzero"/><path fill="#000000" d="m268.78937 47.336624l0 1.578125l-8.828125 0q-0.015625 -0.59375 0.1875 -1.140625q0.34375 -0.90625 1.078125 -1.78125q0.75 -0.875 2.15625 -2.015625q2.171875 -1.78125 2.9375 -2.828125q0.765625 -1.046875 0.765625 -1.96875q0 -0.984375 -0.703125 -1.640625q-0.6875 -0.671875 -1.8125 -0.671875q-1.1875 0 -1.90625 0.71875q-0.703125 0.703125 -0.703125 1.953125l-1.6875 -0.171875q0.171875 -1.890625 1.296875 -2.875q1.140625 -0.984375 3.03125 -0.984375q1.921875 0 3.046875 1.0625q1.125 1.0625 1.125 2.640625q0 0.796875 -0.328125 1.578125q-0.328125 0.78125 -1.09375 1.640625q-0.75 0.84375 -2.53125 2.34375q-1.46875 1.234375 -1.890625 1.6875q-0.421875 0.4375 -0.6875 0.875l6.546875 0z" fill-rule="nonzero"/><path fill="#000000" fill-opacity="0.0" d="m327.18634 21.994751l110.4252 0l0 42.015747l-110.4252 0z" fill-rule="evenodd"/><path fill="#000000" d="m349.9767 34.961624l16.328125 0l0 1.625l-2.296875 0l0 12.171875q0 1.421875 -1.34375 1.421875l-2.515625 0l-0.296875 -1.640625l2.140625 0q0.296875 0 0.296875 -0.296875l0 -11.65625l-12.3125 0l0 -1.625zm9.796875 11.421875l-1.703125 0l0 -0.65625l-4.09375 0l0 1.40625l-1.703125 0l0 -7.9375l7.5 0l0 7.1875zm-1.703125 -5.78125l-4.09375 0l0 3.703125l4.09375 0l0 -3.703125zm25.0 3.703125l-4.8125 0l0 5.65625l-1.484375 0l0 -5.65625l-4.453125 0q-0.15625 3.859375 -2.3125 6.171875l-1.1875 -1.1875q2.015625 -2.234375 2.015625 -5.203125l0 -9.5l13.71875 0l0 14.171875q0 1.203125 -1.1875 1.203125l-2.078125 0l-0.359375 -1.640625l1.84375 0q0.296875 0 0.296875 -0.296875l0 -3.71875zm-10.75 -4.15625l0 2.75l4.453125 0l0 -2.75l-4.453125 0zm0 -4.15625l0 2.75l4.453125 0l0 -2.75l-4.453125 0zm5.9375 4.15625l0 2.75l4.8125 0l0 -2.75l-4.8125 0zm0 -4.15625l0 2.75l4.8125 0l0 -2.75l-4.8125 0zm25.15625 0.453125l-12.84375 0l0 10.984375l13.4375 0l0 1.640625l-13.4375 0l0 1.03125l-1.703125 0l0 -15.296875l14.546875 0l0 1.640625zm-6.09375 4.234375q1.421875 -1.71875 2.375 -3.71875l1.484375 0.8125q0.671875 0.234375 -0.0625 0.53125q-0.671875 1.484375 -2.234375 3.40625q1.78125 1.109375 4.15625 3.1875l-1.265625 1.5625q-2.078125 -1.859375 -4.078125 -3.40625q-1.78125 1.84375 -5.421875 3.859375l-1.03125 -1.484375q3.265625 -1.78125 4.890625 -3.421875q-1.546875 -1.1875 -4.078125 -2.59375l0.96875 -1.265625q2.296875 1.1875 4.296875 2.53125z" fill-rule="nonzero"/><path fill="#000000" d="m406.49234 45.3835l1.640625 -0.21875q0.28125 1.40625 0.953125 2.015625q0.6875 0.609375 1.65625 0.609375q1.15625 0 1.953125 -0.796875q0.796875 -0.796875 0.796875 -1.984375q0 -1.125 -0.734375 -1.859375q-0.734375 -0.734375 -1.875 -0.734375q-0.46875 0 -1.15625 0.171875l0.1875 -1.4375q0.15625 0.015625 0.265625 0.015625q1.046875 0 1.875 -0.546875q0.84375 -0.546875 0.84375 -1.671875q0 -0.90625 -0.609375 -1.5q-0.609375 -0.59375 -1.578125 -0.59375q-0.953125 0 -1.59375 0.609375q-0.640625 0.59375 -0.8125 1.796875l-1.640625 -0.296875q0.296875 -1.640625 1.359375 -2.546875q1.0625 -0.90625 2.65625 -0.90625q1.09375 0 2.0 0.46875q0.921875 0.46875 1.40625 1.28125q0.5 0.8125 0.5 1.71875q0 0.859375 -0.46875 1.578125q-0.46875 0.703125 -1.375 1.125q1.1875 0.28125 1.84375 1.140625q0.65625 0.859375 0.65625 2.15625q0 1.734375 -1.28125 2.953125q-1.265625 1.21875 -3.21875 1.21875q-1.765625 0 -2.921875 -1.046875q-1.15625 -1.046875 -1.328125 -2.71875z" fill-rule="nonzero"/><path fill="#000000" fill-opacity="0.0" d="m322.34647 64.0105l102.236206 0l0 38.771652l-102.236206 0z" fill-rule="evenodd"/><path fill="#d9d9d9" d="m341.69022 84.79237q0 0.859375 -0.328125 1.53125q-0.328125 0.65625 -0.890625 1.09375q-0.65625 0.515625 -1.4375 0.734375q-0.78125 0.21875 -2.0 0.21875l-4.125 0l0 -11.640625l3.453125 0q1.265625 0 1.890625 0.09375q0.640625 0.09375 1.21875 0.390625q0.640625 0.34375 0.921875 0.875q0.296875 0.515625 0.296875 1.25q0 0.828125 -0.421875 1.421875q-0.421875 0.578125 -1.125 0.921875l0 0.0625q1.1875 0.25 1.859375 1.046875q0.6875 0.78125 0.6875 2.0zm-2.609375 -5.25q0 -0.421875 -0.140625 -0.703125q-0.140625 -0.296875 -0.453125 -0.46875q-0.359375 -0.21875 -0.890625 -0.265625q-0.515625 -0.046875 -1.296875 -0.046875l-1.84375 0l0 3.359375l2.0 0q0.734375 0 1.15625 -0.078125q0.4375 -0.078125 0.796875 -0.3125q0.375 -0.234375 0.515625 -0.59375q0.15625 -0.375 0.15625 -0.890625zm1.0 5.3125q0 -0.703125 -0.21875 -1.109375q-0.203125 -0.421875 -0.765625 -0.71875q-0.375 -0.1875 -0.90625 -0.25q-0.53125 -0.0625 -1.296875 -0.0625l-2.4375 0l0 4.328125l2.046875 0q1.015625 0 1.65625 -0.09375q0.65625 -0.109375 1.078125 -0.390625q0.4375 -0.3125 0.640625 -0.703125q0.203125 -0.390625 0.203125 -1.0zm12.96875 3.515625l-1.640625 0l-1.140625 -3.25l-5.03125 0l-1.140625 3.25l-1.578125 0l4.234375 -11.640625l2.0625 0l4.234375 11.640625zm-3.265625 -4.578125l-2.03125 -5.703125l-2.046875 5.703125l4.078125 0zm14.015625 3.734375q-0.421875 0.1875 -0.78125 0.359375q-0.34375 0.15625 -0.90625 0.328125q-0.46875 0.15625 -1.03125 0.265625q-0.5625 0.109375 -1.234375 0.109375q-1.265625 0 -2.296875 -0.359375q-1.03125 -0.359375 -1.796875 -1.125q-0.75 -0.734375 -1.171875 -1.875q-0.421875 -1.15625 -0.421875 -2.671875q0 -1.4375 0.40625 -2.5625q0.40625 -1.140625 1.171875 -1.921875q0.734375 -0.75 1.78125 -1.140625q1.0625 -0.40625 2.34375 -0.40625q0.9375 0 1.859375 0.234375q0.9375 0.21875 2.078125 0.78125l0 1.84375l-0.109375 0q-0.96875 -0.8125 -1.921875 -1.171875q-0.9375 -0.375 -2.015625 -0.375q-0.875 0 -1.59375 0.296875q-0.703125 0.28125 -1.25 0.875q-0.546875 0.59375 -0.84375 1.484375q-0.296875 0.890625 -0.296875 2.0625q0 1.234375 0.328125 2.125q0.328125 0.875 0.859375 1.421875q0.546875 0.578125 1.265625 0.859375q0.734375 0.28125 1.546875 0.28125q1.125 0 2.09375 -0.375q0.984375 -0.390625 1.828125 -1.15625l0.109375 0l0 1.8125zm11.546875 0.84375l-2.015625 0l-4.59375 -5.1875l-1.15625 1.234375l0 3.953125l-1.546875 0l0 -11.640625l1.546875 0l0 6.078125l5.640625 -6.078125l1.875 0l-5.1875 5.46875l5.4375 6.171875zm10.4921875 -4.671875q0 1.265625 -0.28125 2.203125q-0.28125 0.9375 -0.90625 1.5625q-0.609375 0.59375 -1.421875 0.875q-0.796875 0.28125 -1.859375 0.28125q-1.09375 0 -1.90625 -0.296875q-0.8125 -0.296875 -1.375 -0.859375q-0.625 -0.640625 -0.90625 -1.546875q-0.28125 -0.90625 -0.28125 -2.21875l0 -6.96875l1.546875 0l0 7.046875q0 0.9375 0.125 1.484375q0.140625 0.546875 0.4375 1.0q0.34375 0.5 0.9375 0.765625q0.59375 0.25 1.421875 0.25q0.828125 0 1.40625 -0.25q0.59375 -0.25 0.953125 -0.765625q0.296875 -0.453125 0.421875 -1.015625q0.140625 -0.578125 0.140625 -1.4375l0 -7.078125l1.546875 0l0 6.96875zm10.5546875 -3.453125q0 0.78125 -0.265625 1.4375q-0.265625 0.65625 -0.75 1.140625q-0.609375 0.609375 -1.4375 0.90625q-0.8125 0.296875 -2.0625 0.296875l-1.546875 0l0 4.34375l-1.546875 0l0 -11.640625l3.15625 0q1.046875 0 1.765625 0.1875q0.734375 0.171875 1.296875 0.546875q0.671875 0.4375 1.03125 1.109375q0.359375 0.65625 0.359375 1.671875zm-1.609375 0.046875q0 -0.609375 -0.21875 -1.046875q-0.203125 -0.453125 -0.625 -0.734375q-0.375 -0.234375 -0.859375 -0.34375q-0.484375 -0.109375 -1.21875 -0.109375l-1.53125 0l0 4.65625l1.3125 0q0.9375 0 1.515625 -0.171875q0.59375 -0.171875 0.953125 -0.53125q0.375 -0.375 0.515625 -0.78125q0.15625 -0.421875 0.15625 -0.9375z" fill-rule="nonzero"/></g></svg>