<svg version="1.1" viewBox="0.0 0.0 577.1811023622047 282.45931758530185" fill="none" stroke="none" stroke-linecap="square" stroke-miterlimit="10" xmlns:xlink="http://www.w3.org/1999/xlink" xmlns="http://www.w3.org/2000/svg"><clipPath id="p.0"><path d="m0 0l577.1811 0l0 282.45932l-577.1811 0l0 -282.45932z" clip-rule="nonzero"/></clipPath><g clip-path="url(#p.0)"><path fill="#000000" fill-opacity="0.0" d="m0 0l577.1811 0l0 282.45932l-577.1811 0z" fill-rule="evenodd"/><path fill="#ffffff" d="m65.84777 126.88755l0 0c0 -11.274956 9.140152 -20.415108 20.415108 -20.415108l103.98868 0c5.4144287 0 10.607086 2.1508713 14.435669 5.9794464c3.8285675 3.8285751 5.9794464 9.021233 5.9794464 14.435661l0 81.65797c0 11.274963 -9.140152 20.415115 -20.415115 20.415115l-103.98868 0c-11.274956 0 -20.415108 -9.140152 -20.415108 -20.415115z" fill-rule="evenodd"/><path stroke="#000000" stroke-width="1.0" stroke-linejoin="round" stroke-linecap="butt" d="m65.84777 126.88755l0 0c0 -11.274956 9.140152 -20.415108 20.415108 -20.415108l103.98868 0c5.4144287 0 10.607086 2.1508713 14.435669 5.9794464c3.8285675 3.8285751 5.9794464 9.021233 5.9794464 14.435661l0 81.65797c0 11.274963 -9.140152 20.415115 -20.415115 20.415115l-103.98868 0c-11.274956 0 -20.415108 -9.140152 -20.415108 -20.415115z" fill-rule="evenodd"/><path fill="#ffffff" d="m69.1811 131.12901l0 0c0 -11.274948 9.14016 -20.4151 20.415108 -20.4151l103.98869 0c5.4144135 0 10.607086 2.1508713 14.435654 5.9794464c3.8285828 3.8285751 5.9794464 9.021233 5.9794464 14.435654l0 81.657974c0 11.274963 -9.140152 20.415115 -20.4151 20.415115l-103.98869 0c-11.274948 0 -20.415108 -9.140152 -20.415108 -20.415115z" fill-rule="evenodd"/><path stroke="#000000" stroke-width="1.0" stroke-linejoin="round" stroke-linecap="butt" d="m69.1811 131.12901l0 0c0 -11.274948 9.14016 -20.4151 20.415108 -20.4151l103.98869 0c5.4144135 0 10.607086 2.1508713 14.435654 5.9794464c3.8285828 3.8285751 5.9794464 9.021233 5.9794464 14.435654l0 81.657974c0 11.274963 -9.140152 20.415115 -20.4151 20.415115l-103.98869 0c-11.274948 0 -20.415108 -9.140152 -20.415108 -20.415115z" fill-rule="evenodd"/><path fill="#ffffff" d="m72.95276 134.9558l0 0c0 -11.274956 9.140152 -20.415115 20.4151 -20.415115l103.98869 0c5.4144135 0 10.607086 2.1508713 14.435654 5.9794464c3.8285828 3.8285751 5.9794464 9.02124 5.9794464 14.435669l0 81.657974c0 11.274948 -9.140152 20.4151 -20.4151 20.4151l-103.98869 0c-11.274948 0 -20.4151 -9.140152 -20.4151 -20.4151z" fill-rule="evenodd"/><path stroke="#000000" stroke-width="1.0" stroke-linejoin="round" stroke-linecap="butt" d="m72.95276 134.9558l0 0c0 -11.274956 9.140152 -20.415115 20.4151 -20.415115l103.98869 0c5.4144135 0 10.607086 2.1508713 14.435654 5.9794464c3.8285828 3.8285751 5.9794464 9.02124 5.9794464 14.435669l0 81.657974c0 11.274948 -9.140152 20.4151 -20.4151 20.4151l-103.98869 0c-11.274948 0 -20.4151 -9.140152 -20.4151 -20.4151z" fill-rule="evenodd"/><path fill="#f3f3f3" d="m369.484 66.23897l0 0c0 -3.3021812 2.676941 -5.979126 5.979126 -5.979126l113.04965 0c1.5857544 0 3.1065674 0.62994385 4.2278748 1.7512436c1.1212769 1.1213036 1.7512207 2.6421204 1.7512207 4.2278824l0 23.915771c0 3.3021774 -2.676941 5.9791183 -5.9790955 5.9791183l-113.04965 0c-3.302185 0 -5.979126 -2.676941 -5.979126 -5.9791183z" fill-rule="evenodd"/><path stroke="#000000" stroke-width="1.0" stroke-linejoin="round" stroke-linecap="butt" d="m369.484 66.23897l0 0c0 -3.3021812 2.676941 -5.979126 5.979126 -5.979126l113.04965 0c1.5857544 0 3.1065674 0.62994385 4.2278748 1.7512436c1.1212769 1.1213036 1.7512207 2.6421204 1.7512207 4.2278824l0 23.915771c0 3.3021774 -2.676941 5.9791183 -5.9790955 5.9791183l-113.04965 0c-3.302185 0 -5.979126 -2.676941 -5.979126 -5.9791183z" fill-rule="evenodd"/><path fill="#000000" fill-opacity="0.0" d="m201.41995 203.29659c42.015747 0 63.02362 -31.275589 84.031494 -62.551178c21.007874 -31.275589 42.015747 -62.551178 84.031494 -62.551178" fill-rule="evenodd"/><path stroke="#000000" stroke-width="1.0" stroke-linejoin="round" stroke-linecap="butt" d="m201.41995 203.29659c42.015747 0 63.02362 -31.275589 84.031494 -62.551178c10.503937 -15.6377945 21.007874 -31.275589 34.137787 -43.003937c6.564972 -5.864174 13.786438 -10.750984 21.992615 -14.171753c4.103119 -1.7103806 8.452393 -3.0542603 13.088928 -3.9705353c2.3182373 -0.4581375 4.7082825 -0.8093796 7.1752625 -1.0460815c0.30838013 -0.029586792 0.61795044 -0.057388306 0.92874146 -0.08338165l0.71221924 -0.0552063" fill-rule="evenodd"/><path fill="#000000" stroke="#000000" stroke-width="1.0" stroke-linecap="butt" d="m363.54764 80.06513l4.4743958 -1.8172302l-4.595703 -1.4840088z" fill-rule="evenodd"/><path fill="#000000" fill-opacity="0.0" d="m201.41995 203.29659c42.015747 0 63.02362 -14.8346405 84.031494 -29.669281c21.007874 -14.834656 42.015747 -29.669296 84.031494 -29.669296" fill-rule="evenodd"/><path stroke="#000000" stroke-width="1.0" stroke-linejoin="round" stroke-linecap="butt" d="m201.41995 203.29659c42.015747 0 63.02362 -14.8346405 84.031494 -29.669281c10.503937 -7.417328 21.007874 -14.834656 34.137787 -20.397644c6.564972 -2.7814941 13.786438 -5.099411 21.992615 -6.7219543c4.103119 -0.81126404 8.452393 -1.4486847 13.088928 -1.8833008c2.3182373 -0.21730042 4.7082825 -0.38389587 7.1752625 -0.49617004c0.30838013 -0.014038086 0.61795044 -0.02722168 0.92874146 -0.03956604l0.7090759 -0.026062012" fill-rule="evenodd"/><path fill="#000000" stroke="#000000" stroke-width="1.0" stroke-linecap="butt" d="m363.51263 145.7141l4.5086365 -1.7306061l-4.566223 -1.5723572z" fill-rule="evenodd"/><path fill="#ffffff" d="m96.50656 135.40683l104.91339 0l0 25.259842l-104.91339 0z" fill-rule="evenodd"/><path stroke="#000000" stroke-width="1.0" stroke-linejoin="round" stroke-linecap="butt" d="m96.50656 135.40683l104.91339 0l0 25.259842l-104.91339 0z" fill-rule="evenodd"/><path fill="#000000" d="m127.33586 149.77425l1.203125 -0.109375q0.078125 0.71875 0.390625 1.1875q0.3125 0.453125 0.953125 0.734375q0.65625 0.28125 1.46875 0.28125q0.71875 0 1.265625 -0.21875q0.5625 -0.21875 0.828125 -0.578125q0.265625 -0.375 0.265625 -0.828125q0 -0.453125 -0.265625 -0.78125q-0.25 -0.328125 -0.84375 -0.5625q-0.390625 -0.15625 -1.703125 -0.46875q-1.3125 -0.3125 -1.84375 -0.59375q-0.671875 -0.359375 -1.015625 -0.890625q-0.328125 -0.53125 -0.328125 -1.1875q0 -0.71875 0.40625 -1.34375q0.40625 -0.625 1.1875 -0.953125q0.796875 -0.328125 1.765625 -0.328125q1.046875 0 1.859375 0.34375q0.8125 0.34375 1.25 1.015625q0.4375 0.65625 0.46875 1.484375l-1.203125 0.09375q-0.109375 -0.90625 -0.671875 -1.359375q-0.5625 -0.46875 -1.65625 -0.46875q-1.140625 0 -1.671875 0.421875q-0.515625 0.421875 -0.515625 1.015625q0 0.515625 0.359375 0.84375q0.375 0.328125 1.90625 0.6875q1.546875 0.34375 2.109375 0.59375q0.84375 0.390625 1.234375 0.984375q0.390625 0.578125 0.390625 1.359375q0 0.75 -0.4375 1.4375q-0.421875 0.671875 -1.25 1.046875q-0.8125 0.359375 -1.828125 0.359375q-1.296875 0 -2.171875 -0.375q-0.875 -0.375 -1.375 -1.125q-0.5 -0.765625 -0.53125 -1.71875zm13.90538 0.84375l1.203125 0.140625q-0.28125 1.0625 -1.0625 1.65625q-0.765625 0.578125 -1.96875 0.578125q-1.515625 0 -2.40625 -0.9375q-0.890625 -0.9375 -0.890625 -2.609375q0 -1.75 0.890625 -2.703125q0.90625 -0.96875 2.34375 -0.96875q1.390625 0 2.265625 0.9375q0.875 0.9375 0.875 2.65625q0 0.109375 0 0.3125l-5.15625 0q0.0625 1.140625 0.640625 1.75q0.578125 0.59375 1.4375 0.59375q0.65625 0 1.109375 -0.328125q0.453125 -0.34375 0.71875 -1.078125zm-3.84375 -1.90625l3.859375 0q-0.078125 -0.859375 -0.4375 -1.296875q-0.5625 -0.6875 -1.453125 -0.6875q-0.8125 0 -1.359375 0.546875q-0.546875 0.53125 -0.609375 1.4375zm6.5062256 4.125l0 -6.90625l1.0625 0l0 1.046875q0.40625 -0.734375 0.734375 -0.96875q0.34375 -0.234375 0.765625 -0.234375q0.59375 0 1.203125 0.375l-0.40625 1.078125q-0.4375 -0.25 -0.859375 -0.25q-0.390625 0 -0.703125 0.234375q-0.296875 0.234375 -0.421875 0.640625q-0.203125 0.625 -0.203125 1.359375l0 3.625l-1.171875 0zm6.3758698 0l-2.625 -6.90625l1.234375 0l1.484375 4.140625q0.234375 0.65625 0.4375 1.390625q0.15625 -0.546875 0.4375 -1.3125l1.53125 -4.21875l1.21875 0l-2.625 6.90625l-1.09375 0zm4.7578125 -8.1875l0 -1.359375l1.171875 0l0 1.359375l-1.171875 0zm0 8.1875l0 -6.90625l1.171875 0l0 6.90625l-1.171875 0zm7.46109 -2.53125l1.15625 0.15625q-0.1875 1.1875 -0.96875 1.859375q-0.78125 0.671875 -1.921875 0.671875q-1.40625 0 -2.28125 -0.921875q-0.859375 -0.9375 -0.859375 -2.65625q0 -1.125 0.375 -1.96875q0.375 -0.84375 1.125 -1.25q0.765625 -0.421875 1.65625 -0.421875q1.125 0 1.84375 0.578125q0.71875 0.5625 0.921875 1.609375l-1.140625 0.171875q-0.171875 -0.703125 -0.59375 -1.046875q-0.40625 -0.359375 -0.984375 -0.359375q-0.890625 0 -1.453125 0.640625q-0.546875 0.640625 -0.546875 2.0q0 1.40625 0.53125 2.03125q0.546875 0.625 1.40625 0.625q0.6875 0 1.140625 -0.421875q0.46875 -0.421875 0.59375 -1.296875zm6.8828125 0.3125l1.203125 0.140625q-0.28125 1.0625 -1.0625 1.65625q-0.765625 0.578125 -1.96875 0.578125q-1.515625 0 -2.40625 -0.9375q-0.890625 -0.9375 -0.890625 -2.609375q0 -1.75 0.890625 -2.703125q0.90625 -0.96875 2.34375 -0.96875q1.390625 0 2.265625 0.9375q0.875 0.9375 0.875 2.65625q0 0.109375 0 0.3125l-5.15625 0q0.0625 1.140625 0.640625 1.75q0.578125 0.59375 1.4375 0.59375q0.65625 0 1.109375 -0.328125q0.453125 -0.34375 0.71875 -1.078125zm-3.84375 -1.90625l3.859375 0q-0.078125 -0.859375 -0.4375 -1.296875q-0.5625 -0.6875 -1.453125 -0.6875q-0.8125 0 -1.359375 0.546875q-0.546875 0.53125 -0.609375 1.4375z" fill-rule="nonzero"/><path fill="#d9d9d9" d="m96.50656 190.66667l104.91339 0l0 25.259842l-104.91339 0z" fill-rule="evenodd"/><path stroke="#000000" stroke-width="1.0" stroke-linejoin="round" stroke-linecap="butt" d="m96.50656 190.66667l104.91339 0l0 25.259842l-104.91339 0z" fill-rule="evenodd"/><path fill="#000000" d="m108.0758 205.03409l1.203125 -0.109375q0.078125 0.71875 0.390625 1.1875q0.3125 0.453125 0.953125 0.734375q0.65625 0.28125 1.46875 0.28125q0.71875 0 1.265625 -0.21875q0.5625 -0.21875 0.828125 -0.578125q0.265625 -0.375 0.265625 -0.828125q0 -0.453125 -0.265625 -0.78125q-0.25 -0.328125 -0.84375 -0.5625q-0.390625 -0.15625 -1.703125 -0.46875q-1.3125 -0.3125 -1.84375 -0.59375q-0.671875 -0.359375 -1.015625 -0.890625q-0.328125 -0.53125 -0.328125 -1.1875q0 -0.71875 0.40625 -1.34375q0.40625 -0.625 1.1875 -0.953125q0.796875 -0.328125 1.765625 -0.328125q1.046875 0 1.859375 0.34375q0.8125 0.34375 1.25 1.015625q0.4375 0.65625 0.46875 1.484375l-1.203125 0.09375q-0.109375 -0.90625 -0.671875 -1.359375q-0.5625 -0.46875 -1.65625 -0.46875q-1.140625 0 -1.671875 0.421875q-0.515625 0.421875 -0.515625 1.015625q0 0.515625 0.359375 0.84375q0.375 0.328125 1.90625 0.6875q1.546875 0.34375 2.109375 0.59375q0.84375 0.390625 1.234375 0.984375q0.390625 0.578125 0.390625 1.359375q0 0.75 -0.4375 1.4375q-0.421875 0.671875 -1.25 1.046875q-0.8125 0.359375 -1.828125 0.359375q-1.296875 0 -2.171875 -0.375q-0.875 -0.375 -1.375 -1.125q-0.5 -0.765625 -0.53125 -1.71875zm9.18663 -5.125l0 -1.359375l1.171875 0l0 1.359375l-1.171875 0zm0 8.1875l0 -6.90625l1.171875 0l0 6.90625l-1.171875 0zm7.42984 0l0 -0.875q-0.65625 1.03125 -1.9375 1.03125q-0.8125 0 -1.515625 -0.453125q-0.6875 -0.453125 -1.078125 -1.265625q-0.375 -0.828125 -0.375 -1.890625q0 -1.03125 0.34375 -1.875q0.34375 -0.84375 1.03125 -1.28125q0.703125 -0.453125 1.546875 -0.453125q0.625 0 1.109375 0.265625q0.5 0.25 0.796875 0.671875l0 -3.421875l1.171875 0l0 9.546875l-1.09375 0zm-3.703125 -3.453125q0 1.328125 0.5625 1.984375q0.5625 0.65625 1.328125 0.65625q0.765625 0 1.296875 -0.625q0.53125 -0.625 0.53125 -1.90625q0 -1.421875 -0.546875 -2.078125q-0.546875 -0.671875 -1.34375 -0.671875q-0.78125 0 -1.3125 0.640625q-0.515625 0.625 -0.515625 2.0zm11.365593 1.234375l1.203125 0.140625q-0.28125 1.0625 -1.0625 1.65625q-0.765625 0.578125 -1.96875 0.578125q-1.515625 0 -2.40625 -0.9375q-0.8906174 -0.9375 -0.8906174 -2.609375q0 -1.75 0.8906174 -2.703125q0.90625 -0.96875 2.34375 -0.96875q1.390625 0 2.265625 0.9375q0.875 0.9375 0.875 2.65625q0 0.109375 0 0.3125l-5.15625 0q0.0625 1.140625 0.640625 1.75q0.578125 0.59375 1.4375 0.59375q0.65625 0 1.109375 -0.328125q0.453125 -0.34375 0.71875 -1.078125zm-3.84375 -1.90625l3.859375 0q-0.078125 -0.859375 -0.4375 -1.296875q-0.5625 -0.6875 -1.453125 -0.6875q-0.8125 0 -1.359375 0.546875q-0.546875 0.53125 -0.609375 1.4375zm11.037476 1.59375l1.15625 0.15625q-0.1875 1.1875 -0.96875 1.859375q-0.78125 0.671875 -1.921875 0.671875q-1.40625 0 -2.28125 -0.921875q-0.859375 -0.9375 -0.859375 -2.65625q0 -1.125 0.375 -1.96875q0.375 -0.84375 1.125 -1.25q0.765625 -0.421875 1.65625 -0.421875q1.125 0 1.84375 0.578125q0.71875 0.5625 0.921875 1.609375l-1.140625 0.171875q-0.171875 -0.703125 -0.59375 -1.046875q-0.40625 -0.359375 -0.984375 -0.359375q-0.890625 0 -1.453125 0.640625q-0.546875 0.640625 -0.546875 2.0q0 1.40625 0.53125 2.03125q0.546875 0.625 1.40625 0.625q0.6875 0 1.140625 -0.421875q0.46875 -0.421875 0.59375 -1.296875zm6.6640625 1.671875q-0.65625 0.5625 -1.265625 0.796875q-0.59375 0.21875 -1.28125 0.21875q-1.140625 0 -1.75 -0.546875q-0.609375 -0.5625 -0.609375 -1.4375q0 -0.5 0.21875 -0.921875q0.234375 -0.421875 0.609375 -0.671875q0.375 -0.25 0.84375 -0.390625q0.34375 -0.078125 1.046875 -0.171875q1.421875 -0.171875 2.09375 -0.40625q0 -0.234375 0 -0.296875q0 -0.71875 -0.328125 -1.015625q-0.453125 -0.390625 -1.34375 -0.390625q-0.8125 0 -1.21875 0.296875q-0.390625 0.28125 -0.578125 1.015625l-1.140625 -0.15625q0.15625 -0.734375 0.515625 -1.1875q0.359375 -0.453125 1.03125 -0.6875q0.671875 -0.25 1.5625 -0.25q0.890625 0 1.4375 0.203125q0.5625 0.203125 0.8125 0.53125q0.265625 0.3125 0.375 0.796875q0.046875 0.296875 0.046875 1.078125l0 1.5625q0 1.625 0.078125 2.0625q0.078125 0.4375 0.296875 0.828125l-1.21875 0q-0.1875 -0.359375 -0.234375 -0.859375zm-0.09375 -2.609375q-0.640625 0.265625 -1.921875 0.4375q-0.71875 0.109375 -1.015625 0.25q-0.296875 0.125 -0.46875 0.375q-0.15625 0.25 -0.15625 0.546875q0 0.46875 0.34375 0.78125q0.359375 0.3125 1.046875 0.3125q0.671875 0 1.203125 -0.296875q0.53125 -0.296875 0.78125 -0.8125q0.1875 -0.390625 0.1875 -1.171875l0 -0.421875zm2.9749756 3.46875l0 -6.90625l1.0625 0l0 1.046875q0.40625 -0.734375 0.734375 -0.96875q0.34375 -0.234375 0.765625 -0.234375q0.59375 0 1.203125 0.375l-0.40625 1.078125q-0.4375 -0.25 -0.859375 -0.25q-0.390625 0 -0.703125 0.234375q-0.296875 0.234375 -0.421875 0.640625q-0.203125 0.625 -0.203125 1.359375l0 3.625l-1.171875 0zm8.313232 0l0 -9.546875l3.59375 0q0.953125 0 1.453125 0.09375q0.703125 0.125 1.171875 0.453125q0.484375 0.328125 0.765625 0.921875q0.296875 0.59375 0.296875 1.296875q0 1.21875 -0.78125 2.0625q-0.765625 0.84375 -2.796875 0.84375l-2.4375 0l0 3.875l-1.265625 0zm1.265625 -5.0l2.453125 0q1.234375 0 1.75 -0.453125q0.515625 -0.46875 0.515625 -1.28125q0 -0.609375 -0.3125 -1.03125q-0.296875 -0.421875 -0.796875 -0.5625q-0.3125 -0.09375 -1.171875 -0.09375l-2.4375 0l0 3.421875zm7.4522552 5.0l0 -6.90625l1.0625 0l0 1.046875q0.40625 -0.734375 0.734375 -0.96875q0.34375 -0.234375 0.765625 -0.234375q0.59375 0 1.203125 0.375l-0.40625 1.078125q-0.4375 -0.25 -0.859375 -0.25q-0.390625 0 -0.703125 0.234375q-0.296875 0.234375 -0.421875 0.640625q-0.203125 0.625 -0.203125 1.359375l0 3.625l-1.171875 0zm4.0164948 -3.453125q0 -1.921875 1.078125 -2.84375q0.890625 -0.765625 2.171875 -0.765625q1.421875 0 2.328125 0.9375q0.90625 0.921875 0.90625 2.578125q0 1.328125 -0.40625 2.09375q-0.390625 0.765625 -1.15625 1.1875q-0.765625 0.421875 -1.671875 0.421875q-1.453125 0 -2.359375 -0.921875q-0.890625 -0.9375 -0.890625 -2.6875zm1.203125 0q0 1.328125 0.578125 1.984375q0.59375 0.65625 1.46875 0.65625q0.875 0 1.453125 -0.65625q0.578125 -0.671875 0.578125 -2.03125q0 -1.28125 -0.59375 -1.9375q-0.578125 -0.65625 -1.4375 -0.65625q-0.875 0 -1.46875 0.65625q-0.578125 0.65625 -0.578125 1.984375zm5.8656006 3.453125l2.53125 -3.59375l-2.34375 -3.3125l1.46875 0l1.0625 1.609375q0.296875 0.46875 0.484375 0.78125q0.28125 -0.4375 0.515625 -0.765625l1.171875 -1.625l1.40625 0l-2.390625 3.25l2.5625 3.65625l-1.4375 0l-1.421875 -2.140625l-0.375 -0.59375l-1.8125 2.734375l-1.421875 0zm7.3984375 2.65625l-0.125 -1.09375q0.375 0.109375 0.65625 0.109375q0.390625 0 0.625 -0.140625q0.234375 -0.125 0.390625 -0.359375q0.109375 -0.171875 0.359375 -0.875q0.03125 -0.09375 0.109375 -0.28125l-2.625 -6.921875l1.265625 0l1.4375 4.0q0.28125 0.765625 0.5 1.59375q0.203125 -0.796875 0.46875 -1.578125l1.484375 -4.015625l1.171875 0l-2.625 7.015625q-0.421875 1.140625 -0.65625 1.578125q-0.3125 0.578125 -0.71875 0.84375q-0.40625 0.28125 -0.96875 0.28125q-0.328125 0 -0.75 -0.15625z" fill-rule="nonzero"/><path fill="#000000" fill-opacity="0.0" d="m201.41995 203.29659c42.015747 0 63.02362 1.330719 84.031494 2.6614227c21.007874 1.3307037 42.015747 2.6614075 84.031494 2.6614075" fill-rule="evenodd"/><path stroke="#000000" stroke-width="1.0" stroke-linejoin="round" stroke-linecap="butt" d="m201.41995 203.29659c42.015747 0 63.02362 1.330719 84.031494 2.6614227c10.503937 0.66534424 21.007874 1.3307037 34.137787 1.8297272c6.564972 0.24949646 13.786438 0.45742798 21.992615 0.6029663c4.103119 0.072784424 8.452393 0.12997437 13.088928 0.16894531c2.3182373 0.019485474 4.7082825 0.034439087 7.1752625 0.04449463l1.6369019 0.004989624" fill-rule="evenodd"/><path fill="#000000" stroke="#000000" stroke-width="1.0" stroke-linecap="butt" d="m363.4801 210.26085l4.540924 -1.6439362l-4.535248 -1.6595154z" fill-rule="evenodd"/><path fill="#000000" fill-opacity="0.0" d="m148.96326 160.66667l0 30.015747" fill-rule="evenodd"/><path stroke="#000000" stroke-width="1.0" stroke-linejoin="round" stroke-linecap="butt" d="m148.96326 166.66667l0 18.015747" fill-rule="evenodd"/><path fill="#000000" stroke="#000000" stroke-width="1.0" stroke-linecap="butt" d="m150.61499 166.66667l-1.6517334 -4.538101l-1.6517334 4.538101z" fill-rule="evenodd"/><path fill="#000000" stroke="#000000" stroke-width="1.0" stroke-linecap="butt" d="m147.31152 184.68242l1.6517334 4.538101l1.6517334 -4.538101z" fill-rule="evenodd"/><path fill="#f3f3f3" d="m72.95271 37.16273l0 0c0 -6.67572E-4 5.41687E-4 -0.001209259 0.0012054443 -0.001209259l144.81769 0.001209259c3.2043457E-4 0 6.2561035E-4 1.2588501E-4 8.544922E-4 3.5095215E-4c2.2888184E-4 2.2888184E-4 3.5095215E-4 5.340576E-4 3.5095215E-4 8.544922E-4l-0.0012054443 39.431866c0 6.637573E-4 -5.340576E-4 0.0012054443 -0.0012054443 0.0012054443l-144.81769 -0.0012054443l0 0c-6.713867E-4 0 -0.0012054443 -5.41687E-4 -0.0012054443 -0.0012054443z" fill-rule="evenodd"/><path stroke="#000000" stroke-width="1.0" stroke-linejoin="round" stroke-linecap="butt" d="m72.95271 37.16273l0 0c0 -6.67572E-4 5.41687E-4 -0.001209259 0.0012054443 -0.001209259l144.81769 0.001209259c3.2043457E-4 0 6.2561035E-4 1.2588501E-4 8.544922E-4 3.5095215E-4c2.2888184E-4 2.2888184E-4 3.5095215E-4 5.340576E-4 3.5095215E-4 8.544922E-4l-0.0012054443 39.431866c0 6.637573E-4 -5.340576E-4 0.0012054443 -0.0012054443 0.0012054443l-144.81769 -0.0012054443l0 0c-6.713867E-4 0 -0.0012054443 -5.41687E-4 -0.0012054443 -0.0012054443z" fill-rule="evenodd"/><path fill="#000000" d="m131.59883 49.94489l0 -1.125l4.03125 -0.015625l0 3.546875q-0.921875 0.75 -1.921875 1.125q-0.984375 0.359375 -2.03125 0.359375q-1.40625 0 -2.5625 -0.59375q-1.140625 -0.609375 -1.734375 -1.734375q-0.578125 -1.140625 -0.578125 -2.546875q0 -1.40625 0.578125 -2.609375q0.59375 -1.203125 1.6875 -1.78125q1.09375 -0.59375 2.515625 -0.59375q1.03125 0 1.859375 0.34375q0.84375 0.328125 1.3125 0.9375q0.484375 0.59375 0.734375 1.546875l-1.140625 0.3125q-0.21875 -0.71875 -0.53125 -1.140625q-0.3125 -0.421875 -0.90625 -0.671875q-0.59375 -0.25 -1.3125 -0.25q-0.875 0 -1.515625 0.265625q-0.625 0.265625 -1.015625 0.703125q-0.375 0.421875 -0.59375 0.9375q-0.359375 0.875 -0.359375 1.921875q0 1.265625 0.4375 2.125q0.4375 0.859375 1.265625 1.28125q0.84375 0.421875 1.796875 0.421875q0.8125 0 1.59375 -0.3125q0.78125 -0.328125 1.1875 -0.6875l0 -1.765625l-2.796875 0zm5.726425 3.734375l0 -9.546875l1.171875 0l0 9.546875l-1.171875 0zm2.539215 -3.453125q0 -1.921875 1.078125 -2.84375q0.890625 -0.765625 2.171875 -0.765625q1.421875 0 2.328125 0.9375q0.90625 0.921875 0.90625 2.578125q0 1.328125 -0.40625 2.09375q-0.390625 0.765625 -1.15625 1.1875q-0.765625 0.421875 -1.671875 0.421875q-1.453125 0 -2.359375 -0.921875q-0.890625 -0.9375 -0.890625 -2.6875zm1.203125 0q0 1.328125 0.578125 1.984375q0.59375 0.65625 1.46875 0.65625q0.875 0 1.453125 -0.65625q0.578125 -0.671875 0.578125 -2.03125q0 -1.28125 -0.59375 -1.9375q-0.578125 -0.65625 -1.4375 -0.65625q-0.875 0 -1.46875 0.65625q-0.578125 0.65625 -0.578125 1.984375zm7.7249756 3.453125l-1.078125 0l0 -9.546875l1.171875 0l0 3.40625q0.734375 -0.921875 1.890625 -0.921875q0.640625 0 1.203125 0.265625q0.578125 0.25 0.9375 0.71875q0.375 0.453125 0.578125 1.109375q0.203125 0.65625 0.203125 1.40625q0 1.78125 -0.875 2.75q-0.875 0.96875 -2.109375 0.96875q-1.21875 0 -1.921875 -1.015625l0 0.859375zm0 -3.5q0 1.234375 0.328125 1.78125q0.5625 0.90625 1.5 0.90625q0.765625 0 1.328125 -0.65625q0.5625 -0.671875 0.5625 -2.0q0 -1.34375 -0.546875 -1.984375q-0.53125 -0.65625 -1.296875 -0.65625q-0.765625 0 -1.328125 0.671875q-0.546875 0.671875 -0.546875 1.9375zm10.849976 2.640625q-0.65625 0.5625 -1.265625 0.796875q-0.59375 0.21875 -1.28125 0.21875q-1.140625 0 -1.75 -0.546875q-0.609375 -0.5625 -0.609375 -1.4375q0 -0.5 0.21875 -0.921875q0.234375 -0.421875 0.609375 -0.671875q0.375 -0.25 0.84375 -0.390625q0.34375 -0.078125 1.046875 -0.171875q1.421875 -0.171875 2.09375 -0.40625q0 -0.234375 0 -0.296875q0 -0.71875 -0.328125 -1.015625q-0.453125 -0.390625 -1.34375 -0.390625q-0.8125 0 -1.21875 0.296875q-0.390625 0.28125 -0.578125 1.015625l-1.140625 -0.15625q0.15625 -0.734375 0.515625 -1.1875q0.359375 -0.453125 1.03125 -0.6875q0.671875 -0.25 1.5625 -0.25q0.890625 0 1.4375 0.203125q0.5625 0.203125 0.8125 0.53125q0.265625 0.3125 0.375 0.796875q0.046875 0.296875 0.046875 1.078125l0 1.5625q0 1.625 0.078125 2.0625q0.078125 0.4375 0.296875 0.828125l-1.21875 0q-0.1875 -0.359375 -0.234375 -0.859375zm-0.09375 -2.609375q-0.640625 0.265625 -1.921875 0.4375q-0.71875 0.109375 -1.015625 0.25q-0.296875 0.125 -0.46875 0.375q-0.15625 0.25 -0.15625 0.546875q0 0.46875 0.34375 0.78125q0.359375 0.3125 1.046875 0.3125q0.671875 0 1.203125 -0.296875q0.53125 -0.296875 0.78125 -0.8125q0.1875 -0.390625 0.1875 -1.171875l0 -0.421875zm2.9749756 3.46875l0 -9.546875l1.171875 0l0 9.546875l-1.171875 0z" fill-rule="nonzero"/><path fill="#000000" d="m106.684906 69.67926l0 -9.546871l1.265625 0l0 8.421871l4.703125 0l0 1.125l-5.96875 0zm6.8812256 -3.453125q0 -1.921875 1.078125 -2.8437462q0.890625 -0.765625 2.171875 -0.765625q1.421875 0 2.328125 0.9375q0.90625 0.9218712 0.90625 2.5781212q0 1.328125 -0.40625 2.09375q-0.390625 0.765625 -1.15625 1.1875q-0.765625 0.421875 -1.671875 0.421875q-1.453125 0 -2.359375 -0.921875q-0.890625 -0.9375 -0.890625 -2.6875zm1.203125 0q0 1.328125 0.578125 1.984375q0.59375 0.65625 1.46875 0.65625q0.875 0 1.453125 -0.65625q0.578125 -0.671875 0.578125 -2.03125q0 -1.28125 -0.59375 -1.9375q-0.578125 -0.6562462 -1.4375 -0.6562462q-0.875 0 -1.46875 0.6562462q-0.578125 0.65625 -0.578125 1.984375zm11.162476 2.59375q-0.65625 0.5625 -1.265625 0.796875q-0.59375 0.21875 -1.28125 0.21875q-1.140625 0 -1.75 -0.546875q-0.609375 -0.5625 -0.609375 -1.4375q0 -0.5 0.21875 -0.921875q0.234375 -0.421875 0.609375 -0.671875q0.375 -0.25 0.84375 -0.390625q0.34375 -0.078125 1.046875 -0.171875q1.421875 -0.171875 2.09375 -0.40625q0 -0.234375 0 -0.296875q0 -0.71875 -0.328125 -1.0156212q-0.453125 -0.390625 -1.34375 -0.390625q-0.8125 0 -1.21875 0.296875q-0.390625 0.2812462 -0.578125 1.0156212l-1.140625 -0.15625q0.15625 -0.734375 0.515625 -1.1874962q0.359375 -0.453125 1.03125 -0.6875q0.671875 -0.25 1.5625 -0.25q0.890625 0 1.4375 0.203125q0.5625 0.203125 0.8125 0.53125q0.265625 0.3125 0.375 0.7968712q0.046875 0.296875 0.046875 1.078125l0 1.5625q0 1.625 0.078125 2.0625q0.078125 0.4375 0.296875 0.828125l-1.21875 0q-0.1875 -0.359375 -0.234375 -0.859375zm-0.09375 -2.609375q-0.640625 0.265625 -1.921875 0.4375q-0.71875 0.109375 -1.015625 0.25q-0.296875 0.125 -0.46875 0.375q-0.15625 0.25 -0.15625 0.546875q0 0.46875 0.34375 0.78125q0.359375 0.3125 1.046875 0.3125q0.671875 0 1.203125 -0.296875q0.53125 -0.296875 0.78125 -0.8125q0.1875 -0.390625 0.1875 -1.171875l0 -0.421875zm7.4749756 3.46875l0 -0.875q-0.65625 1.03125 -1.9375 1.03125q-0.8125 0 -1.515625 -0.453125q-0.6875 -0.453125 -1.078125 -1.265625q-0.375 -0.828125 -0.375 -1.890625q0 -1.03125 0.34375 -1.875q0.34375 -0.8437462 1.03125 -1.2812462q0.703125 -0.453125 1.546875 -0.453125q0.625 0 1.109375 0.265625q0.5 0.25 0.796875 0.671875l0 -3.421875l1.171875 0l0 9.546871l-1.09375 0zm-3.703125 -3.453125q0 1.328125 0.5625 1.984375q0.5625 0.65625 1.328125 0.65625q0.765625 0 1.296875 -0.625q0.53125 -0.625 0.53125 -1.90625q0 -1.421875 -0.546875 -2.078125q-0.546875 -0.6718712 -1.34375 -0.6718712q-0.78125 0 -1.3125 0.6406212q-0.515625 0.625 -0.515625 2.0zm10.427963 3.453125l0 -9.546871l3.59375 0q1.09375 0 1.75 0.296875q0.65625 0.28125 1.03125 0.890625q0.375 0.609375 0.375 1.265625q0 0.609375 -0.34375 1.15625q-0.328125 0.5312462 -0.984375 0.8593712q0.859375 0.25 1.328125 0.875q0.46875 0.609375 0.46875 1.4375q0 0.671875 -0.296875 1.25q-0.28125 0.578125 -0.703125 0.890625q-0.40625 0.3125 -1.03125 0.46875q-0.625 0.15625 -1.546875 0.15625l-3.640625 0zm1.265625 -5.53125l2.0625 0q0.84375 0 1.203125 -0.109375q0.484375 -0.14062119 0.71875 -0.4687462q0.25 -0.34375 0.25 -0.84375q0 -0.46875 -0.234375 -0.828125q-0.21875 -0.359375 -0.640625 -0.5q-0.421875 -0.140625 -1.453125 -0.140625l-1.90625 0l0 2.8906212zm0 4.40625l2.375 0q0.609375 0 0.859375 -0.046875q0.4375 -0.078125 0.734375 -0.25q0.296875 -0.1875 0.484375 -0.53125q0.1875 -0.359375 0.1875 -0.8125q0 -0.53125 -0.28125 -0.921875q-0.265625 -0.40625 -0.75 -0.5625q-0.484375 -0.15625 -1.40625 -0.15625l-2.203125 0l0 3.28125zm12.046005 0.265625q-0.65625 0.5625 -1.265625 0.796875q-0.59375 0.21875 -1.28125 0.21875q-1.140625 0 -1.75 -0.546875q-0.609375 -0.5625 -0.609375 -1.4375q0 -0.5 0.21875 -0.921875q0.234375 -0.421875 0.609375 -0.671875q0.375 -0.25 0.84375 -0.390625q0.34375 -0.078125 1.046875 -0.171875q1.421875 -0.171875 2.09375 -0.40625q0 -0.234375 0 -0.296875q0 -0.71875 -0.328125 -1.0156212q-0.453125 -0.390625 -1.34375 -0.390625q-0.8125 0 -1.21875 0.296875q-0.390625 0.2812462 -0.578125 1.0156212l-1.140625 -0.15625q0.15625 -0.734375 0.515625 -1.1874962q0.359375 -0.453125 1.03125 -0.6875q0.671875 -0.25 1.5625 -0.25q0.890625 0 1.4375 0.203125q0.5625 0.203125 0.8125 0.53125q0.265625 0.3125 0.375 0.7968712q0.046875 0.296875 0.046875 1.078125l0 1.5625q0 1.625 0.078125 2.0625q0.078125 0.4375 0.296875 0.828125l-1.21875 0q-0.1875 -0.359375 -0.234375 -0.859375zm-0.09375 -2.609375q-0.640625 0.265625 -1.921875 0.4375q-0.71875 0.109375 -1.015625 0.25q-0.296875 0.125 -0.46875 0.375q-0.15625 0.25 -0.15625 0.546875q0 0.46875 0.34375 0.78125q0.359375 0.3125 1.046875 0.3125q0.671875 0 1.203125 -0.296875q0.53125 -0.296875 0.78125 -0.8125q0.1875 -0.390625 0.1875 -1.171875l0 -0.421875zm2.9749756 3.46875l0 -9.546871l1.171875 0l0 9.546871l-1.171875 0zm7.49234 -0.859375q-0.65625 0.5625 -1.265625 0.796875q-0.59375 0.21875 -1.28125 0.21875q-1.140625 0 -1.75 -0.546875q-0.609375 -0.5625 -0.609375 -1.4375q0 -0.5 0.21875 -0.921875q0.234375 -0.421875 0.609375 -0.671875q0.375 -0.25 0.84375 -0.390625q0.34375 -0.078125 1.046875 -0.171875q1.421875 -0.171875 2.09375 -0.40625q0 -0.234375 0 -0.296875q0 -0.71875 -0.328125 -1.0156212q-0.453125 -0.390625 -1.34375 -0.390625q-0.8125 0 -1.21875 0.296875q-0.390625 0.2812462 -0.578125 1.0156212l-1.140625 -0.15625q0.15625 -0.734375 0.515625 -1.1874962q0.359375 -0.453125 1.03125 -0.6875q0.671875 -0.25 1.5625 -0.25q0.890625 0 1.4375 0.203125q0.5625 0.203125 0.8125 0.53125q0.265625 0.3125 0.375 0.7968712q0.046875 0.296875 0.046875 1.078125l0 1.5625q0 1.625 0.078125 2.0625q0.078125 0.4375 0.296875 0.828125l-1.21875 0q-0.1875 -0.359375 -0.234375 -0.859375zm-0.09375 -2.609375q-0.640625 0.265625 -1.921875 0.4375q-0.71875 0.109375 -1.015625 0.25q-0.296875 0.125 -0.46875 0.375q-0.15625 0.25 -0.15625 0.546875q0 0.46875 0.34375 0.78125q0.359375 0.3125 1.046875 0.3125q0.671875 0 1.203125 -0.296875q0.53125 -0.296875 0.78125 -0.8125q0.1875 -0.390625 0.1875 -1.171875l0 -0.421875zm2.9906006 3.46875l0 -6.906246l1.0625 0l0 0.984375q0.75 -1.140625 2.1875 -1.140625q0.625 0 1.15625 0.21875q0.53125 0.21875 0.78125 0.59375q0.265625 0.359375 0.375 0.8593712q0.0625 0.328125 0.0625 1.140625l0 4.25l-1.171875 0l0 -4.203125q0 -0.71875 -0.140625 -1.0625q-0.140625 -0.359375 -0.484375 -0.5624962q-0.34375 -0.21875 -0.8125 -0.21875q-0.75 0 -1.296875 0.4687462q-0.546875 0.46875 -0.546875 1.796875l0 3.78125l-1.171875 0zm12.146851 -2.21875l1.203125 0.140625q-0.28125 1.0625 -1.0625 1.65625q-0.765625 0.578125 -1.96875 0.578125q-1.515625 0 -2.40625 -0.9375q-0.890625 -0.9375 -0.890625 -2.609375q0 -1.75 0.890625 -2.7031212q0.90625 -0.96875 2.34375 -0.96875q1.390625 0 2.265625 0.9375q0.875 0.9374962 0.875 2.6562462q0 0.109375 0 0.3125l-5.15625 0q0.0625 1.140625 0.640625 1.75q0.578125 0.59375 1.4375 0.59375q0.65625 0 1.109375 -0.328125q0.453125 -0.34375 0.71875 -1.078125zm-3.84375 -1.90625l3.859375 0q-0.078125 -0.859375 -0.4375 -1.296875q-0.5625 -0.6874962 -1.453125 -0.6874962q-0.8125 0 -1.359375 0.5468712q-0.546875 0.53125 -0.609375 1.4375zm6.5062256 4.125l0 -6.906246l1.0625 0l0 1.046875q0.40625 -0.734375 0.734375 -0.96875q0.34375 -0.234375 0.765625 -0.234375q0.59375 0 1.203125 0.375l-0.40625 1.0781212q-0.4375 -0.24999619 -0.859375 -0.24999619q-0.390625 0 -0.703125 0.23437119q-0.296875 0.234375 -0.421875 0.640625q-0.203125 0.625 -0.203125 1.359375l0 3.625l-1.171875 0z" fill-rule="nonzero"/><path fill="#f3f3f3" d="m378.4079 72.984375l0 0c0 -3.302185 2.676941 -5.979126 5.979126 -5.979126l113.04962 0c1.5857849 0 3.106598 0.62994385 4.2278748 1.7512436c1.1213074 1.1213074 1.7512512 2.6421204 1.7512512 4.2278824l0 23.915771c0 3.3021774 -2.676941 5.9791183 -5.979126 5.9791183l-113.04962 0c-3.302185 0 -5.979126 -2.676941 -5.979126 -5.9791183z" fill-rule="evenodd"/><path stroke="#000000" stroke-width="1.0" stroke-linejoin="round" stroke-linecap="butt" d="m378.4079 72.984375l0 0c0 -3.302185 2.676941 -5.979126 5.979126 -5.979126l113.04962 0c1.5857849 0 3.106598 0.62994385 4.2278748 1.7512436c1.1213074 1.1213074 1.7512512 2.6421204 1.7512512 4.2278824l0 23.915771c0 3.3021774 -2.676941 5.9791183 -5.979126 5.9791183l-113.04962 0c-3.302185 0 -5.979126 -2.676941 -5.979126 -5.9791183z" fill-rule="evenodd"/><path fill="#f3f3f3" d="m387.32916 80.819016l0 0c0 -3.3021774 2.676941 -5.9791183 5.979126 -5.9791183l113.04962 0c1.5857544 0 3.1065674 0.6299362 4.2278748 1.7512436c1.1213074 1.1212997 1.7512512 2.6421127 1.7512512 4.2278748l0 23.915771c0 3.3021774 -2.676941 5.979126 -5.979126 5.979126l-113.04962 0c-3.302185 0 -5.979126 -2.6769485 -5.979126 -5.979126z" fill-rule="evenodd"/><path stroke="#000000" stroke-width="1.0" stroke-linejoin="round" stroke-linecap="butt" d="m387.32916 80.819016l0 0c0 -3.3021774 2.676941 -5.9791183 5.979126 -5.9791183l113.04962 0c1.5857544 0 3.1065674 0.6299362 4.2278748 1.7512436c1.1213074 1.1212997 1.7512512 2.6421127 1.7512512 4.2278748l0 23.915771c0 3.3021774 -2.676941 5.979126 -5.979126 5.979126l-113.04962 0c-3.302185 0 -5.979126 -2.6769485 -5.979126 -5.979126z" fill-rule="evenodd"/><path fill="#000000" d="m428.91415 90.296906l-0.984375 0l0 -8.59375l1.0625 0l0 3.0625q0.671875 -0.828125 1.703125 -0.828125q0.578125 0 1.078125 0.234375q0.515625 0.21875 0.84375 0.640625q0.34375 0.421875 0.53125 1.015625q0.1875 0.59375 0.1875 1.265625q0 1.59375 -0.796875 2.46875q-0.796875 0.875 -1.890625 0.875q-1.109375 0 -1.734375 -0.921875l0 0.78125zm-0.015625 -3.15625q0 1.109375 0.3125 1.609375q0.5 0.8125 1.34375 0.8125q0.6875 0 1.1875 -0.59375q0.515625 -0.59375 0.515625 -1.796875q0 -1.21875 -0.484375 -1.796875q-0.484375 -0.578125 -1.171875 -0.578125q-0.6875 0 -1.203125 0.609375q-0.5 0.59375 -0.5 1.734375zm9.783203 2.390625q-0.59375 0.5 -1.140625 0.703125q-0.53125 0.203125 -1.15625 0.203125q-1.03125 0 -1.578125 -0.5q-0.546875 -0.5 -0.546875 -1.28125q0 -0.453125 0.203125 -0.828125q0.203125 -0.390625 0.546875 -0.609375q0.34375 -0.234375 0.765625 -0.34375q0.296875 -0.09375 0.9375 -0.171875q1.265625 -0.140625 1.875 -0.359375q0 -0.21875 0 -0.265625q0 -0.65625 -0.296875 -0.921875q-0.40625 -0.34375 -1.203125 -0.34375q-0.734375 0 -1.09375 0.265625q-0.359375 0.25 -0.53125 0.90625l-1.03125 -0.140625q0.140625 -0.65625 0.46875 -1.0625q0.328125 -0.40625 0.9375 -0.625q0.609375 -0.21875 1.40625 -0.21875q0.796875 0 1.296875 0.1875q0.5 0.1875 0.734375 0.46875q0.234375 0.28125 0.328125 0.71875q0.046875 0.265625 0.046875 0.96875l0 1.40625q0 1.46875 0.0625 1.859375q0.078125 0.390625 0.28125 0.75l-1.109375 0q-0.15625 -0.328125 -0.203125 -0.765625zm-0.09375 -2.359375q-0.578125 0.234375 -1.71875 0.40625q-0.65625 0.09375 -0.921875 0.21875q-0.265625 0.109375 -0.421875 0.328125q-0.140625 0.21875 -0.140625 0.5q0 0.421875 0.3125 0.703125q0.328125 0.28125 0.9375 0.28125q0.609375 0 1.078125 -0.265625q0.484375 -0.265625 0.703125 -0.734375q0.171875 -0.359375 0.171875 -1.046875l0 -0.390625zm6.767578 0.84375l1.03125 0.140625q-0.171875 1.0625 -0.875 1.671875q-0.703125 0.609375 -1.71875 0.609375q-1.28125 0 -2.0625 -0.828125q-0.765625 -0.84375 -0.765625 -2.40625q0 -1.0 0.328125 -1.75q0.34375 -0.765625 1.015625 -1.140625q0.6875 -0.375 1.5 -0.375q1.0 0 1.640625 0.515625q0.65625 0.5 0.84375 1.453125l-1.03125 0.15625q-0.140625 -0.625 -0.515625 -0.9375q-0.375 -0.328125 -0.90625 -0.328125q-0.796875 0 -1.296875 0.578125q-0.5 0.5625 -0.5 1.796875q0 1.265625 0.484375 1.828125q0.484375 0.5625 1.25 0.5625q0.625 0 1.03125 -0.375q0.421875 -0.375 0.546875 -1.171875zm1.9375 2.28125l0 -8.59375l1.0625 0l0 4.90625l2.484375 -2.53125l1.375 0l-2.390625 2.296875l2.625 3.921875l-1.296875 0l-2.0625 -3.1875l-0.734375 0.71875l0 2.46875l-1.0625 0zm10.25 -2.0l1.09375 0.125q-0.25 0.953125 -0.953125 1.484375q-0.703125 0.53125 -1.78125 0.53125q-1.359375 0 -2.171875 -0.84375q-0.796875 -0.84375 -0.796875 -2.359375q0 -1.5625 0.8125 -2.421875q0.8125 -0.875 2.09375 -0.875q1.25 0 2.03125 0.84375q0.796875 0.84375 0.796875 2.390625q0 0.09375 0 0.28125l-4.640625 0q0.0625 1.03125 0.578125 1.578125q0.515625 0.53125 1.296875 0.53125q0.578125 0 0.984375 -0.296875q0.421875 -0.3125 0.65625 -0.96875zm-3.453125 -1.703125l3.46875 0q-0.0625 -0.796875 -0.390625 -1.1875q-0.515625 -0.609375 -1.3125 -0.609375q-0.734375 0 -1.234375 0.484375q-0.484375 0.484375 -0.53125 1.3125zm5.876953 3.703125l0 -6.21875l0.9375 0l0 0.875q0.6875 -1.015625 1.984375 -1.015625q0.5625 0 1.03125 0.203125q0.484375 0.203125 0.71875 0.53125q0.234375 0.328125 0.328125 0.765625q0.046875 0.296875 0.046875 1.03125l0 3.828125l-1.046875 0l0 -3.78125q0 -0.65625 -0.125 -0.96875q-0.125 -0.3125 -0.4375 -0.5q-0.3125 -0.203125 -0.734375 -0.203125q-0.671875 0 -1.171875 0.4375q-0.484375 0.421875 -0.484375 1.609375l0 3.40625l-1.046875 0zm10.705078 0l0 -0.78125q-0.59375 0.921875 -1.734375 0.921875q-0.75 0 -1.375 -0.40625q-0.625 -0.421875 -0.96875 -1.15625q-0.34375 -0.734375 -0.34375 -1.6875q0 -0.921875 0.3125 -1.6875q0.3125 -0.765625 0.9375 -1.15625q0.625 -0.40625 1.390625 -0.40625q0.5625 0 1.0 0.234375q0.4375 0.234375 0.71875 0.609375l0 -3.078125l1.046875 0l0 8.59375l-0.984375 0zm-3.328125 -3.109375q0 1.203125 0.5 1.796875q0.5 0.578125 1.1875 0.578125q0.6875 0 1.171875 -0.5625q0.484375 -0.5625 0.484375 -1.71875q0 -1.28125 -0.5 -1.875q-0.484375 -0.59375 -1.203125 -0.59375q-0.703125 0 -1.171875 0.578125q-0.46875 0.5625 -0.46875 1.796875z" fill-rule="nonzero"/><path fill="#000000" d="m431.0538 104.296906l0 -1.0625l4.40625 -5.5q0.46875 -0.578125 0.890625 -1.015625l-4.796875 0l0 -1.015625l6.15625 0l0 1.015625l-4.828125 5.953125l-0.515625 0.609375l5.484375 0l0 1.015625l-6.796875 0zm7.501953 -3.109375q0 -1.734375 0.953125 -2.5625q0.796875 -0.6875 1.953125 -0.6875q1.28125 0 2.09375 0.84375q0.828125 0.828125 0.828125 2.3125q0 1.203125 -0.359375 1.890625q-0.359375 0.6875 -1.0625 1.078125q-0.6875 0.375 -1.5 0.375q-1.296875 0 -2.109375 -0.828125q-0.796875 -0.84375 -0.796875 -2.421875zm1.078125 0q0 1.1875 0.515625 1.78125q0.53125 0.59375 1.3125 0.59375q0.796875 0 1.3125 -0.59375q0.515625 -0.59375 0.515625 -1.8125q0 -1.15625 -0.53125 -1.75q-0.515625 -0.59375 -1.296875 -0.59375q-0.78125 0 -1.3125 0.59375q-0.515625 0.578125 -0.515625 1.78125zm5.986328 3.109375l0 -6.21875l0.9375 0l0 0.875q0.6875 -1.015625 1.984375 -1.015625q0.5625 0 1.03125 0.203125q0.484375 0.203125 0.71875 0.53125q0.234375 0.328125 0.328125 0.765625q0.046875 0.296875 0.046875 1.03125l0 3.828125l-1.046875 0l0 -3.78125q0 -0.65625 -0.125 -0.96875q-0.125 -0.3125 -0.4375 -0.5q-0.3125 -0.203125 -0.734375 -0.203125q-0.671875 0 -1.171875 0.4375q-0.484375 0.421875 -0.484375 1.609375l0 3.40625l-1.046875 0zm10.923828 -2.0l1.09375 0.125q-0.25 0.953125 -0.953125 1.484375q-0.703125 0.53125 -1.78125 0.53125q-1.359375 0 -2.171875 -0.84375q-0.796875 -0.84375 -0.796875 -2.359375q0 -1.5625 0.8125 -2.421875q0.8125 -0.875 2.09375 -0.875q1.25 0 2.03125 0.84375q0.796875 0.84375 0.796875 2.390625q0 0.09375 0 0.28125l-4.640625 0q0.0625 1.03125 0.578125 1.578125q0.515625 0.53125 1.296875 0.53125q0.578125 0 0.984375 -0.296875q0.421875 -0.3125 0.65625 -0.96875zm-3.453125 -1.703125l3.46875 0q-0.0625 -0.796875 -0.390625 -1.1875q-0.515625 -0.609375 -1.3125 -0.609375q-0.734375 0 -1.234375 0.484375q-0.484375 0.484375 -0.53125 1.3125zm7.736328 3.703125l3.296875 -8.59375l1.21875 0l3.515625 8.59375l-1.28125 0l-1.015625 -2.609375l-3.578125 0l-0.953125 2.609375l-1.203125 0zm2.484375 -3.53125l2.90625 0l-0.890625 -2.375q-0.421875 -1.078125 -0.609375 -1.78125q-0.171875 0.828125 -0.46875 1.640625l-0.9375 2.515625z" fill-rule="nonzero"/><path fill="#f3f3f3" d="m369.4827 131.987l0 0c0 -3.302185 2.676941 -5.979126 5.979126 -5.979126l113.04965 0c1.5857544 0 3.1065674 0.62994385 4.2278748 1.7512436c1.1212769 1.1212997 1.7512207 2.6421127 1.7512207 4.2278824l0 23.915771c0 3.3021698 -2.676941 5.979126 -5.9790955 5.979126l-113.04965 0c-3.302185 0 -5.979126 -2.6769562 -5.979126 -5.979126z" fill-rule="evenodd"/><path stroke="#000000" stroke-width="1.0" stroke-linejoin="round" stroke-linecap="butt" d="m369.4827 131.987l0 0c0 -3.302185 2.676941 -5.979126 5.979126 -5.979126l113.04965 0c1.5857544 0 3.1065674 0.62994385 4.2278748 1.7512436c1.1212769 1.1212997 1.7512207 2.6421127 1.7512207 4.2278824l0 23.915771c0 3.3021698 -2.676941 5.979126 -5.9790955 5.979126l-113.04965 0c-3.302185 0 -5.979126 -2.6769562 -5.979126 -5.979126z" fill-rule="evenodd"/><path fill="#f3f3f3" d="m378.4066 138.7324l0 0c0 -3.302185 2.676941 -5.979126 5.979126 -5.979126l113.04962 0c1.5857849 0 3.106598 0.62994385 4.2278748 1.7512512c1.1213074 1.1212921 1.7512512 2.642105 1.7512512 4.2278748l0 23.915771c0 3.3021698 -2.676941 5.979126 -5.979126 5.979126l-113.04962 0c-3.302185 0 -5.979126 -2.6769562 -5.979126 -5.979126z" fill-rule="evenodd"/><path stroke="#000000" stroke-width="1.0" stroke-linejoin="round" stroke-linecap="butt" d="m378.4066 138.7324l0 0c0 -3.302185 2.676941 -5.979126 5.979126 -5.979126l113.04962 0c1.5857849 0 3.106598 0.62994385 4.2278748 1.7512512c1.1213074 1.1212921 1.7512512 2.642105 1.7512512 4.2278748l0 23.915771c0 3.3021698 -2.676941 5.979126 -5.979126 5.979126l-113.04962 0c-3.302185 0 -5.979126 -2.6769562 -5.979126 -5.979126z" fill-rule="evenodd"/><path fill="#f3f3f3" d="m387.32785 146.56705l0 0c0 -3.3021698 2.676941 -5.979126 5.979126 -5.979126l113.04962 0c1.5857544 0 3.1065674 0.62994385 4.2278748 1.7512512c1.1213074 1.1213074 1.7512817 2.6421204 1.7512817 4.2278748l0 23.915771c0 3.302185 -2.6769714 5.979126 -5.9791565 5.979126l-113.04962 0c-3.302185 0 -5.979126 -2.676941 -5.979126 -5.979126z" fill-rule="evenodd"/><path stroke="#000000" stroke-width="1.0" stroke-linejoin="round" stroke-linecap="butt" d="m387.32785 146.56705l0 0c0 -3.3021698 2.676941 -5.979126 5.979126 -5.979126l113.04962 0c1.5857544 0 3.1065674 0.62994385 4.2278748 1.7512512c1.1213074 1.1213074 1.7512817 2.6421204 1.7512817 4.2278748l0 23.915771c0 3.302185 -2.6769714 5.979126 -5.9791565 5.979126l-113.04962 0c-3.302185 0 -5.979126 -2.676941 -5.979126 -5.979126z" fill-rule="evenodd"/><path fill="#000000" d="m428.91284 156.04494l-0.984375 0l0 -8.59375l1.0625 0l0 3.0625q0.671875 -0.828125 1.703125 -0.828125q0.578125 0 1.078125 0.234375q0.515625 0.21875 0.84375 0.640625q0.34375 0.421875 0.53125 1.015625q0.1875 0.59375 0.1875 1.265625q0 1.59375 -0.796875 2.46875q-0.796875 0.875 -1.890625 0.875q-1.109375 0 -1.734375 -0.921875l0 0.78125zm-0.015625 -3.15625q0 1.109375 0.3125 1.609375q0.5 0.8125 1.34375 0.8125q0.6875 0 1.1875 -0.59375q0.515625 -0.59375 0.515625 -1.796875q0 -1.21875 -0.484375 -1.796875q-0.484375 -0.578125 -1.171875 -0.578125q-0.6875 0 -1.203125 0.609375q-0.5 0.59375 -0.5 1.734375zm9.783203 2.390625q-0.59375 0.5 -1.140625 0.703125q-0.53125 0.203125 -1.15625 0.203125q-1.03125 0 -1.578125 -0.5q-0.546875 -0.5 -0.546875 -1.28125q0 -0.453125 0.203125 -0.828125q0.203125 -0.390625 0.546875 -0.609375q0.34375 -0.234375 0.765625 -0.34375q0.296875 -0.09375 0.9375 -0.171875q1.265625 -0.140625 1.875 -0.359375q0 -0.21875 0 -0.265625q0 -0.65625 -0.296875 -0.921875q-0.40625 -0.34375 -1.203125 -0.34375q-0.734375 0 -1.09375 0.265625q-0.359375 0.25 -0.53125 0.90625l-1.03125 -0.140625q0.140625 -0.65625 0.46875 -1.0625q0.328125 -0.40625 0.9375 -0.625q0.609375 -0.21875 1.40625 -0.21875q0.796875 0 1.296875 0.1875q0.5 0.1875 0.734375 0.46875q0.234375 0.28125 0.328125 0.71875q0.046875 0.265625 0.046875 0.96875l0 1.40625q0 1.46875 0.0625 1.859375q0.078125 0.390625 0.28125 0.75l-1.109375 0q-0.15625 -0.328125 -0.203125 -0.765625zm-0.09375 -2.359375q-0.578125 0.234375 -1.71875 0.40625q-0.65625 0.09375 -0.921875 0.21875q-0.265625 0.109375 -0.421875 0.328125q-0.140625 0.21875 -0.140625 0.5q0 0.421875 0.3125 0.703125q0.328125 0.28125 0.9375 0.28125q0.609375 0 1.078125 -0.265625q0.484375 -0.265625 0.703125 -0.734375q0.171875 -0.359375 0.171875 -1.046875l0 -0.390625zm6.767578 0.84375l1.03125 0.140625q-0.171875 1.0625 -0.875 1.671875q-0.703125 0.609375 -1.71875 0.609375q-1.28125 0 -2.0625 -0.828125q-0.765625 -0.84375 -0.765625 -2.40625q0 -1.0 0.328125 -1.75q0.34375 -0.765625 1.015625 -1.140625q0.6875 -0.375 1.5 -0.375q1.0 0 1.640625 0.515625q0.65625 0.5 0.84375 1.453125l-1.03125 0.15625q-0.140625 -0.625 -0.515625 -0.9375q-0.375 -0.328125 -0.90625 -0.328125q-0.796875 0 -1.296875 0.578125q-0.5 0.5625 -0.5 1.796875q0 1.265625 0.484375 1.828125q0.484375 0.5625 1.25 0.5625q0.625 0 1.03125 -0.375q0.421875 -0.375 0.546875 -1.171875zm1.9375 2.28125l0 -8.59375l1.0625 0l0 4.90625l2.484375 -2.53125l1.375 0l-2.390625 2.296875l2.625 3.921875l-1.296875 0l-2.0625 -3.1875l-0.734375 0.71875l0 2.46875l-1.0625 0zm10.25 -2.0l1.09375 0.125q-0.25 0.953125 -0.953125 1.484375q-0.703125 0.53125 -1.78125 0.53125q-1.359375 0 -2.171875 -0.84375q-0.796875 -0.84375 -0.796875 -2.359375q0 -1.5625 0.8125 -2.421875q0.8125 -0.875 2.09375 -0.875q1.25 0 2.03125 0.84375q0.796875 0.84375 0.796875 2.390625q0 0.09375 0 0.28125l-4.640625 0q0.0625 1.03125 0.578125 1.578125q0.515625 0.53125 1.296875 0.53125q0.578125 0 0.984375 -0.296875q0.421875 -0.3125 0.65625 -0.96875zm-3.453125 -1.703125l3.46875 0q-0.0625 -0.796875 -0.390625 -1.1875q-0.515625 -0.609375 -1.3125 -0.609375q-0.734375 0 -1.234375 0.484375q-0.484375 0.484375 -0.53125 1.3125zm5.876953 3.703125l0 -6.21875l0.9375 0l0 0.875q0.6875 -1.015625 1.984375 -1.015625q0.5625 0 1.03125 0.203125q0.484375 0.203125 0.71875 0.53125q0.234375 0.328125 0.328125 0.765625q0.046875 0.296875 0.046875 1.03125l0 3.828125l-1.046875 0l0 -3.78125q0 -0.65625 -0.125 -0.96875q-0.125 -0.3125 -0.4375 -0.5q-0.3125 -0.203125 -0.734375 -0.203125q-0.671875 0 -1.171875 0.4375q-0.484375 0.421875 -0.484375 1.609375l0 3.40625l-1.046875 0zm10.705078 0l0 -0.78125q-0.59375 0.921875 -1.734375 0.921875q-0.75 0 -1.375 -0.40625q-0.625 -0.421875 -0.96875 -1.15625q-0.34375 -0.734375 -0.34375 -1.6875q0 -0.921875 0.3125 -1.6875q0.3125 -0.765625 0.9375 -1.15625q0.625 -0.40625 1.390625 -0.40625q0.5625 0 1.0 0.234375q0.4375 0.234375 0.71875 0.609375l0 -3.078125l1.046875 0l0 8.59375l-0.984375 0zm-3.328125 -3.109375q0 1.203125 0.5 1.796875q0.5 0.578125 1.1875 0.578125q0.6875 0 1.171875 -0.5625q0.484375 -0.5625 0.484375 -1.71875q0 -1.28125 -0.5 -1.875q-0.484375 -0.59375 -1.203125 -0.59375q-0.703125 0 -1.171875 0.578125q-0.46875 0.5625 -0.46875 1.796875z" fill-rule="nonzero"/><path fill="#000000" d="m430.72144 170.04494l0 -1.0625l4.40625 -5.5q0.46875 -0.578125 0.890625 -1.015625l-4.796875 0l0 -1.015625l6.15625 0l0 1.015625l-4.828125 5.953125l-0.515625 0.609375l5.484375 0l0 1.015625l-6.796875 0zm7.501953 -3.109375q0 -1.734375 0.953125 -2.5625q0.796875 -0.6875 1.953125 -0.6875q1.28125 0 2.09375 0.84375q0.828125 0.828125 0.828125 2.3125q0 1.203125 -0.359375 1.890625q-0.359375 0.6875 -1.0625 1.078125q-0.6875 0.375 -1.5 0.375q-1.296875 0 -2.109375 -0.828125q-0.796875 -0.84375 -0.796875 -2.421875zm1.078125 0q0 1.1875 0.515625 1.78125q0.53125 0.59375 1.3125 0.59375q0.796875 0 1.3125 -0.59375q0.515625 -0.59375 0.515625 -1.8125q0 -1.15625 -0.53125 -1.75q-0.515625 -0.59375 -1.296875 -0.59375q-0.78125 0 -1.3125 0.59375q-0.515625 0.578125 -0.515625 1.78125zm5.986328 3.109375l0 -6.21875l0.9375 0l0 0.875q0.6875 -1.015625 1.984375 -1.015625q0.5625 0 1.03125 0.203125q0.484375 0.203125 0.71875 0.53125q0.234375 0.328125 0.328125 0.765625q0.046875 0.296875 0.046875 1.03125l0 3.828125l-1.046875 0l0 -3.78125q0 -0.65625 -0.125 -0.96875q-0.125 -0.3125 -0.4375 -0.5q-0.3125 -0.203125 -0.734375 -0.203125q-0.671875 0 -1.171875 0.4375q-0.484375 0.421875 -0.484375 1.609375l0 3.40625l-1.046875 0zm10.923828 -2.0l1.09375 0.125q-0.25 0.953125 -0.953125 1.484375q-0.703125 0.53125 -1.78125 0.53125q-1.359375 0 -2.171875 -0.84375q-0.796875 -0.84375 -0.796875 -2.359375q0 -1.5625 0.8125 -2.421875q0.8125 -0.875 2.09375 -0.875q1.25 0 2.03125 0.84375q0.796875 0.84375 0.796875 2.390625q0 0.09375 0 0.28125l-4.640625 0q0.0625 1.03125 0.578125 1.578125q0.515625 0.53125 1.296875 0.53125q0.578125 0 0.984375 -0.296875q0.421875 -0.3125 0.65625 -0.96875zm-3.453125 -1.703125l3.46875 0q-0.0625 -0.796875 -0.390625 -1.1875q-0.515625 -0.609375 -1.3125 -0.609375q-0.734375 0 -1.234375 0.484375q-0.484375 0.484375 -0.53125 1.3125zm9.2890625 3.703125l0 -8.59375l3.234375 0q0.984375 0 1.578125 0.265625q0.59375 0.265625 0.921875 0.8125q0.34375 0.53125 0.34375 1.125q0 0.546875 -0.296875 1.03125q-0.296875 0.484375 -0.90625 0.78125q0.78125 0.234375 1.1875 0.796875q0.421875 0.546875 0.421875 1.296875q0 0.59375 -0.25 1.125q-0.25 0.515625 -0.625 0.796875q-0.375 0.28125 -0.953125 0.421875q-0.5625 0.140625 -1.375 0.140625l-3.28125 0zm1.140625 -4.984375l1.859375 0q0.75 0 1.078125 -0.09375q0.4375 -0.125 0.65625 -0.421875q0.21875 -0.3125 0.21875 -0.765625q0 -0.421875 -0.203125 -0.75q-0.203125 -0.328125 -0.59375 -0.4375q-0.375 -0.125 -1.296875 -0.125l-1.71875 0l0 2.59375zm0 3.96875l2.140625 0q0.546875 0 0.765625 -0.046875q0.40625 -0.0625 0.65625 -0.21875q0.265625 -0.171875 0.4375 -0.484375q0.171875 -0.3125 0.171875 -0.71875q0 -0.484375 -0.25 -0.84375q-0.234375 -0.359375 -0.671875 -0.5q-0.4375 -0.140625 -1.265625 -0.140625l-1.984375 0l0 2.953125z" fill-rule="nonzero"/><path fill="#f3f3f3" d="m369.484 196.64578l0 0c0 -3.3021698 2.676941 -5.9791107 5.979126 -5.9791107l113.04965 0c1.5857544 0 3.1065674 0.62994385 4.2278748 1.751236c1.1212769 1.1213074 1.7512207 2.6421204 1.7512207 4.2278748l0 23.915771c0 3.302185 -2.676941 5.979126 -5.9790955 5.979126l-113.04965 0c-3.302185 0 -5.979126 -2.676941 -5.979126 -5.979126z" fill-rule="evenodd"/><path stroke="#000000" stroke-width="1.0" stroke-linejoin="round" stroke-linecap="butt" d="m369.484 196.64578l0 0c0 -3.3021698 2.676941 -5.9791107 5.979126 -5.9791107l113.04965 0c1.5857544 0 3.1065674 0.62994385 4.2278748 1.751236c1.1212769 1.1213074 1.7512207 2.6421204 1.7512207 4.2278748l0 23.915771c0 3.302185 -2.676941 5.979126 -5.9790955 5.979126l-113.04965 0c-3.302185 0 -5.979126 -2.676941 -5.979126 -5.979126z" fill-rule="evenodd"/><path fill="#f3f3f3" d="m378.4079 203.39119l0 0c0 -3.3021698 2.676941 -5.9791107 5.979126 -5.9791107l113.04962 0c1.5857849 0 3.106598 0.6299286 4.2278748 1.751236c1.1213074 1.1213074 1.7512512 2.6421204 1.7512512 4.2278748l0 23.915771c0 3.302185 -2.676941 5.979126 -5.979126 5.979126l-113.04962 0c-3.302185 0 -5.979126 -2.676941 -5.979126 -5.979126z" fill-rule="evenodd"/><path stroke="#000000" stroke-width="1.0" stroke-linejoin="round" stroke-linecap="butt" d="m378.4079 203.39119l0 0c0 -3.3021698 2.676941 -5.9791107 5.979126 -5.9791107l113.04962 0c1.5857849 0 3.106598 0.6299286 4.2278748 1.751236c1.1213074 1.1213074 1.7512512 2.6421204 1.7512512 4.2278748l0 23.915771c0 3.302185 -2.676941 5.979126 -5.979126 5.979126l-113.04962 0c-3.302185 0 -5.979126 -2.676941 -5.979126 -5.979126z" fill-rule="evenodd"/><path fill="#f3f3f3" d="m387.32916 211.22585l0 0c0 -3.302185 2.676941 -5.979126 5.979126 -5.979126l113.04962 0c1.5857544 0 3.1065674 0.62994385 4.2278748 1.7512512c1.1213074 1.1212921 1.7512512 2.642105 1.7512512 4.2278748l0 23.915771c0 3.3021698 -2.676941 5.9791107 -5.979126 5.9791107l-113.04962 0c-3.302185 0 -5.979126 -2.676941 -5.979126 -5.9791107z" fill-rule="evenodd"/><path stroke="#000000" stroke-width="1.0" stroke-linejoin="round" stroke-linecap="butt" d="m387.32916 211.22585l0 0c0 -3.302185 2.676941 -5.979126 5.979126 -5.979126l113.04962 0c1.5857544 0 3.1065674 0.62994385 4.2278748 1.7512512c1.1213074 1.1212921 1.7512512 2.642105 1.7512512 4.2278748l0 23.915771c0 3.3021698 -2.676941 5.9791107 -5.979126 5.9791107l-113.04962 0c-3.302185 0 -5.979126 -2.676941 -5.979126 -5.9791107z" fill-rule="evenodd"/><path fill="#000000" d="m428.91415 220.70372l-0.984375 0l0 -8.59375l1.0625 0l0 3.0625q0.671875 -0.828125 1.703125 -0.828125q0.578125 0 1.078125 0.234375q0.515625 0.21875 0.84375 0.640625q0.34375 0.421875 0.53125 1.015625q0.1875 0.59375 0.1875 1.265625q0 1.59375 -0.796875 2.46875q-0.796875 0.875 -1.890625 0.875q-1.109375 0 -1.734375 -0.921875l0 0.78125zm-0.015625 -3.15625q0 1.109375 0.3125 1.609375q0.5 0.8125 1.34375 0.8125q0.6875 0 1.1875 -0.59375q0.515625 -0.59375 0.515625 -1.796875q0 -1.21875 -0.484375 -1.796875q-0.484375 -0.578125 -1.171875 -0.578125q-0.6875 0 -1.203125 0.609375q-0.5 0.59375 -0.5 1.734375zm9.783203 2.390625q-0.59375 0.5 -1.140625 0.703125q-0.53125 0.203125 -1.15625 0.203125q-1.03125 0 -1.578125 -0.5q-0.546875 -0.5 -0.546875 -1.28125q0 -0.453125 0.203125 -0.828125q0.203125 -0.390625 0.546875 -0.609375q0.34375 -0.234375 0.765625 -0.34375q0.296875 -0.09375 0.9375 -0.171875q1.265625 -0.140625 1.875 -0.359375q0 -0.21875 0 -0.265625q0 -0.65625 -0.296875 -0.921875q-0.40625 -0.34375 -1.203125 -0.34375q-0.734375 0 -1.09375 0.265625q-0.359375 0.25 -0.53125 0.90625l-1.03125 -0.140625q0.140625 -0.65625 0.46875 -1.0625q0.328125 -0.40625 0.9375 -0.625q0.609375 -0.21875 1.40625 -0.21875q0.796875 0 1.296875 0.1875q0.5 0.1875 0.734375 0.46875q0.234375 0.28125 0.328125 0.71875q0.046875 0.265625 0.046875 0.96875l0 1.40625q0 1.46875 0.0625 1.859375q0.078125 0.390625 0.28125 0.75l-1.109375 0q-0.15625 -0.328125 -0.203125 -0.765625zm-0.09375 -2.359375q-0.578125 0.234375 -1.71875 0.40625q-0.65625 0.09375 -0.921875 0.21875q-0.265625 0.109375 -0.421875 0.328125q-0.140625 0.21875 -0.140625 0.5q0 0.421875 0.3125 0.703125q0.328125 0.28125 0.9375 0.28125q0.609375 0 1.078125 -0.265625q0.484375 -0.265625 0.703125 -0.734375q0.171875 -0.359375 0.171875 -1.046875l0 -0.390625zm6.767578 0.84375l1.03125 0.140625q-0.171875 1.0625 -0.875 1.671875q-0.703125 0.609375 -1.71875 0.609375q-1.28125 0 -2.0625 -0.828125q-0.765625 -0.84375 -0.765625 -2.40625q0 -1.0 0.328125 -1.75q0.34375 -0.765625 1.015625 -1.140625q0.6875 -0.375 1.5 -0.375q1.0 0 1.640625 0.515625q0.65625 0.5 0.84375 1.453125l-1.03125 0.15625q-0.140625 -0.625 -0.515625 -0.9375q-0.375 -0.328125 -0.90625 -0.328125q-0.796875 0 -1.296875 0.578125q-0.5 0.5625 -0.5 1.796875q0 1.265625 0.484375 1.828125q0.484375 0.5625 1.25 0.5625q0.625 0 1.03125 -0.375q0.421875 -0.375 0.546875 -1.171875zm1.9375 2.28125l0 -8.59375l1.0625 0l0 4.90625l2.484375 -2.53125l1.375 0l-2.390625 2.296875l2.625 3.921875l-1.296875 0l-2.0625 -3.1875l-0.734375 0.71875l0 2.46875l-1.0625 0zm10.25 -2.0l1.09375 0.125q-0.25 0.953125 -0.953125 1.484375q-0.703125 0.53125 -1.78125 0.53125q-1.359375 0 -2.171875 -0.84375q-0.796875 -0.84375 -0.796875 -2.359375q0 -1.5625 0.8125 -2.421875q0.8125 -0.875 2.09375 -0.875q1.25 0 2.03125 0.84375q0.796875 0.84375 0.796875 2.390625q0 0.09375 0 0.28125l-4.640625 0q0.0625 1.03125 0.578125 1.578125q0.515625 0.53125 1.296875 0.53125q0.578125 0 0.984375 -0.296875q0.421875 -0.3125 0.65625 -0.96875zm-3.453125 -1.703125l3.46875 0q-0.0625 -0.796875 -0.390625 -1.1875q-0.515625 -0.609375 -1.3125 -0.609375q-0.734375 0 -1.234375 0.484375q-0.484375 0.484375 -0.53125 1.3125zm5.876953 3.703125l0 -6.21875l0.9375 0l0 0.875q0.6875 -1.015625 1.984375 -1.015625q0.5625 0 1.03125 0.203125q0.484375 0.203125 0.71875 0.53125q0.234375 0.328125 0.328125 0.765625q0.046875 0.296875 0.046875 1.03125l0 3.828125l-1.046875 0l0 -3.78125q0 -0.65625 -0.125 -0.96875q-0.125 -0.3125 -0.4375 -0.5q-0.3125 -0.203125 -0.734375 -0.203125q-0.671875 0 -1.171875 0.4375q-0.484375 0.421875 -0.484375 1.609375l0 3.40625l-1.046875 0zm10.705078 0l0 -0.78125q-0.59375 0.921875 -1.734375 0.921875q-0.75 0 -1.375 -0.40625q-0.625 -0.421875 -0.96875 -1.15625q-0.34375 -0.734375 -0.34375 -1.6875q0 -0.921875 0.3125 -1.6875q0.3125 -0.765625 0.9375 -1.15625q0.625 -0.40625 1.390625 -0.40625q0.5625 0 1.0 0.234375q0.4375 0.234375 0.71875 0.609375l0 -3.078125l1.046875 0l0 8.59375l-0.984375 0zm-3.328125 -3.109375q0 1.203125 0.5 1.796875q0.5 0.578125 1.1875 0.578125q0.6875 0 1.171875 -0.5625q0.484375 -0.5625 0.484375 -1.71875q0 -1.28125 -0.5 -1.875q-0.484375 -0.59375 -1.203125 -0.59375q-0.703125 0 -1.171875 0.578125q-0.46875 0.5625 -0.46875 1.796875z" fill-rule="nonzero"/><path fill="#000000" d="m430.3917 234.70374l0 -1.0625l4.40625 -5.5q0.46875 -0.578125 0.890625 -1.015625l-4.796875 0l0 -1.015625l6.15625 0l0 1.015625l-4.828125 5.953125l-0.515625 0.609375l5.484375 0l0 1.015625l-6.796875 0zm7.501953 -3.109375q0 -1.734375 0.953125 -2.5625q0.796875 -0.6875 1.953125 -0.6875q1.28125 0 2.09375 0.84375q0.828125 0.828125 0.828125 2.3125q0 1.203125 -0.359375 1.890625q-0.359375 0.6875 -1.0625 1.078125q-0.6875 0.375 -1.5 0.375q-1.296875 0 -2.109375 -0.828125q-0.796875 -0.84375 -0.796875 -2.421875zm1.078125 0q0 1.1875 0.515625 1.78125q0.53125 0.59375 1.3125 0.59375q0.796875 0 1.3125 -0.59375q0.515625 -0.59375 0.515625 -1.8125q0 -1.15625 -0.53125 -1.75q-0.515625 -0.59375 -1.296875 -0.59375q-0.78125 0 -1.3125 0.59375q-0.515625 0.578125 -0.515625 1.78125zm5.986328 3.109375l0 -6.21875l0.9375 0l0 0.875q0.6875 -1.015625 1.984375 -1.015625q0.5625 0 1.03125 0.203125q0.484375 0.203125 0.71875 0.53125q0.234375 0.328125 0.328125 0.765625q0.046875 0.296875 0.046875 1.03125l0 3.828125l-1.046875 0l0 -3.78125q0 -0.65625 -0.125 -0.96875q-0.125 -0.3125 -0.4375 -0.5q-0.3125 -0.203125 -0.734375 -0.203125q-0.671875 0 -1.171875 0.4375q-0.484375 0.421875 -0.484375 1.609375l0 3.40625l-1.046875 0zm10.923828 -2.0l1.09375 0.125q-0.25 0.953125 -0.953125 1.484375q-0.703125 0.53125 -1.78125 0.53125q-1.359375 0 -2.171875 -0.84375q-0.796875 -0.84375 -0.796875 -2.359375q0 -1.5625 0.8125 -2.421875q0.8125 -0.875 2.09375 -0.875q1.25 0 2.03125 0.84375q0.796875 0.84375 0.796875 2.390625q0 0.09375 0 0.28125l-4.640625 0q0.0625 1.03125 0.578125 1.578125q0.515625 0.53125 1.296875 0.53125q0.578125 0 0.984375 -0.296875q0.421875 -0.3125 0.65625 -0.96875zm-3.453125 -1.703125l3.46875 0q-0.0625 -0.796875 -0.390625 -1.1875q-0.515625 -0.609375 -1.3125 -0.609375q-0.734375 0 -1.234375 0.484375q-0.484375 0.484375 -0.53125 1.3125zm15.4765625 0.6875l1.125 0.296875q-0.359375 1.390625 -1.28125 2.125q-0.921875 0.734375 -2.265625 0.734375q-1.390625 0 -2.265625 -0.5625q-0.875 -0.5625 -1.328125 -1.625q-0.453125 -1.078125 -0.453125 -2.3125q0 -1.34375 0.515625 -2.34375q0.515625 -1.0 1.453125 -1.515625q0.953125 -0.515625 2.09375 -0.515625q1.28125 0 2.15625 0.65625q0.890625 0.65625 1.234375 1.84375l-1.125 0.265625q-0.296875 -0.9375 -0.875 -1.359375q-0.5625 -0.4375 -1.421875 -0.4375q-0.984375 0 -1.65625 0.484375q-0.65625 0.46875 -0.9375 1.265625q-0.265625 0.796875 -0.265625 1.65625q0 1.09375 0.3125 1.90625q0.328125 0.8125 1.0 1.21875q0.671875 0.40625 1.46875 0.40625q0.953125 0 1.609375 -0.546875q0.671875 -0.546875 0.90625 -1.640625z" fill-rule="nonzero"/><path fill="#000000" fill-opacity="0.0" d="m449.8331 110.71391c0 4.2493515 -42.101013 11.5205765 -73.64053 8.498703c-31.53955 -3.0218658 -52.51758 -16.336838 -73.640564 -31.162735c-21.122986 -14.825905 -42.39093 -31.162743 -84.78189 -31.162743" fill-rule="evenodd"/><path stroke="#000000" stroke-width="1.0" stroke-linejoin="round" stroke-linecap="butt" d="m449.8331 110.71391c0 4.2493515 -42.101013 11.5205765 -73.640564 8.498703c-31.53952 -3.0218658 -52.517548 -16.336838 -73.64053 -31.162735c-10.561493 -7.4129486 -21.15924 -15.203636 -34.415466 -21.141083c-6.628113 -2.9687233 -13.920868 -5.4741364 -22.205994 -7.2373734c-4.142563 -0.8816185 -8.533249 -1.5776901 -13.212997 -2.0533562c-2.3398743 -0.23783493 -4.752014 -0.42056656 -7.2415314 -0.5438385c-0.31121826 -0.015411377 -0.62361145 -0.029891968 -0.9372101 -0.04343033l-0.76976013 -0.030815125" fill-rule="evenodd"/><path fill="#000000" stroke="#000000" stroke-width="1.0" stroke-linecap="butt" d="m223.80013 55.348545l-4.5683594 1.5660896l4.5062256 1.7367935z" fill-rule="evenodd"/><path fill="#000000" fill-opacity="0.0" d="m449.8318 176.46194c0 3.7635193 -42.101013 14.997925 -73.64053 7.5270233c-31.53955 -7.4709015 -52.51758 -33.64711 -73.640564 -63.558784c-21.122986 -29.911674 -42.39093 -63.558792 -84.78189 -63.558792" fill-rule="evenodd"/><path stroke="#000000" stroke-width="1.0" stroke-linejoin="round" stroke-linecap="butt" d="m449.8318 176.46194c0 3.763504 -42.101013 14.997925 -73.640564 7.5270233c-31.53952 -7.4709015 -52.517548 -33.64711 -73.64053 -63.558784c-10.561493 -14.955833 -21.15924 -30.845535 -34.415466 -42.99627c-6.628113 -6.075371 -13.920868 -11.216003 -22.205994 -14.837791c-4.142563 -1.810894 -8.533249 -3.242073 -13.212997 -4.2205315c-2.3398743 -0.48923492 -4.752014 -0.86528397 -7.2415314 -1.1190262c-0.31121826 -0.031715393 -0.62361145 -0.061523438 -0.9372101 -0.089401245l-0.7731781 -0.06370926" fill-rule="evenodd"/><path fill="#000000" stroke="#000000" stroke-width="1.0" stroke-linecap="butt" d="m223.8282 55.45296l-4.598587 1.4749718l4.47081 1.8260193z" fill-rule="evenodd"/><path fill="#000000" fill-opacity="0.0" d="m449.8331 241.12073c0 2.7352295 -42.101013 17.389221 -73.64053 5.4704437c-31.53955 -11.918762 -52.51758 -50.410294 -73.640564 -94.861206c-21.122986 -44.450905 -42.39093 -94.8612 -84.78189 -94.8612" fill-rule="evenodd"/><path stroke="#000000" stroke-width="1.0" stroke-linejoin="round" stroke-linecap="butt" d="m449.8331 241.12073c0 2.7352295 -42.101013 17.389221 -73.640564 5.4704437c-31.53952 -11.918762 -52.517548 -50.410294 -73.64053 -94.861206c-10.561493 -22.225449 -21.15924 -45.940758 -34.415466 -64.09969c-6.628113 -9.079468 -13.920868 -16.769844 -22.205994 -22.190353c-4.142563 -2.7102547 -8.533249 -4.8530426 -13.212997 -6.318268c-2.3398743 -0.7326088 -4.752014 -1.2958336 -7.2415314 -1.6759033c-0.31121826 -0.047504425 -0.62361145 -0.09215546 -0.9372101 -0.13390732c-0.15682983 -0.020881653 -0.31394958 -0.041038513 -0.47135925 -0.06047058l-0.307312 -0.036441803" fill-rule="evenodd"/><path fill="#000000" stroke="#000000" stroke-width="1.0" stroke-linecap="butt" d="m223.85541 55.56594l-4.625824 1.3871651l4.4352417 1.9108009z" fill-rule="evenodd"/><path fill="#000000" fill-opacity="0.0" d="m201.41995 203.29659c44.24675 0 66.37146 -29.590546 88.4935 -59.181107c22.12204 -29.590546 44.241425 -59.1811 88.48288 -59.1811" fill-rule="evenodd"/><path stroke="#000000" stroke-width="1.0" stroke-linejoin="round" stroke-linecap="butt" d="m201.41995 203.29659c44.246735 0 66.37146 -29.590546 88.4935 -59.181107c11.061005 -14.795273 22.121368 -29.590546 35.946655 -40.687004c6.9126587 -5.5482254 14.51651 -10.171745 23.157318 -13.408218c4.320404 -1.6182327 8.900024 -2.8897018 13.7821045 -3.756607c2.44104 -0.43345642 4.9577026 -0.76576996 7.5553894 -0.9897232c0.64938354 -0.055992126 1.3038635 -0.10520172 1.963501 -0.14753723l0.08081055 -0.004737854" fill-rule="evenodd"/><path fill="#000000" stroke="#000000" stroke-width="1.0" stroke-linecap="butt" d="m372.4508 86.772575l4.4843445 -1.7925644l-4.5874634 -1.5092926z" fill-rule="evenodd"/><path fill="#000000" fill-opacity="0.0" d="m201.41995 203.29659c46.477524 0 69.714905 -27.629913 92.95505 -55.259842c23.240143 -27.629921 46.483093 -55.259842 92.96622 -55.259842" fill-rule="evenodd"/><path stroke="#000000" stroke-width="1.0" stroke-linejoin="round" stroke-linecap="butt" d="m201.41995 203.29659c46.477524 0 69.714905 -27.629913 92.95505 -55.259842c11.620087 -13.814957 23.240845 -27.629921 37.767 -37.991142c7.2630615 -5.1806107 15.252472 -9.49778 24.33136 -12.519806c4.539398 -1.5110092 9.351166 -2.6982346 14.480682 -3.5077057c2.5647278 -0.40473938 5.2089233 -0.7150345 7.938263 -0.92414093c0.6823425 -0.05228424 1.3699646 -0.098236084 2.0630493 -0.13775635l0.38793945 -0.020248413" fill-rule="evenodd"/><path fill="#000000" stroke="#000000" stroke-width="1.0" stroke-linecap="butt" d="m381.3871 94.5871l4.492737 -1.7714462l-4.5802917 -1.5308609z" fill-rule="evenodd"/><path fill="#000000" fill-opacity="0.0" d="m201.41995 203.29659c44.24675 0 66.37146 -13.149597 88.4935 -26.29921c22.12204 -13.149612 44.241425 -26.29921 88.48288 -26.29921" fill-rule="evenodd"/><path stroke="#000000" stroke-width="1.0" stroke-linejoin="round" stroke-linecap="butt" d="m201.41995 203.29659c44.246735 0 66.37146 -13.149597 88.4935 -26.29921c11.061005 -6.5747986 22.121368 -13.149612 35.946655 -18.080704c6.9126587 -2.465561 14.51651 -4.5201874 23.157318 -5.95842c4.320404 -0.7191162 8.900024 -1.2841492 13.7821045 -1.6693878c2.44104 -0.1926117 4.9577026 -0.34028625 7.5553894 -0.43981934c0.64938354 -0.024871826 1.3038635 -0.04675293 1.963501 -0.06556702l0.07849121 -0.002029419" fill-rule="evenodd"/><path fill="#000000" stroke="#000000" stroke-width="1.0" stroke-linecap="butt" d="m372.41983 152.43301l4.51474 -1.7145538l-4.5605774 -1.5885925z" fill-rule="evenodd"/><path fill="#000000" fill-opacity="0.0" d="m201.40659 206.33595c46.480316 0 69.72049 -11.952744 92.96063 -23.905502c23.240173 -11.952759 46.480316 -23.905518 92.96063 -23.905518" fill-rule="evenodd"/><path stroke="#000000" stroke-width="1.0" stroke-linejoin="round" stroke-linecap="butt" d="m201.4066 206.33595c46.480316 0 69.720474 -11.952744 92.96062 -23.905502c11.620087 -5.9763794 23.240173 -11.952759 37.76526 -16.435043c7.2625427 -2.2411346 15.251343 -4.1087646 24.32956 -5.416092c4.5390625 -0.65367126 9.350494 -1.1672668 14.479675 -1.5174408c2.5646057 -0.17507935 5.208618 -0.30932617 7.937744 -0.39979553c0.682251 -0.022598267 1.369873 -0.04248047 2.0628967 -0.05958557l0.38589478 -0.008712769" fill-rule="evenodd"/><path fill="#000000" stroke="#000000" stroke-width="1.0" stroke-linecap="butt" d="m381.3472 160.2454l4.5188293 -1.7037048l-4.5567627 -1.5995483z" fill-rule="evenodd"/><path fill="#000000" fill-opacity="0.0" d="m201.41995 203.29659c44.24675 0 66.37146 3.015747 88.4935 6.031494c22.12204 3.015747 44.241425 6.031494 88.48288 6.031494" fill-rule="evenodd"/><path stroke="#000000" stroke-width="1.0" stroke-linejoin="round" stroke-linecap="butt" d="m201.41995 203.29659c44.246735 0 66.37146 3.015747 88.4935 6.031494c11.061005 1.5078735 22.121368 3.015747 35.946655 4.146652c6.9126587 0.5654602 14.51651 1.0366669 23.157318 1.3665161c4.320404 0.16491699 8.900024 0.29449463 13.7821045 0.38285828c2.44104 0.044189453 4.9577026 0.07803345 7.5553894 0.100860596c0.64938354 0.005722046 1.3038635 0.010726929 1.963501 0.015045166l0.077941895 4.119873E-4" fill-rule="evenodd"/><path fill="#000000" stroke="#000000" stroke-width="1.0" stroke-linecap="butt" d="m372.39108 216.99216l4.543335 -1.6372375l-4.532776 -1.666214z" fill-rule="evenodd"/><path fill="#000000" fill-opacity="0.0" d="m210.66776 207.93964c44.165344 0 66.24802 3.81102 88.33069 7.62204c22.082703 3.81102 44.165375 7.622055 88.33072 7.622055" fill-rule="evenodd"/><path stroke="#000000" stroke-width="1.0" stroke-linejoin="round" stroke-linecap="butt" d="m210.66776 207.93964c44.16536 0 66.24802 3.81102 88.33072 7.62204c11.041321 1.9055176 22.082672 3.81102 35.88434 5.240158c6.9008484 0.7145691 14.49173 1.3100433 23.117798 1.7268677c4.3130493 0.2084198 8.884796 0.37217712 13.758545 0.48382568c2.4368286 0.05583191 4.949188 0.09863281 7.542389 0.12745667c0.6482849 0.007217407 1.3016357 0.0135650635 1.960144 0.019012451l0.06750488 4.7302246E-4" fill-rule="evenodd"/><path fill="#000000" stroke="#000000" stroke-width="1.0" stroke-linecap="butt" d="m381.3225 224.81119l4.544739 -1.6333771l-4.531372 -1.6700745z" fill-rule="evenodd"/><path fill="#000000" fill-opacity="0.0" d="m201.41995 203.29659c20.676468 0 39.30963 -36.606293 41.352936 -73.2126c2.0433044 -36.606293 -12.50325 -73.21259 -25.006485 -73.21259" fill-rule="evenodd"/><path stroke="#000000" stroke-width="1.0" stroke-linejoin="round" stroke-linecap="butt" d="m201.41995 203.29659c20.676468 0 39.30963 -36.606293 41.352936 -73.2126c1.0216522 -18.303146 -2.1041718 -36.606293 -7.048294 -50.333656c-2.472046 -6.863678 -5.398697 -12.583412 -8.488785 -16.58723c-0.7725067 -1.0009537 -1.5552673 -1.8946648 -2.3436432 -2.6721878c-0.39421082 -0.38876343 -0.78982544 -0.74848175 -1.1862946 -1.0780373c-0.099121094 -0.0823822 -0.19828796 -0.16288757 -0.29748535 -0.24148941l-0.07624817 -0.05890274" fill-rule="evenodd"/><path fill="#000000" stroke="#000000" stroke-width="1.0" stroke-linecap="butt" d="m223.9491 57.580296l-4.826599 -0.16286087l3.5926971 3.227234z" fill-rule="evenodd"/><path fill="#000000" fill-opacity="0.0" d="m309.6273 54.61155l52.787415 0l0 36.566925l-52.787415 0z" fill-rule="evenodd"/><path fill="#000000" d="m319.17416 73.911545l1.234375 -0.109375q0.140625 0.90625 0.640625 1.359375q0.5 0.453125 1.203125 0.453125q0.84375 0 1.421875 -0.640625q0.59375 -0.640625 0.59375 -1.6875q0 -1.0 -0.5625 -1.578125q-0.5625 -0.59375 -1.484375 -0.59375q-0.5625 0 -1.015625 0.265625q-0.453125 0.25 -0.71875 0.671875l-1.09375 -0.15625l0.921875 -4.890625l4.75 0l0 1.109375l-3.8125 0l-0.515625 2.5625q0.859375 -0.59375 1.796875 -0.59375q1.25 0 2.109375 0.875q0.859375 0.859375 0.859375 2.21875q0 1.296875 -0.75 2.234375q-0.921875 1.15625 -2.5 1.15625q-1.3125 0 -2.140625 -0.71875q-0.8125 -0.734375 -0.9375 -1.9375zm7.6468506 -4.75q0 -1.015625 0.5 -1.734375q0.515625 -0.71875 1.5 -0.71875q0.890625 0 1.484375 0.640625q0.59375 0.640625 0.59375 1.890625q0 1.203125 -0.609375 1.859375q-0.59375 0.65625 -1.453125 0.65625q-0.875 0 -1.453125 -0.640625q-0.5625 -0.65625 -0.5625 -1.953125zm2.03125 -1.640625q-0.4375 0 -0.734375 0.375q-0.28125 0.375 -0.28125 1.390625q0 0.90625 0.28125 1.28125q0.296875 0.375 0.734375 0.375q0.4375 0 0.71875 -0.375q0.296875 -0.375 0.296875 -1.375q0 -0.921875 -0.296875 -1.296875q-0.28125 -0.375 -0.71875 -0.375zm0 9.234375l5.21875 -10.046875l0.953125 0l-5.203125 10.046875l-0.96875 0zm4.125 -2.578125q0 -1.03125 0.515625 -1.734375q0.515625 -0.71875 1.5 -0.71875q0.90625 0 1.484375 0.640625q0.59375 0.640625 0.59375 1.875q0 1.21875 -0.59375 1.875q-0.59375 0.640625 -1.46875 0.640625q-0.875 0 -1.453125 -0.640625q-0.578125 -0.640625 -0.578125 -1.9375zm2.046875 -1.65625q-0.4375 0 -0.734375 0.390625q-0.28125 0.375 -0.28125 1.375q0 0.921875 0.28125 1.296875q0.296875 0.375 0.734375 0.375q0.453125 0 0.734375 -0.375q0.296875 -0.375 0.296875 -1.390625q0 -0.921875 -0.296875 -1.296875q-0.296875 -0.375 -0.734375 -0.375z" fill-rule="nonzero"/><path fill="#000000" fill-opacity="0.0" d="m325.61417 114.54068l52.787415 0l0 36.566925l-52.787415 0z" fill-rule="evenodd"/><path fill="#000000" d="m335.16104 133.84068l1.234375 -0.109375q0.140625 0.90625 0.640625 1.359375q0.5 0.453125 1.203125 0.453125q0.84375 0 1.421875 -0.640625q0.59375 -0.640625 0.59375 -1.6875q0 -1.0 -0.5625 -1.578125q-0.5625 -0.59375 -1.484375 -0.59375q-0.5625 0 -1.015625 0.265625q-0.453125 0.25 -0.71875 0.671875l-1.09375 -0.15625l0.921875 -4.890625l4.75 0l0 1.109375l-3.8125 0l-0.515625 2.5625q0.859375 -0.59375 1.796875 -0.59375q1.25 0 2.109375 0.875q0.859375 0.859375 0.859375 2.21875q0 1.296875 -0.75 2.234375q-0.921875 1.15625 -2.5 1.15625q-1.3125 0 -2.140625 -0.71875q-0.8125 -0.734375 -0.9375 -1.9375zm7.6468506 -4.75q0 -1.015625 0.5 -1.734375q0.515625 -0.71875 1.5 -0.71875q0.890625 0 1.484375 0.640625q0.59375 0.640625 0.59375 1.890625q0 1.203125 -0.609375 1.859375q-0.59375 0.65625 -1.453125 0.65625q-0.875 0 -1.453125 -0.640625q-0.5625 -0.65625 -0.5625 -1.953125zm2.03125 -1.640625q-0.4375 0 -0.734375 0.375q-0.28125 0.375 -0.28125 1.390625q0 0.90625 0.28125 1.28125q0.296875 0.375 0.734375 0.375q0.4375 0 0.71875 -0.375q0.296875 -0.375 0.296875 -1.375q0 -0.921875 -0.296875 -1.296875q-0.28125 -0.375 -0.71875 -0.375zm0 9.234375l5.21875 -10.046875l0.953125 0l-5.203125 10.046875l-0.96875 0zm4.125 -2.578125q0 -1.03125 0.515625 -1.734375q0.515625 -0.71875 1.5 -0.71875q0.90625 0 1.484375 0.640625q0.59375 0.640625 0.59375 1.875q0 1.21875 -0.59375 1.875q-0.59375 0.640625 -1.46875 0.640625q-0.875 0 -1.453125 -0.640625q-0.578125 -0.640625 -0.578125 -1.9375zm2.046875 -1.65625q-0.4375 0 -0.734375 0.390625q-0.28125 0.375 -0.28125 1.375q0 0.921875 0.28125 1.296875q0.296875 0.375 0.734375 0.375q0.453125 0 0.734375 -0.375q0.296875 -0.375 0.296875 -1.390625q0 -0.921875 -0.296875 -1.296875q-0.296875 -0.375 -0.734375 -0.375z" fill-rule="nonzero"/><path fill="#000000" fill-opacity="0.0" d="m329.6404 178.7874l52.787415 0l0 36.566925l-52.787415 0z" fill-rule="evenodd"/><path fill="#000000" d="m339.3748 198.38428l1.125 -0.109375q0.140625 0.796875 0.546875 1.15625q0.40625 0.359375 1.03125 0.359375q0.53125 0 0.9375 -0.25q0.421875 -0.25 0.671875 -0.65625q0.265625 -0.421875 0.4375 -1.125q0.171875 -0.703125 0.171875 -1.421875q0 -0.078125 0 -0.234375q-0.359375 0.546875 -0.96875 0.90625q-0.59375 0.34375 -1.3125 0.34375q-1.1875 0 -2.015625 -0.859375q-0.8125 -0.859375 -0.8125 -2.265625q0 -1.453125 0.859375 -2.328125q0.859375 -0.890625 2.140625 -0.890625q0.9375 0 1.703125 0.5q0.78125 0.5 1.171875 1.4375q0.40625 0.921875 0.40625 2.671875q0 1.828125 -0.40625 2.921875q-0.390625 1.078125 -1.171875 1.640625q-0.78125 0.5625 -1.84375 0.5625q-1.109375 0 -1.828125 -0.609375q-0.703125 -0.625 -0.84375 -1.75zm4.796875 -4.21875q0 -1.0 -0.546875 -1.59375q-0.53125 -0.59375 -1.28125 -0.59375q-0.78125 0 -1.375 0.640625q-0.578125 0.640625 -0.578125 1.65625q0 0.90625 0.546875 1.484375q0.5625 0.5625 1.359375 0.5625q0.828125 0 1.34375 -0.5625q0.53125 -0.578125 0.53125 -1.59375zm2.4281006 1.71875q0 -1.6875 0.34375 -2.71875q0.359375 -1.03125 1.046875 -1.59375q0.6875 -0.5625 1.71875 -0.5625q0.78125 0 1.359375 0.3125q0.578125 0.296875 0.953125 0.890625q0.375 0.578125 0.59375 1.421875q0.21875 0.828125 0.21875 2.25q0 1.671875 -0.359375 2.703125q-0.34375 1.03125 -1.03125 1.59375q-0.671875 0.5625 -1.734375 0.5625q-1.375 0 -2.15625 -0.984375q-0.953125 -1.1875 -0.953125 -3.875zm1.203125 0q0 2.34375 0.546875 3.125q0.5625 0.78125 1.359375 0.78125q0.8125 0 1.359375 -0.78125q0.5625 -0.78125 0.5625 -3.125q0 -2.359375 -0.5625 -3.125q-0.546875 -0.78125 -1.359375 -0.78125q-0.8125 0 -1.296875 0.6875q-0.609375 0.875 -0.609375 3.21875zm6.4437256 -2.546875q0 -1.015625 0.5 -1.734375q0.515625 -0.71875 1.5 -0.71875q0.890625 0 1.484375 0.640625q0.59375 0.640625 0.59375 1.890625q0 1.203125 -0.609375 1.859375q-0.59375 0.65625 -1.453125 0.65625q-0.875 0 -1.453125 -0.640625q-0.5625 -0.65625 -0.5625 -1.953125zm2.03125 -1.640625q-0.4375 0 -0.734375 0.375q-0.28125 0.375 -0.28125 1.390625q0 0.90625 0.28125 1.28125q0.296875 0.375 0.734375 0.375q0.4375 0 0.71875 -0.375q0.296875 -0.375 0.296875 -1.375q0 -0.921875 -0.296875 -1.296875q-0.28125 -0.375 -0.71875 -0.375zm0 9.234375l5.21875 -10.046875l0.953125 0l-5.203125 10.046875l-0.96875 0zm4.125 -2.578125q0 -1.03125 0.515625 -1.734375q0.515625 -0.71875 1.5 -0.71875q0.90625 0 1.484375 0.640625q0.59375 0.640625 0.59375 1.875q0 1.21875 -0.59375 1.875q-0.59375 0.640625 -1.46875 0.640625q-0.875 0 -1.453125 -0.640625q-0.578125 -0.640625 -0.578125 -1.9375zm2.046875 -1.65625q-0.4375 0 -0.734375 0.390625q-0.28125 0.375 -0.28125 1.375q0 0.921875 0.28125 1.296875q0.296875 0.375 0.734375 0.375q0.453125 0 0.734375 -0.375q0.296875 -0.375 0.296875 -1.390625q0 -0.921875 -0.296875 -1.296875q-0.296875 -0.375 -0.734375 -0.375z" fill-rule="nonzero"/></g></svg>