<svg version="1.1" viewBox="0.0 0.0 677.1522309711286 436.68503937007875" fill="none" stroke="none" stroke-linecap="square" stroke-miterlimit="10" xmlns:xlink="http://www.w3.org/1999/xlink" xmlns="http://www.w3.org/2000/svg"><clipPath id="p.0"><path d="m0 0l677.1522 0l0 436.68503l-677.1522 0l0 -436.68503z" clip-rule="nonzero"/></clipPath><g clip-path="url(#p.0)"><path fill="#000000" fill-opacity="0.0" d="m0 0l677.1522 0l0 436.68503l-677.1522 0z" fill-rule="evenodd"/><path fill="#ffffff" d="m117.850395 74.01852l0 0c0 -3.8675232 3.1352463 -7.0027695 7.002762 -7.0027695l124.70313 0c1.857254 0 3.6384277 0.73779297 4.951706 2.0510635c1.3132629 1.3132706 2.051056 3.094452 2.051056 4.951706l0 28.010216c0 3.8675156 -3.1352386 7.002762 -7.002762 7.002762l-124.70313 0c-3.8675156 0 -7.002762 -3.1352463 -7.002762 -7.002762z" fill-rule="evenodd"/><path stroke="#000000" stroke-width="1.0" stroke-linejoin="round" stroke-linecap="butt" d="m117.850395 74.01852l0 0c0 -3.8675232 3.1352463 -7.0027695 7.002762 -7.0027695l124.70313 0c1.857254 0 3.6384277 0.73779297 4.951706 2.0510635c1.3132629 1.3132706 2.051056 3.094452 2.051056 4.951706l0 28.010216c0 3.8675156 -3.1352386 7.002762 -7.002762 7.002762l-124.70313 0c-3.8675156 0 -7.002762 -3.1352463 -7.002762 -7.002762z" fill-rule="evenodd"/><path fill="#000000" d="m170.21739 94.94362l0 -13.359375l1.765625 0l0 5.484375l6.9375 0l0 -5.484375l1.765625 0l0 13.359375l-1.765625 0l0 -6.296875l-6.9375 0l0 6.296875l-1.765625 0zm13.410446 0l0 -13.359375l5.046875 0q1.328125 0 2.03125 0.125q0.96875 0.171875 1.640625 0.640625q0.671875 0.453125 1.078125 1.28125q0.40625 0.828125 0.40625 1.828125q0 1.703125 -1.09375 2.890625q-1.078125 1.171875 -3.921875 1.171875l-3.421875 0l0 5.421875l-1.765625 0zm1.765625 -7.0l3.453125 0q1.71875 0 2.4375 -0.640625q0.71875 -0.640625 0.71875 -1.796875q0 -0.84375 -0.421875 -1.4375q-0.421875 -0.59375 -1.125 -0.78125q-0.4375 -0.125 -1.640625 -0.125l-3.421875 0l0 4.78125zm7.8237762 7.0l5.125 -13.359375l1.90625 0l5.46875 13.359375l-2.015625 0l-1.546875 -4.046875l-5.59375 0l-1.46875 4.046875l-1.875 0zm3.859375 -5.484375l4.53125 0l-1.40625 -3.703125q-0.625 -1.6875 -0.9375 -2.765625q-0.265625 1.28125 -0.71875 2.546875l-1.46875 3.921875z" fill-rule="nonzero"/><path fill="#ffffff" d="m439.7979 74.01852l0 0c0 -3.8675232 3.1352234 -7.0027695 7.0027466 -7.0027695l170.49841 0c1.8572388 0 3.6384277 0.73779297 4.951721 2.0510635c1.3132324 1.3132706 2.0510254 3.094452 2.0510254 4.951706l0 28.010216c0 3.8675156 -3.135254 7.002762 -7.0027466 7.002762l-170.49841 0c-3.8675232 0 -7.0027466 -3.1352463 -7.0027466 -7.002762z" fill-rule="evenodd"/><path stroke="#000000" stroke-width="1.0" stroke-linejoin="round" stroke-linecap="butt" d="m439.7979 74.01852l0 0c0 -3.8675232 3.1352234 -7.0027695 7.0027466 -7.0027695l170.49841 0c1.8572388 0 3.6384277 0.73779297 4.951721 2.0510635c1.3132324 1.3132706 2.0510254 3.094452 2.0510254 4.951706l0 28.010216c0 3.8675156 -3.135254 7.002762 -7.0027466 7.002762l-170.49841 0c-3.8675232 0 -7.0027466 -3.1352463 -7.0027466 -7.002762z" fill-rule="evenodd"/><path fill="#ffffff" d="m472.29617 77.02362l119.507355 0l0 22.400002l-119.507355 0l0 -22.400002z" fill-rule="nonzero"/><path fill="#000000" fill-opacity="0.0" d="m472.29617 78.05461l60.113556 0l0 21.452866l-60.113556 0l0 -21.452866z" fill-rule="nonzero"/><path fill="#2c3e50" d="m473.6868 94.94362l0 -13.359375l2.65625 0l3.15625 9.453125q0.4375 1.328125 0.640625 1.984375q0.234375 -0.734375 0.703125 -2.140625l3.203125 -9.296875l2.375 0l0 13.359375l-1.703125 0l0 -11.171875l-3.875 11.171875l-1.59375 0l-3.859375 -11.375l0 11.375l-1.703125 0zm22.009552 -3.109375l1.6875 0.203125q-0.40625 1.484375 -1.484375 2.3125q-1.078125 0.8125 -2.765625 0.8125q-2.125 0 -3.375 -1.296875q-1.234375 -1.3125 -1.234375 -3.671875q0 -2.453125 1.25 -3.796875q1.265625 -1.34375 3.265625 -1.34375q1.9375 0 3.15625 1.328125q1.234375 1.3125 1.234375 3.703125q0 0.15625 0 0.4375l-7.21875 0q0.09375 1.59375 0.90625 2.453125q0.8125 0.84375 2.015625 0.84375q0.90625 0 1.546875 -0.46875q0.640625 -0.484375 1.015625 -1.515625zm-5.390625 -2.65625l5.40625 0q-0.109375 -1.21875 -0.625 -1.828125q-0.78125 -0.953125 -2.03125 -0.953125q-1.125 0 -1.90625 0.765625q-0.765625 0.75 -0.84375 2.015625zm12.719482 4.296875l0.234375 1.453125q-0.6875 0.140625 -1.234375 0.140625q-0.890625 0 -1.390625 -0.28125q-0.484375 -0.28125 -0.6875 -0.734375q-0.203125 -0.46875 -0.203125 -1.9375l0 -5.578125l-1.203125 0l0 -1.265625l1.203125 0l0 -2.390625l1.625 -0.984375l0 3.375l1.65625 0l0 1.265625l-1.65625 0l0 5.671875q0 0.6875 0.078125 0.890625q0.09375 0.203125 0.28125 0.328125q0.203125 0.109375 0.578125 0.109375q0.265625 0 0.71875 -0.0625zm1.5895386 1.46875l0 -9.671875l1.46875 0l0 1.46875q0.5625 -1.03125 1.03125 -1.359375q0.484375 -0.328125 1.0625 -0.328125q0.828125 0 1.6875 0.53125l-0.5625 1.515625q-0.609375 -0.359375 -1.203125 -0.359375q-0.546875 0 -0.96875 0.328125q-0.421875 0.328125 -0.609375 0.890625q-0.28125 0.875 -0.28125 1.921875l0 5.0625l-1.625 0zm6.228302 -11.46875l0 -1.890625l1.6406555 0l0 1.890625l-1.6406555 0zm0 11.46875l0 -9.671875l1.6406555 0l0 9.671875l-1.6406555 0zm10.457306 -3.546875l1.609375 0.21875q-0.265625 1.65625 -1.359375 2.609375q-1.078125 0.9375 -2.671875 0.9375q-1.984375 0 -3.1875 -1.296875q-1.203125 -1.296875 -1.203125 -3.71875q0 -1.578125 0.515625 -2.75q0.515625 -1.171875 1.578125 -1.75q1.0625 -0.59375 2.3125 -0.59375q1.578125 0 2.578125 0.796875q1.0 0.796875 1.28125 2.265625l-1.59375 0.234375q-0.234375 -0.96875 -0.8125 -1.453125q-0.578125 -0.5 -1.390625 -0.5q-1.234375 0 -2.015625 0.890625q-0.78125 0.890625 -0.78125 2.8125q0 1.953125 0.75 2.84375q0.75 0.875 1.953125 0.875q0.96875 0 1.609375 -0.59375q0.65625 -0.59375 0.828125 -1.828125zm2.359375 0.65625l1.625 -0.25q0.125 0.96875 0.75 1.5q0.625 0.515625 1.75 0.515625q1.125 0 1.671875 -0.453125q0.546875 -0.46875 0.546875 -1.09375q0 -0.546875 -0.484375 -0.875q-0.328125 -0.21875 -1.671875 -0.546875q-1.8125 -0.46875 -2.515625 -0.796875q-0.6875 -0.328125 -1.046875 -0.90625q-0.359375 -0.59375 -0.359375 -1.3125q0 -0.640625 0.296875 -1.1875q0.296875 -0.5625 0.8125 -0.921875q0.375 -0.28125 1.03125 -0.46875q0.671875 -0.203125 1.421875 -0.203125q1.140625 0 2.0 0.328125q0.859375 0.328125 1.265625 0.890625q0.421875 0.5625 0.578125 1.5l-1.609375 0.21875q-0.109375 -0.75 -0.640625 -1.171875q-0.515625 -0.421875 -1.46875 -0.421875q-1.140625 0 -1.625 0.375q-0.46875 0.375 -0.46875 0.875q0 0.3125 0.1875 0.578125q0.203125 0.265625 0.640625 0.4375q0.234375 0.09375 1.4375 0.421875q1.75 0.453125 2.4375 0.75q0.6875 0.296875 1.078125 0.859375q0.390625 0.5625 0.390625 1.40625q0 0.828125 -0.484375 1.546875q-0.46875 0.71875 -1.375 1.125q-0.90625 0.390625 -2.046875 0.390625q-1.875 0 -2.875 -0.78125q-0.984375 -0.78125 -1.25 -2.328125z" fill-rule="nonzero"/><path fill="#010000" fill-opacity="0.0" d="m532.4097 80.45924l4.4453125 0l0 18.398438l-4.4453125 0l0 -18.398438z" fill-rule="nonzero"/><path fill="#000000" fill-opacity="0.0" d="m536.85504 78.05461l54.948547 0l0 21.452866l-54.948547 0l0 -21.452866z" fill-rule="nonzero"/><path fill="#2c3e50" d="m537.6988 90.64674l1.65625 -0.140625q0.125 1.0 0.546875 1.640625q0.4375 0.640625 1.34375 1.046875q0.921875 0.390625 2.0625 0.390625q1.0 0 1.78125 -0.296875q0.78125 -0.296875 1.15625 -0.8125q0.375 -0.53125 0.375 -1.15625q0 -0.625 -0.375 -1.09375q-0.359375 -0.46875 -1.1875 -0.796875q-0.546875 -0.203125 -2.390625 -0.640625q-1.828125 -0.453125 -2.5625 -0.84375q-0.96875 -0.5 -1.4375 -1.234375q-0.46875 -0.75 -0.46875 -1.671875q0 -1.0 0.578125 -1.875q0.578125 -0.890625 1.671875 -1.34375q1.109375 -0.453125 2.453125 -0.453125q1.484375 0 2.609375 0.484375q1.140625 0.46875 1.75 1.40625q0.609375 0.921875 0.65625 2.09375l-1.6875 0.125q-0.140625 -1.265625 -0.9375 -1.90625q-0.78125 -0.65625 -2.3125 -0.65625q-1.609375 0 -2.34375 0.59375q-0.734375 0.59375 -0.734375 1.421875q0 0.71875 0.53125 1.171875q0.5 0.46875 2.65625 0.96875q2.15625 0.484375 2.953125 0.84375q1.171875 0.53125 1.71875 1.359375q0.5625 0.828125 0.5625 1.90625q0 1.0625 -0.609375 2.015625q-0.609375 0.9375 -1.75 1.46875q-1.140625 0.515625 -2.578125 0.515625q-1.8125 0 -3.046875 -0.53125q-1.21875 -0.53125 -1.921875 -1.59375q-0.6875 -1.0625 -0.71875 -2.40625zm19.459229 1.1875l1.6875 0.203125q-0.40625 1.484375 -1.484375 2.3125q-1.078125 0.8125 -2.765625 0.8125q-2.125 0 -3.375 -1.296875q-1.234375 -1.3125 -1.234375 -3.671875q0 -2.453125 1.25 -3.796875q1.265625 -1.34375 3.265625 -1.34375q1.9375 0 3.15625 1.328125q1.234375 1.3125 1.234375 3.703125q0 0.15625 0 0.4375l-7.21875 0q0.09375 1.59375 0.90625 2.453125q0.8125 0.84375 2.015625 0.84375q0.90625 0 1.546875 -0.46875q0.640625 -0.484375 1.015625 -1.515625zm-5.390625 -2.65625l5.40625 0q-0.109375 -1.21875 -0.625 -1.828125q-0.78125 -0.953125 -2.03125 -0.953125q-1.125 0 -1.90625 0.765625q-0.765625 0.75 -0.84375 2.015625zm9.125732 5.765625l0 -9.671875l1.46875 0l0 1.46875q0.5625 -1.03125 1.03125 -1.359375q0.484375 -0.328125 1.0625 -0.328125q0.828125 0 1.6875 0.53125l-0.5625 1.515625q-0.609375 -0.359375 -1.203125 -0.359375q-0.546875 0 -0.96875 0.328125q-0.421875 0.328125 -0.609375 0.890625q-0.28125 0.875 -0.28125 1.921875l0 5.0625l-1.625 0zm8.9157715 0l-3.6875 -9.671875l1.734375 0l2.078125 5.796875q0.328125 0.9375 0.625 1.9375q0.203125 -0.765625 0.609375 -1.828125l2.140625 -5.90625l1.6875 0l-3.65625 9.671875l-1.53125 0zm13.265625 -3.109375l1.6875 0.203125q-0.40625 1.484375 -1.484375 2.3125q-1.078125 0.8125 -2.765625 0.8125q-2.125 0 -3.375 -1.296875q-1.234375 -1.3125 -1.234375 -3.671875q0 -2.453125 1.25 -3.796875q1.265625 -1.34375 3.265625 -1.34375q1.9375 0 3.15625 1.328125q1.234375 1.3125 1.234375 3.703125q0 0.15625 0 0.4375l-7.21875 0q0.09375 1.59375 0.90625 2.453125q0.8125 0.84375 2.015625 0.84375q0.90625 0 1.546875 -0.46875q0.640625 -0.484375 1.015625 -1.515625zm-5.390625 -2.65625l5.40625 0q-0.109375 -1.21875 -0.625 -1.828125q-0.78125 -0.953125 -2.03125 -0.953125q-1.125 0 -1.90625 0.765625q-0.765625 0.75 -0.84375 2.015625zm9.125732 5.765625l0 -9.671875l1.46875 0l0 1.46875q0.5625 -1.03125 1.03125 -1.359375q0.484375 -0.328125 1.0625 -0.328125q0.828125 0 1.6875 0.53125l-0.5625 1.515625q-0.609375 -0.359375 -1.203125 -0.359375q-0.546875 0 -0.96875 0.328125q-0.421875 0.328125 -0.609375 0.890625q-0.28125 0.875 -0.28125 1.921875l0 5.0625l-1.625 0z" fill-rule="nonzero"/><path fill="#000000" fill-opacity="0.0" d="m187.20473 67.01575c0 -12.5 86.2126 -25.007874 172.42519 -25.0c86.212616 0.007873535 172.4252 12.531498 172.4252 25.062996" fill-rule="evenodd"/><path stroke="#000000" stroke-width="1.0" stroke-linejoin="round" stroke-linecap="butt" d="m187.20473 67.01575c0 -12.5 86.2126 -25.007874 172.42519 -25.0c43.106293 0.0039367676 86.212616 3.1368103 118.54233 7.83514c16.164856 2.349163 29.63559 5.0896873 39.065063 8.026142c4.7147827 1.4682274 8.4192505 2.9854355 10.945007 4.5272026c0.6314087 0.385437 1.189209 0.77241135 1.6706543 1.1605377c0.12036133 0.09703064 0.23596191 0.19413376 0.34674072 0.29130936c0.055419922 0.04858017 0.10961914 0.09718323 0.16259766 0.14580536l0.06500244 0.061042786" fill-rule="evenodd"/><path fill="#000000" stroke="#000000" stroke-width="1.0" stroke-linecap="butt" d="m530.4273 64.06293l-1.5238037 -0.4554596l2.4572144 2.1848068l-0.4779663 -3.2531319z" fill-rule="evenodd"/><path fill="#000000" fill-opacity="0.0" d="m117.850395 88.02362c-12.500076 0 -27.9571 11.435432 -25.00016 23.003937c2.9569473 11.568504 24.327858 23.27008 47.177246 23.003937c22.84938 -0.2661438 47.177246 -12.5 47.177246 -25.0" fill-rule="evenodd"/><path stroke="#000000" stroke-width="1.0" stroke-linejoin="round" stroke-linecap="butt" d="m117.850395 88.02362c-12.500084 0 -27.957108 11.435432 -25.000153 23.003937c2.9569397 11.568512 24.327858 23.27008 47.17724 23.003937c11.424698 -0.1330719 23.21901 -3.258072 32.15715 -7.9123c4.469055 -2.327118 8.224075 -5.036537 10.861832 -7.9454346c1.3188934 -1.4544449 2.3584595 -2.9587631 3.0682983 -4.490097c0.17745972 -0.38282776 0.3343048 -0.7673416 0.46975708 -1.1531982l0.04084778 -0.12120819" fill-rule="evenodd"/><path fill="#000000" stroke="#000000" stroke-width="1.0" stroke-linecap="butt" d="m186.62537 112.409256l0.9182739 1.2985153l-0.5860596 -3.2354126l-1.6307373 2.8551788z" fill-rule="evenodd"/><path fill="#ffffff" d="m252.77165 189.43594l0 0c0 -6.7203217 5.447891 -12.168228 12.168228 -12.168228l160.16748 0c3.227234 0 6.3222656 1.2820129 8.604248 3.5639954c2.2819824 2.2819824 3.5639954 5.377014 3.5639954 8.604233l0 48.671417c0 6.720337 -5.4479065 12.168228 -12.168243 12.168228l-160.16748 0l0 0c-6.720337 0 -12.168228 -5.447891 -12.168228 -12.168228z" fill-rule="evenodd"/><path stroke="#000000" stroke-width="1.0" stroke-linejoin="round" stroke-linecap="butt" d="m252.77165 189.43594l0 0c0 -6.7203217 5.447891 -12.168228 12.168228 -12.168228l160.16748 0c3.227234 0 6.3222656 1.2820129 8.604248 3.5639954c2.2819824 2.2819824 3.5639954 5.377014 3.5639954 8.604233l0 48.671417c0 6.720337 -5.4479065 12.168228 -12.168243 12.168228l-160.16748 0l0 0c-6.720337 0 -12.168228 -5.447891 -12.168228 -12.168228z" fill-rule="evenodd"/><path fill="#000000" d="m296.68683 220.69165l0 -13.359375l4.609375 0q1.546875 0 2.375 0.203125q1.140625 0.25 1.953125 0.953125q1.0625 0.890625 1.578125 2.28125q0.53125 1.390625 0.53125 3.171875q0 1.515625 -0.359375 2.703125q-0.359375 1.171875 -0.921875 1.9375q-0.546875 0.765625 -1.203125 1.21875q-0.65625 0.4375 -1.59375 0.671875q-0.9375 0.21875 -2.140625 0.21875l-4.828125 0zm1.765625 -1.578125l2.859375 0q1.3125 0 2.0625 -0.234375q0.75 -0.25 1.203125 -0.703125q0.625 -0.625 0.96875 -1.6875q0.359375 -1.0625 0.359375 -2.578125q0 -2.09375 -0.6875 -3.21875q-0.6875 -1.125 -1.671875 -1.5q-0.703125 -0.28125 -2.28125 -0.28125l-2.8125 0l0 10.203125zm18.129211 -1.53125l1.6875 0.203125q-0.40625 1.484375 -1.484375 2.3125q-1.078125 0.8125 -2.765625 0.8125q-2.125 0 -3.375 -1.296875q-1.234375 -1.3125 -1.234375 -3.671875q0 -2.453125 1.25 -3.796875q1.265625 -1.34375 3.265625 -1.34375q1.9375 0 3.15625 1.328125q1.234375 1.3125 1.234375 3.703125q0 0.15625 0 0.4375l-7.21875 0q0.09375 1.59375 0.90625 2.453125q0.8125 0.84375 2.015625 0.84375q0.90625 0 1.546875 -0.46875q0.640625 -0.484375 1.015625 -1.515625zm-5.390625 -2.65625l5.40625 0q-0.109375 -1.21875 -0.625 -1.828125q-0.78125 -0.953125 -2.03125 -0.953125q-1.125 0 -1.90625 0.765625q-0.765625 0.75 -0.84375 2.015625zm9.141327 9.46875l0 -13.375l1.484375 0l0 1.25q0.53125 -0.734375 1.1875 -1.09375q0.671875 -0.375 1.625 -0.375q1.234375 0 2.171875 0.640625q0.953125 0.625 1.4375 1.796875q0.484375 1.15625 0.484375 2.546875q0 1.484375 -0.53125 2.671875q-0.53125 1.1875 -1.546875 1.828125q-1.015625 0.625 -2.140625 0.625q-0.8125 0 -1.46875 -0.34375q-0.65625 -0.34375 -1.0625 -0.875l0 4.703125l-1.640625 0zm1.484375 -8.484375q0 1.859375 0.75 2.765625q0.765625 0.890625 1.828125 0.890625q1.09375 0 1.875 -0.921875q0.78125 -0.9375 0.78125 -2.875q0 -1.84375 -0.765625 -2.765625q-0.75 -0.921875 -1.8125 -0.921875q-1.046875 0 -1.859375 0.984375q-0.796875 0.96875 -0.796875 2.84375zm8.844482 4.78125l0 -13.359375l1.640625 0l0 13.359375l-1.640625 0zm3.582306 -4.84375q0 -2.6875 1.484375 -3.96875q1.25 -1.078125 3.046875 -1.078125q2.0 0 3.265625 1.3125q1.265625 1.296875 1.265625 3.609375q0 1.859375 -0.5625 2.9375q-0.5625 1.0625 -1.640625 1.65625q-1.0625 0.59375 -2.328125 0.59375q-2.03125 0 -3.28125 -1.296875q-1.25 -1.3125 -1.25 -3.765625zm1.6875 0q0 1.859375 0.796875 2.796875q0.8125 0.921875 2.046875 0.921875q1.21875 0 2.03125 -0.921875q0.8125 -0.9375 0.8125 -2.84375q0 -1.796875 -0.8125 -2.71875q-0.8125 -0.921875 -2.03125 -0.921875q-1.234375 0 -2.046875 0.921875q-0.796875 0.90625 -0.796875 2.765625zm9.219482 8.5625l-0.1875 -1.53125q0.546875 0.140625 0.9375 0.140625q0.546875 0 0.875 -0.1875q0.328125 -0.171875 0.546875 -0.5q0.15625 -0.25 0.5 -1.21875q0.046875 -0.140625 0.140625 -0.40625l-3.671875 -9.6875l1.765625 0l2.015625 5.59375q0.390625 1.078125 0.703125 2.25q0.28125 -1.125 0.671875 -2.203125l2.078125 -5.640625l1.640625 0l-3.6875 9.828125q-0.59375 1.609375 -0.921875 2.203125q-0.4375 0.8125 -1.0 1.1875q-0.5625 0.375 -1.34375 0.375q-0.484375 0 -1.0625 -0.203125zm9.40625 -3.71875l0 -9.671875l1.46875 0l0 1.359375q0.453125 -0.71875 1.203125 -1.140625q0.765625 -0.4375 1.71875 -0.4375q1.078125 0 1.765625 0.453125q0.6875 0.4375 0.96875 1.234375q1.15625 -1.6875 2.984375 -1.6875q1.453125 0 2.21875 0.796875q0.78125 0.796875 0.78125 2.453125l0 6.640625l-1.640625 0l0 -6.09375q0 -0.984375 -0.15625 -1.40625q-0.15625 -0.4375 -0.578125 -0.703125q-0.421875 -0.265625 -0.984375 -0.265625q-1.015625 0 -1.6875 0.6875q-0.671875 0.671875 -0.671875 2.15625l0 5.625l-1.640625 0l0 -6.28125q0 -1.09375 -0.40625 -1.640625q-0.40625 -0.546875 -1.3125 -0.546875q-0.6875 0 -1.28125 0.359375q-0.59375 0.359375 -0.859375 1.0625q-0.25 0.703125 -0.25 2.03125l0 5.015625l-1.640625 0zm22.165802 -3.109375l1.6875 0.203125q-0.40625 1.484375 -1.484375 2.3125q-1.078125 0.8125 -2.765625 0.8125q-2.125 0 -3.375 -1.296875q-1.234375 -1.3125 -1.234375 -3.671875q0 -2.453125 1.25 -3.796875q1.265625 -1.34375 3.265625 -1.34375q1.9375 0 3.15625 1.328125q1.234375 1.3125 1.234375 3.703125q0 0.15625 0 0.4375l-7.21875 0q0.09375 1.59375 0.90625 2.453125q0.8125 0.84375 2.015625 0.84375q0.90625 0 1.546875 -0.46875q0.640625 -0.484375 1.015625 -1.515625zm-5.390625 -2.65625l5.40625 0q-0.109375 -1.21875 -0.625 -1.828125q-0.78125 -0.953125 -2.03125 -0.953125q-1.125 0 -1.90625 0.765625q-0.765625 0.75 -0.84375 2.015625zm9.141327 5.765625l0 -9.671875l1.46875 0l0 1.375q1.0625 -1.59375 3.078125 -1.59375q0.875 0 1.609375 0.3125q0.734375 0.3125 1.09375 0.828125q0.375 0.5 0.515625 1.203125q0.09375 0.453125 0.09375 1.59375l0 5.953125l-1.640625 0l0 -5.890625q0 -1.0 -0.203125 -1.484375q-0.1875 -0.5 -0.671875 -0.796875q-0.484375 -0.296875 -1.140625 -0.296875q-1.046875 0 -1.8125 0.671875q-0.75 0.65625 -0.75 2.515625l0 5.28125l-1.640625 0zm13.953857 -1.46875l0.234375 1.453125q-0.6875 0.140625 -1.234375 0.140625q-0.890625 0 -1.390625 -0.28125q-0.484375 -0.28125 -0.6875 -0.734375q-0.203125 -0.46875 -0.203125 -1.9375l0 -5.578125l-1.203125 0l0 -1.265625l1.203125 0l0 -2.390625l1.625 -0.984375l0 3.375l1.65625 0l0 1.265625l-1.65625 0l0 5.671875q0 0.6875 0.078125 0.890625q0.09375 0.203125 0.28125 0.328125q0.203125 0.109375 0.578125 0.109375q0.265625 0 0.71875 -0.0625z" fill-rule="nonzero"/><path fill="#666666" d="m280.70865 235.44896l0 0c0 -3.8675232 3.135254 -7.002762 7.002777 -7.002762l114.62439 0c1.8572388 0 3.6384277 0.73779297 4.9516907 2.051056c1.3132935 1.3132782 2.0510864 3.094452 2.0510864 4.951706l0 28.010208c0 3.8675232 -3.135254 7.002777 -7.002777 7.002777l-114.62439 0c-3.8675232 0 -7.002777 -3.135254 -7.002777 -7.002777z" fill-rule="evenodd"/><path stroke="#000000" stroke-width="1.0" stroke-linejoin="round" stroke-linecap="butt" d="m280.70865 235.44896l0 0c0 -3.8675232 3.135254 -7.002762 7.002777 -7.002762l114.62439 0c1.8572388 0 3.6384277 0.73779297 4.9516907 2.051056c1.3132935 1.3132782 2.0510864 3.094452 2.0510864 4.951706l0 28.010208c0 3.8675232 -3.135254 7.002777 -7.002777 7.002777l-114.62439 0c-3.8675232 0 -7.002777 -3.135254 -7.002777 -7.002777z" fill-rule="evenodd"/><path fill="#ffffff" d="m298.7905 256.37405l0 -13.35936l5.921875 0q1.78125 0 2.703125 0.359375q0.9375 0.359375 1.484375 1.28125q0.5625 0.90625 0.5625 2.015625q0 1.40625 -0.921875 2.390625q-0.921875 0.96875 -2.84375 1.234375q0.703125 0.34375 1.078125 0.671875q0.765625 0.703125 1.453125 1.765625l2.328125 3.6406097l-2.21875 0l-1.765625 -2.7812347q-0.78125 -1.203125 -1.28125 -1.828125q-0.5 -0.640625 -0.90625 -0.890625q-0.390625 -0.265625 -0.796875 -0.359375q-0.296875 -0.078125 -0.984375 -0.078125l-2.046875 0l0 5.9374847l-1.765625 0zm1.765625 -7.4531097l3.796875 0q1.21875 0 1.890625 -0.25q0.6875 -0.265625 1.046875 -0.8125q0.359375 -0.546875 0.359375 -1.1875q0 -0.953125 -0.6875 -1.5625q-0.6875 -0.609375 -2.1875 -0.609375l-4.21875 0l0 4.421875zm18.09793 4.34375l1.6875 0.203125q-0.40625 1.484375 -1.484375 2.3125q-1.078125 0.81248474 -2.765625 0.81248474q-2.125 0 -3.375 -1.2968597q-1.234375 -1.3125 -1.234375 -3.671875q0 -2.453125 1.25 -3.796875q1.265625 -1.34375 3.265625 -1.34375q1.9375 0 3.15625 1.328125q1.234375 1.3125 1.234375 3.703125q0 0.15625 0 0.4375l-7.21875 0q0.09375 1.59375 0.90625 2.453125q0.8125 0.84375 2.015625 0.84375q0.90625 0 1.546875 -0.46875q0.640625 -0.484375 1.015625 -1.515625zm-5.390625 -2.65625l5.40625 0q-0.109375 -1.21875 -0.625 -1.828125q-0.78125 -0.953125 -2.03125 -0.953125q-1.125 0 -1.90625 0.765625q-0.765625 0.75 -0.84375 2.015625zm9.141357 9.468735l0 -13.374985l1.484375 0l0 1.25q0.53125 -0.734375 1.1875 -1.09375q0.671875 -0.375 1.625 -0.375q1.234375 0 2.171875 0.640625q0.953125 0.625 1.4375 1.796875q0.484375 1.15625 0.484375 2.546875q0 1.484375 -0.53125 2.671875q-0.53125 1.1875 -1.546875 1.828125q-1.015625 0.62498474 -2.140625 0.62498474q-0.8125 0 -1.46875 -0.34375q-0.65625 -0.34373474 -1.0625 -0.87498474l0 4.7031097l-1.640625 0zm1.484375 -8.48436q0 1.859375 0.75 2.765625q0.765625 0.890625 1.828125 0.890625q1.09375 0 1.875 -0.921875q0.78125 -0.9375 0.78125 -2.875q0 -1.84375 -0.765625 -2.765625q-0.75 -0.921875 -1.8125 -0.921875q-1.046875 0 -1.859375 0.984375q-0.796875 0.96875 -0.796875 2.84375zm8.844452 4.7812347l0 -13.35936l1.640625 0l0 13.35936l-1.640625 0zm4.1917114 -11.468735l0 -1.890625l1.640625 0l0 1.890625l-1.640625 0zm0 11.468735l0 -9.67186l1.640625 0l0 9.67186l-1.640625 0zm10.457306 -3.5468597l1.609375 0.21875q-0.265625 1.65625 -1.359375 2.609375q-1.078125 0.93748474 -2.671875 0.93748474q-1.984375 0 -3.1875 -1.2968597q-1.203125 -1.296875 -1.203125 -3.71875q0 -1.578125 0.515625 -2.75q0.515625 -1.171875 1.578125 -1.75q1.0625 -0.59375 2.3125 -0.59375q1.578125 0 2.578125 0.796875q1.0 0.796875 1.28125 2.265625l-1.59375 0.234375q-0.234375 -0.96875 -0.8125 -1.453125q-0.578125 -0.5 -1.390625 -0.5q-1.234375 0 -2.015625 0.890625q-0.78125 0.890625 -0.78125 2.8125q0 1.953125 0.75 2.84375q0.75 0.875 1.953125 0.875q0.96875 0 1.609375 -0.59375q0.65625 -0.59375 0.828125 -1.828125zm9.328125 2.359375q-0.921875 0.765625 -1.765625 1.0937347q-0.828125 0.3125 -1.796875 0.3125q-1.59375 0 -2.453125 -0.78123474q-0.859375 -0.78125 -0.859375 -1.984375q0 -0.71875 0.328125 -1.296875q0.328125 -0.59375 0.84375 -0.9375q0.53125 -0.359375 1.1875 -0.546875q0.46875 -0.125 1.453125 -0.25q1.984375 -0.234375 2.921875 -0.5625q0.015625 -0.34375 0.015625 -0.421875q0 -1.0 -0.46875 -1.421875q-0.625 -0.546875 -1.875 -0.546875q-1.15625 0 -1.703125 0.40625q-0.546875 0.40625 -0.8125 1.421875l-1.609375 -0.21875q0.21875 -1.015625 0.71875 -1.640625q0.5 -0.640625 1.453125 -0.984375q0.953125 -0.34375 2.1875 -0.34375q1.25 0 2.015625 0.296875q0.78125 0.28125 1.140625 0.734375q0.375 0.4375 0.515625 1.109375q0.078125 0.421875 0.078125 1.515625l0 2.1875q0 2.28125 0.109375 2.890625q0.109375 0.59375 0.40625 1.1562347l-1.703125 0q-0.265625 -0.51560974 -0.328125 -1.1874847zm-0.140625 -3.671875q-0.890625 0.375 -2.671875 0.625q-1.015625 0.140625 -1.4375 0.328125q-0.421875 0.1875 -0.65625 0.53125q-0.21875 0.34375 -0.21875 0.78125q0 0.65625 0.5 1.09375q0.5 0.4375 1.453125 0.4375q0.9375 0 1.671875 -0.40625q0.75 -0.421875 1.09375 -1.140625q0.265625 -0.5625 0.265625 -1.640625l0 -0.609375zm8.996521 0.5625l1.65625 -0.140625q0.125 1.0 0.546875 1.640625q0.4375 0.640625 1.34375 1.046875q0.921875 0.390625 2.0625 0.390625q1.0 0 1.78125 -0.296875q0.78125 -0.296875 1.15625 -0.8125q0.375 -0.53125 0.375 -1.15625q0 -0.625 -0.375 -1.09375q-0.359375 -0.46875 -1.1875 -0.796875q-0.546875 -0.203125 -2.390625 -0.640625q-1.828125 -0.453125 -2.5625 -0.84375q-0.96875 -0.5 -1.4375 -1.234375q-0.46875 -0.75 -0.46875 -1.671875q0 -1.0 0.578125 -1.875q0.578125 -0.890625 1.671875 -1.34375q1.109375 -0.453125 2.453125 -0.453125q1.484375 0 2.609375 0.484375q1.140625 0.46875 1.75 1.40625q0.609375 0.921875 0.65625 2.09375l-1.6875 0.125q-0.140625 -1.265625 -0.9375 -1.90625q-0.78125 -0.65625 -2.3125 -0.65625q-1.609375 0 -2.34375 0.59375q-0.734375 0.59375 -0.734375 1.421875q0 0.71875 0.53125 1.171875q0.5 0.46875 2.65625 0.96875q2.15625 0.484375 2.953125 0.84375q1.171875 0.53125 1.71875 1.359375q0.5625 0.828125 0.5625 1.90625q0 1.0625 -0.609375 2.015625q-0.609375 0.9375 -1.75 1.4687347q-1.140625 0.515625 -2.578125 0.515625q-1.8125 0 -3.046875 -0.53125q-1.21875 -0.53123474 -1.921875 -1.5937347q-0.6875 -1.0625 -0.71875 -2.40625zm19.459198 1.1875l1.6875 0.203125q-0.40625 1.484375 -1.484375 2.3125q-1.078125 0.81248474 -2.765625 0.81248474q-2.125 0 -3.375 -1.2968597q-1.234375 -1.3125 -1.234375 -3.671875q0 -2.453125 1.25 -3.796875q1.265625 -1.34375 3.265625 -1.34375q1.9375 0 3.15625 1.328125q1.234375 1.3125 1.234375 3.703125q0 0.15625 0 0.4375l-7.21875 0q0.09375 1.59375 0.90625 2.453125q0.8125 0.84375 2.015625 0.84375q0.90625 0 1.546875 -0.46875q0.640625 -0.484375 1.015625 -1.515625zm-5.390625 -2.65625l5.40625 0q-0.109375 -1.21875 -0.625 -1.828125q-0.78125 -0.953125 -2.03125 -0.953125q-1.125 0 -1.90625 0.765625q-0.765625 0.75 -0.84375 2.015625zm12.719482 4.296875l0.234375 1.4531097q-0.6875 0.140625 -1.234375 0.140625q-0.890625 0 -1.390625 -0.28125q-0.484375 -0.28123474 -0.6875 -0.73435974q-0.203125 -0.46875 -0.203125 -1.9375l0 -5.578125l-1.203125 0l0 -1.265625l1.203125 0l0 -2.390625l1.625 -0.984375l0 3.375l1.65625 0l0 1.265625l-1.65625 0l0 5.671875q0 0.6875 0.078125 0.890625q0.09375 0.203125 0.28125 0.328125q0.203125 0.109375 0.578125 0.109375q0.265625 0 0.71875 -0.0625z" fill-rule="nonzero"/><path fill="#ffffff" d="m143.91339 350.0554l0 0c0 -7.2740784 5.8967896 -13.170868 13.170868 -13.170868l249.15433 0c3.4931335 0 6.8432007 1.3876343 9.313202 3.8576355c2.4700317 2.4700317 3.857666 5.820099 3.857666 9.313232l0 52.681885c0 7.2740784 -5.8967896 13.170868 -13.170868 13.170868l-249.15433 0c-7.2740784 0 -13.170868 -5.8967896 -13.170868 -13.170868z" fill-rule="evenodd"/><path stroke="#000000" stroke-width="2.0" stroke-linejoin="round" stroke-linecap="butt" stroke-dasharray="2.0,6.0" d="m143.91339 350.0554l0 0c0 -7.2740784 5.8967896 -13.170868 13.170868 -13.170868l249.15433 0c3.4931335 0 6.8432007 1.3876343 9.313202 3.8576355c2.4700317 2.4700317 3.857666 5.820099 3.857666 9.313232l0 52.681885c0 7.2740784 -5.8967896 13.170868 -13.170868 13.170868l-249.15433 0c-7.2740784 0 -13.170868 -5.8967896 -13.170868 -13.170868z" fill-rule="evenodd"/><path fill="#93c47d" d="m162.82939 361.54083l0 0c0 -3.8675232 3.135254 -7.002777 7.002777 -7.002777l87.25432 0c1.8572388 0 3.6384277 0.73779297 4.9516907 2.051056c1.3132629 1.3132935 2.051056 3.094452 2.051056 4.951721l0 28.010223c0 3.8674927 -3.135254 7.0027466 -7.0027466 7.0027466l-87.25432 0l0 0c-3.8675232 0 -7.002777 -3.135254 -7.002777 -7.0027466z" fill-rule="evenodd"/><path stroke="#ffffff" stroke-width="1.0" stroke-linejoin="round" stroke-linecap="butt" d="m162.82939 361.54083l0 0c0 -3.8675232 3.135254 -7.002777 7.002777 -7.002777l87.25432 0c1.8572388 0 3.6384277 0.73779297 4.9516907 2.051056c1.3132629 1.3132935 2.051056 3.094452 2.051056 4.951721l0 28.010223c0 3.8674927 -3.135254 7.0027466 -7.0027466 7.0027466l-87.25432 0l0 0c-3.8675232 0 -7.002777 -3.135254 -7.002777 -7.0027466z" fill-rule="evenodd"/><path fill="#000000" d="m190.5198 382.46594l0 -13.359375l5.046875 0q1.328125 0 2.03125 0.125q0.96875 0.171875 1.640625 0.640625q0.671875 0.453125 1.078125 1.28125q0.40625 0.828125 0.40625 1.828125q0 1.703125 -1.09375 2.890625q-1.078125 1.171875 -3.921875 1.171875l-3.421875 0l0 5.421875l-1.765625 0zm1.765625 -7.0l3.453125 0q1.71875 0 2.4375 -0.640625q0.71875 -0.640625 0.71875 -1.796875q0 -0.84375 -0.421875 -1.4375q-0.421875 -0.59375 -1.125 -0.78125q-0.4375 -0.125 -1.640625 -0.125l-3.421875 0l0 4.78125zm9.865448 2.15625q0 -2.6875 1.484375 -3.96875q1.25 -1.078125 3.046875 -1.078125q2.0 0 3.265625 1.3125q1.265625 1.296875 1.265625 3.609375q0 1.859375 -0.5625 2.9375q-0.5625 1.0625 -1.640625 1.65625q-1.0625 0.59375 -2.328125 0.59375q-2.03125 0 -3.28125 -1.296875q-1.25 -1.3125 -1.25 -3.765625zm1.6875 0q0 1.859375 0.796875 2.796875q0.8125 0.921875 2.046875 0.921875q1.21875 0 2.03125 -0.921875q0.8125 -0.9375 0.8125 -2.84375q0 -1.796875 -0.8125 -2.71875q-0.8125 -0.921875 -2.03125 -0.921875q-1.234375 0 -2.046875 0.921875q-0.796875 0.90625 -0.796875 2.765625zm15.563217 4.84375l0 -1.21875q-0.90625 1.4375 -2.703125 1.4375q-1.15625 0 -2.125 -0.640625q-0.96875 -0.640625 -1.5 -1.78125q-0.53125 -1.140625 -0.53125 -2.625q0 -1.453125 0.484375 -2.625q0.484375 -1.1875 1.4375 -1.8125q0.96875 -0.625 2.171875 -0.625q0.875 0 1.546875 0.375q0.6875 0.359375 1.109375 0.953125l0 -4.796875l1.640625 0l0 13.359375l-1.53125 0zm-5.171875 -4.828125q0 1.859375 0.78125 2.78125q0.78125 0.921875 1.84375 0.921875q1.078125 0 1.828125 -0.875q0.75 -0.890625 0.75 -2.6875q0 -1.984375 -0.765625 -2.90625q-0.765625 -0.9375 -1.890625 -0.9375q-1.078125 0 -1.8125 0.890625q-0.734375 0.890625 -0.734375 2.8125zm20.184021 4.828125l-1.640625 0l0 -10.453125q-0.59375 0.5625 -1.5625 1.140625q-0.953125 0.5625 -1.71875 0.84375l0 -1.59375q1.375 -0.640625 2.40625 -1.5625q1.03125 -0.921875 1.453125 -1.78125l1.0625 0l0 13.40625z" fill-rule="nonzero"/><path fill="#93c47d" d="m294.4252 361.54083l0 0c0 -3.8675232 3.135254 -7.002777 7.0027466 -7.002777l87.25433 0c1.8572388 0 3.6384277 0.73779297 4.9516907 2.051056c1.3132629 1.3132935 2.051056 3.094452 2.051056 4.951721l0 28.010223c0 3.8674927 -3.1352234 7.0027466 -7.0027466 7.0027466l-87.25433 0l0 0c-3.8674927 0 -7.0027466 -3.135254 -7.0027466 -7.0027466z" fill-rule="evenodd"/><path stroke="#ffffff" stroke-width="1.0" stroke-linejoin="round" stroke-linecap="butt" d="m294.4252 361.54083l0 0c0 -3.8675232 3.135254 -7.002777 7.0027466 -7.002777l87.25433 0c1.8572388 0 3.6384277 0.73779297 4.9516907 2.051056c1.3132629 1.3132935 2.051056 3.094452 2.051056 4.951721l0 28.010223c0 3.8674927 -3.1352234 7.0027466 -7.0027466 7.0027466l-87.25433 0l0 0c-3.8674927 0 -7.0027466 -3.135254 -7.0027466 -7.0027466z" fill-rule="evenodd"/><path fill="#000000" d="m322.1156 382.46594l0 -13.359375l5.046875 0q1.328125 0 2.03125 0.125q0.96875 0.171875 1.640625 0.640625q0.671875 0.453125 1.078125 1.28125q0.40625 0.828125 0.40625 1.828125q0 1.703125 -1.09375 2.890625q-1.078125 1.171875 -3.921875 1.171875l-3.421875 0l0 5.421875l-1.765625 0zm1.765625 -7.0l3.453125 0q1.71875 0 2.4375 -0.640625q0.71875 -0.640625 0.71875 -1.796875q0 -0.84375 -0.421875 -1.4375q-0.421875 -0.59375 -1.125 -0.78125q-0.4375 -0.125 -1.640625 -0.125l-3.421875 0l0 4.78125zm9.865448 2.15625q0 -2.6875 1.484375 -3.96875q1.25 -1.078125 3.046875 -1.078125q2.0 0 3.265625 1.3125q1.265625 1.296875 1.265625 3.609375q0 1.859375 -0.5625 2.9375q-0.5625 1.0625 -1.640625 1.65625q-1.0625 0.59375 -2.328125 0.59375q-2.03125 0 -3.28125 -1.296875q-1.25 -1.3125 -1.25 -3.765625zm1.6875 0q0 1.859375 0.796875 2.796875q0.8125 0.921875 2.046875 0.921875q1.21875 0 2.03125 -0.921875q0.8125 -0.9375 0.8125 -2.84375q0 -1.796875 -0.8125 -2.71875q-0.8125 -0.921875 -2.03125 -0.921875q-1.234375 0 -2.046875 0.921875q-0.796875 0.90625 -0.796875 2.765625zm15.563232 4.84375l0 -1.21875q-0.90625 1.4375 -2.703125 1.4375q-1.15625 0 -2.125 -0.640625q-0.96875 -0.640625 -1.5 -1.78125q-0.53125 -1.140625 -0.53125 -2.625q0 -1.453125 0.484375 -2.625q0.484375 -1.1875 1.4375 -1.8125q0.96875 -0.625 2.171875 -0.625q0.875 0 1.546875 0.375q0.6875 0.359375 1.109375 0.953125l0 -4.796875l1.640625 0l0 13.359375l-1.53125 0zm-5.171875 -4.828125q0 1.859375 0.78125 2.78125q0.78125 0.921875 1.84375 0.921875q1.078125 0 1.828125 -0.875q0.75 -0.890625 0.75 -2.6875q0 -1.984375 -0.765625 -2.90625q-0.765625 -0.9375 -1.890625 -0.9375q-1.078125 0 -1.8125 0.890625q-0.734375 0.890625 -0.734375 2.8125zm22.621521 3.25l0 1.578125l-8.828125 0q-0.015625 -0.59375 0.1875 -1.140625q0.34375 -0.90625 1.078125 -1.78125q0.75 -0.875 2.15625 -2.015625q2.171875 -1.78125 2.9375 -2.828125q0.765625 -1.046875 0.765625 -1.96875q0 -0.984375 -0.703125 -1.640625q-0.6875 -0.671875 -1.8125 -0.671875q-1.1875 0 -1.90625 0.71875q-0.703125 0.703125 -0.703125 1.953125l-1.6875 -0.171875q0.171875 -1.890625 1.296875 -2.875q1.140625 -0.984375 3.03125 -0.984375q1.921875 0 3.046875 1.0625q1.125 1.0625 1.125 2.640625q0 0.796875 -0.328125 1.578125q-0.328125 0.78125 -1.09375 1.640625q-0.75 0.84375 -2.53125 2.34375q-1.46875 1.234375 -1.890625 1.6875q-0.421875 0.4375 -0.6875 0.875l6.546875 0z" fill-rule="nonzero"/><path fill="#93c47d" d="m455.58792 361.54083l0 0c0 -3.8675232 3.135254 -7.002777 7.002777 -7.002777l87.25433 0c1.8572388 0 3.6384277 0.73779297 4.95166 2.051056c1.3132935 1.3132935 2.0510864 3.094452 2.0510864 4.951721l0 28.010223c0 3.8674927 -3.135254 7.0027466 -7.0027466 7.0027466l-87.25433 0l0 0c-3.8675232 0 -7.002777 -3.135254 -7.002777 -7.0027466z" fill-rule="evenodd"/><path stroke="#ffffff" stroke-width="1.0" stroke-linejoin="round" stroke-linecap="butt" d="m455.58792 361.54083l0 0c0 -3.8675232 3.135254 -7.002777 7.002777 -7.002777l87.25433 0c1.8572388 0 3.6384277 0.73779297 4.95166 2.051056c1.3132935 1.3132935 2.0510864 3.094452 2.0510864 4.951721l0 28.010223c0 3.8674927 -3.135254 7.0027466 -7.0027466 7.0027466l-87.25433 0l0 0c-3.8675232 0 -7.002777 -3.135254 -7.002777 -7.0027466z" fill-rule="evenodd"/><path fill="#000000" d="m481.7297 382.46594l0 -13.359375l5.046875 0q1.328125 0 2.03125 0.125q0.96875 0.171875 1.640625 0.640625q0.671875 0.453125 1.078125 1.28125q0.40625 0.828125 0.40625 1.828125q0 1.703125 -1.09375 2.890625q-1.078125 1.171875 -3.921875 1.171875l-3.421875 0l0 5.421875l-1.765625 0zm1.765625 -7.0l3.453125 0q1.71875 0 2.4375 -0.640625q0.71875 -0.640625 0.71875 -1.796875q0 -0.84375 -0.421875 -1.4375q-0.421875 -0.59375 -1.125 -0.78125q-0.4375 -0.125 -1.640625 -0.125l-3.421875 0l0 4.78125zm9.865448 2.15625q0 -2.6875 1.484375 -3.96875q1.25 -1.078125 3.046875 -1.078125q2.0 0 3.265625 1.3125q1.265625 1.296875 1.265625 3.609375q0 1.859375 -0.5625 2.9375q-0.5625 1.0625 -1.640625 1.65625q-1.0625 0.59375 -2.328125 0.59375q-2.03125 0 -3.28125 -1.296875q-1.25 -1.3125 -1.25 -3.765625zm1.6875 0q0 1.859375 0.796875 2.796875q0.8125 0.921875 2.046875 0.921875q1.21875 0 2.03125 -0.921875q0.8125 -0.9375 0.8125 -2.84375q0 -1.796875 -0.8125 -2.71875q-0.8125 -0.921875 -2.03125 -0.921875q-1.234375 0 -2.046875 0.921875q-0.796875 0.90625 -0.796875 2.765625zm15.563232 4.84375l0 -1.21875q-0.90625 1.4375 -2.703125 1.4375q-1.15625 0 -2.125 -0.640625q-0.96875 -0.640625 -1.5 -1.78125q-0.53125 -1.140625 -0.53125 -2.625q0 -1.453125 0.484375 -2.625q0.484375 -1.1875 1.4375 -1.8125q0.96875 -0.625 2.171875 -0.625q0.875 0 1.546875 0.375q0.6875 0.359375 1.109375 0.953125l0 -4.796875l1.640625 0l0 13.359375l-1.53125 0zm-5.171875 -4.828125q0 1.859375 0.78125 2.78125q0.78125 0.921875 1.84375 0.921875q1.078125 0 1.828125 -0.875q0.75 -0.890625 0.75 -2.6875q0 -1.984375 -0.765625 -2.90625q-0.765625 -0.9375 -1.890625 -0.9375q-1.078125 0 -1.8125 0.890625q-0.734375 0.890625 -0.734375 2.8125zm14.652771 4.828125l0 -13.359375l1.8125 0l7.015625 10.484375l0 -10.484375l1.6875 0l0 13.359375l-1.8125 0l-7.015625 -10.5l0 10.5l-1.6875 0z" fill-rule="nonzero"/><path fill="#000000" fill-opacity="0.0" d="m345.02362 270.46194c0 21.019104 -32.88977 31.530334 -65.77954 42.038208c-32.889755 10.507874 -65.77951 21.01239 -65.77951 42.02478" fill-rule="evenodd"/><path stroke="#000000" stroke-width="1.0" stroke-linejoin="round" stroke-linecap="butt" d="m345.02362 270.46194c0 21.019104 -32.88977 31.530334 -65.77954 42.038208c-16.444855 5.253937 -32.889755 10.50705 -45.223404 17.073212c-6.1668396 3.283081 -11.305862 6.894409 -14.903183 10.9982605c-1.7986603 2.051941 -3.2118988 4.226959 -4.175461 6.5457153c-0.48176575 1.1593018 -0.8511505 2.3546143 -1.1000671 3.5883179l-0.07652283 0.40542603" fill-rule="evenodd"/><path fill="#000000" stroke="#000000" stroke-width="1.0" stroke-linecap="butt" d="m213.76543 351.11108l-1.0215149 -1.2189636l0.848999 3.1765442l1.3914948 -2.9790955z" fill-rule="evenodd"/><path fill="#000000" fill-opacity="0.0" d="m345.02362 270.46194c0 21.019104 0.01574707 31.530334 0.03149414 42.038208c0.01574707 10.507874 0.03149414 21.01239 0.03149414 42.02478" fill-rule="evenodd"/><path stroke="#000000" stroke-width="1.0" stroke-linejoin="round" stroke-linecap="butt" d="m345.02362 270.46194c0 21.019104 0.01574707 31.530334 0.03149414 42.038208c0.007873535 5.253937 0.01574707 10.50705 0.02166748 17.073212c0.0029296875 3.283081 0.0054016113 6.894409 0.0071105957 10.9982605l0.0020751953 10.526215" fill-rule="evenodd"/><path fill="#000000" stroke="#000000" stroke-width="1.0" stroke-linecap="butt" d="m345.08594 351.09784l-1.1247864 -1.1243591l1.1251831 3.0895386l1.1239929 -3.0899658z" fill-rule="evenodd"/><path fill="#000000" fill-opacity="0.0" d="m228.78477 0l214.3622 0l0 42.015747l-214.3622 0z" fill-rule="evenodd"/><path fill="#000000" d="m244.7379 26.919998l-1.640625 0l0 -10.453125q-0.59375 0.5625 -1.5625 1.140625q-0.953125 0.5625 -1.71875 0.84375l0 -1.59375q1.375 -0.640625 2.40625 -1.5625q1.03125 -0.921875 1.453125 -1.78125l1.0625 0l0 13.40625zm5.110092 0l0 -1.875l1.875 0l0 1.875l-1.875 0z" fill-rule="nonzero"/><path fill="#000000" d="m259.2813 28.107498l0 -4.671875l-3.7031403 1.328125q-0.234375 0.75 -0.53125 0.15625l-0.734375 -1.484375l1.484375 -0.453125l0 -9.203125l1.4062653 0q0.59375 0.078125 0.078125 0.453125l0 8.3125l2.0 -0.671875l0 -9.875l1.40625 0q0.59375 0.078125 0.078125 0.453125l0 15.65625l-1.484375 0zm6.984375 -5.71875q1.25 -2.15625 1.625 -4.96875l-3.265625 0q0.375 2.96875 1.640625 4.96875zm-5.125 -2.21875q2.453125 -2.828125 3.40625 -8.3125l1.1875 0.21875q0.890625 0.21875 0.078125 0.515625q-0.296875 1.34375 -0.890625 3.421875l6.15625 0l0 1.40625l-1.78125 0q-0.59375 3.703125 -2.140625 6.15625q1.625 1.640625 4.0 2.671875l-0.8125 1.484375q-2.296875 -1.109375 -4.078125 -2.890625q-1.78125 2.078125 -4.234375 3.125l-0.8125 -1.34375q2.8125 -1.1875 4.15625 -2.96875q-1.1875 -1.859375 -1.859375 -4.375q-0.8125 1.328125 -1.34375 1.84375l-1.03125 -0.953125zm17.59375 -7.875q-0.234375 0.671875 -0.828125 1.265625l3.640625 0q0.515625 -1.1875 0.75 -1.9375l1.484375 0.296875q0.296875 0.296875 -0.234375 0.375l-0.59375 1.265625l5.9375 0l0 1.1875l-6.15625 0l0 0.96875l4.96875 0l0 1.1875l-4.96875 0l0 0.953125l4.96875 0l0 1.1875l-4.96875 0l0 1.125l6.6875 0l0 1.1875l-6.6875 0l0 1.109375l7.28125 0l0 1.40625l-5.796875 0q2.375 1.703125 6.09375 2.53125l-0.53125 1.484375q-4.15625 -1.046875 -7.046875 -3.71875l0 4.390625l-1.484375 0l0 -4.3125q-2.296875 2.375 -7.34375 3.859375l-0.515625 -1.40625q3.78125 -0.96875 6.375 -2.828125l-5.9375 0l0 -1.40625l7.421875 0l0 -1.109375l-2.59375 0l-2.59375 0l0 -5.28125q-0.671875 0.75 -1.640625 1.484375l-0.8125 -1.03125q2.8125 -2.296875 3.9375 -5.046875l1.40625 0.4375q0.296875 0.296875 -0.21875 0.375zm-1.421875 6.75l0 1.125l3.9375 0l0 -1.125l-3.9375 0zm0 -2.140625l0 0.953125l3.9375 0l0 -0.953125l-3.9375 0zm0 -2.15625l0 0.96875l3.9375 0l0 -0.96875l-3.9375 0z" fill-rule="nonzero"/><path fill="#000000" d="m297.9646 26.919998l0 -13.359375l5.046875 0q1.328125 0 2.03125 0.125q0.96875 0.171875 1.640625 0.640625q0.671875 0.453125 1.078125 1.28125q0.40625 0.828125 0.40625 1.828125q0 1.703125 -1.09375 2.890625q-1.078125 1.171875 -3.921875 1.171875l-3.421875 0l0 5.421875l-1.765625 0zm1.765625 -7.0l3.453125 0q1.71875 0 2.4375 -0.640625q0.71875 -0.640625 0.71875 -1.796875q0 -0.84375 -0.421875 -1.4375q-0.421875 -0.59375 -1.125 -0.78125q-0.4375 -0.125 -1.640625 -0.125l-3.421875 0l0 4.78125zm9.865448 2.15625q0 -2.6875 1.484375 -3.96875q1.25 -1.078125 3.046875 -1.078125q2.0 0 3.265625 1.3125q1.265625 1.296875 1.265625 3.609375q0 1.859375 -0.5625 2.9375q-0.5625 1.0625 -1.640625 1.65625q-1.0625 0.59375 -2.328125 0.59375q-2.03125 0 -3.28125 -1.296875q-1.25 -1.3125 -1.25 -3.765625zm1.6875 0q0 1.859375 0.796875 2.796875q0.8125 0.921875 2.046875 0.921875q1.21875 0 2.03125 -0.921875q0.8125 -0.9375 0.8125 -2.84375q0 -1.796875 -0.8125 -2.71875q-0.8125 -0.921875 -2.03125 -0.921875q-1.234375 0 -2.046875 0.921875q-0.796875 0.90625 -0.796875 2.765625zm15.563232 4.84375l0 -1.21875q-0.90625 1.4375 -2.703125 1.4375q-1.15625 0 -2.125 -0.640625q-0.96875 -0.640625 -1.5 -1.78125q-0.53125 -1.140625 -0.53125 -2.625q0 -1.453125 0.484375 -2.625q0.484375 -1.1875 1.4375 -1.8125q0.96875 -0.625 2.171875 -0.625q0.875 0 1.546875 0.375q0.6875 0.359375 1.109375 0.953125l0 -4.796875l1.640625 0l0 13.359375l-1.53125 0zm-5.171875 -4.828125q0 1.859375 0.78125 2.78125q0.78125 0.921875 1.84375 0.921875q1.078125 0 1.828125 -0.875q0.75 -0.890625 0.75 -2.6875q0 -1.984375 -0.765625 -2.90625q-0.765625 -0.9375 -1.890625 -0.9375q-1.078125 0 -1.8125 0.890625q-0.734375 0.890625 -0.734375 2.8125z" fill-rule="nonzero"/><path fill="#000000" d="m346.56168 16.373123q-0.75 2.078125 -2.375 3.9375l-1.109375 -1.328125q2.515625 -2.53125 3.1875 -7.203125l1.5625 0.515625q0.65625 0.296875 -0.078125 0.453125q-0.21875 1.03125 -0.59375 2.21875l5.34375 0l-0.375 10.09375q-0.078125 2.96875 -2.375 2.96875l-2.078125 0l-0.21875 -1.40625l1.921875 0q1.046875 0 1.125 -1.34375l0.359375 -8.90625l-4.296875 0zm0.890625 6.90625q-1.046875 -1.484375 -2.296875 -2.671875l1.25 -1.328125q1.484375 1.328125 2.375 2.59375l-1.328125 1.40625zm-8.765625 -8.3125q0.453125 -1.40625 0.828125 -3.265625l1.78125 0.671875q0.296875 0.296875 -0.234375 0.375q-0.21875 0.953125 -0.8125 2.21875l2.75 0l0 12.25l-1.484375 0l0 -0.890625l-3.265625 0l0 1.484375l-1.484375 0l0 -12.84375l1.921875 0zm2.828125 1.40625l-3.265625 0l0 3.265625l3.265625 0l0 -3.265625zm0 4.6875l-3.265625 0l0 3.859375l3.265625 0l0 -3.859375zm22.40625 -6.984375q2.234375 -0.296875 5.640625 -1.40625l0.890625 1.265625q0.375 0.4375 -0.359375 0.296875q-3.796875 0.8125 -6.171875 1.109375l0 1.109375q0 0.59375 0.53125 0.59375l5.109375 0q0.59375 0 0.671875 -0.515625l0.21875 -1.109375l1.484375 0.359375l-0.359375 1.484375q-0.296875 1.1875 -1.71875 1.1875l-6.15625 0q-1.265625 0 -1.265625 -1.328125l0 -5.5l1.421875 0q0.59375 0.078125 0.0625 0.453125l0 2.0zm-7.484375 14.40625l-0.234375 -1.40625l1.1875 0q0.296875 0 0.296875 -0.3125l0 -4.515625l-1.546875 0.515625q-0.296875 0.734375 -0.53125 0l-0.59375 -1.484375l2.671875 -0.671875l0 -4.296875l-2.296875 0l0 -1.421875l2.296875 0l0 -3.40625l1.421875 0q0.59375 0.078125 0.0625 0.4375l0 2.96875l2.234375 0l0 1.421875l-2.234375 0l0 3.859375l2.234375 -0.828125l0.375 1.421875l-2.609375 1.03125l0 5.5q0 1.1875 -1.1875 1.1875l-1.546875 0zm12.765625 -5.5l0 -2.078125l-4.90625 0l0 2.078125l4.90625 0zm1.484375 5.28125l-1.484375 0l0 -0.75l-4.90625 0l0 0.890625l-1.484375 0l0 -8.6875l7.875 0l0 8.546875zm-1.484375 -4.09375l-4.90625 0l0 2.15625l4.90625 0l0 -2.15625z" fill-rule="nonzero"/><path fill="#000000" d="m376.62418 14.091873q0 -1.171875 -0.078125 -2.25l1.453125 0q-0.0625 1.015625 -0.0625 2.25l0 1.75q1.15625 0 2.46875 -0.078125l0 1.390625q-1.3125 -0.078125 -2.46875 -0.078125l0 2.484375q0.5 -0.359375 1.015625 -0.796875q0.953125 1.53125 1.671875 2.984375q-0.796875 0.359375 -1.375 0.796875q-0.4375 -1.453125 -1.3125 -2.6875l0 5.671875q0 1.53125 0.0625 3.0625l-1.453125 0q0.078125 -1.59375 0.078125 -3.0625l0 -4.734375q-0.734375 2.046875 -2.265625 3.9375q-0.4375 -0.578125 -1.09375 -1.09375q1.25 -1.234375 2.015625 -3.09375q0.765625 -1.859375 0.984375 -3.46875q-1.390625 0 -2.40625 0.15625l0 -1.46875q1.375 0.078125 2.765625 0.078125l0 -1.75zm11.359375 3.71875q1.46875 0 2.5625 -0.078125l0 1.390625q-1.09375 -0.078125 -2.265625 -0.078125l-2.25 0l0 7.359375q0 1.171875 -0.65625 1.53125q-0.65625 0.375 -2.34375 0.59375q-0.140625 -0.875 -0.578125 -1.6875q1.453125 0 1.8125 -0.109375q0.375 -0.109375 0.375 -0.828125l0 -6.859375l-1.828125 0q-1.8125 0 -2.625 0.15625l0 -1.46875q0.953125 0.078125 2.625 0.078125l5.171875 0zm-0.796875 -4.8125q1.53125 0 2.484375 -0.078125l0 1.46875q-1.390625 -0.15625 -2.921875 -0.15625l-3.5625 0q-1.171875 0 -2.265625 0.15625l0 -1.46875q1.015625 0.078125 2.265625 0.078125l4.0 0zm1.09375 8.015625q1.609375 2.484375 2.703125 4.453125q-0.8125 0.359375 -1.609375 0.875q-0.796875 -2.125 -2.40625 -4.453125q0.734375 -0.359375 1.3125 -0.875zm-4.875 0.734375q-0.296875 0.4375 -1.109375 2.328125q-0.796875 1.890625 -1.234375 2.703125q-0.65625 -0.375 -1.453125 -0.65625q0.953125 -1.46875 1.421875 -2.671875q0.46875 -1.203125 0.765625 -2.359375q0.796875 0.359375 1.609375 0.65625z" fill-rule="nonzero"/><path fill="#000000" d="m405.37418 22.841873q1.03125 -2.015625 1.25 -6.09375l-2.515625 0q0.21875 4.078125 1.265625 6.09375zm2.734375 -6.09375q-0.140625 4.609375 -1.78125 7.421875q1.1875 1.484375 3.34375 2.59375l-0.96875 1.640625q-2.375 -1.5625 -3.328125 -2.96875q-1.71875 1.9375 -5.28125 3.34375l-0.734375 -1.484375q3.859375 -1.5625 5.125 -3.203125q-1.265625 -2.4375 -1.421875 -4.890625q-0.4375 1.109375 -0.890625 1.703125l-1.25 -0.96875q2.21875 -3.265625 2.671875 -8.078125l1.546875 0.359375q0.453125 0.296875 -0.21875 0.453125q-0.21875 1.328125 -0.59375 2.671875l5.046875 0l0 1.40625l-1.265625 0zm-6.890625 -3.5625q-0.453125 1.109375 -1.046875 1.859375l-1.1875 -0.671875q0.59375 -0.96875 1.109375 -2.21875l1.34375 0.65625q0.296875 0.296875 -0.21875 0.375zm-4.75 10.46875q1.03125 0.296875 1.84375 0.671875q0.59375 -0.671875 0.96875 -2.015625l-2.15625 0q-0.296875 0.671875 -0.65625 1.34375zm-1.046875 1.859375l-1.1875 -0.671875q0.75 -1.109375 1.484375 -2.53125l-2.8125 0l0 -1.1875l3.265625 0q0.4375 -0.953125 0.65625 -1.625l1.421875 0.375q0.296875 0.296875 -0.234375 0.359375l-0.4375 0.890625l4.234375 0l0 1.1875l-1.125 0q-0.359375 1.484375 -1.109375 2.53125q0.671875 0.296875 1.40625 0.734375l-0.65625 1.1875q-0.828125 -0.515625 -1.484375 -0.8125q-1.9375 1.9375 -5.203125 2.375l-0.515625 -1.328125q2.890625 -0.296875 4.453125 -1.640625q-0.8125 -0.375 -1.640625 -0.671875l-0.515625 0.828125zm1.484375 -13.953125l1.1875 0q0.59375 0.0625 0.078125 0.4375l0 3.1875l3.78125 0l0 1.1875l-3.109375 0q0.8125 0.96875 2.515625 1.859375l-0.8125 1.265625q-1.265625 -0.75 -2.375 -2.078125l0 1.78125l-1.265625 0l0 -1.40625q-1.1875 1.484375 -3.265625 2.671875l-0.96875 -1.1875q2.3125 -1.1875 3.796875 -2.90625l-3.421875 0l0 -1.1875l3.859375 0l0 -3.625zm-2.078125 3.40625q-0.515625 -1.109375 -1.328125 -1.921875l1.1875 -0.75q0.890625 0.890625 1.328125 1.859375l-1.1875 0.8125zm23.15625 -2.96875l9.71875 0l0 4.671875l-3.328125 0l0 2.15625l4.15625 0l0 1.1875l-4.15625 0l0 2.234375l2.890625 0l0 6.15625l-1.265625 0l0 -0.8125l-4.453125 0l0 1.03125l-1.265625 0l0 -6.375l2.609375 0l0 -2.234375l-3.640625 0l0 1.1875q0 4.96875 -2.15625 7.203125l-1.109375 -1.109375q2.0 -2.015625 2.0 -6.390625l0 -8.90625zm8.015625 11.4375l-4.453125 0l0 2.96875l4.453125 0l0 -2.96875zm-3.109375 -4.609375l0 -2.15625l-3.640625 0l0 2.15625l3.640625 0zm-3.640625 -3.34375l6.96875 0l0 -2.296875l-6.96875 0l0 2.296875zm-1.9375 5.578125l-1.921875 0.65625l0 5.796875q0 1.1875 -1.1875 1.1875l-1.484375 0l-0.21875 -1.40625l1.109375 0q0.296875 0 0.296875 -0.296875l0 -4.828125l-1.5625 0.515625q-0.078125 0.515625 -0.375 0.21875l-0.515625 -1.78125l2.453125 -0.515625l0 -3.859375l-2.078125 0l0 -1.40625l2.078125 0l0 -3.859375l1.40625 0q0.59375 0.078125 0.078125 0.4375l0 3.421875l1.921875 0l0 1.40625l-1.921875 0l0 3.5625l1.78125 -0.515625l0.140625 1.265625z" fill-rule="nonzero"/><path fill="#000000" fill-opacity="0.0" d="m-3.7480314E-4 139.92126l223.55907 0l0 42.015747l-223.55907 0z" fill-rule="evenodd"/><path fill="#000000" d="m18.39025 165.26314l0 1.578125l-8.828124 0q-0.015625 -0.59375 0.1875 -1.140625q0.34375 -0.90625 1.078125 -1.78125q0.75 -0.875 2.15625 -2.015625q2.171875 -1.78125 2.9375 -2.828125q0.76562405 -1.046875 0.76562405 -1.96875q0 -0.984375 -0.70312405 -1.640625q-0.6875 -0.671875 -1.8125 -0.671875q-1.1875 0 -1.90625 0.71875q-0.703125 0.703125 -0.703125 1.953125l-1.6875 -0.171875q0.171875 -1.890625 1.296875 -2.875q1.140625 -0.984375 3.03125 -0.984375q1.921874 0 3.046874 1.0625q1.125 1.0625 1.125 2.640625q0 0.796875 -0.328125 1.578125q-0.328125 0.78125 -1.09375 1.640625q-0.75 0.84375 -2.531249 2.34375q-1.46875 1.234375 -1.890625 1.6875q-0.421875 0.4375 -0.6875 0.875l6.546874 0zm2.6725922 1.578125l0 -1.875l1.875 0l0 1.875l-1.875 0z" fill-rule="nonzero"/><path fill="#000000" d="m35.996147 157.81001l0 -3.65625q0 -1.453125 -0.0625 -2.25l1.53125 0q-0.078125 0.9375 -0.078125 1.671875l0 4.234375l2.984375 0q0.875 0 1.890625 -0.078125l0 1.390625q-1.09375 -0.078125 -1.8125 -0.078125l-3.0625 0l0 7.28125q0 0.875 0.078125 2.125l-1.53125 0q0.0625 -1.25 0.0625 -2.046875l0 -7.359375l-2.84375 0q-1.09375 0 -2.187502 0.078125l0 -1.390625q1.0937519 0.078125 2.046877 0.078125l2.984375 0zm-6.265627 -0.15625q-0.078125 1.390625 -0.078125 2.921875l0 4.4375q1.25 -1.234375 1.96875 -2.25q0.4375019 0.578125 1.0312519 1.15625l-2.046877 2.046875q-0.953125 0.953125 -1.8125 1.890625q-0.515625 -0.65625 -0.953125 -1.15625q0.515625 -0.59375 0.4375 -1.75l0 -6.046875q-1.96875 0 -2.921875 0.0625l0 -1.375q1.171875 0.0625 1.609375 0.0625l2.765625 0zm-1.8125 -5.53125q0.9375 0.9375 2.984375 3.0625q-0.65625 0.578125 -1.25 1.09375q-0.9375 -1.390625 -2.828125 -3.28125q0.5 -0.359375 1.09375 -0.875z" fill-rule="nonzero"/><path fill="#000000" d="m44.261772 165.27876l0 -1.1875l5.5625 0l0 -1.109375l-1.265625 0l-1.1875 0l0 -7.046875l5.71875 0l-1.1875 -0.75q1.484375 -1.40625 2.21875 -3.9375l1.484375 0.59375q0.59375 0.234375 -0.21875 0.453125l-0.296875 0.59375l5.71875 0l0 1.1875l-3.421875 0l0.671875 1.109375l-1.484375 0.375l-0.671875 -1.484375l-1.328125 0q-0.453125 0.8125 -1.265625 1.859375l4.75 0l0 7.046875l-2.0 0l0 1.109375l5.125 0l0 1.1875l-5.125 0l0 3.203125l-1.484375 0l0 -3.203125l-3.421875 0q-0.21875 2.609375 -5.046875 3.5l-0.4375 -1.421875q3.640625 -0.4375 4.0 -2.078125l-5.40625 0zm4.515625 -13.359375q0.59375 0.21875 -0.21875 0.453125l-0.21875 0.515625l4.296875 0l0 1.1875l-2.296875 0l0.59375 1.109375l-1.5625 0.296875l-0.4375 -1.40625l-1.109375 0q-0.96875 1.703125 -2.234375 2.75l-1.109375 -1.125q2.078125 -1.78125 2.890625 -4.375l1.40625 0.59375zm8.015625 5.203125l-8.15625 0l0 0.953125l8.15625 0l0 -0.953125zm0 2.8125l0 -0.96875l-8.15625 0l0 0.96875l8.15625 0zm0 1.859375l0 -0.96875l-8.15625 0l0 0.96875l8.15625 0zm-2.21875 2.296875l0 -1.109375l-3.265625 0l0 1.109375l3.265625 0zm21.890625 4.15625l-0.21875 -1.40625l1.40625 0q0.296875 0 0.296875 -0.296875l0 -14.765625l1.40625 0q0.59375 0.0625 0.078125 0.4375l0 14.84375q0 1.1875 -1.1875 1.1875l-1.78125 0zm-1.78125 -3.703125l0 -10.921875l1.40625 0q0.59375 0.078125 0.078125 0.453125l0 10.46875l-1.484375 0zm-1.109375 -10.84375l-10.3125 0l0 -1.40625l10.3125 0l0 1.40625zm-1.703125 5.265625l-7.0625 0l0 -4.15625l7.0625 0l0 4.15625zm-1.265625 -2.96875l-4.53125 0l0 1.78125l4.53125 0l0 -1.78125zm0.96875 12.1875l0 -0.59375l-6.390625 0l0 0.890625l-1.265625 0l0 -8.328125l8.90625 0l0 8.03125l-1.25 0zm0 -3.875l-2.53125 0l0 2.078125l2.53125 0l0 -2.078125zm0 -1.1875l0 -1.78125l-2.53125 0l0 1.78125l2.53125 0zm-3.796875 3.265625l0 -2.078125l-2.59375 0l0 2.078125l2.59375 0zm0 -3.265625l0 -1.78125l-2.59375 0l0 1.78125l2.59375 0zm30.65625 2.453125q-4.53125 -2.8125 -7.046875 -7.203125l0 4.6875l3.046875 0l0 1.40625l-3.046875 0l0 4.015625l-1.484375 0l0 -4.015625l-2.890625 0l0 -1.40625l2.890625 0l0 -4.6875q-2.15625 4.75 -6.984375 7.578125l-0.8125 -1.5625q5.046875 -2.75 7.203125 -8.015625l-6.453125 0l0 -1.40625l7.046875 0l0 -3.34375l1.40625 0q0.59375 0.078125 0.078125 0.453125l0 2.890625l7.125 0l0 1.40625l-6.609375 0q2.53125 4.53125 7.34375 7.5l-0.8125 1.703125z" fill-rule="nonzero"/><path fill="#000000" d="m112.24615 156.63814q-0.21875 0.875 -0.375 2.40625q-0.140625 1.53125 -0.4375 3.28125l3.421875 0q1.3125 0 2.78125 -0.078125l0 1.390625q-1.53125 -0.078125 -2.84375 -0.078125l-3.71875 0q-0.65625 1.453125 -1.96875 2.546875q-1.3125 1.09375 -3.0625 1.71875q-1.75 0.625 -3.125 0.984375q-0.296875 -0.875 -1.25 -1.390625q2.125 -0.21875 4.515625 -1.203125q2.40625 -0.984375 3.359375 -2.65625l-5.171875 0q-1.3125 0 -2.921875 0.078125l0 -1.390625q1.6875 0.078125 2.921875 0.078125l5.6875 0q0.21875 -1.234375 0.328125 -2.65625q0.109375 -1.421875 0.03125 -3.46875q0.875 0.296875 1.828125 0.4375zm-2.5625 -5.09375q0.59375 1.15625 1.03125 2.546875l6.328125 0q-0.0625 0.796875 -0.0625 1.59375q0 0.734375 0.0625 1.609375l-1.671875 0l0 -2.046875l-11.578125 0l0 2.1875l-1.609375 0q0.078125 -0.875 0.078125 -1.671875q0 -0.875 -0.078125 -1.671875l6.703125 0q-0.21875 -0.875 -0.796875 -2.046875q0.578125 -0.21875 1.59375 -0.5zm2.1875 12.890625q1.609375 0.875 3.0625 1.640625q1.453125 0.765625 2.546875 1.421875q-0.5 0.578125 -1.09375 1.234375q-1.3125 -0.9375 -2.84375 -1.78125q-1.515625 -0.84375 -2.609375 -1.28125q0.578125 -0.71875 0.9375 -1.234375zm-8.234375 -5.609375q1.25 0.578125 3.421875 2.046875q-0.28125 0.4375 -0.875 1.15625q-2.03125 -1.53125 -3.265625 -2.03125q0.4375 -0.4375 0.71875 -1.171875zm5.765625 -0.21875q-0.515625 0.578125 -0.875 1.171875q-2.34375 -1.6875 -3.4375 -2.046875q0.375 -0.515625 0.8125 -1.171875l3.5 2.046875z" fill-rule="nonzero"/><path fill="#000000" d="m119.38677 159.41939q2.671875 -2.671875 3.640625 -7.9375l1.5625 0.4375q0.296875 0.296875 -0.21875 0.375q-0.890625 3.109375 -1.1875 3.9375l0.296875 0.0625q0.21875 0.234375 -0.15625 0.453125l0 11.578125l-1.484375 0l0 -9.421875q-0.8125 1.1875 -1.625 1.921875l-0.828125 -1.40625zm4.234375 3.109375q2.296875 -2.375 2.75 -8.234375l-1.5625 0l0 -1.40625l6.6093674 0l0 1.40625l-3.6406174 0l-0.296875 2.375l3.1249924 0l0 1.78125q0 6.390625 -5.1249924 9.796875l-0.890625 -1.328125q2.59375 -1.640625 3.7812424 -4.53125q-1.1093674 -0.96875 -1.9999924 -1.34375q-0.671875 1.421875 -1.703125 2.75l-1.046875 -1.265625zm3.1875 -2.8125q1.125 0.375 2.0156174 1.109375q0.359375 -1.328125 0.359375 -2.75l-1.9218674 0q-0.078125 0.671875 -0.453125 1.640625zm7.4999924 6.96875q0.296875 0 0.296875 -0.296875l0 -14.171875l1.40625 0q0.59375 0.078125 0.078125 0.453125l0 14.390625q0 1.046875 -0.96875 1.046875l-2.0 0l-0.140625 -1.421875l1.328125 0zm-1.109375 -2.59375l-1.484375 0l0 -9.875l1.40625 0q0.59375 0.078125 0.078125 0.453125l0 9.421875zm18.484375 -1.328125q1.03125 -2.015625 1.25 -6.09375l-2.515625 0q0.21875 4.078125 1.265625 6.09375zm2.734375 -6.09375q-0.140625 4.609375 -1.78125 7.421875q1.1875 1.484375 3.34375 2.59375l-0.96875 1.640625q-2.375 -1.5625 -3.328125 -2.96875q-1.71875 1.9375 -5.28125 3.34375l-0.734375 -1.484375q3.859375 -1.5625 5.125 -3.203125q-1.265625 -2.4375 -1.421875 -4.890625q-0.4375 1.109375 -0.890625 1.703125l-1.25 -0.96875q2.21875 -3.265625 2.671875 -8.078125l1.546875 0.359375q0.453125 0.296875 -0.21875 0.453125q-0.21875 1.328125 -0.59375 2.671875l5.046875 0l0 1.40625l-1.265625 0zm-6.890625 -3.5625q-0.453125 1.109375 -1.046875 1.859375l-1.1875 -0.671875q0.59375 -0.96875 1.109375 -2.21875l1.34375 0.65625q0.296875 0.296875 -0.21875 0.375zm-4.75 10.46875q1.03125 0.296875 1.84375 0.671875q0.59375 -0.671875 0.96875 -2.015625l-2.15625 0q-0.296875 0.671875 -0.65625 1.34375zm-1.046875 1.859375l-1.1875 -0.671875q0.75 -1.109375 1.484375 -2.53125l-2.8125 0l0 -1.1875l3.265625 0q0.4375 -0.953125 0.65625 -1.625l1.421875 0.375q0.296875 0.296875 -0.234375 0.359375l-0.4375 0.890625l4.234375 0l0 1.1875l-1.125 0q-0.359375 1.484375 -1.109375 2.53125q0.671875 0.296875 1.40625 0.734375l-0.65625 1.1875q-0.828125 -0.515625 -1.484375 -0.8125q-1.9375 1.9375 -5.203125 2.375l-0.515625 -1.328125q2.890625 -0.296875 4.453125 -1.640625q-0.8125 -0.375 -1.640625 -0.671875l-0.515625 0.828125zm1.484375 -13.953125l1.1875 0q0.59375 0.0625 0.078125 0.4375l0 3.1875l3.78125 0l0 1.1875l-3.109375 0q0.8125 0.96875 2.515625 1.859375l-0.8125 1.265625q-1.265625 -0.75 -2.375 -2.078125l0 1.78125l-1.265625 0l0 -1.40625q-1.1875 1.484375 -3.265625 2.671875l-0.96875 -1.1875q2.3125 -1.1875 3.796875 -2.90625l-3.421875 0l0 -1.1875l3.859375 0l0 -3.625zm-2.078125 3.40625q-0.515625 -1.109375 -1.328125 -1.921875l1.1875 -0.75q0.890625 0.890625 1.328125 1.859375l-1.1875 0.8125z" fill-rule="nonzero"/><path fill="#000000" fill-opacity="0.0" d="m256.55905 88.02362l88.47244 0l0 89.25984" fill-rule="evenodd"/><path stroke="#000000" stroke-width="1.0" stroke-linejoin="round" stroke-linecap="butt" d="m256.55905 88.02362l88.47244 0l0 85.83276" fill-rule="evenodd"/><path fill="#000000" stroke="#000000" stroke-width="1.0" stroke-linecap="butt" d="m345.0315 173.85638l-1.1245728 -1.124588l1.1245728 3.0897675l1.1245728 -3.0897675z" fill-rule="evenodd"/><path fill="#000000" fill-opacity="0.0" d="m348.8058 119.979004l177.51178 0l0 42.015747l-177.51178 0z" fill-rule="evenodd"/><path fill="#000000" d="m358.58704 143.36775l1.640625 -0.21875q0.28125 1.40625 0.953125 2.015625q0.6875 0.609375 1.65625 0.609375q1.15625 0 1.953125 -0.796875q0.796875 -0.796875 0.796875 -1.984375q0 -1.125 -0.734375 -1.859375q-0.734375 -0.734375 -1.875 -0.734375q-0.46875 0 -1.15625 0.171875l0.1875 -1.4375q0.15625 0.015625 0.265625 0.015625q1.046875 0 1.875 -0.546875q0.84375 -0.546875 0.84375 -1.671875q0 -0.90625 -0.609375 -1.5q-0.609375 -0.59375 -1.578125 -0.59375q-0.953125 0 -1.59375 0.609375q-0.640625 0.59375 -0.8125 1.796875l-1.640625 -0.296875q0.296875 -1.640625 1.359375 -2.546875q1.0625 -0.90625 2.65625 -0.90625q1.09375 0 2.0 0.46875q0.921875 0.46875 1.40625 1.28125q0.5 0.8125 0.5 1.71875q0 0.859375 -0.46875 1.578125q-0.46875 0.703125 -1.375 1.125q1.1875 0.28125 1.84375 1.140625q0.65625 0.859375 0.65625 2.15625q0 1.734375 -1.28125 2.953125q-1.265625 1.21875 -3.21875 1.21875q-1.765625 0 -2.921875 -1.046875q-1.15625 -1.046875 -1.328125 -2.71875zm11.281952 3.53125l0 -1.875l1.875 0l0 1.875l-1.875 0z" fill-rule="nonzero"/><path fill="#000000" d="m383.4898 132.53963q-0.359375 0.796875 -0.578125 1.640625q-0.21875 0.84375 -0.578125 2.296875l5.828125 0q0.71875 0 2.1875 -0.078125l0 1.390625q-1.46875 -0.078125 -2.1875 -0.078125l-6.125 0q-0.4375 1.09375 -0.953125 2.1875l7.734375 0q-1.390625 3.359375 -3.859375 5.609375q1.96875 1.390625 5.75 1.828125q-0.515625 0.578125 -0.875 1.453125q-1.453125 -0.28125 -2.984375 -0.828125q-1.53125 -0.546875 -2.984375 -1.578125q-1.171875 0.734375 -2.859375 1.421875q-1.671875 0.703125 -3.40625 1.140625q-0.15625 -0.734375 -0.734375 -1.390625q1.59375 -0.21875 3.203125 -0.765625q1.609375 -0.546875 2.84375 -1.34375q-1.234375 -1.25 -2.765625 -3.578125q-0.8125 1.3125 -2.046875 2.5625q-1.234375 1.234375 -2.6875 2.25q-0.296875 -0.515625 -1.171875 -1.09375q1.09375 -0.578125 2.140625 -1.53125q1.0625 -0.953125 2.21875 -2.515625q1.171875 -1.5625 1.984375 -3.828125q-1.90625 0 -2.921875 0.078125q-1.015625 0.078125 -1.53125 0.296875q-0.21875 -0.65625 -0.578125 -1.390625q0.734375 -0.140625 1.0625 -1.09375q0.328125 -0.953125 0.6875 -2.90625q0.578125 0.28125 1.59375 0.578125q-0.359375 0.71875 -0.65625 1.484375q-0.28125 0.765625 -0.640625 1.71875l3.34375 0q0.578125 -2.328125 0.875 -4.4375q0.796875 0.4375 1.671875 0.5zm-2.328125 8.53125q1.015625 1.8125 2.84375 3.640625q1.609375 -1.3125 2.84375 -3.640625l-5.6875 0zm5.03125 -8.96875q1.234375 1.390625 2.46875 2.84375q-0.5 0.296875 -1.234375 0.953125q-1.15625 -1.6875 -2.25 -2.84375q0.5 -0.359375 1.015625 -0.953125z" fill-rule="nonzero"/><path fill="#000000" d="m409.6148 148.00838l-8.015625 0q-3.9375 0 -6.3125 -3.265625q-0.375 2.3125 -1.265625 3.796875l-1.40625 -0.96875q1.640625 -2.75 1.484375 -7.28125l1.640625 0.21875q0.21875 0.234375 -0.15625 0.453125q0 0.890625 -0.078125 1.859375q0.296875 0.8125 1.421875 1.921875l0 -5.5625l-3.796875 0l0 -1.40625l3.796875 0l0 -2.453125l-3.046875 0l0 -1.40625l3.046875 0l0 -2.375l1.40625 0q0.59375 0.0625 0.078125 0.4375l0 1.9375l2.890625 0l0 1.40625l-2.890625 0l0 2.453125l3.40625 0l0 1.40625l-3.40625 0l0 2.453125l2.671875 0l0 1.40625l-2.671875 0l0 2.75q1.484375 0.8125 3.5625 0.8125l8.15625 0l-0.515625 1.40625zm-0.671875 -15.28125l0 6.96875l-1.484375 0l0 -0.734375l-3.5625 0l0 4.375q0 0.59375 0.515625 0.59375l3.125 0q0.515625 0 0.59375 -0.453125l0.21875 -1.40625l1.5625 0.296875l-0.21875 1.40625q-0.234375 1.5625 -1.78125 1.5625l-4.15625 0q-1.34375 0 -1.34375 -1.265625l0 -6.53125l5.046875 0l0 -3.40625l-5.421875 0l0 -1.40625l6.90625 0z" fill-rule="nonzero"/><path fill="#000000" d="m412.47418 143.03963q-0.21875 -0.875 -0.796875 -1.671875q1.53125 -0.21875 3.140625 -0.8125l0 -3.640625q-1.53125 0 -2.625 0.140625l0 -1.375q1.015625 0.0625 2.625 0.0625q0 -2.25 -0.078125 -3.921875l1.59375 0q-0.0625 1.375 -0.0625 3.921875q0.71875 0 1.890625 -0.0625l0 1.3125q-1.171875 -0.078125 -1.890625 -0.078125l0 3.203125q0.65625 -0.28125 1.75 -0.65625q0 0.59375 0.140625 1.3125q-0.578125 0.078125 -1.890625 0.65625l0 5.109375q-0.078125 1.15625 -0.625 1.453125q-0.546875 0.296875 -2.359375 0.578125q0 -0.71875 -0.515625 -1.75q1.390625 0.078125 1.71875 0.046875q0.328125 -0.046875 0.328125 -0.703125l0 -4.21875q-0.734375 0.28125 -2.34375 1.09375zm6.5625 5.75q-0.4375 -0.4375 -1.671875 -0.875q0.9375 -1.015625 1.40625 -2.140625q0.484375 -1.140625 0.734375 -2.296875q0.265625 -1.171875 0.296875 -3.5q0.03125 -2.328125 -0.109375 -5.46875l6.40625 0q1.53125 0 2.84375 -0.078125l0 1.390625q-1.3125 -0.078125 -2.84375 -0.078125l-4.875 0q0 6.484375 -0.21875 7.625q-0.21875 1.125 -0.625 2.515625q-0.390625 1.375 -1.34375 2.90625zm5.25 -17.125q0.9375 1.53125 1.375 2.109375q-0.859375 0.375 -1.515625 0.65625q-0.375 -0.796875 -1.3125 -2.109375q0.71875 -0.28125 1.453125 -0.65625z" fill-rule="nonzero"/><path fill="#000000" d="m443.70856 142.44588q-2.75 -1.40625 -4.75 -3.78125q-1.484375 2.140625 -3.859375 3.78125l8.609375 0zm-4.015625 -4.90625q3.640625 3.71875 8.171875 4.75l-0.453125 1.71875q-2.296875 -0.671875 -3.328125 -1.34375l0 5.640625l-1.484375 0l0 -0.4375l-6.90625 0l0 0.734375l-1.484375 0l0 -5.5625q-1.484375 1.03125 -2.828125 1.40625l-0.65625 -1.5625q5.78125 -2.21875 7.78125 -6.453125l1.5625 0.515625q0.296875 0.296875 -0.21875 0.375l-0.15625 0.21875zm-7.9375 1.046875q2.15625 -0.75 4.234375 -3.046875l1.109375 1.046875q0.453125 0.359375 -0.296875 0.359375q-2.375 2.3125 -4.234375 3.046875l-0.8125 -1.40625zm10.84375 7.859375l0 -2.59375l-6.90625 0l0 2.59375l6.90625 0zm-0.296875 -10.53125q1.703125 1.328125 4.515625 2.453125l-0.65625 1.484375q-2.609375 -0.96875 -4.75 -2.828125l0.890625 -1.109375zm3.109375 -1.109375l-12.609375 0l0 2.140625l-1.484375 0l0 -3.5625l6.890625 0l0 -1.84375l1.640625 0q0.59375 0.0625 0.078125 0.4375l0 1.40625l6.96875 0l0 3.421875l-1.484375 0l0 -2.0z" fill-rule="nonzero"/><path fill="#000000" d="m464.34918 136.99275q0.796875 0 1.8125 -0.078125l0 1.234375q-1.015625 -0.0625 -2.84375 -0.0625l-0.5 2.03125l2.90625 0q-0.0625 1.390625 -0.0625 2.546875l0 3.71875q0 1.03125 0.0625 2.5625l-1.3125 0l0 -1.390625l-3.265625 0l0 1.390625l-1.3125 0q0.0625 -1.46875 0.0625 -2.5625l0 -3.71875q0 -1.15625 -0.0625 -2.546875l1.671875 0q0.296875 -0.796875 0.515625 -2.03125q-1.390625 0 -2.40625 0.0625l0 -1.234375q1.015625 0.078125 2.1875 0.078125l2.546875 0zm-10.359375 -4.59375q-0.640625 0.71875 -1.453125 2.328125q-0.796875 1.609375 -1.59375 2.984375q0.9375 0 1.96875 -0.0625q0.359375 -0.875 0.640625 -1.96875q0.734375 0.4375 1.609375 0.796875q-0.65625 0.796875 -1.390625 2.15625q-0.71875 1.34375 -2.109375 3.59375q1.609375 -0.0625 3.203125 -0.28125q-0.140625 0.65625 -0.0625 1.234375q-0.734375 0.078125 -2.125 0.15625q-1.375 0.0625 -2.609375 0.5q-0.078125 -0.734375 -0.515625 -1.3125q1.015625 -0.4375 1.5625 -1.34375q0.546875 -0.90625 1.359375 -2.4375q-1.828125 0.0625 -2.703125 0.4375q-0.296875 -0.8125 -0.515625 -1.3125q0.515625 -0.15625 0.984375 -0.921875q0.484375 -0.765625 1.25 -2.40625q0.765625 -1.640625 0.90625 -2.796875q0.796875 0.4375 1.59375 0.65625zm5.625 3.78125q-0.65625 0.59375 -0.921875 1.0625q-0.25 0.46875 -0.6875 1.203125l0 10.5l-1.390625 0q0.078125 -1.25 0.078125 -2.265625l0 -6.40625q-0.4375 0.578125 -0.953125 1.453125q-0.578125 -0.515625 -1.234375 -0.796875q1.3125 -1.25 2.21875 -2.703125q0.921875 -1.453125 1.359375 -2.703125q0.65625 0.4375 1.53125 0.65625zm1.8125 -4.578125q0.21875 0.5 0.59375 2.03125l4.515625 0q-0.078125 0.734375 -0.078125 1.3125q0 0.578125 0.078125 1.234375l-1.390625 0l0 -1.375l-8.015625 0l0 2.109375l-1.390625 0q0.078125 -0.953125 0.078125 -1.75q0 -0.796875 -0.078125 -1.53125l4.671875 0q-0.140625 -0.875 -0.515625 -1.671875q0.65625 -0.21875 1.53125 -0.359375zm-6.265625 13.546875q0 0.734375 0.078125 1.390625q-1.46875 0.21875 -2.890625 0.5q-1.40625 0.296875 -2.5 0.65625q-0.078125 -0.796875 -0.515625 -1.8125q1.453125 0 2.625 -0.140625q1.171875 -0.15625 3.203125 -0.59375zm9.25 -1.890625l0 -2.046875l-3.265625 0l0 2.046875l3.265625 0zm0 3.203125l0 -2.046875l-3.265625 0l0 2.046875l3.265625 0z" fill-rule="nonzero"/><path fill="#000000" d="m473.4273 136.72713l-1.484375 0l0 3.484375l1.328125 -0.4375l0.296875 1.265625l-1.625 0.59375l0 5.78125q0 1.265625 -1.1875 1.265625l-1.1875 0l-0.296875 -1.40625l0.953125 0q0.234375 0 0.234375 -0.21875l0 -4.984375l-1.34375 0.375q-0.078125 0.515625 -0.375 0.21875l-0.296875 -1.703125l2.015625 -0.453125l0 -3.78125l-1.78125 0l0 -1.40625l1.78125 0l0 -3.78125l1.40625 0q0.59375 0.0625 0.078125 0.4375l0 3.34375l1.484375 0l0 1.40625zm9.421875 -5.046875l0 4.015625l-7.34375 0l0 -4.015625l7.34375 0zm-1.265625 1.1875l-4.828125 0l0 1.640625l4.828125 0l0 -1.640625zm-2.890625 3.78125l0 4.09375l-4.671875 0l0 -4.09375l4.671875 0zm-1.265625 1.1875l-2.15625 0l0 1.71875l2.15625 0l0 -1.71875zm5.71875 0l-2.234375 0l0 1.71875l2.234375 0l0 -1.71875zm1.265625 -1.1875l0 4.09375l-4.75 0l0 -4.09375l4.75 0zm-6.015625 5.578125l0 -1.046875l1.40625 0q0.59375 0.078125 0.078125 0.453125l0 0.59375l5.1875 0l0 1.1875l-4.96875 0q2.453125 2.078125 5.34375 3.03125l-0.671875 1.421875q-2.890625 -1.265625 -4.890625 -3.34375l0 4.15625l-1.484375 0l0 -3.859375q-1.9375 2.234375 -5.046875 3.265625l-0.515625 -1.34375q3.859375 -1.40625 5.1875 -3.328125l-4.671875 0l0 -1.1875l5.046875 0zm25.53125 -7.421875l0 1.40625l-5.34375 0l0 2.75l4.671875 0l0 1.40625l-4.671875 0l0 2.453125l4.96875 0l0 1.40625l-4.96875 0l0 4.15625l-1.484375 0l0 -12.171875l-0.75 0q-1.1875 2.515625 -2.515625 3.859375l-1.40625 -1.046875q2.96875 -3.109375 3.703125 -7.34375l1.5625 0.453125q0.4375 0.21875 -0.078125 0.359375q-0.140625 0.75 -0.734375 2.3125l7.046875 0zm-16.625 5.1875q3.265625 -3.78125 4.296875 -8.15625l1.640625 0.515625q0.4375 0.296875 -0.078125 0.375q-0.515625 1.703125 -1.484375 3.703125l0.453125 0.15625q0.296875 0.296875 -0.234375 0.359375l0 11.4375l-1.484375 0l0 -9.65625q-0.8125 1.34375 -1.921875 2.53125l-1.1875 -1.265625z" fill-rule="nonzero"/><path fill="#000000" fill-opacity="0.0" d="m409.34653 262.07217l275.49606 0l0 42.015747l-275.49606 0z" fill-rule="evenodd"/><path fill="#000000" d="m424.37778 288.9922l0 -3.203125l-5.796875 0l0 -1.5l6.09375 -8.65625l1.34375 0l0 8.65625l1.796875 0l0 1.5l-1.796875 0l0 3.203125l-1.640625 0zm0 -4.703125l0 -6.015625l-4.1875 6.015625l4.1875 0zm6.0319824 4.703125l0 -1.875l1.875 0l0 1.875l-1.875 0z" fill-rule="nonzero"/><path fill="#000000" d="m451.2493 288.41406q0.078125 1.453125 -0.734375 1.84375q-0.796875 0.40625 -2.328125 0.625q-0.21875 -0.875 -0.578125 -1.75q1.453125 0.078125 1.84375 -0.140625q0.40625 -0.21875 0.484375 -0.875l0 -12.3125l-7.0625 0l0 6.5625q0 3.046875 -0.515625 4.84375q-0.515625 1.78125 -1.828125 3.671875q-0.4375 -0.578125 -1.3125 -1.015625q0.953125 -1.09375 1.421875 -2.140625q0.484375 -1.0625 0.703125 -2.265625q0.21875 -1.203125 0.21875 -5.0q0 -3.859375 -0.078125 -5.75l9.84375 0q-0.078125 1.09375 -0.078125 2.90625l0 10.796875zm-2.40625 -4.734375q-0.078125 1.015625 -0.078125 1.890625q0 0.875 0.078125 2.1875l-4.953125 0q0.078125 -1.3125 0.078125 -2.1875q0 -0.875 -0.078125 -1.890625l4.953125 0zm-8.75 0.640625q0.296875 0.65625 0.8125 1.171875q-0.953125 0.953125 -1.546875 1.609375q-0.578125 0.65625 -1.59375 1.75q-0.5 -0.59375 -0.9375 -1.03125q0.5 -0.578125 0.5 -1.234375l0 -5.828125l-0.65625 0q-0.5 0 -1.890625 0.078125l0 -1.3125q1.390625 0.0625 1.890625 0.0625l2.046875 0q-0.078125 1.3125 -0.078125 2.921875l0 3.421875q0.359375 -0.296875 1.453125 -1.609375zm5.625 -6.046875q0 -0.875 -0.078125 -1.8125l1.390625 0q-0.078125 0.875 -0.078125 1.8125q0.796875 0 1.890625 -0.0625l0 1.234375q-1.09375 -0.078125 -1.890625 -0.078125l0 1.828125q1.3125 0 2.1875 -0.078125l0 1.3125q-1.171875 -0.0625 -2.703125 -0.0625q-1.53125 0 -2.765625 0.0625l0 -1.3125q1.234375 0.078125 2.046875 0.078125l0 -1.828125q-0.953125 0 -1.96875 0.078125l0 -1.234375q1.09375 0.0625 1.96875 0.0625zm1.8125 8.453125l0 -2.03125l-2.328125 0l0 2.03125l2.328125 0zm-9.984375 -12.375q0.8125 0.9375 2.109375 2.6875q-0.65625 0.359375 -1.15625 0.953125q-1.453125 -2.1875 -2.046875 -2.78125q0.59375 -0.359375 1.09375 -0.859375z" fill-rule="nonzero"/><path fill="#000000" d="m464.73367 277.03906q0.515625 1.5625 1.5625 2.75q0.734375 -0.890625 1.1875 -2.75l-2.75 0zm0.453125 -1.1875l4.890625 0l0 1.1875l-1.265625 0q-0.359375 2.296875 -1.40625 3.640625q1.046875 0.890625 3.265625 1.328125l-0.4375 1.484375q-2.375 -0.65625 -3.796875 -1.84375q-1.78125 1.328125 -4.21875 1.921875l-0.59375 -1.328125q2.375 -0.59375 3.703125 -1.5625q-1.03125 -1.484375 -1.484375 -2.75q-0.375 0.890625 -1.109375 1.703125l-0.75 -1.03125q1.78125 -2.0 2.375 -5.046875l1.484375 0.4375q0.296875 0.296875 -0.21875 0.375l-0.4375 1.484375zm-3.9375 6.609375q-1.5625 -1.046875 -2.078125 -1.265625l0 2.296875l-1.265625 0l0 -2.296875q-1.265625 1.34375 -3.5625 2.375l-0.671875 -1.40625q2.234375 -0.8125 3.9375 -2.15625l-2.59375 0l0 -3.1875l2.890625 0l0 -0.890625l-3.859375 0l0 -1.1875l3.859375 0l0 -1.1875l1.1875 0q0.59375 0.078125 0.078125 0.4375l0 0.75l3.703125 0l0 1.1875l-3.703125 0l0 0.890625l2.75 0l0 3.1875l-2.75 0q1.328125 0.375 2.8125 1.265625l-0.734375 1.1875zm-3.34375 -3.34375l0 -1.40625l-1.859375 0l0 1.40625l1.859375 0zm2.96875 0l0 -1.40625l-1.703125 0l0 1.40625l1.703125 0zm2.078125 7.34375l4.671875 0l0 1.1875l-4.671875 0l0 1.421875l7.046875 0l0 1.1875l-16.03125 0l0 -1.1875l3.34375 0l0 -2.96875l1.1875 0q0.59375 0.0625 0.078125 0.4375l0 2.53125l3.109375 0l0 -3.796875l-6.671875 0l0 -1.1875l14.03125 0l0 1.1875l-6.09375 0l0 1.1875zm23.609375 -5.484375l-4.6875 0.375l0 2.375l5.578125 0l0 1.40625l-5.578125 0l0 3.109375l7.421875 0l0 1.421875l-16.390625 0l0 -1.421875l7.484375 0l0 -3.109375l-5.5625 0l0 -1.40625l5.5625 0l0 -2.3125l-5.9375 0.296875q-0.296875 0.59375 -0.515625 0.078125l-0.375 -1.625l2.828125 0l2.15625 -4.015625l-5.046875 0l0 -1.40625l15.0625 0l0 1.40625l-8.015625 0l-2.671875 4.015625l7.34375 -0.296875q-1.5625 -1.265625 -2.890625 -2.15625l1.03125 -1.046875q2.90625 1.78125 5.34375 4.015625l-1.1875 1.1875l-0.953125 -0.890625zm19.0625 9.28125l-1.484375 0l0 -0.890625l-8.375 0l0 1.1875l-1.484375 0l0 -15.96875l11.34375 0l0 15.671875zm-1.484375 -11.359375l0 -2.890625l-8.375 0l0 2.890625l8.375 0zm0 4.375l0 -2.96875l-8.375 0l0 2.96875l8.375 0zm0 4.671875l0 -3.265625l-8.375 0l0 3.265625l8.375 0z" fill-rule="nonzero"/><path fill="#000000" d="m513.2806 276.16406q0 -1.171875 -0.078125 -2.25l1.453125 0q-0.0625 1.015625 -0.0625 2.25l0 1.75q1.15625 0 2.46875 -0.078125l0 1.390625q-1.3125 -0.078125 -2.46875 -0.078125l0 2.484375q0.5 -0.359375 1.015625 -0.796875q0.953125 1.53125 1.671875 2.984375q-0.796875 0.359375 -1.375 0.796875q-0.4375 -1.453125 -1.3125 -2.6875l0 5.671875q0 1.53125 0.0625 3.0625l-1.453125 0q0.078125 -1.59375 0.078125 -3.0625l0 -4.734375q-0.734375 2.046875 -2.2656555 3.9375q-0.4375 -0.578125 -1.09375 -1.09375q1.25 -1.234375 2.015625 -3.09375q0.7656555 -1.859375 0.9844055 -3.46875q-1.3906555 0 -2.4062805 0.15625l0 -1.46875q1.375 0.078125 2.7656555 0.078125l0 -1.75zm11.359375 3.71875q1.46875 0 2.5625 -0.078125l0 1.390625q-1.09375 -0.078125 -2.265625 -0.078125l-2.25 0l0 7.359375q0 1.171875 -0.65625 1.53125q-0.65625 0.375 -2.34375 0.59375q-0.140625 -0.875 -0.578125 -1.6875q1.453125 0 1.8125 -0.109375q0.375 -0.109375 0.375 -0.828125l0 -6.859375l-1.828125 0q-1.8125 0 -2.625 0.15625l0 -1.46875q0.953125 0.078125 2.625 0.078125l5.171875 0zm-0.796875 -4.8125q1.53125 0 2.484375 -0.078125l0 1.46875q-1.390625 -0.15625 -2.921875 -0.15625l-3.5625 0q-1.171875 0 -2.265625 0.15625l0 -1.46875q1.015625 0.078125 2.265625 0.078125l4.0 0zm1.09375 8.015625q1.609375 2.484375 2.703125 4.453125q-0.8125 0.359375 -1.609375 0.875q-0.796875 -2.125 -2.40625 -4.453125q0.734375 -0.359375 1.3125 -0.875zm-4.875 0.734375q-0.296875 0.4375 -1.109375 2.328125q-0.796875 1.890625 -1.234375 2.703125q-0.65625 -0.375 -1.453125 -0.65625q0.953125 -1.46875 1.421875 -2.671875q0.46875 -1.203125 0.765625 -2.359375q0.796875 0.359375 1.609375 0.65625z" fill-rule="nonzero"/><path fill="#000000" d="m542.4681 290.39844l-0.21875 -1.40625l1.40625 0q0.296875 0 0.296875 -0.296875l0 -14.765625l1.40625 0q0.59375 0.0625 0.078125 0.4375l0 14.84375q0 1.1875 -1.1875 1.1875l-1.78125 0zm-1.78125 -3.703125l0 -10.921875l1.40625 0q0.59375 0.078125 0.078125 0.453125l0 10.46875l-1.484375 0zm-1.109375 -10.84375l-10.3125 0l0 -1.40625l10.3125 0l0 1.40625zm-1.703125 5.265625l-7.0625 0l0 -4.15625l7.0625 0l0 4.15625zm-1.265625 -2.96875l-4.53125 0l0 1.78125l4.53125 0l0 -1.78125zm0.96875 12.1875l0 -0.59375l-6.390625 0l0 0.890625l-1.265625 0l0 -8.328125l8.90625 0l0 8.03125l-1.25 0zm0 -3.875l-2.53125 0l0 2.078125l2.53125 0l0 -2.078125zm0 -1.1875l0 -1.78125l-2.53125 0l0 1.78125l2.53125 0zm-3.796875 3.265625l0 -2.078125l-2.59375 0l0 2.078125l2.59375 0zm0 -3.265625l0 -1.78125l-2.59375 0l0 1.78125l2.59375 0zm30.65625 2.453125q-4.53125 -2.8125 -7.046875 -7.203125l0 4.6875l3.046875 0l0 1.40625l-3.046875 0l0 4.015625l-1.484375 0l0 -4.015625l-2.890625 0l0 -1.40625l2.890625 0l0 -4.6875q-2.15625 4.75 -6.984375 7.578125l-0.8125 -1.5625q5.046875 -2.75 7.203125 -8.015625l-6.453125 0l0 -1.40625l7.046875 0l0 -3.34375l1.40625 0q0.59375 0.078125 0.078125 0.453125l0 2.890625l7.125 0l0 1.40625l-6.609375 0q2.53125 4.53125 7.34375 7.5l-0.8125 1.703125zm15.59375 -2.8125q1.03125 -2.015625 1.25 -6.09375l-2.515625 0q0.21875 4.078125 1.265625 6.09375zm2.734375 -6.09375q-0.140625 4.609375 -1.78125 7.421875q1.1875 1.484375 3.34375 2.59375l-0.96875 1.640625q-2.375 -1.5625 -3.328125 -2.96875q-1.71875 1.9375 -5.28125 3.34375l-0.734375 -1.484375q3.859375 -1.5625 5.125 -3.203125q-1.265625 -2.4375 -1.421875 -4.890625q-0.4375 1.109375 -0.890625 1.703125l-1.25 -0.96875q2.21875 -3.265625 2.671875 -8.078125l1.546875 0.359375q0.453125 0.296875 -0.21875 0.453125q-0.21875 1.328125 -0.59375 2.671875l5.046875 0l0 1.40625l-1.265625 0zm-6.890625 -3.5625q-0.453125 1.109375 -1.046875 1.859375l-1.1875 -0.671875q0.59375 -0.96875 1.109375 -2.21875l1.34375 0.65625q0.296875 0.296875 -0.21875 0.375zm-4.75 10.46875q1.03125 0.296875 1.84375 0.671875q0.59375 -0.671875 0.96875 -2.015625l-2.15625 0q-0.296875 0.671875 -0.65625 1.34375zm-1.046875 1.859375l-1.1875 -0.671875q0.75 -1.109375 1.484375 -2.53125l-2.8125 0l0 -1.1875l3.265625 0q0.4375 -0.953125 0.65625 -1.625l1.421875 0.375q0.296875 0.296875 -0.234375 0.359375l-0.4375 0.890625l4.234375 0l0 1.1875l-1.125 0q-0.359375 1.484375 -1.109375 2.53125q0.671875 0.296875 1.40625 0.734375l-0.65625 1.1875q-0.828125 -0.515625 -1.484375 -0.8125q-1.9375 1.9375 -5.203125 2.375l-0.515625 -1.328125q2.890625 -0.296875 4.453125 -1.640625q-0.8125 -0.375 -1.640625 -0.671875l-0.515625 0.828125zm1.484375 -13.953125l1.1875 0q0.59375 0.0625 0.078125 0.4375l0 3.1875l3.78125 0l0 1.1875l-3.109375 0q0.8125 0.96875 2.515625 1.859375l-0.8125 1.265625q-1.265625 -0.75 -2.375 -2.078125l0 1.78125l-1.265625 0l0 -1.40625q-1.1875 1.484375 -3.265625 2.671875l-0.96875 -1.1875q2.3125 -1.1875 3.796875 -2.90625l-3.421875 0l0 -1.1875l3.859375 0l0 -3.625zm-2.078125 3.40625q-0.515625 -1.109375 -1.328125 -1.921875l1.1875 -0.75q0.890625 0.890625 1.328125 1.859375l-1.1875 0.8125z" fill-rule="nonzero"/><path fill="#000000" fill-opacity="0.0" d="m345.02362 270.46194c0 21.019104 40.299225 31.530334 80.59842 42.038208c40.299225 10.507874 80.59842 21.01239 80.59842 42.02478" fill-rule="evenodd"/><path stroke="#000000" stroke-width="1.0" stroke-linejoin="round" stroke-linecap="butt" d="m345.02362 270.46194c0 21.019104 40.299225 31.530334 80.59842 42.038208c20.149628 5.253937 40.299225 10.50705 55.411438 17.073212c7.5560913 3.283081 13.852844 6.894409 18.26056 10.9982605c2.2038574 2.051941 3.9354553 4.226959 5.1161194 6.5457153c0.59033203 1.1593018 1.0428772 2.3546143 1.3478699 3.5883179l0.0953064 0.41192627" fill-rule="evenodd"/><path fill="#000000" stroke="#000000" stroke-width="1.0" stroke-linecap="butt" d="m505.85333 351.11758l-1.2385864 -0.99765015l1.4491272 2.9515076l0.78707886 -3.1924438z" fill-rule="evenodd"/><path fill="#000000" fill-opacity="0.0" d="m455.58792 375.54593l-36.188965 0.85040283" fill-rule="evenodd"/><path stroke="#000000" stroke-width="1.0" stroke-linejoin="round" stroke-linecap="butt" d="m455.58792 375.54593l-30.190613 0.70944214" fill-rule="evenodd"/><path fill="#000000" stroke="#000000" stroke-width="1.0" stroke-linecap="butt" d="m425.3585 374.6041l-4.498047 1.7578735l4.575653 1.5446777z" fill-rule="evenodd"/></g></svg>