<svg version="1.1" viewBox="0.0 0.0 442.8897637795276 510.70603674540683" fill="none" stroke="none" stroke-linecap="square" stroke-miterlimit="10" xmlns:xlink="http://www.w3.org/1999/xlink" xmlns="http://www.w3.org/2000/svg"><clipPath id="p.0"><path d="m0 0l442.88977 0l0 510.70602l-442.88977 0l0 -510.70602z" clip-rule="nonzero"/></clipPath><g clip-path="url(#p.0)"><path fill="#000000" fill-opacity="0.0" d="m0 0l442.88977 0l0 510.70602l-442.88977 0z" fill-rule="evenodd"/><path fill="#ffffff" d="m7.1889763 72.080185l0 0c0 -39.80879 32.271397 -72.080185 72.080185 -72.080185l288.31207 0l0 0c19.116852 0 37.450714 7.59414 50.968384 21.111797c13.51767 13.517654 21.111786 31.851532 21.111786 50.968388l0 360.1861c0 39.808807 -32.271393 72.0802 -72.08017 72.0802l-288.31207 0c-39.808784 0 -72.080185 -32.271393 -72.080185 -72.0802z" fill-rule="evenodd"/><path stroke="#d9d9d9" stroke-width="1.0" stroke-linejoin="round" stroke-linecap="butt" d="m7.1889763 72.080185l0 0c0 -39.80879 32.271397 -72.080185 72.080185 -72.080185l288.31207 0l0 0c19.116852 0 37.450714 7.59414 50.968384 21.111797c13.51767 13.517654 21.111786 31.851532 21.111786 50.968388l0 360.1861c0 39.808807 -32.271393 72.0802 -72.08017 72.0802l-288.31207 0c-39.808784 0 -72.080185 -32.271393 -72.080185 -72.0802z" fill-rule="evenodd"/><path fill="#6aa84f" d="m52.307087 331.84778l343.02362 0l0 71.90552l-343.02362 0z" fill-rule="evenodd"/><path fill="#000000" d="m160.87889 363.72052l0 -13.359375l1.78125 0l0 6.625l6.625 -6.625l2.390625 0l-5.59375 5.421875l5.84375 7.9375l-2.328125 0l-4.765625 -6.765625l-2.171875 2.140625l0 4.625l-1.78125 0zm18.646698 0l0 -1.421875q-1.125 1.640625 -3.0625 1.640625q-0.859375 0 -1.609375 -0.328125q-0.734375 -0.328125 -1.09375 -0.828125q-0.359375 -0.5 -0.5 -1.21875q-0.109375 -0.46875 -0.109375 -1.53125l0 -5.984375l1.640625 0l0 5.359375q0 1.28125 0.109375 1.734375q0.15625 0.640625 0.65625 1.015625q0.5 0.375 1.234375 0.375q0.734375 0 1.375 -0.375q0.65625 -0.390625 0.921875 -1.03125q0.265625 -0.65625 0.265625 -1.890625l0 -5.1875l1.640625 0l0 9.671875l-1.46875 0zm5.547577 0l-1.515625 0l0 -13.359375l1.640625 0l0 4.765625q1.046875 -1.296875 2.65625 -1.296875q0.890625 0 1.6875 0.359375q0.796875 0.359375 1.3125 1.015625q0.515625 0.640625 0.796875 1.5625q0.296875 0.921875 0.296875 1.96875q0 2.484375 -1.234375 3.84375q-1.21875 1.359375 -2.953125 1.359375q-1.703125 0 -2.6875 -1.4375l0 1.21875zm-0.015625 -4.90625q0 1.734375 0.484375 2.515625q0.765625 1.265625 2.09375 1.265625q1.078125 0 1.859375 -0.9375q0.78125 -0.9375 0.78125 -2.78125q0 -1.890625 -0.75 -2.796875q-0.75 -0.90625 -1.828125 -0.90625q-1.0625 0 -1.859375 0.9375q-0.78125 0.9375 -0.78125 2.703125zm15.516357 1.796875l1.6875 0.203125q-0.40625 1.484375 -1.484375 2.3125q-1.078125 0.8125 -2.765625 0.8125q-2.125 0 -3.375 -1.296875q-1.234375 -1.3125 -1.234375 -3.671875q0 -2.453125 1.25 -3.796875q1.265625 -1.34375 3.265625 -1.34375q1.9375 0 3.15625 1.328125q1.234375 1.3125 1.234375 3.703125q0 0.15625 0 0.4375l-7.21875 0q0.09375 1.59375 0.90625 2.453125q0.8125 0.84375 2.015625 0.84375q0.90625 0 1.546875 -0.46875q0.640625 -0.484375 1.015625 -1.515625zm-5.390625 -2.65625l5.40625 0q-0.109375 -1.21875 -0.625 -1.828125q-0.78125 -0.953125 -2.03125 -0.953125q-1.125 0 -1.90625 0.765625q-0.765625 0.75 -0.84375 2.015625zm14.559021 5.765625l0 -13.359375l5.921875 0q1.78125 0 2.703125 0.359375q0.9375 0.359375 1.484375 1.28125q0.5625 0.90625 0.5625 2.015625q0 1.40625 -0.921875 2.390625q-0.921875 0.96875 -2.84375 1.234375q0.703125 0.34375 1.078125 0.671875q0.765625 0.703125 1.453125 1.765625l2.328125 3.640625l-2.21875 0l-1.765625 -2.78125q-0.78125 -1.203125 -1.28125 -1.828125q-0.5 -0.640625 -0.90625 -0.890625q-0.390625 -0.265625 -0.796875 -0.359375q-0.296875 -0.078125 -0.984375 -0.078125l-2.046875 0l0 5.9375l-1.765625 0zm1.765625 -7.453125l3.796875 0q1.21875 0 1.890625 -0.25q0.6875 -0.265625 1.046875 -0.8125q0.359375 -0.546875 0.359375 -1.1875q0 -0.953125 -0.6875 -1.5625q-0.6875 -0.609375 -2.1875 -0.609375l-4.21875 0l0 4.421875zm18.09793 4.34375l1.6875 0.203125q-0.40625 1.484375 -1.484375 2.3125q-1.078125 0.8125 -2.765625 0.8125q-2.125 0 -3.375 -1.296875q-1.234375 -1.3125 -1.234375 -3.671875q0 -2.453125 1.25 -3.796875q1.265625 -1.34375 3.265625 -1.34375q1.9375 0 3.15625 1.328125q1.234375 1.3125 1.234375 3.703125q0 0.15625 0 0.4375l-7.21875 0q0.09375 1.59375 0.90625 2.453125q0.8125 0.84375 2.015625 0.84375q0.90625 0 1.546875 -0.46875q0.640625 -0.484375 1.015625 -1.515625zm-5.390625 -2.65625l5.40625 0q-0.109375 -1.21875 -0.625 -1.828125q-0.78125 -0.953125 -2.03125 -0.953125q-1.125 0 -1.90625 0.765625q-0.765625 0.75 -0.84375 2.015625zm8.485107 2.875l1.625 -0.25q0.125 0.96875 0.75 1.5q0.625 0.515625 1.75 0.515625q1.125 0 1.671875 -0.453125q0.546875 -0.46875 0.546875 -1.09375q0 -0.546875 -0.484375 -0.875q-0.328125 -0.21875 -1.671875 -0.546875q-1.8125 -0.46875 -2.515625 -0.796875q-0.6875 -0.328125 -1.046875 -0.90625q-0.359375 -0.59375 -0.359375 -1.3125q0 -0.640625 0.296875 -1.1875q0.296875 -0.5625 0.8125 -0.921875q0.375 -0.28125 1.03125 -0.46875q0.671875 -0.203125 1.421875 -0.203125q1.140625 0 2.0 0.328125q0.859375 0.328125 1.265625 0.890625q0.421875 0.5625 0.578125 1.5l-1.609375 0.21875q-0.109375 -0.75 -0.640625 -1.171875q-0.515625 -0.421875 -1.46875 -0.421875q-1.140625 0 -1.625 0.375q-0.46875 0.375 -0.46875 0.875q0 0.3125 0.1875 0.578125q0.203125 0.265625 0.640625 0.4375q0.234375 0.09375 1.4375 0.421875q1.75 0.453125 2.4375 0.75q0.6875 0.296875 1.078125 0.859375q0.390625 0.5625 0.390625 1.40625q0 0.828125 -0.484375 1.546875q-0.46875 0.71875 -1.375 1.125q-0.90625 0.390625 -2.046875 0.390625q-1.875 0 -2.875 -0.78125q-0.984375 -0.78125 -1.25 -2.328125zm16.609375 -0.21875l1.6875 0.203125q-0.40625 1.484375 -1.484375 2.3125q-1.078125 0.8125 -2.765625 0.8125q-2.125 0 -3.375 -1.296875q-1.234375 -1.3125 -1.234375 -3.671875q0 -2.453125 1.25 -3.796875q1.265625 -1.34375 3.265625 -1.34375q1.9375 0 3.15625 1.328125q1.234375 1.3125 1.234375 3.703125q0 0.15625 0 0.4375l-7.21875 0q0.09375 1.59375 0.90625 2.453125q0.8125 0.84375 2.015625 0.84375q0.90625 0 1.546875 -0.46875q0.640625 -0.484375 1.015625 -1.515625zm-5.390625 -2.65625l5.40625 0q-0.109375 -1.21875 -0.625 -1.828125q-0.78125 -0.953125 -2.03125 -0.953125q-1.125 0 -1.90625 0.765625q-0.765625 0.75 -0.84375 2.015625zm9.125702 5.765625l0 -9.671875l1.46875 0l0 1.46875q0.5625 -1.03125 1.03125 -1.359375q0.48439026 -0.328125 1.0625153 -0.328125q0.828125 0 1.6875 0.53125l-0.5625 1.515625q-0.609375 -0.359375 -1.203125 -0.359375q-0.54689026 0 -0.96876526 0.328125q-0.421875 0.328125 -0.609375 0.890625q-0.28125 0.875 -0.28125 1.921875l0 5.0625l-1.625 0zm8.915817 0l-3.6875 -9.671875l1.734375 0l2.078125 5.796875q0.328125 0.9375 0.625 1.9375q0.203125 -0.765625 0.609375 -1.828125l2.140625 -5.90625l1.6875 0l-3.65625 9.671875l-1.53125 0zm13.265625 -3.109375l1.6875 0.203125q-0.40625 1.484375 -1.484375 2.3125q-1.078125 0.8125 -2.765625 0.8125q-2.125 0 -3.375 -1.296875q-1.234375 -1.3125 -1.234375 -3.671875q0 -2.453125 1.25 -3.796875q1.265625 -1.34375 3.265625 -1.34375q1.9375 0 3.15625 1.328125q1.234375 1.3125 1.234375 3.703125q0 0.15625 0 0.4375l-7.21875 0q0.09375 1.59375 0.90625 2.453125q0.8125 0.84375 2.015625 0.84375q0.90625 0 1.546875 -0.46875q0.640625 -0.484375 1.015625 -1.515625zm-5.390625 -2.65625l5.40625 0q-0.109375 -1.21875 -0.625 -1.828125q-0.78125 -0.953125 -2.03125 -0.953125q-1.125 0 -1.90625 0.765625q-0.765625 0.75 -0.84375 2.015625zm15.406982 5.765625l0 -1.21875q-0.90625 1.4375 -2.703125 1.4375q-1.15625 0 -2.125 -0.640625q-0.96875 -0.640625 -1.5 -1.78125q-0.53125 -1.140625 -0.53125 -2.625q0 -1.453125 0.484375 -2.625q0.484375 -1.1875 1.4375 -1.8125q0.96875 -0.625 2.171875 -0.625q0.875 0 1.546875 0.375q0.6875 0.359375 1.109375 0.953125l0 -4.796875l1.640625 0l0 13.359375l-1.53125 0zm-5.171875 -4.828125q0 1.859375 0.78125 2.78125q0.78125 0.921875 1.84375 0.921875q1.078125 0 1.828125 -0.875q0.75 -0.890625 0.75 -2.6875q0 -1.984375 -0.765625 -2.90625q-0.765625 -0.9375 -1.890625 -0.9375q-1.078125 0 -1.8125 0.890625q-0.734375 0.890625 -0.734375 2.8125z" fill-rule="nonzero"/><path fill="#000000" d="m118.39125 385.72052l0 -13.359375l1.78125 0l0 6.625l6.625 -6.625l2.390625 0l-5.59375 5.421875l5.84375 7.9375l-2.328125 0l-4.765625 -6.765625l-2.171875 2.140625l0 4.625l-1.78125 0zm18.646698 0l0 -1.421875q-1.125 1.640625 -3.0625 1.640625q-0.859375 0 -1.609375 -0.328125q-0.734375 -0.328125 -1.09375 -0.828125q-0.359375 -0.5 -0.5 -1.21875q-0.109375 -0.46875 -0.109375 -1.53125l0 -5.984375l1.640625 0l0 5.359375q0 1.28125 0.109375 1.734375q0.15625 0.640625 0.65625 1.015625q0.5 0.375 1.234375 0.375q0.734375 0 1.375 -0.375q0.65625 -0.390625 0.921875 -1.03125q0.265625 -0.65625 0.265625 -1.890625l0 -5.1875l1.640625 0l0 9.671875l-1.46875 0zm5.547592 0l-1.515625 0l0 -13.359375l1.640625 0l0 4.765625q1.046875 -1.296875 2.65625 -1.296875q0.890625 0 1.6875 0.359375q0.796875 0.359375 1.3125 1.015625q0.515625 0.640625 0.796875 1.5625q0.296875 0.921875 0.296875 1.96875q0 2.484375 -1.234375 3.84375q-1.21875 1.359375 -2.953125 1.359375q-1.703125 0 -2.6875 -1.4375l0 1.21875zm-0.015625 -4.90625q0 1.734375 0.484375 2.515625q0.765625 1.265625 2.09375 1.265625q1.078125 0 1.859375 -0.9375q0.78125 -0.9375 0.78125 -2.78125q0 -1.890625 -0.75 -2.796875q-0.75 -0.90625 -1.828125 -0.90625q-1.0625 0 -1.859375 0.9375q-0.78125 0.9375 -0.78125 2.703125zm15.516342 1.796875l1.6875 0.203125q-0.40625 1.484375 -1.484375 2.3125q-1.078125 0.8125 -2.765625 0.8125q-2.125 0 -3.375 -1.296875q-1.234375 -1.3125 -1.234375 -3.671875q0 -2.453125 1.25 -3.796875q1.265625 -1.34375 3.265625 -1.34375q1.9375 0 3.15625 1.328125q1.234375 1.3125 1.234375 3.703125q0 0.15625 0 0.4375l-7.21875 0q0.09375 1.59375 0.90625 2.453125q0.8125 0.84375 2.015625 0.84375q0.90625 0 1.546875 -0.46875q0.640625 -0.484375 1.015625 -1.515625zm-5.390625 -2.65625l5.40625 0q-0.109375 -1.21875 -0.625 -1.828125q-0.78125 -0.953125 -2.03125 -0.953125q-1.125 0 -1.90625 0.765625q-0.765625 0.75 -0.84375 2.015625zm9.125717 5.765625l0 -9.671875l1.46875 0l0 1.46875q0.5625 -1.03125 1.03125 -1.359375q0.484375 -0.328125 1.0625 -0.328125q0.828125 0 1.6875 0.53125l-0.5625 1.515625q-0.609375 -0.359375 -1.203125 -0.359375q-0.546875 0 -0.96875 0.328125q-0.421875 0.328125 -0.609375 0.890625q-0.28125 0.875 -0.28125 1.921875l0 5.0625l-1.625 0zm6.228302 0l0 -9.671875l1.46875 0l0 1.375q1.0625 -1.59375 3.078125 -1.59375q0.875 0 1.609375 0.3125q0.734375 0.3125 1.09375 0.828125q0.375 0.5 0.515625 1.203125q0.09375 0.453125 0.09375 1.59375l0 5.953125l-1.640625 0l0 -5.890625q0 -1.0 -0.203125 -1.484375q-0.1875 -0.5 -0.671875 -0.796875q-0.484375 -0.296875 -1.140625 -0.296875q-1.046875 0 -1.8125 0.671875q-0.75 0.65625 -0.75 2.515625l0 5.28125l-1.640625 0zm17.000717 -3.109375l1.6875 0.203125q-0.40625 1.484375 -1.484375 2.3125q-1.078125 0.8125 -2.765625 0.8125q-2.125 0 -3.375 -1.296875q-1.234375 -1.3125 -1.234375 -3.671875q0 -2.453125 1.25 -3.796875q1.265625 -1.34375 3.265625 -1.34375q1.9375 0 3.15625 1.328125q1.234375 1.3125 1.234375 3.703125q0 0.15625 0 0.4375l-7.21875 0q0.09375 1.59375 0.90625 2.453125q0.8125 0.84375 2.015625 0.84375q0.90625 0 1.546875 -0.46875q0.640625 -0.484375 1.015625 -1.515625zm-5.390625 -2.65625l5.40625 0q-0.109375 -1.21875 -0.625 -1.828125q-0.78125 -0.953125 -2.03125 -0.953125q-1.125 0 -1.90625 0.765625q-0.765625 0.75 -0.84375 2.015625zm12.719467 4.296875l0.234375 1.453125q-0.6875 0.140625 -1.234375 0.140625q-0.890625 0 -1.390625 -0.28125q-0.484375 -0.28125 -0.6875 -0.734375q-0.203125 -0.46875 -0.203125 -1.9375l0 -5.578125l-1.203125 0l0 -1.265625l1.203125 0l0 -2.390625l1.625 -0.984375l0 3.375l1.65625 0l0 1.265625l-1.65625 0l0 5.671875q0 0.6875 0.078125 0.890625q0.09375 0.203125 0.28125 0.328125q0.203125 0.109375 0.578125 0.109375q0.265625 0 0.71875 -0.0625zm8.230179 -1.640625l1.6875 0.203125q-0.40625 1.484375 -1.484375 2.3125q-1.078125 0.8125 -2.765625 0.8125q-2.125 0 -3.375 -1.296875q-1.234375 -1.3125 -1.234375 -3.671875q0 -2.453125 1.25 -3.796875q1.265625 -1.34375 3.265625 -1.34375q1.9375 0 3.15625 1.328125q1.234375 1.3125 1.234375 3.703125q0 0.15625 0 0.4375l-7.21875 0q0.09375 1.59375 0.90625 2.453125q0.8125 0.84375 2.015625 0.84375q0.90625 0 1.546875 -0.46875q0.640625 -0.484375 1.015625 -1.515625zm-5.390625 -2.65625l5.40625 0q-0.109375 -1.21875 -0.625 -1.828125q-0.78125 -0.953125 -2.03125 -0.953125q-1.125 0 -1.90625 0.765625q-0.765625 0.75 -0.84375 2.015625zm8.485092 2.875l1.625 -0.25q0.125 0.96875 0.75 1.5q0.625 0.515625 1.75 0.515625q1.125 0 1.671875 -0.453125q0.546875 -0.46875 0.546875 -1.09375q0 -0.546875 -0.484375 -0.875q-0.328125 -0.21875 -1.671875 -0.546875q-1.8125 -0.46875 -2.515625 -0.796875q-0.6875 -0.328125 -1.046875 -0.90625q-0.359375 -0.59375 -0.359375 -1.3125q0 -0.640625 0.296875 -1.1875q0.296875 -0.5625 0.8125 -0.921875q0.375 -0.28125 1.03125 -0.46875q0.671875 -0.203125 1.421875 -0.203125q1.140625 0 2.0 0.328125q0.859375 0.328125 1.265625 0.890625q0.421875 0.5625 0.578125 1.5l-1.609375 0.21875q-0.109375 -0.75 -0.640625 -1.171875q-0.515625 -0.421875 -1.46875 -0.421875q-1.140625 0 -1.625 0.375q-0.46875 0.375 -0.46875 0.875q0 0.3125 0.1875 0.578125q0.203125 0.265625 0.640625 0.4375q0.234375 0.09375 1.4375 0.421875q1.75 0.453125 2.4375 0.75q0.6875 0.296875 1.078125 0.859375q0.390625 0.5625 0.390625 1.40625q0 0.828125 -0.484375 1.546875q-0.46875 0.71875 -1.375 1.125q-0.90625 0.390625 -2.046875 0.390625q-1.875 0 -2.875 -0.78125q-0.984375 -0.78125 -1.25 -2.328125z" fill-rule="nonzero"/><path fill="#000000" d="m235.49654 386.9549q-1.09375 -0.0625 -2.625 -0.0625l-5.6875 0q-1.453125 0 -2.546875 0.0625l0 -1.375q0.9375 0.0625 1.59375 0.0625l0 -10.921875q0 -1.75 -0.140625 -2.484375l7.65625 0q-0.078125 0.65625 -0.078125 2.484375l0 10.921875q0.953125 0 1.828125 -0.0625l0 1.375zm-12.828125 -15.296875q-0.65625 0.796875 -1.28125 2.0q-0.609375 1.203125 -1.640625 3.171875q0.65625 0 2.40625 -0.078125q0.734375 -1.375 1.015625 -2.625q0.515625 0.4375 1.609375 0.875q-0.65625 0.953125 -1.5 2.34375q-0.828125 1.375 -2.28125 3.640625q2.328125 -0.296875 3.703125 -0.4375l0 1.234375q-0.9375 0.078125 -2.46875 0.296875q-1.53125 0.21875 -2.921875 0.578125q-0.0625 -0.734375 -0.5 -1.53125q0.796875 -0.28125 1.484375 -1.15625q0.703125 -0.875 1.359375 -2.1875q-0.4375 0 -1.25 0.109375q-0.796875 0.109375 -1.53125 0.46875q-0.28125 -0.875 -0.578125 -1.53125q0.65625 -0.734375 1.421875 -2.375q0.765625 -1.640625 1.28125 -3.53125q0.796875 0.4375 1.671875 0.734375zm9.609375 13.984375l0 -3.640625l-4.65625 0l0 3.640625l4.65625 0zm0 -9.03125l0 -3.203125l-4.65625 0l0 3.203125l4.65625 0zm0 4.15625l0 -2.984375l-4.65625 0l0 2.984375l4.65625 0zm-7.71875 4.4375q-1.453125 0.21875 -2.921875 0.546875q-1.453125 0.328125 -2.6875 0.84375q-0.21875 -0.65625 -0.578125 -1.609375q1.96875 -0.21875 2.65625 -0.359375q0.6875 -0.140625 3.53125 -0.65625l0 1.234375z" fill-rule="nonzero"/><path fill="#000000" d="m245.79341 372.65802q-0.078125 0.515625 -0.4375 2.078125l2.296875 0l0 -4.078125l1.40625 0q0.59375 0.0625 0.078125 0.4375l0 3.640625l3.640625 0l0 1.40625l-3.640625 0l0 3.71875l5.125 0l0 1.40625l-5.125 0l0 6.015625l-1.484375 0l0 -6.015625l-5.5 0l0 -1.40625l5.5 0l0 -3.71875l-2.75 0q-0.734375 2.0 -1.78125 3.1875l-1.265625 -1.1875q2.15625 -2.734375 2.375 -6.296875l1.78125 0.4375q0.296875 0.296875 -0.21875 0.375zm-4.59375 14.703125l-1.484375 0l0 -9.21875q-0.53125 0.96875 -1.34375 1.9375l-1.1875 -1.34375q2.828125 -3.265625 3.34375 -8.234375l1.5625 0.296875q0.515625 0.15625 0 0.375q-0.453125 2.453125 -1.046875 4.15625l0.296875 0.078125q0.21875 0.21875 -0.140625 0.4375l0 11.515625z" fill-rule="nonzero"/><path fill="#000000" d="m270.44968 371.72052q1.09375 0 2.1875 -0.0625l0 1.234375q-1.09375 -0.078125 -2.1875 -0.078125l-2.03125 0q-0.21875 1.09375 -0.4375 2.40625l4.0 0q-0.078125 1.09375 -0.078125 2.34375l0 3.125q0 1.234375 0.078125 2.546875l-1.390625 0l0 -6.921875l-4.953125 0l0 7.078125l-1.375 0q0.0625 -1.6875 0.0625 -2.703125l0 -3.0625q0 -1.15625 -0.0625 -2.40625l2.40625 0q0.28125 -1.59375 0.28125 -2.40625l-0.796875 0q-1.234375 0 -2.546875 0.078125l0 -1.234375q1.375 0.0625 2.546875 0.0625l4.296875 0zm-7.578125 8.828125q-0.734375 -0.140625 -1.3125 -0.140625q0.296875 -1.25 0.4375 -1.828125l-1.609375 0l0 6.78125q-0.0625 1.234375 -0.9375 1.515625q-0.875 0.296875 -1.96875 0.296875q-0.140625 -0.796875 -0.515625 -1.53125q1.609375 0.15625 1.859375 -0.03125q0.265625 -0.1875 0.265625 -0.90625l0 -6.125l-0.8125 0q-0.9375 0 -1.96875 0.078125l0 -1.25q1.03125 0.078125 1.90625 0.078125l5.390625 0q-0.375 1.453125 -0.734375 3.0625zm6.203125 -3.203125q-0.296875 0.875 -0.375 2.265625q-0.0625 1.375 -0.390625 3.09375q-0.328125 1.703125 -1.46875 2.84375q-1.125 1.125 -3.015625 2.140625q-0.65625 -0.515625 -1.3125 -0.953125q1.75 -0.65625 2.796875 -1.59375q1.0625 -0.953125 1.5 -2.15625q0.4375 -1.203125 0.546875 -2.65625q0.109375 -1.453125 0.109375 -3.140625l1.609375 0.15625zm-9.046875 -0.078125q-1.015625 -1.09375 -2.40625 -2.1875q0.375 -0.359375 0.8125 -0.875q0.5 0.359375 1.015625 0.796875q0.9375 -1.375 1.53125 -2.03125l-1.609375 0q-1.453125 0 -2.765625 0.0625l0 -1.234375q1.3125 0.078125 2.703125 0.078125l3.484375 0l0 1.09375q-1.09375 0.796875 -2.46875 2.84375l0.65625 0.578125q-0.59375 0.515625 -0.953125 0.875zm9.1875 6.34375q2.765625 2.109375 3.78125 3.0625q-0.65625 0.5 -1.015625 0.9375q-0.953125 -0.9375 -1.71875 -1.640625q-0.765625 -0.6875 -1.78125 -1.265625q0.375 -0.515625 0.734375 -1.09375z" fill-rule="nonzero"/><path fill="#000000" d="m282.12155 376.43927l-5.640625 2.53125q-0.078125 0.515625 -0.375 0.21875l-0.671875 -1.640625l1.046875 -0.296875l0 -5.859375l1.484375 0.453125q2.4375 -0.375 4.671875 -1.1875l0.671875 1.546875q0.21875 0.59375 -0.59375 0.15625q-2.53125 0.515625 -4.75 0.8125l0 3.640625q1.78125 -0.671875 3.328125 -1.40625q-0.296875 -0.453125 -1.328125 -1.484375l1.1875 -0.890625q1.484375 1.25 2.59375 3.109375l-1.265625 0.890625l-0.359375 -0.59375zm5.046875 -3.5625q0.140625 5.34375 -4.90625 6.234375l-0.515625 -1.5625q3.9375 -0.515625 3.859375 -4.671875l-1.640625 0l0 -1.40625l7.203125 0l-0.21875 4.53125q-0.15625 2.4375 -1.5625 2.4375l-1.78125 0l-0.21875 -1.40625l1.265625 0q0.59375 0 0.65625 -0.671875l0.296875 -3.484375l-2.4375 0zm2.515625 6.53125l0 7.65625l-1.484375 0l0 -0.671875l-9.34375 0l0 1.03125l-1.484375 0l0 -8.015625l12.3125 0zm-1.484375 2.890625l0 -1.703125l-3.9375 0l0 1.703125l3.9375 0zm0 1.1875l-3.9375 0l0 1.71875l3.9375 0l0 -1.71875zm-5.421875 -2.890625l-3.921875 0l0 1.703125l3.921875 0l0 -1.703125zm0 2.890625l-3.921875 0l0 1.71875l3.921875 0l0 -1.71875z" fill-rule="nonzero"/><path fill="#000000" d="m308.4028 379.4549q-0.078125 0.953125 -0.078125 2.03125q0 1.09375 0.078125 2.5625l-1.453125 0l0 -3.359375l-9.046875 0l0 3.796875l-1.453125 0q0.078125 -1.6875 0.078125 -2.78125q0 -1.15625 -0.078125 -2.25l11.953125 0zm-3.140625 -5.609375q-0.5 0.875 -0.0625 1.5q0.4375 0.609375 1.1875 1.15625q0.765625 0.546875 1.890625 0.921875q1.140625 0.359375 2.53125 0.421875q-0.59375 0.8125 -0.875 1.53125q-1.828125 -0.359375 -3.25 -1.078125q-1.421875 -0.734375 -2.359375 -2.34375q-0.65625 1.671875 -1.90625 2.328125q-1.234375 0.65625 -2.6875 1.09375q-0.59375 -0.65625 -1.171875 -1.15625q3.0625 -0.59375 4.0 -1.75q0.953125 -1.171875 1.03125 -2.84375l1.671875 0.21875zm-3.203125 -0.515625q-0.875 1.171875 -1.671875 1.75q-0.515625 -0.515625 -1.09375 -0.875q0.875 -0.578125 1.640625 -1.5625q0.765625 -0.984375 1.203125 -2.078125q0.65625 0.296875 1.59375 0.4375q-0.359375 0.65625 -0.875 1.15625l6.859375 0q-0.21875 0.4375 -1.3125 2.84375q-0.875 -0.21875 -1.453125 -0.28125q0.359375 -0.8125 0.640625 -1.390625l-5.53125 0zm1.171875 8.375q-0.375 0.8125 -0.5625 1.609375q-0.171875 0.796875 -0.9375 1.640625q-0.765625 0.84375 -2.234375 1.5625q-1.453125 0.734375 -4.21875 1.171875q-0.21875 -0.734375 -0.875 -1.390625q2.125 -0.0625 3.53125 -0.546875q1.421875 -0.46875 2.15625 -1.046875q0.734375 -0.59375 1.0625 -1.421875q0.328125 -0.84375 0.328125 -1.796875q0.875 0.15625 1.75 0.21875zm0.875 1.96875q1.375 0.515625 2.6875 1.03125q1.3125 0.5 3.140625 1.3125q-0.4375 0.578125 -0.8125 1.453125q-1.375 -0.796875 -2.734375 -1.390625q-1.34375 -0.578125 -2.875 -1.09375q0.375 -0.578125 0.59375 -1.3125zm-5.109375 -7.640625q-1.8125 1.671875 -3.5 3.71875q-0.71875 -0.8125 -1.15625 -1.09375q2.328125 -1.828125 3.640625 -3.5q0.359375 0.359375 1.015625 0.875zm-1.09375 -1.90625q-1.15625 -0.875 -3.125 -2.03125q0.5 -0.515625 0.875 -1.015625q0.65625 0.4375 3.125 1.953125q-0.4375 0.4375 -0.875 1.09375z" fill-rule="nonzero"/><path fill="#000000" d="m316.35593 381.34552q-0.8125 2.59375 -2.296875 5.265625q0.078125 0.8125 -0.296875 0.453125l-1.40625 -1.34375q1.546875 -2.375 2.734375 -5.421875l1.265625 1.046875zm5.859375 1.921875q-0.59375 1.703125 -1.921875 3.421875l-1.265625 -1.046875q1.265625 -1.5625 1.9375 -3.484375l1.484375 0.734375q0.296875 0.296875 -0.234375 0.375zm6.3125 3.125q-1.625 -1.71875 -2.75 -3.5625l1.34375 -0.828125q1.40625 2.15625 2.515625 3.046875l-1.109375 1.34375zm-6.90625 -7.796875l0 1.5625l5.203125 0l0 -1.5625l-5.203125 0zm0 -2.671875l0 1.484375l5.203125 0l0 -1.484375l-5.203125 0zm2.015625 5.640625l-1.640625 0l-1.625 0l0 -7.046875l2.59375 0l0.140625 -1.9375l-4.15625 0l0 8.609375q0 3.484375 -2.078125 6.171875l-1.1875 -1.34375q1.78125 -2.234375 1.78125 -5.34375l0 -9.5l11.734375 0l0 1.40625l-4.3125 0l-0.515625 1.9375l3.71875 0l0 7.046875l-2.96875 0l0 4.53125q0 1.1875 -1.1875 1.1875l-1.34375 0l-0.296875 -1.40625l0.96875 0q0.375 0 0.375 -0.453125l0 -3.859375zm-9.796875 -6.390625q1.546875 0.75 2.671875 1.9375l-1.125 1.5625q-1.109375 -1.265625 -2.515625 -2.015625l0.96875 -1.484375zm2.078125 -0.8125q-1.125 -1.1875 -2.375 -1.921875l0.890625 -1.484375q1.484375 0.65625 2.4375 1.84375l-0.953125 1.5625z" fill-rule="nonzero"/><path fill="#666666" d="m52.307087 403.73752l343.02362 0l0 71.90552l-343.02362 0z" fill-rule="evenodd"/><path fill="#000000" d="m151.0488 431.31342l1.65625 -0.140625q0.125 1.0 0.546875 1.640625q0.4375 0.640625 1.34375 1.046875q0.921875 0.390625 2.0625 0.390625q1.0 0 1.78125 -0.296875q0.78125 -0.296875 1.15625 -0.8125q0.375 -0.53125 0.375 -1.15625q0 -0.625 -0.375 -1.09375q-0.359375 -0.46875 -1.1875 -0.796875q-0.546875 -0.203125 -2.390625 -0.640625q-1.828125 -0.453125 -2.5625 -0.84375q-0.96875 -0.5 -1.4375 -1.234375q-0.46875 -0.75 -0.46875 -1.671875q0 -1.0 0.578125 -1.875q0.578125 -0.890625 1.671875 -1.34375q1.109375 -0.453125 2.453125 -0.453125q1.484375 0 2.609375 0.484375q1.140625 0.46875 1.75 1.40625q0.609375 0.921875 0.65625 2.09375l-1.6875 0.125q-0.140625 -1.265625 -0.9375 -1.90625q-0.78125 -0.65625 -2.3125 -0.65625q-1.609375 0 -2.34375 0.59375q-0.734375 0.59375 -0.734375 1.421875q0 0.71875 0.53125 1.171875q0.5 0.46875 2.65625 0.96875q2.15625 0.484375 2.953125 0.84375q1.171875 0.53125 1.71875 1.359375q0.5625 0.828125 0.5625 1.90625q0 1.0625 -0.609375 2.015625q-0.609375 0.9375 -1.75 1.46875q-1.140625 0.515625 -2.578125 0.515625q-1.8125 0 -3.046875 -0.53125q-1.21875 -0.53125 -1.921875 -1.59375q-0.6875 -1.0625 -0.71875 -2.40625zm12.756073 8.015625l-0.1875 -1.53125q0.546875 0.140625 0.9375 0.140625q0.546875 0 0.875 -0.1875q0.328125 -0.171875 0.546875 -0.5q0.15625 -0.25 0.5 -1.21875q0.046875 -0.140625 0.140625 -0.40625l-3.671875 -9.6875l1.765625 0l2.015625 5.59375q0.390625 1.078125 0.703125 2.25q0.28125 -1.125 0.671875 -2.203125l2.078125 -5.640625l1.640625 0l-3.6875 9.828125q-0.59375 1.609375 -0.921875 2.203125q-0.4375 0.8125 -1.0 1.1875q-0.5625 0.375 -1.34375 0.375q-0.484375 0 -1.0625 -0.203125zm8.75 -6.609375l1.625 -0.25q0.125 0.96875 0.75 1.5q0.625 0.515625 1.75 0.515625q1.125 0 1.671875 -0.453125q0.546875 -0.46875 0.546875 -1.09375q0 -0.546875 -0.484375 -0.875q-0.328125 -0.21875 -1.671875 -0.546875q-1.8125 -0.46875 -2.515625 -0.796875q-0.6875 -0.328125 -1.046875 -0.90625q-0.359375 -0.59375 -0.359375 -1.3125q0 -0.640625 0.296875 -1.1875q0.296875 -0.5625 0.8125 -0.921875q0.375 -0.28125 1.03125 -0.46875q0.671875 -0.203125 1.421875 -0.203125q1.140625 0 2.0 0.328125q0.859375 0.328125 1.265625 0.890625q0.421875 0.5625 0.578125 1.5l-1.609375 0.21875q-0.109375 -0.75 -0.640625 -1.171875q-0.515625 -0.421875 -1.46875 -0.421875q-1.140625 0 -1.625 0.375q-0.46875 0.375 -0.46875 0.875q0 0.3125 0.1875 0.578125q0.203125 0.265625 0.640625 0.4375q0.234375 0.09375 1.4375 0.421875q1.75 0.453125 2.4375 0.75q0.6875 0.296875 1.078125 0.859375q0.390625 0.5625 0.390625 1.40625q0 0.828125 -0.484375 1.546875q-0.46875 0.71875 -1.375 1.125q-0.90625 0.390625 -2.046875 0.390625q-1.875 0 -2.875 -0.78125q-0.984375 -0.78125 -1.25 -2.328125zm13.5625 1.421875l0.234375 1.453125q-0.6875 0.140625 -1.234375 0.140625q-0.890625 0 -1.390625 -0.28125q-0.484375 -0.28125 -0.6875 -0.734375q-0.203125 -0.46875 -0.203125 -1.9375l0 -5.578125l-1.203125 0l0 -1.265625l1.203125 0l0 -2.390625l1.625 -0.984375l0 3.375l1.65625 0l0 1.265625l-1.65625 0l0 5.671875q0 0.6875 0.078125 0.890625q0.09375 0.203125 0.28125 0.328125q0.203125 0.109375 0.578125 0.109375q0.265625 0 0.71875 -0.0625zm8.230179 -1.640625l1.6875 0.203125q-0.40625 1.484375 -1.484375 2.3125q-1.078125 0.8125 -2.765625 0.8125q-2.125 0 -3.375 -1.296875q-1.234375 -1.3125 -1.234375 -3.671875q0 -2.453125 1.25 -3.796875q1.265625 -1.34375 3.265625 -1.34375q1.9375 0 3.15625 1.328125q1.234375 1.3125 1.234375 3.703125q0 0.15625 0 0.4375l-7.21875 0q0.09375 1.59375 0.90625 2.453125q0.8125 0.84375 2.015625 0.84375q0.90625 0 1.546875 -0.46875q0.640625 -0.484375 1.015625 -1.515625zm-5.390625 -2.65625l5.40625 0q-0.109375 -1.21875 -0.625 -1.828125q-0.78125 -0.953125 -2.03125 -0.953125q-1.125 0 -1.90625 0.765625q-0.765625 0.75 -0.84375 2.015625zm9.141342 5.765625l0 -9.671875l1.46875 0l0 1.359375q0.453125 -0.71875 1.203125 -1.140625q0.765625 -0.4375 1.71875 -0.4375q1.078125 0 1.765625 0.453125q0.6875 0.4375 0.96875 1.234375q1.15625 -1.6875 2.984375 -1.6875q1.453125 0 2.21875 0.796875q0.78125 0.796875 0.78125 2.453125l0 6.640625l-1.640625 0l0 -6.09375q0 -0.984375 -0.15625 -1.40625q-0.15625 -0.4375 -0.578125 -0.703125q-0.421875 -0.265625 -0.984375 -0.265625q-1.015625 0 -1.6875 0.6875q-0.671875 0.671875 -0.671875 2.15625l0 5.625l-1.640625 0l0 -6.28125q0 -1.09375 -0.40625 -1.640625q-0.40625 -0.546875 -1.3125 -0.546875q-0.6875 0 -1.28125 0.359375q-0.59375 0.359375 -0.859375 1.0625q-0.25 0.703125 -0.25 2.03125l0 5.015625l-1.640625 0zm20.95848 0l0 -13.359375l5.921875 0q1.78125 0 2.703125 0.359375q0.9375 0.359375 1.484375 1.28125q0.5625 0.90625 0.5625 2.015625q0 1.40625 -0.921875 2.390625q-0.921875 0.96875 -2.84375 1.234375q0.703125 0.34375 1.078125 0.671875q0.765625 0.703125 1.453125 1.765625l2.328125 3.640625l-2.21875 0l-1.765625 -2.78125q-0.78125 -1.203125 -1.28125 -1.828125q-0.5 -0.640625 -0.90625 -0.890625q-0.390625 -0.265625 -0.796875 -0.359375q-0.296875 -0.078125 -0.984375 -0.078125l-2.046875 0l0 5.9375l-1.765625 0zm1.765625 -7.453125l3.796875 0q1.21875 0 1.890625 -0.25q0.6875 -0.265625 1.046875 -0.8125q0.359375 -0.546875 0.359375 -1.1875q0 -0.953125 -0.6875 -1.5625q-0.6875 -0.609375 -2.1875 -0.609375l-4.21875 0l0 4.421875zm18.097946 4.34375l1.6875 0.203125q-0.40625 1.484375 -1.484375 2.3125q-1.078125 0.8125 -2.765625 0.8125q-2.125 0 -3.375 -1.296875q-1.234375 -1.3125 -1.234375 -3.671875q0 -2.453125 1.25 -3.796875q1.265625 -1.34375 3.265625 -1.34375q1.9375 0 3.15625 1.328125q1.234375 1.3125 1.234375 3.703125q0 0.15625 0 0.4375l-7.21875 0q0.09375 1.59375 0.90625 2.453125q0.8125 0.84375 2.015625 0.84375q0.90625 0 1.546875 -0.46875q0.640625 -0.484375 1.015625 -1.515625zm-5.390625 -2.65625l5.40625 0q-0.109375 -1.21875 -0.625 -1.828125q-0.78125 -0.953125 -2.03125 -0.953125q-1.125 0 -1.90625 0.765625q-0.765625 0.75 -0.84375 2.015625zm8.485092 2.875l1.625 -0.25q0.125 0.96875 0.75 1.5q0.625 0.515625 1.75 0.515625q1.125 0 1.671875 -0.453125q0.546875 -0.46875 0.546875 -1.09375q0 -0.546875 -0.484375 -0.875q-0.328125 -0.21875 -1.671875 -0.546875q-1.8125 -0.46875 -2.515625 -0.796875q-0.6875 -0.328125 -1.046875 -0.90625q-0.359375 -0.59375 -0.359375 -1.3125q0 -0.640625 0.296875 -1.1875q0.296875 -0.5625 0.8125 -0.921875q0.375 -0.28125 1.03125 -0.46875q0.671875 -0.203125 1.421875 -0.203125q1.140625 0 2.0 0.328125q0.859375 0.328125 1.265625 0.890625q0.421875 0.5625 0.578125 1.5l-1.609375 0.21875q-0.109375 -0.75 -0.640625 -1.171875q-0.515625 -0.421875 -1.46875 -0.421875q-1.140625 0 -1.625 0.375q-0.46875 0.375 -0.46875 0.875q0 0.3125 0.1875 0.578125q0.203125 0.265625 0.640625 0.4375q0.234375 0.09375 1.4375 0.421875q1.75 0.453125 2.4375 0.75q0.6875 0.296875 1.078125 0.859375q0.390625 0.5625 0.390625 1.40625q0 0.828125 -0.484375 1.546875q-0.46875 0.71875 -1.375 1.125q-0.90625 0.390625 -2.046875 0.390625q-1.875 0 -2.875 -0.78125q-0.984375 -0.78125 -1.25 -2.328125zm16.60939 -0.21875l1.6875 0.203125q-0.40625 1.484375 -1.484375 2.3125q-1.078125 0.8125 -2.765625 0.8125q-2.1250153 0 -3.3750153 -1.296875q-1.234375 -1.3125 -1.234375 -3.671875q0 -2.453125 1.25 -3.796875q1.265625 -1.34375 3.265625 -1.34375q1.9375153 0 3.1562653 1.328125q1.234375 1.3125 1.234375 3.703125q0 0.15625 0 0.4375l-7.2187653 0q0.09375 1.59375 0.90625 2.453125q0.8125 0.84375 2.0156403 0.84375q0.90625 0 1.546875 -0.46875q0.640625 -0.484375 1.015625 -1.515625zm-5.3906403 -2.65625l5.4062653 0q-0.109375 -1.21875 -0.625 -1.828125q-0.78125 -0.953125 -2.0312653 -0.953125q-1.125 0 -1.90625 0.765625q-0.765625 0.75 -0.84375 2.015625zm9.125717 5.765625l0 -9.671875l1.46875 0l0 1.46875q0.5625 -1.03125 1.03125 -1.359375q0.484375 -0.328125 1.0625 -0.328125q0.828125 0 1.6875 0.53125l-0.5625 1.515625q-0.609375 -0.359375 -1.203125 -0.359375q-0.546875 0 -0.96875 0.328125q-0.421875 0.328125 -0.609375 0.890625q-0.28125 0.875 -0.28125 1.921875l0 5.0625l-1.625 0zm8.915802 0l-3.6875 -9.671875l1.734375 0l2.078125 5.796875q0.328125 0.9375 0.625 1.9375q0.203125 -0.765625 0.609375 -1.828125l2.140625 -5.90625l1.6875 0l-3.65625 9.671875l-1.53125 0zm13.265625 -3.109375l1.6875 0.203125q-0.40625 1.484375 -1.484375 2.3125q-1.078125 0.8125 -2.765625 0.8125q-2.125 0 -3.375 -1.296875q-1.234375 -1.3125 -1.234375 -3.671875q0 -2.453125 1.25 -3.796875q1.265625 -1.34375 3.265625 -1.34375q1.9375 0 3.15625 1.328125q1.234375 1.3125 1.234375 3.703125q0 0.15625 0 0.4375l-7.21875 0q0.09375 1.59375 0.90625 2.453125q0.8125 0.84375 2.015625 0.84375q0.90625 0 1.546875 -0.46875q0.640625 -0.484375 1.015625 -1.515625zm-5.390625 -2.65625l5.40625 0q-0.109375 -1.21875 -0.625 -1.828125q-0.78125 -0.953125 -2.03125 -0.953125q-1.125 0 -1.90625 0.765625q-0.765625 0.75 -0.84375 2.015625zm15.406982 5.765625l0 -1.21875q-0.90625 1.4375 -2.703125 1.4375q-1.15625 0 -2.125 -0.640625q-0.96875 -0.640625 -1.5 -1.78125q-0.53125 -1.140625 -0.53125 -2.625q0 -1.453125 0.484375 -2.625q0.484375 -1.1875 1.4375 -1.8125q0.96875 -0.625 2.171875 -0.625q0.875 0 1.546875 0.375q0.6875 0.359375 1.109375 0.953125l0 -4.796875l1.640625 0l0 13.359375l-1.53125 0zm-5.171875 -4.828125q0 1.859375 0.78125 2.78125q0.78125 0.921875 1.84375 0.921875q1.078125 0 1.828125 -0.875q0.75 -0.890625 0.75 -2.6875q0 -1.984375 -0.765625 -2.90625q-0.765625 -0.9375 -1.890625 -0.9375q-1.078125 0 -1.8125 0.890625q-0.734375 0.890625 -0.734375 2.8125z" fill-rule="nonzero"/><path fill="#000000" d="m166.4439 444.5478q-3.1875 0.140625 -6.234375 0.140625l-0.375 -1.328125q7.359375 -0.078125 13.0625 -1.046875l1.046875 1.421875q0.140625 0.359375 -0.515625 0.140625q-2.96875 0.375 -6.234375 0.59375l0.890625 0.59375q0.515625 0.375 -0.375 0.453125q-1.859375 2.078125 -2.890625 3.109375l1.703125 1.046875q2.296875 -2.078125 3.859375 -3.859375l1.40625 1.03125q0.515625 0.375 -0.375 0.375q-2.375 2.078125 -4.96875 4.15625l5.421875 -0.296875q-0.75 -0.75 -1.40625 -1.1875l1.109375 -1.046875q2.453125 1.640625 4.0 3.796875l-1.40625 1.25q-0.8125 -1.25 -1.265625 -1.625l-4.8125 0.375l0 6.609375l-1.484375 0l0 -6.46875l-6.234375 0.375q-0.078125 0.515625 -0.375 0.21875l-0.515625 -1.859375l4.75 -0.0625l0.953125 -0.671875q-1.84375 -1.34375 -3.859375 -2.375l0.96875 -1.1875l1.34375 0.671875q0.8125 -0.75 2.8125 -3.34375zm8.171875 14.03125q-2.90625 -1.265625 -4.984375 -3.796875l1.421875 -1.109375q1.625 2.0 4.515625 3.265625l-0.953125 1.640625zm-9.5 -3.9375q0.59375 0.375 -0.234375 0.4375q-1.703125 2.234375 -4.21875 3.796875l-1.125 -1.5625q2.53125 -1.5625 4.09375 -3.5625l1.484375 0.890625z" fill-rule="nonzero"/><path fill="#000000" d="m191.85014 445.07904q1.09375 0 2.328125 -0.078125l0 1.3125q-1.171875 -0.078125 -2.265625 -0.078125l-4.078125 0q0.59375 0.4375 1.390625 0.875q-0.578125 0.4375 -1.203125 1.28125q-0.625 0.84375 -1.78125 2.296875q1.671875 0 5.234375 -0.359375q-0.28125 -0.375 -1.15625 -1.390625q0.65625 -0.359375 1.15625 -0.796875q1.25 1.3125 2.703125 3.34375q-0.734375 0.4375 -1.234375 0.953125q-0.4375 -0.578125 -0.734375 -1.015625q-1.015625 0.0625 -1.3125 0.140625l0 5.46875q0 0.875 0.734375 0.875l0.71875 0q0.65625 0 0.875 -1.96875q0.65625 0.5 1.53125 0.71875q-0.65625 2.484375 -1.8125 2.484375l-1.96875 0q-1.453125 0 -1.453125 -1.53125l0 -5.90625q-1.03125 0.078125 -1.390625 0.15625q0.078125 2.6875 -0.6875 4.40625q-0.765625 1.703125 -2.953125 3.390625q-0.375 -0.59375 -1.3125 -0.953125q1.15625 -0.734375 1.953125 -1.609375q0.8125 -0.875 1.25 -1.96875q0.4375 -1.09375 0.359375 -3.125q-1.09375 0.078125 -1.96875 0.296875q-0.21875 -1.09375 -0.578125 -1.90625q0.875 -0.0625 1.921875 -1.453125q1.0625 -1.390625 1.4375 -2.703125l-1.171875 0q-0.953125 0 -2.328125 0.078125l0 -1.3125q1.15625 0.078125 2.25 0.078125l5.546875 0zm-9.546875 -1.53125q-0.515625 0.65625 -1.09375 1.671875q-0.578125 1.015625 -1.75 2.921875q1.390625 -0.078125 2.1875 -0.078125q0.578125 -1.015625 0.9375 -2.046875q0.8125 0.515625 1.6875 0.875q-0.515625 0.515625 -1.390625 1.875q-0.875 1.34375 -2.46875 3.8125q2.109375 -0.21875 3.703125 -0.5q-0.359375 0.859375 -0.359375 1.375q-0.65625 0.078125 -2.296875 0.296875q-1.640625 0.21875 -2.875 0.578125q-0.21875 -0.734375 -0.515625 -1.453125q0.8125 -0.21875 1.53125 -1.3125q0.734375 -1.09375 1.46875 -2.40625q-0.65625 0.078125 -1.53125 0.1875q-0.875 0.109375 -1.46875 0.25q-0.28125 -0.734375 -0.65625 -1.390625q0.875 -0.21875 1.9375 -2.328125q1.0625 -2.109375 1.203125 -3.0625q0.875 0.4375 1.75 0.734375zm1.96875 11.65625q-0.078125 0.734375 0 1.390625q-1.6875 0.4375 -3.328125 0.90625q-1.625 0.46875 -2.5 0.84375q-0.296875 -0.734375 -0.8125 -1.53125q1.828125 -0.296875 3.421875 -0.65625q1.609375 -0.375 3.21875 -0.953125zm4.515625 -12.96875q0.796875 1.3125 1.171875 2.03125q-0.515625 0.21875 -1.390625 0.65625q-0.578125 -1.375 -1.09375 -2.109375q0.875 -0.28125 1.3125 -0.578125zm19.53125 3.421875q0 -1.453125 -0.078125 -3.203125l1.53125 0q-0.078125 0.875 -0.078125 3.203125q1.53125 0 3.0 -0.078125l0 1.390625q-1.46875 -0.078125 -3.0 -0.078125l0 3.21875q1.75 0 3.359375 -0.078125l0 1.390625q-1.609375 -0.078125 -3.359375 -0.078125l0 2.984375q0 1.234375 0.078125 2.546875l-1.53125 0q0 -1.3125 0.078125 -2.546875l0 -2.984375l-2.765625 0q-0.296875 1.96875 -0.84375 3.203125q-0.546875 1.234375 -1.640625 2.484375q-0.734375 -0.59375 -1.390625 -0.953125q1.390625 -1.234375 1.828125 -2.28125q0.4375 -1.0625 0.65625 -2.453125q-1.671875 0 -2.921875 0.078125l0 -1.390625q1.3125 0.078125 3.0625 0.078125q0.15625 -1.6875 0.15625 -3.21875q-1.46875 0 -2.84375 0.15625l0 -1.46875q1.375 0.078125 2.90625 0.078125q0 -1.671875 -0.0625 -3.203125q0.71875 0.078125 1.53125 0.140625q-0.078125 0.953125 -0.15625 3.0625l2.484375 0zm-8.15625 2.84375q-0.15625 1.609375 -0.15625 2.703125l0 4.578125q2.109375 1.46875 4.515625 1.71875q2.40625 0.25 4.703125 0.171875q2.296875 -0.0625 4.125 -0.359375q-0.375 0.875 -0.4375 1.828125q-3.5 0 -5.734375 -0.078125q-2.21875 -0.0625 -4.078125 -0.546875q-1.859375 -0.46875 -2.8125 -1.015625q-0.9375 -0.546875 -1.625 0q-0.6875 0.546875 -1.5 1.421875q-0.4375 -0.65625 -1.09375 -1.171875q1.75 -1.3125 2.5625 -1.8125l0 -6.203125q-0.8125 0 -2.046875 0.15625l0 -1.46875q1.453125 0.078125 2.1875 0.078125l1.390625 0zm8.15625 1.609375l0 -3.21875l-2.484375 0q-0.0625 1.53125 -0.21875 3.21875l2.703125 0zm-9.328125 -7.21875q1.171875 2.328125 1.453125 3.28125q-0.796875 0.140625 -1.453125 0.578125q-0.21875 -1.3125 -1.453125 -3.28125l1.453125 -0.578125z" fill-rule="nonzero"/><path fill="#000000" d="m221.27202 453.6728l-1.625 -1.859375l0 7.4375l-1.484375 0l0 -7.0625q-1.125 2.078125 -2.375 3.1875l-0.96875 -1.40625q2.515625 -2.453125 3.34375 -5.5625l-2.75 0l0 -1.40625l2.75 0l0 -2.078125l-2.3125 0.359375l-0.4375 -1.484375q3.5625 -0.59375 5.71875 -1.40625l1.03125 1.40625q0.078125 0.53125 -0.4375 0.234375l-2.078125 0.59375l0 2.375l2.671875 0l0 1.40625l-2.671875 0l0 1.484375q1.1875 0.8125 2.734375 2.453125l-1.109375 1.328125zm6.609375 -1.703125l0 1.921875l3.109375 0l0 1.421875l-3.109375 0l0 2.0l4.15625 0l0 1.40625l-10.546875 0l0 -1.40625l4.90625 0l0 -2.0l-3.34375 0l0 -1.421875l3.34375 0l0 -1.921875l-3.640625 0l0 -1.40625l8.765625 0l0 1.40625l-3.640625 0zm1.703125 -7.28125l-4.671875 0l0 2.671875l4.671875 0l0 -2.671875zm0 4.75l0 -0.65625l-4.671875 0l0 0.734375l-1.484375 0l0 -6.234375l7.640625 0l0 6.15625l-1.484375 0z" fill-rule="nonzero"/><path fill="#000000" d="m248.30327 443.6103q1.09375 0 2.1875 -0.0625l0 1.234375q-1.09375 -0.078125 -2.1875 -0.078125l-2.03125 0q-0.21875 1.09375 -0.4375 2.40625l4.0 0q-0.078125 1.09375 -0.078125 2.34375l0 3.125q0 1.234375 0.078125 2.546875l-1.390625 0l0 -6.921875l-4.953125 0l0 7.078125l-1.375 0q0.0625 -1.6875 0.0625 -2.703125l0 -3.0625q0 -1.15625 -0.0625 -2.40625l2.40625 0q0.28125 -1.59375 0.28125 -2.40625l-0.796875 0q-1.234375 0 -2.546875 0.078125l0 -1.234375q1.375 0.0625 2.546875 0.0625l4.296875 0zm-7.578125 8.828125q-0.734375 -0.140625 -1.3125 -0.140625q0.296875 -1.25 0.4375 -1.828125l-1.609375 0l0 6.78125q-0.0625 1.234375 -0.9375 1.515625q-0.875 0.296875 -1.96875 0.296875q-0.140625 -0.796875 -0.515625 -1.53125q1.609375 0.15625 1.859375 -0.03125q0.265625 -0.1875 0.265625 -0.90625l0 -6.125l-0.8125 0q-0.9375 0 -1.96875 0.078125l0 -1.25q1.03125 0.078125 1.90625 0.078125l5.390625 0q-0.375 1.453125 -0.734375 3.0625zm6.203125 -3.203125q-0.296875 0.875 -0.375 2.265625q-0.0625 1.375 -0.390625 3.09375q-0.328125 1.703125 -1.46875 2.84375q-1.125 1.125 -3.015625 2.140625q-0.65625 -0.515625 -1.3125 -0.953125q1.75 -0.65625 2.796875 -1.59375q1.0625 -0.953125 1.5 -2.15625q0.4375 -1.203125 0.546875 -2.65625q0.109375 -1.453125 0.109375 -3.140625l1.609375 0.15625zm-9.046875 -0.078125q-1.015625 -1.09375 -2.40625 -2.1875q0.375 -0.359375 0.8125 -0.875q0.5 0.359375 1.015625 0.796875q0.9375 -1.375 1.53125 -2.03125l-1.609375 0q-1.453125 0 -2.765625 0.0625l0 -1.234375q1.3125 0.078125 2.703125 0.078125l3.484375 0l0 1.09375q-1.09375 0.796875 -2.46875 2.84375l0.65625 0.578125q-0.59375 0.515625 -0.953125 0.875zm9.1875 6.34375q2.765625 2.109375 3.78125 3.0625q-0.65625 0.5 -1.015625 0.9375q-0.953125 -0.9375 -1.71875 -1.640625q-0.765625 -0.6875 -1.78125 -1.265625q0.375 -0.515625 0.734375 -1.09375z" fill-rule="nonzero"/><path fill="#000000" d="m259.97516 448.32904l-5.6406403 2.53125q-0.078125 0.515625 -0.375 0.21875l-0.671875 -1.640625l1.046875 -0.296875l0 -5.859375l1.484375 0.453125q2.4375153 -0.375 4.6718903 -1.1875l0.671875 1.546875q0.21875 0.59375 -0.59375 0.15625q-2.53125 0.515625 -4.7500153 0.8125l0 3.640625q1.7812653 -0.671875 3.3281403 -1.40625q-0.296875 -0.453125 -1.328125 -1.484375l1.1875 -0.890625q1.484375 1.25 2.59375 3.109375l-1.265625 0.890625l-0.359375 -0.59375zm5.046875 -3.5625q0.140625 5.34375 -4.90625 6.234375l-0.515625 -1.5625q3.9375 -0.515625 3.859375 -4.671875l-1.640625 0l0 -1.40625l7.203125 0l-0.21875 4.53125q-0.15625 2.4375 -1.5625 2.4375l-1.78125 0l-0.21875 -1.40625l1.265625 0q0.59375 0 0.65625 -0.671875l0.296875 -3.484375l-2.4375 0zm2.515625 6.53125l0 7.65625l-1.484375 0l0 -0.671875l-9.34375 0l0 1.03125l-1.4843903 0l0 -8.015625l12.312515 0zm-1.484375 2.890625l0 -1.703125l-3.9375 0l0 1.703125l3.9375 0zm0 1.1875l-3.9375 0l0 1.71875l3.9375 0l0 -1.71875zm-5.421875 -2.890625l-3.921875 0l0 1.703125l3.921875 0l0 -1.703125zm0 2.890625l-3.921875 0l0 1.71875l3.921875 0l0 -1.71875zm14.921875 -2.140625q-0.8125 2.59375 -2.296875 5.265625q0.078125 0.8125 -0.296875 0.453125l-1.40625 -1.34375q1.546875 -2.375 2.734375 -5.421875l1.265625 1.046875zm5.859375 1.921875q-0.59375 1.703125 -1.921875 3.421875l-1.265625 -1.046875q1.265625 -1.5625 1.9375 -3.484375l1.484375 0.734375q0.296875 0.296875 -0.234375 0.375zm6.3125 3.125q-1.625 -1.71875 -2.75 -3.5625l1.34375 -0.828125q1.40625 2.15625 2.515625 3.046875l-1.109375 1.34375zm-6.90625 -7.796875l0 1.5625l5.203125 0l0 -1.5625l-5.203125 0zm0 -2.671875l0 1.484375l5.203125 0l0 -1.484375l-5.203125 0zm2.015625 5.640625l-1.640625 0l-1.625 0l0 -7.046875l2.59375 0l0.140625 -1.9375l-4.15625 0l0 8.609375q0 3.484375 -2.078125 6.171875l-1.1875 -1.34375q1.78125 -2.234375 1.78125 -5.34375l0 -9.5l11.734375 0l0 1.40625l-4.3125 0l-0.515625 1.9375l3.71875 0l0 7.046875l-2.96875 0l0 4.53125q0 1.1875 -1.1875 1.1875l-1.34375 0l-0.296875 -1.40625l0.96875 0q0.375 0 0.375 -0.453125l0 -3.859375zm-9.796875 -6.390625q1.546875 0.75 2.671875 1.9375l-1.125 1.5625q-1.109375 -1.265625 -2.515625 -2.015625l0.96875 -1.484375zm2.078125 -0.8125q-1.125 -1.1875 -2.375 -1.921875l0.890625 -1.484375q1.484375 0.65625 2.4375 1.84375l-0.953125 1.5625z" fill-rule="nonzero"/><path fill="#000000" fill-opacity="0.0" d="m0 0l314.96063 0l0 42.015747l-314.96063 0z" fill-rule="evenodd"/><path fill="#00ffff" d="m52.307087 152.14699l343.02362 0l0 179.71654l-343.02362 0z" fill-rule="evenodd"/><path fill="#000000" d="m178.15363 248.92525l5.1249847 -13.359375l1.90625 0l5.46875 13.359375l-2.015625 0l-1.546875 -4.046875l-5.59375 0l-1.4687347 4.046875l-1.875 0zm3.8593597 -5.484375l4.53125 0l-1.40625 -3.703125q-0.625 -1.6875 -0.9375 -2.765625q-0.265625 1.28125 -0.71875 2.546875l-1.46875 3.921875zm9.802948 5.484375l0 -13.359375l1.640625 0l0 13.359375l-1.640625 0zm4.1448364 0l0 -13.359375l1.640625 0l0 13.359375l-1.640625 0zm3.582306 -4.84375q0 -2.6875 1.484375 -3.96875q1.25 -1.078125 3.046875 -1.078125q2.0 0 3.265625 1.3125q1.265625 1.296875 1.265625 3.609375q0 1.859375 -0.5625 2.9375q-0.5625 1.0625 -1.640625 1.65625q-1.0625 0.59375 -2.328125 0.59375q-2.03125 0 -3.28125 -1.296875q-1.25 -1.3125 -1.25 -3.765625zm1.6875 0q0 1.859375 0.796875 2.796875q0.8125 0.921875 2.046875 0.921875q1.21875 0 2.03125 -0.921875q0.8125 -0.9375 0.8125 -2.84375q0 -1.796875 -0.8125 -2.71875q-0.8125 -0.921875 -2.03125 -0.921875q-1.234375 0 -2.046875 0.921875q-0.796875 0.90625 -0.796875 2.765625zm15.610107 1.296875l1.609375 0.21875q-0.265625 1.65625 -1.359375 2.609375q-1.078125 0.9375 -2.671875 0.9375q-1.984375 0 -3.1875 -1.296875q-1.203125 -1.296875 -1.203125 -3.71875q0 -1.578125 0.515625 -2.75q0.515625 -1.171875 1.578125 -1.75q1.0625 -0.59375 2.3125 -0.59375q1.578125 0 2.578125 0.796875q1.0 0.796875 1.28125 2.265625l-1.59375 0.234375q-0.234375 -0.96875 -0.8125 -1.453125q-0.578125 -0.5 -1.390625 -0.5q-1.234375 0 -2.015625 0.890625q-0.78125 0.890625 -0.78125 2.8125q0 1.953125 0.75 2.84375q0.75 0.875 1.953125 0.875q0.96875 0 1.609375 -0.59375q0.65625 -0.59375 0.828125 -1.828125zm9.328125 2.359375q-0.921875 0.765625 -1.765625 1.09375q-0.828125 0.3125 -1.796875 0.3125q-1.59375 0 -2.453125 -0.78125q-0.859375 -0.78125 -0.859375 -1.984375q0 -0.71875 0.328125 -1.296875q0.328125 -0.59375 0.84375 -0.9375q0.53125 -0.359375 1.1875 -0.546875q0.46875 -0.125 1.453125 -0.25q1.984375 -0.234375 2.921875 -0.5625q0.015625 -0.34375 0.015625 -0.421875q0 -1.0 -0.46875 -1.421875q-0.625 -0.546875 -1.875 -0.546875q-1.15625 0 -1.703125 0.40625q-0.546875 0.40625 -0.8125 1.421875l-1.609375 -0.21875q0.21875 -1.015625 0.71875 -1.640625q0.5 -0.640625 1.453125 -0.984375q0.953125 -0.34375 2.1875 -0.34375q1.25 0 2.015625 0.296875q0.78125 0.28125 1.140625 0.734375q0.375 0.4375 0.515625 1.109375q0.078125 0.421875 0.078125 1.515625l0 2.1875q0 2.28125 0.109375 2.890625q0.109375 0.59375 0.40625 1.15625l-1.703125 0q-0.265625 -0.515625 -0.328125 -1.1875zm-0.140625 -3.671875q-0.890625 0.375 -2.671875 0.625q-1.015625 0.140625 -1.4375 0.328125q-0.421875 0.1875 -0.65625 0.53125q-0.21875 0.34375 -0.21875 0.78125q0 0.65625 0.5 1.09375q0.5 0.4375 1.453125 0.4375q0.9375 0 1.671875 -0.40625q0.75 -0.421875 1.09375 -1.140625q0.265625 -0.5625 0.265625 -1.640625l0 -0.609375zm7.781952 3.390625l0.234375 1.453125q-0.6875 0.140625 -1.234375 0.140625q-0.890625 0 -1.390625 -0.28125q-0.484375 -0.28125 -0.6875 -0.734375q-0.203125 -0.46875 -0.203125 -1.9375l0 -5.578125l-1.203125 0l0 -1.265625l1.203125 0l0 -2.390625l1.625 -0.984375l0 3.375l1.65625 0l0 1.265625l-1.65625 0l0 5.671875q0 0.6875 0.078125 0.890625q0.09375 0.203125 0.28125 0.328125q0.203125 0.109375 0.578125 0.109375q0.265625 0 0.71875 -0.0625zm7.917694 0.28125q-0.921875 0.765625 -1.765625 1.09375q-0.828125 0.3125 -1.796875 0.3125q-1.59375 0 -2.453125 -0.78125q-0.859375 -0.78125 -0.859375 -1.984375q0 -0.71875 0.328125 -1.296875q0.328125 -0.59375 0.84375 -0.9375q0.53125 -0.359375 1.1875 -0.546875q0.46875 -0.125 1.453125 -0.25q1.984375 -0.234375 2.921875 -0.5625q0.015625 -0.34375 0.015625 -0.421875q0 -1.0 -0.46875 -1.421875q-0.625 -0.546875 -1.875 -0.546875q-1.15625 0 -1.703125 0.40625q-0.546875 0.40625 -0.8125 1.421875l-1.609375 -0.21875q0.21875 -1.015625 0.71875 -1.640625q0.5 -0.640625 1.453125 -0.984375q0.953125 -0.34375 2.1875 -0.34375q1.25 0 2.015625 0.296875q0.78125 0.28125 1.140625 0.734375q0.375 0.4375 0.515625 1.109375q0.078125 0.421875 0.078125 1.515625l0 2.1875q0 2.28125 0.109375 2.890625q0.109375 0.59375 0.40625 1.15625l-1.703125 0q-0.265625 -0.515625 -0.328125 -1.1875zm-0.140625 -3.671875q-0.890625 0.375 -2.671875 0.625q-1.015625 0.140625 -1.4375 0.328125q-0.421875 0.1875 -0.65625 0.53125q-0.21875 0.34375 -0.21875 0.78125q0 0.65625 0.5 1.09375q0.5 0.4375 1.453125 0.4375q0.9375 0 1.671875 -0.40625q0.75 -0.421875 1.09375 -1.140625q0.265625 -0.5625 0.265625 -1.640625l0 -0.609375zm5.703827 4.859375l-1.515625 0l0 -13.359375l1.640625 0l0 4.765625q1.046875 -1.296875 2.65625 -1.296875q0.890625 0 1.6875 0.359375q0.796875 0.359375 1.3125 1.015625q0.515625 0.640625 0.796875 1.5625q0.296875 0.921875 0.296875 1.96875q0 2.484375 -1.234375 3.84375q-1.21875 1.359375 -2.953125 1.359375q-1.703125 0 -2.6875 -1.4375l0 1.21875zm-0.015625 -4.90625q0 1.734375 0.484375 2.515625q0.765625 1.265625 2.09375 1.265625q1.078125 0 1.859375 -0.9375q0.78125 -0.9375 0.78125 -2.78125q0 -1.890625 -0.75 -2.796875q-0.75 -0.90625 -1.828125 -0.90625q-1.0625 0 -1.859375 0.9375q-0.78125 0.9375 -0.78125 2.703125zm8.844498 4.90625l0 -13.359375l1.640625 0l0 13.359375l-1.640625 0zm10.816681 -3.109375l1.6875 0.203125q-0.40625 1.484375 -1.484375 2.3125q-1.078125 0.8125 -2.765625 0.8125q-2.125 0 -3.375 -1.296875q-1.234375 -1.3125 -1.234375 -3.671875q0 -2.453125 1.25 -3.796875q1.265625 -1.34375 3.265625 -1.34375q1.9375 0 3.15625 1.328125q1.234375 1.3125 1.234375 3.703125q0 0.15625 0 0.4375l-7.21875 0q0.09375 1.59375 0.90625 2.453125q0.8125 0.84375 2.015625 0.84375q0.90625 0 1.546875 -0.46875q0.640625 -0.484375 1.015625 -1.515625zm-5.390625 -2.65625l5.40625 0q-0.109375 -1.21875 -0.625 -1.828125q-0.78125 -0.953125 -2.03125 -0.953125q-1.125 0 -1.90625 0.765625q-0.765625 0.75 -0.84375 2.015625z" fill-rule="nonzero"/><path fill="#e69138" d="m52.307087 87.53281l343.02362 0l0 64.62993l-343.02362 0z" fill-rule="evenodd"/><path fill="#000000" d="m156.77417 115.84777l0 -11.921875l8.625 0l0 1.40625l-7.046875 0l0 3.65625l6.59375 0l0 1.390625l-6.59375 0l0 4.0625l7.328125 0l0 1.40625l-8.90625 0zm13.297089 0l-3.28125 -8.640625l1.53125 0l1.859375 5.171875q0.296875 0.84375 0.5625 1.75q0.1875 -0.6875 0.53125 -1.640625l1.921875 -5.28125l1.515625 0l-3.28125 8.640625l-1.359375 0zm5.9375 -10.234375l0 -1.6875l1.453125 0l0 1.6875l-1.453125 0zm0 10.234375l0 -8.640625l1.453125 0l0 8.640625l-1.453125 0zm9.325485 -3.15625l1.4375 0.171875q-0.234375 1.5 -1.203125 2.34375q-0.96875 0.828125 -2.390625 0.828125q-1.765625 0 -2.84375 -1.15625q-1.078125 -1.15625 -1.078125 -3.3125q0 -1.40625 0.453125 -2.453125q0.46875 -1.046875 1.40625 -1.5625q0.953125 -0.53125 2.078125 -0.53125q1.40625 0 2.296875 0.71875q0.890625 0.703125 1.140625 2.015625l-1.421875 0.21875q-0.203125 -0.875 -0.71875 -1.3125q-0.515625 -0.4375 -1.25 -0.4375q-1.109375 0 -1.796875 0.796875q-0.6875 0.78125 -0.6875 2.5q0 1.734375 0.65625 2.53125q0.671875 0.78125 1.75 0.78125q0.859375 0 1.4375 -0.515625q0.578125 -0.53125 0.734375 -1.625zm5.890625 1.84375l0.203125 1.296875q-0.609375 0.125 -1.09375 0.125q-0.796875 0 -1.25 -0.25q-0.4375 -0.25 -0.625 -0.65625q-0.171875 -0.421875 -0.171875 -1.734375l0 -4.96875l-1.0625 0l0 -1.140625l1.0625 0l0 -2.140625l1.46875 -0.875l0 3.015625l1.46875 0l0 1.140625l-1.46875 0l0 5.046875q0 0.625 0.078125 0.8125q0.078125 0.171875 0.25 0.28125q0.171875 0.109375 0.5 0.109375q0.234375 0 0.640625 -0.0625zm1.4401398 -8.921875l0 -1.6875l1.453125 0l0 1.6875l-1.453125 0zm0 10.234375l0 -8.640625l1.453125 0l0 8.640625l-1.453125 0zm3.1379852 -4.3125q0 -2.40625 1.34375 -3.5625q1.109375 -0.953125 2.71875 -0.953125q1.78125 0 2.90625 1.171875q1.125 1.15625 1.125 3.21875q0 1.671875 -0.5 2.625q-0.5 0.953125 -1.453125 1.484375q-0.953125 0.515625 -2.078125 0.515625q-1.8125 0 -2.9375 -1.15625q-1.125 -1.15625 -1.125 -3.34375zm1.515625 0q0 1.65625 0.71875 2.484375q0.71875 0.8125 1.828125 0.8125q1.078125 0 1.796875 -0.828125q0.734375 -0.828125 0.734375 -2.53125q0 -1.59375 -0.734375 -2.421875q-0.71875 -0.828125 -1.796875 -0.828125q-1.109375 0 -1.828125 0.828125q-0.71875 0.8125 -0.71875 2.484375zm8.294662 4.3125l0 -8.640625l1.328125 0l0 1.234375q0.9375 -1.421875 2.75 -1.421875q0.765625 0 1.421875 0.28125q0.65625 0.28125 0.984375 0.734375q0.328125 0.453125 0.453125 1.078125q0.078125 0.40625 0.078125 1.421875l0 5.3125l-1.453125 0l0 -5.25q0 -0.90625 -0.171875 -1.34375q-0.171875 -0.4375 -0.609375 -0.703125q-0.4375 -0.265625 -1.015625 -0.265625q-0.9375 0 -1.625 0.59375q-0.671875 0.59375 -0.671875 2.25l0 4.71875l-1.46875 0zm16.8087 0l0 -10.515625l-3.921875 0l0 -1.40625l9.453125 0l0 1.40625l-3.953125 0l0 10.515625l-1.578125 0zm6.955551 0l0 -11.921875l1.46875 0l0 4.28125q1.03125 -1.1875 2.578125 -1.1875q0.96875 0 1.671875 0.375q0.703125 0.375 1.015625 1.046875q0.3125 0.65625 0.3125 1.9375l0 5.46875l-1.46875 0l0 -5.46875q0 -1.109375 -0.484375 -1.609375q-0.46875 -0.5 -1.34375 -0.5q-0.640625 0 -1.21875 0.34375q-0.578125 0.34375 -0.828125 0.921875q-0.234375 0.578125 -0.234375 1.59375l0 4.71875l-1.46875 0zm9.247787 0l0 -8.640625l1.328125 0l0 1.3125q0.5 -0.921875 0.921875 -1.203125q0.421875 -0.296875 0.9375 -0.296875q0.75 0 1.515625 0.46875l-0.515625 1.359375q-0.53125 -0.3125 -1.0625 -0.3125q-0.484375 0 -0.875 0.28125q-0.375 0.28125 -0.53125 0.796875q-0.25 0.78125 -0.25 1.71875l0 4.515625l-1.46875 0zm11.484161 -2.78125l1.5 0.1875q-0.34375 1.328125 -1.3125 2.0625q-0.96875 0.71875 -2.484375 0.71875q-1.890625 0 -3.0 -1.15625q-1.109375 -1.171875 -1.109375 -3.28125q0 -2.171875 1.125 -3.375q1.125 -1.203125 2.90625 -1.203125q1.734375 0 2.828125 1.1875q1.109375 1.171875 1.109375 3.3125q0 0.125 -0.015625 0.390625l-6.4375 0q0.078125 1.421875 0.796875 2.171875q0.734375 0.75 1.8125 0.75q0.796875 0 1.359375 -0.421875q0.578125 -0.421875 0.921875 -1.34375zm-4.8125 -2.359375l4.828125 0q-0.109375 -1.09375 -0.5625 -1.640625q-0.6875 -0.84375 -1.8125 -0.84375q-1.0 0 -1.6875 0.671875q-0.6875 0.671875 -0.765625 1.8125zm7.5759125 2.5625l1.4375 -0.234375q0.125 0.875 0.6875 1.34375q0.5625 0.453125 1.5625 0.453125q1.0 0 1.484375 -0.40625q0.5 -0.40625 0.5 -0.96875q0 -0.484375 -0.4375 -0.765625q-0.296875 -0.203125 -1.5 -0.5q-1.609375 -0.40625 -2.234375 -0.703125q-0.609375 -0.296875 -0.9375 -0.8125q-0.328125 -0.53125 -0.328125 -1.171875q0 -0.578125 0.265625 -1.0625q0.265625 -0.5 0.71875 -0.828125q0.34375 -0.25 0.9375 -0.421875q0.59375 -0.171875 1.265625 -0.171875q1.015625 0 1.78125 0.296875q0.765625 0.28125 1.125 0.78125q0.375 0.5 0.515625 1.34375l-1.4375 0.1875q-0.09375 -0.65625 -0.5625 -1.03125q-0.46875 -0.375 -1.3125 -0.375q-1.015625 0 -1.453125 0.328125q-0.421875 0.328125 -0.421875 0.78125q0 0.28125 0.171875 0.515625q0.1875 0.234375 0.5625 0.390625q0.21875 0.078125 1.296875 0.375q1.5625 0.40625 2.171875 0.671875q0.609375 0.265625 0.953125 0.78125q0.359375 0.5 0.359375 1.25q0 0.71875 -0.4375 1.375q-0.421875 0.640625 -1.234375 1.0q-0.796875 0.34375 -1.8125 0.34375q-1.6875 0 -2.578125 -0.6875q-0.875 -0.703125 -1.109375 -2.078125zm8.90625 2.578125l0 -11.921875l1.46875 0l0 4.28125q1.03125 -1.1875 2.578125 -1.1875q0.96875 0 1.671875 0.375q0.703125 0.375 1.015625 1.046875q0.3125 0.65625 0.3125 1.9375l0 5.46875l-1.46875 0l0 -5.46875q0 -1.109375 -0.484375 -1.609375q-0.46875 -0.5 -1.34375 -0.5q-0.640625 0 -1.21875 0.34375q-0.578125 0.34375 -0.828125 0.921875q-0.234375 0.578125 -0.234375 1.59375l0 4.71875l-1.46875 0zm8.716553 -4.3125q0 -2.40625 1.34375 -3.5625q1.109375 -0.953125 2.71875 -0.953125q1.78125 0 2.90625 1.171875q1.125 1.15625 1.125 3.21875q0 1.671875 -0.5 2.625q-0.5 0.953125 -1.453125 1.484375q-0.953125 0.515625 -2.078125 0.515625q-1.8125 0 -2.9375 -1.15625q-1.125 -1.15625 -1.125 -3.34375zm1.515625 0q0 1.65625 0.71875 2.484375q0.71875 0.8125 1.828125 0.8125q1.078125 0 1.796875 -0.828125q0.734375 -0.828125 0.734375 -2.53125q0 -1.59375 -0.734375 -2.421875q-0.71875 -0.828125 -1.796875 -0.828125q-1.109375 0 -1.828125 0.828125q-0.71875 0.8125 -0.71875 2.484375zm8.263397 4.3125l0 -11.921875l1.46875 0l0 11.921875l-1.46875 0zm9.3411255 0l0 -1.09375q-0.828125 1.28125 -2.421875 1.28125q-1.03125 0 -1.90625 -0.5625q-0.859375 -0.5625 -1.34375 -1.578125q-0.46875 -1.03125 -0.46875 -2.359375q0 -1.296875 0.4375 -2.34375q0.4375 -1.046875 1.296875 -1.609375q0.859375 -0.5625 1.921875 -0.5625q0.78125 0 1.390625 0.328125q0.609375 0.328125 1.0 0.859375l0 -4.28125l1.453125 0l0 11.921875l-1.359375 0zm-4.625 -4.3125q0 1.65625 0.6875 2.484375q0.703125 0.8125 1.65625 0.8125q0.96875 0 1.625 -0.78125q0.671875 -0.78125 0.671875 -2.390625q0 -1.78125 -0.6875 -2.609375q-0.671875 -0.828125 -1.671875 -0.828125q-0.96875 0 -1.625 0.796875q-0.65625 0.796875 -0.65625 2.515625z" fill-rule="nonzero"/><path fill="#000000" d="m180.22514 135.84776q-0.0625 1.171875 -0.78125 1.390625q-0.703125 0.234375 -1.9375 0.359375q-0.203125 -0.84375 -0.53125 -1.421875q1.046875 0.0625 1.5625 0.03125q0.515625 -0.03125 0.59375 -0.75l0.3125 -4.15625l-4.671875 0q0.125 -1.25 0.15625 -3.0q0.03125 -1.7499924 0.03125 -2.9218674l1.296875 0q-0.125 0.578125 -0.1875 4.8749924l2.078125 0l0.265625 -5.7968674q-3.125 0 -4.296875 0.0625l0 -1.171875q1.171875 0.078125 2.140625 0.078125l3.515625 0q-0.125 0.90625 -0.1875 1.953125l-0.203125 4.8749924l1.4375 0q-0.125 0.78125 -0.265625 1.625l-0.328125 3.96875zm9.046875 1.046875q-0.84375 -0.078125 -2.140625 -0.078125l-5.734375 0q0.078125 -0.578125 0.078125 -2.265625l0 -8.921867q0 -0.71875 -0.078125 -2.203125l5.140625 0q1.5 0 2.28125 -0.078125l0 1.171875q-0.90625 -0.0625 -2.015625 -0.0625l-4.234375 0l0 11.328117l4.234375 0q1.828125 0 2.46875 -0.0625l0 1.171875zm-0.84375 -10.671867q-0.1875 0.25 -0.515625 1.171875q-0.328125 0.9062424 -1.109375 2.5312424q1.5 2.140625 2.015625 3.125q-0.71875 0.453125 -1.171875 0.78125q-0.390625 -0.984375 -1.4375 -2.734375q-1.234375 2.078125 -2.078125 3.3125q-0.515625 -0.515625 -1.171875 -0.703125q0.921875 -0.921875 2.40625 -3.65625q-0.84375 -1.296875 -2.34375 -3.1093674q0.46875 -0.328125 0.859375 -0.859375q1.03125 1.046875 2.140625 2.7343674q0.90625 -2.4062424 1.046875 -3.1874924q0.578125 0.328125 1.359375 0.59375zm-14.578125 6.8906174q1.046875 0 2.109375 -0.0625q1.078125 -0.0625 2.578125 -0.265625l-0.1875 1.109375q-0.65625 0.0625 -1.96875 0.234375q-1.296875 0.15625 -2.078125 0.359375q-0.25 -0.71875 -0.453125 -1.375z" fill-rule="nonzero"/><path fill="#000000" d="m200.67827 130.59776q-1.71875 1.796875 -4.78125 3.453125l-0.71875 -1.1875q3.046875 -1.59375 4.96875 -3.453125q-0.125 -0.40625 -0.453125 -0.9375q-1.734375 1.65625 -4.0625 2.859375l-0.65625 -1.203125q2.453125 -1.125 3.984375 -2.7187424q-0.265625 -0.328125 -0.734375 -0.734375q-1.0 0.796875 -2.515625 1.5312424l-0.609375 -0.9999924q2.46875 -1.25 3.984375 -2.921875l-3.84375 0l0 -1.25l10.421875 0l0 1.25l-4.90625 0q-0.796875 0.9375 -1.59375 1.671875q0.921875 0.71875 1.78125 1.921875q1.46875 -1.265625 2.734375 -2.71875l1.1875 1.0625q0.328125 0.390625 -0.265625 0.265625q-1.0625 0.921875 -2.328125 1.9218674q2.0625 1.0625 3.921875 2.859375l-1.0 1.0625q-1.59375 -1.796875 -3.578125 -3.0q0.59375 1.0 0.59375 2.390625q0 3.0625 -2.328125 3.0625l-0.796875 0l-0.390625 -1.265625l0.734375 0q1.390625 0 1.390625 -1.796875q0 -0.65625 -0.140625 -1.125zm-7.03125 -5.1093674q-0.9375 -0.796875 -2.328125 -1.53125l0.734375 -1.125q1.390625 0.59375 2.390625 1.453125l-0.796875 1.203125zm-2.65625 3.4531174l3.65625 0l0 5.109375q1.390625 1.390625 4.578125 1.390625l7.03125 0l-0.390625 1.46875l-6.515625 0q-3.375 0 -5.109375 -1.734375l-2.328125 2.328125l-1.1875 -1.390625l2.59375 -1.796875l0 -4.109375l-2.328125 0l0 -1.265625z" fill-rule="nonzero"/><path fill="#000000" d="m220.52202 123.34777q0.984375 0 1.953125 -0.0625l0 1.109375q-0.96875 -0.0625 -1.953125 -0.0625l-1.8125 0q-0.203125 0.96875 -0.390625 2.140625l3.578125 0q-0.078125 0.984375 -0.078125 2.0937424l0 2.796875q0 1.09375 0.078125 2.265625l-1.25 0l0 -6.1718674l-4.421875 0l0 6.3124924l-1.234375 0q0.0625 -1.5 0.0625 -2.40625l0 -2.734375q0 -1.0468674 -0.0625 -2.1562424l2.15625 0q0.25 -1.421875 0.25 -2.140625l-0.71875 0q-1.09375 0 -2.265625 0.0625l0 -1.109375q1.234375 0.0625 2.265625 0.0625l3.84375 0zm-6.765625 7.8749924q-0.65625 -0.125 -1.171875 -0.125q0.265625 -1.109375 0.390625 -1.625l-1.4375 0l0 6.046875q-0.0625 1.109375 -0.84375 1.359375q-0.78125 0.265625 -1.75 0.265625q-0.125 -0.71875 -0.453125 -1.359375q1.421875 0.125 1.65625 -0.03125q0.234375 -0.171875 0.234375 -0.8125l0 -5.46875l-0.71875 0q-0.84375 0 -1.765625 0.0625l0 -1.109375q0.921875 0.0625 1.703125 0.0625l4.8125 0q-0.328125 1.3125 -0.65625 2.734375zm5.53125 -2.859375q-0.265625 0.78125 -0.328125 2.015625q-0.0625 1.234375 -0.359375 2.765625q-0.28125 1.53125 -1.296875 2.546875q-1.015625 1.0 -2.703125 1.90625q-0.578125 -0.453125 -1.171875 -0.84375q1.5625 -0.578125 2.5 -1.421875q0.953125 -0.84375 1.34375 -1.921875q0.390625 -1.078125 0.484375 -2.375q0.09375 -1.296875 0.09375 -2.796875l1.4375 0.125zm-8.0625 -0.0625q-0.921875 -0.9687424 -2.15625 -1.9531174q0.328125 -0.328125 0.71875 -0.78125q0.453125 0.328125 0.90625 0.71875q0.84375 -1.234375 1.375 -1.828125l-1.4375 0q-1.296875 0 -2.46875 0.0625l0 -1.09375q1.171875 0.0625 2.40625 0.0625l3.125 0l0 0.96875q-0.984375 0.71875 -2.21875 2.546875l0.59375 0.515625q-0.53125 0.453125 -0.84375 0.7812424zm8.1875 5.65625q2.484375 1.890625 3.390625 2.734375q-0.59375 0.453125 -0.90625 0.84375q-0.859375 -0.84375 -1.546875 -1.46875q-0.671875 -0.609375 -1.578125 -1.125q0.328125 -0.453125 0.640625 -0.984375z" fill-rule="nonzero"/><path fill="#000000" d="m230.95952 127.550896l-5.046875 2.2499924q-0.078125 0.46875 -0.34375 0.203125l-0.59375 -1.46875l0.9375 -0.265625l0 -5.2343674l1.328125 0.390625q2.1875 -0.328125 4.171875 -1.0625l0.609375 1.390625q0.1875 0.53125 -0.53125 0.140625q-2.265625 0.46875 -4.25 0.734375l0 3.25q1.59375 -0.59375 2.984375 -1.265625q-0.265625 -0.390625 -1.203125 -1.328125l1.0625 -0.796875q1.328125 1.125 2.328125 2.796875l-1.125 0.7968674l-0.328125 -0.5312424zm4.515625 -3.1875q0.125 4.7812424 -4.390625 5.5781174l-0.46875 -1.40625q3.53125 -0.453125 3.453125 -4.1718674l-1.453125 0l0 -1.265625l6.4375 0l-0.203125 4.046875q-0.125 2.1874924 -1.390625 2.1874924l-1.59375 0l-0.203125 -1.25l1.140625 0q0.53125 0 0.59375 -0.6093674l0.265625 -3.109375l-2.1875 0zm2.25 5.8437424l0 6.84375l-1.328125 0l0 -0.609375l-8.359375 0l0 0.9375l-1.328125 0l0 -7.171875l11.015625 0zm-1.328125 2.578125l0 -1.515625l-3.515625 0l0 1.515625l3.515625 0zm0 1.0625l-3.515625 0l0 1.53125l3.515625 0l0 -1.53125zm-4.84375 -2.578125l-3.515625 0l0 1.515625l3.515625 0l0 -1.515625zm0 2.578125l-3.515625 0l0 1.53125l3.515625 0l0 -1.53125z" fill-rule="nonzero"/><path fill="#000000" d="m254.4439 130.25401q-0.0625 0.84375 -0.0625 1.8125q0 0.984375 0.0625 2.28125l-1.296875 0l0 -2.984375l-8.078125 0l0 3.375l-1.296875 0q0.0625 -1.5 0.0625 -2.46875q0 -1.046875 -0.0625 -2.015625l10.671875 0zm-2.796875 -5.0156174q-0.453125 0.78125 -0.0625 1.34375q0.390625 0.546875 1.0625 1.03125q0.6875 0.48436737 1.6875 0.8124924q1.015625 0.328125 2.2500153 0.390625q-0.515625 0.71875 -0.78126526 1.375q-1.625 -0.328125 -2.890625 -0.96875q-1.265625 -0.65625 -2.109375 -2.0937424q-0.59375 1.4999924 -1.703125 2.0937424q-1.09375 0.578125 -2.40625 0.96875q-0.515625 -0.59375 -1.03125 -1.046875q2.734375 -0.515625 3.578125 -1.5468674q0.84375 -1.046875 0.90625 -2.546875l1.5 0.1875zm-2.859375 -0.453125q-0.78125 1.046875 -1.5 1.5625q-0.453125 -0.453125 -0.984375 -0.78125q0.78125 -0.515625 1.46875 -1.390625q0.6875 -0.890625 1.078125 -1.859375q0.578125 0.265625 1.421875 0.390625q-0.328125 0.578125 -0.78125 1.03125l6.125 0q-0.203125 0.390625 -1.171875 2.546875q-0.78125 -0.203125 -1.296875 -0.265625q0.3125 -0.71875 0.578125 -1.234375l-4.9375 0zm1.03125 7.4843674q-0.328125 0.71875 -0.5 1.4375q-0.15625 0.703125 -0.84375 1.453125q-0.671875 0.75 -1.984375 1.390625q-1.296875 0.65625 -3.765625 1.046875q-0.1875 -0.640625 -0.78125 -1.234375q1.890625 -0.0625 3.15625 -0.484375q1.265625 -0.421875 1.921875 -0.9375q0.65625 -0.53125 0.9375 -1.265625q0.296875 -0.75 0.296875 -1.609375q0.78125 0.140625 1.5625 0.203125zm0.78125 1.75q1.234375 0.46875 2.40625 0.921875q1.171875 0.453125 2.796875 1.171875q-0.390625 0.515625 -0.71875 1.296875q-1.234375 -0.71875 -2.4375 -1.234375q-1.203125 -0.515625 -2.5625 -0.984375q0.328125 -0.515625 0.515625 -1.171875zm-4.546875 -6.8281174q-1.625 1.4999924 -3.125 3.3281174q-0.65625 -0.71875 -1.046875 -0.984375q2.078125 -1.6249924 3.25 -3.1249924q0.328125 0.328125 0.921875 0.78125zm-0.984375 -1.6875q-1.03125 -0.78125 -2.796875 -1.828125q0.453125 -0.453125 0.78125 -0.90625q0.59375 0.390625 2.796875 1.75q-0.390625 0.390625 -0.78125 0.984375z" fill-rule="nonzero"/><path fill="#000000" d="m261.55328 131.92589q-0.734375 2.328125 -2.0625 4.71875q0.078125 0.734375 -0.265625 0.40625l-1.25 -1.203125q1.390625 -2.125 2.453125 -4.84375l1.125 0.921875zm5.25 1.734375q-0.53125 1.515625 -1.734375 3.046875l-1.125 -0.921875q1.125 -1.40625 1.734375 -3.125l1.328125 0.65625q0.265625 0.265625 -0.203125 0.34375zm5.640625 2.78125q-1.453125 -1.53125 -2.453125 -3.1875l1.1875 -0.734375q1.265625 1.9375 2.265625 2.734375l-1.0 1.1875zm-6.171875 -6.96875l0 1.390625l4.640625 0l0 -1.390625l-4.640625 0zm0 -2.3906174l0 1.3281174l4.640625 0l0 -1.3281174l-4.640625 0zm1.796875 5.0468674l-1.46875 0l-1.453125 0l0 -6.3124924l2.3125 0l0.140625 -1.71875l-3.71875 0l0 7.7031174q0 3.109375 -1.859375 5.515625l-1.0625 -1.203125q1.59375 -2.0 1.59375 -4.78125l0 -8.499992l10.484375 0l0 1.265625l-3.84375 0l-0.46875 1.71875l3.328125 0l0 6.3124924l-2.65625 0l0 4.046875q0 1.0625 -1.0625 1.0625l-1.203125 0l-0.265625 -1.25l0.859375 0q0.34375 0 0.34375 -0.40625l0 -3.453125zm-8.765625 -5.7187424q1.390625 0.671875 2.390625 1.7343674l-1.0 1.390625q-1.0 -1.125 -2.265625 -1.7968674l0.875 -1.328125zm1.859375 -0.71875q-1.0 -1.0625 -2.125 -1.734375l0.796875 -1.328125q1.328125 0.59375 2.1875 1.65625l-0.859375 1.40625z" fill-rule="nonzero"/><path fill="#000000" fill-opacity="0.0" d="m80.37008 15.643044l314.96063 0l0 64.62992l-314.96063 0z" fill-rule="evenodd"/><path fill="#000000" d="m135.57431 42.56304l0 -13.359373l1.8125 0l7.015625 10.484373l0 -10.484373l1.6875 0l0 13.359373l-1.8125 0l-7.015625 -10.5l0 10.5l-1.6875 0zm12.676071 -4.84375q0 -2.6875 1.484375 -3.96875q1.25 -1.078125 3.046875 -1.078125q2.0 0 3.265625 1.3125q1.265625 1.296875 1.265625 3.609375q0 1.859375 -0.5625 2.9375q-0.5625 1.0625 -1.640625 1.65625q-1.0625 0.59375 -2.328125 0.59375q-2.03125 0 -3.28125 -1.296875q-1.25 -1.3125 -1.25 -3.765625zm1.6875 0q0 1.859375 0.796875 2.796875q0.8125 0.921875 2.046875 0.921875q1.21875 0 2.03125 -0.921875q0.8125 -0.9375 0.8125 -2.84375q0 -1.796875 -0.8125 -2.71875q-0.8125 -0.921875 -2.03125 -0.921875q-1.234375 0 -2.046875 0.921875q-0.796875 0.90625 -0.796875 2.765625zm15.563217 4.84375l0 -1.21875q-0.90625 1.4375 -2.703125 1.4375q-1.15625 0 -2.125 -0.640625q-0.96875 -0.640625 -1.5 -1.78125q-0.53125 -1.140625 -0.53125 -2.625q0 -1.453125 0.484375 -2.625q0.484375 -1.1875 1.4375 -1.8125q0.96875 -0.625 2.171875 -0.625q0.875 0 1.546875 0.375q0.6875 0.359375 1.109375 0.953125l0 -4.796873l1.640625 0l0 13.359373l-1.53125 0zm-5.171875 -4.828125q0 1.859375 0.78125 2.78125q0.78125 0.921875 1.84375 0.921875q1.078125 0 1.828125 -0.875q0.75 -0.890625 0.75 -2.6875q0 -1.984375 -0.765625 -2.90625q-0.765625 -0.9375 -1.890625 -0.9375q-1.078125 0 -1.8125 0.890625q-0.734375 0.890625 -0.734375 2.8125zm15.906967 1.71875l1.6875 0.203125q-0.40625 1.484375 -1.484375 2.3125q-1.078125 0.8125 -2.765625 0.8125q-2.125 0 -3.375 -1.296875q-1.234375 -1.3125 -1.234375 -3.671875q0 -2.453125 1.25 -3.796875q1.265625 -1.34375 3.265625 -1.34375q1.9375 0 3.15625 1.328125q1.234375 1.3125 1.234375 3.703125q0 0.15625 0 0.4375l-7.21875 0q0.09375 1.59375 0.90625 2.453125q0.8125 0.84375 2.015625 0.84375q0.90625 0 1.546875 -0.46875q0.640625 -0.484375 1.015625 -1.515625zm-5.390625 -2.65625l5.40625 0q-0.109375 -1.21875 -0.625 -1.828125q-0.78125 -0.953125 -2.03125 -0.953125q-1.125 0 -1.90625 0.765625q-0.765625 0.75 -0.84375 2.015625zm24.059021 1.078125l1.765625 0.453125q-0.5625 2.171875 -2.0 3.328125q-1.4375 1.140625 -3.53125 1.140625q-2.15625 0 -3.515625 -0.875q-1.34375 -0.890625 -2.0625 -2.546875q-0.703125 -1.671875 -0.703125 -3.59375q0 -2.078125 0.796875 -3.625q0.796875 -1.5624981 2.265625 -2.359373q1.484375 -0.8125 3.25 -0.8125q2.0 0 3.359375 1.015625q1.375 1.015625 1.90625 2.874998l-1.734375 0.40625q-0.46875 -1.4531231 -1.359375 -2.109373q-0.875 -0.671875 -2.203125 -0.671875q-1.546875 0 -2.578125 0.734375q-1.03125 0.734375 -1.453125 1.9843731q-0.421875 1.234375 -0.421875 2.5625q0 1.703125 0.5 2.96875q0.5 1.265625 1.546875 1.90625q1.046875 0.625 2.265625 0.625q1.484375 0 2.515625 -0.859375q1.03125 -0.859375 1.390625 -2.546875zm10.051071 3.5q-0.921875 0.765625 -1.765625 1.09375q-0.828125 0.3125 -1.796875 0.3125q-1.59375 0 -2.453125 -0.78125q-0.859375 -0.78125 -0.859375 -1.984375q0 -0.71875 0.328125 -1.296875q0.328125 -0.59375 0.84375 -0.9375q0.53125 -0.359375 1.1875 -0.546875q0.46875 -0.125 1.453125 -0.25q1.984375 -0.234375 2.921875 -0.5625q0.015625 -0.34375 0.015625 -0.421875q0 -1.0 -0.46875 -1.421875q-0.625 -0.546875 -1.875 -0.546875q-1.15625 0 -1.703125 0.40625q-0.546875 0.40625 -0.8125 1.421875l-1.609375 -0.21875q0.21875 -1.015625 0.71875 -1.640625q0.5 -0.640625 1.453125 -0.984375q0.953125 -0.34375 2.1875 -0.34375q1.25 0 2.015625 0.296875q0.78125 0.28125 1.140625 0.734375q0.375 0.4375 0.515625 1.109375q0.078125 0.421875 0.078125 1.515625l0 2.1875q0 2.28125 0.109375 2.890625q0.109375 0.59375 0.40625 1.15625l-1.703125 0q-0.265625 -0.515625 -0.328125 -1.1875zm-0.140625 -3.671875q-0.890625 0.375 -2.671875 0.625q-1.015625 0.140625 -1.4375 0.328125q-0.421875 0.1875 -0.65625 0.53125q-0.21875 0.34375 -0.21875 0.78125q0 0.65625 0.5 1.09375q0.5 0.4375 1.453125 0.4375q0.9375 0 1.671875 -0.40625q0.75 -0.421875 1.09375 -1.140625q0.265625 -0.5625 0.265625 -1.640625l0 -0.609375zm4.203842 8.5625l0 -13.375l1.484375 0l0 1.25q0.53125 -0.734375 1.1875 -1.09375q0.671875 -0.375 1.625 -0.375q1.234375 0 2.171875 0.640625q0.953125 0.625 1.4375 1.796875q0.484375 1.15625 0.484375 2.546875q0 1.484375 -0.53125 2.671875q-0.53125 1.1875 -1.546875 1.828125q-1.015625 0.625 -2.140625 0.625q-0.8125 0 -1.46875 -0.34375q-0.65625 -0.34375 -1.0625 -0.875l0 4.703125l-1.640625 0zm1.484375 -8.484375q0 1.859375 0.75 2.765625q0.765625 0.890625 1.828125 0.890625q1.09375 0 1.875 -0.921875q0.78125 -0.9375 0.78125 -2.875q0 -1.84375 -0.765625 -2.765625q-0.75 -0.921875 -1.8125 -0.921875q-1.046875 0 -1.859375 0.984375q-0.796875 0.96875 -0.796875 2.84375zm15.203827 3.59375q-0.921875 0.765625 -1.765625 1.09375q-0.828125 0.3125 -1.796875 0.3125q-1.59375 0 -2.453125 -0.78125q-0.859375 -0.78125 -0.859375 -1.984375q0 -0.71875 0.328125 -1.296875q0.328125 -0.59375 0.84375 -0.9375q0.53125 -0.359375 1.1875 -0.546875q0.46875 -0.125 1.453125 -0.25q1.984375 -0.234375 2.921875 -0.5625q0.015625 -0.34375 0.015625 -0.421875q0 -1.0 -0.46875 -1.421875q-0.625 -0.546875 -1.875 -0.546875q-1.15625 0 -1.703125 0.40625q-0.546875 0.40625 -0.8125 1.421875l-1.609375 -0.21875q0.21875 -1.015625 0.71875 -1.640625q0.5 -0.640625 1.453125 -0.984375q0.953125 -0.34375 2.1875 -0.34375q1.25 0 2.015625 0.296875q0.78125 0.28125 1.140625 0.734375q0.375 0.4375 0.515625 1.109375q0.078125 0.421875 0.078125 1.515625l0 2.1875q0 2.28125 0.109375 2.890625q0.109375 0.59375 0.40625 1.15625l-1.703125 0q-0.265625 -0.515625 -0.328125 -1.1875zm-0.140625 -3.671875q-0.890625 0.375 -2.671875 0.625q-1.015625 0.140625 -1.4375 0.328125q-0.421875 0.1875 -0.65625 0.53125q-0.21875 0.34375 -0.21875 0.78125q0 0.65625 0.5 1.09375q0.5 0.4375 1.453125 0.4375q0.9375 0 1.671875 -0.40625q0.75 -0.421875 1.09375 -1.140625q0.265625 -0.5625 0.265625 -1.640625l0 -0.609375zm10.516357 1.3125l1.609375 0.21875q-0.265625 1.65625 -1.359375 2.609375q-1.078125 0.9375 -2.671875 0.9375q-1.984375 0 -3.1875 -1.296875q-1.203125 -1.296875 -1.203125 -3.71875q0 -1.578125 0.515625 -2.75q0.515625 -1.171875 1.578125 -1.75q1.0625 -0.59375 2.3125 -0.59375q1.578125 0 2.578125 0.796875q1.0 0.796875 1.28125 2.265625l-1.59375 0.234375q-0.234375 -0.96875 -0.8125 -1.453125q-0.578125 -0.5 -1.390625 -0.5q-1.234375 0 -2.015625 0.890625q-0.78125 0.890625 -0.78125 2.8125q0 1.953125 0.75 2.84375q0.75 0.875 1.953125 0.875q0.96875 0 1.609375 -0.59375q0.65625 -0.59375 0.828125 -1.828125zm3.015625 -7.921873l0 -1.890625l1.640625 0l0 1.890625l-1.640625 0zm0 11.468748l0 -9.671875l1.640625 0l0 9.671875l-1.640625 0zm7.722931 -1.46875l0.234375 1.453125q-0.6875 0.140625 -1.234375 0.140625q-0.890625 0 -1.390625 -0.28125q-0.484375 -0.28125 -0.6875 -0.734375q-0.203125 -0.46875 -0.203125 -1.9375l0 -5.578125l-1.203125 0l0 -1.265625l1.203125 0l0 -2.390623l1.625 -0.984375l0 3.374998l1.65625 0l0 1.265625l-1.65625 0l0 5.671875q0 0.6875 0.078125 0.890625q0.09375 0.203125 0.28125 0.328125q0.203125 0.109375 0.578125 0.109375q0.265625 0 0.71875 -0.0625zm1.5270691 5.1875l-0.1875 -1.53125q0.546875 0.140625 0.9375 0.140625q0.546875 0 0.875 -0.1875q0.328125 -0.171875 0.546875 -0.5q0.15625 -0.25 0.5 -1.21875q0.046875 -0.140625 0.140625 -0.40625l-3.671875 -9.6875l1.765625 0l2.015625 5.59375q0.390625 1.078125 0.703125 2.25q0.28125 -1.125 0.671875 -2.203125l2.078125 -5.640625l1.6406403 0l-3.6875153 9.828125q-0.59375 1.609375 -0.921875 2.203125q-0.4375 0.8125 -1.0 1.1875q-0.5625 0.375 -1.34375 0.375q-0.484375 0 -1.0625 -0.203125zm14.823929 -3.71875l0 -13.359373l5.921875 0q1.78125 0 2.703125 0.359375q0.9375 0.359375 1.484375 1.28125q0.5625 0.90625 0.5625 2.015623q0 1.40625 -0.921875 2.390625q-0.921875 0.96875 -2.84375 1.234375q0.703125 0.34375 1.078125 0.671875q0.765625 0.703125 1.453125 1.765625l2.328125 3.640625l-2.21875 0l-1.765625 -2.78125q-0.78125 -1.203125 -1.28125 -1.828125q-0.5 -0.640625 -0.90625 -0.890625q-0.390625 -0.265625 -0.796875 -0.359375q-0.296875 -0.078125 -0.984375 -0.078125l-2.046875 0l0 5.9375l-1.765625 0zm1.765625 -7.453125l3.796875 0q1.21875 0 1.890625 -0.25q0.6875 -0.265625 1.046875 -0.8125q0.359375 -0.546875 0.359375 -1.1875q0 -0.9531231 -0.6875 -1.5624981q-0.6875 -0.609375 -2.1875 -0.609375l-4.21875 0l0 4.421873zm18.097961 4.34375l1.6875 0.203125q-0.40625 1.484375 -1.484375 2.3125q-1.078125 0.8125 -2.765625 0.8125q-2.125 0 -3.375 -1.296875q-1.234375 -1.3125 -1.234375 -3.671875q0 -2.453125 1.25 -3.796875q1.265625 -1.34375 3.265625 -1.34375q1.9375 0 3.15625 1.328125q1.234375 1.3125 1.234375 3.703125q0 0.15625 0 0.4375l-7.21875 0q0.09375 1.59375 0.90625 2.453125q0.8125 0.84375 2.015625 0.84375q0.90625 0 1.546875 -0.46875q0.640625 -0.484375 1.015625 -1.515625zm-5.390625 -2.65625l5.40625 0q-0.109375 -1.21875 -0.625 -1.828125q-0.78125 -0.953125 -2.03125 -0.953125q-1.125 0 -1.90625 0.765625q-0.765625 0.75 -0.84375 2.015625zm8.485077 2.875l1.625 -0.25q0.125 0.96875 0.75 1.5q0.625 0.515625 1.75 0.515625q1.125 0 1.671875 -0.453125q0.546875 -0.46875 0.546875 -1.09375q0 -0.546875 -0.484375 -0.875q-0.328125 -0.21875 -1.671875 -0.546875q-1.8125 -0.46875 -2.515625 -0.796875q-0.6875 -0.328125 -1.046875 -0.90625q-0.359375 -0.59375 -0.359375 -1.3125q0 -0.640625 0.296875 -1.1875q0.296875 -0.5625 0.8125 -0.921875q0.375 -0.28125 1.03125 -0.46875q0.671875 -0.203125 1.421875 -0.203125q1.140625 0 2.0 0.328125q0.859375 0.328125 1.265625 0.890625q0.421875 0.5625 0.578125 1.5l-1.609375 0.21875q-0.109375 -0.75 -0.640625 -1.171875q-0.515625 -0.421875 -1.46875 -0.421875q-1.140625 0 -1.625 0.375q-0.46875 0.375 -0.46875 0.875q0 0.3125 0.1875 0.578125q0.203125 0.265625 0.640625 0.4375q0.234375 0.09375 1.4375 0.421875q1.75 0.453125 2.4375 0.75q0.6875 0.296875 1.078125 0.859375q0.390625 0.5625 0.390625 1.40625q0 0.828125 -0.484375 1.546875q-0.46875 0.71875 -1.375 1.125q-0.90625 0.390625 -2.046875 0.390625q-1.875 0 -2.875 -0.78125q-0.984375 -0.78125 -1.25 -2.328125zm9.375 -1.953125q0 -2.6875 1.484375 -3.96875q1.25 -1.078125 3.046875 -1.078125q2.0 0 3.265625 1.3125q1.265625 1.296875 1.265625 3.609375q0 1.859375 -0.5625 2.9375q-0.5625 1.0625 -1.640625 1.65625q-1.0625 0.59375 -2.328125 0.59375q-2.03125 0 -3.28125 -1.296875q-1.25 -1.3125 -1.25 -3.765625zm1.6875 0q0 1.859375 0.796875 2.796875q0.8125 0.921875 2.046875 0.921875q1.21875 0 2.03125 -0.921875q0.8125 -0.9375 0.8125 -2.84375q0 -1.796875 -0.8125 -2.71875q-0.8125 -0.921875 -2.03125 -0.921875q-1.234375 0 -2.046875 0.921875q-0.796875 0.90625 -0.796875 2.765625zm15.625732 4.84375l0 -1.421875q-1.125 1.640625 -3.0625 1.640625q-0.859375 0 -1.609375 -0.328125q-0.734375 -0.328125 -1.09375 -0.828125q-0.359375 -0.5 -0.5 -1.21875q-0.109375 -0.46875 -0.109375 -1.53125l0 -5.984375l1.640625 0l0 5.359375q0 1.28125 0.109375 1.734375q0.15625 0.640625 0.65625 1.015625q0.5 0.375 1.234375 0.375q0.734375 0 1.375 -0.375q0.65625 -0.390625 0.921875 -1.03125q0.265625 -0.65625 0.265625 -1.890625l0 -5.1875l1.640625 0l0 9.671875l-1.46875 0zm4.031952 0l0 -9.671875l1.46875 0l0 1.46875q0.5625 -1.03125 1.03125 -1.359375q0.484375 -0.328125 1.0625 -0.328125q0.828125 0 1.6875 0.53125l-0.5625 1.515625q-0.609375 -0.359375 -1.203125 -0.359375q-0.546875 0 -0.96875 0.328125q-0.421875 0.328125 -0.609375 0.890625q-0.28125 0.875 -0.28125 1.921875l0 5.0625l-1.625 0zm12.540802 -3.546875l1.609375 0.21875q-0.265625 1.65625 -1.359375 2.609375q-1.078125 0.9375 -2.671875 0.9375q-1.984375 0 -3.1875 -1.296875q-1.203125 -1.296875 -1.203125 -3.71875q0 -1.578125 0.515625 -2.75q0.515625 -1.171875 1.578125 -1.75q1.0625 -0.59375 2.3125 -0.59375q1.578125 0 2.578125 0.796875q1.0 0.796875 1.28125 2.265625l-1.59375 0.234375q-0.234375 -0.96875 -0.8125 -1.453125q-0.578125 -0.5 -1.390625 -0.5q-1.234375 0 -2.015625 0.890625q-0.78125 0.890625 -0.78125 2.8125q0 1.953125 0.75 2.84375q0.75 0.875 1.953125 0.875q0.96875 0 1.609375 -0.59375q0.65625 -0.59375 0.828125 -1.828125zm9.640625 0.4375l1.6875 0.203125q-0.40625 1.484375 -1.484375 2.3125q-1.078125 0.8125 -2.765625 0.8125q-2.125 0 -3.375 -1.296875q-1.234375 -1.3125 -1.234375 -3.671875q0 -2.453125 1.25 -3.796875q1.265625 -1.34375 3.265625 -1.34375q1.9375 0 3.15625 1.328125q1.234375 1.3125 1.234375 3.703125q0 0.15625 0 0.4375l-7.21875 0q0.09375 1.59375 0.90625 2.453125q0.8125 0.84375 2.015625 0.84375q0.90625 0 1.546875 -0.46875q0.640625 -0.484375 1.015625 -1.515625zm-5.390625 -2.65625l5.40625 0q-0.109375 -1.21875 -0.625 -1.828125q-0.78125 -0.953125 -2.03125 -0.953125q-1.125 0 -1.90625 0.765625q-0.765625 0.75 -0.84375 2.015625z" fill-rule="nonzero"/><path fill="#000000" d="m193.44414 64.38492q-0.15625 -0.8750038 -0.734375 -1.7500038q1.453125 0 2.21875 -0.140625q0.765625 -0.15625 0.84375 -0.890625l0.140625 -3.921875l-6.1875 0l0 6.328129q0 1.3125 0.0625 2.703125l-1.671875 0q0.140625 -1.3125 0.140625 -2.703125l0 -6.328129l-1.59375 0q-2.40625 0 -3.859375 0.0625l0 -1.375q1.53125 0.0625 3.125 0.0625l11.65625 0q-0.21875 3.0625 -0.296875 4.96875q-0.0625 1.890625 -1.078125 2.359375q-1.015625 0.4687538 -2.765625 0.6250038zm-5.03125 -10.937504q0 1.3125 0.0625 2.265625l-1.59375 0q0.0625 -1.09375 0.0625 -2.265625l-2.46875 0q-1.015625 0 -2.265625 0.140625l0 -1.453125q1.25 0.078125 2.265625 0.078125l2.46875 0q0 -1.390625 -0.0625 -2.328125l1.59375 0q-0.0625 0.9375 -0.0625 2.328125l3.859375 0q0 -1.453125 -0.078125 -2.328125l1.6875 0q-0.078125 0.875 -0.078125 2.328125l2.328125 0q1.390625 0 2.546875 -0.078125l0 1.390625q-1.15625 -0.078125 -2.546875 -0.078125l-2.328125 0q0 1.171875 0.078125 2.265625l-1.6875 0q0.078125 -1.171875 0.078125 -2.265625l-3.859375 0z" fill-rule="nonzero"/><path fill="#000000" d="m214.61601 61.83804q1.484375 1.421875 2.671875 3.5000038l-1.78125 0.890625q-1.03125 -2.2343788 -2.21875 -3.6406288l1.328125 -0.75zm-3.40625 0.078125q1.265625 2.078125 1.484375 4.015629l-1.859375 0.4375q-0.296875 -2.0 -1.109375 -3.9375038l1.484375 -0.515625zm-9.796875 3.6406288q1.328125 -1.34375 2.15625 -3.5625038l1.546875 0.59375q-0.515625 2.2187538 -2.078125 3.9375038l-1.625 -0.96875zm6.453125 -3.1875038q0.59375 1.40625 0.453125 3.9375038l-1.78125 0.0625q0.0625 -2.5156288 -0.234375 -3.9375038l1.5625 -0.0625zm5.796875 -2.828125l0 -2.890625l-8.3125 0l0 2.890625l8.3125 0zm-3.9375 -9.796875q0.59375 0.078125 0.078125 0.453125l0 1.625l6.234375 0l0 1.40625l-6.234375 0l0 2.015625l5.5625 0l0 6.15625l-1.703125 0l0 -0.453125l-8.3125 0l0 0.59375l-1.71875 0l0 -6.296875l4.453125 0l0 -5.5l1.640625 0zm20.484375 1.484375q3.265625 -0.515625 4.890625 -1.265625l0.828125 1.421875q0.296875 0.65625 -0.453125 0.296875q-2.75 0.59375 -5.1875 0.8125l0 3.109375l6.53125 0l0 1.421875l-2.453125 0l0 9.343754l-1.484375 0l0 -9.343754l-2.59375 0l0 2.296875q0 4.890629 -3.5625 7.281254l-1.125 -1.34375q3.203125 -1.9375038 3.203125 -6.093754l0 -8.453125l1.40625 0.515625zm-2.828125 2.671875l0 6.453125l-1.484375 0l0 -0.734375l-3.328125 0l0 2.078125q0 2.8125038 -1.1875 4.750004l-1.34375 -1.03125q1.046875 -1.5000038 1.046875 -3.7968788l0 -7.71875l6.296875 0zm-1.484375 4.3125l0 -2.90625l-3.328125 0l0 2.90625l3.328125 0zm-5.40625 -6.3125l0 -1.40625l7.421875 0l0 1.40625l-7.421875 0zm18.40625 8.015625q4.375 -2.453125 5.640625 -6.3125l-4.984375 0l0 -1.40625l5.34375 0q0.234375 -0.890625 0.375 -2.671875l1.9375 0.375q0.296875 0.296875 -0.234375 0.359375l-0.359375 1.9375l8.90625 0l0 1.40625l-9.203125 0q-0.296875 1.046875 -0.671875 1.703125l7.34375 0l0 9.875004q0 1.1875 -1.1875 1.1875l-1.703125 0l-0.375 -1.40625l1.484375 0q0.296875 0 0.296875 -0.296875l0 -2.0000038l-6.453125 0l0 3.9375038l-1.484375 0l0 -8.171879q-1.78125 1.859375 -3.78125 3.046875l-0.890625 -1.5625zm6.15625 -0.296875l0 1.625l6.453125 0l0 -1.625l-6.453125 0zm6.453125 -1.40625l0 -1.484375l-6.453125 0l0 1.484375l6.453125 0z" fill-rule="nonzero"/><path fill="#000000" d="m272.30353 58.697414q-0.078125 0.953125 -0.078125 2.03125q0 1.09375 0.078125 2.5625l-1.453125 0l0 -3.359375l-9.046875 0l0 3.796875l-1.453125 0q0.078125 -1.6875 0.078125 -2.78125q0 -1.15625 -0.078125 -2.25l11.953125 0zm-3.140625 -5.609375q-0.5 0.875 -0.0625 1.5q0.4375 0.609375 1.1875 1.15625q0.765625 0.546875 1.890625 0.921875q1.140625 0.359375 2.53125 0.421875q-0.59375 0.8125 -0.875 1.53125q-1.828125 -0.359375 -3.25 -1.078125q-1.421875 -0.734375 -2.359375 -2.34375q-0.65625 1.671875 -1.90625 2.328125q-1.234375 0.65625 -2.6875 1.09375q-0.59375 -0.65625 -1.171875 -1.15625q3.0625 -0.59375 4.0 -1.75q0.953125 -1.171875 1.03125 -2.84375l1.671875 0.21875zm-3.203125 -0.515625q-0.875 1.171875 -1.671875 1.75q-0.515625 -0.515625 -1.09375 -0.875q0.875 -0.578125 1.640625 -1.5625q0.765625 -0.984375 1.203125 -2.078125q0.65625 0.296875 1.59375 0.4375q-0.359375 0.65625 -0.875 1.15625l6.859375 0q-0.21875 0.4375 -1.3125 2.84375q-0.875 -0.21875 -1.453125 -0.28125q0.359375 -0.8125 0.640625 -1.390625l-5.53125 0zm1.171875 8.375q-0.375 0.8125 -0.5625 1.609375q-0.171875 0.796875 -0.9375 1.6406288q-0.765625 0.84375 -2.234375 1.5625q-1.453125 0.734375 -4.21875 1.171875q-0.21875 -0.734375 -0.875 -1.390625q2.125 -0.0625 3.53125 -0.546875q1.421875 -0.46875 2.15625 -1.0468788q0.734375 -0.59375 1.0625 -1.421875q0.328125 -0.84375 0.328125 -1.796875q0.875 0.15625 1.75 0.21875zm0.875 1.96875q1.375 0.515625 2.6875 1.03125q1.3125 0.5000038 3.140625 1.3125038q-0.4375 0.578125 -0.8125 1.453125q-1.375 -0.796875 -2.734375 -1.390625q-1.34375 -0.578125 -2.875 -1.09375q0.375 -0.5781288 0.59375 -1.3125038zm-5.109375 -7.640625q-1.8125 1.671875 -3.5 3.71875q-0.71875 -0.8125 -1.15625 -1.09375q2.328125 -1.828125 3.640625 -3.5q0.359375 0.359375 1.015625 0.875zm-1.09375 -1.90625q-1.15625 -0.875 -3.125 -2.03125q0.5 -0.515625 0.875 -1.015625q0.65625 0.4375 3.125 1.953125q-0.4375 0.4375 -0.875 1.09375z" fill-rule="nonzero"/><path fill="#000000" d="m280.25665 60.58804q-0.8125 2.59375 -2.296875 5.265629q0.078125 0.8125 -0.296875 0.453125l-1.40625 -1.34375q1.546875 -2.3750038 2.734375 -5.421879l1.265625 1.046875zm5.859375 1.921875q-0.59375 1.7031288 -1.921875 3.4218788l-1.265625 -1.046875q1.265625 -1.5625038 1.9375 -3.4843788l1.484375 0.734375q0.296875 0.296875 -0.234375 0.375zm6.3125 3.1250038q-1.625 -1.7187538 -2.75 -3.5625038l1.34375 -0.828125q1.40625 2.15625 2.515625 3.0468788l-1.109375 1.34375zm-6.90625 -7.796879l0 1.5625l5.203125 0l0 -1.5625l-5.203125 0zm0 -2.671875l0 1.484375l5.203125 0l0 -1.484375l-5.203125 0zm2.015625 5.640625l-1.640625 0l-1.625 0l0 -7.046875l2.59375 0l0.140625 -1.9375l-4.15625 0l0 8.609375q0 3.484375 -2.078125 6.171879l-1.1875 -1.34375q1.78125 -2.2343788 1.78125 -5.343754l0 -9.5l11.734375 0l0 1.40625l-4.3125 0l-0.515625 1.9375l3.71875 0l0 7.046875l-2.96875 0l0 4.531254q0 1.1875 -1.1875 1.1875l-1.34375 0l-0.296875 -1.40625l0.96875 0q0.375 0 0.375 -0.453125l0 -3.8593788zm-9.796875 -6.390625q1.546875 0.75 2.671875 1.9375l-1.125 1.5625q-1.109375 -1.265625 -2.515625 -2.015625l0.96875 -1.484375zm2.078125 -0.8125q-1.125 -1.1875 -2.375 -1.921875l0.890625 -1.484375q1.484375 0.65625 2.4375 1.84375l-0.953125 1.5625z" fill-rule="nonzero"/><path fill="#000000" fill-opacity="0.0" d="m123.99213 261.93964l170.11023 0l0 42.015747l-170.11023 0z" fill-rule="evenodd"/><path fill="#000000" d="m150.33588 288.2815q0.078125 1.453125 -0.734375 1.84375q-0.796875 0.40625 -2.328125 0.625q-0.21875 -0.875 -0.578125 -1.75q1.453125 0.078125 1.84375 -0.140625q0.40625 -0.21875 0.484375 -0.875l0 -12.3125l-7.0625 0l0 6.5625q0 3.046875 -0.515625 4.84375q-0.515625 1.78125 -1.828125 3.671875q-0.4375 -0.578125 -1.3125 -1.015625q0.953125 -1.09375 1.421875 -2.140625q0.484375 -1.0625 0.703125 -2.265625q0.21875 -1.203125 0.21875 -5.0q0 -3.859375 -0.078125 -5.75l9.84375 0q-0.078125 1.09375 -0.078125 2.90625l0 10.796875zm-2.40625 -4.734375q-0.078125 1.015625 -0.078125 1.890625q0 0.875 0.078125 2.1875l-4.953125 0q0.078125 -1.3125 0.078125 -2.1875q0 -0.875 -0.078125 -1.890625l4.953125 0zm-8.75 0.640625q0.296875 0.65625 0.8125 1.171875q-0.953125 0.953125 -1.546875 1.609375q-0.578125 0.65625 -1.59375 1.75q-0.5 -0.59375 -0.9375 -1.03125q0.5 -0.578125 0.5 -1.234375l0 -5.828125l-0.65625 0q-0.5 0 -1.890625 0.078125l0 -1.3125q1.390625 0.0625 1.890625 0.0625l2.046875 0q-0.078125 1.3125 -0.078125 2.921875l0 3.421875q0.359375 -0.296875 1.453125 -1.609375zm5.625 -6.046875q0 -0.875 -0.078125 -1.8125l1.390625 0q-0.078125 0.875 -0.078125 1.8125q0.796875 0 1.890625 -0.0625l0 1.234375q-1.09375 -0.078125 -1.890625 -0.078125l0 1.828125q1.3125 0 2.1875 -0.078125l0 1.3125q-1.171875 -0.0625 -2.703125 -0.0625q-1.53125 0 -2.765625 0.0625l0 -1.3125q1.234375 0.078125 2.046875 0.078125l0 -1.828125q-0.953125 0 -1.96875 0.078125l0 -1.234375q1.09375 0.0625 1.96875 0.0625zm1.8125 8.453125l0 -2.03125l-2.328125 0l0 2.03125l2.328125 0zm-9.984375 -12.375q0.8125 0.9375 2.109375 2.6875q-0.65625 0.359375 -1.15625 0.953125q-1.453125 -2.1875 -2.046875 -2.78125q0.59375 -0.359375 1.09375 -0.859375z" fill-rule="nonzero"/><path fill="#000000" d="m169.02338 290.56274q-3.5625 -0.4375 -6.3125 -1.859375q-2.59375 1.5625 -6.234375 1.9375l-0.59375 -1.5625q3.34375 -0.296875 5.5625 -1.40625q-1.1875 -1.1875 -2.15625 -2.53125l-2.078125 0l0 -1.1875l8.6875 0l0.21875 -0.21875l1.125 0.890625q0.296875 0.453125 -0.296875 0.375q-1.265625 1.484375 -3.046875 2.75q2.59375 0.890625 5.484375 1.109375l-0.359375 1.703125zm-6.765625 -15.140625l6.6875 0l0 1.40625l-13.140625 0l0 6.53125q0 4.15625 -1.859375 6.984375l-1.328125 -1.109375q1.703125 -2.3125 1.703125 -6.171875l0 -7.640625l6.234375 0l0 -1.921875l1.640625 0q0.59375 0.0625 0.0625 0.4375l0 1.484375zm0.453125 11.5q0.890625 -0.59375 2.078125 -1.78125l-3.859375 0q0.734375 0.890625 1.78125 1.78125zm2.671875 -4.0l-1.484375 0l0 -0.453125l-3.1875 0l0 0.53125l-1.484375 0l0 -2.96875l-2.96875 0l0 -1.1875l2.96875 0l0 -1.421875l1.40625 0q0.59375 0.078125 0.078125 0.453125l0 0.96875l3.1875 0l0 -1.5625l1.40625 0q0.59375 0.078125 0.078125 0.4375l0 1.125l3.5625 0l0 1.1875l-3.5625 0l0 2.890625zm-1.484375 -2.890625l-3.1875 0l0 1.25l3.1875 0l0 -1.25zm16.765625 -1.484375q0.59375 0.140625 0 0.4375q-0.140625 0.671875 -0.359375 1.265625l7.859375 0l0 1.40625l-5.640625 0q2.59375 1.78125 6.390625 2.453125l-0.375 1.5625q-1.484375 -0.296875 -2.078125 -0.59375l0 5.046875l-1.484375 0l0 -0.8125l-2.59375 0l0 1.03125l-1.484375 0l0 -5.9375l3.859375 0q-2.15625 -0.890625 -3.9375 -2.75l-1.1875 0q-1.1875 1.703125 -3.1875 2.75l2.96875 0l0 5.796875l-1.484375 0l0 -0.890625l-2.53125 0l0 1.109375l-1.484375 0l0 -4.90625q-0.671875 0.375 -2.0 0.671875l-0.515625 -1.5625q4.0 -0.59375 6.53125 -2.96875l-5.796875 0l0 -1.40625l6.6875 0q0.4375 -0.8125 0.59375 -1.78125l1.25 0.078125zm-1.484375 0.359375l-1.484375 0l0 -0.359375l-2.890625 0l0 0.65625l-1.484375 0l0 -5.1875l5.859375 0l0 4.890625zm1.859375 -4.890625l5.9375 0l0 4.890625l-1.484375 0l0 -0.359375l-2.96875 0l0 0.65625l-1.484375 0l0 -5.1875zm3.9375 14.09375l0 -2.515625l-2.59375 0l0 2.515625l2.59375 0zm-7.28125 -10.75l0 -2.15625l-2.890625 0l0 2.15625l2.890625 0zm7.796875 -2.15625l-2.96875 0l0 2.15625l2.96875 0l0 -2.15625zm-7.5625 12.90625l0 -2.515625l-2.53125 0l0 2.515625l2.53125 0zm12.984375 -13.203125l16.328125 0l0 1.625l-2.296875 0l0 12.171875q0 1.421875 -1.34375 1.421875l-2.515625 0l-0.296875 -1.640625l2.140625 0q0.296875 0 0.296875 -0.296875l0 -11.65625l-12.3125 0l0 -1.625zm9.796875 11.421875l-1.703125 0l0 -0.65625l-4.09375 0l0 1.40625l-1.703125 0l0 -7.9375l7.5 0l0 7.1875zm-1.703125 -5.78125l-4.09375 0l0 3.703125l4.09375 0l0 -3.703125zm25.0 3.703125l-4.8125 0l0 5.65625l-1.484375 0l0 -5.65625l-4.453125 0q-0.15625 3.859375 -2.3125 6.171875l-1.1875 -1.1875q2.015625 -2.234375 2.015625 -5.203125l0 -9.5l13.71875 0l0 14.171875q0 1.203125 -1.1875 1.203125l-2.078125 0l-0.359375 -1.640625l1.84375 0q0.296875 0 0.296875 -0.296875l0 -3.71875zm-10.75 -4.15625l0 2.75l4.453125 0l0 -2.75l-4.453125 0zm0 -4.15625l0 2.75l4.453125 0l0 -2.75l-4.453125 0zm5.9375 4.15625l0 2.75l4.8125 0l0 -2.75l-4.8125 0zm0 -4.15625l0 2.75l4.8125 0l0 -2.75l-4.8125 0zm20.109375 2.375q-0.75 2.078125 -2.375 3.9375l-1.109375 -1.328125q2.515625 -2.53125 3.1875 -7.203125l1.5625 0.515625q0.65625 0.296875 -0.078125 0.453125q-0.21875 1.03125 -0.59375 2.21875l5.34375 0l-0.375 10.09375q-0.078125 2.96875 -2.375 2.96875l-2.078125 0l-0.21875 -1.40625l1.921875 0q1.046875 0 1.125 -1.34375l0.359375 -8.90625l-4.296875 0zm0.890625 6.90625q-1.046875 -1.484375 -2.296875 -2.671875l1.25 -1.328125q1.484375 1.328125 2.375 2.59375l-1.328125 1.40625zm-8.765625 -8.3125q0.453125 -1.40625 0.828125 -3.265625l1.78125 0.671875q0.296875 0.296875 -0.234375 0.375q-0.21875 0.953125 -0.8125 2.21875l2.75 0l0 12.25l-1.484375 0l0 -0.890625l-3.265625 0l0 1.484375l-1.484375 0l0 -12.84375l1.921875 0zm2.828125 1.40625l-3.265625 0l0 3.265625l3.265625 0l0 -3.265625zm0 4.6875l-3.265625 0l0 3.859375l3.265625 0l0 -3.859375z" fill-rule="nonzero"/><path fill="#000000" d="m262.1015 282.594q-0.078125 0.953125 -0.078125 2.03125q0 1.09375 0.078125 2.5625l-1.453125 0l0 -3.359375l-9.046875 0l0 3.796875l-1.453125 0q0.078125 -1.6875 0.078125 -2.78125q0 -1.15625 -0.078125 -2.25l11.953125 0zm-3.140625 -5.609375q-0.5 0.875 -0.0625 1.5q0.4375 0.609375 1.1875 1.15625q0.765625 0.546875 1.890625 0.921875q1.140625 0.359375 2.53125 0.421875q-0.59375 0.8125 -0.875 1.53125q-1.828125 -0.359375 -3.25 -1.078125q-1.421875 -0.734375 -2.359375 -2.34375q-0.65625 1.671875 -1.90625 2.328125q-1.234375 0.65625 -2.6875 1.09375q-0.59375 -0.65625 -1.171875 -1.15625q3.0625 -0.59375 4.0 -1.75q0.953125 -1.171875 1.03125 -2.84375l1.671875 0.21875zm-3.203125 -0.515625q-0.875 1.171875 -1.671875 1.75q-0.515625 -0.515625 -1.09375 -0.875q0.875 -0.578125 1.640625 -1.5625q0.765625 -0.984375 1.203125 -2.078125q0.65625 0.296875 1.59375 0.4375q-0.359375 0.65625 -0.875 1.15625l6.859375 0q-0.21875 0.4375 -1.3125 2.84375q-0.875 -0.21875 -1.453125 -0.28125q0.359375 -0.8125 0.640625 -1.390625l-5.53125 0zm1.171875 8.375q-0.375 0.8125 -0.5625 1.609375q-0.171875 0.796875 -0.9375 1.640625q-0.765625 0.84375 -2.234375 1.5625q-1.453125 0.734375 -4.21875 1.171875q-0.21875 -0.734375 -0.875 -1.390625q2.125 -0.0625 3.53125 -0.546875q1.421875 -0.46875 2.15625 -1.046875q0.734375 -0.59375 1.0625 -1.421875q0.328125 -0.84375 0.328125 -1.796875q0.875 0.15625 1.75 0.21875zm0.875 1.96875q1.375 0.515625 2.6875 1.03125q1.3125 0.5 3.140625 1.3125q-0.4375 0.578125 -0.8125 1.453125q-1.375 -0.796875 -2.734375 -1.390625q-1.34375 -0.578125 -2.875 -1.09375q0.375 -0.578125 0.59375 -1.3125zm-5.109375 -7.640625q-1.8125 1.671875 -3.5 3.71875q-0.71875 -0.8125 -1.15625 -1.09375q2.328125 -1.828125 3.640625 -3.5q0.359375 0.359375 1.015625 0.875zm-1.09375 -1.90625q-1.15625 -0.875 -3.125 -2.03125q0.5 -0.515625 0.875 -1.015625q0.65625 0.4375 3.125 1.953125q-0.4375 0.4375 -0.875 1.09375z" fill-rule="nonzero"/><path fill="#000000" d="m270.05463 284.48462q-0.8125 2.59375 -2.296875 5.265625q0.078125 0.8125 -0.296875 0.453125l-1.40625 -1.34375q1.546875 -2.375 2.734375 -5.421875l1.265625 1.046875zm5.859375 1.921875q-0.59375 1.703125 -1.921875 3.421875l-1.265625 -1.046875q1.265625 -1.5625 1.9375 -3.484375l1.484375 0.734375q0.296875 0.296875 -0.234375 0.375zm6.3125 3.125q-1.625 -1.71875 -2.75 -3.5625l1.34375 -0.828125q1.40625 2.15625 2.515625 3.046875l-1.109375 1.34375zm-6.90625 -7.796875l0 1.5625l5.203125 0l0 -1.5625l-5.203125 0zm0 -2.671875l0 1.484375l5.203125 0l0 -1.484375l-5.203125 0zm2.015625 5.640625l-1.640625 0l-1.625 0l0 -7.046875l2.59375 0l0.140625 -1.9375l-4.15625 0l0 8.609375q0 3.484375 -2.078125 6.171875l-1.1875 -1.34375q1.78125 -2.234375 1.78125 -5.34375l0 -9.5l11.734375 0l0 1.40625l-4.3125 0l-0.515625 1.9375l3.71875 0l0 7.046875l-2.96875 0l0 4.53125q0 1.1875 -1.1875 1.1875l-1.34375 0l-0.296875 -1.40625l0.96875 0q0.375 0 0.375 -0.453125l0 -3.859375zm-9.796875 -6.390625q1.546875 0.75 2.671875 1.9375l-1.125 1.5625q-1.109375 -1.265625 -2.515625 -2.015625l0.96875 -1.484375zm2.078125 -0.8125q-1.125 -1.1875 -2.375 -1.921875l0.890625 -1.484375q1.484375 0.65625 2.4375 1.84375l-0.953125 1.5625z" fill-rule="nonzero"/></g></svg>