<svg version="1.1" viewBox="0.0 0.0 685.0 327.0" fill="none" stroke="none" stroke-linecap="square" stroke-miterlimit="10" xmlns:xlink="http://www.w3.org/1999/xlink" xmlns="http://www.w3.org/2000/svg"><clipPath id="p.0"><path d="m0 0l685.0 0l0 327.0l-685.0 0l0 -327.0z" clip-rule="nonzero"/></clipPath><g clip-path="url(#p.0)"><path fill="#000000" fill-opacity="0.0" d="m0 0l685.0 0l0 327.0l-685.0 0z" fill-rule="evenodd"/><path fill="#ffffff" d="m7.0 79.9895l668.0 0l0 73.19685l-668.0 0z" fill-rule="evenodd"/><path stroke="#000000" stroke-width="1.0" stroke-linejoin="round" stroke-linecap="butt" d="m7.0 79.9895l668.0 0l0 73.19685l-668.0 0z" fill-rule="evenodd"/><path fill="#cfe2f3" d="m572.8898 28.796587l0 0c0 2.8157825 11.8168335 5.098425 26.393677 5.098425c14.576843 0 26.393738 -2.2826424 26.393738 -5.098425l0 30.590551c0 2.8157845 -11.816895 5.098427 -26.393738 5.098427c-14.576843 0 -26.393677 -2.2826424 -26.393677 -5.098427z" fill-rule="evenodd"/><path fill="#e2edf7" d="m572.8898 28.796587l0 0c0 -2.8157806 11.8168335 -5.098425 26.393677 -5.098425c14.576843 0 26.393738 2.2826443 26.393738 5.098425l0 0c0 2.8157825 -11.816895 5.098425 -26.393738 5.098425c-14.576843 0 -26.393677 -2.2826424 -26.393677 -5.098425z" fill-rule="evenodd"/><path fill="#000000" fill-opacity="0.0" d="m625.6772 28.796587l0 0c0 2.8157825 -11.816895 5.098425 -26.393738 5.098425c-14.576843 0 -26.393677 -2.2826424 -26.393677 -5.098425l0 0c0 -2.8157806 11.8168335 -5.098425 26.393677 -5.098425c14.576843 0 26.393738 2.2826443 26.393738 5.098425l0 30.590551c0 2.8157845 -11.816895 5.098427 -26.393738 5.098427c-14.576843 0 -26.393677 -2.2826424 -26.393677 -5.098427l0 -30.590551" fill-rule="evenodd"/><path stroke="#000000" stroke-width="1.0" stroke-linejoin="round" stroke-linecap="butt" d="m625.6772 28.796587l0 0c0 2.8157825 -11.816895 5.098425 -26.393738 5.098425c-14.576843 0 -26.393677 -2.2826424 -26.393677 -5.098425l0 0c0 -2.8157806 11.8168335 -5.098425 26.393677 -5.098425c14.576843 0 26.393738 2.2826443 26.393738 5.098425l0 30.590551c0 2.8157845 -11.816895 5.098427 -26.393738 5.098427c-14.576843 0 -26.393677 -2.2826424 -26.393677 -5.098427l0 -30.590551" fill-rule="evenodd"/><path fill="#000000" fill-opacity="0.0" d="m566.2756 28.469816l66.01575 0l0 42.015747l-66.01575 0z" fill-rule="evenodd"/><path fill="#000000" d="m582.08685 55.389816l0 -13.359375l9.65625 0l0 1.578125l-7.875 0l0 4.09375l7.375 0l0 1.5625l-7.375 0l0 4.546875l8.1875 0l0 1.578125l-9.96875 0zm15.7873535 -1.46875l0.234375 1.453125q-0.6875 0.140625 -1.234375 0.140625q-0.890625 0 -1.390625 -0.28125q-0.484375 -0.28125 -0.6875 -0.734375q-0.203125 -0.46875 -0.203125 -1.9375l0 -5.578125l-1.203125 0l0 -1.265625l1.203125 0l0 -2.390625l1.625 -0.984375l0 3.375l1.65625 0l0 1.265625l-1.65625 0l0 5.671875q0 0.6875 0.078125 0.890625q0.09375 0.203125 0.28125 0.328125q0.203125 0.109375 0.578125 0.109375q0.265625 0 0.71875 -0.0625zm7.9176636 -2.078125l1.609375 0.21875q-0.265625 1.65625 -1.359375 2.609375q-1.078125 0.9375 -2.671875 0.9375q-1.984375 0 -3.1875 -1.296875q-1.203125 -1.296875 -1.203125 -3.71875q0 -1.578125 0.515625 -2.75q0.515625 -1.171875 1.578125 -1.75q1.0625 -0.59375 2.3125 -0.59375q1.578125 0 2.578125 0.796875q1.0 0.796875 1.28125 2.265625l-1.59375 0.234375q-0.234375 -0.96875 -0.8125 -1.453125q-0.578125 -0.5 -1.390625 -0.5q-1.234375 0 -2.015625 0.890625q-0.78125 0.890625 -0.78125 2.8125q0 1.953125 0.75 2.84375q0.75 0.875 1.953125 0.875q0.96875 0 1.609375 -0.59375q0.65625 -0.59375 0.828125 -1.828125zm9.28125 3.546875l0 -1.21875q-0.90625 1.4375 -2.703125 1.4375q-1.15625 0 -2.125 -0.640625q-0.96875 -0.640625 -1.5 -1.78125q-0.53125 -1.140625 -0.53125 -2.625q0 -1.453125 0.484375 -2.625q0.484375 -1.1875 1.4375 -1.8125q0.96875 -0.625 2.171875 -0.625q0.875 0 1.546875 0.375q0.6875 0.359375 1.109375 0.953125l0 -4.796875l1.640625 0l0 13.359375l-1.53125 0zm-5.171875 -4.828125q0 1.859375 0.78125 2.78125q0.78125 0.921875 1.84375 0.921875q1.078125 0 1.828125 -0.875q0.75 -0.890625 0.75 -2.6875q0 -1.984375 -0.765625 -2.90625q-0.765625 -0.9375 -1.890625 -0.9375q-1.078125 0 -1.8125 0.890625q-0.734375 0.890625 -0.734375 2.8125z" fill-rule="nonzero"/><path fill="#ffffff" d="m9.503937 232.01575l665.51184 0l0 78.92914l-665.51184 0z" fill-rule="evenodd"/><path stroke="#000000" stroke-width="1.0" stroke-linejoin="round" stroke-linecap="butt" d="m9.503937 232.01575l665.51184 0l0 78.92914l-665.51184 0z" fill-rule="evenodd"/><path fill="#cfe2f3" d="m215.12335 255.82677l110.20474 0l0 31.307083l-110.20474 0z" fill-rule="evenodd"/><path stroke="#000000" stroke-width="2.0" stroke-linejoin="round" stroke-linecap="butt" d="m215.12335 255.82677l110.20474 0l0 31.307083l-110.20474 0z" fill-rule="evenodd"/><path fill="#000000" d="m233.66322 277.3403l0 -11.453125l4.328125 0q1.140625 0 1.734375 0.109375q0.84375 0.140625 1.40625 0.53125q0.578125 0.390625 0.921875 1.109375q0.359375 0.703125 0.359375 1.5625q0 1.453125 -0.9375 2.46875q-0.921875 1.015625 -3.359375 1.015625l-2.9375 0l0 4.65625l-1.515625 0zm1.515625 -6.015625l2.96875 0q1.46875 0 2.078125 -0.546875q0.625 -0.546875 0.625 -1.53125q0 -0.71875 -0.375 -1.234375q-0.359375 -0.515625 -0.953125 -0.671875q-0.375 -0.109375 -1.40625 -0.109375l-2.9375 0l0 4.09375zm8.96875 6.015625l0 -8.296875l1.265625 0l0 1.25q0.484375 -0.875 0.890625 -1.15625q0.40625 -0.28125 0.90625 -0.28125q0.703125 0 1.4375 0.453125l-0.484375 1.296875q-0.515625 -0.296875 -1.03125 -0.296875q-0.453125 0 -0.828125 0.28125q-0.359375 0.265625 -0.515625 0.765625q-0.234375 0.75 -0.234375 1.640625l0 4.34375l-1.40625 0zm11.015625 -2.671875l1.4531097 0.171875q-0.34375 1.28125 -1.2812347 1.984375q-0.921875 0.703125 -2.359375 0.703125q-1.828125 0 -2.890625 -1.125q-1.0625 -1.125 -1.0625 -3.140625q0 -2.09375 1.078125 -3.25q1.078125 -1.15625 2.796875 -1.15625q1.65625 0 2.703125 1.140625q1.0624847 1.125 1.0624847 3.171875q0 0.125 0 0.375l-6.1874847 0q0.078125 1.375 0.765625 2.109375q0.703125 0.71875 1.734375 0.71875q0.78125 0 1.328125 -0.40625q0.546875 -0.40625 0.859375 -1.296875zm-4.609375 -2.28125l4.625 0q-0.09375 -1.046875 -0.53125 -1.5625q-0.671875 -0.8125 -1.734375 -0.8125q-0.96875 0 -1.640625 0.65625q-0.65625 0.640625 -0.71875 1.71875zm13.210922 4.953125l0 -1.046875q-0.78125 1.234375 -2.3125 1.234375q-1.0 0 -1.828125 -0.546875q-0.828125 -0.546875 -1.296875 -1.53125q-0.453125 -0.984375 -0.453125 -2.25q0 -1.25 0.40625 -2.25q0.421875 -1.015625 1.25 -1.546875q0.828125 -0.546875 1.859375 -0.546875q0.75 0 1.328125 0.3125q0.59375 0.3125 0.953125 0.828125l0 -4.109375l1.40625 0l0 11.453125l-1.3125 0zm-4.4375 -4.140625q0 1.59375 0.671875 2.390625q0.671875 0.78125 1.578125 0.78125q0.921875 0 1.5625 -0.75q0.65625 -0.765625 0.65625 -2.3125q0 -1.703125 -0.65625 -2.5q-0.65625 -0.796875 -1.625 -0.796875q-0.9375 0 -1.5625 0.765625q-0.625 0.765625 -0.625 2.421875zm7.9609375 -5.703125l0 -1.609375l1.40625 0l0 1.609375l-1.40625 0zm0 9.84375l0 -8.296875l1.40625 0l0 8.296875l-1.40625 0zm8.9609375 -3.046875l1.390625 0.1875q-0.234375 1.421875 -1.171875 2.234375q-0.921875 0.8125 -2.28125 0.8125q-1.703125 0 -2.75 -1.109375q-1.03125 -1.125 -1.03125 -3.203125q0 -1.34375 0.4375 -2.34375q0.453125 -1.015625 1.359375 -1.515625q0.921875 -0.5 1.984375 -0.5q1.359375 0 2.21875 0.6875q0.859375 0.671875 1.09375 1.9375l-1.359375 0.203125q-0.203125 -0.828125 -0.703125 -1.25q-0.484375 -0.421875 -1.1875 -0.421875q-1.0625 0 -1.734375 0.765625q-0.65625 0.75 -0.65625 2.40625q0 1.671875 0.640625 2.4375q0.640625 0.75 1.671875 0.75q0.828125 0 1.375 -0.5q0.5625 -0.515625 0.703125 -1.578125zm8.0 2.015625q-0.78125 0.671875 -1.5 0.953125q-0.71875 0.265625 -1.546875 0.265625q-1.375 0 -2.109375 -0.671875q-0.734375 -0.671875 -0.734375 -1.703125q0 -0.609375 0.28125 -1.109375q0.28125 -0.515625 0.71875 -0.8125q0.453125 -0.3125 1.015625 -0.46875q0.421875 -0.109375 1.25 -0.203125q1.703125 -0.203125 2.515625 -0.484375q0 -0.296875 0 -0.375q0 -0.859375 -0.390625 -1.203125q-0.546875 -0.484375 -1.609375 -0.484375q-0.984375 0 -1.46875 0.359375q-0.46875 0.34375 -0.6875 1.21875l-1.375 -0.1875q0.1875 -0.875 0.609375 -1.421875q0.4375 -0.546875 1.25 -0.828125q0.8125 -0.296875 1.875 -0.296875q1.0625 0 1.71875 0.25q0.671875 0.25 0.984375 0.625q0.3125 0.375 0.4375 0.953125q0.078125 0.359375 0.078125 1.296875l0 1.875q0 1.96875 0.078125 2.484375q0.09375 0.515625 0.359375 1.0l-1.46875 0q-0.21875 -0.4375 -0.28125 -1.03125zm-0.109375 -3.140625q-0.765625 0.3125 -2.296875 0.53125q-0.875 0.125 -1.234375 0.28125q-0.359375 0.15625 -0.5625 0.46875q-0.1875 0.296875 -0.1875 0.65625q0 0.5625 0.421875 0.9375q0.4375 0.375 1.25 0.375q0.8125 0 1.4375 -0.34375q0.640625 -0.359375 0.9375 -0.984375q0.234375 -0.46875 0.234375 -1.40625l0 -0.515625zm6.6640625 2.90625l0.203125 1.25q-0.59375 0.125 -1.0625 0.125q-0.765625 0 -1.1875 -0.234375q-0.421875 -0.25 -0.59375 -0.640625q-0.171875 -0.40625 -0.171875 -1.671875l0 -4.765625l-1.03125 0l0 -1.09375l1.03125 0l0 -2.0625l1.40625 -0.84375l0 2.90625l1.40625 0l0 1.09375l-1.40625 0l0 4.84375q0 0.609375 0.0625 0.78125q0.078125 0.171875 0.25 0.28125q0.171875 0.09375 0.484375 0.09375q0.234375 0 0.609375 -0.0625zm7.0546875 -1.40625l1.453125 0.171875q-0.34375 1.28125 -1.28125 1.984375q-0.921875 0.703125 -2.359375 0.703125q-1.828125 0 -2.890625 -1.125q-1.0625 -1.125 -1.0625 -3.140625q0 -2.09375 1.078125 -3.25q1.078125 -1.15625 2.796875 -1.15625q1.65625 0 2.703125 1.140625q1.0625 1.125 1.0625 3.171875q0 0.125 0 0.375l-6.1875 0q0.078125 1.375 0.765625 2.109375q0.703125 0.71875 1.734375 0.71875q0.78125 0 1.328125 -0.40625q0.546875 -0.40625 0.859375 -1.296875zm-4.609375 -2.28125l4.625 0q-0.09375 -1.046875 -0.53125 -1.5625q-0.671875 -0.8125 -1.734375 -0.8125q-0.96875 0 -1.640625 0.65625q-0.65625 0.640625 -0.71875 1.71875zm7.2734375 2.46875l1.390625 -0.21875q0.109375 0.84375 0.640625 1.296875q0.546875 0.4375 1.5 0.4375q0.96875 0 1.4375 -0.390625q0.46875 -0.40625 0.46875 -0.9375q0 -0.46875 -0.40625 -0.75q-0.296875 -0.1875 -1.4375 -0.46875q-1.546875 -0.390625 -2.15625 -0.671875q-0.59375 -0.296875 -0.90625 -0.796875q-0.296875 -0.5 -0.296875 -1.109375q0 -0.5625 0.25 -1.03125q0.25 -0.46875 0.6875 -0.78125q0.328125 -0.25 0.890625 -0.40625q0.578125 -0.171875 1.21875 -0.171875q0.984375 0 1.71875 0.28125q0.734375 0.28125 1.078125 0.765625q0.359375 0.46875 0.5 1.28125l-1.375 0.1875q-0.09375 -0.640625 -0.546875 -1.0q-0.453125 -0.359375 -1.265625 -0.359375q-0.96875 0 -1.390625 0.328125q-0.40625 0.3125 -0.40625 0.734375q0 0.28125 0.171875 0.5q0.171875 0.21875 0.53125 0.375q0.21875 0.078125 1.25 0.359375q1.484375 0.390625 2.078125 0.65625q0.59375 0.25 0.921875 0.734375q0.34375 0.484375 0.34375 1.203125q0 0.703125 -0.421875 1.328125q-0.40625 0.609375 -1.1875 0.953125q-0.765625 0.34375 -1.734375 0.34375q-1.625 0 -2.46875 -0.671875q-0.84375 -0.671875 -1.078125 -2.0z" fill-rule="nonzero"/><path fill="#cfe2f3" d="m352.6168 255.82677l112.09448 0l0 31.307083l-112.09448 0z" fill-rule="evenodd"/><path stroke="#000000" stroke-width="2.0" stroke-linejoin="round" stroke-linecap="butt" d="m352.6168 255.82677l112.09448 0l0 31.307083l-112.09448 0z" fill-rule="evenodd"/><path fill="#000000" d="m385.00778 277.3403l0 -11.453125l4.328125 0q1.140625 0 1.734375 0.109375q0.84375 0.140625 1.40625 0.53125q0.578125 0.390625 0.921875 1.109375q0.359375 0.703125 0.359375 1.5625q0 1.453125 -0.9375 2.46875q-0.921875 1.015625 -3.359375 1.015625l-2.9375 0l0 4.65625l-1.515625 0zm1.515625 -6.015625l2.96875 0q1.46875 0 2.078125 -0.546875q0.625 -0.546875 0.625 -1.53125q0 -0.71875 -0.375 -1.234375q-0.359375 -0.515625 -0.953125 -0.671875q-0.375 -0.109375 -1.40625 -0.109375l-2.9375 0l0 4.09375zm8.96875 6.015625l0 -8.296875l1.265625 0l0 1.25q0.484375 -0.875 0.890625 -1.15625q0.40625 -0.28125 0.90625 -0.28125q0.703125 0 1.4375 0.453125l-0.484375 1.296875q-0.515625 -0.296875 -1.03125 -0.296875q-0.453125 0 -0.828125 0.28125q-0.359375 0.265625 -0.515625 0.765625q-0.234375 0.75 -0.234375 1.640625l0 4.34375l-1.40625 0zm5.34375 -9.84375l0 -1.609375l1.40625 0l0 1.609375l-1.40625 0zm0 9.84375l0 -8.296875l1.40625 0l0 8.296875l-1.40625 0zm3.0234375 -4.15625q0 -2.296875 1.28125 -3.40625q1.078125 -0.921875 2.609375 -0.921875q1.71875 0 2.796875 1.125q1.09375 1.109375 1.09375 3.09375q0 1.59375 -0.484375 2.515625q-0.484375 0.921875 -1.40625 1.4375q-0.90625 0.5 -2.0 0.5q-1.734375 0 -2.8125 -1.109375q-1.078125 -1.125 -1.078125 -3.234375zm1.453125 0q0 1.59375 0.6875 2.390625q0.703125 0.796875 1.75 0.796875q1.046875 0 1.734375 -0.796875q0.703125 -0.796875 0.703125 -2.4375q0 -1.53125 -0.703125 -2.328125q-0.6875 -0.796875 -1.734375 -0.796875q-1.046875 0 -1.75 0.796875q-0.6875 0.78125 -0.6875 2.375zm7.9609375 4.15625l0 -8.296875l1.265625 0l0 1.25q0.484375 -0.875 0.890625 -1.15625q0.40625 -0.28125 0.90625 -0.28125q0.703125 0 1.4375 0.453125l-0.484375 1.296875q-0.515625 -0.296875 -1.03125 -0.296875q-0.453125 0 -0.828125 0.28125q-0.359375 0.265625 -0.515625 0.765625q-0.234375 0.75 -0.234375 1.640625l0 4.34375l-1.40625 0zm5.34375 -9.84375l0 -1.609375l1.40625 0l0 1.609375l-1.40625 0zm0 9.84375l0 -8.296875l1.40625 0l0 8.296875l-1.40625 0zm6.6171875 -1.265625l0.203125 1.25q-0.59375 0.125 -1.0625 0.125q-0.765625 0 -1.1875 -0.234375q-0.421875 -0.25 -0.59375 -0.640625q-0.171875 -0.40625 -0.171875 -1.671875l0 -4.765625l-1.03125 0l0 -1.09375l1.03125 0l0 -2.0625l1.40625 -0.84375l0 2.90625l1.40625 0l0 1.09375l-1.40625 0l0 4.84375q0 0.609375 0.0625 0.78125q0.078125 0.171875 0.25 0.28125q0.171875 0.09375 0.484375 0.09375q0.234375 0 0.609375 -0.0625zm1.3203125 4.46875l-0.15625 -1.328125q0.453125 0.125 0.796875 0.125q0.46875 0 0.75 -0.15625q0.28125 -0.15625 0.46875 -0.4375q0.125 -0.203125 0.421875 -1.046875q0.046875 -0.109375 0.125 -0.34375l-3.140625 -8.3125l1.515625 0l1.71875 4.796875q0.34375 0.921875 0.609375 1.921875q0.234375 -0.96875 0.578125 -1.890625l1.765625 -4.828125l1.40625 0l-3.15625 8.4375q-0.5 1.375 -0.78125 1.890625q-0.375 0.6875 -0.859375 1.015625q-0.484375 0.328125 -1.15625 0.328125q-0.40625 0 -0.90625 -0.171875z" fill-rule="nonzero"/><path fill="#ffd966" d="m514.17584 271.48032l0 0c0 -12.915649 17.605469 -23.385834 39.322876 -23.385834l0 0c21.717407 0 39.322815 10.470184 39.322815 23.385834l0 0c0 12.915649 -17.605408 23.385834 -39.322815 23.385834l0 0c-21.717407 0 -39.322876 -10.470184 -39.322876 -23.385834z" fill-rule="evenodd"/><path stroke="#000000" stroke-width="2.0" stroke-linejoin="round" stroke-linecap="butt" d="m514.17584 271.48032l0 0c0 -12.915649 17.605469 -23.385834 39.322876 -23.385834l0 0c21.717407 0 39.322815 10.470184 39.322815 23.385834l0 0c0 12.915649 -17.605408 23.385834 -39.322815 23.385834l0 0c-21.717407 0 -39.322876 -10.470184 -39.322876 -23.385834z" fill-rule="evenodd"/><path fill="#000000" d="m538.6589 277.3403l0 -11.453125l4.296875 0q1.3125 0 2.109375 0.34375q0.796875 0.34375 1.234375 1.078125q0.453125 0.71875 0.453125 1.5q0 0.734375 -0.40625 1.390625q-0.390625 0.640625 -1.1875 1.046875q1.03125 0.296875 1.59375 1.03125q0.5625 0.734375 0.5625 1.734375q0 0.8125 -0.34375 1.5q-0.34375 0.6875 -0.84375 1.0625q-0.5 0.375 -1.25 0.578125q-0.75 0.1875 -1.84375 0.1875l-4.375 0zm1.515625 -6.640625l2.484375 0q1.0 0 1.4375 -0.140625q0.578125 -0.171875 0.875 -0.5625q0.296875 -0.40625 0.296875 -1.0q0 -0.578125 -0.28125 -1.0q-0.265625 -0.4375 -0.78125 -0.59375q-0.5 -0.171875 -1.734375 -0.171875l-2.296875 0l0 3.46875zm0 5.28125l2.859375 0q0.734375 0 1.03125 -0.046875q0.515625 -0.09375 0.859375 -0.3125q0.359375 -0.21875 0.578125 -0.640625q0.234375 -0.421875 0.234375 -0.96875q0 -0.640625 -0.328125 -1.109375q-0.328125 -0.46875 -0.90625 -0.65625q-0.578125 -0.203125 -1.671875 -0.203125l-2.65625 0l0 3.9375zm9.046875 -8.484375l0 -1.609375l1.40625 0l0 1.609375l-1.40625 0zm0 9.84375l0 -8.296875l1.40625 0l0 8.296875l-1.40625 0zm3.5546875 0l0 -8.296875l1.265625 0l0 1.171875q0.90625 -1.359375 2.640625 -1.359375q0.75 0 1.375 0.265625q0.625 0.265625 0.9375 0.703125q0.3125 0.4375 0.4375 1.046875q0.078125 0.390625 0.078125 1.359375l0 5.109375l-1.40625 0l0 -5.046875q0 -0.859375 -0.171875 -1.28125q-0.15625 -0.4375 -0.578125 -0.6875q-0.40625 -0.25 -0.96875 -0.25q-0.90625 0 -1.5625 0.578125q-0.640625 0.5625 -0.640625 2.15625l0 4.53125l-1.40625 0zm14.2734375 0l0 -1.046875q-0.78125 1.234375 -2.3125 1.234375q-1.0 0 -1.828125 -0.546875q-0.828125 -0.546875 -1.296875 -1.53125q-0.453125 -0.984375 -0.453125 -2.25q0 -1.25 0.40625 -2.25q0.421875 -1.015625 1.25 -1.546875q0.828125 -0.546875 1.859375 -0.546875q0.75 0 1.328125 0.3125q0.59375 0.3125 0.953125 0.828125l0 -4.109375l1.40625 0l0 11.453125l-1.3125 0zm-4.4375 -4.140625q0 1.59375 0.671875 2.390625q0.671875 0.78125 1.578125 0.78125q0.921875 0 1.5625 -0.75q0.65625 -0.765625 0.65625 -2.3125q0 -1.703125 -0.65625 -2.5q-0.65625 -0.796875 -1.625 -0.796875q-0.9375 0 -1.5625 0.765625q-0.625 0.765625 -0.625 2.421875z" fill-rule="nonzero"/><path fill="#000000" fill-opacity="0.0" d="m325.3281 271.48032l27.275574 0" fill-rule="evenodd"/><path stroke="#000000" stroke-width="1.0" stroke-linejoin="round" stroke-linecap="butt" d="m325.3281 271.48032l21.275574 0" fill-rule="evenodd"/><path fill="#000000" stroke="#000000" stroke-width="1.0" stroke-linecap="butt" d="m346.60367 273.13205l4.5381165 -1.6517334l-4.5381165 -1.6517334z" fill-rule="evenodd"/><path fill="#000000" fill-opacity="0.0" d="m464.71127 271.48032l49.480316 0" fill-rule="evenodd"/><path stroke="#000000" stroke-width="1.0" stroke-linejoin="round" stroke-linecap="butt" d="m464.71127 271.48032l43.480316 0" fill-rule="evenodd"/><path fill="#000000" stroke="#000000" stroke-width="1.0" stroke-linecap="butt" d="m508.1916 273.13205l4.538086 -1.6517334l-4.538086 -1.6517334z" fill-rule="evenodd"/><path fill="#f9cb9c" d="m318.41733 100.93438l112.09448 0l0 31.30709l-112.09448 0z" fill-rule="evenodd"/><path stroke="#000000" stroke-width="2.0" stroke-linejoin="round" stroke-linecap="butt" d="m318.41733 100.93438l112.09448 0l0 31.30709l-112.09448 0z" fill-rule="evenodd"/><path fill="#000000" d="m346.1794 122.44792l0 -11.453125l1.515625 0l0 11.453125l-1.515625 0zm4.0078125 0l0 -8.296875l1.265625 0l0 1.171875q0.90625 -1.359375 2.640625 -1.359375q0.75 0 1.375 0.265625q0.625 0.265625 0.9375 0.703125q0.3125 0.4375 0.4375 1.046875q0.078125 0.390625 0.078125 1.359375l0 5.109375l-1.40625 0l0 -5.046875q0 -0.859375 -0.171875 -1.28125q-0.15625 -0.4375 -0.578125 -0.6875q-0.40625 -0.25 -0.96875 -0.25q-0.90625 0 -1.5625 0.578125q-0.640625 0.5625 -0.640625 2.15625l0 4.53125l-1.40625 0zm9.2265625 0l0 -7.203125l-1.234375 0l0 -1.09375l1.234375 0l0 -0.890625q0 -0.828125 0.15625 -1.234375q0.203125 -0.546875 0.703125 -0.890625q0.515625 -0.34375 1.4375 -0.34375q0.59375 0 1.3125 0.140625l-0.203125 1.234375q-0.4375 -0.078125 -0.828125 -0.078125q-0.640625 0 -0.90625 0.28125q-0.265625 0.265625 -0.265625 1.015625l0 0.765625l1.609375 0l0 1.09375l-1.609375 0l0 7.203125l-1.40625 0zm3.5859375 -4.15625q0 -2.296875 1.28125 -3.40625q1.078125 -0.921875 2.609375 -0.921875q1.71875 0 2.796875 1.125q1.09375 1.109375 1.09375 3.09375q0 1.59375 -0.484375 2.515625q-0.484375 0.921875 -1.40625 1.4375q-0.90625 0.5 -2.0 0.5q-1.734375 0 -2.8125 -1.109375q-1.078125 -1.125 -1.078125 -3.234375zm1.453125 0q0 1.59375 0.6875 2.390625q0.703125 0.796875 1.75 0.796875q1.046875 0 1.734375 -0.796875q0.703125 -0.796875 0.703125 -2.4375q0 -1.53125 -0.703125 -2.328125q-0.6875 -0.796875 -1.734375 -0.796875q-1.046875 0 -1.75 0.796875q-0.6875 0.78125 -0.6875 2.375zm7.9609375 4.15625l0 -8.296875l1.265625 0l0 1.25q0.484375 -0.875 0.890625 -1.15625q0.40625 -0.28125 0.90625 -0.28125q0.703125 0 1.4375 0.453125l-0.484375 1.296875q-0.515625 -0.296875 -1.03125 -0.296875q-0.453125 0 -0.828125 0.28125q-0.359375 0.265625 -0.515625 0.765625q-0.234375 0.75 -0.234375 1.640625l0 4.34375l-1.40625 0zm5.34375 0l0 -8.296875l1.25 0l0 1.15625q0.390625 -0.609375 1.03125 -0.96875q0.65625 -0.375 1.484375 -0.375q0.921875 0 1.515625 0.390625q0.59375 0.375 0.828125 1.0625q0.984375 -1.453125 2.5625 -1.453125q1.234375 0 1.890625 0.6875q0.671875 0.671875 0.671875 2.09375l0 5.703125l-1.390625 0l0 -5.234375q0 -0.84375 -0.140625 -1.203125q-0.140625 -0.375 -0.5 -0.59375q-0.359375 -0.234375 -0.84375 -0.234375q-0.875 0 -1.453125 0.578125q-0.578125 0.578125 -0.578125 1.859375l0 4.828125l-1.40625 0l0 -5.390625q0 -0.9375 -0.34375 -1.40625q-0.34375 -0.46875 -1.125 -0.46875q-0.59375 0 -1.09375 0.3125q-0.5 0.3125 -0.734375 0.921875q-0.21875 0.59375 -0.21875 1.71875l0 4.3125l-1.40625 0zm19.0 -2.671875l1.453125 0.171875q-0.34375 1.28125 -1.28125 1.984375q-0.921875 0.703125 -2.359375 0.703125q-1.828125 0 -2.890625 -1.125q-1.0625 -1.125 -1.0625 -3.140625q0 -2.09375 1.078125 -3.25q1.078125 -1.15625 2.796875 -1.15625q1.65625 0 2.703125 1.140625q1.0625 1.125 1.0625 3.171875q0 0.125 0 0.375l-6.1875 0q0.078125 1.375 0.765625 2.109375q0.703125 0.71875 1.734375 0.71875q0.78125 0 1.328125 -0.40625q0.546875 -0.40625 0.859375 -1.296875zm-4.609375 -2.28125l4.625 0q-0.09375 -1.046875 -0.53125 -1.5625q-0.671875 -0.8125 -1.734375 -0.8125q-0.96875 0 -1.640625 0.65625q-0.65625 0.640625 -0.71875 1.71875zm7.8203125 4.953125l0 -8.296875l1.265625 0l0 1.25q0.484375 -0.875 0.890625 -1.15625q0.40625 -0.28125 0.90625 -0.28125q0.703125 0 1.4375 0.453125l-0.484375 1.296875q-0.515625 -0.296875 -1.03125 -0.296875q-0.453125 0 -0.828125 0.28125q-0.359375 0.265625 -0.515625 0.765625q-0.234375 0.75 -0.234375 1.640625l0 4.34375l-1.40625 0z" fill-rule="nonzero"/><path fill="#000000" fill-opacity="0.0" d="m572.8898 44.09186l-198.4252 56.8504" fill-rule="evenodd"/><path stroke="#000000" stroke-width="1.0" stroke-linejoin="round" stroke-linecap="butt" d="m572.8898 44.09186l-192.65729 55.197834" fill-rule="evenodd"/><path fill="#000000" stroke="#000000" stroke-width="1.0" stroke-linecap="butt" d="m379.77756 97.70185l-3.9076233 2.837761l4.817505 0.3379364z" fill-rule="evenodd"/><path fill="#f3f3f3" d="m508.16534 176.94751l166.83466 0l0 31.307083l-166.83466 0z" fill-rule="evenodd"/><path stroke="#000000" stroke-width="2.0" stroke-linejoin="round" stroke-linecap="butt" d="m508.16534 176.94751l166.83466 0l0 31.307083l-166.83466 0z" fill-rule="evenodd"/><path fill="#000000" d="m530.93036 194.77354l1.4375 -0.125q0.09375 0.859375 0.46875 1.421875q0.375 0.546875 1.15625 0.890625q0.78125 0.328125 1.75 0.328125q0.875 0 1.53125 -0.25q0.671875 -0.265625 0.984375 -0.703125q0.328125 -0.453125 0.328125 -0.984375q0 -0.546875 -0.3125 -0.9375q-0.3125 -0.40625 -1.03125 -0.6875q-0.453125 -0.171875 -2.03125 -0.546875q-1.578125 -0.390625 -2.21875 -0.71875q-0.8125 -0.4375 -1.21875 -1.0625q-0.40625 -0.640625 -0.40625 -1.4375q0 -0.859375 0.484375 -1.609375q0.5 -0.765625 1.4375 -1.15625q0.953125 -0.390625 2.109375 -0.390625q1.28125 0 2.25 0.421875q0.96875 0.40625 1.484375 1.203125q0.53125 0.796875 0.578125 1.796875l-1.453125 0.109375q-0.125 -1.078125 -0.796875 -1.625q-0.671875 -0.5625 -2.0 -0.5625q-1.375 0 -2.0 0.5q-0.625 0.5 -0.625 1.21875q0 0.609375 0.4375 1.015625q0.4375 0.390625 2.28125 0.8125q1.859375 0.421875 2.546875 0.734375q1.0 0.453125 1.46875 1.171875q0.484375 0.703125 0.484375 1.625q0 0.90625 -0.53125 1.71875q-0.515625 0.8125 -1.5 1.265625q-0.984375 0.453125 -2.203125 0.453125q-1.5625 0 -2.609375 -0.453125q-1.046875 -0.46875 -1.65625 -1.375q-0.59375 -0.90625 -0.625 -2.0625zm16.421875 0.640625l1.390625 0.1875q-0.234375 1.421875 -1.171875 2.234375q-0.921875 0.8125 -2.28125 0.8125q-1.703125 0 -2.75 -1.109375q-1.03125 -1.125 -1.03125 -3.203125q0 -1.34375 0.4375 -2.34375q0.453125 -1.015625 1.359375 -1.515625q0.921875 -0.5 1.984375 -0.5q1.359375 0 2.21875 0.6875q0.859375 0.671875 1.09375 1.9375l-1.359375 0.203125q-0.203125 -0.828125 -0.703125 -1.25q-0.484375 -0.421875 -1.1875 -0.421875q-1.0625 0 -1.734375 0.765625q-0.65625 0.75 -0.65625 2.40625q0 1.671875 0.640625 2.4375q0.640625 0.75 1.671875 0.75q0.828125 0 1.375 -0.5q0.5625 -0.515625 0.703125 -1.578125zm2.59375 3.046875l0 -11.453125l1.40625 0l0 4.109375q0.984375 -1.140625 2.484375 -1.140625q0.921875 0 1.59375 0.359375q0.6875 0.359375 0.96875 1.0q0.296875 0.640625 0.296875 1.859375l0 5.265625l-1.40625 0l0 -5.265625q0 -1.046875 -0.453125 -1.53125q-0.453125 -0.484375 -1.296875 -0.484375q-0.625 0 -1.171875 0.328125q-0.546875 0.328125 -0.78125 0.890625q-0.234375 0.546875 -0.234375 1.515625l0 4.546875l-1.40625 0zm14.5703125 -2.671875l1.453125 0.171875q-0.34375 1.28125 -1.28125 1.984375q-0.921875 0.703125 -2.359375 0.703125q-1.828125 0 -2.890625 -1.125q-1.0625 -1.125 -1.0625 -3.140625q0 -2.09375 1.078125 -3.25q1.078125 -1.15625 2.796875 -1.15625q1.65625 0 2.703125 1.140625q1.0625 1.125 1.0625 3.171875q0 0.125 0 0.375l-6.1875 0q0.078125 1.375 0.765625 2.109375q0.703125 0.71875 1.734375 0.71875q0.78125 0 1.328125 -0.40625q0.546875 -0.40625 0.859375 -1.296875zm-4.609375 -2.28125l4.625 0q-0.09375 -1.046875 -0.53125 -1.5625q-0.671875 -0.8125 -1.734375 -0.8125q-0.96875 0 -1.640625 0.65625q-0.65625 0.640625 -0.71875 1.71875zm13.2109375 4.953125l0 -1.046875q-0.78125 1.234375 -2.3125 1.234375q-1.0 0 -1.828125 -0.546875q-0.828125 -0.546875 -1.296875 -1.53125q-0.453125 -0.984375 -0.453125 -2.25q0 -1.25 0.40625 -2.25q0.421875 -1.015625 1.25 -1.546875q0.828125 -0.546875 1.859375 -0.546875q0.75 0 1.328125 0.3125q0.59375 0.3125 0.953125 0.828125l0 -4.109375l1.40625 0l0 11.453125l-1.3125 0zm-4.4375 -4.140625q0 1.59375 0.671875 2.390625q0.671875 0.78125 1.578125 0.78125q0.921875 0 1.5625 -0.75q0.65625 -0.765625 0.65625 -2.3125q0 -1.703125 -0.65625 -2.5q-0.65625 -0.796875 -1.625 -0.796875q-0.9375 0 -1.5625 0.765625q-0.625 0.765625 -0.625 2.421875zm13.3984375 4.140625l0 -1.21875q-0.96875 1.40625 -2.640625 1.40625q-0.734375 0 -1.375 -0.28125q-0.625 -0.28125 -0.9375 -0.703125q-0.3125 -0.4375 -0.4375 -1.046875q-0.078125 -0.421875 -0.078125 -1.3125l0 -5.140625l1.40625 0l0 4.59375q0 1.109375 0.078125 1.484375q0.140625 0.5625 0.5625 0.875q0.4375 0.3125 1.0625 0.3125q0.640625 0 1.1875 -0.3125q0.5625 -0.328125 0.78125 -0.890625q0.234375 -0.5625 0.234375 -1.625l0 -4.4375l1.40625 0l0 8.296875l-1.25 0zm3.4296875 0l0 -11.453125l1.40625 0l0 11.453125l-1.40625 0zm9.2578125 -2.671875l1.453125 0.171875q-0.34375 1.28125 -1.28125 1.984375q-0.921875 0.703125 -2.359375 0.703125q-1.828125 0 -2.890625 -1.125q-1.0625 -1.125 -1.0625 -3.140625q0 -2.09375 1.078125 -3.25q1.078125 -1.15625 2.796875 -1.15625q1.65625 0 2.703125 1.140625q1.0625 1.125 1.0625 3.171875q0 0.125 0 0.375l-6.1875 0q0.078125 1.375 0.765625 2.109375q0.703125 0.71875 1.734375 0.71875q0.78125 0 1.328125 -0.40625q0.546875 -0.40625 0.859375 -1.296875zm-4.609375 -2.28125l4.625 0q-0.09375 -1.046875 -0.53125 -1.5625q-0.671875 -0.8125 -1.734375 -0.8125q-0.96875 0 -1.640625 0.65625q-0.65625 0.640625 -0.71875 1.71875zm7.8203125 4.953125l0 -8.296875l1.265625 0l0 1.25q0.484375 -0.875 0.890625 -1.15625q0.40625 -0.28125 0.90625 -0.28125q0.703125 0 1.4375 0.453125l-0.484375 1.296875q-0.515625 -0.296875 -1.03125 -0.296875q-0.453125 0 -0.828125 0.28125q-0.359375 0.265625 -0.515625 0.765625q-0.234375 0.75 -0.234375 1.640625l0 4.34375l-1.40625 0zm18.132812 -4.015625l1.515625 0.375q-0.46875 1.875 -1.71875 2.859375q-1.234375 0.984375 -3.015625 0.984375q-1.859375 0 -3.015625 -0.75q-1.15625 -0.765625 -1.765625 -2.1875q-0.609375 -1.4375 -0.609375 -3.078125q0 -1.796875 0.6875 -3.125q0.6875 -1.328125 1.9375 -2.015625q1.265625 -0.703125 2.78125 -0.703125q1.71875 0 2.890625 0.875q1.171875 0.875 1.640625 2.46875l-1.5 0.34375q-0.390625 -1.25 -1.15625 -1.8125q-0.75 -0.578125 -1.90625 -0.578125q-1.3125 0 -2.203125 0.640625q-0.890625 0.625 -1.25 1.703125q-0.359375 1.0625 -0.359375 2.1875q0 1.46875 0.421875 2.5625q0.4375 1.078125 1.328125 1.625q0.90625 0.53125 1.953125 0.53125q1.265625 0 2.140625 -0.734375q0.890625 -0.734375 1.203125 -2.171875zm8.6171875 2.984375q-0.78125 0.671875 -1.5 0.953125q-0.71875 0.265625 -1.546875 0.265625q-1.375 0 -2.109375 -0.671875q-0.734375 -0.671875 -0.734375 -1.703125q0 -0.609375 0.28125 -1.109375q0.28125 -0.515625 0.71875 -0.8125q0.453125 -0.3125 1.015625 -0.46875q0.421875 -0.109375 1.25 -0.203125q1.703125 -0.203125 2.515625 -0.484375q0 -0.296875 0 -0.375q0 -0.859375 -0.390625 -1.203125q-0.546875 -0.484375 -1.609375 -0.484375q-0.984375 0 -1.46875 0.359375q-0.46875 0.34375 -0.6875 1.21875l-1.375 -0.1875q0.1875 -0.875 0.609375 -1.421875q0.4375 -0.546875 1.25 -0.828125q0.8125 -0.296875 1.875 -0.296875q1.0625 0 1.71875 0.25q0.671875 0.25 0.984375 0.625q0.3125 0.375 0.4375 0.953125q0.078125 0.359375 0.078125 1.296875l0 1.875q0 1.96875 0.078125 2.484375q0.09375 0.515625 0.359375 1.0l-1.46875 0q-0.21875 -0.4375 -0.28125 -1.03125zm-0.109375 -3.140625q-0.765625 0.3125 -2.296875 0.53125q-0.875 0.125 -1.234375 0.28125q-0.359375 0.15625 -0.5625 0.46875q-0.1875 0.296875 -0.1875 0.65625q0 0.5625 0.421875 0.9375q0.4375 0.375 1.25 0.375q0.8125 0 1.4375 -0.34375q0.640625 -0.359375 0.9375 -0.984375q0.234375 -0.46875 0.234375 -1.40625l0 -0.515625zm9.0078125 1.125l1.390625 0.1875q-0.234375 1.421875 -1.171875 2.234375q-0.921875 0.8125 -2.28125 0.8125q-1.703125 0 -2.75 -1.109375q-1.03125 -1.125 -1.03125 -3.203125q0 -1.34375 0.4375 -2.34375q0.453125 -1.015625 1.359375 -1.515625q0.921875 -0.5 1.984375 -0.5q1.359375 0 2.21875 0.6875q0.859375 0.671875 1.09375 1.9375l-1.359375 0.203125q-0.203125 -0.828125 -0.703125 -1.25q-0.484375 -0.421875 -1.1875 -0.421875q-1.0625 0 -1.734375 0.765625q-0.65625 0.75 -0.65625 2.40625q0 1.671875 0.640625 2.4375q0.640625 0.75 1.671875 0.75q0.828125 0 1.375 -0.5q0.5625 -0.515625 0.703125 -1.578125zm2.59375 3.046875l0 -11.453125l1.40625 0l0 4.109375q0.984375 -1.140625 2.484375 -1.140625q0.921875 0 1.59375 0.359375q0.6875 0.359375 0.96875 1.0q0.296875 0.640625 0.296875 1.859375l0 5.265625l-1.40625 0l0 -5.265625q0 -1.046875 -0.453125 -1.53125q-0.453125 -0.484375 -1.296875 -0.484375q-0.625 0 -1.171875 0.328125q-0.546875 0.328125 -0.78125 0.890625q-0.234375 0.546875 -0.234375 1.515625l0 4.546875l-1.40625 0zm14.5703125 -2.671875l1.453125 0.171875q-0.34375 1.28125 -1.28125 1.984375q-0.921875 0.703125 -2.359375 0.703125q-1.828125 0 -2.890625 -1.125q-1.0625 -1.125 -1.0625 -3.140625q0 -2.09375 1.078125 -3.25q1.078125 -1.15625 2.796875 -1.15625q1.65625 0 2.703125 1.140625q1.0625 1.125 1.0625 3.171875q0 0.125 0 0.375l-6.1875 0q0.078125 1.375 0.765625 2.109375q0.703125 0.71875 1.734375 0.71875q0.78125 0 1.328125 -0.40625q0.546875 -0.40625 0.859375 -1.296875zm-4.609375 -2.28125l4.625 0q-0.09375 -1.046875 -0.53125 -1.5625q-0.671875 -0.8125 -1.734375 -0.8125q-0.96875 0 -1.640625 0.65625q-0.65625 0.640625 -0.71875 1.71875z" fill-rule="nonzero"/><path fill="#efefef" d="m180.25853 176.45148l23.02362 0l0 27.086609l-23.02362 0z" fill-rule="evenodd"/><path stroke="#000000" stroke-width="1.0" stroke-linejoin="round" stroke-linecap="butt" d="m180.25853 176.45148l23.02362 0l0 27.086609l-23.02362 0z" fill-rule="evenodd"/><path fill="#efefef" d="m205.48688 176.43814l23.02362 0l0 27.086609l-23.02362 0z" fill-rule="evenodd"/><path stroke="#000000" stroke-width="1.0" stroke-linejoin="round" stroke-linecap="butt" d="m205.48688 176.43814l23.02362 0l0 27.086609l-23.02362 0z" fill-rule="evenodd"/><path fill="#efefef" d="m230.71523 176.46167l23.02362 0l0 27.086624l-23.02362 0z" fill-rule="evenodd"/><path stroke="#000000" stroke-width="1.0" stroke-linejoin="round" stroke-linecap="butt" d="m230.71523 176.46167l23.02362 0l0 27.086624l-23.02362 0z" fill-rule="evenodd"/><path fill="#efefef" d="m255.94357 176.46167l23.02362 0l0 27.086624l-23.02362 0z" fill-rule="evenodd"/><path stroke="#000000" stroke-width="1.0" stroke-linejoin="round" stroke-linecap="butt" d="m255.94357 176.46167l23.02362 0l0 27.086624l-23.02362 0z" fill-rule="evenodd"/><path fill="#000000" fill-opacity="0.0" d="m174.9042 168.676l129.5433 0.12597656" fill-rule="evenodd"/><path stroke="#000000" stroke-width="1.0" stroke-linejoin="round" stroke-linecap="butt" d="m174.9042 168.676l129.5433 0.12597656" fill-rule="evenodd"/><path fill="#000000" fill-opacity="0.0" d="m173.15617 211.39384l133.03935 0.12597656" fill-rule="evenodd"/><path stroke="#000000" stroke-width="1.0" stroke-linejoin="round" stroke-linecap="butt" d="m173.15617 211.39384l133.03935 0.12597656" fill-rule="evenodd"/><path fill="#efefef" d="m281.1719 176.41216l23.02362 0l0 27.086609l-23.02362 0z" fill-rule="evenodd"/><path stroke="#000000" stroke-width="1.0" stroke-linejoin="round" stroke-linecap="butt" d="m281.1719 176.41216l23.02362 0l0 27.086609l-23.02362 0z" fill-rule="evenodd"/><path fill="#000000" fill-opacity="0.0" d="m374.46457 132.24147c0 11.05246 -45.677155 16.577377 -91.35434 22.104935c-45.677155 5.5275574 -91.354324 11.05777 -91.354324 22.11554" fill-rule="evenodd"/><path stroke="#000000" stroke-width="2.0" stroke-linejoin="round" stroke-linecap="butt" stroke-dasharray="8.0,6.0" d="m374.46457 132.24147c0 11.05246 -45.677155 16.577362 -91.35434 22.10492c-22.838562 2.7637787 -45.677155 5.5282288 -62.80609 8.983948c-4.282242 0.8639221 -8.207626 1.7710571 -11.686935 2.732193c-1.7396545 0.48057556 -3.3677979 0.9746399 -4.8732758 1.483551c-0.7527313 0.25445557 -1.4747925 0.512619 -2.1648102 0.7746582c-0.17250061 0.06552124 -0.34300232 0.13127136 -0.5114746 0.19728088l-0.23564148 0.09378052" fill-rule="evenodd"/><path fill="#000000" stroke="#000000" stroke-width="2.0" stroke-linecap="butt" d="m198.67094 166.11327l-4.703644 8.435989l9.025742 -3.4389038z" fill-rule="evenodd"/><path fill="#000000" fill-opacity="0.0" d="m292.68372 203.49876c0 13.081879 -5.6141663 19.62439 -11.2283325 26.163757c-5.6141663 6.539383 -11.228363 13.075607 -11.228363 26.151215" fill-rule="evenodd"/><path stroke="#000000" stroke-width="1.0" stroke-linejoin="round" stroke-linecap="butt" d="m292.68372 203.49876c0 13.081879 -5.6141663 19.62439 -11.2283325 26.163757c-2.8070984 3.2696838 -5.6141663 6.5385895 -7.7194824 10.624512c-1.0526733 2.042984 -1.9298706 4.2901917 -2.5439453 6.8438873c-0.1534729 0.638443 -0.29055786 1.2960205 -0.40979004 1.97435c-0.029815674 0.16958618 -0.058532715 0.34046936 -0.08609009 0.51268005l-0.032226562 0.21168518" fill-rule="evenodd"/><path fill="#000000" stroke="#000000" stroke-width="1.0" stroke-linecap="butt" d="m269.01648 249.7094l1.3169861 4.6463165l1.9777222 -4.4058075z" fill-rule="evenodd"/><path fill="#000000" fill-opacity="0.0" d="m88.326775 173.21391l103.37008 0l0 38.771652l-103.37008 0z" fill-rule="evenodd"/><path fill="#000000" d="m98.56115 197.57391l0 -11.453125l4.328125 0q1.140625 0 1.734375 0.109375q0.84375 0.140625 1.40625 0.53125q0.578125 0.390625 0.921875 1.109375q0.359375 0.703125 0.359375 1.5625q0 1.453125 -0.9375 2.46875q-0.921875 1.015625 -3.359375 1.015625l-2.9375 0l0 4.65625l-1.515625 0zm1.515625 -6.015625l2.96875 0q1.46875 0 2.078125 -0.546875q0.625 -0.546875 0.625 -1.53125q0 -0.71875 -0.375 -1.234375q-0.359375 -0.515625 -0.953125 -0.671875q-0.375 -0.109375 -1.40625 -0.109375l-2.9375 0l0 4.09375zm8.453125 1.859375q0 -2.296875 1.28125 -3.40625q1.078125 -0.921875 2.609375 -0.921875q1.71875 0 2.796875 1.125q1.09375 1.109375 1.09375 3.09375q0 1.59375 -0.484375 2.515625q-0.484375 0.921875 -1.40625 1.4375q-0.90625 0.5 -2.0 0.5q-1.734375 0 -2.8125 -1.109375q-1.078125 -1.125 -1.078125 -3.234375zm1.453125 0q0 1.59375 0.6875 2.390625q0.703125 0.796875 1.75 0.796875q1.046875 0 1.734375 -0.796875q0.703125 -0.796875 0.703125 -2.4375q0 -1.53125 -0.703125 -2.328125q-0.6875 -0.796875 -1.734375 -0.796875q-1.046875 0 -1.75 0.796875q-0.6875 0.78125 -0.6875 2.375zm13.3515625 4.15625l0 -1.046875q-0.78125 1.234375 -2.3125 1.234375q-1.0 0 -1.828125 -0.546875q-0.828125 -0.546875 -1.296875 -1.53125q-0.453125 -0.984375 -0.453125 -2.25q0 -1.25 0.40625 -2.25q0.421875 -1.015625 1.25 -1.546875q0.828125 -0.546875 1.859375 -0.546875q0.75 0 1.328125 0.3125q0.59375 0.3125 0.953125 0.828125l0 -4.109375l1.40625 0l0 11.453125l-1.3125 0zm-4.4375 -4.140625q0 1.59375 0.671875 2.390625q0.671875 0.78125 1.578125 0.78125q0.921875 0 1.5625 -0.75q0.65625 -0.765625 0.65625 -2.3125q0 -1.703125 -0.65625 -2.5q-0.65625 -0.796875 -1.625 -0.796875q-0.9375 0 -1.5625 0.765625q-0.625 0.765625 -0.625 2.421875zm17.687492 7.328125l0 -4.078125q-0.328125 0.46875 -0.921875 0.78125q-0.578125 0.296875 -1.25 0.296875q-1.46875 0 -2.546875 -1.171875q-1.0625 -1.1875 -1.0625 -3.25q0 -1.25 0.4375 -2.234375q0.4375 -1.0 1.25 -1.5q0.828125 -0.515625 1.8125 -0.515625q1.546875 0 2.421875 1.296875l0 -1.109375l1.265625 0l0 11.484375l-1.40625 0zm-4.328125 -7.359375q0 1.59375 0.671875 2.40625q0.671875 0.796875 1.609375 0.796875q0.890625 0 1.53125 -0.765625q0.65625 -0.765625 0.65625 -2.3125q0 -1.65625 -0.6875 -2.484375q-0.671875 -0.84375 -1.59375 -0.84375q-0.921875 0 -1.5625 0.78125q-0.625 0.765625 -0.625 2.421875zm13.3828125 4.171875l0 -1.21875q-0.96875 1.40625 -2.640625 1.40625q-0.734375 0 -1.375 -0.28125q-0.625 -0.28125 -0.9375 -0.703125q-0.3125 -0.4375 -0.4375 -1.046875q-0.078125 -0.421875 -0.078125 -1.3125l0 -5.140625l1.40625 0l0 4.59375q0 1.109375 0.078125 1.484375q0.140625 0.5625 0.5625 0.875q0.4375 0.3125 1.0625 0.3125q0.640625 0 1.1875 -0.3125q0.5625 -0.328125 0.78125 -0.890625q0.234375 -0.5625 0.234375 -1.625l0 -4.4375l1.40625 0l0 8.296875l-1.25 0zm9.1328125 -2.671875l1.453125 0.171875q-0.34375 1.28125 -1.28125 1.984375q-0.921875 0.703125 -2.359375 0.703125q-1.828125 0 -2.890625 -1.125q-1.0625 -1.125 -1.0625 -3.140625q0 -2.09375 1.078125 -3.25q1.078125 -1.15625 2.796875 -1.15625q1.65625 0 2.703125 1.140625q1.0625 1.125 1.0625 3.171875q0 0.125 0 0.375l-6.1875 0q0.078125 1.375 0.765625 2.109375q0.703125 0.71875 1.734375 0.71875q0.78125 0 1.328125 -0.40625q0.546875 -0.40625 0.859375 -1.296875zm-4.609375 -2.28125l4.625 0q-0.09375 -1.046875 -0.53125 -1.5625q-0.671875 -0.8125 -1.734375 -0.8125q-0.96875 0 -1.640625 0.65625q-0.65625 0.640625 -0.71875 1.71875zm13.2734375 4.953125l0 -1.21875q-0.96875 1.40625 -2.640625 1.40625q-0.734375 0 -1.375 -0.28125q-0.625 -0.28125 -0.9375 -0.703125q-0.3125 -0.4375 -0.4375 -1.046875q-0.078125 -0.421875 -0.078125 -1.3125l0 -5.140625l1.40625 0l0 4.59375q0 1.109375 0.078125 1.484375q0.140625 0.5625 0.5625 0.875q0.4375 0.3125 1.0625 0.3125q0.640625 0 1.1875 -0.3125q0.5625 -0.328125 0.78125 -0.890625q0.234375 -0.5625 0.234375 -1.625l0 -4.4375l1.40625 0l0 8.296875l-1.25 0zm9.1328125 -2.671875l1.453125 0.171875q-0.34375 1.28125 -1.28125 1.984375q-0.921875 0.703125 -2.359375 0.703125q-1.828125 0 -2.890625 -1.125q-1.0625 -1.125 -1.0625 -3.140625q0 -2.09375 1.078125 -3.25q1.078125 -1.15625 2.796875 -1.15625q1.65625 0 2.703125 1.140625q1.0625 1.125 1.0625 3.171875q0 0.125 0 0.375l-6.1875 0q0.078125 1.375 0.765625 2.109375q0.703125 0.71875 1.734375 0.71875q0.78125 0 1.328125 -0.40625q0.546875 -0.40625 0.859375 -1.296875zm-4.609375 -2.28125l4.625 0q-0.09375 -1.046875 -0.53125 -1.5625q-0.671875 -0.8125 -1.734375 -0.8125q-0.96875 0 -1.640625 0.65625q-0.65625 0.640625 -0.71875 1.71875z" fill-rule="nonzero"/><path fill="#000000" fill-opacity="0.0" d="m430.5118 116.58793c80.53543 0 161.07089 30.173225 161.07089 60.34646" fill-rule="evenodd"/><path stroke="#000000" stroke-width="2.0" stroke-linejoin="round" stroke-linecap="butt" stroke-dasharray="8.0,6.0" d="m430.5118 116.58793c40.26773 0 80.53543 7.5433044 110.73624 18.858269c15.100403 5.6574707 27.684021 12.257874 36.492615 19.329727c2.2021484 1.7679596 4.168335 3.565384 5.8789062 5.384918c0.85528564 0.9097595 1.6467285 1.8250427 2.3717651 2.7449493c0.3624878 0.45994568 0.70843506 0.92103577 1.0374756 1.3831635c0.16448975 0.23106384 0.32476807 0.46240234 0.48077393 0.6939697c0.078063965 0.11578369 0.15496826 0.23162842 0.23083496 0.34753418l0.12524414 0.19410706" fill-rule="evenodd"/><path fill="#000000" stroke="#000000" stroke-width="2.0" stroke-linecap="butt" d="m584.7247 166.54782l5.9523315 7.606552l0.32965088 -9.653061z" fill-rule="evenodd"/><path fill="#000000" fill-opacity="0.0" d="m592.82153 271.48032c12.5 0 23.415222 -12.211761 25.0 -21.652847c1.5847778 -9.441101 -6.1608887 -16.111542 -13.114197 -21.652847c-6.953247 -5.5412903 -13.114136 -9.953445 -13.114136 -19.906906" fill-rule="evenodd"/><path stroke="#000000" stroke-width="1.0" stroke-linejoin="round" stroke-linecap="butt" stroke-dasharray="4.0,3.0" d="m592.82153 271.48032c12.5 0 23.415222 -12.211731 25.0 -21.652847c1.5847778 -9.441086 -6.1608887 -16.111542 -13.114197 -21.652847c-3.4766235 -2.7706451 -6.755127 -5.259018 -9.164551 -8.298889c-1.2047119 -1.5199432 -2.1920776 -3.1777802 -2.878357 -5.0776825c-0.04284668 -0.118759155 -0.08459473 -0.23843384 -0.12512207 -0.3591156l-0.075805664 -0.23468018" fill-rule="evenodd"/><path fill="#000000" stroke="#000000" stroke-width="1.0" stroke-linecap="butt" d="m594.0978 213.96468l-2.2925415 -4.250519l-0.9760132 4.7296906z" fill-rule="evenodd"/><path fill="#000000" fill-opacity="0.0" d="m592.82153 271.48032c28.927917 0 53.74951 -56.850388 57.855774 -113.70079c4.1063232 -56.850395 -12.502686 -113.70079 -25.005371 -113.70079" fill-rule="evenodd"/><path stroke="#000000" stroke-width="1.0" stroke-linejoin="round" stroke-linecap="butt" d="m592.82153 271.48032c28.927917 0 53.74951 -56.850388 57.855774 -113.70079c2.0531616 -28.425201 -1.0725098 -56.850395 -6.274292 -78.16929c-2.6009521 -10.659447 -5.720825 -19.542324 -8.971985 -25.760334c-0.81274414 -1.5545044 -1.633728 -2.9424553 -2.4568481 -4.149967c-0.4116211 -0.60375977 -0.82366943 -1.1624107 -1.2355347 -1.6742172c-0.20593262 -0.25590134 -0.41186523 -0.50009155 -0.61761475 -0.73236084l-0.23059082 -0.25375366" fill-rule="evenodd"/><path fill="#000000" stroke="#000000" stroke-width="1.0" stroke-linecap="butt" d="m631.70557 45.602997l-4.762146 -0.8028412l3.131958 3.6760597z" fill-rule="evenodd"/><path fill="#000000" fill-opacity="0.0" d="m508.16534 192.60104l-237.95276 63.2126" fill-rule="evenodd"/><path stroke="#000000" stroke-width="1.0" stroke-linejoin="round" stroke-linecap="butt" d="m508.16534 192.60104l-232.15387 61.672134" fill-rule="evenodd"/><path fill="#000000" stroke="#000000" stroke-width="1.0" stroke-linecap="butt" d="m275.5874 252.6768l-3.961914 2.7615051l4.8100586 0.43122864z" fill-rule="evenodd"/><path fill="#000000" fill-opacity="0.0" d="m6.9986877 97.2021l166.83464 0l0 38.771652l-166.83464 0z" fill-rule="evenodd"/><path fill="#000000" d="m17.498688 121.5621l0 -11.453125l1.515625 0l0 11.453125l-1.515625 0zm4.0078125 0l0 -8.296875l1.265625 0l0 1.171875q0.90625 -1.359375 2.640625 -1.359375q0.75 0 1.375 0.265625q0.625 0.265625 0.9375 0.703125q0.3125 0.4375 0.4375 1.046875q0.078125 0.390625 0.078125 1.359375l0 5.109375l-1.40625 0l0 -5.046875q0 -0.859375 -0.171875 -1.28125q-0.15625 -0.4375 -0.578125 -0.6875q-0.40625 -0.25 -0.96875 -0.25q-0.90625 0 -1.5625 0.578125q-0.640625 0.5625 -0.640625 2.15625l0 4.53125l-1.40625 0zm9.2265625 0l0 -7.203125l-1.234375 0l0 -1.09375l1.234375 0l0 -0.890625q0 -0.828125 0.15625 -1.234375q0.203125 -0.546875 0.703125 -0.890625q0.515625 -0.34375 1.4375 -0.34375q0.59375 0 1.3125 0.140625l-0.203125 1.234375q-0.4375 -0.078125 -0.828125 -0.078125q-0.640625 0 -0.90625 0.28125q-0.265625 0.265625 -0.265625 1.015625l0 0.765625l1.609375 0l0 1.09375l-1.609375 0l0 7.203125l-1.40625 0zm3.5859375 -4.15625q0 -2.296875 1.28125 -3.40625q1.078125 -0.921875 2.609375 -0.921875q1.71875 0 2.796875 1.125q1.09375 1.109375 1.09375 3.09375q0 1.59375 -0.484375 2.515625q-0.484375 0.921875 -1.40625 1.4375q-0.90625 0.5 -2.0 0.5q-1.734375 0 -2.8125 -1.109375q-1.078125 -1.125 -1.078125 -3.234375zm1.453125 0q0 1.59375 0.6875 2.390625q0.703125 0.796875 1.75 0.796875q1.046875 0 1.734375 -0.796875q0.703125 -0.796875 0.703125 -2.4375q0 -1.53125 -0.703125 -2.328125q-0.6875 -0.796875 -1.734375 -0.796875q-1.046875 0 -1.75 0.796875q-0.6875 0.78125 -0.6875 2.375zm7.9609375 4.15625l0 -8.296875l1.265625 0l0 1.25q0.484375 -0.875 0.890625 -1.15625q0.40625 -0.28125 0.90625 -0.28125q0.703125 0 1.4375 0.453125l-0.484375 1.296875q-0.515625 -0.296875 -1.03125 -0.296875q-0.453125 0 -0.828125 0.28125q-0.359375 0.265625 -0.515625 0.765625q-0.234375 0.75 -0.234375 1.640625l0 4.34375l-1.40625 0zm5.34375 0l0 -8.296875l1.25 0l0 1.15625q0.390625 -0.609375 1.03125 -0.96875q0.65625 -0.375 1.484375 -0.375q0.921875 0 1.515625 0.390625q0.59375 0.375 0.828125 1.0625q0.984375 -1.453125 2.5625 -1.453125q1.234375 0 1.890625 0.6875q0.671875 0.671875 0.671875 2.09375l0 5.703125l-1.390625 0l0 -5.234375q0 -0.84375 -0.140625 -1.203125q-0.140625 -0.375 -0.5 -0.59375q-0.359375 -0.234375 -0.84375 -0.234375q-0.875 0 -1.453125 0.578125q-0.578125 0.578125 -0.578125 1.859375l0 4.828125l-1.40625 0l0 -5.390625q0 -0.9375 -0.34375 -1.40625q-0.34375 -0.46875 -1.125 -0.46875q-0.59375 0 -1.09375 0.3125q-0.5 0.3125 -0.734375 0.921875q-0.21875 0.59375 -0.21875 1.71875l0 4.3125l-1.40625 0zm19.0 -2.671875l1.453125 0.171875q-0.34375 1.28125 -1.28125 1.984375q-0.921875 0.703125 -2.359375 0.703125q-1.828125 0 -2.890625 -1.125q-1.0625 -1.125 -1.0625 -3.140625q0 -2.09375 1.078125 -3.25q1.078125 -1.15625 2.796875 -1.15625q1.65625 0 2.703125 1.140625q1.0625 1.125 1.0625 3.171875q0 0.125 0 0.375l-6.1875 0q0.078125 1.375 0.765625 2.109375q0.703125 0.71875 1.734375 0.71875q0.78125 0 1.328125 -0.40625q0.546875 -0.40625 0.859375 -1.296875zm-4.609375 -2.28125l4.625 0q-0.09375 -1.046875 -0.53125 -1.5625q-0.671875 -0.8125 -1.734375 -0.8125q-0.96875 0 -1.640625 0.65625q-0.65625 0.640625 -0.71875 1.71875zm7.8203125 4.953125l0 -8.296875l1.265625 0l0 1.25q0.484375 -0.875 0.890625 -1.15625q0.40625 -0.28125 0.90625 -0.28125q0.703125 0 1.4375 0.453125l-0.484375 1.296875q-0.515625 -0.296875 -1.03125 -0.296875q-0.453125 0 -0.828125 0.28125q-0.359375 0.265625 -0.515625 0.765625q-0.234375 0.75 -0.234375 1.640625l0 4.34375l-1.40625 0z" fill-rule="nonzero"/><path fill="#000000" d="m87.07681 109.7496q3.5625 -0.1875 6.5 -0.75l0.75 1.125q0.125 0.3125 -0.4375 0.125l-2.5 0.25l0 1.625l3.75 0l0 1.0l-3.75 0l0 1.4375l2.375 0l0 8.125l-1.0625 0l0 -0.4375l-3.5 0l0 0.75l-1.0625 0l0 -8.4375l2.1875 0l0 -1.4375l-3.3125 0l0 3.3125q0 4.0 -1.6875 6.25l-1.0 -1.0q1.4375 -1.875 1.4375 -5.25l0 -7.125l1.3125 0.4375zm-4.4375 6.5q-0.4375 0.5625 -1.125 1.125l-0.6875 -1.0625q2.3125 -2.1875 3.4375 -4.5625l1.0625 0.8125q0.25 0.375 -0.1875 0.3125q-0.5 0.9375 -1.25 1.9375l0 8.0625l-1.25 0l0 -6.625zm7.6875 -4.125l0 -1.5l-3.3125 0.125l0 1.375l3.3125 0zm2.375 4.625l0 -1.1875l-3.5 0l0 1.1875l3.5 0zm0 1.0l-3.5 0l0 1.1875l3.5 0l0 -1.1875zm0 3.5l0 -1.3125l-3.5 0l0 1.3125l3.5 0zm-7.5625 -11.5625q0.1875 0.25 -0.3125 0.25q-1.625 1.875 -3.125 3.125l-0.75 -0.9375q1.75 -1.375 3.0625 -3.375l1.125 0.9375z" fill-rule="nonzero"/><path fill="#000000" d="m108.95181 109.4371q0.9375 0 2.125 -0.0625l0 1.1875q-1.0625 -0.0625 -2.125 -0.0625l-1.1875 0q-0.5625 2.0 -0.75 2.75l0 7.625q0 1.25 0.0625 2.25l-1.3125 0q0.0625 -0.9375 0.0625 -2.25l0 -5.0q-1.3125 2.5625 -3.1875 4.3125q-0.375 -0.375 -1.125 -0.8125q0.875 -0.625 1.65625 -1.59375q0.78125 -0.96875 1.53125 -2.28125q0.75 -1.3125 1.09375 -2.4375q0.34375 -1.125 0.65625 -2.5625l-1.75 0q-1.0 0 -2.0625 0.0625l0 -1.1875q1.0625 0.0625 2.0625 0.0625l4.25 0zm-8.25 0q0.625 0 1.4375 -0.0625l0 1.125q-0.8125 -0.0625 -1.4375 -0.0625l-0.4375 0l0 3.0q0.875 0 1.9375 -0.0625l0 1.125q-1.125 -0.0625 -1.9375 -0.0625l0 3.5625q0.5625 -0.125 1.875 -0.75q0 0.5 0.0625 1.1875q-1.875 0.6875 -2.84375 1.0q-0.96875 0.3125 -2.09375 0.8125q-0.25 -0.625 -0.625 -1.3125q0.4375 0 2.5 -0.5625l0 -3.9375q-1.0625 0 -2.0 0.125l0 -1.1875q0.9375 0.0625 2.0 0.0625l0 -3.0l-0.5625 0q-0.8125 0 -1.625 0.0625l0 -1.125q0.8125 0.0625 1.5625 0.0625l2.1875 0zm7.8125 4.3125q1.9375 2.625 2.9375 4.25q-0.625 0.375 -1.1875 0.75q-0.9375 -1.6875 -1.46875 -2.5q-0.53125 -0.8125 -1.28125 -1.75q0.5625 -0.3125 1.0 -0.75z" fill-rule="nonzero"/><path fill="#000000" fill-opacity="0.0" d="m11.629921 252.09448l152.12598 0l0 38.771667l-152.12598 0z" fill-rule="evenodd"/><path fill="#000000" d="m21.348671 272.767l1.4375 -0.125q0.09375 0.859375 0.46875 1.421875q0.375 0.546875 1.15625 0.890625q0.78125 0.328125 1.75 0.328125q0.875 0 1.53125 -0.25q0.671875 -0.265625 0.984375 -0.703125q0.328125 -0.453125 0.328125 -0.984375q0 -0.546875 -0.3125 -0.9375q-0.3125 -0.40625 -1.03125 -0.6875q-0.453125 -0.171875 -2.03125 -0.546875q-1.578125 -0.390625 -2.21875 -0.71875q-0.8125 -0.4375 -1.21875 -1.0625q-0.40625 -0.640625 -0.40625 -1.4375q0 -0.859375 0.484375 -1.609375q0.5 -0.765625 1.4375 -1.15625q0.953125 -0.390625 2.109375 -0.390625q1.28125 0 2.25 0.421875q0.96875 0.40625 1.484375 1.203125q0.53125 0.796875 0.578125 1.796875l-1.453125 0.109375q-0.125 -1.078125 -0.796875 -1.625q-0.671875 -0.5625 -2.0 -0.5625q-1.375 0 -2.0 0.5q-0.625 0.5 -0.625 1.21875q0 0.609375 0.4375 1.015625q0.4375 0.390625 2.28125 0.8125q1.859375 0.421875 2.546875 0.734375q1.0 0.453125 1.46875 1.171875q0.484375 0.703125 0.484375 1.625q0 0.90625 -0.53125 1.71875q-0.515625 0.8125 -1.5 1.265625q-0.984375 0.453125 -2.203125 0.453125q-1.5625 0 -2.609375 -0.453125q-1.046875 -0.46875 -1.65625 -1.375q-0.59375 -0.90625 -0.625 -2.0625zm16.421875 0.640625l1.390625 0.1875q-0.234375 1.421875 -1.171875 2.234375q-0.921875 0.8125 -2.28125 0.8125q-1.703125 0 -2.75 -1.109375q-1.03125 -1.125 -1.03125 -3.203125q0 -1.34375 0.4375 -2.34375q0.453125 -1.015625 1.359375 -1.515625q0.921875 -0.5 1.984375 -0.5q1.359375 0 2.21875 0.6875q0.859375 0.671875 1.09375 1.9375l-1.359375 0.203125q-0.203125 -0.828125 -0.703125 -1.25q-0.484375 -0.421875 -1.1875 -0.421875q-1.0625 0 -1.734375 0.765625q-0.65625 0.75 -0.65625 2.40625q0 1.671875 0.640625 2.4375q0.640625 0.75 1.671875 0.75q0.828125 0 1.375 -0.5q0.5625 -0.515625 0.703125 -1.578125zm2.59375 3.046875l0 -11.453125l1.40625 0l0 4.109375q0.984375 -1.140625 2.484375 -1.140625q0.921875 0 1.59375 0.359375q0.6875 0.359375 0.96875 1.0q0.296875 0.640625 0.296875 1.859375l0 5.265625l-1.40625 0l0 -5.265625q0 -1.046875 -0.453125 -1.53125q-0.453125 -0.484375 -1.296875 -0.484375q-0.625 0 -1.171875 0.328125q-0.546875 0.328125 -0.78125 0.890625q-0.234375 0.546875 -0.234375 1.515625l0 4.546875l-1.40625 0zm14.5703125 -2.671875l1.453125 0.171875q-0.34375 1.28125 -1.28125 1.984375q-0.921875 0.703125 -2.359375 0.703125q-1.828125 0 -2.890625 -1.125q-1.0625 -1.125 -1.0625 -3.140625q0 -2.09375 1.078125 -3.25q1.078125 -1.15625 2.796875 -1.15625q1.65625 0 2.703125 1.140625q1.0625 1.125 1.0625 3.171875q0 0.125 0 0.375l-6.1875 0q0.078125 1.375 0.765625 2.109375q0.703125 0.71875 1.734375 0.71875q0.78125 0 1.328125 -0.40625q0.546875 -0.40625 0.859375 -1.296875zm-4.609375 -2.28125l4.625 0q-0.09375 -1.046875 -0.53125 -1.5625q-0.671875 -0.8125 -1.734375 -0.8125q-0.96875 0 -1.640625 0.65625q-0.65625 0.640625 -0.71875 1.71875zm13.2109375 4.953125l0 -1.046875q-0.78125 1.234375 -2.3125 1.234375q-1.0 0 -1.828125 -0.546875q-0.828125 -0.546875 -1.296875 -1.53125q-0.453125 -0.984375 -0.453125 -2.25q0 -1.25 0.40625 -2.25q0.421875 -1.015625 1.25 -1.546875q0.828125 -0.546875 1.859375 -0.546875q0.75 0 1.328125 0.3125q0.59375 0.3125 0.953125 0.828125l0 -4.109375l1.40625 0l0 11.453125l-1.3125 0zm-4.4375 -4.140625q0 1.59375 0.671875 2.390625q0.671875 0.78125 1.578125 0.78125q0.921875 0 1.5625 -0.75q0.65625 -0.765625 0.65625 -2.3125q0 -1.703125 -0.65625 -2.5q-0.65625 -0.796875 -1.625 -0.796875q-0.9375 0 -1.5625 0.765625q-0.625 0.765625 -0.625 2.421875zm13.3984375 4.140625l0 -1.21875q-0.96875 1.40625 -2.640625 1.40625q-0.734375 0 -1.375 -0.28125q-0.625 -0.28125 -0.9375 -0.703125q-0.3125 -0.4375 -0.4375 -1.046875q-0.078125 -0.421875 -0.078125 -1.3125l0 -5.140625l1.40625 0l0 4.59375q0 1.109375 0.078125 1.484375q0.140625 0.5625 0.5625 0.875q0.4375 0.3125 1.0625 0.3125q0.640625 0 1.1875 -0.3125q0.5625 -0.328125 0.78125 -0.890625q0.234375 -0.5625 0.234375 -1.625l0 -4.4375l1.40625 0l0 8.296875l-1.25 0zm3.4296875 0l0 -11.453125l1.40625 0l0 11.453125l-1.40625 0zm3.5859375 -9.84375l0 -1.609375l1.40625 0l0 1.609375l-1.40625 0zm0 9.84375l0 -8.296875l1.40625 0l0 8.296875l-1.40625 0zm3.5546875 0l0 -8.296875l1.265625 0l0 1.171875q0.90625 -1.359375 2.640625 -1.359375q0.75 0 1.375 0.265625q0.625 0.265625 0.9375 0.703125q0.3125 0.4375 0.4375 1.046875q0.078125 0.390625 0.078125 1.359375l0 5.109375l-1.40625 0l0 -5.046875q0 -0.859375 -0.171875 -1.28125q-0.15625 -0.4375 -0.578125 -0.6875q-0.40625 -0.25 -0.96875 -0.25q-0.90625 0 -1.5625 0.578125q-0.640625 0.5625 -0.640625 2.15625l0 4.53125l-1.40625 0zm8.6328125 0.6875l1.375 0.203125q0.078125 0.640625 0.46875 0.921875q0.53125 0.390625 1.4375 0.390625q0.96875 0 1.5 -0.390625q0.53125 -0.390625 0.71875 -1.09375q0.109375 -0.421875 0.109375 -1.8125q-0.921875 1.09375 -2.296875 1.09375q-1.71875 0 -2.65625 -1.234375q-0.9375 -1.234375 -0.9375 -2.96875q0 -1.1875 0.421875 -2.1875q0.4375 -1.0 1.25 -1.546875q0.828125 -0.546875 1.921875 -0.546875q1.46875 0 2.421875 1.1875l0 -1.0l1.296875 0l0 7.171875q0 1.9375 -0.390625 2.75q-0.390625 0.8125 -1.25 1.28125q-0.859375 0.46875 -2.109375 0.46875q-1.484375 0 -2.40625 -0.671875q-0.90625 -0.671875 -0.875 -2.015625zm1.171875 -4.984375q0 1.625 0.640625 2.375q0.65625 0.75 1.625 0.75q0.96875 0 1.625 -0.734375q0.65625 -0.75 0.65625 -2.34375q0 -1.53125 -0.671875 -2.296875q-0.671875 -0.78125 -1.625 -0.78125q-0.9375 0 -1.59375 0.765625q-0.65625 0.765625 -0.65625 2.265625z" fill-rule="nonzero"/><path fill="#000000" d="m111.30961 264.642q3.5625 -0.1875 6.5 -0.75l0.75 1.125q0.125 0.3125 -0.4375 0.125l-2.5 0.25l0 1.625l3.75 0l0 1.0l-3.75 0l0 1.4375l2.375 0l0 8.125l-1.0625 0l0 -0.4375l-3.5 0l0 0.75l-1.0625 0l0 -8.4375l2.1875 0l0 -1.4375l-3.3125 0l0 3.3125q0 4.0 -1.6875 6.25l-1.0 -1.0q1.4375 -1.875 1.4375 -5.25l0 -7.125l1.3125 0.4375zm-4.4375 6.5q-0.4375 0.5625 -1.125 1.125l-0.6875 -1.0625q2.3125 -2.1875 3.4375 -4.5625l1.0625 0.8125q0.25 0.375 -0.1875 0.3125q-0.5 0.9375 -1.25 1.9375l0 8.0625l-1.25 0l0 -6.625zm7.6875 -4.125l0 -1.5l-3.3125 0.125l0 1.375l3.3125 0zm2.375 4.625l0 -1.1875l-3.5 0l0 1.1875l3.5 0zm0 1.0l-3.5 0l0 1.1875l3.5 0l0 -1.1875zm0 3.5l0 -1.3125l-3.5 0l0 1.3125l3.5 0zm-7.5625 -11.5625q0.1875 0.25 -0.3125 0.25q-1.625 1.875 -3.125 3.125l-0.75 -0.9375q1.75 -1.375 3.0625 -3.375l1.125 0.9375z" fill-rule="nonzero"/><path fill="#000000" d="m133.18462 264.3295q0.9375 0 2.125 -0.0625l0 1.1875q-1.0625 -0.0625 -2.125 -0.0625l-1.1875 0q-0.5625 2.0 -0.75 2.75l0 7.625q0 1.25 0.0625 2.25l-1.3125 0q0.0625 -0.9375 0.0625 -2.25l0 -5.0q-1.3125 2.5625 -3.1875076 4.3125q-0.375 -0.375 -1.125 -0.8125q0.875 -0.625 1.65625 -1.59375q0.7812576 -0.96875 1.5312576 -2.28125q0.75 -1.3125 1.09375 -2.4375q0.34375 -1.125 0.65625 -2.5625l-1.75 0q-1.0000076 0 -2.0625076 0.0625l0 -1.1875q1.0625 0.0625 2.0625076 0.0625l4.25 0zm-8.250008 0q0.625 0 1.4375 -0.0625l0 1.125q-0.8125 -0.0625 -1.4375 -0.0625l-0.4375 0l0 3.0q0.875 0 1.9375 -0.0625l0 1.125q-1.125 -0.0625 -1.9375 -0.0625l0 3.5625q0.5625 -0.125 1.875 -0.75q0 0.5 0.0625 1.1875q-1.875 0.6875 -2.84375 1.0q-0.96875 0.3125 -2.09375 0.8125q-0.25 -0.625 -0.625 -1.3125q0.4375 0 2.5 -0.5625l0 -3.9375q-1.0625 0 -2.0 0.125l0 -1.1875q0.9375 0.0625 2.0 0.0625l0 -3.0l-0.5625 0q-0.8125 0 -1.625 0.0625l0 -1.125q0.8125 0.0625 1.5625 0.0625l2.1875 0zm7.8125076 4.3125q1.9375 2.625 2.9375 4.25q-0.625 0.375 -1.1875 0.75q-0.9375 -1.6875 -1.46875 -2.5q-0.53125 -0.8125 -1.28125 -1.75q0.5625 -0.3125 1.0 -0.75z" fill-rule="nonzero"/><path fill="#000000" fill-opacity="0.0" d="m208.72835 116.20998l122.99211 0l0 37.16536l-122.99211 0z" fill-rule="evenodd"/><path fill="#666666" d="m230.97835 140.0556q-4.515625 -2.34375 -5.6875 -7.390625q-1.234375 5.6875 -5.921875 7.734375l-0.703125 -1.34375q5.09375 -2.109375 5.515625 -8.140625l0.75 0.046875l0 -1.875l-3.046875 0l0 -1.1093826l4.40625 0l0 2.1093826q0 5.625 5.5 8.5l-0.8125 1.46875z" fill-rule="nonzero"/><path fill="#666666" d="m235.1346 129.14935l0 11.578125l-1.140625 0q0.046875 -1.328125 0.046875 -2.40625l0 -7.453125q0 -1.140625 -0.046875 -2.6875l5.03125 0q-0.515625 1.71875 -0.8125 2.546875q-0.28125 0.828125 -0.671875 1.921875q0.859375 1.203125 1.140625 1.984375q0.28125 0.765625 0.21875 1.484375q-0.046875 0.703125 -0.515625 1.28125q-0.453125 0.578125 -2.15625 0.859375q-0.171875 -0.75 -0.515625 -1.3125q1.015625 0 1.46875 -0.171875q0.46875 -0.171875 0.546875 -0.765625q0.09375 -0.609375 -0.34375 -1.46875q-0.421875 -0.859375 -1.046875 -1.828125q0.453125 -0.921875 1.203125 -3.5625l-2.40625 0zm7.4375 -1.4843826q-0.109375 0.7500076 -0.140625 1.6093826q-0.03125 0.859375 0.078125 2.234375q0.125 1.375 0.6875 2.828125q0.578125 1.453125 1.234375 2.515625q0.65625 1.0625 1.25 1.703125q0.609375 0.625 1.1875 1.015625q-0.578125 0.46875 -0.921875 0.984375q-0.96875 -0.859375 -2.03125 -2.4375q-1.046875 -1.578125 -1.90625 -4.328125q-0.40625 1.953125 -0.84375 2.90625q-0.421875 0.9375 -1.203125 2.03125q-0.765625 1.078125 -1.859375 2.0q-0.34375 -0.578125 -0.96875 -0.921875q1.4375 -0.921875 2.265625 -2.125q0.828125 -1.203125 1.21875 -2.5625q0.40625 -1.375 0.515625 -2.6875q0.125 -1.328125 0.125 -2.421875q0 -1.140625 -0.109375 -2.4531326q0.96875 0.109375 1.421875 0.109375z" fill-rule="nonzero"/><path fill="#000000" fill-opacity="0.0" d="m237.21654 206.91077l66.01573 0l0 37.165344l-66.01573 0z" fill-rule="evenodd"/><path fill="#666666" d="m249.56029 219.3814q0.46875 0.0625 0.0625 0.359375l0 3.15625l3.453125 0l0 -4.6875l1.109375 0q0.46875 0.0625 0.0625 0.359375l0 4.328125l3.3906097 0l0 -3.453125l1.125 0q0.46875 0.0625 0.046875 0.34375l0 4.75l-1.171875 0l0 -0.53125l-3.3906097 0l0 5.046875l3.8593597 0l0 -3.578125l1.125 0q0.46875 0.0625 0.046875 0.359375l0 4.984375l-1.171875 0l0 -0.65625l-9.07811 0l0 0.828125l-1.171875 0l0 -5.578125l1.109375 0q0.46875 0.0625 0.0625 0.359375l0 3.28125l4.046875 0l0 -5.046875l-3.453125 0l0 0.65625l-1.171875 0l0 -5.28125l1.109375 0z" fill-rule="nonzero"/><path fill="#666666" d="m263.62277 219.85014l0 11.578125l-1.140625 0q0.046875 -1.328125 0.046875 -2.40625l0 -7.453125q0 -1.140625 -0.046875 -2.6875l5.03125 0q-0.515625 1.71875 -0.8125 2.546875q-0.28125 0.828125 -0.671875 1.921875q0.859375 1.203125 1.140625 1.984375q0.28125 0.765625 0.21875 1.484375q-0.046875 0.703125 -0.515625 1.28125q-0.453125 0.578125 -2.15625 0.859375q-0.171875 -0.75 -0.515625 -1.3125q1.015625 0 1.46875 -0.171875q0.46875 -0.171875 0.546875 -0.765625q0.09375 -0.609375 -0.34375 -1.46875q-0.421875 -0.859375 -1.046875 -1.828125q0.453125 -0.921875 1.203125 -3.5625l-2.40625 0zm7.4375 -1.484375q-0.109375 0.75 -0.140625 1.609375q-0.03125 0.859375 0.078125 2.234375q0.125 1.375 0.6875 2.828125q0.578125 1.453125 1.234375 2.515625q0.65625 1.0625 1.25 1.703125q0.609375 0.625 1.1875 1.015625q-0.578125 0.46875 -0.921875 0.984375q-0.96875 -0.859375 -2.03125 -2.4375q-1.046875 -1.578125 -1.90625 -4.328125q-0.40625 1.953125 -0.84375 2.90625q-0.421875 0.9375 -1.203125 2.03125q-0.765625 1.078125 -1.859375 2.0q-0.34375 -0.578125 -0.96875 -0.921875q1.4375 -0.921875 2.265625 -2.125q0.828125 -1.203125 1.21875 -2.5625q0.40625 -1.375 0.515625 -2.6875q0.125 -1.328125 0.125 -2.421875q0 -1.140625 -0.109375 -2.453125q0.96875 0.109375 1.421875 0.109375z" fill-rule="nonzero"/><path fill="#000000" fill-opacity="0.0" d="m456.39502 11.091864l122.99213 0l0 37.16535l-122.99213 0z" fill-rule="evenodd"/><path fill="#666666" d="m468.36377 34.171864l-2.796875 -10.484375l1.4375 0l1.59375 6.875q0.25 1.078125 0.4375 2.140625q0.40625 -1.6875 0.46875 -1.9375l2.0 -7.078125l1.671875 0l1.5 5.296875q0.578125 1.984375 0.828125 3.71875q0.203125 -1.0 0.515625 -2.28125l1.640625 -6.734375l1.40625 0l-2.875 10.484375l-1.34375 0l-2.203125 -8.0q-0.28125 -1.0 -0.34375 -1.21875q-0.15625 0.71875 -0.296875 1.21875l-2.234375 8.0l-1.40625 0zm16.242126 -0.9375q-0.71875 0.609375 -1.375 0.859375q-0.65625 0.25 -1.421875 0.25q-1.25 0 -1.921875 -0.609375q-0.671875 -0.609375 -0.671875 -1.5625q0 -0.5625 0.25 -1.015625q0.25 -0.46875 0.65625 -0.75q0.421875 -0.28125 0.9375 -0.421875q0.375 -0.09375 1.140625 -0.1875q1.5625 -0.1875 2.296875 -0.453125q0.015625 -0.265625 0.015625 -0.328125q0 -0.796875 -0.375 -1.109375q-0.484375 -0.4375 -1.453125 -0.4375q-0.921875 0 -1.359375 0.328125q-0.421875 0.3125 -0.625 1.109375l-1.265625 -0.171875q0.171875 -0.796875 0.5625 -1.296875q0.390625 -0.5 1.140625 -0.765625q0.75 -0.265625 1.71875 -0.265625q0.984375 0 1.59375 0.234375q0.609375 0.21875 0.890625 0.5625q0.28125 0.34375 0.40625 0.875q0.0625 0.328125 0.0625 1.1875l0 1.71875q0 1.796875 0.078125 2.28125q0.078125 0.46875 0.328125 0.90625l-1.34375 0q-0.203125 -0.40625 -0.265625 -0.9375zm-0.109375 -2.875q-0.703125 0.28125 -2.09375 0.484375q-0.796875 0.109375 -1.125 0.265625q-0.328125 0.140625 -0.515625 0.421875q-0.171875 0.265625 -0.171875 0.59375q0 0.515625 0.390625 0.859375q0.390625 0.34375 1.140625 0.34375q0.734375 0 1.3125 -0.3125q0.59375 -0.328125 0.859375 -0.890625q0.203125 -0.4375 0.203125 -1.296875l0 -0.46875zm6.1198425 2.65625l0.1875 1.140625q-0.546875 0.109375 -0.984375 0.109375q-0.6875 0 -1.078125 -0.21875q-0.390625 -0.21875 -0.546875 -0.578125q-0.15625 -0.359375 -0.15625 -1.515625l0 -4.375l-0.953125 0l0 -1.0l0.953125 0l0 -1.890625l1.28125 -0.765625l0 2.65625l1.296875 0l0 1.0l-1.296875 0l0 4.4375q0 0.546875 0.0625 0.71875q0.078125 0.15625 0.21875 0.25q0.15625 0.078125 0.453125 0.078125q0.203125 0 0.5625 -0.046875zm6.212616 -1.625l1.265625 0.15625q-0.203125 1.3125 -1.0625 2.0625q-0.84375 0.734375 -2.09375 0.734375q-1.5625 0 -2.515625 -1.015625q-0.9375 -1.03125 -0.9375 -2.921875q0 -1.234375 0.40625 -2.15625q0.40625 -0.921875 1.234375 -1.375q0.84375 -0.46875 1.8125 -0.46875q1.25 0 2.03125 0.625q0.78125 0.625 1.015625 1.765625l-1.265625 0.203125q-0.171875 -0.765625 -0.625 -1.15625q-0.453125 -0.390625 -1.09375 -0.390625q-0.984375 0 -1.59375 0.703125q-0.609375 0.703125 -0.609375 2.203125q0 1.53125 0.578125 2.234375q0.59375 0.6875 1.546875 0.6875q0.75 0 1.265625 -0.453125q0.515625 -0.46875 0.640625 -1.4375zm2.375 2.78125l0 -10.484375l1.28125 0l0 3.75q0.90625 -1.03125 2.28125 -1.03125q0.84375 0 1.46875 0.328125q0.625 0.328125 0.890625 0.921875q0.265625 0.578125 0.265625 1.703125l0 4.8125l-1.28125 0l0 -4.8125q0 -0.96875 -0.421875 -1.40625q-0.421875 -0.4375 -1.1875 -0.4375q-0.578125 0 -1.078125 0.296875q-0.5 0.296875 -0.71875 0.8125q-0.21875 0.5 -0.21875 1.390625l0 4.15625l-1.28125 0z" fill-rule="nonzero"/><path fill="#000000" fill-opacity="0.0" d="m492.0013 89.9462l122.992096 0l0 37.16535l-122.992096 0z" fill-rule="evenodd"/><path fill="#666666" d="m514.89197 114.43244q-4.6250305 -0.40625 -7.2656555 -1.875q-1.46875 1.234375 -5.21875 1.9375l-0.40625 -1.234375q3.453125 -0.59375 4.5625 -1.46875q-0.75 -0.640625 -1.515625 -1.640625l1.046875 -0.40625q0.46875 0.578125 1.296875 1.234375q0.46875 -0.765625 0.53125 -1.703125l-3.046875 0l0 0.46875l-1.171875 0l0 -5.984375l4.265625 0l0 -1.21875l-5.90625 0l0 -1.125l12.6562805 0l0 1.125l-5.5781555 0l0 1.21875l4.3437805 0l0 6.21875l-1.171875 0l0 -0.703125l-3.2187805 0q-0.0625 1.171875 -0.703125 2.28125q1.984375 1.171875 6.6719055 1.59375l-0.171875 1.28125zm-10.0156555 -9.734375l0 1.359375l3.09375 0l0 -1.359375l-3.09375 0zm4.265625 0l0 1.359375l3.1719055 0l0 -1.359375l-3.1719055 0zm0 3.640625l3.1719055 0l0 -1.34375l-3.1719055 0l0 1.34375zm-1.171875 0l0 -1.34375l-3.09375 0l0 1.34375l3.09375 0zm14.1250305 4.921875q2.40625 -1.296875 2.40625 -4.390625l0 -6.75l1.234375 0.234375l3.15625 -0.984375l0.875 1.171875q0.125 0.34375 -0.40625 0.109375l-3.6875 0.703125l0 2.515625l4.625 0l0 1.125l-1.75 0l0 7.328125l-1.171875 0l0 -7.328125l-1.703125 0l0 2.21875q0 3.453125 -2.9375 5.15625l-0.640625 -1.109375zm-1.109375 1.109375l-1.171875 0l0 -3.515625q-0.9375 1.53125 -2.046875 2.40625l-0.890625 -1.0625q1.640625 -1.171875 2.765625 -2.921875l-2.46875 0l0 -1.109375l2.640625 0l0 -1.296875l-2.984375 0l0 -1.109375l4.09375 0l0.640625 -2.109375l-4.328125 0l0 -1.109375l2.578125 0l0 -1.640625l1.109375 0q0.46875 0.046875 0.0625 0.34375l0 1.296875l2.578125 0l0 1.109375l-0.765625 0l-0.8125 2.109375l1.875 0l0 1.109375l-2.875 0l0 1.296875l2.578125 0l0 1.109375l-2.578125 0l0 0.53125q0.8125 0.234375 2.28125 1.21875l-0.703125 1.171875q-0.8125 -0.8125 -1.578125 -1.28125l0 3.453125zm-2.34375 -8.734375q-0.234375 -0.8125 -0.640625 -1.578125l1.109375 -0.34375q0.46875 0.75 0.703125 1.578125l-1.171875 0.34375z" fill-rule="nonzero"/><path fill="#666666" d="m543.5951 103.46369q-0.453125 0.34375 -0.65625 0.890625q-0.203125 0.546875 -0.546875 1.171875q0.96875 0 1.71875 -0.0625l0 0.921875q-0.921875 -0.0625 -1.890625 -0.0625l-2.0625 0q-0.171875 0.515625 -0.28125 1.03125l2.75 0q1.03125 0 2.0 -0.046875l0 0.96875q-0.921875 -0.0625 -1.953125 -0.0625l-3.078125 0q-0.234375 0.515625 -0.40625 1.03125l4.640625 0q-0.6875 1.203125 -1.1875 1.921875q-0.484375 0.71875 -0.984375 1.28125q0.5 0.34375 1.21875 0.5q0.71875 0.140625 1.8125 0.25q-0.34375 0.515625 -0.578125 1.203125q-1.546875 -0.40625 -2.09375 -0.640625q-0.53125 -0.21875 -1.28125 -0.625q-0.75 0.515625 -1.265625 0.75q-0.515625 0.234375 -1.484375 0.6875q-0.40625 -0.515625 -0.796875 -0.921875q0.96875 -0.21875 1.625 -0.515625q0.65625 -0.28125 1.125 -0.625q-0.40625 -0.34375 -0.8125 -0.90625q-0.390625 -0.578125 -0.625 -0.984375q-0.453125 0.921875 -1.0625 1.671875q-0.59375 0.734375 -1.578125 1.65625q-0.390625 -0.46875 -0.90625 -0.8125q0.6875 -0.515625 1.21875 -1.03125q0.546875 -0.515625 0.96875 -1.109375q0.4375 -0.609375 0.8125 -1.28125q0.375 -0.6875 0.609375 -1.5l-0.6875 0q-0.640625 0 -1.609375 0.0625l0 -0.96875q0.96875 0.046875 1.65625 0.046875l0.921875 0q0.109375 -0.5625 0.171875 -1.03125l-0.578125 0q-0.6875 0 -1.65625 0.0625l0 -0.921875q0.921875 0.0625 1.65625 0.0625l2.921875 0q0.6875 -1.78125 1.03125 -2.640625q0.578125 0.296875 1.203125 0.578125zm-8.59375 -1.59375q-0.328125 0.5 -0.84375 1.453125q-0.515625 0.9375 -1.03125 1.96875l1.59375 0.0625q0.6875 -1.09375 0.921875 -1.828125q0.796875 0.6875 1.203125 0.90625q-0.640625 0.40625 -1.4375 1.5625q-0.796875 1.140625 -1.9375 2.796875q0.625 0 2.21875 -0.109375q-0.109375 0.5625 -0.109375 1.015625q-0.6875 0 -1.515625 0.03125q-0.828125 0.03125 -1.921875 0.3125q-0.21875 -0.625 -0.390625 -1.078125q0.453125 -0.171875 1.109375 -1.0q0.65625 -0.828125 1.34375 -1.8125q-0.625 0 -1.171875 0.0625q-0.546875 0.0625 -1.109375 0.234375q-0.125 -0.578125 -0.296875 -1.03125q0.515625 -0.34375 1.171875 -1.65625q0.671875 -1.328125 0.953125 -2.640625q0.578125 0.40625 1.25 0.75zm9.21875 0.5q-0.90625 0 -3.140625 0.265625q-2.234375 0.25 -4.1875 0.421875q-0.109375 -0.5625 -0.28125 -1.03125q0.96875 -0.046875 2.0 -0.09375q1.03125 -0.0625 2.03125 -0.140625q1.015625 -0.09375 1.75 -0.234375q0.75 -0.15625 1.265625 -0.328125l0.5625 1.140625zm-8.296875 9.625q-0.453125 0 -1.609375 0.265625q-1.140625 0.25 -2.390625 0.59375q-0.234375 -0.75 -0.40625 -1.265625q1.65625 -0.171875 2.546875 -0.359375q0.890625 -0.203125 1.921875 -0.375q-0.125 0.5625 -0.0625 1.140625zm4.875 0q0.390625 -0.453125 0.765625 -1.0q0.375 -0.546875 0.59375 -0.890625l-2.96875 0q0.28125 0.625 0.765625 1.0625q0.5 0.421875 0.84375 0.828125zm-0.296875 -8.875q0.125 0.515625 0.40625 1.65625q-0.625 0.125 -1.140625 0.296875q-0.171875 -0.984375 -0.40625 -1.71875q0.453125 -0.125 1.140625 -0.234375zm-2.234375 0.234375q0.0625 0.453125 0.34375 1.59375q-0.625 0.125 -0.96875 0.296875q-0.171875 -0.984375 -0.40625 -1.671875q0.46875 -0.046875 1.03125 -0.21875z" fill-rule="nonzero"/><path fill="#666666" d="m548.82947 108.86994q-1.296875 1.28125 -1.828125 1.578125l-0.640625 -1.234375q1.40625 -0.875 2.46875 -2.28125l0 -1.0625l0.703125 0.1875q0.75 -1.171875 1.171875 -2.40625l-3.984375 0l0 -1.109375l4.265625 0q0.1875 -0.53125 0.421875 -1.640625l1.28125 0.34375q0.234375 0.234375 -0.171875 0.296875l-0.234375 1.0l7.09375 0l0 1.109375l-7.453125 0q-0.640625 1.984375 -1.921875 3.8125l0 6.796875l-1.171875 0l0 -5.390625zm3.21875 -3.8125l5.328125 0l0.171875 -0.171875l0.9375 0.75q0.359375 0.359375 -0.234375 0.46875l-2.21875 1.765625l0 0.875l3.6875 0l0 1.109375l-3.6875 0l0 3.34375q0 0.9375 -0.9375 0.9375l-1.171875 0l-0.171875 -1.109375l0.875 0q0.234375 0 0.234375 -0.234375l0 -2.9375l-4.046875 0l0 -1.109375l4.046875 0l0 -1.703125l0.578125 0.0625l1.0 -0.9375l-4.390625 0l0 -1.109375z" fill-rule="nonzero"/><path fill="#000000" fill-opacity="0.0" d="m333.4882 183.45013l122.99213 0l0 37.165344l-122.99213 0z" fill-rule="evenodd"/><path fill="#666666" d="m352.39444 198.85826q-0.109375 0.625 -0.109375 2.296875l2.046875 0q0.859375 0 1.5 -0.0625l0 1.03125q-0.640625 -0.0625 -1.5 -0.0625l-2.0 0q0.125 0.578125 0.40625 1.265625q0.28125 0.6875 0.796875 1.34375q0.515625 0.65625 1.25 1.265625q0.75 0.59375 1.328125 0.765625q-0.6875 0.515625 -0.96875 1.03125q-1.03125 -0.75 -1.953125 -1.796875q-0.90625 -1.0625 -1.421875 -2.5q-0.40625 1.203125 -0.953125 2.015625q-0.546875 0.796875 -1.03125 1.328125q-0.484375 0.546875 -1.28125 1.125q-0.40625 -0.515625 -0.859375 -0.859375q0.6875 -0.40625 1.3125 -0.96875q0.625 -0.578125 1.046875 -1.265625q0.4375 -0.6875 0.71875 -1.453125q0.296875 -0.78125 0.359375 -1.296875l-0.640625 0q-0.96875 0 -2.0 0.0625l0 -1.03125q1.03125 0.0625 2.0 0.0625l0.75 0q0 -1.84375 -0.0625 -2.46875q0.578125 0.109375 1.265625 0.171875zm-4.015625 0.34375q-0.390625 0.234375 -0.796875 0.546875q-0.40625 0.3125 -0.625 0.546875q0.5625 0.796875 0.84375 2.03125q0.296875 1.21875 0.15625 2.59375q-0.140625 1.375 -0.96875 2.03125q-0.828125 0.671875 -2.265625 0.953125q-0.0625 -0.453125 -0.453125 -1.03125q1.3125 -0.171875 1.84375 -0.5625q0.546875 -0.40625 0.6875 -0.953125q0.15625 -0.546875 0.171875 -1.09375q0.03125 -0.546875 -0.078125 -1.453125q-0.40625 0.5625 -0.984375 1.0625q-0.5625 0.484375 -1.8125 1.453125q-0.296875 -0.453125 -0.8125 -0.796875q1.03125 -0.46875 1.921875 -1.234375q0.890625 -0.765625 1.40625 -1.453125q-0.234375 -0.578125 -0.453125 -0.921875q-0.296875 0.234375 -0.734375 0.515625q-0.421875 0.28125 -1.328125 0.859375q-0.34375 -0.40625 -0.75 -0.75q1.265625 -0.515625 2.234375 -1.375q-0.75 -0.625 -1.375 -0.90625q0.40625 -0.34375 0.6875 -0.8125q1.03125 0.75 1.484375 1.09375q0.796875 -0.625 1.09375 -1.140625q0.28125 0.390625 0.90625 0.796875zm-0.046875 -2.125q0 0.578125 0.046875 1.15625l-1.203125 0q0.0625 -0.75 0.0625 -1.15625l-1.546875 0q-0.859375 0 -1.890625 0.0625l0 -1.03125q1.09375 0.0625 1.953125 0.0625l1.484375 0q0 -0.6875 -0.0625 -1.375l1.203125 0q-0.046875 0.578125 -0.046875 1.375l2.921875 0q0 -0.796875 -0.0625 -1.4375l1.203125 0q-0.0625 0.640625 -0.0625 1.4375l1.4375 0q0.90625 0 2.0625 -0.0625l0 1.03125q-1.03125 -0.0625 -2.015625 -0.0625l-1.484375 0q0 0.515625 0.0625 1.15625l-1.203125 0q0.0625 -0.578125 0.0625 -1.15625l-2.921875 0zm5.546875 1.609375q0.625 0.578125 1.4375 1.65625q-0.46875 0.296875 -0.859375 0.6875q-0.6875 -1.03125 -1.375 -1.71875q0.28125 -0.171875 0.796875 -0.625z" fill-rule="nonzero"/><path fill="#666666" d="m359.4257 196.28014l-1.171875 0l0 -1.125l7.5625 0l0 1.125l-1.75 0l0 11.359375l-1.171875 0l0 -2.984375q-2.46875 0.875 -4.171875 1.28125q-0.28125 0.421875 -0.34375 0.1875l-0.359375 -1.46875q0.703125 -0.125 1.40625 -0.234375l0 -8.140625zm5.046875 10.1875q1.8125 -1.234375 2.8125 -2.578125q-1.46875 -2.171875 -1.875 -5.796875l-0.703125 0l0 -1.109375l5.03125 0l0.234375 -0.296875l1.0 0.9375l-0.296875 0.171875q-0.40625 3.578125 -1.875 6.15625q0.9375 1.234375 2.46875 2.171875l-0.703125 1.234375q-1.53125 -1.1875 -2.515625 -2.40625q-1.171875 1.34375 -2.765625 2.640625l-0.8125 -1.125zm3.515625 -3.578125q0.9375 -1.40625 1.40625 -4.796875l-2.875 0q0.296875 2.75 1.46875 4.796875zm-7.390625 -6.609375l0 1.984375l2.296875 0l0 -1.984375l-2.296875 0zm0 2.921875l0 1.9375l2.296875 0l0 -1.9375l-2.296875 0zm0 2.875l0 2.109375q1.125 -0.234375 2.296875 -0.640625l0 -1.46875l-2.296875 0z" fill-rule="nonzero"/><path fill="#666666" d="m381.76944 206.07701q-0.125 -0.6875 -0.578125 -1.375q1.140625 0 1.734375 -0.109375q0.609375 -0.125 0.671875 -0.703125l0.109375 -3.078125l-4.859375 0l0 4.96875q0 1.03125 0.046875 2.125l-1.3125 0q0.109375 -1.03125 0.109375 -2.125l0 -4.96875l-1.25 0q-1.890625 0 -3.03125 0.046875l0 -1.078125q1.203125 0.046875 2.453125 0.046875l9.15625 0q-0.171875 2.40625 -0.234375 3.90625q-0.046875 1.484375 -0.84375 1.859375q-0.796875 0.359375 -2.171875 0.484375zm-3.953125 -8.59375q0 1.03125 0.046875 1.78125l-1.25 0q0.046875 -0.859375 0.046875 -1.78125l-1.9375 0q-0.796875 0 -1.78125 0.109375l0 -1.140625q0.984375 0.0625 1.78125 0.0625l1.9375 0q0 -1.09375 -0.046875 -1.828125l1.25 0q-0.046875 0.734375 -0.046875 1.828125l3.03125 0q0 -1.140625 -0.0625 -1.828125l1.328125 0q-0.0625 0.6875 -0.0625 1.828125l1.828125 0q1.09375 0 2.0 -0.0625l0 1.09375q-0.90625 -0.0625 -2.0 -0.0625l-1.828125 0q0 0.921875 0.0625 1.78125l-1.328125 0q0.0625 -0.921875 0.0625 -1.78125l-3.03125 0z" fill-rule="nonzero"/><path fill="#666666" d="m398.45694 204.06139q1.171875 1.125 2.109375 2.765625l-1.40625 0.703125q-0.8125 -1.765625 -1.75 -2.875l1.046875 -0.59375zm-2.6875 0.0625q1.0 1.640625 1.171875 3.171875l-1.46875 0.34375q-0.234375 -1.578125 -0.875 -3.109375l1.171875 -0.40625zm-7.734375 2.875q1.046875 -1.0625 1.703125 -2.8125l1.21875 0.46875q-0.40625 1.75 -1.640625 3.109375l-1.28125 -0.765625zm5.09375 -2.515625q0.46875 1.109375 0.359375 3.109375l-1.40625 0.046875q0.046875 -1.984375 -0.1875 -3.109375l1.234375 -0.046875zm4.578125 -2.234375l0 -2.28125l-6.5625 0l0 2.28125l6.5625 0zm-3.109375 -7.734375q0.46875 0.0625 0.0625 0.359375l0 1.28125l4.921875 0l0 1.109375l-4.921875 0l0 1.59375l4.390625 0l0 4.859375l-1.34375 0l0 -0.359375l-6.5625 0l0 0.46875l-1.359375 0l0 -4.96875l3.515625 0l0 -4.34375l1.296875 0zm7.796875 6.5q2.21875 -2.625 2.625 -6.5l1.359375 0.359375q0.234375 0.234375 -0.1875 0.34375q-0.28125 1.703125 -0.75 3.046875q0.640625 0.0625 0.109375 0.40625l0 9.15625l-1.171875 0l0 -7.390625q-0.40625 0.8125 -1.109375 1.640625l-0.875 -1.0625zm11.359375 3.28125l-5.21875 0l0 1.703125l5.21875 0l0 -1.703125zm-6.390625 -1.109375l7.5625 0l0 4.453125l-1.171875 0l0 -0.515625l-5.21875 0l0 0.703125l-1.171875 0l0 -4.640625zm0.359375 -1.0l0 -1.109375l6.625 0l0 1.109375l-6.625 0zm0 -2.046875l0 -1.109375l6.625 0l0 1.109375l-6.625 0zm-1.34375 -3.109375l9.421875 0l0 1.125l-9.421875 0l0 -1.125zm1.34375 -2.109375l6.625 0l0 1.125l-6.625 0l0 -1.125zm10.015625 12.078125q0.875 -1.640625 1.171875 -3.21875l1.234375 0.34375q0.46875 0.0625 0 0.359375q-0.46875 1.578125 -1.234375 3.046875l-1.171875 -0.53125zm12.421875 0.125q-1.046875 -1.765625 -2.28125 -2.875l1.0 -0.765625q1.453125 1.234375 2.390625 2.8125l-1.109375 0.828125zm-8.03125 -3.40625q0.46875 0.0625 0.0625 0.34375l0 2.0q0 0.46875 0.40625 0.46875l3.640625 0q0.40625 0 0.53125 -0.359375l0.234375 -0.875l1.21875 0.234375l-0.28125 1.125q-0.234375 0.984375 -1.640625 0.984375l-4.21875 0q-1.0625 0 -1.0625 -0.984375l0 -2.9375l1.109375 0zm-1.171875 -1.0l0 0.53125l-1.171875 0l0 -7.5l3.171875 0l0.34375 -1.40625l1.359375 0.109375q0.34375 0.1875 -0.1875 0.296875l-0.34375 1.0l4.625 0l0 7.4375l-1.171875 0l0 -0.46875l-6.625 0zm3.171875 0.125q1.046875 0.75 1.9375 2.046875l-1.0 0.765625q-1.0 -1.40625 -1.8125 -2.109375l0.875 -0.703125zm-3.171875 -1.0625l6.625 0l0 -1.109375l-6.625 0l0 1.109375zm6.625 -3.109375l-6.625 0l0 1.0625l6.625 0l0 -1.0625zm-6.625 -0.9375l6.625 0l0 -1.046875l-6.625 0l0 1.046875z" fill-rule="nonzero"/><path fill="#000000" fill-opacity="0.0" d="m597.82117 252.89764l92.188965 0l0 37.165344l-92.188965 0z" fill-rule="evenodd"/><path fill="#666666" d="m620.7118 277.38388q-4.625 -0.40625 -7.265625 -1.875q-1.46875 1.234375 -5.21875 1.9375l-0.40625 -1.234375q3.453125 -0.59375 4.5625 -1.46875q-0.75 -0.640625 -1.515625 -1.640625l1.046875 -0.40625q0.46875 0.578125 1.296875 1.234375q0.46875 -0.765625 0.53125 -1.703125l-3.046875 0l0 0.46875l-1.171875 0l0 -5.984375l4.265625 0l0 -1.21875l-5.90625 0l0 -1.125l12.65625 0l0 1.125l-5.578125 0l0 1.21875l4.34375 0l0 6.21875l-1.171875 0l0 -0.703125l-3.21875 0q-0.0625 1.171875 -0.703125 2.28125q1.984375 1.171875 6.671875 1.59375l-0.171875 1.28125zm-10.015625 -9.734375l0 1.359375l3.09375 0l0 -1.359375l-3.09375 0zm4.265625 0l0 1.359375l3.171875 0l0 -1.359375l-3.171875 0zm0 3.640625l3.171875 0l0 -1.34375l-3.171875 0l0 1.34375zm-1.171875 0l0 -1.34375l-3.09375 0l0 1.34375l3.09375 0zm14.125 4.921875q2.40625 -1.296875 2.40625 -4.390625l0 -6.75l1.234375 0.234375l3.15625 -0.984375l0.875 1.171875q0.125 0.34375 -0.40625 0.109375l-3.6875 0.703125l0 2.515625l4.625 0l0 1.125l-1.75 0l0 7.328125l-1.171875 0l0 -7.328125l-1.703125 0l0 2.21875q0 3.453125 -2.9375 5.15625l-0.640625 -1.109375zm-1.109375 1.109375l-1.171875 0l0 -3.515625q-0.9375 1.53125 -2.046875 2.40625l-0.890625 -1.0625q1.640625 -1.171875 2.765625 -2.921875l-2.46875 0l0 -1.109375l2.640625 0l0 -1.296875l-2.984375 0l0 -1.109375l4.09375 0l0.640625 -2.109375l-4.328125 0l0 -1.109375l2.578125 0l0 -1.640625l1.109375 0q0.46875 0.046875 0.0625 0.34375l0 1.296875l2.578125 0l0 1.109375l-0.765625 0l-0.8125 2.109375l1.875 0l0 1.109375l-2.875 0l0 1.296875l2.578125 0l0 1.109375l-2.578125 0l0 0.53125q0.8125 0.234375 2.28125 1.21875l-0.703125 1.171875q-0.8125 -0.8125 -1.578125 -1.28125l0 3.453125zm-2.34375 -8.734375q-0.234375 -0.8125 -0.640625 -1.578125l1.109375 -0.34375q0.46875 0.75 0.703125 1.578125l-1.171875 0.34375z" fill-rule="nonzero"/><path fill="#666666" d="m649.4149 266.41513q-0.453125 0.34375 -0.65625 0.890625q-0.203125 0.546875 -0.546875 1.171875q0.96875 0 1.71875 -0.0625l0 0.921875q-0.921875 -0.0625 -1.890625 -0.0625l-2.0625 0q-0.171875 0.515625 -0.28125 1.03125l2.75 0q1.03125 0 2.0 -0.046875l0 0.96875q-0.921875 -0.0625 -1.953125 -0.0625l-3.078125 0q-0.234375 0.515625 -0.40625 1.03125l4.640625 0q-0.6875 1.203125 -1.1875 1.921875q-0.484375 0.71875 -0.984375 1.28125q0.5 0.34375 1.21875 0.5q0.71875 0.140625 1.8125 0.25q-0.34375 0.515625 -0.578125 1.203125q-1.546875 -0.40625 -2.09375 -0.640625q-0.53125 -0.21875 -1.28125 -0.625q-0.75 0.515625 -1.265625 0.75q-0.515625 0.234375 -1.484375 0.6875q-0.40625 -0.515625 -0.796875 -0.921875q0.96875 -0.21875 1.625 -0.515625q0.65625 -0.28125 1.125 -0.625q-0.40625 -0.34375 -0.8125 -0.90625q-0.390625 -0.578125 -0.625 -0.984375q-0.453125 0.921875 -1.0625 1.671875q-0.59375 0.734375 -1.578125 1.65625q-0.390625 -0.46875 -0.90625 -0.8125q0.6875 -0.515625 1.21875 -1.03125q0.546875 -0.515625 0.96875 -1.109375q0.4375 -0.609375 0.8125 -1.28125q0.375 -0.6875 0.609375 -1.5l-0.6875 0q-0.640625 0 -1.609375 0.0625l0 -0.96875q0.96875 0.046875 1.65625 0.046875l0.921875 0q0.109375 -0.5625 0.171875 -1.03125l-0.578125 0q-0.6875 0 -1.65625 0.0625l0 -0.921875q0.921875 0.0625 1.65625 0.0625l2.921875 0q0.6875 -1.78125 1.03125 -2.640625q0.578125 0.296875 1.203125 0.578125zm-8.59375 -1.59375q-0.328125 0.5 -0.84375 1.453125q-0.515625 0.9375 -1.03125 1.96875l1.59375 0.0625q0.6875 -1.09375 0.921875 -1.828125q0.796875 0.6875 1.203125 0.90625q-0.640625 0.40625 -1.4375 1.5625q-0.796875 1.140625 -1.9375 2.796875q0.625 0 2.21875 -0.109375q-0.109375 0.5625 -0.109375 1.015625q-0.6875 0 -1.515625 0.03125q-0.828125 0.03125 -1.921875 0.3125q-0.21875 -0.625 -0.390625 -1.078125q0.453125 -0.171875 1.109375 -1.0q0.65625 -0.828125 1.34375 -1.8125q-0.625 0 -1.171875 0.0625q-0.546875 0.0625 -1.109375 0.234375q-0.125 -0.578125 -0.296875 -1.03125q0.515625 -0.34375 1.171875 -1.65625q0.671875 -1.328125 0.953125 -2.640625q0.578125 0.40625 1.25 0.75zm9.21875 0.5q-0.90625 0 -3.140625 0.265625q-2.234375 0.25 -4.1875 0.421875q-0.109375 -0.5625 -0.28125 -1.03125q0.96875 -0.046875 2.0 -0.09375q1.03125 -0.0625 2.03125 -0.140625q1.015625 -0.09375 1.75 -0.234375q0.75 -0.15625 1.265625 -0.328125l0.5625 1.140625zm-8.296875 9.625q-0.453125 0 -1.609375 0.265625q-1.140625 0.25 -2.390625 0.59375q-0.234375 -0.75 -0.40625 -1.265625q1.65625 -0.171875 2.546875 -0.359375q0.890625 -0.203125 1.921875 -0.375q-0.125 0.5625 -0.0625 1.140625zm4.875 0q0.390625 -0.453125 0.765625 -1.0q0.375 -0.546875 0.59375 -0.890625l-2.96875 0q0.28125 0.625 0.765625 1.0625q0.5 0.421875 0.84375 0.828125zm-0.296875 -8.875q0.125 0.515625 0.40625 1.65625q-0.625 0.125 -1.140625 0.296875q-0.171875 -0.984375 -0.40625 -1.71875q0.453125 -0.125 1.140625 -0.234375zm-2.234375 0.234375q0.0625 0.453125 0.34375 1.59375q-0.625 0.125 -0.96875 0.296875q-0.171875 -0.984375 -0.40625 -1.671875q0.46875 -0.046875 1.03125 -0.21875z" fill-rule="nonzero"/><path fill="#666666" d="m654.6493 271.82138q-1.296875 1.28125 -1.828125 1.578125l-0.640625 -1.234375q1.40625 -0.875 2.46875 -2.28125l0 -1.0625l0.703125 0.1875q0.75 -1.171875 1.171875 -2.40625l-3.984375 0l0 -1.109375l4.265625 0q0.1875 -0.53125 0.421875 -1.640625l1.28125 0.34375q0.234375 0.234375 -0.171875 0.296875l-0.234375 1.0l7.09375 0l0 1.109375l-7.453125 0q-0.640625 1.984375 -1.921875 3.8125l0 6.796875l-1.171875 0l0 -5.390625zm3.21875 -3.8125l5.328125 0l0.171875 -0.171875l0.9375 0.75q0.359375 0.359375 -0.234375 0.46875l-2.21875 1.765625l0 0.875l3.6875 0l0 1.109375l-3.6875 0l0 3.34375q0 0.9375 -0.9375 0.9375l-1.171875 0l-0.171875 -1.109375l0.875 0q0.234375 0 0.234375 -0.234375l0 -2.9375l-4.046875 0l0 -1.109375l4.046875 0l0 -1.703125l0.578125 0.0625l1.0 -0.9375l-4.390625 0l0 -1.109375z" fill-rule="nonzero"/></g></svg>