<svg version="1.1" viewBox="0.0 0.0 718.0 324.0" fill="none" stroke="none" stroke-linecap="square" stroke-miterlimit="10" xmlns:xlink="http://www.w3.org/1999/xlink" xmlns="http://www.w3.org/2000/svg"><clipPath id="p.0"><path d="m0 0l718.0 0l0 324.0l-718.0 0l0 -324.0z" clip-rule="nonzero"/></clipPath><g clip-path="url(#p.0)"><path fill="#000000" fill-opacity="0.0" d="m0 0l718.0 0l0 324.0l-718.0 0z" fill-rule="evenodd"/><path fill="#ffffff" d="m8.0 70.9895l697.51184 0l0 73.19685l-697.51184 0z" fill-rule="evenodd"/><path stroke="#000000" stroke-width="1.0" stroke-linejoin="round" stroke-linecap="butt" d="m8.0 70.9895l697.51184 0l0 73.19685l-697.51184 0z" fill-rule="evenodd"/><path fill="#ffffff" d="m10.503937 223.01575l697.51184 0l0 78.92914l-697.51184 0z" fill-rule="evenodd"/><path stroke="#000000" stroke-width="1.0" stroke-linejoin="round" stroke-linecap="butt" d="m10.503937 223.01575l697.51184 0l0 78.92914l-697.51184 0z" fill-rule="evenodd"/><path fill="#cfe2f3" d="m216.12335 246.82677l110.20474 0l0 31.307083l-110.20474 0z" fill-rule="evenodd"/><path stroke="#000000" stroke-width="2.0" stroke-linejoin="round" stroke-linecap="butt" d="m216.12335 246.82677l110.20474 0l0 31.307083l-110.20474 0z" fill-rule="evenodd"/><path fill="#000000" d="m234.66322 268.3403l0 -11.453125l4.328125 0q1.140625 0 1.734375 0.109375q0.84375 0.140625 1.40625 0.53125q0.578125 0.390625 0.921875 1.109375q0.359375 0.703125 0.359375 1.5625q0 1.453125 -0.9375 2.46875q-0.921875 1.015625 -3.359375 1.015625l-2.9375 0l0 4.65625l-1.515625 0zm1.515625 -6.015625l2.96875 0q1.46875 0 2.078125 -0.546875q0.625 -0.546875 0.625 -1.53125q0 -0.71875 -0.375 -1.234375q-0.359375 -0.515625 -0.953125 -0.671875q-0.375 -0.109375 -1.40625 -0.109375l-2.9375 0l0 4.09375zm8.96875 6.015625l0 -8.296875l1.265625 0l0 1.25q0.484375 -0.875 0.890625 -1.15625q0.40625 -0.28125 0.90625 -0.28125q0.703125 0 1.4375 0.453125l-0.484375 1.296875q-0.515625 -0.296875 -1.03125 -0.296875q-0.453125 0 -0.828125 0.28125q-0.359375 0.265625 -0.515625 0.765625q-0.234375 0.75 -0.234375 1.640625l0 4.34375l-1.40625 0zm11.01561 -2.671875l1.453125 0.171875q-0.34375 1.28125 -1.28125 1.984375q-0.92185974 0.703125 -2.3593597 0.703125q-1.828125 0 -2.890625 -1.125q-1.0625 -1.125 -1.0625 -3.140625q0 -2.09375 1.078125 -3.25q1.078125 -1.15625 2.796875 -1.15625q1.65625 0 2.7031097 1.140625q1.0625 1.125 1.0625 3.171875q0 0.125 0 0.375l-6.1874847 0q0.078125 1.375 0.765625 2.109375q0.703125 0.71875 1.734375 0.71875q0.78125 0 1.328125 -0.40625q0.546875 -0.40625 0.85935974 -1.296875zm-4.6093597 -2.28125l4.6249847 0q-0.09375 -1.046875 -0.53123474 -1.5625q-0.671875 -0.8125 -1.734375 -0.8125q-0.96875 0 -1.640625 0.65625q-0.65625 0.640625 -0.71875 1.71875zm13.210922 4.953125l0 -1.046875q-0.78125 1.234375 -2.3125 1.234375q-1.0 0 -1.828125 -0.546875q-0.828125 -0.546875 -1.296875 -1.53125q-0.453125 -0.984375 -0.453125 -2.25q0 -1.25 0.40625 -2.25q0.421875 -1.015625 1.25 -1.546875q0.828125 -0.546875 1.859375 -0.546875q0.75 0 1.328125 0.3125q0.59375 0.3125 0.953125 0.828125l0 -4.109375l1.40625 0l0 11.453125l-1.3125 0zm-4.4375 -4.140625q0 1.59375 0.671875 2.390625q0.671875 0.78125 1.578125 0.78125q0.921875 0 1.5625 -0.75q0.65625 -0.765625 0.65625 -2.3125q0 -1.703125 -0.65625 -2.5q-0.65625 -0.796875 -1.625 -0.796875q-0.9375 0 -1.5625 0.765625q-0.625 0.765625 -0.625 2.421875zm7.9609375 -5.703125l0 -1.609375l1.40625 0l0 1.609375l-1.40625 0zm0 9.84375l0 -8.296875l1.40625 0l0 8.296875l-1.40625 0zm8.9609375 -3.046875l1.390625 0.1875q-0.234375 1.421875 -1.171875 2.234375q-0.921875 0.8125 -2.28125 0.8125q-1.703125 0 -2.75 -1.109375q-1.03125 -1.125 -1.03125 -3.203125q0 -1.34375 0.4375 -2.34375q0.453125 -1.015625 1.359375 -1.515625q0.921875 -0.5 1.984375 -0.5q1.359375 0 2.21875 0.6875q0.859375 0.671875 1.09375 1.9375l-1.359375 0.203125q-0.203125 -0.828125 -0.703125 -1.25q-0.484375 -0.421875 -1.1875 -0.421875q-1.0625 0 -1.734375 0.765625q-0.65625 0.75 -0.65625 2.40625q0 1.671875 0.640625 2.4375q0.640625 0.75 1.671875 0.75q0.828125 0 1.375 -0.5q0.5625 -0.515625 0.703125 -1.578125zm8.0 2.015625q-0.78125 0.671875 -1.5 0.953125q-0.71875 0.265625 -1.546875 0.265625q-1.375 0 -2.109375 -0.671875q-0.734375 -0.671875 -0.734375 -1.703125q0 -0.609375 0.28125 -1.109375q0.28125 -0.515625 0.71875 -0.8125q0.453125 -0.3125 1.015625 -0.46875q0.421875 -0.109375 1.25 -0.203125q1.703125 -0.203125 2.515625 -0.484375q0 -0.296875 0 -0.375q0 -0.859375 -0.390625 -1.203125q-0.546875 -0.484375 -1.609375 -0.484375q-0.984375 0 -1.46875 0.359375q-0.46875 0.34375 -0.6875 1.21875l-1.375 -0.1875q0.1875 -0.875 0.609375 -1.421875q0.4375 -0.546875 1.25 -0.828125q0.8125 -0.296875 1.875 -0.296875q1.0625 0 1.71875 0.25q0.671875 0.25 0.984375 0.625q0.3125 0.375 0.4375 0.953125q0.078125 0.359375 0.078125 1.296875l0 1.875q0 1.96875 0.078125 2.484375q0.09375 0.515625 0.359375 1.0l-1.46875 0q-0.21875 -0.4375 -0.28125 -1.03125zm-0.109375 -3.140625q-0.765625 0.3125 -2.296875 0.53125q-0.875 0.125 -1.234375 0.28125q-0.359375 0.15625 -0.5625 0.46875q-0.1875 0.296875 -0.1875 0.65625q0 0.5625 0.421875 0.9375q0.4375 0.375 1.25 0.375q0.8125 0 1.4375 -0.34375q0.640625 -0.359375 0.9375 -0.984375q0.234375 -0.46875 0.234375 -1.40625l0 -0.515625zm6.6640625 2.90625l0.203125 1.25q-0.59375 0.125 -1.0625 0.125q-0.765625 0 -1.1875 -0.234375q-0.421875 -0.25 -0.59375 -0.640625q-0.171875 -0.40625 -0.171875 -1.671875l0 -4.765625l-1.03125 0l0 -1.09375l1.03125 0l0 -2.0625l1.40625 -0.84375l0 2.90625l1.40625 0l0 1.09375l-1.40625 0l0 4.84375q0 0.609375 0.0625 0.78125q0.078125 0.171875 0.25 0.28125q0.171875 0.09375 0.484375 0.09375q0.234375 0 0.609375 -0.0625zm7.0546875 -1.40625l1.453125 0.171875q-0.34375 1.28125 -1.28125 1.984375q-0.921875 0.703125 -2.359375 0.703125q-1.828125 0 -2.890625 -1.125q-1.0625 -1.125 -1.0625 -3.140625q0 -2.09375 1.078125 -3.25q1.078125 -1.15625 2.796875 -1.15625q1.65625 0 2.703125 1.140625q1.0625 1.125 1.0625 3.171875q0 0.125 0 0.375l-6.1875 0q0.078125 1.375 0.765625 2.109375q0.703125 0.71875 1.734375 0.71875q0.78125 0 1.328125 -0.40625q0.546875 -0.40625 0.859375 -1.296875zm-4.609375 -2.28125l4.625 0q-0.09375 -1.046875 -0.53125 -1.5625q-0.671875 -0.8125 -1.734375 -0.8125q-0.96875 0 -1.640625 0.65625q-0.65625 0.640625 -0.71875 1.71875zm7.2734375 2.46875l1.390625 -0.21875q0.109375 0.84375 0.640625 1.296875q0.546875 0.4375 1.5 0.4375q0.96875 0 1.4375 -0.390625q0.46875 -0.40625 0.46875 -0.9375q0 -0.46875 -0.40625 -0.75q-0.296875 -0.1875 -1.4375 -0.46875q-1.546875 -0.390625 -2.15625 -0.671875q-0.59375 -0.296875 -0.90625 -0.796875q-0.296875 -0.5 -0.296875 -1.109375q0 -0.5625 0.25 -1.03125q0.25 -0.46875 0.6875 -0.78125q0.328125 -0.25 0.890625 -0.40625q0.578125 -0.171875 1.21875 -0.171875q0.984375 0 1.71875 0.28125q0.734375 0.28125 1.078125 0.765625q0.359375 0.46875 0.5 1.28125l-1.375 0.1875q-0.09375 -0.640625 -0.546875 -1.0q-0.453125 -0.359375 -1.265625 -0.359375q-0.96875 0 -1.390625 0.328125q-0.40625 0.3125 -0.40625 0.734375q0 0.28125 0.171875 0.5q0.171875 0.21875 0.53125 0.375q0.21875 0.078125 1.25 0.359375q1.484375 0.390625 2.078125 0.65625q0.59375 0.25 0.921875 0.734375q0.34375 0.484375 0.34375 1.203125q0 0.703125 -0.421875 1.328125q-0.40625 0.609375 -1.1875 0.953125q-0.765625 0.34375 -1.734375 0.34375q-1.625 0 -2.46875 -0.671875q-0.84375 -0.671875 -1.078125 -2.0z" fill-rule="nonzero"/><path fill="#cfe2f3" d="m353.6168 246.82677l112.09448 0l0 31.307083l-112.09448 0z" fill-rule="evenodd"/><path stroke="#000000" stroke-width="2.0" stroke-linejoin="round" stroke-linecap="butt" d="m353.6168 246.82677l112.09448 0l0 31.307083l-112.09448 0z" fill-rule="evenodd"/><path fill="#000000" d="m386.00778 268.3403l0 -11.453125l4.328125 0q1.140625 0 1.734375 0.109375q0.84375 0.140625 1.40625 0.53125q0.578125 0.390625 0.921875 1.109375q0.359375 0.703125 0.359375 1.5625q0 1.453125 -0.9375 2.46875q-0.921875 1.015625 -3.359375 1.015625l-2.9375 0l0 4.65625l-1.515625 0zm1.515625 -6.015625l2.96875 0q1.46875 0 2.078125 -0.546875q0.625 -0.546875 0.625 -1.53125q0 -0.71875 -0.375 -1.234375q-0.359375 -0.515625 -0.953125 -0.671875q-0.375 -0.109375 -1.40625 -0.109375l-2.9375 0l0 4.09375zm8.96875 6.015625l0 -8.296875l1.265625 0l0 1.25q0.484375 -0.875 0.890625 -1.15625q0.40625 -0.28125 0.90625 -0.28125q0.703125 0 1.4375 0.453125l-0.484375 1.296875q-0.515625 -0.296875 -1.03125 -0.296875q-0.453125 0 -0.828125 0.28125q-0.359375 0.265625 -0.515625 0.765625q-0.234375 0.75 -0.234375 1.640625l0 4.34375l-1.40625 0zm5.34375 -9.84375l0 -1.609375l1.40625 0l0 1.609375l-1.40625 0zm0 9.84375l0 -8.296875l1.40625 0l0 8.296875l-1.40625 0zm3.0234375 -4.15625q0 -2.296875 1.28125 -3.40625q1.078125 -0.921875 2.609375 -0.921875q1.71875 0 2.796875 1.125q1.09375 1.109375 1.09375 3.09375q0 1.59375 -0.484375 2.515625q-0.484375 0.921875 -1.40625 1.4375q-0.90625 0.5 -2.0 0.5q-1.734375 0 -2.8125 -1.109375q-1.078125 -1.125 -1.078125 -3.234375zm1.453125 0q0 1.59375 0.6875 2.390625q0.703125 0.796875 1.75 0.796875q1.046875 0 1.734375 -0.796875q0.703125 -0.796875 0.703125 -2.4375q0 -1.53125 -0.703125 -2.328125q-0.6875 -0.796875 -1.734375 -0.796875q-1.046875 0 -1.75 0.796875q-0.6875 0.78125 -0.6875 2.375zm7.9609375 4.15625l0 -8.296875l1.265625 0l0 1.25q0.484375 -0.875 0.890625 -1.15625q0.40625 -0.28125 0.90625 -0.28125q0.703125 0 1.4375 0.453125l-0.484375 1.296875q-0.515625 -0.296875 -1.03125 -0.296875q-0.453125 0 -0.828125 0.28125q-0.359375 0.265625 -0.515625 0.765625q-0.234375 0.75 -0.234375 1.640625l0 4.34375l-1.40625 0zm5.34375 -9.84375l0 -1.609375l1.40625 0l0 1.609375l-1.40625 0zm0 9.84375l0 -8.296875l1.40625 0l0 8.296875l-1.40625 0zm6.6171875 -1.265625l0.203125 1.25q-0.59375 0.125 -1.0625 0.125q-0.765625 0 -1.1875 -0.234375q-0.421875 -0.25 -0.59375 -0.640625q-0.171875 -0.40625 -0.171875 -1.671875l0 -4.765625l-1.03125 0l0 -1.09375l1.03125 0l0 -2.0625l1.40625 -0.84375l0 2.90625l1.40625 0l0 1.09375l-1.40625 0l0 4.84375q0 0.609375 0.0625 0.78125q0.078125 0.171875 0.25 0.28125q0.171875 0.09375 0.484375 0.09375q0.234375 0 0.609375 -0.0625zm1.3203125 4.46875l-0.15625 -1.328125q0.453125 0.125 0.796875 0.125q0.46875 0 0.75 -0.15625q0.28125 -0.15625 0.46875 -0.4375q0.125 -0.203125 0.421875 -1.046875q0.046875 -0.109375 0.125 -0.34375l-3.140625 -8.3125l1.515625 0l1.71875 4.796875q0.34375 0.921875 0.609375 1.921875q0.234375 -0.96875 0.578125 -1.890625l1.765625 -4.828125l1.40625 0l-3.15625 8.4375q-0.5 1.375 -0.78125 1.890625q-0.375 0.6875 -0.859375 1.015625q-0.484375 0.328125 -1.15625 0.328125q-0.40625 0 -0.90625 -0.171875z" fill-rule="nonzero"/><path fill="#ffd966" d="m515.17584 262.48032l0 0c0 -12.915634 17.605469 -23.385834 39.322876 -23.385834l0 0c21.717407 0 39.322815 10.4702 39.322815 23.385834l0 0c0 12.915649 -17.605408 23.385834 -39.322815 23.385834l0 0c-21.717407 0 -39.322876 -10.470184 -39.322876 -23.385834z" fill-rule="evenodd"/><path stroke="#000000" stroke-width="2.0" stroke-linejoin="round" stroke-linecap="butt" d="m515.17584 262.48032l0 0c0 -12.915634 17.605469 -23.385834 39.322876 -23.385834l0 0c21.717407 0 39.322815 10.4702 39.322815 23.385834l0 0c0 12.915649 -17.605408 23.385834 -39.322815 23.385834l0 0c-21.717407 0 -39.322876 -10.470184 -39.322876 -23.385834z" fill-rule="evenodd"/><path fill="#000000" d="m539.6589 268.3403l0 -11.453125l4.296875 0q1.3125 0 2.109375 0.34375q0.796875 0.34375 1.234375 1.078125q0.453125 0.71875 0.453125 1.5q0 0.734375 -0.40625 1.390625q-0.390625 0.640625 -1.1875 1.046875q1.03125 0.296875 1.59375 1.03125q0.5625 0.734375 0.5625 1.734375q0 0.8125 -0.34375 1.5q-0.34375 0.6875 -0.84375 1.0625q-0.5 0.375 -1.25 0.578125q-0.75 0.1875 -1.84375 0.1875l-4.375 0zm1.515625 -6.640625l2.484375 0q1.0 0 1.4375 -0.140625q0.578125 -0.171875 0.875 -0.5625q0.296875 -0.40625 0.296875 -1.0q0 -0.578125 -0.28125 -1.0q-0.265625 -0.4375 -0.78125 -0.59375q-0.5 -0.171875 -1.734375 -0.171875l-2.296875 0l0 3.46875zm0 5.28125l2.859375 0q0.734375 0 1.03125 -0.046875q0.515625 -0.09375 0.859375 -0.3125q0.359375 -0.21875 0.578125 -0.640625q0.234375 -0.421875 0.234375 -0.96875q0 -0.640625 -0.328125 -1.109375q-0.328125 -0.46875 -0.90625 -0.65625q-0.578125 -0.203125 -1.671875 -0.203125l-2.65625 0l0 3.9375zm9.046875 -8.484375l0 -1.609375l1.40625 0l0 1.609375l-1.40625 0zm0 9.84375l0 -8.296875l1.40625 0l0 8.296875l-1.40625 0zm3.5546875 0l0 -8.296875l1.265625 0l0 1.171875q0.90625 -1.359375 2.640625 -1.359375q0.75 0 1.375 0.265625q0.625 0.265625 0.9375 0.703125q0.3125 0.4375 0.4375 1.046875q0.078125 0.390625 0.078125 1.359375l0 5.109375l-1.40625 0l0 -5.046875q0 -0.859375 -0.171875 -1.28125q-0.15625 -0.4375 -0.578125 -0.6875q-0.40625 -0.25 -0.96875 -0.25q-0.90625 0 -1.5625 0.578125q-0.640625 0.5625 -0.640625 2.15625l0 4.53125l-1.40625 0zm14.2734375 0l0 -1.046875q-0.78125 1.234375 -2.3125 1.234375q-1.0 0 -1.828125 -0.546875q-0.828125 -0.546875 -1.296875 -1.53125q-0.453125 -0.984375 -0.453125 -2.25q0 -1.25 0.40625 -2.25q0.421875 -1.015625 1.25 -1.546875q0.828125 -0.546875 1.859375 -0.546875q0.75 0 1.328125 0.3125q0.59375 0.3125 0.953125 0.828125l0 -4.109375l1.40625 0l0 11.453125l-1.3125 0zm-4.4375 -4.140625q0 1.59375 0.671875 2.390625q0.671875 0.78125 1.578125 0.78125q0.921875 0 1.5625 -0.75q0.65625 -0.765625 0.65625 -2.3125q0 -1.703125 -0.65625 -2.5q-0.65625 -0.796875 -1.625 -0.796875q-0.9375 0 -1.5625 0.765625q-0.625 0.765625 -0.625 2.421875z" fill-rule="nonzero"/><path fill="#000000" fill-opacity="0.0" d="m326.3281 262.48032l27.275574 0" fill-rule="evenodd"/><path stroke="#000000" stroke-width="1.0" stroke-linejoin="round" stroke-linecap="butt" d="m326.3281 262.48032l21.275574 0" fill-rule="evenodd"/><path fill="#000000" stroke="#000000" stroke-width="1.0" stroke-linecap="butt" d="m347.60367 264.13205l4.5381165 -1.6517334l-4.5381165 -1.6517334z" fill-rule="evenodd"/><path fill="#000000" fill-opacity="0.0" d="m465.71127 262.48032l49.480316 0" fill-rule="evenodd"/><path stroke="#000000" stroke-width="1.0" stroke-linejoin="round" stroke-linecap="butt" d="m465.71127 262.48032l43.480316 0" fill-rule="evenodd"/><path fill="#000000" stroke="#000000" stroke-width="1.0" stroke-linecap="butt" d="m509.1916 264.13205l4.538086 -1.6517334l-4.538086 -1.6517334z" fill-rule="evenodd"/><path fill="#f9cb9c" d="m319.41733 91.93438l112.09448 0l0 31.30709l-112.09448 0z" fill-rule="evenodd"/><path stroke="#000000" stroke-width="2.0" stroke-linejoin="round" stroke-linecap="butt" d="m319.41733 91.93438l112.09448 0l0 31.30709l-112.09448 0z" fill-rule="evenodd"/><path fill="#000000" d="m347.1794 113.44792l0 -11.453125l1.515625 0l0 11.453125l-1.515625 0zm4.0078125 0l0 -8.296875l1.265625 0l0 1.171875q0.90625 -1.359375 2.640625 -1.359375q0.75 0 1.375 0.265625q0.625 0.265625 0.9375 0.703125q0.3125 0.4375 0.4375 1.046875q0.078125 0.390625 0.078125 1.359375l0 5.109375l-1.40625 0l0 -5.046875q0 -0.859375 -0.171875 -1.28125q-0.15625 -0.4375 -0.578125 -0.6875q-0.40625 -0.25 -0.96875 -0.25q-0.90625 0 -1.5625 0.578125q-0.640625 0.5625 -0.640625 2.15625l0 4.53125l-1.40625 0zm9.2265625 0l0 -7.203125l-1.234375 0l0 -1.09375l1.234375 0l0 -0.890625q0 -0.828125 0.15625 -1.234375q0.203125 -0.546875 0.703125 -0.890625q0.515625 -0.34375 1.4375 -0.34375q0.59375 0 1.3125 0.140625l-0.203125 1.234375q-0.4375 -0.078125 -0.828125 -0.078125q-0.640625 0 -0.90625 0.28125q-0.265625 0.265625 -0.265625 1.015625l0 0.765625l1.609375 0l0 1.09375l-1.609375 0l0 7.203125l-1.40625 0zm3.5859375 -4.15625q0 -2.296875 1.28125 -3.40625q1.078125 -0.921875 2.609375 -0.921875q1.71875 0 2.796875 1.125q1.09375 1.109375 1.09375 3.09375q0 1.59375 -0.484375 2.515625q-0.484375 0.921875 -1.40625 1.4375q-0.90625 0.5 -2.0 0.5q-1.734375 0 -2.8125 -1.109375q-1.078125 -1.125 -1.078125 -3.234375zm1.453125 0q0 1.59375 0.6875 2.390625q0.703125 0.796875 1.75 0.796875q1.046875 0 1.734375 -0.796875q0.703125 -0.796875 0.703125 -2.4375q0 -1.53125 -0.703125 -2.328125q-0.6875 -0.796875 -1.734375 -0.796875q-1.046875 0 -1.75 0.796875q-0.6875 0.78125 -0.6875 2.375zm7.9609375 4.15625l0 -8.296875l1.265625 0l0 1.25q0.484375 -0.875 0.890625 -1.15625q0.40625 -0.28125 0.90625 -0.28125q0.703125 0 1.4375 0.453125l-0.484375 1.296875q-0.515625 -0.296875 -1.03125 -0.296875q-0.453125 0 -0.828125 0.28125q-0.359375 0.265625 -0.515625 0.765625q-0.234375 0.75 -0.234375 1.640625l0 4.34375l-1.40625 0zm5.34375 0l0 -8.296875l1.25 0l0 1.15625q0.390625 -0.609375 1.03125 -0.96875q0.65625 -0.375 1.484375 -0.375q0.921875 0 1.515625 0.390625q0.59375 0.375 0.828125 1.0625q0.984375 -1.453125 2.5625 -1.453125q1.234375 0 1.890625 0.6875q0.671875 0.671875 0.671875 2.09375l0 5.703125l-1.390625 0l0 -5.234375q0 -0.84375 -0.140625 -1.203125q-0.140625 -0.375 -0.5 -0.59375q-0.359375 -0.234375 -0.84375 -0.234375q-0.875 0 -1.453125 0.578125q-0.578125 0.578125 -0.578125 1.859375l0 4.828125l-1.40625 0l0 -5.390625q0 -0.9375 -0.34375 -1.40625q-0.34375 -0.46875 -1.125 -0.46875q-0.59375 0 -1.09375 0.3125q-0.5 0.3125 -0.734375 0.921875q-0.21875 0.59375 -0.21875 1.71875l0 4.3125l-1.40625 0zm19.0 -2.671875l1.453125 0.171875q-0.34375 1.28125 -1.28125 1.984375q-0.921875 0.703125 -2.359375 0.703125q-1.828125 0 -2.890625 -1.125q-1.0625 -1.125 -1.0625 -3.140625q0 -2.09375 1.078125 -3.25q1.078125 -1.15625 2.796875 -1.15625q1.65625 0 2.703125 1.140625q1.0625 1.125 1.0625 3.171875q0 0.125 0 0.375l-6.1875 0q0.078125 1.375 0.765625 2.109375q0.703125 0.71875 1.734375 0.71875q0.78125 0 1.328125 -0.40625q0.546875 -0.40625 0.859375 -1.296875zm-4.609375 -2.28125l4.625 0q-0.09375 -1.046875 -0.53125 -1.5625q-0.671875 -0.8125 -1.734375 -0.8125q-0.96875 0 -1.640625 0.65625q-0.65625 0.640625 -0.71875 1.71875zm7.8203125 4.953125l0 -8.296875l1.265625 0l0 1.25q0.484375 -0.875 0.890625 -1.15625q0.40625 -0.28125 0.90625 -0.28125q0.703125 0 1.4375 0.453125l-0.484375 1.296875q-0.515625 -0.296875 -1.03125 -0.296875q-0.453125 0 -0.828125 0.28125q-0.359375 0.265625 -0.515625 0.765625q-0.234375 0.75 -0.234375 1.640625l0 4.34375l-1.40625 0z" fill-rule="nonzero"/><path fill="#000000" fill-opacity="0.0" d="m599.937 47.228348l-224.47244 44.69291" fill-rule="evenodd"/><path stroke="#000000" stroke-width="1.0" stroke-linejoin="round" stroke-linecap="butt" d="m599.937 47.228348l-218.58792 43.521294" fill-rule="evenodd"/><path fill="#000000" stroke="#000000" stroke-width="1.0" stroke-linecap="butt" d="m381.02652 89.12971l-4.1282043 2.5060883l4.773285 0.73378754z" fill-rule="evenodd"/><path fill="#f3f3f3" d="m509.16534 167.94751l166.83466 0l0 31.307083l-166.83466 0z" fill-rule="evenodd"/><path stroke="#000000" stroke-width="2.0" stroke-linejoin="round" stroke-linecap="butt" d="m509.16534 167.94751l166.83466 0l0 31.307083l-166.83466 0z" fill-rule="evenodd"/><path fill="#000000" d="m531.93036 185.77354l1.4375 -0.125q0.09375 0.859375 0.46875 1.421875q0.375 0.546875 1.15625 0.890625q0.78125 0.328125 1.75 0.328125q0.875 0 1.53125 -0.25q0.671875 -0.265625 0.984375 -0.703125q0.328125 -0.453125 0.328125 -0.984375q0 -0.546875 -0.3125 -0.9375q-0.3125 -0.40625 -1.03125 -0.6875q-0.453125 -0.171875 -2.03125 -0.546875q-1.578125 -0.390625 -2.21875 -0.71875q-0.8125 -0.4375 -1.21875 -1.0625q-0.40625 -0.640625 -0.40625 -1.4375q0 -0.859375 0.484375 -1.609375q0.5 -0.765625 1.4375 -1.15625q0.953125 -0.390625 2.109375 -0.390625q1.28125 0 2.25 0.421875q0.96875 0.40625 1.484375 1.203125q0.53125 0.796875 0.578125 1.796875l-1.453125 0.109375q-0.125 -1.078125 -0.796875 -1.625q-0.671875 -0.5625 -2.0 -0.5625q-1.375 0 -2.0 0.5q-0.625 0.5 -0.625 1.21875q0 0.609375 0.4375 1.015625q0.4375 0.390625 2.28125 0.8125q1.859375 0.421875 2.546875 0.734375q1.0 0.453125 1.46875 1.171875q0.484375 0.703125 0.484375 1.625q0 0.90625 -0.53125 1.71875q-0.515625 0.8125 -1.5 1.265625q-0.984375 0.453125 -2.203125 0.453125q-1.5625 0 -2.609375 -0.453125q-1.046875 -0.46875 -1.65625 -1.375q-0.59375 -0.90625 -0.625 -2.0625zm16.421875 0.640625l1.390625 0.1875q-0.234375 1.421875 -1.171875 2.234375q-0.921875 0.8125 -2.28125 0.8125q-1.703125 0 -2.75 -1.109375q-1.03125 -1.125 -1.03125 -3.203125q0 -1.34375 0.4375 -2.34375q0.453125 -1.015625 1.359375 -1.515625q0.921875 -0.5 1.984375 -0.5q1.359375 0 2.21875 0.6875q0.859375 0.671875 1.09375 1.9375l-1.359375 0.203125q-0.203125 -0.828125 -0.703125 -1.25q-0.484375 -0.421875 -1.1875 -0.421875q-1.0625 0 -1.734375 0.765625q-0.65625 0.75 -0.65625 2.40625q0 1.671875 0.640625 2.4375q0.640625 0.75 1.671875 0.75q0.828125 0 1.375 -0.5q0.5625 -0.515625 0.703125 -1.578125zm2.59375 3.046875l0 -11.453125l1.40625 0l0 4.109375q0.984375 -1.140625 2.484375 -1.140625q0.921875 0 1.59375 0.359375q0.6875 0.359375 0.96875 1.0q0.296875 0.640625 0.296875 1.859375l0 5.265625l-1.40625 0l0 -5.265625q0 -1.046875 -0.453125 -1.53125q-0.453125 -0.484375 -1.296875 -0.484375q-0.625 0 -1.171875 0.328125q-0.546875 0.328125 -0.78125 0.890625q-0.234375 0.546875 -0.234375 1.515625l0 4.546875l-1.40625 0zm14.5703125 -2.671875l1.453125 0.171875q-0.34375 1.28125 -1.28125 1.984375q-0.921875 0.703125 -2.359375 0.703125q-1.828125 0 -2.890625 -1.125q-1.0625 -1.125 -1.0625 -3.140625q0 -2.09375 1.078125 -3.25q1.078125 -1.15625 2.796875 -1.15625q1.65625 0 2.703125 1.140625q1.0625 1.125 1.0625 3.171875q0 0.125 0 0.375l-6.1875 0q0.078125 1.375 0.765625 2.109375q0.703125 0.71875 1.734375 0.71875q0.78125 0 1.328125 -0.40625q0.546875 -0.40625 0.859375 -1.296875zm-4.609375 -2.28125l4.625 0q-0.09375 -1.046875 -0.53125 -1.5625q-0.671875 -0.8125 -1.734375 -0.8125q-0.96875 0 -1.640625 0.65625q-0.65625 0.640625 -0.71875 1.71875zm13.2109375 4.953125l0 -1.046875q-0.78125 1.234375 -2.3125 1.234375q-1.0 0 -1.828125 -0.546875q-0.828125 -0.546875 -1.296875 -1.53125q-0.453125 -0.984375 -0.453125 -2.25q0 -1.25 0.40625 -2.25q0.421875 -1.015625 1.25 -1.546875q0.828125 -0.546875 1.859375 -0.546875q0.75 0 1.328125 0.3125q0.59375 0.3125 0.953125 0.828125l0 -4.109375l1.40625 0l0 11.453125l-1.3125 0zm-4.4375 -4.140625q0 1.59375 0.671875 2.390625q0.671875 0.78125 1.578125 0.78125q0.921875 0 1.5625 -0.75q0.65625 -0.765625 0.65625 -2.3125q0 -1.703125 -0.65625 -2.5q-0.65625 -0.796875 -1.625 -0.796875q-0.9375 0 -1.5625 0.765625q-0.625 0.765625 -0.625 2.421875zm13.3984375 4.140625l0 -1.21875q-0.96875 1.40625 -2.640625 1.40625q-0.734375 0 -1.375 -0.28125q-0.625 -0.28125 -0.9375 -0.703125q-0.3125 -0.4375 -0.4375 -1.046875q-0.078125 -0.421875 -0.078125 -1.3125l0 -5.140625l1.40625 0l0 4.59375q0 1.109375 0.078125 1.484375q0.140625 0.5625 0.5625 0.875q0.4375 0.3125 1.0625 0.3125q0.640625 0 1.1875 -0.3125q0.5625 -0.328125 0.78125 -0.890625q0.234375 -0.5625 0.234375 -1.625l0 -4.4375l1.40625 0l0 8.296875l-1.25 0zm3.4296875 0l0 -11.453125l1.40625 0l0 11.453125l-1.40625 0zm9.2578125 -2.671875l1.453125 0.171875q-0.34375 1.28125 -1.28125 1.984375q-0.921875 0.703125 -2.359375 0.703125q-1.828125 0 -2.890625 -1.125q-1.0625 -1.125 -1.0625 -3.140625q0 -2.09375 1.078125 -3.25q1.078125 -1.15625 2.796875 -1.15625q1.65625 0 2.703125 1.140625q1.0625 1.125 1.0625 3.171875q0 0.125 0 0.375l-6.1875 0q0.078125 1.375 0.765625 2.109375q0.703125 0.71875 1.734375 0.71875q0.78125 0 1.328125 -0.40625q0.546875 -0.40625 0.859375 -1.296875zm-4.609375 -2.28125l4.625 0q-0.09375 -1.046875 -0.53125 -1.5625q-0.671875 -0.8125 -1.734375 -0.8125q-0.96875 0 -1.640625 0.65625q-0.65625 0.640625 -0.71875 1.71875zm7.8203125 4.953125l0 -8.296875l1.265625 0l0 1.25q0.484375 -0.875 0.890625 -1.15625q0.40625 -0.28125 0.90625 -0.28125q0.703125 0 1.4375 0.453125l-0.484375 1.296875q-0.515625 -0.296875 -1.03125 -0.296875q-0.453125 0 -0.828125 0.28125q-0.359375 0.265625 -0.515625 0.765625q-0.234375 0.75 -0.234375 1.640625l0 4.34375l-1.40625 0zm18.132812 -4.015625l1.515625 0.375q-0.46875 1.875 -1.71875 2.859375q-1.234375 0.984375 -3.015625 0.984375q-1.859375 0 -3.015625 -0.75q-1.15625 -0.765625 -1.765625 -2.1875q-0.609375 -1.4375 -0.609375 -3.078125q0 -1.796875 0.6875 -3.125q0.6875 -1.328125 1.9375 -2.015625q1.265625 -0.703125 2.78125 -0.703125q1.71875 0 2.890625 0.875q1.171875 0.875 1.640625 2.46875l-1.5 0.34375q-0.390625 -1.25 -1.15625 -1.8125q-0.75 -0.578125 -1.90625 -0.578125q-1.3125 0 -2.203125 0.640625q-0.890625 0.625 -1.25 1.703125q-0.359375 1.0625 -0.359375 2.1875q0 1.46875 0.421875 2.5625q0.4375 1.078125 1.328125 1.625q0.90625 0.53125 1.953125 0.53125q1.265625 0 2.140625 -0.734375q0.890625 -0.734375 1.203125 -2.171875zm8.6171875 2.984375q-0.78125 0.671875 -1.5 0.953125q-0.71875 0.265625 -1.546875 0.265625q-1.375 0 -2.109375 -0.671875q-0.734375 -0.671875 -0.734375 -1.703125q0 -0.609375 0.28125 -1.109375q0.28125 -0.515625 0.71875 -0.8125q0.453125 -0.3125 1.015625 -0.46875q0.421875 -0.109375 1.25 -0.203125q1.703125 -0.203125 2.515625 -0.484375q0 -0.296875 0 -0.375q0 -0.859375 -0.390625 -1.203125q-0.546875 -0.484375 -1.609375 -0.484375q-0.984375 0 -1.46875 0.359375q-0.46875 0.34375 -0.6875 1.21875l-1.375 -0.1875q0.1875 -0.875 0.609375 -1.421875q0.4375 -0.546875 1.25 -0.828125q0.8125 -0.296875 1.875 -0.296875q1.0625 0 1.71875 0.25q0.671875 0.25 0.984375 0.625q0.3125 0.375 0.4375 0.953125q0.078125 0.359375 0.078125 1.296875l0 1.875q0 1.96875 0.078125 2.484375q0.09375 0.515625 0.359375 1.0l-1.46875 0q-0.21875 -0.4375 -0.28125 -1.03125zm-0.109375 -3.140625q-0.765625 0.3125 -2.296875 0.53125q-0.875 0.125 -1.234375 0.28125q-0.359375 0.15625 -0.5625 0.46875q-0.1875 0.296875 -0.1875 0.65625q0 0.5625 0.421875 0.9375q0.4375 0.375 1.25 0.375q0.8125 0 1.4375 -0.34375q0.640625 -0.359375 0.9375 -0.984375q0.234375 -0.46875 0.234375 -1.40625l0 -0.515625zm9.0078125 1.125l1.390625 0.1875q-0.234375 1.421875 -1.171875 2.234375q-0.921875 0.8125 -2.28125 0.8125q-1.703125 0 -2.75 -1.109375q-1.03125 -1.125 -1.03125 -3.203125q0 -1.34375 0.4375 -2.34375q0.453125 -1.015625 1.359375 -1.515625q0.921875 -0.5 1.984375 -0.5q1.359375 0 2.21875 0.6875q0.859375 0.671875 1.09375 1.9375l-1.359375 0.203125q-0.203125 -0.828125 -0.703125 -1.25q-0.484375 -0.421875 -1.1875 -0.421875q-1.0625 0 -1.734375 0.765625q-0.65625 0.75 -0.65625 2.40625q0 1.671875 0.640625 2.4375q0.640625 0.75 1.671875 0.75q0.828125 0 1.375 -0.5q0.5625 -0.515625 0.703125 -1.578125zm2.59375 3.046875l0 -11.453125l1.40625 0l0 4.109375q0.984375 -1.140625 2.484375 -1.140625q0.921875 0 1.59375 0.359375q0.6875 0.359375 0.96875 1.0q0.296875 0.640625 0.296875 1.859375l0 5.265625l-1.40625 0l0 -5.265625q0 -1.046875 -0.453125 -1.53125q-0.453125 -0.484375 -1.296875 -0.484375q-0.625 0 -1.171875 0.328125q-0.546875 0.328125 -0.78125 0.890625q-0.234375 0.546875 -0.234375 1.515625l0 4.546875l-1.40625 0zm14.5703125 -2.671875l1.453125 0.171875q-0.34375 1.28125 -1.28125 1.984375q-0.921875 0.703125 -2.359375 0.703125q-1.828125 0 -2.890625 -1.125q-1.0625 -1.125 -1.0625 -3.140625q0 -2.09375 1.078125 -3.25q1.078125 -1.15625 2.796875 -1.15625q1.65625 0 2.703125 1.140625q1.0625 1.125 1.0625 3.171875q0 0.125 0 0.375l-6.1875 0q0.078125 1.375 0.765625 2.109375q0.703125 0.71875 1.734375 0.71875q0.78125 0 1.328125 -0.40625q0.546875 -0.40625 0.859375 -1.296875zm-4.609375 -2.28125l4.625 0q-0.09375 -1.046875 -0.53125 -1.5625q-0.671875 -0.8125 -1.734375 -0.8125q-0.96875 0 -1.640625 0.65625q-0.65625 0.640625 -0.71875 1.71875z" fill-rule="nonzero"/><path fill="#efefef" d="m181.25853 167.45148l23.02362 0l0 27.086609l-23.02362 0z" fill-rule="evenodd"/><path stroke="#000000" stroke-width="1.0" stroke-linejoin="round" stroke-linecap="butt" d="m181.25853 167.45148l23.02362 0l0 27.086609l-23.02362 0z" fill-rule="evenodd"/><path fill="#efefef" d="m206.48688 167.43814l23.02362 0l0 27.086609l-23.02362 0z" fill-rule="evenodd"/><path stroke="#000000" stroke-width="1.0" stroke-linejoin="round" stroke-linecap="butt" d="m206.48688 167.43814l23.02362 0l0 27.086609l-23.02362 0z" fill-rule="evenodd"/><path fill="#efefef" d="m231.71523 167.46167l23.02362 0l0 27.086624l-23.02362 0z" fill-rule="evenodd"/><path stroke="#000000" stroke-width="1.0" stroke-linejoin="round" stroke-linecap="butt" d="m231.71523 167.46167l23.02362 0l0 27.086624l-23.02362 0z" fill-rule="evenodd"/><path fill="#efefef" d="m256.94357 167.46167l23.02362 0l0 27.086624l-23.02362 0z" fill-rule="evenodd"/><path stroke="#000000" stroke-width="1.0" stroke-linejoin="round" stroke-linecap="butt" d="m256.94357 167.46167l23.02362 0l0 27.086624l-23.02362 0z" fill-rule="evenodd"/><path fill="#000000" fill-opacity="0.0" d="m175.9042 159.676l129.5433 0.12597656" fill-rule="evenodd"/><path stroke="#000000" stroke-width="1.0" stroke-linejoin="round" stroke-linecap="butt" d="m175.9042 159.676l129.5433 0.12597656" fill-rule="evenodd"/><path fill="#000000" fill-opacity="0.0" d="m174.15617 202.39384l133.03935 0.12597656" fill-rule="evenodd"/><path stroke="#000000" stroke-width="1.0" stroke-linejoin="round" stroke-linecap="butt" d="m174.15617 202.39384l133.03935 0.12597656" fill-rule="evenodd"/><path fill="#efefef" d="m282.1719 167.41216l23.02362 0l0 27.086609l-23.02362 0z" fill-rule="evenodd"/><path stroke="#000000" stroke-width="1.0" stroke-linejoin="round" stroke-linecap="butt" d="m282.1719 167.41216l23.02362 0l0 27.086609l-23.02362 0z" fill-rule="evenodd"/><path fill="#000000" fill-opacity="0.0" d="m375.46457 123.24147c0 11.05246 -45.677155 16.577377 -91.35434 22.104935c-45.677155 5.5275574 -91.354324 11.05777 -91.354324 22.11554" fill-rule="evenodd"/><path stroke="#000000" stroke-width="2.0" stroke-linejoin="round" stroke-linecap="butt" stroke-dasharray="8.0,6.0" d="m375.46457 123.24147c0 11.05246 -45.677155 16.577362 -91.35434 22.10492c-22.838562 2.7637787 -45.677155 5.5282288 -62.80609 8.983948c-4.282242 0.8639221 -8.207626 1.7710571 -11.686935 2.732193c-1.7396545 0.48057556 -3.3677979 0.9746399 -4.8732758 1.483551c-0.7527313 0.25445557 -1.4747925 0.512619 -2.1648102 0.7746582c-0.17250061 0.06552124 -0.34300232 0.13127136 -0.5114746 0.19728088l-0.23564148 0.09378052" fill-rule="evenodd"/><path fill="#000000" stroke="#000000" stroke-width="2.0" stroke-linecap="butt" d="m199.67094 157.11327l-4.703644 8.435989l9.025742 -3.4389038z" fill-rule="evenodd"/><path fill="#000000" fill-opacity="0.0" d="m293.68372 194.49876c0 13.081879 -5.6141663 19.62439 -11.2283325 26.163757c-5.6141663 6.539383 -11.228363 13.075607 -11.228363 26.151215" fill-rule="evenodd"/><path stroke="#000000" stroke-width="1.0" stroke-linejoin="round" stroke-linecap="butt" d="m293.68372 194.49876c0 13.081879 -5.6141663 19.62439 -11.2283325 26.163757c-2.8070984 3.2696838 -5.6141663 6.5385895 -7.7194824 10.624512c-1.0526733 2.042984 -1.9298706 4.2901917 -2.5439453 6.8438873c-0.1534729 0.638443 -0.29055786 1.2960205 -0.40979004 1.97435c-0.029815674 0.16958618 -0.058532715 0.34046936 -0.08609009 0.51268005l-0.032226562 0.21168518" fill-rule="evenodd"/><path fill="#000000" stroke="#000000" stroke-width="1.0" stroke-linecap="butt" d="m270.01648 240.7094l1.3169861 4.6463165l1.9777222 -4.4058075z" fill-rule="evenodd"/><path fill="#000000" fill-opacity="0.0" d="m59.659126 164.21523l133.03937 0l0 38.771652l-133.03937 0z" fill-rule="evenodd"/><path fill="#000000" d="m69.8935 188.57523l0 -11.453125l4.328125 0q1.140625 0 1.734375 0.109375q0.84375 0.140625 1.40625 0.53125q0.578125 0.390625 0.921875 1.109375q0.359375 0.703125 0.359375 1.5625q0 1.453125 -0.9375 2.46875q-0.921875 1.015625 -3.359375 1.015625l-2.9375 0l0 4.65625l-1.515625 0zm1.515625 -6.015625l2.96875 0q1.46875 0 2.078125 -0.546875q0.625 -0.546875 0.625 -1.53125q0 -0.71875 -0.375 -1.234375q-0.359375 -0.515625 -0.953125 -0.671875q-0.375 -0.109375 -1.40625 -0.109375l-2.9375 0l0 4.09375zm8.96875 6.015625l0 -8.296875l1.265625 0l0 1.25q0.484375 -0.875 0.890625 -1.15625q0.40625 -0.28125 0.90625 -0.28125q0.703125 0 1.4375 0.453125l-0.484375 1.296875q-0.515625 -0.296875 -1.03125 -0.296875q-0.453125 0 -0.828125 0.28125q-0.359375 0.265625 -0.515625 0.765625q-0.234375 0.75 -0.234375 1.640625l0 4.34375l-1.40625 0zm5.34375 -9.84375l0 -1.609375l1.40625 0l0 1.609375l-1.40625 0zm0 9.84375l0 -8.296875l1.40625 0l0 8.296875l-1.40625 0zm3.0234375 -4.15625q0 -2.296875 1.28125 -3.40625q1.078125 -0.921875 2.609375 -0.921875q1.71875 0 2.796875 1.125q1.09375 1.109375 1.09375 3.09375q0 1.59375 -0.484375 2.515625q-0.484375 0.921875 -1.40625 1.4375q-0.90625 0.5 -2.0 0.5q-1.734375 0 -2.8125 -1.109375q-1.078125 -1.125 -1.078125 -3.234375zm1.453125 0q0 1.59375 0.6875 2.390625q0.703125 0.796875 1.75 0.796875q1.046875 0 1.734375 -0.796875q0.703125 -0.796875 0.703125 -2.4375q0 -1.53125 -0.703125 -2.328125q-0.6875 -0.796875 -1.734375 -0.796875q-1.046875 0 -1.75 0.796875q-0.6875 0.78125 -0.6875 2.375zm7.9609375 4.15625l0 -8.296875l1.265625 0l0 1.25q0.484375 -0.875 0.890625 -1.15625q0.40625 -0.28125 0.90625 -0.28125q0.703125 0 1.4375 0.453125l-0.484375 1.296875q-0.515625 -0.296875 -1.03125 -0.296875q-0.453125 0 -0.828125 0.28125q-0.359375 0.265625 -0.515625 0.765625q-0.234375 0.75 -0.234375 1.640625l0 4.34375l-1.40625 0zm5.34375 -9.84375l0 -1.609375l1.40625 0l0 1.609375l-1.40625 0zm0 9.84375l0 -8.296875l1.40625 0l0 8.296875l-1.40625 0zm6.6171875 -1.265625l0.203125 1.25q-0.59375 0.125 -1.0625 0.125q-0.765625 0 -1.1875 -0.234375q-0.421875 -0.25 -0.59375 -0.640625q-0.171875 -0.40625 -0.171875 -1.671875l0 -4.765625l-1.03125 0l0 -1.09375l1.03125 0l0 -2.0625l1.40625 -0.84375l0 2.90625l1.40625 0l0 1.09375l-1.40625 0l0 4.84375q0 0.609375 0.0625 0.78125q0.078125 0.171875 0.25 0.28125q0.171875 0.09375 0.484375 0.09375q0.234375 0 0.609375 -0.0625zm1.3203125 4.46875l-0.15625 -1.328125q0.453125 0.125 0.796875 0.125q0.46875 0 0.75 -0.15625q0.28125 -0.15625 0.46875 -0.4375q0.125 -0.203125 0.421875 -1.046875q0.046875 -0.109375 0.125 -0.34375l-3.140625 -8.3125l1.515625 0l1.71875 4.796875q0.34375 0.921875 0.609375 1.921875q0.234375 -0.96875 0.578125 -1.890625l1.765625 -4.828125l1.40625 0l-3.15625 8.4375q-0.5 1.375 -0.78125 1.890625q-0.375 0.6875 -0.859375 1.015625q-0.484375 0.328125 -1.15625 0.328125q-0.40625 0 -0.90625 -0.171875zm16.921883 -4.4375q1.046875 0.734375 1.9375 1.0625l-0.4375 1.0625q-1.234375 -0.4375 -2.4687576 -1.40625q-1.265625 0.71875 -2.8125 0.71875q-1.546875 0 -2.8125 -0.75q-1.265625 -0.765625 -1.953125 -2.125q-0.6875 -1.359375 -0.6875 -3.0625q0 -1.6875 0.6875 -3.078125q0.6875 -1.390625 1.953125 -2.109375q1.28125 -0.734375 2.84375 -0.734375q1.59375 0 2.859375 0.75q1.2812576 0.75 1.9375076 2.109375q0.671875 1.359375 0.671875 3.0625q0 1.40625 -0.4375 2.546875q-0.421875 1.125 -1.28125 1.953125zm-3.3437576 -1.9375q1.3125 0.375 2.171875 1.09375q1.3281326 -1.21875 1.3281326 -3.65625q0 -1.390625 -0.46875 -2.421875q-0.46875763 -1.046875 -1.3906326 -1.625q-0.90625 -0.578125 -2.03125 -0.578125q-1.703125 0 -2.828125 1.171875q-1.109375 1.15625 -1.109375 3.453125q0 2.234375 1.109375 3.4375q1.109375 1.1875 2.828125 1.1875q0.8125 0 1.53125 -0.296875q-0.71875 -0.46875 -1.5 -0.65625l0.359375 -1.109375zm12.367195 3.171875l0 -1.21875q-0.96875 1.40625 -2.640625 1.40625q-0.734375 0 -1.375 -0.28125q-0.625 -0.28125 -0.9375 -0.703125q-0.3125 -0.4375 -0.4375 -1.046875q-0.078125 -0.421875 -0.078125 -1.3125l0 -5.140625l1.40625 0l0 4.59375q0 1.109375 0.078125 1.484375q0.140625 0.5625 0.5625 0.875q0.4375 0.3125 1.0625 0.3125q0.640625 0 1.1875 -0.3125q0.5625 -0.328125 0.78125 -0.890625q0.234375 -0.5625 0.234375 -1.625l0 -4.4375l1.40625 0l0 8.296875l-1.25 0zm9.1328125 -2.671875l1.453125 0.171875q-0.34375 1.28125 -1.28125 1.984375q-0.921875 0.703125 -2.359375 0.703125q-1.828125 0 -2.890625 -1.125q-1.0625 -1.125 -1.0625 -3.140625q0 -2.09375 1.078125 -3.25q1.078125 -1.15625 2.796875 -1.15625q1.65625 0 2.703125 1.140625q1.0625 1.125 1.0625 3.171875q0 0.125 0 0.375l-6.1875 0q0.078125 1.375 0.765625 2.109375q0.703125 0.71875 1.734375 0.71875q0.78125 0 1.328125 -0.40625q0.546875 -0.40625 0.859375 -1.296875zm-4.609375 -2.28125l4.625 0q-0.09375 -1.046875 -0.53125 -1.5625q-0.671875 -0.8125 -1.734375 -0.8125q-0.96875 0 -1.640625 0.65625q-0.65625 0.640625 -0.71875 1.71875zm13.2734375 4.953125l0 -1.21875q-0.96875 1.40625 -2.640625 1.40625q-0.734375 0 -1.375 -0.28125q-0.625 -0.28125 -0.9375 -0.703125q-0.3125 -0.4375 -0.4375 -1.046875q-0.078125 -0.421875 -0.078125 -1.3125l0 -5.140625l1.40625 0l0 4.59375q0 1.109375 0.078125 1.484375q0.140625 0.5625 0.5625 0.875q0.4375 0.3125 1.0625 0.3125q0.640625 0 1.1875 -0.3125q0.5625 -0.328125 0.78125 -0.890625q0.234375 -0.5625 0.234375 -1.625l0 -4.4375l1.40625 0l0 8.296875l-1.25 0zm9.1328125 -2.671875l1.453125 0.171875q-0.34375 1.28125 -1.28125 1.984375q-0.921875 0.703125 -2.359375 0.703125q-1.828125 0 -2.890625 -1.125q-1.0625 -1.125 -1.0625 -3.140625q0 -2.09375 1.078125 -3.25q1.078125 -1.15625 2.796875 -1.15625q1.65625 0 2.703125 1.140625q1.0625 1.125 1.0625 3.171875q0 0.125 0 0.375l-6.1875 0q0.078125 1.375 0.765625 2.109375q0.703125 0.71875 1.734375 0.71875q0.78125 0 1.328125 -0.40625q0.546875 -0.40625 0.859375 -1.296875zm-4.609375 -2.28125l4.625 0q-0.09375 -1.046875 -0.53125 -1.5625q-0.671875 -0.8125 -1.734375 -0.8125q-0.96875 0 -1.640625 0.65625q-0.65625 0.640625 -0.71875 1.71875z" fill-rule="nonzero"/><path fill="#000000" fill-opacity="0.0" d="m431.5118 107.58793c80.53543 0 161.07089 30.173225 161.07089 60.34646" fill-rule="evenodd"/><path stroke="#000000" stroke-width="2.0" stroke-linejoin="round" stroke-linecap="butt" stroke-dasharray="8.0,6.0" d="m431.5118 107.58793c40.26773 0 80.53543 7.5433044 110.73624 18.858269c15.100403 5.6574707 27.684021 12.257874 36.492615 19.329727c2.2021484 1.7679596 4.168335 3.565384 5.8789062 5.384918c0.85528564 0.9097595 1.6467285 1.8250427 2.3717651 2.7449493c0.3624878 0.45994568 0.70843506 0.92103577 1.0374756 1.3831635c0.16448975 0.23106384 0.32476807 0.46240234 0.48077393 0.6939697c0.078063965 0.11578369 0.15496826 0.23162842 0.23083496 0.34753418l0.12524414 0.19410706" fill-rule="evenodd"/><path fill="#000000" stroke="#000000" stroke-width="2.0" stroke-linecap="butt" d="m585.7247 157.54782l5.9523315 7.606552l0.32965088 -9.653061z" fill-rule="evenodd"/><path fill="#000000" fill-opacity="0.0" d="m593.82153 262.48032c12.5 0 23.415222 -12.211746 25.0 -21.652847c1.5847778 -9.441101 -6.1608887 -16.111542 -13.114197 -21.652847c-6.953247 -5.5412903 -13.114136 -9.953445 -13.114136 -19.906906" fill-rule="evenodd"/><path stroke="#000000" stroke-width="1.0" stroke-linejoin="round" stroke-linecap="butt" stroke-dasharray="4.0,3.0" d="m593.82153 262.48032c12.5 0 23.415222 -12.211731 25.0 -21.652847c1.5847778 -9.441086 -6.1608887 -16.111542 -13.114197 -21.652847c-3.4766235 -2.7706451 -6.755127 -5.259018 -9.164551 -8.298889c-1.2047119 -1.5199432 -2.1920776 -3.1777802 -2.878357 -5.0776825c-0.04284668 -0.118759155 -0.08459473 -0.23843384 -0.12512207 -0.3591156l-0.075805664 -0.23468018" fill-rule="evenodd"/><path fill="#000000" stroke="#000000" stroke-width="1.0" stroke-linecap="butt" d="m595.0978 204.96468l-2.2925415 -4.250519l-0.9760132 4.7296906z" fill-rule="evenodd"/><path fill="#000000" fill-opacity="0.0" d="m593.82153 262.48032c53.589294 0 96.90686 -58.91339 107.17853 -117.82677c10.2716675 -58.91339 -12.5026245 -117.82678 -25.00531 -117.82678" fill-rule="evenodd"/><path stroke="#000000" stroke-width="1.0" stroke-linejoin="round" stroke-linecap="butt" d="m593.82153 262.48032c53.589294 0 96.90692 -58.91339 107.17853 -117.82677c5.1358643 -29.456696 2.0101929 -58.91339 -3.9622192 -81.00591c-2.986267 -11.046257 -6.684143 -20.251476 -10.416992 -26.695126c-0.9331665 -1.6109123 -1.8685303 -3.0492287 -2.7955322 -4.30056c-0.46350098 -0.6256714 -0.9248657 -1.2045937 -1.3828735 -1.734972c-0.2290039 -0.26518822 -0.4570923 -0.5182419 -0.6842041 -0.758934c-0.11352539 -0.12034607 -0.22686768 -0.23760223 -0.3399048 -0.3517418l-0.13946533 -0.13734818" fill-rule="evenodd"/><path fill="#000000" stroke="#000000" stroke-width="1.0" stroke-linecap="butt" d="m682.0613 28.214296l-4.7790527 -0.6950245l3.2142334 3.6043453z" fill-rule="evenodd"/><path fill="#000000" fill-opacity="0.0" d="m509.16534 183.60104l-237.95276 63.2126" fill-rule="evenodd"/><path stroke="#000000" stroke-width="1.0" stroke-linejoin="round" stroke-linecap="butt" d="m509.16534 183.60104l-232.15387 61.672134" fill-rule="evenodd"/><path fill="#000000" stroke="#000000" stroke-width="1.0" stroke-linecap="butt" d="m276.5874 243.6768l-3.961914 2.7615051l4.8100586 0.43122864z" fill-rule="evenodd"/><path fill="#000000" fill-opacity="0.0" d="m7.9986877 88.2021l166.83464 0l0 38.771652l-166.83464 0z" fill-rule="evenodd"/><path fill="#000000" d="m18.498688 112.5621l0 -11.453125l1.515625 0l0 11.453125l-1.515625 0zm4.0078125 0l0 -8.296875l1.265625 0l0 1.171875q0.90625 -1.359375 2.640625 -1.359375q0.75 0 1.375 0.265625q0.625 0.265625 0.9375 0.703125q0.3125 0.4375 0.4375 1.046875q0.078125 0.390625 0.078125 1.359375l0 5.109375l-1.40625 0l0 -5.046875q0 -0.859375 -0.171875 -1.28125q-0.15625 -0.4375 -0.578125 -0.6875q-0.40625 -0.25 -0.96875 -0.25q-0.90625 0 -1.5625 0.578125q-0.640625 0.5625 -0.640625 2.15625l0 4.53125l-1.40625 0zm9.2265625 0l0 -7.203125l-1.234375 0l0 -1.09375l1.234375 0l0 -0.890625q0 -0.828125 0.15625 -1.234375q0.203125 -0.546875 0.703125 -0.890625q0.515625 -0.34375 1.4375 -0.34375q0.59375 0 1.3125 0.140625l-0.203125 1.234375q-0.4375 -0.078125 -0.828125 -0.078125q-0.640625 0 -0.90625 0.28125q-0.265625 0.265625 -0.265625 1.015625l0 0.765625l1.609375 0l0 1.09375l-1.609375 0l0 7.203125l-1.40625 0zm3.5859375 -4.15625q0 -2.296875 1.28125 -3.40625q1.078125 -0.921875 2.609375 -0.921875q1.71875 0 2.796875 1.125q1.09375 1.109375 1.09375 3.09375q0 1.59375 -0.484375 2.515625q-0.484375 0.921875 -1.40625 1.4375q-0.90625 0.5 -2.0 0.5q-1.734375 0 -2.8125 -1.109375q-1.078125 -1.125 -1.078125 -3.234375zm1.453125 0q0 1.59375 0.6875 2.390625q0.703125 0.796875 1.75 0.796875q1.046875 0 1.734375 -0.796875q0.703125 -0.796875 0.703125 -2.4375q0 -1.53125 -0.703125 -2.328125q-0.6875 -0.796875 -1.734375 -0.796875q-1.046875 0 -1.75 0.796875q-0.6875 0.78125 -0.6875 2.375zm7.9609375 4.15625l0 -8.296875l1.265625 0l0 1.25q0.484375 -0.875 0.890625 -1.15625q0.40625 -0.28125 0.90625 -0.28125q0.703125 0 1.4375 0.453125l-0.484375 1.296875q-0.515625 -0.296875 -1.03125 -0.296875q-0.453125 0 -0.828125 0.28125q-0.359375 0.265625 -0.515625 0.765625q-0.234375 0.75 -0.234375 1.640625l0 4.34375l-1.40625 0zm5.34375 0l0 -8.296875l1.25 0l0 1.15625q0.390625 -0.609375 1.03125 -0.96875q0.65625 -0.375 1.484375 -0.375q0.921875 0 1.515625 0.390625q0.59375 0.375 0.828125 1.0625q0.984375 -1.453125 2.5625 -1.453125q1.234375 0 1.890625 0.6875q0.671875 0.671875 0.671875 2.09375l0 5.703125l-1.390625 0l0 -5.234375q0 -0.84375 -0.140625 -1.203125q-0.140625 -0.375 -0.5 -0.59375q-0.359375 -0.234375 -0.84375 -0.234375q-0.875 0 -1.453125 0.578125q-0.578125 0.578125 -0.578125 1.859375l0 4.828125l-1.40625 0l0 -5.390625q0 -0.9375 -0.34375 -1.40625q-0.34375 -0.46875 -1.125 -0.46875q-0.59375 0 -1.09375 0.3125q-0.5 0.3125 -0.734375 0.921875q-0.21875 0.59375 -0.21875 1.71875l0 4.3125l-1.40625 0zm19.0 -2.671875l1.453125 0.171875q-0.34375 1.28125 -1.28125 1.984375q-0.921875 0.703125 -2.359375 0.703125q-1.828125 0 -2.890625 -1.125q-1.0625 -1.125 -1.0625 -3.140625q0 -2.09375 1.078125 -3.25q1.078125 -1.15625 2.796875 -1.15625q1.65625 0 2.703125 1.140625q1.0625 1.125 1.0625 3.171875q0 0.125 0 0.375l-6.1875 0q0.078125 1.375 0.765625 2.109375q0.703125 0.71875 1.734375 0.71875q0.78125 0 1.328125 -0.40625q0.546875 -0.40625 0.859375 -1.296875zm-4.609375 -2.28125l4.625 0q-0.09375 -1.046875 -0.53125 -1.5625q-0.671875 -0.8125 -1.734375 -0.8125q-0.96875 0 -1.640625 0.65625q-0.65625 0.640625 -0.71875 1.71875zm7.8203125 4.953125l0 -8.296875l1.265625 0l0 1.25q0.484375 -0.875 0.890625 -1.15625q0.40625 -0.28125 0.90625 -0.28125q0.703125 0 1.4375 0.453125l-0.484375 1.296875q-0.515625 -0.296875 -1.03125 -0.296875q-0.453125 0 -0.828125 0.28125q-0.359375 0.265625 -0.515625 0.765625q-0.234375 0.75 -0.234375 1.640625l0 4.34375l-1.40625 0z" fill-rule="nonzero"/><path fill="#000000" d="m88.07681 100.7496q3.5625 -0.1875 6.5 -0.75l0.75 1.125q0.125 0.3125 -0.4375 0.125l-2.5 0.25l0 1.625l3.75 0l0 1.0l-3.75 0l0 1.4375l2.375 0l0 8.125l-1.0625 0l0 -0.4375l-3.5 0l0 0.75l-1.0625 0l0 -8.4375l2.1875 0l0 -1.4375l-3.3125 0l0 3.3125q0 4.0 -1.6875 6.25l-1.0 -1.0q1.4375 -1.875 1.4375 -5.25l0 -7.125l1.3125 0.4375zm-4.4375 6.5q-0.4375 0.5625 -1.125 1.125l-0.6875 -1.0625q2.3125 -2.1875 3.4375 -4.5625l1.0625 0.8125q0.25 0.375 -0.1875 0.3125q-0.5 0.9375 -1.25 1.9375l0 8.0625l-1.25 0l0 -6.625zm7.6875 -4.125l0 -1.5l-3.3125 0.125l0 1.375l3.3125 0zm2.375 4.625l0 -1.1875l-3.5 0l0 1.1875l3.5 0zm0 1.0l-3.5 0l0 1.1875l3.5 0l0 -1.1875zm0 3.5l0 -1.3125l-3.5 0l0 1.3125l3.5 0zm-7.5625 -11.5625q0.1875 0.25 -0.3125 0.25q-1.625 1.875 -3.125 3.125l-0.75 -0.9375q1.75 -1.375 3.0625 -3.375l1.125 0.9375z" fill-rule="nonzero"/><path fill="#000000" d="m109.95181 100.4371q0.9375 0 2.125 -0.0625l0 1.1875q-1.0625 -0.0625 -2.125 -0.0625l-1.1875 0q-0.5625 2.0 -0.75 2.75l0 7.625q0 1.25 0.0625 2.25l-1.3125 0q0.0625 -0.9375 0.0625 -2.25l0 -5.0q-1.3125 2.5625 -3.1875 4.3125q-0.375 -0.375 -1.125 -0.8125q0.875 -0.625 1.65625 -1.59375q0.78125 -0.96875 1.53125 -2.28125q0.75 -1.3125 1.09375 -2.4375q0.34375 -1.125 0.65625 -2.5625l-1.75 0q-1.0 0 -2.0625 0.0625l0 -1.1875q1.0625 0.0625 2.0625 0.0625l4.25 0zm-8.25 0q0.625 0 1.4375 -0.0625l0 1.125q-0.8125 -0.0625 -1.4375 -0.0625l-0.4375 0l0 3.0q0.875 0 1.9375 -0.0625l0 1.125q-1.125 -0.0625 -1.9375 -0.0625l0 3.5625q0.5625 -0.125 1.875 -0.75q0 0.5 0.0625 1.1875q-1.875 0.6875 -2.84375 1.0q-0.96875 0.3125 -2.09375 0.8125q-0.25 -0.625 -0.625 -1.3125q0.4375 0 2.5 -0.5625l0 -3.9375q-1.0625 0 -2.0 0.125l0 -1.1875q0.9375 0.0625 2.0 0.0625l0 -3.0l-0.5625 0q-0.8125 0 -1.625 0.0625l0 -1.125q0.8125 0.0625 1.5625 0.0625l2.1875 0zm7.8125 4.3125q1.9375 2.625 2.9375 4.25q-0.625 0.375 -1.1875 0.75q-0.9375 -1.6875 -1.46875 -2.5q-0.53125 -0.8125 -1.28125 -1.75q0.5625 -0.3125 1.0 -0.75z" fill-rule="nonzero"/><path fill="#000000" fill-opacity="0.0" d="m12.629921 243.09448l152.12598 0l0 38.771667l-152.12598 0z" fill-rule="evenodd"/><path fill="#000000" d="m22.348671 263.767l1.4375 -0.125q0.09375 0.859375 0.46875 1.421875q0.375 0.546875 1.15625 0.890625q0.78125 0.328125 1.75 0.328125q0.875 0 1.53125 -0.25q0.671875 -0.265625 0.984375 -0.703125q0.328125 -0.453125 0.328125 -0.984375q0 -0.546875 -0.3125 -0.9375q-0.3125 -0.40625 -1.03125 -0.6875q-0.453125 -0.171875 -2.03125 -0.546875q-1.578125 -0.390625 -2.21875 -0.71875q-0.8125 -0.4375 -1.21875 -1.0625q-0.40625 -0.640625 -0.40625 -1.4375q0 -0.859375 0.484375 -1.609375q0.5 -0.765625 1.4375 -1.15625q0.953125 -0.39064026 2.109375 -0.39064026q1.28125 0 2.25 0.42189026q0.96875 0.40625 1.484375 1.203125q0.53125 0.796875 0.578125 1.796875l-1.453125 0.109375q-0.125 -1.078125 -0.796875 -1.625q-0.671875 -0.5625 -2.0 -0.5625q-1.375 0 -2.0 0.5q-0.625 0.5 -0.625 1.21875q0 0.609375 0.4375 1.015625q0.4375 0.390625 2.28125 0.8125q1.859375 0.421875 2.546875 0.734375q1.0 0.453125 1.46875 1.171875q0.484375 0.703125 0.484375 1.625q0 0.90625 -0.53125 1.71875q-0.515625 0.8125 -1.5 1.265625q-0.984375 0.453125 -2.203125 0.453125q-1.5625 0 -2.609375 -0.453125q-1.046875 -0.46875 -1.65625 -1.375q-0.59375 -0.90625 -0.625 -2.0625zm16.421875 0.640625l1.390625 0.1875q-0.234375 1.421875 -1.171875 2.234375q-0.921875 0.8125 -2.28125 0.8125q-1.703125 0 -2.75 -1.109375q-1.03125 -1.125 -1.03125 -3.203125q0 -1.34375 0.4375 -2.34375q0.453125 -1.015625 1.359375 -1.515625q0.921875 -0.5 1.984375 -0.5q1.359375 0 2.21875 0.6875q0.859375 0.671875 1.09375 1.9375l-1.359375 0.203125q-0.203125 -0.828125 -0.703125 -1.25q-0.484375 -0.421875 -1.1875 -0.421875q-1.0625 0 -1.734375 0.765625q-0.65625 0.75 -0.65625 2.40625q0 1.671875 0.640625 2.4375q0.640625 0.75 1.671875 0.75q0.828125 0 1.375 -0.5q0.5625 -0.515625 0.703125 -1.578125zm2.59375 3.046875l0 -11.453125l1.40625 0l0 4.109375q0.984375 -1.140625 2.484375 -1.140625q0.921875 0 1.59375 0.359375q0.6875 0.359375 0.96875 1.0q0.296875 0.640625 0.296875 1.859375l0 5.265625l-1.40625 0l0 -5.265625q0 -1.046875 -0.453125 -1.53125q-0.453125 -0.484375 -1.296875 -0.484375q-0.625 0 -1.171875 0.328125q-0.546875 0.328125 -0.78125 0.890625q-0.234375 0.546875 -0.234375 1.515625l0 4.546875l-1.40625 0zm14.5703125 -2.671875l1.453125 0.171875q-0.34375 1.28125 -1.28125 1.984375q-0.921875 0.703125 -2.359375 0.703125q-1.828125 0 -2.890625 -1.125q-1.0625 -1.125 -1.0625 -3.140625q0 -2.09375 1.078125 -3.25q1.078125 -1.15625 2.796875 -1.15625q1.65625 0 2.703125 1.140625q1.0625 1.125 1.0625 3.171875q0 0.125 0 0.375l-6.1875 0q0.078125 1.375 0.765625 2.109375q0.703125 0.71875 1.734375 0.71875q0.78125 0 1.328125 -0.40625q0.546875 -0.40625 0.859375 -1.296875zm-4.609375 -2.28125l4.625 0q-0.09375 -1.046875 -0.53125 -1.5625q-0.671875 -0.8125 -1.734375 -0.8125q-0.96875 0 -1.640625 0.65625q-0.65625 0.640625 -0.71875 1.71875zm13.2109375 4.953125l0 -1.046875q-0.78125 1.234375 -2.3125 1.234375q-1.0 0 -1.828125 -0.546875q-0.828125 -0.546875 -1.296875 -1.53125q-0.453125 -0.984375 -0.453125 -2.25q0 -1.25 0.40625 -2.25q0.421875 -1.015625 1.25 -1.546875q0.828125 -0.546875 1.859375 -0.546875q0.75 0 1.328125 0.3125q0.59375 0.3125 0.953125 0.828125l0 -4.109375l1.40625 0l0 11.453125l-1.3125 0zm-4.4375 -4.140625q0 1.59375 0.671875 2.390625q0.671875 0.78125 1.578125 0.78125q0.921875 0 1.5625 -0.75q0.65625 -0.765625 0.65625 -2.3125q0 -1.703125 -0.65625 -2.5q-0.65625 -0.796875 -1.625 -0.796875q-0.9375 0 -1.5625 0.765625q-0.625 0.765625 -0.625 2.421875zm13.3984375 4.140625l0 -1.21875q-0.96875 1.40625 -2.640625 1.40625q-0.734375 0 -1.375 -0.28125q-0.625 -0.28125 -0.9375 -0.703125q-0.3125 -0.4375 -0.4375 -1.046875q-0.078125 -0.421875 -0.078125 -1.3125l0 -5.140625l1.40625 0l0 4.59375q0 1.109375 0.078125 1.484375q0.140625 0.5625 0.5625 0.875q0.4375 0.3125 1.0625 0.3125q0.640625 0 1.1875 -0.3125q0.5625 -0.328125 0.78125 -0.890625q0.234375 -0.5625 0.234375 -1.625l0 -4.4375l1.40625 0l0 8.296875l-1.25 0zm3.4296875 0l0 -11.453125l1.40625 0l0 11.453125l-1.40625 0zm3.5859375 -9.84375l0 -1.609375l1.40625 0l0 1.609375l-1.40625 0zm0 9.84375l0 -8.296875l1.40625 0l0 8.296875l-1.40625 0zm3.5546875 0l0 -8.296875l1.265625 0l0 1.171875q0.90625 -1.359375 2.640625 -1.359375q0.75 0 1.375 0.265625q0.625 0.265625 0.9375 0.703125q0.3125 0.4375 0.4375 1.046875q0.078125 0.390625 0.078125 1.359375l0 5.109375l-1.40625 0l0 -5.046875q0 -0.859375 -0.171875 -1.28125q-0.15625 -0.4375 -0.578125 -0.6875q-0.40625 -0.25 -0.96875 -0.25q-0.90625 0 -1.5625 0.578125q-0.640625 0.5625 -0.640625 2.15625l0 4.53125l-1.40625 0zm8.6328125 0.6875l1.375 0.203125q0.078125 0.640625 0.46875 0.921875q0.53125 0.390625 1.4375 0.390625q0.96875 0 1.5 -0.390625q0.53125 -0.390625 0.71875 -1.09375q0.109375 -0.421875 0.109375 -1.8125q-0.921875 1.09375 -2.296875 1.09375q-1.71875 0 -2.65625 -1.234375q-0.9375 -1.234375 -0.9375 -2.96875q0 -1.1875 0.421875 -2.1875q0.4375 -1.0 1.25 -1.546875q0.828125 -0.546875 1.921875 -0.546875q1.46875 0 2.421875 1.1875l0 -1.0l1.296875 0l0 7.171875q0 1.9375 -0.390625 2.75q-0.390625 0.8125 -1.25 1.28125q-0.859375 0.46875 -2.109375 0.46875q-1.484375 0 -2.40625 -0.671875q-0.90625 -0.671875 -0.875 -2.015625zm1.171875 -4.984375q0 1.625 0.640625 2.375q0.65625 0.75 1.625 0.75q0.96875 0 1.625 -0.734375q0.65625 -0.75 0.65625 -2.34375q0 -1.53125 -0.671875 -2.296875q-0.671875 -0.78125 -1.625 -0.78125q-0.9375 0 -1.59375 0.765625q-0.65625 0.765625 -0.65625 2.265625z" fill-rule="nonzero"/><path fill="#000000" d="m112.30961 255.64198q3.5625 -0.1875 6.5 -0.75l0.75 1.1250153q0.125 0.3125 -0.4375 0.125l-2.5 0.25l0 1.625l3.75 0l0 1.0l-3.75 0l0 1.4375l2.375 0l0 8.125l-1.0625 0l0 -0.4375l-3.5 0l0 0.75l-1.0625 0l0 -8.4375l2.1875 0l0 -1.4375l-3.3125 0l0 3.3125q0 4.0 -1.6875 6.25l-1.0 -1.0q1.4375 -1.875 1.4375 -5.25l0 -7.1250153l1.3125 0.4375zm-4.4375 6.5000153q-0.4375 0.5625 -1.125 1.125l-0.6875 -1.0625q2.3125 -2.1875 3.4375 -4.5625l1.0625 0.8125q0.25 0.375 -0.1875 0.3125q-0.5 0.9375 -1.25 1.9375l0 8.0625l-1.25 0l0 -6.625zm7.6875 -4.125l0 -1.5l-3.3125 0.125l0 1.375l3.3125 0zm2.375 4.625l0 -1.1875l-3.5 0l0 1.1875l3.5 0zm0 1.0l-3.5 0l0 1.1875l3.5 0l0 -1.1875zm0 3.5l0 -1.3125l-3.5 0l0 1.3125l3.5 0zm-7.5625 -11.562515q0.1875 0.25 -0.3125 0.25q-1.625 1.8750153 -3.125 3.1250153l-0.75 -0.9375q1.75 -1.375 3.0625 -3.3750153l1.125 0.9375z" fill-rule="nonzero"/><path fill="#000000" d="m134.18462 255.32948q0.9375 0 2.125 -0.0625l0 1.1875153q-1.0625 -0.0625 -2.125 -0.0625l-1.1875 0q-0.5625 2.0 -0.75 2.75l0 7.625q0 1.25 0.0625 2.25l-1.3125 0q0.0625 -0.9375 0.0625 -2.25l0 -5.0q-1.3125 2.5625 -3.1875076 4.3125q-0.375 -0.375 -1.125 -0.8125q0.875 -0.625 1.6562576 -1.59375q0.78125 -0.96875 1.53125 -2.28125q0.75 -1.3125 1.09375 -2.4375q0.34375 -1.125 0.65625 -2.5625l-1.75 0q-1.0 0 -2.0625076 0.0625l0 -1.1875153q1.0625076 0.0625 2.0625076 0.0625l4.25 0zm-8.250008 0q0.625 0 1.4375 -0.0625l0 1.1250153q-0.8125 -0.0625 -1.4375 -0.0625l-0.4375 0l0 3.0q0.875 0 1.9375 -0.0625l0 1.125q-1.125 -0.0625 -1.9375 -0.0625l0 3.5625q0.5625 -0.125 1.875 -0.75q0 0.5 0.0625 1.1875q-1.875 0.6875 -2.84375 1.0q-0.96875 0.3125 -2.09375 0.8125q-0.25 -0.625 -0.625 -1.3125q0.4375 0 2.5 -0.5625l0 -3.9375q-1.0625 0 -2.0 0.125l0 -1.1875q0.9375 0.0625 2.0 0.0625l0 -3.0l-0.5625 0q-0.8125 0 -1.625 0.0625l0 -1.1250153q0.8125 0.0625 1.5625 0.0625l2.1875 0zm7.8125076 4.3125153q1.9375 2.625 2.9375 4.25q-0.625 0.375 -1.1875 0.75q-0.9375 -1.6875 -1.46875 -2.5q-0.53125 -0.8125 -1.28125 -1.75q0.5625 -0.3125 1.0 -0.75z" fill-rule="nonzero"/><path fill="#000000" fill-opacity="0.0" d="m209.72835 107.20998l122.99211 0l0 37.16536l-122.99211 0z" fill-rule="evenodd"/><path fill="#666666" d="m231.97835 131.0556q-4.515625 -2.34375 -5.6875 -7.3906326q-1.234375 5.6875076 -5.921875 7.7343826l-0.703125 -1.34375q5.09375 -2.1093826 5.515625 -8.140633l0.75 0.046875l0 -1.875l-3.046875 0l0 -1.109375l4.40625 0l0 2.109375q0 5.625 5.5 8.500008l-0.8125 1.46875z" fill-rule="nonzero"/><path fill="#666666" d="m236.1346 120.149345l0 11.578133l-1.140625 0q0.046875 -1.328125 0.046875 -2.40625l0 -7.4531326q0 -1.140625 -0.046875 -2.6875l5.03125 0q-0.515625 1.71875 -0.8125 2.546875q-0.28125 0.828125 -0.671875 1.921875q0.859375 1.203125 1.140625 1.984375q0.28125 0.765625 0.21875 1.484375q-0.046875 0.703125 -0.515625 1.2812576q-0.453125 0.578125 -2.15625 0.859375q-0.171875 -0.75 -0.515625 -1.3125076q1.015625 0 1.46875 -0.171875q0.46875 -0.171875 0.546875 -0.765625q0.09375 -0.609375 -0.34375 -1.46875q-0.421875 -0.859375 -1.046875 -1.828125q0.453125 -0.921875 1.203125 -3.5625l-2.40625 0zm7.4375 -1.484375q-0.109375 0.75 -0.140625 1.609375q-0.03125 0.859375 0.078125 2.234375q0.125 1.375 0.6875 2.828125q0.578125 1.453125 1.234375 2.515625q0.65625 1.0625076 1.25 1.7031326q0.609375 0.625 1.1875 1.015625q-0.578125 0.46875 -0.921875 0.984375q-0.96875 -0.859375 -2.03125 -2.4375q-1.046875 -1.5781326 -1.90625 -4.3281326q-0.40625 1.953125 -0.84375 2.90625q-0.421875 0.9375076 -1.203125 2.0312576q-0.765625 1.078125 -1.859375 2.0q-0.34375 -0.578125 -0.96875 -0.921875q1.4375 -0.921875 2.265625 -2.125q0.828125 -1.2031326 1.21875 -2.5625076q0.40625 -1.375 0.515625 -2.6875q0.125 -1.328125 0.125 -2.421875q0 -1.140625 -0.109375 -2.453125q0.96875 0.109375 1.421875 0.109375z" fill-rule="nonzero"/><path fill="#000000" fill-opacity="0.0" d="m238.21654 197.91077l66.01573 0l0 37.165344l-66.01573 0z" fill-rule="evenodd"/><path fill="#666666" d="m250.56029 210.3814q0.46875 0.0625 0.0625 0.359375l0 3.15625l3.453125 0l0 -4.6875l1.109375 0q0.46875 0.0625 0.0625 0.359375l0 4.328125l3.3906097 0l0 -3.453125l1.125 0q0.46875 0.0625 0.046875 0.34375l0 4.75l-1.171875 0l0 -0.53125l-3.3906097 0l0 5.046875l3.8593597 0l0 -3.578125l1.125 0q0.46875 0.0625 0.046875 0.359375l0 4.984375l-1.171875 0l0 -0.65625l-9.07811 0l0 0.828125l-1.171875 0l0 -5.578125l1.109375 0q0.46875 0.0625 0.0625 0.359375l0 3.28125l4.046875 0l0 -5.046875l-3.453125 0l0 0.65625l-1.171875 0l0 -5.28125l1.109375 0z" fill-rule="nonzero"/><path fill="#666666" d="m264.62277 210.85014l0 11.578125l-1.140625 0q0.046875 -1.328125 0.046875 -2.40625l0 -7.453125q0 -1.140625 -0.046875 -2.6875l5.03125 0q-0.515625 1.71875 -0.8125 2.546875q-0.28125 0.828125 -0.671875 1.921875q0.859375 1.203125 1.140625 1.984375q0.28125 0.765625 0.21875 1.484375q-0.046875 0.703125 -0.515625 1.28125q-0.453125 0.578125 -2.15625 0.859375q-0.171875 -0.75 -0.515625 -1.3125q1.015625 0 1.46875 -0.171875q0.46875 -0.171875 0.546875 -0.765625q0.09375 -0.609375 -0.34375 -1.46875q-0.421875 -0.859375 -1.046875 -1.828125q0.453125 -0.921875 1.203125 -3.5625l-2.40625 0zm7.4375 -1.484375q-0.109375 0.75 -0.140625 1.609375q-0.03125 0.859375 0.078125 2.234375q0.125 1.375 0.6875 2.828125q0.578125 1.453125 1.234375 2.515625q0.65625 1.0625 1.25 1.703125q0.609375 0.625 1.1875 1.015625q-0.578125 0.46875 -0.921875 0.984375q-0.96875 -0.859375 -2.03125 -2.4375q-1.046875 -1.578125 -1.90625 -4.328125q-0.40625 1.953125 -0.84375 2.90625q-0.421875 0.9375 -1.203125 2.03125q-0.765625 1.078125 -1.859375 2.0q-0.34375 -0.578125 -0.96875 -0.921875q1.4375 -0.921875 2.265625 -2.125q0.828125 -1.203125 1.21875 -2.5625q0.40625 -1.375 0.515625 -2.6875q0.125 -1.328125 0.125 -2.421875q0 -1.140625 -0.109375 -2.453125q0.96875 0.109375 1.421875 0.109375z" fill-rule="nonzero"/><path fill="#000000" fill-opacity="0.0" d="m386.1719 11.091864l122.99213 0l0 37.16535l-122.99213 0z" fill-rule="evenodd"/><path fill="#666666" d="m396.25003 34.171864l0 -10.484375l1.390625 0l0 9.25l5.15625 0l0 1.234375l-6.546875 0zm8.041748 -9.015625l0 -1.46875l1.296875 0l0 1.46875l-1.296875 0zm0 9.015625l0 -7.59375l1.296875 0l0 7.59375l-1.296875 0zm2.740509 -2.265625l1.265625 -0.203125q0.109375 0.765625 0.59375 1.171875q0.5 0.40625 1.375 0.40625q0.890625 0 1.3125 -0.359375q0.4375 -0.359375 0.4375 -0.84375q0 -0.4375 -0.375 -0.6875q-0.265625 -0.171875 -1.3125 -0.4375q-1.421875 -0.359375 -1.96875 -0.609375q-0.546875 -0.265625 -0.828125 -0.734375q-0.28125 -0.46875 -0.28125 -1.015625q0 -0.515625 0.21875 -0.9375q0.234375 -0.4375 0.640625 -0.734375q0.296875 -0.21875 0.8125 -0.359375q0.53125 -0.15625 1.125 -0.15625q0.890625 0 1.5625 0.265625q0.671875 0.25 1.0 0.6875q0.328125 0.4375 0.4375 1.171875l-1.25 0.171875q-0.09375 -0.578125 -0.5 -0.90625q-0.40625 -0.34375 -1.15625 -0.34375q-0.890625 0 -1.28125 0.296875q-0.375 0.296875 -0.375 0.6875q0 0.25 0.15625 0.453125q0.15625 0.203125 0.5 0.34375q0.1875 0.078125 1.140625 0.328125q1.359375 0.359375 1.890625 0.59375q0.546875 0.234375 0.859375 0.6875q0.3125 0.4375 0.3125 1.09375q0 0.640625 -0.375 1.21875q-0.375 0.5625 -1.09375 0.875q-0.703125 0.3125 -1.59375 0.3125q-1.484375 0 -2.265625 -0.609375q-0.765625 -0.625 -0.984375 -1.828125zm10.65625 1.109375l0.1875 1.140625q-0.546875 0.109375 -0.984375 0.109375q-0.6875 0 -1.078125 -0.21875q-0.390625 -0.21875 -0.546875 -0.578125q-0.15625 -0.359375 -0.15625 -1.515625l0 -4.375l-0.953125 0l0 -1.0l0.953125 0l0 -1.890625l1.28125 -0.765625l0 2.65625l1.296875 0l0 1.0l-1.296875 0l0 4.4375q0 0.546875 0.0625 0.71875q0.078125 0.15625 0.21875 0.25q0.15625 0.078125 0.453125 0.078125q0.203125 0 0.5625 -0.046875zm0.29074097 1.328125l3.046875 -10.84375l1.03125 0l-3.046875 10.84375l-1.03125 0zm7.0407104 -0.171875l-2.796875 -10.484375l1.4375 0l1.59375 6.875q0.25 1.078125 0.4375 2.140625q0.40625 -1.6875 0.46875 -1.9375l2.0 -7.078125l1.671875 0l1.5 5.296875q0.578125 1.984375 0.828125 3.71875q0.203125 -1.0 0.515625 -2.28125l1.640625 -6.734375l1.40625 0l-2.875 10.484375l-1.34375 0l-2.203125 -8.0q-0.28125 -1.0 -0.34375 -1.21875q-0.15625 0.71875 -0.296875 1.21875l-2.234375 8.0l-1.40625 0zm16.242126 -0.9375q-0.71875 0.609375 -1.375 0.859375q-0.65625 0.25 -1.421875 0.25q-1.25 0 -1.921875 -0.609375q-0.671875 -0.609375 -0.671875 -1.5625q0 -0.5625 0.25 -1.015625q0.25 -0.46875 0.65625 -0.75q0.421875 -0.28125 0.9375 -0.421875q0.375 -0.09375 1.140625 -0.1875q1.5625 -0.1875 2.296875 -0.453125q0.015625 -0.265625 0.015625 -0.328125q0 -0.796875 -0.375 -1.109375q-0.484375 -0.4375 -1.453125 -0.4375q-0.921875 0 -1.359375 0.328125q-0.421875 0.3125 -0.625 1.109375l-1.265625 -0.171875q0.171875 -0.796875 0.5625 -1.296875q0.390625 -0.5 1.140625 -0.765625q0.75 -0.265625 1.71875 -0.265625q0.984375 0 1.59375 0.234375q0.609375 0.21875 0.890625 0.5625q0.28125 0.34375 0.40625 0.875q0.0625 0.328125 0.0625 1.1875l0 1.71875q0 1.796875 0.078125 2.28125q0.078125 0.46875 0.328125 0.90625l-1.34375 0q-0.203125 -0.40625 -0.265625 -0.9375zm-0.109375 -2.875q-0.703125 0.28125 -2.09375 0.484375q-0.796875 0.109375 -1.125 0.265625q-0.328125 0.140625 -0.515625 0.421875q-0.171875 0.265625 -0.171875 0.59375q0 0.515625 0.390625 0.859375q0.390625 0.34375 1.140625 0.34375q0.734375 0 1.3125 -0.3125q0.59375 -0.328125 0.859375 -0.890625q0.203125 -0.4375 0.203125 -1.296875l0 -0.46875zm6.119873 2.65625l0.1875 1.140625q-0.546875 0.109375 -0.984375 0.109375q-0.6875 0 -1.078125 -0.21875q-0.390625 -0.21875 -0.546875 -0.578125q-0.15625 -0.359375 -0.15625 -1.515625l0 -4.375l-0.953125 0l0 -1.0l0.953125 0l0 -1.890625l1.28125 -0.765625l0 2.65625l1.296875 0l0 1.0l-1.296875 0l0 4.4375q0 0.546875 0.0625 0.71875q0.078125 0.15625 0.21875 0.25q0.15625 0.078125 0.453125 0.078125q0.203125 0 0.5625 -0.046875zm6.2125854 -1.625l1.265625 0.15625q-0.203125 1.3125 -1.0625 2.0625q-0.84375 0.734375 -2.09375 0.734375q-1.5625 0 -2.515625 -1.015625q-0.9375 -1.03125 -0.9375 -2.921875q0 -1.234375 0.40625 -2.15625q0.40625 -0.921875 1.234375 -1.375q0.84375 -0.46875 1.8125 -0.46875q1.25 0 2.03125 0.625q0.78125 0.625 1.015625 1.765625l-1.265625 0.203125q-0.171875 -0.765625 -0.625 -1.15625q-0.453125 -0.390625 -1.09375 -0.390625q-0.984375 0 -1.59375 0.703125q-0.609375 0.703125 -0.609375 2.203125q0 1.53125 0.578125 2.234375q0.59375 0.6875 1.546875 0.6875q0.75 0 1.265625 -0.453125q0.515625 -0.46875 0.640625 -1.4375zm2.375 2.78125l0 -10.484375l1.28125 0l0 3.75q0.90625 -1.03125 2.28125 -1.03125q0.84375 0 1.46875 0.328125q0.625 0.328125 0.890625 0.921875q0.265625 0.578125 0.265625 1.703125l0 4.8125l-1.28125 0l0 -4.8125q0 -0.96875 -0.421875 -1.40625q-0.421875 -0.4375 -1.1875 -0.4375q-0.578125 0 -1.078125 0.296875q-0.5 0.296875 -0.71875 0.8125q-0.21875 0.5 -0.21875 1.390625l0 4.15625l-1.28125 0zm12.3793335 0l0 -10.484375l3.96875 0q1.046875 0 1.59375 0.09375q0.765625 0.125 1.28125 0.484375q0.53125 0.359375 0.84375 1.015625q0.328125 0.65625 0.328125 1.4375q0 1.328125 -0.859375 2.265625q-0.84375 0.921875 -3.078125 0.921875l-2.6875 0l0 4.265625l-1.390625 0zm1.390625 -5.5l2.71875 0q1.34375 0 1.90625 -0.5q0.5625 -0.5 0.5625 -1.40625q0 -0.671875 -0.328125 -1.140625q-0.328125 -0.46875 -0.875 -0.609375q-0.359375 -0.09375 -1.296875 -0.09375l-2.6875 0l0 3.75zm7.7443542 1.703125q0 -2.109375 1.171875 -3.125q0.984375 -0.84375 2.390625 -0.84375q1.578125 0 2.5625 1.03125q1.0 1.015625 1.0 2.828125q0 1.46875 -0.4375 2.3125q-0.4375 0.828125 -1.28125 1.296875q-0.84375 0.46875 -1.84375 0.46875q-1.59375 0 -2.578125 -1.015625q-0.984375 -1.03125 -0.984375 -2.953125zm1.328125 0q0 1.453125 0.625 2.1875q0.640625 0.71875 1.609375 0.71875q0.96875 0 1.59375 -0.71875q0.640625 -0.734375 0.640625 -2.234375q0 -1.40625 -0.640625 -2.125q-0.640625 -0.734375 -1.59375 -0.734375q-0.96875 0 -1.609375 0.71875q-0.625 0.71875 -0.625 2.1875zm12.229248 3.796875l0 -0.953125q-0.71875 1.125 -2.125 1.125q-0.90625 0 -1.671875 -0.5q-0.75 -0.5 -1.171875 -1.390625q-0.421875 -0.90625 -0.421875 -2.078125q0 -1.140625 0.375 -2.0625q0.390625 -0.921875 1.140625 -1.40625q0.765625 -0.5 1.703125 -0.5q0.6875 0 1.21875 0.296875q0.53125 0.28125 0.875 0.734375l0 -3.75l1.28125 0l0 10.484375l-1.203125 0zm-4.0625 -3.796875q0 1.46875 0.609375 2.1875q0.625 0.71875 1.453125 0.71875q0.84375 0 1.4375 -0.6875q0.59375 -0.6875 0.59375 -2.109375q0 -1.5625 -0.609375 -2.28125q-0.59375 -0.734375 -1.484375 -0.734375q-0.84375 0 -1.421875 0.703125q-0.578125 0.703125 -0.578125 2.203125z" fill-rule="nonzero"/><path fill="#000000" fill-opacity="0.0" d="m493.0013 80.9462l122.992096 0l0 37.16535l-122.992096 0z" fill-rule="evenodd"/><path fill="#666666" d="m515.89197 105.43244q-4.6250305 -0.40625 -7.2656555 -1.875q-1.46875 1.234375 -5.21875 1.9375l-0.40625 -1.234375q3.453125 -0.59375 4.5625 -1.46875q-0.75 -0.640625 -1.515625 -1.640625l1.046875 -0.40625q0.46875 0.578125 1.296875 1.234375q0.46875 -0.765625 0.53125 -1.703125l-3.046875 0l0 0.46875l-1.171875 0l0 -5.984375l4.265625 0l0 -1.21875l-5.90625 0l0 -1.125l12.6562805 0l0 1.125l-5.5781555 0l0 1.21875l4.3437805 0l0 6.21875l-1.171875 0l0 -0.703125l-3.2187805 0q-0.0625 1.171875 -0.703125 2.28125q1.984375 1.171875 6.6719055 1.59375l-0.171875 1.28125zm-10.0156555 -9.734375l0 1.359375l3.09375 0l0 -1.359375l-3.09375 0zm4.265625 0l0 1.359375l3.1719055 0l0 -1.359375l-3.1719055 0zm0 3.640625l3.1719055 0l0 -1.34375l-3.1719055 0l0 1.34375zm-1.171875 0l0 -1.34375l-3.09375 0l0 1.34375l3.09375 0zm14.1250305 4.921875q2.40625 -1.296875 2.40625 -4.390625l0 -6.75l1.234375 0.234375l3.15625 -0.984375l0.875 1.171875q0.125 0.34375 -0.40625 0.109375l-3.6875 0.703125l0 2.515625l4.625 0l0 1.125l-1.75 0l0 7.328125l-1.171875 0l0 -7.328125l-1.703125 0l0 2.21875q0 3.453125 -2.9375 5.15625l-0.640625 -1.109375zm-1.109375 1.109375l-1.171875 0l0 -3.515625q-0.9375 1.53125 -2.046875 2.40625l-0.890625 -1.0625q1.640625 -1.171875 2.765625 -2.921875l-2.46875 0l0 -1.109375l2.640625 0l0 -1.296875l-2.984375 0l0 -1.109375l4.09375 0l0.640625 -2.109375l-4.328125 0l0 -1.109375l2.578125 0l0 -1.640625l1.109375 0q0.46875 0.046875 0.0625 0.34375l0 1.296875l2.578125 0l0 1.109375l-0.765625 0l-0.8125 2.109375l1.875 0l0 1.109375l-2.875 0l0 1.296875l2.578125 0l0 1.109375l-2.578125 0l0 0.53125q0.8125 0.234375 2.28125 1.21875l-0.703125 1.171875q-0.8125 -0.8125 -1.578125 -1.28125l0 3.453125zm-2.34375 -8.734375q-0.234375 -0.8125 -0.640625 -1.578125l1.109375 -0.34375q0.46875 0.75 0.703125 1.578125l-1.171875 0.34375z" fill-rule="nonzero"/><path fill="#666666" d="m544.5951 94.46369q-0.453125 0.34375 -0.65625 0.890625q-0.203125 0.546875 -0.546875 1.171875q0.96875 0 1.71875 -0.0625l0 0.921875q-0.921875 -0.0625 -1.890625 -0.0625l-2.0625 0q-0.171875 0.515625 -0.28125 1.03125l2.75 0q1.03125 0 2.0 -0.046875l0 0.96875q-0.921875 -0.0625 -1.953125 -0.0625l-3.078125 0q-0.234375 0.515625 -0.40625 1.03125l4.640625 0q-0.6875 1.203125 -1.1875 1.921875q-0.484375 0.71875 -0.984375 1.28125q0.5 0.34375 1.21875 0.5q0.71875 0.140625 1.8125 0.25q-0.34375 0.515625 -0.578125 1.203125q-1.546875 -0.40625 -2.09375 -0.640625q-0.53125 -0.21875 -1.28125 -0.625q-0.75 0.515625 -1.265625 0.75q-0.515625 0.234375 -1.484375 0.6875q-0.40625 -0.515625 -0.796875 -0.921875q0.96875 -0.21875 1.625 -0.515625q0.65625 -0.28125 1.125 -0.625q-0.40625 -0.34375 -0.8125 -0.90625q-0.390625 -0.578125 -0.625 -0.984375q-0.453125 0.921875 -1.0625 1.671875q-0.59375 0.734375 -1.578125 1.65625q-0.390625 -0.46875 -0.90625 -0.8125q0.6875 -0.515625 1.21875 -1.03125q0.546875 -0.515625 0.96875 -1.109375q0.4375 -0.609375 0.8125 -1.28125q0.375 -0.6875 0.609375 -1.5l-0.6875 0q-0.640625 0 -1.609375 0.0625l0 -0.96875q0.96875 0.046875 1.65625 0.046875l0.921875 0q0.109375 -0.5625 0.171875 -1.03125l-0.578125 0q-0.6875 0 -1.65625 0.0625l0 -0.921875q0.921875 0.0625 1.65625 0.0625l2.921875 0q0.6875 -1.78125 1.03125 -2.640625q0.578125 0.296875 1.203125 0.578125zm-8.59375 -1.59375q-0.328125 0.5 -0.84375 1.453125q-0.515625 0.9375 -1.03125 1.96875l1.59375 0.0625q0.6875 -1.09375 0.921875 -1.828125q0.796875 0.6875 1.203125 0.90625q-0.640625 0.40625 -1.4375 1.5625q-0.796875 1.140625 -1.9375 2.796875q0.625 0 2.21875 -0.109375q-0.109375 0.5625 -0.109375 1.015625q-0.6875 0 -1.515625 0.03125q-0.828125 0.03125 -1.921875 0.3125q-0.21875 -0.625 -0.390625 -1.078125q0.453125 -0.171875 1.109375 -1.0q0.65625 -0.828125 1.34375 -1.8125q-0.625 0 -1.171875 0.0625q-0.546875 0.0625 -1.109375 0.234375q-0.125 -0.578125 -0.296875 -1.03125q0.515625 -0.34375 1.171875 -1.65625q0.671875 -1.328125 0.953125 -2.640625q0.578125 0.40625 1.25 0.75zm9.21875 0.5q-0.90625 0 -3.140625 0.265625q-2.234375 0.25 -4.1875 0.421875q-0.109375 -0.5625 -0.28125 -1.03125q0.96875 -0.046875 2.0 -0.09375q1.03125 -0.0625 2.03125 -0.140625q1.015625 -0.09375 1.75 -0.234375q0.75 -0.15625 1.265625 -0.328125l0.5625 1.140625zm-8.296875 9.625q-0.453125 0 -1.609375 0.265625q-1.140625 0.25 -2.390625 0.59375q-0.234375 -0.75 -0.40625 -1.265625q1.65625 -0.171875 2.546875 -0.359375q0.890625 -0.203125 1.921875 -0.375q-0.125 0.5625 -0.0625 1.140625zm4.875 0q0.390625 -0.453125 0.765625 -1.0q0.375 -0.546875 0.59375 -0.890625l-2.96875 0q0.28125 0.625 0.765625 1.0625q0.5 0.421875 0.84375 0.828125zm-0.296875 -8.875q0.125 0.515625 0.40625 1.65625q-0.625 0.125 -1.140625 0.296875q-0.171875 -0.984375 -0.40625 -1.71875q0.453125 -0.125 1.140625 -0.234375zm-2.234375 0.234375q0.0625 0.453125 0.34375 1.59375q-0.625 0.125 -0.96875 0.296875q-0.171875 -0.984375 -0.40625 -1.671875q0.46875 -0.046875 1.03125 -0.21875z" fill-rule="nonzero"/><path fill="#666666" d="m549.82947 99.86994q-1.296875 1.28125 -1.828125 1.578125l-0.640625 -1.234375q1.40625 -0.875 2.46875 -2.28125l0 -1.0625l0.703125 0.1875q0.75 -1.171875 1.171875 -2.40625l-3.984375 0l0 -1.109375l4.265625 0q0.1875 -0.53125 0.421875 -1.640625l1.28125 0.34375q0.234375 0.234375 -0.171875 0.296875l-0.234375 1.0l7.09375 0l0 1.109375l-7.453125 0q-0.640625 1.984375 -1.921875 3.8125l0 6.796875l-1.171875 0l0 -5.390625zm3.21875 -3.8125l5.328125 0l0.171875 -0.171875l0.9375 0.75q0.359375 0.359375 -0.234375 0.46875l-2.21875 1.765625l0 0.875l3.6875 0l0 1.109375l-3.6875 0l0 3.34375q0 0.9375 -0.9375 0.9375l-1.171875 0l-0.171875 -1.109375l0.875 0q0.234375 0 0.234375 -0.234375l0 -2.9375l-4.046875 0l0 -1.109375l4.046875 0l0 -1.703125l0.578125 0.0625l1.0 -0.9375l-4.390625 0l0 -1.109375z" fill-rule="nonzero"/><path fill="#000000" fill-opacity="0.0" d="m331.7638 176.65486l122.99213 0l0 37.165344l-122.99213 0z" fill-rule="evenodd"/><path fill="#666666" d="m350.67004 192.06297q-0.109375 0.625 -0.109375 2.296875l2.046875 0q0.859375 0 1.5 -0.0625l0 1.03125q-0.640625 -0.0625 -1.5 -0.0625l-2.0 0q0.125 0.578125 0.40625 1.265625q0.28125 0.6875 0.796875 1.34375q0.515625 0.65625 1.25 1.265625q0.75 0.59375 1.328125 0.765625q-0.6875 0.515625 -0.96875 1.03125q-1.03125 -0.75 -1.953125 -1.796875q-0.90625 -1.0625 -1.421875 -2.5q-0.40625 1.203125 -0.953125 2.015625q-0.546875 0.796875 -1.03125 1.328125q-0.484375 0.546875 -1.28125 1.125q-0.40625 -0.515625 -0.859375 -0.859375q0.6875 -0.40625 1.3125 -0.96875q0.625 -0.578125 1.046875 -1.265625q0.4375 -0.6875 0.71875 -1.453125q0.296875 -0.78125 0.359375 -1.296875l-0.640625 0q-0.96875 0 -2.0 0.0625l0 -1.03125q1.03125 0.0625 2.0 0.0625l0.75 0q0 -1.84375 -0.0625 -2.46875q0.578125 0.109375 1.265625 0.171875zm-4.015625 0.34375q-0.390625 0.234375 -0.796875 0.546875q-0.40625 0.3125 -0.625 0.546875q0.5625 0.796875 0.84375 2.03125q0.296875 1.21875 0.15625 2.59375q-0.140625 1.375 -0.96875 2.03125q-0.828125 0.671875 -2.265625 0.953125q-0.0625 -0.453125 -0.453125 -1.03125q1.3125 -0.171875 1.84375 -0.5625q0.546875 -0.40625 0.6875 -0.953125q0.15625 -0.546875 0.171875 -1.09375q0.03125 -0.546875 -0.078125 -1.453125q-0.40625 0.5625 -0.984375 1.0625q-0.5625 0.484375 -1.8125 1.453125q-0.296875 -0.453125 -0.8125 -0.796875q1.03125 -0.46875 1.921875 -1.234375q0.890625 -0.765625 1.40625 -1.453125q-0.234375 -0.578125 -0.453125 -0.921875q-0.296875 0.234375 -0.734375 0.515625q-0.421875 0.28125 -1.328125 0.859375q-0.34375 -0.40625 -0.75 -0.75q1.265625 -0.515625 2.234375 -1.375q-0.75 -0.625 -1.375 -0.90625q0.40625 -0.34375 0.6875 -0.8125q1.03125 0.75 1.484375 1.09375q0.796875 -0.625 1.09375 -1.140625q0.28125 0.390625 0.90625 0.796875zm-0.046875 -2.125q0 0.578125 0.046875 1.15625l-1.203125 0q0.0625 -0.75 0.0625 -1.15625l-1.546875 0q-0.859375 0 -1.890625 0.0625l0 -1.03125q1.09375 0.0625 1.953125 0.0625l1.484375 0q0 -0.6875 -0.0625 -1.375l1.203125 0q-0.046875 0.578125 -0.046875 1.375l2.921875 0q0 -0.796875 -0.0625 -1.4375l1.203125 0q-0.0625 0.640625 -0.0625 1.4375l1.4375 0q0.90625 0 2.0625 -0.0625l0 1.03125q-1.03125 -0.0625 -2.015625 -0.0625l-1.484375 0q0 0.515625 0.0625 1.15625l-1.203125 0q0.0625 -0.578125 0.0625 -1.15625l-2.921875 0zm5.546875 1.609375q0.625 0.578125 1.4375 1.65625q-0.46875 0.296875 -0.859375 0.6875q-0.6875 -1.03125 -1.375 -1.71875q0.28125 -0.171875 0.796875 -0.625z" fill-rule="nonzero"/><path fill="#666666" d="m357.7013 189.48485l-1.171875 0l0 -1.125l7.5625 0l0 1.125l-1.75 0l0 11.359375l-1.171875 0l0 -2.984375q-2.46875 0.875 -4.171875 1.28125q-0.28125 0.421875 -0.34375 0.1875l-0.359375 -1.46875q0.703125 -0.125 1.40625 -0.234375l0 -8.140625zm5.046875 10.1875q1.8125 -1.234375 2.8125 -2.578125q-1.46875 -2.171875 -1.875 -5.796875l-0.703125 0l0 -1.109375l5.03125 0l0.234375 -0.296875l1.0 0.9375l-0.296875 0.171875q-0.40625 3.578125 -1.875 6.15625q0.9375 1.234375 2.46875 2.171875l-0.703125 1.234375q-1.53125 -1.1875 -2.515625 -2.40625q-1.171875 1.34375 -2.765625 2.640625l-0.8125 -1.125zm3.515625 -3.578125q0.9375 -1.40625 1.40625 -4.796875l-2.875 0q0.296875 2.75 1.46875 4.796875zm-7.390625 -6.609375l0 1.984375l2.296875 0l0 -1.984375l-2.296875 0zm0 2.921875l0 1.9375l2.296875 0l0 -1.9375l-2.296875 0zm0 2.875l0 2.109375q1.125 -0.234375 2.296875 -0.640625l0 -1.46875l-2.296875 0z" fill-rule="nonzero"/><path fill="#666666" d="m380.04504 199.28172q-0.125 -0.6875 -0.578125 -1.375q1.140625 0 1.734375 -0.109375q0.609375 -0.125 0.671875 -0.703125l0.109375 -3.078125l-4.859375 0l0 4.96875q0 1.03125 0.046875 2.125l-1.3125 0q0.109375 -1.03125 0.109375 -2.125l0 -4.96875l-1.25 0q-1.890625 0 -3.03125 0.046875l0 -1.078125q1.203125 0.046875 2.453125 0.046875l9.15625 0q-0.171875 2.40625 -0.234375 3.90625q-0.046875 1.484375 -0.84375 1.859375q-0.796875 0.359375 -2.171875 0.484375zm-3.953125 -8.59375q0 1.03125 0.046875 1.78125l-1.25 0q0.046875 -0.859375 0.046875 -1.78125l-1.9375 0q-0.796875 0 -1.78125 0.109375l0 -1.140625q0.984375 0.0625 1.78125 0.0625l1.9375 0q0 -1.09375 -0.046875 -1.828125l1.25 0q-0.046875 0.734375 -0.046875 1.828125l3.03125 0q0 -1.140625 -0.0625 -1.828125l1.328125 0q-0.0625 0.6875 -0.0625 1.828125l1.828125 0q1.09375 0 2.0 -0.0625l0 1.09375q-0.90625 -0.0625 -2.0 -0.0625l-1.828125 0q0 0.921875 0.0625 1.78125l-1.328125 0q0.0625 -0.921875 0.0625 -1.78125l-3.03125 0z" fill-rule="nonzero"/><path fill="#666666" d="m396.73254 197.2661q1.171875 1.125 2.109375 2.765625l-1.40625 0.703125q-0.8125 -1.765625 -1.75 -2.875l1.046875 -0.59375zm-2.6875 0.0625q1.0 1.640625 1.171875 3.171875l-1.46875 0.34375q-0.234375 -1.578125 -0.875 -3.109375l1.171875 -0.40625zm-7.734375 2.875q1.046875 -1.0625 1.703125 -2.8125l1.21875 0.46875q-0.40625 1.75 -1.640625 3.109375l-1.28125 -0.765625zm5.09375 -2.515625q0.46875 1.109375 0.359375 3.109375l-1.40625 0.046875q0.046875 -1.984375 -0.1875 -3.109375l1.234375 -0.046875zm4.578125 -2.234375l0 -2.28125l-6.5625 0l0 2.28125l6.5625 0zm-3.109375 -7.734375q0.46875 0.0625 0.0625 0.359375l0 1.28125l4.921875 0l0 1.109375l-4.921875 0l0 1.59375l4.390625 0l0 4.859375l-1.34375 0l0 -0.359375l-6.5625 0l0 0.46875l-1.359375 0l0 -4.96875l3.515625 0l0 -4.34375l1.296875 0zm7.796875 6.5q2.21875 -2.625 2.625 -6.5l1.359375 0.359375q0.234375 0.234375 -0.1875 0.34375q-0.28125 1.703125 -0.75 3.046875q0.640625 0.0625 0.109375 0.40625l0 9.15625l-1.171875 0l0 -7.390625q-0.40625 0.8125 -1.109375 1.640625l-0.875 -1.0625zm11.359375 3.28125l-5.21875 0l0 1.703125l5.21875 0l0 -1.703125zm-6.390625 -1.109375l7.5625 0l0 4.453125l-1.171875 0l0 -0.515625l-5.21875 0l0 0.703125l-1.171875 0l0 -4.640625zm0.359375 -1.0l0 -1.109375l6.625 0l0 1.109375l-6.625 0zm0 -2.046875l0 -1.109375l6.625 0l0 1.109375l-6.625 0zm-1.34375 -3.109375l9.421875 0l0 1.125l-9.421875 0l0 -1.125zm1.34375 -2.109375l6.625 0l0 1.125l-6.625 0l0 -1.125zm10.015625 12.078125q0.875 -1.640625 1.171875 -3.21875l1.234375 0.34375q0.46875 0.0625 0 0.359375q-0.46875 1.578125 -1.234375 3.046875l-1.171875 -0.53125zm12.421875 0.125q-1.046875 -1.765625 -2.28125 -2.875l1.0 -0.765625q1.453125 1.234375 2.390625 2.8125l-1.109375 0.828125zm-8.03125 -3.40625q0.46875 0.0625 0.0625 0.34375l0 2.0q0 0.46875 0.40625 0.46875l3.640625 0q0.40625 0 0.53125 -0.359375l0.234375 -0.875l1.21875 0.234375l-0.28125 1.125q-0.234375 0.984375 -1.640625 0.984375l-4.21875 0q-1.0625 0 -1.0625 -0.984375l0 -2.9375l1.109375 0zm-1.171875 -1.0l0 0.53125l-1.171875 0l0 -7.5l3.171875 0l0.34375 -1.40625l1.359375 0.109375q0.34375 0.1875 -0.1875 0.296875l-0.34375 1.0l4.625 0l0 7.4375l-1.171875 0l0 -0.46875l-6.625 0zm3.171875 0.125q1.046875 0.75 1.9375 2.046875l-1.0 0.765625q-1.0 -1.40625 -1.8125 -2.109375l0.875 -0.703125zm-3.171875 -1.0625l6.625 0l0 -1.109375l-6.625 0l0 1.109375zm6.625 -3.109375l-6.625 0l0 1.0625l6.625 0l0 -1.0625zm-6.625 -0.9375l6.625 0l0 -1.046875l-6.625 0l0 1.046875z" fill-rule="nonzero"/><path fill="#000000" fill-opacity="0.0" d="m603.72144 249.08923l92.188965 0l0 37.165375l-92.188965 0z" fill-rule="evenodd"/><path fill="#666666" d="m626.61206 273.5755q-4.625 -0.40625 -7.265625 -1.875q-1.46875 1.234375 -5.21875 1.9375l-0.40625 -1.234375q3.453125 -0.59375 4.5625 -1.46875q-0.75 -0.640625 -1.515625 -1.640625l1.046875 -0.40625q0.46875 0.578125 1.296875 1.234375q0.46875 -0.765625 0.53125 -1.703125l-3.046875 0l0 0.46875l-1.171875 0l0 -5.984375l4.265625 0l0 -1.21875l-5.90625 0l0 -1.125l12.65625 0l0 1.125l-5.578125 0l0 1.21875l4.34375 0l0 6.21875l-1.171875 0l0 -0.703125l-3.21875 0q-0.0625 1.171875 -0.703125 2.28125q1.984375 1.171875 6.671875 1.59375l-0.171875 1.28125zm-10.015625 -9.734375l0 1.359375l3.09375 0l0 -1.359375l-3.09375 0zm4.265625 0l0 1.359375l3.171875 0l0 -1.359375l-3.171875 0zm0 3.640625l3.171875 0l0 -1.34375l-3.171875 0l0 1.34375zm-1.171875 0l0 -1.34375l-3.09375 0l0 1.34375l3.09375 0zm14.125 4.921875q2.40625 -1.296875 2.40625 -4.390625l0 -6.75l1.234375 0.234375l3.15625 -0.984375l0.875 1.171875q0.125 0.34375 -0.40625 0.109375l-3.6875 0.703125l0 2.515625l4.625 0l0 1.125l-1.75 0l0 7.328125l-1.171875 0l0 -7.328125l-1.703125 0l0 2.21875q0 3.453125 -2.9375 5.15625l-0.640625 -1.109375zm-1.109375 1.109375l-1.171875 0l0 -3.515625q-0.9375 1.53125 -2.046875 2.40625l-0.890625 -1.0625q1.640625 -1.171875 2.765625 -2.921875l-2.46875 0l0 -1.109375l2.640625 0l0 -1.296875l-2.984375 0l0 -1.109375l4.09375 0l0.640625 -2.109375l-4.328125 0l0 -1.109375l2.578125 0l0 -1.640625l1.109375 0q0.46875 0.046875 0.0625 0.34375l0 1.296875l2.578125 0l0 1.109375l-0.765625 0l-0.8125 2.109375l1.875 0l0 1.109375l-2.875 0l0 1.296875l2.578125 0l0 1.109375l-2.578125 0l0 0.53125q0.8125 0.234375 2.28125 1.21875l-0.703125 1.171875q-0.8125 -0.8125 -1.578125 -1.28125l0 3.453125zm-2.34375 -8.734375q-0.234375 -0.8125 -0.640625 -1.578125l1.109375 -0.34375q0.46875 0.75 0.703125 1.578125l-1.171875 0.34375z" fill-rule="nonzero"/><path fill="#666666" d="m655.3152 262.60675q-0.453125 0.34375 -0.65625 0.890625q-0.203125 0.546875 -0.546875 1.171875q0.96875 0 1.71875 -0.0625l0 0.921875q-0.921875 -0.0625 -1.890625 -0.0625l-2.0625 0q-0.171875 0.515625 -0.28125 1.03125l2.75 0q1.03125 0 2.0 -0.046875l0 0.96875q-0.921875 -0.0625 -1.953125 -0.0625l-3.078125 0q-0.234375 0.515625 -0.40625 1.03125l4.640625 0q-0.6875 1.203125 -1.1875 1.921875q-0.484375 0.71875 -0.984375 1.28125q0.5 0.34375 1.21875 0.5q0.71875 0.140625 1.8125 0.25q-0.34375 0.515625 -0.578125 1.203125q-1.546875 -0.40625 -2.09375 -0.640625q-0.53125 -0.21875 -1.28125 -0.625q-0.75 0.515625 -1.265625 0.75q-0.515625 0.234375 -1.484375 0.6875q-0.40625 -0.515625 -0.796875 -0.921875q0.96875 -0.21875 1.625 -0.515625q0.65625 -0.28125 1.125 -0.625q-0.40625 -0.34375 -0.8125 -0.90625q-0.390625 -0.578125 -0.625 -0.984375q-0.453125 0.921875 -1.0625 1.671875q-0.59375 0.734375 -1.578125 1.65625q-0.390625 -0.46875 -0.90625 -0.8125q0.6875 -0.515625 1.21875 -1.03125q0.546875 -0.515625 0.96875 -1.109375q0.4375 -0.609375 0.8125 -1.28125q0.375 -0.6875 0.609375 -1.5l-0.6875 0q-0.640625 0 -1.609375 0.0625l0 -0.96875q0.96875 0.046875 1.65625 0.046875l0.921875 0q0.109375 -0.5625 0.171875 -1.03125l-0.578125 0q-0.6875 0 -1.65625 0.0625l0 -0.921875q0.921875 0.0625 1.65625 0.0625l2.921875 0q0.6875 -1.78125 1.03125 -2.640625q0.578125 0.296875 1.203125 0.578125zm-8.59375 -1.59375q-0.328125 0.5 -0.84375 1.453125q-0.515625 0.9375 -1.03125 1.96875l1.59375 0.0625q0.6875 -1.09375 0.921875 -1.828125q0.796875 0.6875 1.203125 0.90625q-0.640625 0.40625 -1.4375 1.5625q-0.796875 1.140625 -1.9375 2.796875q0.625 0 2.21875 -0.109375q-0.109375 0.5625 -0.109375 1.015625q-0.6875 0 -1.515625 0.03125q-0.828125 0.03125 -1.921875 0.3125q-0.21875 -0.625 -0.390625 -1.078125q0.453125 -0.171875 1.109375 -1.0q0.65625 -0.828125 1.34375 -1.8125q-0.625 0 -1.171875 0.0625q-0.546875 0.0625 -1.109375 0.234375q-0.125 -0.578125 -0.296875 -1.03125q0.515625 -0.34375 1.171875 -1.65625q0.671875 -1.328125 0.953125 -2.640625q0.578125 0.40625 1.25 0.75zm9.21875 0.5q-0.90625 0 -3.140625 0.265625q-2.234375 0.25 -4.1875 0.421875q-0.109375 -0.5625 -0.28125 -1.03125q0.96875 -0.046875 2.0 -0.09375q1.03125 -0.0625 2.03125 -0.140625q1.015625 -0.09375 1.75 -0.234375q0.75 -0.15625 1.265625 -0.328125l0.5625 1.140625zm-8.296875 9.625q-0.453125 0 -1.609375 0.265625q-1.140625 0.25 -2.390625 0.59375q-0.234375 -0.75 -0.40625 -1.265625q1.65625 -0.171875 2.546875 -0.359375q0.890625 -0.203125 1.921875 -0.375q-0.125 0.5625 -0.0625 1.140625zm4.875 0q0.390625 -0.453125 0.765625 -1.0q0.375 -0.546875 0.59375 -0.890625l-2.96875 0q0.28125 0.625 0.765625 1.0625q0.5 0.421875 0.84375 0.828125zm-0.296875 -8.875q0.125 0.515625 0.40625 1.65625q-0.625 0.125 -1.140625 0.296875q-0.171875 -0.984375 -0.40625 -1.71875q0.453125 -0.125 1.140625 -0.234375zm-2.234375 0.234375q0.0625 0.453125 0.34375 1.59375q-0.625 0.125 -0.96875 0.296875q-0.171875 -0.984375 -0.40625 -1.671875q0.46875 -0.046875 1.03125 -0.21875z" fill-rule="nonzero"/><path fill="#666666" d="m660.54956 268.013q-1.296875 1.28125 -1.828125 1.578125l-0.640625 -1.234375q1.40625 -0.875 2.46875 -2.28125l0 -1.0625l0.703125 0.1875q0.75 -1.171875 1.171875 -2.40625l-3.984375 0l0 -1.109375l4.265625 0q0.1875 -0.53125 0.421875 -1.640625l1.28125 0.34375q0.234375 0.234375 -0.171875 0.296875l-0.234375 1.0l7.09375 0l0 1.109375l-7.453125 0q-0.640625 1.984375 -1.921875 3.8125l0 6.796875l-1.171875 0l0 -5.390625zm3.21875 -3.8125l5.328125 0l0.171875 -0.171875l0.9375 0.75q0.359375 0.359375 -0.234375 0.46875l-2.21875 1.765625l0 0.875l3.6875 0l0 1.109375l-3.6875 0l0 3.34375q0 0.9375 -0.9375 0.9375l-1.171875 0l-0.171875 -1.109375l0.875 0q0.234375 0 0.234375 -0.234375l0 -2.9375l-4.046875 0l0 -1.109375l4.046875 0l0 -1.703125l0.578125 0.0625l1.0 -0.9375l-4.390625 0l0 -1.109375z" fill-rule="nonzero"/><path fill="#b6d7a8" d="m523.874 13.238981l0 0c0 -3.7544518 3.043579 -6.7980366 6.7980347 -6.7980366l138.5299 0c1.8029785 0 3.5320435 0.7162199 4.806946 1.9910994c1.2748413 1.2748785 1.9910889 3.0039854 1.9910889 4.806937l0 27.191328c0 3.7544518 -3.043579 6.7980385 -6.7980347 6.7980385l-138.5299 0c-3.7544556 0 -6.7980347 -3.0435867 -6.7980347 -6.7980385z" fill-rule="evenodd"/><path stroke="#000000" stroke-width="2.0" stroke-linejoin="round" stroke-linecap="butt" d="m523.874 13.238981l0 0c0 -3.7544518 3.043579 -6.7980366 6.7980347 -6.7980366l138.5299 0c1.8029785 0 3.5320435 0.7162199 4.806946 1.9910994c1.2748413 1.2748785 1.9910889 3.0039854 1.9910889 4.806937l0 27.191328c0 3.7544518 -3.043579 6.7980385 -6.7980347 6.7980385l-138.5299 0c-3.7544556 0 -6.7980347 -3.0435867 -6.7980347 -6.7980385z" fill-rule="evenodd"/><path fill="#000000" d="m571.4175 32.694645l-2.515625 0l-1.0 -2.609375l-4.578125 0l-0.953125 2.609375l-2.453125 0l4.46875 -11.453125l2.4375 0l4.59375 11.453125zm-4.265625 -4.53125l-1.578125 -4.25l-1.546875 4.25l3.125 0zm5.4140625 -3.765625l2.046875 0l0 1.21875q0.390625 -0.625 1.0625 -1.015625q0.6875 -0.390625 1.515625 -0.390625q1.453125 0 2.453125 1.140625q1.015625 1.125 1.015625 3.140625q0 2.078125 -1.015625 3.234375q-1.015625 1.15625 -2.46875 1.15625q-0.6875 0 -1.25 -0.265625q-0.546875 -0.28125 -1.171875 -0.953125l0 4.1875l-2.1875 0l0 -11.453125zm2.171875 4.0q0 1.40625 0.546875 2.078125q0.5625 0.65625 1.359375 0.65625q0.765625 0 1.265625 -0.609375q0.515625 -0.609375 0.515625 -2.015625q0 -1.296875 -0.53125 -1.921875q-0.515625 -0.640625 -1.296875 -0.640625q-0.796875 0 -1.328125 0.625q-0.53125 0.609375 -0.53125 1.828125zm7.6640625 -5.125l0 -2.03125l2.1875 0l0 2.03125l-2.1875 0zm0 9.421875l0 -8.296875l2.1875 0l0 8.296875l-2.1875 0zm8.3125 -3.734375l2.25 -0.21875q0.203125 1.140625 0.828125 1.671875q0.625 0.53125 1.671875 0.53125q1.125 0 1.6875 -0.46875q0.5625 -0.484375 0.5625 -1.109375q0 -0.40625 -0.234375 -0.6875q-0.234375 -0.296875 -0.828125 -0.5q-0.40625 -0.140625 -1.859375 -0.5q-1.859375 -0.46875 -2.609375 -1.140625q-1.046875 -0.9375 -1.046875 -2.296875q0 -0.875 0.484375 -1.640625q0.5 -0.765625 1.4375 -1.15625q0.9375 -0.40625 2.25 -0.40625q2.15625 0 3.25 0.953125q1.09375 0.9375 1.140625 2.515625l-2.3125 0.109375q-0.140625 -0.890625 -0.640625 -1.265625q-0.484375 -0.390625 -1.453125 -0.390625q-1.015625 0 -1.578125 0.40625q-0.375 0.265625 -0.375 0.71875q0 0.40625 0.34375 0.6875q0.4375 0.375 2.125 0.78125q1.6875 0.390625 2.5 0.8125q0.8125 0.421875 1.265625 1.171875q0.453125 0.734375 0.453125 1.8125q0 0.984375 -0.546875 1.84375q-0.546875 0.859375 -1.546875 1.28125q-1.0 0.421875 -2.484375 0.421875q-2.171875 0 -3.34375 -1.0q-1.15625 -1.015625 -1.390625 -2.9375zm16.046875 1.09375l2.1875 0.359375q-0.421875 1.203125 -1.328125 1.84375q-0.90625 0.625 -2.28125 0.625q-2.15625 0 -3.203125 -1.421875q-0.8125 -1.125 -0.8125 -2.859375q0 -2.0625 1.078125 -3.21875q1.078125 -1.171875 2.71875 -1.171875q1.859375 0 2.921875 1.21875q1.078125 1.21875 1.03125 3.75l-5.5 0q0.015625 0.96875 0.515625 1.515625q0.515625 0.546875 1.28125 0.546875q0.515625 0 0.859375 -0.28125q0.359375 -0.28125 0.53125 -0.90625zm0.125 -2.21875q-0.015625 -0.953125 -0.484375 -1.453125q-0.46875 -0.5 -1.140625 -0.5q-0.71875 0 -1.1875 0.53125q-0.46875 0.515625 -0.46875 1.421875l3.28125 0zm6.0703125 4.859375l-2.1875 0l0 -8.296875l2.03125 0l0 1.171875q0.53125 -0.828125 0.9375 -1.09375q0.421875 -0.265625 0.953125 -0.265625q0.75 0 1.453125 0.40625l-0.6875 1.921875q-0.546875 -0.359375 -1.03125 -0.359375q-0.453125 0 -0.78125 0.25q-0.3125 0.25 -0.5 0.921875q-0.1875 0.65625 -0.1875 2.78125l0 2.5625zm6.4140625 0l-3.34375 -8.296875l2.296875 0l1.5625 4.234375l0.453125 1.40625q0.1875 -0.53125 0.234375 -0.703125q0.109375 -0.359375 0.234375 -0.703125l1.578125 -4.234375l2.25 0l-3.296875 8.296875l-1.96875 0zm11.4140625 -2.640625l2.1875 0.359375q-0.421875 1.203125 -1.328125 1.84375q-0.90625 0.625 -2.28125 0.625q-2.15625 0 -3.203125 -1.421875q-0.8125 -1.125 -0.8125 -2.859375q0 -2.0625 1.078125 -3.21875q1.078125 -1.171875 2.71875 -1.171875q1.859375 0 2.921875 1.21875q1.078125 1.21875 1.03125 3.75l-5.5 0q0.015625 0.96875 0.515625 1.515625q0.515625 0.546875 1.28125 0.546875q0.515625 0 0.859375 -0.28125q0.359375 -0.28125 0.53125 -0.90625zm0.125 -2.21875q-0.015625 -0.953125 -0.484375 -1.453125q-0.46875 -0.5 -1.140625 -0.5q-0.71875 0 -1.1875 0.53125q-0.46875 0.515625 -0.46875 1.421875l3.28125 0zm6.0703125 4.859375l-2.1875 0l0 -8.296875l2.03125 0l0 1.171875q0.53125 -0.828125 0.9375 -1.09375q0.421875 -0.265625 0.953125 -0.265625q0.75 0 1.453125 0.40625l-0.6875 1.921875q-0.546875 -0.359375 -1.03125 -0.359375q-0.453125 0 -0.78125 0.25q-0.3125 0.25 -0.5 0.921875q-0.1875 0.65625 -0.1875 2.78125l0 2.5625z" fill-rule="nonzero"/></g></svg>