<svg version="1.1" viewBox="0.0 0.0 544.8530183727034 401.09448818897636" fill="none" stroke="none" stroke-linecap="square" stroke-miterlimit="10" xmlns:xlink="http://www.w3.org/1999/xlink" xmlns="http://www.w3.org/2000/svg"><clipPath id="p.0"><path d="m0 0l544.853 0l0 401.09448l-544.853 0l0 -401.09448z" clip-rule="nonzero"/></clipPath><g clip-path="url(#p.0)"><path fill="#000000" fill-opacity="0.0" d="m0 0l544.853 0l0 401.09448l-544.853 0z" fill-rule="evenodd"/><path fill="#ffffff" d="m178.54855 12.176003l0 0c0 -4.1632376 3.3749695 -7.538208 7.538208 -7.538208l209.83698 0c1.9992676 0 3.916626 0.79420185 5.3303223 2.20789c1.4136963 1.4136882 2.2078857 3.331061 2.2078857 5.330318l0 30.151932c0 4.1632347 -3.3749695 7.538208 -7.538208 7.538208l-209.83698 0l0 0c-4.1632385 0 -7.538208 -3.3749733 -7.538208 -7.538208z" fill-rule="evenodd"/><path stroke="#000000" stroke-width="1.0" stroke-linejoin="round" stroke-linecap="butt" d="m178.54855 12.176003l0 0c0 -4.1632376 3.3749695 -7.538208 7.538208 -7.538208l209.83698 0c1.9992676 0 3.916626 0.79420185 5.3303223 2.20789c1.4136963 1.4136882 2.2078857 3.331061 2.2078857 5.330318l0 30.151932c0 4.1632347 -3.3749695 7.538208 -7.538208 7.538208l-209.83698 0l0 0c-4.1632385 0 -7.538208 -3.3749733 -7.538208 -7.538208z" fill-rule="evenodd"/><path fill="#000000" d="m251.23962 29.046967q-0.890625 2.296875 -2.671875 4.3125l-0.8125 -1.125q1.703125 -2.078125 2.59375 -4.375q-1.109375 -1.625 -2.296875 -3.1875l0.75 -0.75q1.03125 1.1875 1.84375 2.3125q0.296875 -1.78125 0.453125 -3.640625l1.265625 0.296875q0.59375 0.21875 -0.078125 0.4375q-0.21875 1.78125 -0.59375 4.09375q1.03125 1.40625 1.921875 2.734375l-0.734375 1.265625q-0.8125 -1.1875 -1.640625 -2.375zm-3.859375 -7.5625l0 13.734375l-1.484375 0l0 -15.15625l15.375 0l0 13.8125q0 1.1875 -1.125 1.1875l-1.84375 0l-0.296875 -1.40625l1.546875 0q0.234375 0 0.234375 -0.234375l0 -11.9375l-12.40625 0zm8.765625 5.1875q0.4375 -2.21875 0.59375 -4.15625l1.1875 0.15625q0.734375 0.21875 0 0.515625q-0.21875 2.078125 -0.8125 4.59375q1.109375 1.5625 1.921875 2.96875l-0.734375 1.1875q-0.890625 -1.484375 -1.71875 -2.734375q-1.109375 2.890625 -2.59375 4.453125l-0.8125 -1.1875q1.484375 -1.5625 2.453125 -4.390625q-1.125 -1.78125 -2.234375 -3.109375l0.75 -0.8125q0.890625 1.03125 2.0 2.515625z" fill-rule="nonzero"/><path fill="#000000" d="m270.19275 25.140717q0.796875 -0.875 1.296875 -1.75q0.515625 -0.875 0.984375 -1.9375q0.484375 -1.0625 0.78125 -2.4375q0.796875 0.359375 1.75 0.515625q-0.4375 0.640625 -0.953125 1.671875l5.90625 0q-1.09375 2.1875 -1.828125 3.28125q-0.734375 1.09375 -1.53125 1.96875q0.953125 0.65625 2.265625 1.09375q1.3125 0.4375 2.40625 0.65625q-0.375 0.578125 -0.734375 1.515625q-0.734375 -0.21875 -1.3125 -0.421875q-0.140625 1.015625 -0.140625 1.890625l0 2.625q0 1.09375 0.0625 2.25l-1.375 0l0 -1.375l-4.375 0l0 1.53125l-1.390625 0q0.078125 -1.09375 0.078125 -2.046875l0 -2.921875q0 -0.578125 -0.078125 -1.953125q-0.4375 0.203125 -1.234375 0.5q-0.296875 -0.796875 -0.796875 -1.375q1.09375 -0.296875 2.4375 -0.84375q1.34375 -0.546875 2.15625 -1.203125q-0.953125 -1.234375 -1.609375 -2.765625q-0.796875 1.234375 -1.609375 2.328125q-0.4375 -0.4375 -1.15625 -0.796875zm-1.6875 -4.75q-0.5 0.65625 -1.15625 2.015625q-0.65625 1.34375 -1.53125 2.875l2.046875 0q0.796875 -1.53125 1.15625 -2.703125q0.734375 0.59375 1.453125 0.953125q-0.4375 0.515625 -1.3125 2.078125q-0.875 1.5625 -2.390625 4.109375q2.171875 -0.359375 3.125 -0.5q-0.078125 0.9375 0 1.375q-1.75 0.21875 -2.703125 0.40625q-0.9375 0.1875 -2.171875 0.46875q-0.21875 -0.796875 -0.515625 -1.375q0.734375 -0.296875 1.421875 -1.3125q0.6875 -1.015625 1.421875 -2.484375q-1.96875 0.078125 -2.984375 0.515625q-0.21875 -0.65625 -0.515625 -1.453125q0.875 -0.4375 1.75 -2.21875q0.875 -1.796875 1.3125 -3.546875q0.796875 0.515625 1.59375 0.796875zm9.265625 13.125l0 -3.140625l-4.375 0l0 3.140625l4.375 0zm-7.65625 -1.390625q0.140625 0.734375 0.140625 1.3125q-0.796875 0.15625 -2.296875 0.671875q-1.484375 0.5 -2.875 1.078125q-0.28125 -0.875 -0.65625 -1.59375q1.828125 -0.375 3.03125 -0.65625q1.203125 -0.296875 2.65625 -0.8125zm5.546875 -6.625q0.4375 -0.4375 1.046875 -1.3125q0.625 -0.875 1.0625 -1.828125l-3.9375 0q0.734375 1.828125 1.828125 3.140625zm3.484375 3.71875q-1.015625 -0.4375 -1.921875 -0.875q-0.90625 -0.4375 -1.71875 -1.015625q-0.875 0.578125 -1.640625 1.015625q-0.765625 0.4375 -1.703125 0.875l6.984375 0zm12.828125 -6.203125q0 -2.328125 -0.0625 -3.859375q0.796875 0.21875 1.75 0.296875q-0.296875 1.15625 -0.21875 3.5625l3.921875 0q-0.140625 0.65625 -0.28125 2.1875l-0.515625 8.09375q-0.140625 1.171875 -0.875 1.421875q-0.71875 0.25 -2.03125 0.546875q-0.296875 -0.953125 -0.65625 -1.609375q1.53125 -0.0625 1.859375 -0.140625q0.328125 -0.078125 0.390625 -1.015625l0.515625 -8.3125l-2.40625 0q-0.078125 3.28125 -1.03125 6.203125q-0.9375 2.90625 -3.265625 5.234375q-0.4375 -0.578125 -1.75 -1.015625q1.671875 -0.875 3.046875 -3.5625q1.390625 -2.703125 1.546875 -6.859375q-1.390625 0 -2.78125 0.078125l0 -1.3125q1.390625 0.0625 2.84375 0.0625zm-7.140625 1.03125q0 -3.5 -0.0625 -4.671875l1.59375 0q-0.0625 1.171875 -0.0625 4.671875q1.375 0 2.328125 -0.078125l0 1.3125q-0.953125 -0.078125 -2.328125 -0.078125l0 8.015625q0 1.03125 0.0625 2.625l-1.59375 0q0.0625 -1.59375 0.0625 -2.625l0 -8.015625q-1.453125 0 -2.328125 0.078125l0 -1.3125q0.875 0.078125 2.328125 0.078125zm5.6875 2.84375q-0.4375 0.578125 -1.390625 3.703125q-0.71875 -0.28125 -1.375 -0.359375q1.015625 -2.6875 1.15625 -3.71875q0.59375 0.21875 1.609375 0.375zm8.015625 -0.515625q1.09375 2.328125 1.390625 3.421875q-0.8125 0.140625 -1.390625 0.515625q-0.4375 -1.53125 -1.234375 -3.359375q0.65625 -0.21875 1.234375 -0.578125zm10.421875 -4.8125q0.140625 1.671875 0.4375 2.953125q0.296875 1.28125 0.875 2.59375q0.578125 1.3125 1.828125 2.984375q0.9375 -1.828125 1.34375 -3.3125q0.40625 -1.5 0.6875 -2.953125q0.296875 -1.46875 0.515625 -3.359375q0.796875 0.21875 1.890625 0.359375q-0.4375 0.65625 -0.59375 1.28125q-0.140625 0.625 -0.359375 1.796875q-0.21875 1.15625 -0.65625 2.984375q-0.421875 1.8125 -1.734375 4.359375q1.15625 1.171875 2.3125 1.796875q1.171875 0.609375 2.859375 1.046875q-0.8125 0.59375 -1.3125 1.75q-1.90625 -1.09375 -2.78125 -1.640625q-0.859375 -0.546875 -2.109375 -1.859375q-1.3125 1.46875 -2.328125 2.234375q-1.015625 0.765625 -2.1875 1.5625q-0.65625 -0.515625 -1.609375 -1.3125q1.53125 -0.578125 2.875 -1.484375q1.359375 -0.921875 2.15625 -2.09375q-1.375 -1.8125 -2.03125 -3.40625q-0.65625 -1.609375 -0.984375 -2.953125q-0.328125 -1.359375 -0.625 -3.03125q0.734375 -0.078125 1.53125 -0.296875zm-4.953125 14.21875q-0.515625 -0.65625 -1.234375 -1.46875q1.015625 -0.65625 1.015625 -1.75l0 -6.484375l-0.953125 0q-0.71875 0 -1.59375 0.078125l0 -1.453125q0.875 0.140625 1.59375 0.140625l2.40625 0q-0.0625 1.234375 -0.0625 2.84375l0 4.59375q0.796875 -0.875 2.109375 -2.40625q0.28125 0.359375 0.9375 1.15625q-1.09375 1.09375 -2.1875 2.234375q-1.078125 1.125 -2.03125 2.515625zm7.578125 -16.984375q0.796875 3.5 1.234375 5.75q-0.875 0.078125 -1.453125 0.296875q-0.4375 -2.625 -1.234375 -5.609375q0.65625 -0.21875 1.453125 -0.4375zm-7.4375 0.296875q1.171875 1.953125 1.75 3.125q-0.65625 0.296875 -1.375 0.734375q-1.171875 -2.484375 -1.609375 -3.140625q0.65625 -0.28125 1.234375 -0.71875zm32.0625 4.359375q-0.71875 0.078125 -2.140625 0.453125q-1.421875 0.359375 -3.03125 0.796875q0.078125 0.9375 0.296875 2.1875q3.421875 -1.03125 5.171875 -1.609375q0.078125 0.65625 0.296875 1.3125q-3.640625 0.953125 -5.25 1.453125l0.4375 1.453125l0.578125 1.46875q0.59375 -0.734375 1.0625 -1.421875q0.46875 -0.6875 0.984375 -1.5625q0.5 0.5 1.3125 1.09375q-0.4375 0.0625 -1.03125 0.90625q-0.578125 0.828125 -1.59375 2.078125q0.9375 1.453125 1.453125 1.71875q0.515625 0.25 0.734375 -0.4375q0.21875 -0.703125 0.359375 -1.71875q0.734375 0.65625 1.3125 0.71875q-0.734375 3.140625 -1.359375 3.3125q-0.609375 0.1875 -1.421875 -0.28125q-0.796875 -0.46875 -2.09375 -2.4375q-1.03125 0.796875 -2.046875 1.34375q-1.015625 0.546875 -2.265625 1.203125q-0.4375 -0.65625 -1.234375 -1.3125q1.609375 -0.4375 2.625 -0.9375q1.015625 -0.515625 2.1875 -1.390625q-0.875 -1.53125 -1.3125 -3.5q-2.328125 0.796875 -2.984375 1.09375q-0.21875 -0.734375 -0.4375 -1.3125q0.796875 -0.21875 3.125 -0.953125q-0.21875 -1.234375 -0.28125 -2.109375q-1.03125 0.21875 -1.359375 0.296875q-0.328125 0.0625 -1.046875 0.28125q-0.15625 -0.71875 -0.375 -1.3125q1.90625 -0.359375 2.703125 -0.578125q-0.078125 -1.09375 -0.109375 -1.96875q-0.03125 -0.875 -0.03125 -2.546875q0.796875 0.078125 1.75 0.078125q-0.21875 0.71875 -0.265625 1.75q-0.03125 1.015625 0.046875 2.390625q0.875 -0.21875 1.953125 -0.46875q1.09375 -0.25 2.921875 -0.765625q0.140625 0.578125 0.359375 1.234375zm-13.40625 -2.109375q-0.0625 -1.09375 -0.0625 -2.109375l1.515625 0q-0.0625 0.875 -0.0625 2.109375l0 1.75l2.1875 0l0 1.234375q-1.25 -0.0625 -2.1875 -0.0625l0 2.625q0.21875 -0.078125 1.015625 -0.4375q0.359375 0.65625 0.765625 1.28125q0.40625 0.609375 0.6875 1.34375q-0.65625 0.28125 -1.3125 0.640625q-0.359375 -0.9375 -0.625 -1.484375q-0.25 -0.546875 -0.53125 -1.125l0 8.734375l-1.453125 0q0.0625 -1.59375 0.0625 -3.0625l0 -5.09375q-0.578125 1.96875 -2.1875 4.21875q-0.4375 -0.875 -0.875 -1.53125q0.515625 -0.578125 0.84375 -1.078125q0.328125 -0.515625 0.765625 -1.28125q0.4375 -0.765625 0.765625 -1.640625q0.328125 -0.875 0.46875 -2.109375q-1.3125 0 -2.40625 0.0625l0 -1.234375l2.625 0l0 -1.75zm11.0 0.734375q-0.359375 -0.515625 -0.6875 -0.953125q-0.328125 -0.4375 -0.6875 -0.875q0.515625 -0.5 1.09375 -0.875q0.28125 0.4375 0.640625 0.875q0.375 0.4375 0.8125 0.953125q-0.65625 0.4375 -1.171875 0.875z" fill-rule="nonzero"/><path fill="#b7b7b7" d="m211.87138 338.36484l158.26772 0l0 45.228333l-158.26772 0z" fill-rule="evenodd"/><path stroke="#000000" stroke-width="1.0" stroke-linejoin="round" stroke-linecap="butt" d="m211.87138 338.36484l158.26772 0l0 45.228333l-158.26772 0z" fill-rule="evenodd"/><path fill="#000000" d="m278.7627 364.82086l2.546875 0.421875q-0.484375 1.40625 -1.546875 2.140625q-1.0625 0.734375 -2.65625 0.734375q-2.515625 0 -3.734375 -1.65625q-0.953125 -1.3125 -0.953125 -3.328125q0 -2.40625 1.25 -3.765625q1.265625 -1.359375 3.1875 -1.359375q2.15625 0 3.40625 1.421875q1.25 1.421875 1.1875 4.375l-6.40625 0q0.03125 1.140625 0.609375 1.78125q0.59375 0.625 1.484375 0.625q0.59375 0 1.0 -0.328125q0.421875 -0.328125 0.625 -1.0625zm0.15625 -2.59375q-0.03125 -1.109375 -0.578125 -1.6875q-0.546875 -0.578125 -1.328125 -0.578125q-0.84375 0 -1.390625 0.609375q-0.546875 0.609375 -0.53125 1.65625l3.828125 0zm9.063232 -4.0l0 2.03125l-1.75 0l0 3.90625q0 1.1875 0.046875 1.390625q0.046875 0.1875 0.21875 0.3125q0.1875 0.125 0.4375 0.125q0.359375 0 1.03125 -0.25l0.21875 2.0q-0.890625 0.375 -2.015625 0.375q-0.703125 0 -1.265625 -0.234375q-0.546875 -0.234375 -0.8125 -0.59375q-0.25 -0.375 -0.34375 -1.0q-0.09375 -0.453125 -0.09375 -1.8125l0 -4.21875l-1.171875 0l0 -2.03125l1.171875 0l0 -1.921875l2.578125 -1.5l0 3.421875l1.75 0zm4.322052 -3.6875l0 4.921875q1.234375 -1.453125 2.953125 -1.453125q0.890625 0 1.59375 0.328125q0.71875 0.328125 1.078125 0.84375q0.359375 0.5 0.484375 1.125q0.140625 0.609375 0.140625 1.921875l0 5.671875l-2.5625 0l0 -5.109375q0 -1.515625 -0.15625 -1.921875q-0.140625 -0.421875 -0.515625 -0.65625q-0.359375 -0.25 -0.90625 -0.25q-0.640625 0 -1.140625 0.3125q-0.5 0.3125 -0.734375 0.9375q-0.234375 0.625 -0.234375 1.84375l0 4.84375l-2.5625 0l0 -13.359375l2.5625 0zm12.630341 -0.046875q1.9375 0 3.03125 1.375q1.296875 1.640625 1.296875 5.4375q0 3.796875 -1.3125 5.453125q-1.078125 1.375 -3.015625 1.375q-1.953125 0 -3.15625 -1.5q-1.1875 -1.5 -1.1875 -5.34375q0 -3.78125 1.3125 -5.4375q1.078125 -1.359375 3.03125 -1.359375zm0 2.125q-0.46875 0 -0.84375 0.296875q-0.359375 0.296875 -0.5625 1.0625q-0.25 0.984375 -0.25 3.328125q0 2.359375 0.234375 3.234375q0.234375 0.875 0.59375 1.171875q0.359375 0.296875 0.828125 0.296875q0.453125 0 0.8125 -0.296875q0.375 -0.296875 0.578125 -1.0625q0.265625 -0.984375 0.265625 -3.34375q0 -2.34375 -0.25 -3.21875q-0.234375 -0.875 -0.59375 -1.171875q-0.359375 -0.296875 -0.8125 -0.296875z" fill-rule="nonzero"/><path fill="#ffffff" d="m192.7454 255.6588l98.25984 -37.875336l98.25986 37.875336l-98.25986 37.87532z" fill-rule="evenodd"/><path stroke="#000000" stroke-width="1.0" stroke-linejoin="round" stroke-linecap="butt" d="m192.7454 255.6588l98.25984 -37.875336l98.25986 37.875336l-98.25986 37.87532z" fill-rule="evenodd"/><path fill="#000000" d="m252.66722 262.5788l0 -13.359375l2.65625 0l3.1562347 9.453125q0.4375 1.328125 0.640625 1.984375q0.234375 -0.734375 0.703125 -2.140625l3.203125 -9.296875l2.375 0l0 13.359375l-1.703125 0l0 -11.171875l-3.875 11.171875l-1.59375 0l-3.8593597 -11.375l0 11.375l-1.703125 0zm14.118912 0l5.125 -13.359375l1.90625 0l5.46875 13.359375l-2.015625 0l-1.546875 -4.046875l-5.59375 0l-1.46875 4.046875l-1.875 0zm3.859375 -5.484375l4.53125 0l-1.40625 -3.703125q-0.625 -1.6875 -0.9375 -2.765625q-0.265625 1.28125 -0.71875 2.546875l-1.46875 3.921875zm19.584198 0.796875l1.765625 0.453125q-0.5625 2.171875 -2.0 3.328125q-1.4375 1.140625 -3.53125 1.140625q-2.15625 0 -3.515625 -0.875q-1.34375 -0.890625 -2.0625 -2.546875q-0.703125 -1.671875 -0.703125 -3.59375q0 -2.078125 0.796875 -3.625q0.796875 -1.5625 2.265625 -2.359375q1.484375 -0.8125 3.25 -0.8125q2.0 0 3.359375 1.015625q1.375 1.015625 1.90625 2.875l-1.734375 0.40625q-0.46875 -1.453125 -1.359375 -2.109375q-0.875 -0.671875 -2.203125 -0.671875q-1.546875 0 -2.578125 0.734375q-1.03125 0.734375 -1.453125 1.984375q-0.421875 1.234375 -0.421875 2.5625q0 1.703125 0.5 2.96875q0.5 1.265625 1.546875 1.90625q1.046875 0.625 2.265625 0.625q1.484375 0 2.515625 -0.859375q1.03125 -0.859375 1.390625 -2.546875z" fill-rule="nonzero"/><path fill="#000000" d="m299.7183 260.12567l-4.984375 1.78125q-0.0625 0.515625 -0.359375 0.21875l-0.59375 -1.703125l2.296875 -0.671875l0 -6.0l-2.15625 0l0 -1.421875l2.15625 0l0 -4.15625l1.40625 0q0.59375 0.078125 0.078125 0.453125l0 3.703125l1.921875 0l0 1.421875l-1.921875 0l0 5.640625l2.15625 -0.75l0 1.484375zm8.15625 2.15625q0.75 0 0.96875 -0.75l0.4375 -1.546875l1.640625 0.515625l-0.375 1.40625q-0.4375 1.78125 -2.15625 1.78125l-6.15625 0q-1.328125 0 -1.328125 -1.265625l0 -7.046875l-1.9375 0.75l-0.4375 -1.484375l2.375 -0.828125l0 -4.21875l1.40625 0q0.59375 0.0625 0.078125 0.4375l0 3.265625l1.78125 -0.671875l0 -5.046875l1.40625 0q0.59375 0.078125 0.078125 0.453125l0 4.078125l2.515625 -0.96875l0.15625 -0.296875l1.546875 1.046875l-0.296875 0.21875l0 5.640625q0 1.1875 -1.1875 1.1875l-1.484375 0l-0.359375 -1.40625l1.25 0q0.296875 0 0.296875 -0.296875l0 -4.453125l-2.4375 0.890625l0 6.375l-1.484375 0l0 -5.859375l-1.78125 0.671875l0 6.828125q0 0.59375 0.515625 0.59375l4.96875 0zm12.25 -11.28125l1.40625 0q0.59375 0.078125 0.078125 0.4375l0 10.546875l2.078125 0l0 -14.40625l1.40625 0q0.59375 0.078125 0.078125 0.453125l0 5.1875l3.484375 0l0 1.421875l-3.484375 0l0 7.34375l4.453125 0l0 1.40625l-12.390625 0l0 -1.40625l2.890625 0l0 -10.984375zm-4.828125 0.8125l0 -4.078125l1.40625 0q0.59375 0.078125 0.078125 0.4375l0 3.640625l2.078125 0l0 1.40625l-2.078125 0l0 5.9375l2.15625 -0.4375l0 1.484375l-5.34375 1.1875q-0.375 0.96875 -0.671875 -0.078125l-0.21875 -1.40625l2.59375 -0.453125l0 -6.234375l-2.453125 0l0 -1.40625l2.453125 0z" fill-rule="nonzero"/><path fill="#f3f3f3" d="m61.446194 124.05774l132.18898 0l0 45.228348l-132.18898 0z" fill-rule="evenodd"/><path stroke="#000000" stroke-width="1.0" stroke-linejoin="round" stroke-linecap="butt" d="m61.446194 124.05774l132.18898 0l0 45.228348l-132.18898 0z" fill-rule="evenodd"/><path fill="#000000" d="m85.74635 153.59192l0 -9.671875l1.46875 0l0 1.359375q0.453125 -0.71875 1.203125 -1.140625q0.765625 -0.4375 1.71875 -0.4375q1.078125 0 1.765625 0.453125q0.6875 0.4375 0.96875 1.234375q1.15625 -1.6875 2.984375 -1.6875q1.453125 0 2.21875 0.796875q0.78125 0.796875 0.78125 2.453125l0 6.640625l-1.640625 0l0 -6.09375q0 -0.984375 -0.15625 -1.40625q-0.15625 -0.4375 -0.578125 -0.703125q-0.421875 -0.265625 -0.984375 -0.265625q-1.015625 0 -1.6875 0.6875q-0.671875 0.671875 -0.671875 2.15625l0 5.625l-1.640625 0l0 -6.28125q0 -1.09375 -0.40625 -1.640625q-0.40625 -0.546875 -1.3125 -0.546875q-0.6875 0 -1.28125 0.359375q-0.59375 0.359375 -0.859375 1.0625q-0.25 0.703125 -0.25 2.03125l0 5.015625l-1.640625 0zm21.853302 -1.1875q-0.921875 0.765625 -1.765625 1.09375q-0.828125 0.3125 -1.796875 0.3125q-1.59375 0 -2.453125 -0.78125q-0.859375 -0.78125 -0.859375 -1.984375q0 -0.71875 0.328125 -1.296875q0.328125 -0.59375 0.84375 -0.9375q0.53125 -0.359375 1.1875 -0.546875q0.46875 -0.125 1.453125 -0.25q1.984375 -0.234375 2.921875 -0.5625q0.015625 -0.34375 0.015625 -0.421875q0 -1.0 -0.46875 -1.421875q-0.625 -0.546875 -1.875 -0.546875q-1.15625 0 -1.703125 0.40625q-0.546875 0.40625 -0.8125 1.421875l-1.609375 -0.21875q0.21875 -1.015625 0.71875 -1.640625q0.5 -0.640625 1.453125 -0.984375q0.953125 -0.34375 2.1875 -0.34375q1.25 0 2.015625 0.296875q0.78125 0.28125 1.140625 0.734375q0.375 0.4375 0.515625 1.109375q0.078125 0.421875 0.078125 1.515625l0 2.1875q0 2.28125 0.109375 2.890625q0.109375 0.59375 0.40625 1.15625l-1.703125 0q-0.265625 -0.515625 -0.328125 -1.1875zm-0.140625 -3.671875q-0.890625 0.375 -2.671875 0.625q-1.015625 0.140625 -1.4375 0.328125q-0.421875 0.1875 -0.65625 0.53125q-0.21875 0.34375 -0.21875 0.78125q0 0.65625 0.5 1.09375q0.5 0.4375 1.453125 0.4375q0.9375 0 1.671875 -0.40625q0.75 -0.421875 1.09375 -1.140625q0.265625 -0.5625 0.265625 -1.640625l0 -0.609375zm10.516342 1.3125l1.609375 0.21875q-0.265625 1.65625 -1.359375 2.609375q-1.078125 0.9375 -2.671875 0.9375q-1.984375 0 -3.1875 -1.296875q-1.203125 -1.296875 -1.203125 -3.71875q0 -1.578125 0.515625 -2.75q0.515625 -1.171875 1.578125 -1.75q1.0625 -0.59375 2.3125 -0.59375q1.578125 0 2.578125 0.796875q1.0 0.796875 1.28125 2.265625l-1.59375 0.234375q-0.234375 -0.96875 -0.8125 -1.453125q-0.578125 -0.5 -1.390625 -0.5q-1.234375 0 -2.015625 0.890625q-0.78125 0.890625 -0.78125 2.8125q0 1.953125 0.75 2.84375q0.75 0.875 1.953125 0.875q0.96875 0 1.609375 -0.59375q0.65625 -0.59375 0.828125 -1.828125zm5.703125 3.546875l-3.6875 -9.671875l1.734375 0l2.078125 5.796875q0.328125 0.9375 0.625 1.9375q0.203125 -0.765625 0.609375 -1.828125l2.140625 -5.90625l1.6875 0l-3.65625 9.671875l-1.53125 0zm6.59375 0l0 -13.359375l1.640625 0l0 13.359375l-1.640625 0zm10.504196 -1.1875q-0.921875 0.765625 -1.765625 1.09375q-0.828125 0.3125 -1.796875 0.3125q-1.59375 0 -2.453125 -0.78125q-0.859375 -0.78125 -0.859375 -1.984375q0 -0.71875 0.328125 -1.296875q0.328125 -0.59375 0.84375 -0.9375q0.53125 -0.359375 1.1875 -0.546875q0.46875 -0.125 1.453125 -0.25q1.984375 -0.234375 2.921875 -0.5625q0.015625 -0.34375 0.015625 -0.421875q0 -1.0 -0.46875 -1.421875q-0.625 -0.546875 -1.875 -0.546875q-1.15625 0 -1.703125 0.40625q-0.546875 0.40625 -0.8125 1.421875l-1.609375 -0.21875q0.21875 -1.015625 0.71875 -1.640625q0.5 -0.640625 1.453125 -0.984375q0.953125 -0.34375 2.1875 -0.34375q1.25 0 2.015625 0.296875q0.78125 0.28125 1.140625 0.734375q0.375 0.4375 0.515625 1.109375q0.078125 0.421875 0.078125 1.515625l0 2.1875q0 2.28125 0.109375 2.890625q0.109375 0.59375 0.40625 1.15625l-1.703125 0q-0.265625 -0.515625 -0.328125 -1.1875zm-0.140625 -3.671875q-0.890625 0.375 -2.671875 0.625q-1.015625 0.140625 -1.4375 0.328125q-0.421875 0.1875 -0.65625 0.53125q-0.21875 0.34375 -0.21875 0.78125q0 0.65625 0.5 1.09375q0.5 0.4375 1.453125 0.4375q0.9375 0 1.671875 -0.40625q0.75 -0.421875 1.09375 -1.140625q0.265625 -0.5625 0.265625 -1.640625l0 -0.609375zm4.203842 4.859375l0 -9.671875l1.46875 0l0 1.375q1.0625 -1.59375 3.078125 -1.59375q0.875 0 1.609375 0.3125q0.734375 0.3125 1.09375 0.828125q0.375 0.5 0.515625 1.203125q0.09375 0.453125 0.09375 1.59375l0 5.953125l-1.640625 0l0 -5.890625q0 -1.0 -0.203125 -1.484375q-0.1875 -0.5 -0.671875 -0.796875q-0.484375 -0.296875 -1.140625 -0.296875q-1.046875 0 -1.8125 0.671875q-0.75 0.65625 -0.75 2.515625l0 5.28125l-1.640625 0zm9.735092 -4.015625l0 -1.640625l5.03125 0l0 1.640625l-5.03125 0zm6.400177 -2.578125q0 -2.359375 0.484375 -3.796875q0.484375 -1.453125 1.4375 -2.234375q0.96875 -0.78125 2.421875 -0.78125q1.078125 0 1.890625 0.4375q0.8125 0.421875 1.328125 1.25q0.53125 0.8125 0.828125 1.984375q0.3125 1.15625 0.3125 3.140625q0 2.359375 -0.484375 3.8125q-0.484375 1.4375 -1.453125 2.234375q-0.953125 0.78125 -2.421875 0.78125q-1.921875 0 -3.03125 -1.390625q-1.3125 -1.671875 -1.3125 -5.4375zm1.671875 0q0 3.296875 0.765625 4.390625q0.78125 1.078125 1.90625 1.078125q1.140625 0 1.90625 -1.09375q0.765625 -1.09375 0.765625 -4.375q0 -3.296875 -0.765625 -4.375q-0.765625 -1.078125 -1.921875 -1.078125q-1.125 0 -1.796875 0.953125q-0.859375 1.21875 -0.859375 4.5z" fill-rule="nonzero"/><path fill="#f3f3f3" d="m224.91077 125.21785l132.18896 0l0 45.228348l-132.18896 0z" fill-rule="evenodd"/><path stroke="#000000" stroke-width="1.0" stroke-linejoin="round" stroke-linecap="butt" d="m224.91077 125.21785l132.18896 0l0 45.228348l-132.18896 0z" fill-rule="evenodd"/><path fill="#000000" d="m249.21092 154.75201l0 -9.671875l1.46875 0l0 1.359375q0.453125 -0.71875 1.203125 -1.140625q0.765625 -0.4375 1.71875 -0.4375q1.078125 0 1.765625 0.453125q0.68748474 0.4375 0.96873474 1.234375q1.15625 -1.6875 2.984375 -1.6875q1.453125 0 2.21875 0.796875q0.78125 0.796875 0.78125 2.453125l0 6.640625l-1.640625 0l0 -6.09375q0 -0.984375 -0.15625 -1.40625q-0.15625 -0.4375 -0.578125 -0.703125q-0.421875 -0.265625 -0.984375 -0.265625q-1.015625 0 -1.6875 0.6875q-0.671875 0.671875 -0.671875 2.15625l0 5.625l-1.6406097 0l0 -6.28125q0 -1.09375 -0.40625 -1.640625q-0.40625 -0.546875 -1.3125 -0.546875q-0.6875 0 -1.28125 0.359375q-0.59375 0.359375 -0.859375 1.0625q-0.25 0.703125 -0.25 2.03125l0 5.015625l-1.640625 0zm21.853287 -1.1875q-0.921875 0.765625 -1.765625 1.09375q-0.828125 0.3125 -1.796875 0.3125q-1.59375 0 -2.453125 -0.78125q-0.859375 -0.78125 -0.859375 -1.984375q0 -0.71875 0.328125 -1.296875q0.328125 -0.59375 0.84375 -0.9375q0.53125 -0.359375 1.1875 -0.546875q0.46875 -0.125 1.453125 -0.25q1.984375 -0.234375 2.921875 -0.5625q0.015625 -0.34375 0.015625 -0.421875q0 -1.0 -0.46875 -1.421875q-0.625 -0.546875 -1.875 -0.546875q-1.15625 0 -1.703125 0.40625q-0.546875 0.40625 -0.8125 1.421875l-1.609375 -0.21875q0.21875 -1.015625 0.71875 -1.640625q0.5 -0.640625 1.453125 -0.984375q0.953125 -0.34375 2.1875 -0.34375q1.25 0 2.015625 0.296875q0.78125 0.28125 1.140625 0.734375q0.375 0.4375 0.515625 1.109375q0.078125 0.421875 0.078125 1.515625l0 2.1875q0 2.28125 0.109375 2.890625q0.109375 0.59375 0.40625 1.15625l-1.703125 0q-0.265625 -0.515625 -0.328125 -1.1875zm-0.140625 -3.671875q-0.890625 0.375 -2.671875 0.625q-1.015625 0.140625 -1.4375 0.328125q-0.421875 0.1875 -0.65625 0.53125q-0.21875 0.34375 -0.21875 0.78125q0 0.65625 0.5 1.09375q0.5 0.4375 1.453125 0.4375q0.9375 0 1.671875 -0.40625q0.75 -0.421875 1.09375 -1.140625q0.265625 -0.5625 0.265625 -1.640625l0 -0.609375zm10.516357 1.3125l1.609375 0.21875q-0.265625 1.65625 -1.359375 2.609375q-1.078125 0.9375 -2.671875 0.9375q-1.984375 0 -3.1875 -1.296875q-1.203125 -1.296875 -1.203125 -3.71875q0 -1.578125 0.515625 -2.75q0.515625 -1.171875 1.578125 -1.75q1.0625 -0.59375 2.3125 -0.59375q1.578125 0 2.578125 0.796875q1.0 0.796875 1.28125 2.265625l-1.59375 0.234375q-0.234375 -0.96875 -0.8125 -1.453125q-0.578125 -0.5 -1.390625 -0.5q-1.234375 0 -2.015625 0.890625q-0.78125 0.890625 -0.78125 2.8125q0 1.953125 0.75 2.84375q0.75 0.875 1.953125 0.875q0.96875 0 1.609375 -0.59375q0.65625 -0.59375 0.828125 -1.828125zm5.703125 3.546875l-3.6875 -9.671875l1.734375 0l2.078125 5.796875q0.328125 0.9375 0.625 1.9375q0.203125 -0.765625 0.609375 -1.828125l2.140625 -5.90625l1.6875 0l-3.65625 9.671875l-1.53125 0zm6.59375 0l0 -13.359375l1.640625 0l0 13.359375l-1.640625 0zm10.504181 -1.1875q-0.921875 0.765625 -1.765625 1.09375q-0.828125 0.3125 -1.796875 0.3125q-1.59375 0 -2.453125 -0.78125q-0.859375 -0.78125 -0.859375 -1.984375q0 -0.71875 0.328125 -1.296875q0.328125 -0.59375 0.84375 -0.9375q0.53125 -0.359375 1.1875 -0.546875q0.46875 -0.125 1.453125 -0.25q1.984375 -0.234375 2.921875 -0.5625q0.015625 -0.34375 0.015625 -0.421875q0 -1.0 -0.46875 -1.421875q-0.625 -0.546875 -1.875 -0.546875q-1.15625 0 -1.703125 0.40625q-0.546875 0.40625 -0.8125 1.421875l-1.609375 -0.21875q0.21875 -1.015625 0.71875 -1.640625q0.5 -0.640625 1.453125 -0.984375q0.953125 -0.34375 2.1875 -0.34375q1.25 0 2.015625 0.296875q0.78125 0.28125 1.140625 0.734375q0.375 0.4375 0.515625 1.109375q0.078125 0.421875 0.078125 1.515625l0 2.1875q0 2.28125 0.109375 2.890625q0.109375 0.59375 0.40625 1.15625l-1.703125 0q-0.265625 -0.515625 -0.328125 -1.1875zm-0.140625 -3.671875q-0.890625 0.375 -2.671875 0.625q-1.015625 0.140625 -1.4375 0.328125q-0.421875 0.1875 -0.65625 0.53125q-0.21875 0.34375 -0.21875 0.78125q0 0.65625 0.5 1.09375q0.5 0.4375 1.453125 0.4375q0.9375 0 1.671875 -0.40625q0.75 -0.421875 1.09375 -1.140625q0.265625 -0.5625 0.265625 -1.640625l0 -0.609375zm4.2038574 4.859375l0 -9.671875l1.46875 0l0 1.375q1.0625 -1.59375 3.078125 -1.59375q0.875 0 1.609375 0.3125q0.734375 0.3125 1.09375 0.828125q0.375 0.5 0.515625 1.203125q0.09375 0.453125 0.09375 1.59375l0 5.953125l-1.640625 0l0 -5.890625q0 -1.0 -0.203125 -1.484375q-0.1875 -0.5 -0.671875 -0.796875q-0.484375 -0.296875 -1.140625 -0.296875q-1.046875 0 -1.8125 0.671875q-0.75 0.65625 -0.75 2.515625l0 5.28125l-1.640625 0zm9.735077 -4.015625l0 -1.640625l5.03125 0l0 1.640625l-5.03125 0zm12.572052 4.015625l-1.640625 0l0 -10.453125q-0.59375 0.5625 -1.5625 1.140625q-0.953125 0.5625 -1.71875 0.84375l0 -1.59375q1.375 -0.640625 2.40625 -1.5625q1.03125 -0.921875 1.453125 -1.78125l1.0625 0l0 13.40625z" fill-rule="nonzero"/><path fill="#f3f3f3" d="m403.46194 125.21785l132.189 0l0 45.228348l-132.189 0z" fill-rule="evenodd"/><path stroke="#000000" stroke-width="1.0" stroke-linejoin="round" stroke-linecap="butt" d="m403.46194 125.21785l132.189 0l0 45.228348l-132.189 0z" fill-rule="evenodd"/><path fill="#000000" d="m427.7621 154.75201l0 -9.671875l1.46875 0l0 1.359375q0.453125 -0.71875 1.203125 -1.140625q0.765625 -0.4375 1.71875 -0.4375q1.078125 0 1.765625 0.453125q0.6875 0.4375 0.96875 1.234375q1.15625 -1.6875 2.984375 -1.6875q1.453125 0 2.21875 0.796875q0.78125 0.796875 0.78125 2.453125l0 6.640625l-1.640625 0l0 -6.09375q0 -0.984375 -0.15625 -1.40625q-0.15625 -0.4375 -0.578125 -0.703125q-0.421875 -0.265625 -0.984375 -0.265625q-1.015625 0 -1.6875 0.6875q-0.671875 0.671875 -0.671875 2.15625l0 5.625l-1.640625 0l0 -6.28125q0 -1.09375 -0.40625 -1.640625q-0.40625 -0.546875 -1.3125 -0.546875q-0.6875 0 -1.28125 0.359375q-0.59375 0.359375 -0.859375 1.0625q-0.25 0.703125 -0.25 2.03125l0 5.015625l-1.640625 0zm21.853302 -1.1875q-0.921875 0.765625 -1.765625 1.09375q-0.828125 0.3125 -1.796875 0.3125q-1.59375 0 -2.453125 -0.78125q-0.859375 -0.78125 -0.859375 -1.984375q0 -0.71875 0.328125 -1.296875q0.328125 -0.59375 0.84375 -0.9375q0.53125 -0.359375 1.1875 -0.546875q0.46875 -0.125 1.453125 -0.25q1.984375 -0.234375 2.921875 -0.5625q0.015625 -0.34375 0.015625 -0.421875q0 -1.0 -0.46875 -1.421875q-0.625 -0.546875 -1.875 -0.546875q-1.15625 0 -1.703125 0.40625q-0.546875 0.40625 -0.8125 1.421875l-1.609375 -0.21875q0.21875 -1.015625 0.71875 -1.640625q0.5 -0.640625 1.453125 -0.984375q0.953125 -0.34375 2.1875 -0.34375q1.25 0 2.015625 0.296875q0.78125 0.28125 1.140625 0.734375q0.375 0.4375 0.515625 1.109375q0.078125 0.421875 0.078125 1.515625l0 2.1875q0 2.28125 0.109375 2.890625q0.109375 0.59375 0.40625 1.15625l-1.703125 0q-0.265625 -0.515625 -0.328125 -1.1875zm-0.140625 -3.671875q-0.890625 0.375 -2.671875 0.625q-1.015625 0.140625 -1.4375 0.328125q-0.421875 0.1875 -0.65625 0.53125q-0.21875 0.34375 -0.21875 0.78125q0 0.65625 0.5 1.09375q0.5 0.4375 1.453125 0.4375q0.9375 0 1.671875 -0.40625q0.75 -0.421875 1.09375 -1.140625q0.265625 -0.5625 0.265625 -1.640625l0 -0.609375zm10.516357 1.3125l1.609375 0.21875q-0.265625 1.65625 -1.359375 2.609375q-1.078125 0.9375 -2.671875 0.9375q-1.984375 0 -3.1875 -1.296875q-1.203125 -1.296875 -1.203125 -3.71875q0 -1.578125 0.515625 -2.75q0.515625 -1.171875 1.578125 -1.75q1.0625 -0.59375 2.3125 -0.59375q1.578125 0 2.578125 0.796875q1.0 0.796875 1.28125 2.265625l-1.59375 0.234375q-0.234375 -0.96875 -0.8125 -1.453125q-0.578125 -0.5 -1.390625 -0.5q-1.234375 0 -2.015625 0.890625q-0.78125 0.890625 -0.78125 2.8125q0 1.953125 0.75 2.84375q0.75 0.875 1.953125 0.875q0.96875 0 1.609375 -0.59375q0.65625 -0.59375 0.828125 -1.828125zm5.703125 3.546875l-3.6875 -9.671875l1.734375 0l2.078125 5.796875q0.328125 0.9375 0.625 1.9375q0.203125 -0.765625 0.609375 -1.828125l2.140625 -5.90625l1.6875 0l-3.65625 9.671875l-1.53125 0zm6.59375 0l0 -13.359375l1.640625 0l0 13.359375l-1.640625 0zm10.504181 -1.1875q-0.921875 0.765625 -1.765625 1.09375q-0.828125 0.3125 -1.796875 0.3125q-1.59375 0 -2.453125 -0.78125q-0.859375 -0.78125 -0.859375 -1.984375q0 -0.71875 0.328125 -1.296875q0.328125 -0.59375 0.84375 -0.9375q0.53125 -0.359375 1.1875 -0.546875q0.46875 -0.125 1.453125 -0.25q1.984375 -0.234375 2.921875 -0.5625q0.015625 -0.34375 0.015625 -0.421875q0 -1.0 -0.46875 -1.421875q-0.625 -0.546875 -1.875 -0.546875q-1.15625 0 -1.703125 0.40625q-0.546875 0.40625 -0.8125 1.421875l-1.609375 -0.21875q0.21875 -1.015625 0.71875 -1.640625q0.5 -0.640625 1.453125 -0.984375q0.953125 -0.34375 2.1875 -0.34375q1.25 0 2.015625 0.296875q0.78125 0.28125 1.140625 0.734375q0.375 0.4375 0.515625 1.109375q0.078125 0.421875 0.078125 1.515625l0 2.1875q0 2.28125 0.109375 2.890625q0.109375 0.59375 0.40625 1.15625l-1.703125 0q-0.265625 -0.515625 -0.328125 -1.1875zm-0.140625 -3.671875q-0.890625 0.375 -2.671875 0.625q-1.015625 0.140625 -1.4375 0.328125q-0.421875 0.1875 -0.65625 0.53125q-0.21875 0.34375 -0.21875 0.78125q0 0.65625 0.5 1.09375q0.5 0.4375 1.453125 0.4375q0.9375 0 1.671875 -0.40625q0.75 -0.421875 1.09375 -1.140625q0.265625 -0.5625 0.265625 -1.640625l0 -0.609375zm4.2038574 4.859375l0 -9.671875l1.46875 0l0 1.375q1.0625 -1.59375 3.078125 -1.59375q0.875 0 1.609375 0.3125q0.734375 0.3125 1.09375 0.828125q0.375 0.5 0.515625 1.203125q0.09375 0.453125 0.09375 1.59375l0 5.953125l-1.640625 0l0 -5.890625q0 -1.0 -0.203125 -1.484375q-0.1875 -0.5 -0.671875 -0.796875q-0.484375 -0.296875 -1.140625 -0.296875q-1.046875 0 -1.8125 0.671875q-0.75 0.65625 -0.75 2.515625l0 5.28125l-1.640625 0zm9.735077 -4.015625l0 -1.640625l5.03125 0l0 1.640625l-5.03125 0zm15.009552 2.4375l0 1.578125l-8.828125 0q-0.015625 -0.59375 0.1875 -1.140625q0.34375 -0.90625 1.078125 -1.78125q0.75 -0.875 2.15625 -2.015625q2.171875 -1.78125 2.9375 -2.828125q0.765625 -1.046875 0.765625 -1.96875q0 -0.984375 -0.703125 -1.640625q-0.6875 -0.671875 -1.8125 -0.671875q-1.1875 0 -1.90625 0.71875q-0.703125 0.703125 -0.703125 1.953125l-1.6875 -0.171875q0.171875 -1.890625 1.296875 -2.875q1.140625 -0.984375 3.03125 -0.984375q1.921875 0 3.046875 1.0625q1.125 1.0625 1.125 2.640625q0 0.796875 -0.328125 1.578125q-0.328125 0.78125 -1.09375 1.640625q-0.75 0.84375 -2.53125 2.34375q-1.46875 1.234375 -1.890625 1.6875q-0.421875 0.4375 -0.6875 0.875l6.546875 0z" fill-rule="nonzero"/><path fill="#000000" fill-opacity="0.0" d="m178.54855 27.251968l-172.75323 0l0 333.7323l206.07607 0" fill-rule="evenodd"/><path stroke="#000000" stroke-width="1.0" stroke-linejoin="round" stroke-linecap="butt" d="m172.54855 27.251968l-166.75323 0l0 333.7323l200.07607 0" fill-rule="evenodd"/><path fill="#000000" stroke="#000000" stroke-width="1.0" stroke-linecap="butt" d="m172.54855 28.903702l4.538101 -1.6517334l-4.538101 -1.6517315z" fill-rule="evenodd"/><path fill="#000000" stroke="#000000" stroke-width="1.0" stroke-linecap="butt" d="m205.8714 362.636l4.538086 -1.6517334l-4.538086 -1.6517334z" fill-rule="evenodd"/><path fill="#000000" fill-opacity="0.0" d="m127.54068 169.28609l0 26.16011l342.01575 0l0 -24.994751" fill-rule="evenodd"/><path stroke="#000000" stroke-width="1.0" stroke-linejoin="round" stroke-linecap="butt" d="m127.54068 175.28609l0 20.16011l342.01575 0l0 -18.994751" fill-rule="evenodd"/><path fill="#000000" stroke="#000000" stroke-width="1.0" stroke-linecap="butt" d="m129.19241 175.28609l-1.6517334 -4.538101l-1.6517334 4.538101z" fill-rule="evenodd"/><path fill="#000000" stroke="#000000" stroke-width="1.0" stroke-linecap="butt" d="m471.20816 176.45145l-1.6517334 -4.538101l-1.6517334 4.538101z" fill-rule="evenodd"/><path fill="#000000" fill-opacity="0.0" d="m127.54068 124.05774l0 -24.999992l342.01575 0l0 26.165352" fill-rule="evenodd"/><path stroke="#000000" stroke-width="1.0" stroke-linejoin="round" stroke-linecap="butt" d="m127.54068 118.05774l0 -19.0l342.01575 0l0 20.16536" fill-rule="evenodd"/><path fill="#000000" stroke="#000000" stroke-width="1.0" stroke-linecap="butt" d="m125.88895 118.05774l1.6517334 4.538101l1.6517334 -4.538101z" fill-rule="evenodd"/><path fill="#000000" stroke="#000000" stroke-width="1.0" stroke-linecap="butt" d="m467.9047 119.2231l1.6517334 4.5380936l1.6517334 -4.5380936z" fill-rule="evenodd"/><path fill="#000000" fill-opacity="0.0" d="m291.00525 49.866142l0 75.338585" fill-rule="evenodd"/><path stroke="#000000" stroke-width="1.0" stroke-linejoin="round" stroke-linecap="butt" d="m291.00525 55.866142l0 63.338585" fill-rule="evenodd"/><path fill="#000000" stroke="#000000" stroke-width="1.0" stroke-linecap="butt" d="m292.65698 55.866142l-1.6517334 -4.5380974l-1.6517334 4.5380974z" fill-rule="evenodd"/><path fill="#000000" stroke="#000000" stroke-width="1.0" stroke-linecap="butt" d="m289.35352 119.20473l1.6517334 4.5380936l1.6517334 -4.5380936z" fill-rule="evenodd"/><path fill="#000000" fill-opacity="0.0" d="m291.00525 217.78346l0 -47.338577" fill-rule="evenodd"/><path stroke="#000000" stroke-width="1.0" stroke-linejoin="round" stroke-linecap="butt" d="m291.00525 211.78346l0 -35.338577" fill-rule="evenodd"/><path fill="#000000" stroke="#000000" stroke-width="1.0" stroke-linecap="butt" d="m289.35352 211.78346l1.6517334 4.538101l1.6517334 -4.538101z" fill-rule="evenodd"/><path fill="#000000" stroke="#000000" stroke-width="1.0" stroke-linecap="butt" d="m292.65698 176.44489l-1.6517334 -4.538101l-1.6517334 4.538101z" fill-rule="evenodd"/><path fill="#000000" fill-opacity="0.0" d="m291.00525 338.36484l0 -44.81891" fill-rule="evenodd"/><path stroke="#000000" stroke-width="1.0" stroke-linejoin="round" stroke-linecap="butt" d="m291.00525 332.36484l0 -32.81891" fill-rule="evenodd"/><path fill="#000000" stroke="#000000" stroke-width="1.0" stroke-linecap="butt" d="m289.35352 332.36484l1.6517334 4.538086l1.6517334 -4.538086z" fill-rule="evenodd"/><path fill="#000000" stroke="#000000" stroke-width="1.0" stroke-linecap="butt" d="m292.65698 299.54593l-1.6517334 -4.538086l-1.6517334 4.538086z" fill-rule="evenodd"/><path fill="#000000" fill-opacity="0.0" d="m53.608925 174.72966l84.59843 0l0 38.771652l-84.59843 0z" fill-rule="evenodd"/><path fill="#000000" d="m68.483925 197.02716l-4.1875 1.5q-0.0625 0.4375 -0.3125 0.1875l-0.5 -1.4375l1.9375 -0.5625l0 -5.0625l-1.8125 0l0 -1.1875l1.8125 0l0 -3.5l1.1875 0q0.5 0.0625 0.0625 0.375l0 3.125l1.625 0l0 1.1875l-1.625 0l0 4.75l1.8125 -0.625l0 1.25zm6.875 1.8125q0.625 0 0.8125 -0.625l0.375 -1.3125l1.375 0.4375l-0.3125 1.1875q-0.375 1.5 -1.8125 1.5l-5.1875 0q-1.125 0 -1.125 -1.0625l0 -5.9375l-1.625 0.625l-0.375 -1.25l2.0 -0.6875l0 -3.5625l1.1875 0q0.5 0.0625 0.0625 0.375l0 2.75l1.5 -0.5625l0 -4.25l1.1875 0q0.5 0.0625 0.0625 0.375l0 3.4375l2.125 -0.8125l0.125 -0.25l1.3125 0.875l-0.25 0.1875l0 4.75q0 1.0 -1.0 1.0l-1.25 0l-0.3125 -1.1875l1.0625 0q0.25 0 0.25 -0.25l0 -3.75l-2.0625 0.75l0 5.375l-1.25 0l0 -4.9375l-1.5 0.5625l0 5.75q0 0.5 0.4375 0.5l4.1875 0zm10.3125 -9.5l1.1875 0q0.5 0.0625 0.0625 0.375l0 8.875l1.75 0l0 -12.125l1.1875 0q0.5 0.0625 0.0625 0.375l0 4.375l2.9375 0l0 1.1875l-2.9375 0l0 6.1875l3.75 0l0 1.1875l-10.4375 0l0 -1.1875l2.4375 0l0 -9.25zm-4.0625 0.6875l0 -3.4375l1.1875 0q0.5 0.0625 0.0625 0.375l0 3.0625l1.75 0l0 1.1875l-1.75 0l0 5.0l1.8125 -0.375l0 1.25l-4.5 1.0q-0.3125 0.8125 -0.5625 -0.0625l-0.1875 -1.1875l2.1875 -0.375l0 -5.25l-2.0625 0l0 -1.1875l2.0625 0z" fill-rule="nonzero"/><path fill="#000000" d="m96.06205 192.38654l0 -1.59375l1.59375 0l0 1.59375l-1.59375 0zm0 6.703125l0 -1.609375l1.59375 0l0 1.609375l-1.59375 0zm6.5234375 0l4.40625 -11.453125l1.640625 0l4.6875 11.453125l-1.734375 0l-1.328125 -3.46875l-4.796875 0l-1.25 3.46875l-1.625 0zm3.3125 -4.703125l3.890625 0l-1.203125 -3.171875q-0.546875 -1.453125 -0.8125 -2.375q-0.21875 1.09375 -0.609375 2.1875l-1.265625 3.359375z" fill-rule="nonzero"/><path fill="#000000" fill-opacity="0.0" d="m211.87138 162.98032l84.598434 0l0 38.771652l-84.598434 0z" fill-rule="evenodd"/><path fill="#000000" d="m226.74638 185.27782l-4.1875 1.5q-0.0625 0.4375 -0.3125 0.1875l-0.5 -1.4375l1.9375 -0.5625l0 -5.0625l-1.8125 0l0 -1.1875l1.8125 0l0 -3.5l1.1875 0q0.5 0.0625 0.0625 0.375l0 3.125l1.625 0l0 1.1875l-1.625 0l0 4.75l1.8125 -0.625l0 1.25zm6.875 1.8125q0.625 0 0.8125 -0.625l0.375 -1.3125l1.375 0.4375l-0.3125 1.1875q-0.375 1.5 -1.8125 1.5l-5.1875 0q-1.125 0 -1.125 -1.0625l0 -5.9375l-1.625 0.625l-0.375 -1.25l2.0 -0.6875l0 -3.5625l1.1875 0q0.5 0.0625 0.0625 0.375l0 2.75l1.5 -0.5625l0 -4.25l1.1875 0q0.5 0.0625 0.0625 0.375l0 3.4375l2.125 -0.8125l0.125 -0.25l1.3125 0.875l-0.25 0.1875l0 4.75q0 1.0 -1.0 1.0l-1.25 0l-0.3125 -1.1875l1.0625 0q0.25 0 0.25 -0.25l0 -3.75l-2.0625 0.75l0 5.375l-1.25 0l0 -4.9375l-1.5 0.5625l0 5.75q0 0.5 0.4375 0.5l4.1875 0zm10.3125 -9.5l1.1875 0q0.5 0.0625 0.0625 0.375l0 8.875l1.75 0l0 -12.125l1.1875 0q0.5 0.0625 0.0625 0.375l0 4.375l2.9375 0l0 1.1875l-2.9375 0l0 6.1875l3.75 0l0 1.1875l-10.4375 0l0 -1.1875l2.4375 0l0 -9.25zm-4.0625 0.6875l0 -3.4375l1.1875 0q0.5 0.0625 0.0625 0.375l0 3.0625l1.75 0l0 1.1875l-1.75 0l0 5.0l1.8125 -0.375l0 1.25l-4.5 1.0q-0.3125 0.8125 -0.5625 -0.0625l-0.1875 -1.1875l2.1875 -0.375l0 -5.25l-2.0625 0l0 -1.1875l2.0625 0z" fill-rule="nonzero"/><path fill="#000000" d="m254.32451 180.63719l0 -1.59375l1.59375 0l0 1.59375l-1.59375 0zm0 6.703125l0 -1.609375l1.59375 0l0 1.609375l-1.59375 0zm8.60939 0l0 -11.453125l4.296875 0q1.3125 0 2.109375 0.34375q0.796875 0.34375 1.234375 1.078125q0.453125 0.71875 0.453125 1.5q0 0.734375 -0.40625 1.390625q-0.390625 0.640625 -1.1875 1.046875q1.03125 0.296875 1.59375 1.03125q0.5625 0.734375 0.5625 1.734375q0 0.8125 -0.34375 1.5q-0.34375 0.6875 -0.84375 1.0625q-0.5 0.375 -1.25 0.578125q-0.75 0.1875 -1.84375 0.1875l-4.375 0zm1.515625 -6.640625l2.484375 0q1.0 0 1.4375 -0.140625q0.578125 -0.171875 0.875 -0.5625q0.296875 -0.40625 0.296875 -1.0q0 -0.578125 -0.28125 -1.0q-0.265625 -0.4375 -0.78125 -0.59375q-0.5 -0.171875 -1.734375 -0.171875l-2.296875 0l0 3.46875zm0 5.28125l2.859375 0q0.734375 0 1.03125 -0.046875q0.515625 -0.09375 0.859375 -0.3125q0.359375 -0.21875 0.578125 -0.640625q0.234375 -0.421875 0.234375 -0.96875q0 -0.640625 -0.328125 -1.109375q-0.328125 -0.46875 -0.90625 -0.65625q-0.578125 -0.203125 -1.671875 -0.203125l-2.65625 0l0 3.9375z" fill-rule="nonzero"/><path fill="#000000" fill-opacity="0.0" d="m469.55643 169.28477l84.59842 0l0 38.771652l-84.59842 0z" fill-rule="evenodd"/><path fill="#000000" d="m484.43143 191.58228l-4.1875 1.5q-0.0625 0.4375 -0.3125 0.1875l-0.5 -1.4375l1.9375 -0.5625l0 -5.0625l-1.8125 0l0 -1.1875l1.8125 0l0 -3.5l1.1875 0q0.5 0.0625 0.0625 0.375l0 3.125l1.625 0l0 1.1875l-1.625 0l0 4.75l1.8125 -0.625l0 1.25zm6.875 1.8125q0.625 0 0.8125 -0.625l0.375 -1.3125l1.375 0.4375l-0.3125 1.1875q-0.375 1.5 -1.8125 1.5l-5.1875 0q-1.125 0 -1.125 -1.0625l0 -5.9375l-1.625 0.625l-0.375 -1.25l2.0 -0.6875l0 -3.5625l1.1875 0q0.5 0.0625 0.0625 0.375l0 2.75l1.5 -0.5625l0 -4.25l1.1875 0q0.5 0.0625 0.0625 0.375l0 3.4375l2.125 -0.8125l0.125 -0.25l1.3125 0.875l-0.25 0.1875l0 4.75q0 1.0 -1.0 1.0l-1.25 0l-0.3125 -1.1875l1.0625 0q0.25 0 0.25 -0.25l0 -3.75l-2.0625 0.75l0 5.375l-1.25 0l0 -4.9375l-1.5 0.5625l0 5.75q0 0.5 0.4375 0.5l4.1875 0zm10.3125 -9.5l1.1875 0q0.5 0.0625 0.0625 0.375l0 8.875l1.75 0l0 -12.125l1.1875 0q0.5 0.0625 0.0625 0.375l0 4.375l2.9375 0l0 1.1875l-2.9375 0l0 6.1875l3.75 0l0 1.1875l-10.4375 0l0 -1.1875l2.4375 0l0 -9.25zm-4.0625 0.6875l0 -3.4375l1.1875 0q0.5 0.0625 0.0625 0.375l0 3.0625l1.75 0l0 1.1875l-1.75 0l0 5.0l1.8125 -0.375l0 1.25l-4.5 1.0q-0.3125 0.8125 -0.5625 -0.0625l-0.1875 -1.1875l2.1875 -0.375l0 -5.25l-2.0625 0l0 -1.1875l2.0625 0z" fill-rule="nonzero"/><path fill="#000000" d="m512.0096 186.94165l0 -1.59375l1.59375 0l0 1.59375l-1.59375 0zm0 6.703125l0 -1.609375l1.59375 0l0 1.609375l-1.59375 0zm16.84375 -4.015625l1.515625 0.375q-0.46875 1.875 -1.71875 2.859375q-1.234375 0.984375 -3.015625 0.984375q-1.859375 0 -3.015625 -0.75q-1.15625 -0.765625 -1.765625 -2.1875q-0.609375 -1.4375 -0.609375 -3.078125q0 -1.796875 0.6875 -3.125q0.6875 -1.328125 1.9375 -2.015625q1.265625 -0.703125 2.78125 -0.703125q1.71875 0 2.890625 0.875q1.171875 0.875 1.640625 2.46875l-1.5 0.34375q-0.390625 -1.25 -1.15625 -1.8125q-0.75 -0.578125 -1.90625 -0.578125q-1.3125 0 -2.203125 0.640625q-0.890625 0.625 -1.25 1.703125q-0.359375 1.0625 -0.359375 2.1875q0 1.46875 0.421875 2.5625q0.4375 1.078125 1.328125 1.625q0.90625 0.53125 1.953125 0.53125q1.265625 0 2.140625 -0.734375q0.890625 -0.734375 1.203125 -2.171875z" fill-rule="nonzero"/></g></svg>