<svg version="1.1" viewBox="0.0 0.0 1024.0 601.3333333333334" fill="none" stroke="none" stroke-linecap="square" stroke-miterlimit="10" xmlns:xlink="http://www.w3.org/1999/xlink" xmlns="http://www.w3.org/2000/svg"><clipPath id="p.0"><path d="m0 0l1024.0 0l0 601.3333l-1024.0 0l0 -601.3333z" clip-rule="nonzero"/></clipPath><g clip-path="url(#p.0)"><path fill="#000000" fill-opacity="0.0" d="m0 0l1024.0 0l0 601.3333l-1024.0 0z" fill-rule="evenodd"/><path fill="#ffffff" d="m37.25197 38.52231l586.83466 0l0 522.7716l-586.83466 0z" fill-rule="evenodd"/><path stroke="#000000" stroke-width="1.0" stroke-linejoin="round" stroke-linecap="butt" d="m37.25197 38.52231l586.83466 0l0 522.7716l-586.83466 0z" fill-rule="evenodd"/><path fill="#ffffff" d="m635.916 38.509186l167.1181 0l0 522.7716l-167.1181 0z" fill-rule="evenodd"/><path stroke="#000000" stroke-width="1.0" stroke-linejoin="round" stroke-linecap="butt" d="m635.916 38.509186l167.1181 0l0 522.7716l-167.1181 0z" fill-rule="evenodd"/><path fill="#f3f3f3" d="m47.75853 152.35432l560.8819 0l0 260.97638l-560.8819 0z" fill-rule="evenodd"/><path stroke="#ffffff" stroke-width="1.0" stroke-linejoin="round" stroke-linecap="butt" d="m47.75853 152.35432l560.8819 0l0 260.97638l-560.8819 0z" fill-rule="evenodd"/><path fill="#b6d7a8" d="m47.75853 87.732285l560.8819 0l0 44.629913l-560.8819 0z" fill-rule="evenodd"/><path stroke="#ffffff" stroke-width="1.0" stroke-linejoin="round" stroke-linecap="butt" d="m47.75853 87.732285l560.8819 0l0 44.629913l-560.8819 0z" fill-rule="evenodd"/><path fill="#000000" d="m282.5342 116.96724l5.125 -13.359375l1.90625 0l5.46875 13.359375l-2.015625 0l-1.546875 -4.046875l-5.59375 0l-1.46875 4.046875l-1.875 0zm3.859375 -5.484375l4.53125 0l-1.40625 -3.703125q-0.625 -1.6875 -0.9375 -2.765625q-0.265625 1.28125 -0.71875 2.546875l-1.46875 3.921875zm9.849823 9.1875l0 -13.375l1.484375 0l0 1.25q0.53125 -0.734375 1.1875 -1.09375q0.671875 -0.375 1.625 -0.375q1.234375 0 2.171875 0.640625q0.953125 0.625 1.4375 1.796875q0.484375 1.15625 0.484375 2.546875q0 1.484375 -0.53125 2.671875q-0.53125 1.1875 -1.546875 1.828125q-1.015625 0.625 -2.140625 0.625q-0.8125 0 -1.46875 -0.34375q-0.65625 -0.34375 -1.0625 -0.875l0 4.703125l-1.640625 0zm1.484375 -8.484375q0 1.859375 0.75 2.765625q0.765625 0.890625 1.828125 0.890625q1.09375 0 1.875 -0.921875q0.78125 -0.9375 0.78125 -2.875q0 -1.84375 -0.765625 -2.765625q-0.75 -0.921875 -1.8125 -0.921875q-1.046875 0 -1.859375 0.984375q-0.796875 0.96875 -0.796875 2.84375zm8.891357 8.484375l0 -13.375l1.484375 0l0 1.25q0.53125 -0.734375 1.1875 -1.09375q0.671875 -0.375 1.625 -0.375q1.234375 0 2.171875 0.640625q0.953125 0.625 1.4375 1.796875q0.484375 1.15625 0.484375 2.546875q0 1.484375 -0.53125 2.671875q-0.53125 1.1875 -1.546875 1.828125q-1.015625 0.625 -2.140625 0.625q-0.8125 0 -1.46875 -0.34375q-0.65625 -0.34375 -1.0625 -0.875l0 4.703125l-1.640625 0zm1.484375 -8.484375q0 1.859375 0.75 2.765625q0.765625 0.890625 1.828125 0.890625q1.09375 0 1.875 -0.921875q0.78125 -0.9375 0.78125 -2.875q0 -1.84375 -0.765625 -2.765625q-0.75 -0.921875 -1.8125 -0.921875q-1.046875 0 -1.859375 0.984375q-0.796875 0.96875 -0.796875 2.84375zm8.844452 4.78125l0 -13.359375l1.640625 0l0 13.359375l-1.640625 0zm4.191681 -11.46875l0 -1.890625l1.640625 0l0 1.890625l-1.640625 0zm0 11.46875l0 -9.671875l1.640625 0l0 9.671875l-1.640625 0zm10.457336 -3.546875l1.609375 0.21875q-0.265625 1.65625 -1.359375 2.609375q-1.078125 0.9375 -2.671875 0.9375q-1.984375 0 -3.1875 -1.296875q-1.203125 -1.296875 -1.203125 -3.71875q0 -1.578125 0.515625 -2.75q0.515625 -1.171875 1.578125 -1.75q1.0625 -0.59375 2.3125 -0.59375q1.578125 0 2.578125 0.796875q1.0 0.796875 1.28125 2.265625l-1.59375 0.234375q-0.234375 -0.96875 -0.8125 -1.453125q-0.578125 -0.5 -1.390625 -0.5q-1.234375 0 -2.015625 0.890625q-0.78125 0.890625 -0.78125 2.8125q0 1.953125 0.75 2.84375q0.75 0.875 1.953125 0.875q0.96875 0 1.609375 -0.59375q0.65625 -0.59375 0.828125 -1.828125zm9.328125 2.359375q-0.921875 0.765625 -1.765625 1.09375q-0.828125 0.3125 -1.796875 0.3125q-1.59375 0 -2.453125 -0.78125q-0.859375 -0.78125 -0.859375 -1.984375q0 -0.71875 0.328125 -1.296875q0.328125 -0.59375 0.84375 -0.9375q0.53125 -0.359375 1.1875 -0.546875q0.46875 -0.125 1.453125 -0.25q1.984375 -0.234375 2.921875 -0.5625q0.015625 -0.34375 0.015625 -0.421875q0 -1.0 -0.46875 -1.421875q-0.625 -0.546875 -1.875 -0.546875q-1.15625 0 -1.703125 0.40625q-0.546875 0.40625 -0.8125 1.421875l-1.609375 -0.21875q0.21875 -1.015625 0.71875 -1.640625q0.5 -0.640625 1.453125 -0.984375q0.953125 -0.34375 2.1875 -0.34375q1.25 0 2.015625 0.296875q0.78125 0.28125 1.140625 0.734375q0.375 0.4375 0.515625 1.109375q0.078125 0.421875 0.078125 1.515625l0 2.1875q0 2.28125 0.109375 2.890625q0.109375 0.59375 0.40625 1.15625l-1.703125 0q-0.265625 -0.515625 -0.328125 -1.1875zm-0.140625 -3.671875q-0.890625 0.375 -2.671875 0.625q-1.015625 0.140625 -1.4375 0.328125q-0.421875 0.1875 -0.65625 0.53125q-0.21875 0.34375 -0.21875 0.78125q0 0.65625 0.5 1.09375q0.5 0.4375 1.453125 0.4375q0.9375 0 1.671875 -0.40625q0.75 -0.421875 1.09375 -1.140625q0.265625 -0.5625 0.265625 -1.640625l0 -0.609375zm7.7819824 3.390625l0.234375 1.453125q-0.6875 0.140625 -1.234375 0.140625q-0.890625 0 -1.390625 -0.28125q-0.484375 -0.28125 -0.6875 -0.734375q-0.203125 -0.46875 -0.203125 -1.9375l0 -5.578125l-1.203125 0l0 -1.265625l1.203125 0l0 -2.390625l1.625 -0.984375l0 3.375l1.65625 0l0 1.265625l-1.65625 0l0 5.671875q0 0.6875 0.078125 0.890625q0.09375 0.203125 0.28125 0.328125q0.203125 0.109375 0.578125 0.109375q0.265625 0 0.71875 -0.0625zm1.6051636 -10.0l0 -1.890625l1.640625 0l0 1.890625l-1.640625 0zm0 11.46875l0 -9.671875l1.640625 0l0 9.671875l-1.640625 0zm3.5354614 -4.84375q0 -2.6875 1.484375 -3.96875q1.25 -1.078125 3.046875 -1.078125q2.0 0 3.265625 1.3125q1.265625 1.296875 1.265625 3.609375q0 1.859375 -0.5625 2.9375q-0.5625 1.0625 -1.640625 1.65625q-1.0625 0.59375 -2.328125 0.59375q-2.03125 0 -3.28125 -1.296875q-1.25 -1.3125 -1.25 -3.765625zm1.6875 0q0 1.859375 0.796875 2.796875q0.8125 0.921875 2.046875 0.921875q1.21875 0 2.03125 -0.921875q0.8125 -0.9375 0.8125 -2.84375q0 -1.796875 -0.8125 -2.71875q-0.8125 -0.921875 -2.03125 -0.921875q-1.234375 0 -2.046875 0.921875q-0.796875 0.90625 -0.796875 2.765625zm9.297577 4.84375l0 -9.671875l1.46875 0l0 1.375q1.0625 -1.59375 3.078125 -1.59375q0.875 0 1.609375 0.3125q0.734375 0.3125 1.09375 0.828125q0.375 0.5 0.515625 1.203125q0.09375 0.453125 0.09375 1.59375l0 5.953125l-1.640625 0l0 -5.890625q0 -1.0 -0.203125 -1.484375q-0.1875 -0.5 -0.671875 -0.796875q-0.484375 -0.296875 -1.140625 -0.296875q-1.046875 0 -1.8125 0.671875q-0.75 0.65625 -0.75 2.515625l0 5.28125l-1.640625 0z" fill-rule="nonzero"/><path fill="#ffffff" d="m64.72441 193.85564l148.8189 0l0 34.33072l-148.8189 0z" fill-rule="evenodd"/><path stroke="#000000" stroke-width="1.0" stroke-linejoin="round" stroke-linecap="butt" d="m64.72441 193.85564l148.8189 0l0 34.33072l-148.8189 0z" fill-rule="evenodd"/><path fill="#000000" d="m114.75103 217.161l0 -12.40625l1.640625 0l0 12.40625l-1.640625 0zm4.517441 0l0 -12.40625l1.6875 0l6.515625 9.734375l0 -9.734375l1.5781174 0l0 12.40625l-1.6874924 0l-6.515625 -9.75l0 9.75l-1.578125 0zm12.545067 0l0 -12.40625l4.671875 0q1.234375 0 1.890625 0.125q0.90625 0.140625 1.515625 0.578125q0.625 0.421875 1.0 1.203125q0.390625 0.765625 0.390625 1.6875q0 1.578125 -1.015625 2.671875q-1.0 1.09375 -3.640625 1.09375l-3.171875 0l0 5.046875l-1.640625 0zm1.640625 -6.5l3.203125 0q1.59375 0 2.25 -0.59375q0.671875 -0.59375 0.671875 -1.671875q0 -0.78125 -0.390625 -1.328125q-0.390625 -0.5625 -1.03125 -0.734375q-0.421875 -0.109375 -1.53125 -0.109375l-3.171875 0l0 4.4375zm18.042099 -5.90625l1.65625 0l0 7.171875q0 1.859375 -0.4375 2.96875q-0.421875 1.09375 -1.53125 1.796875q-1.09375 0.6875 -2.890625 0.6875q-1.734375 0 -2.84375 -0.59375q-1.109375 -0.609375 -1.59375 -1.75q-0.46875 -1.140625 -0.46875 -3.109375l0 -7.171875l1.640625 0l0 7.15625q0 1.625 0.296875 2.390625q0.3125 0.765625 1.03125 1.1875q0.734375 0.40625 1.796875 0.40625q1.8125 0 2.578125 -0.8125q0.765625 -0.828125 0.765625 -3.171875l0 -7.15625zm7.5450745 12.40625l0 -10.9375l-4.09375 0l0 -1.46875l9.828125 0l0 1.46875l-4.09375 0l0 10.9375l-1.640625 0z" fill-rule="nonzero"/><path fill="#ffffff" d="m64.72441 337.5013l148.8189 0l0 34.33072l-148.8189 0z" fill-rule="evenodd"/><path stroke="#000000" stroke-width="1.0" stroke-linejoin="round" stroke-linecap="butt" d="m64.72441 337.5013l148.8189 0l0 34.33072l-148.8189 0z" fill-rule="evenodd"/><path fill="#000000" d="m82.71434 360.80667l0 -12.40625l4.671875 0q1.234375 0 1.890625 0.125q0.90625 0.140625 1.515625 0.578125q0.625 0.421875 1.0 1.203125q0.390625 0.765625 0.390625 1.6875q0 1.578125 -1.015625 2.671875q-1.0 1.09375 -3.640625 1.09375l-3.171875 0l0 5.046875l-1.640625 0zm1.640625 -6.5l3.203125 0q1.59375 0 2.25 -0.59375q0.671875 -0.59375 0.671875 -1.671875q0 -0.78125 -0.390625 -1.328125q-0.390625 -0.5625 -1.03125 -0.734375q-0.421875 -0.109375 -1.53125 -0.109375l-3.171875 0l0 4.4375zm9.932724 6.5l0 -12.40625l5.5 0q1.65625 0 2.515625 0.34375q0.875 0.328125 1.390625 1.171875q0.515625 0.84375 0.515625 1.875q0 1.3125 -0.859375 2.21875q-0.859375 0.90625 -2.640625 1.15625q0.65625 0.3125 1.0 0.609375q0.71875 0.671875 1.359375 1.65625l2.15625 3.375l-2.0625 0l-1.640625 -2.578125q-0.71875 -1.125 -1.1875 -1.703125q-0.46875 -0.59375 -0.84375 -0.828125q-0.359375 -0.25 -0.734375 -0.34375q-0.28125 -0.0625 -0.921875 -0.0625l-1.90625 0l0 5.515625l-1.640625 0zm1.640625 -6.921875l3.53125 0q1.125 0 1.75 -0.234375q0.640625 -0.234375 0.96875 -0.75q0.34375 -0.515625 0.34375 -1.109375q0 -0.890625 -0.640625 -1.453125q-0.640625 -0.5625 -2.03125 -0.5625l-3.921875 0l0 4.109375zm10.888824 6.921875l0 -12.40625l8.96875 0l0 1.46875l-7.328125 0l0 3.796875l6.859375 0l0 1.453125l-6.859375 0l0 4.21875l7.609375 0l0 1.46875l-9.25 0zm11.542099 0l0 -12.40625l5.5 0q1.65625 0 2.515625 0.34375q0.875 0.328125 1.390625 1.171875q0.515625 0.84375 0.515625 1.875q0 1.3125 -0.859375 2.21875q-0.859375 0.90625 -2.640625 1.15625q0.65625 0.3125 1.0 0.609375q0.71875 0.671875 1.359375 1.65625l2.15625 3.375l-2.0625 0l-1.640625 -2.578125q-0.71875 -1.125 -1.1875 -1.703125q-0.46875 -0.59375 -0.84375 -0.828125q-0.359375 -0.25 -0.734375 -0.34375q-0.28125 -0.0625 -0.921875 -0.0625l-1.90625 0l0 5.515625l-1.640625 0zm1.640625 -6.921875l3.53125 0q1.125 0 1.75 -0.234375q0.640625 -0.234375 0.96875 -0.75q0.34375 -0.515625 0.34375 -1.109375q0 -0.890625 -0.640625 -1.453125q-0.640625 -0.5625 -2.03125 -0.5625l-3.921875 0l0 4.109375zm10.357574 0.875q0 -3.078125 1.65625 -4.828125q1.65625 -1.75 4.28125 -1.75q1.71875 0 3.09375 0.828125q1.375 0.8125 2.09375 2.28125q0.734375 1.46875 0.734375 3.328125q0 1.890625 -0.765625 3.390625q-0.765625 1.484375 -2.15625 2.25q-1.390625 0.765625 -3.015625 0.765625q-1.75 0 -3.125 -0.84375q-1.375 -0.859375 -2.09375 -2.3125q-0.703125 -1.46875 -0.703125 -3.109375zm1.6875 0.03125q0 2.234375 1.203125 3.53125q1.203125 1.296875 3.03125 1.296875q1.84375 0 3.03125 -1.296875q1.203125 -1.3125 1.203125 -3.703125q0 -1.515625 -0.515625 -2.640625q-0.5 -1.140625 -1.484375 -1.75q-0.984375 -0.625 -2.21875 -0.625q-1.734375 0 -3.0 1.203125q-1.25 1.1875 -1.25 3.984375zm20.415878 -6.390625l1.65625 0l0 7.171875q0 1.859375 -0.4375 2.96875q-0.421875 1.09375 -1.53125 1.796875q-1.09375 0.6875 -2.890625 0.6875q-1.734375 0 -2.84375 -0.59375q-1.109375 -0.609375 -1.59375 -1.75q-0.46875 -1.140625 -0.46875 -3.109375l0 -7.171875l1.640625 0l0 7.15625q0 1.625 0.296875 2.390625q0.3125 0.765625 1.03125 1.1875q0.734375 0.40625 1.796875 0.40625q1.8125 0 2.578125 -0.8125q0.765625 -0.828125 0.765625 -3.171875l0 -7.15625zm7.5450745 12.40625l0 -10.9375l-4.09375 0l0 -1.46875l9.828125 0l0 1.46875l-4.09375 0l0 10.9375l-1.640625 0zm7.694092 0l0 -12.40625l1.640625 0l0 12.40625l-1.640625 0zm4.517441 0l0 -12.40625l1.6875 0l6.515625 9.734375l0 -9.734375l1.578125 0l0 12.40625l-1.6875 0l-6.515625 -9.75l0 9.75l-1.578125 0zm18.34195 -4.859375l0 -1.46875l5.25 0l0 4.609375q-1.203125 0.953125 -2.5 1.453125q-1.28125 0.484375 -2.625 0.484375q-1.828125 0 -3.328125 -0.78125q-1.5 -0.796875 -2.265625 -2.265625q-0.75 -1.484375 -0.75 -3.3125q0 -1.8125 0.75 -3.375q0.765625 -1.578125 2.1875 -2.328125q1.421875 -0.765625 3.265625 -0.765625q1.359375 0 2.4375 0.4375q1.09375 0.421875 1.703125 1.203125q0.625 0.78125 0.9375 2.03125l-1.46875 0.40625q-0.28125 -0.9375 -0.703125 -1.484375q-0.40625 -0.546875 -1.1875 -0.859375q-0.765625 -0.328125 -1.703125 -0.328125q-1.125 0 -1.953125 0.34375q-0.8125 0.328125 -1.3125 0.890625q-0.5 0.5625 -0.78125 1.234375q-0.484375 1.140625 -0.484375 2.484375q0 1.671875 0.5625 2.78125q0.578125 1.109375 1.671875 1.65625q1.09375 0.546875 2.328125 0.546875q1.0625 0 2.078125 -0.40625q1.015625 -0.421875 1.53125 -0.890625l0 -2.296875l-3.640625 0z" fill-rule="nonzero"/><path fill="#ffffff" d="m64.72441 285.14304l74.409454 -22.321503l74.40944 22.321503l-74.40944 22.321533z" fill-rule="evenodd"/><path stroke="#000000" stroke-width="1.0" stroke-linejoin="round" stroke-linecap="butt" d="m64.72441 285.14304l74.409454 -22.321503l74.40944 22.321503l-74.40944 22.321533z" fill-rule="evenodd"/><path fill="#000000" d="m112.194756 291.00305l0 -11.453125l5.078125 0q1.53125 0 2.328125 0.3125q0.796875 0.296875 1.265625 1.078125q0.484375 0.78125 0.484375 1.734375q0 1.21875 -0.796875 2.0625q-0.78125 0.828125 -2.4375 1.046875q0.609375 0.296875 0.921875 0.578125q0.65625 0.609375 1.25 1.515625l2.0 3.125l-1.90625 0l-1.515625 -2.390625q-0.671875 -1.03125 -1.109375 -1.578125q-0.421875 -0.546875 -0.765625 -0.765625q-0.328125 -0.21875 -0.6875 -0.296875q-0.25 -0.0625 -0.84375 -0.0625l-1.75 0l0 5.09375l-1.515625 0zm1.515625 -6.40625l3.25 0q1.046875 0 1.625 -0.203125q0.59375 -0.21875 0.890625 -0.6875q0.3125 -0.484375 0.3125 -1.03125q0 -0.8125 -0.59375 -1.328125q-0.59375 -0.53125 -1.859375 -0.53125l-3.625 0l0 3.78125zm9.3046875 2.25q0 -2.296875 1.28125 -3.40625q1.078125 -0.921875 2.609375 -0.921875q1.7187576 0 2.7968826 1.125q1.09375 1.109375 1.09375 3.09375q0 1.59375 -0.484375 2.515625q-0.484375 0.921875 -1.40625 1.4375q-0.9062576 0.5 -2.0000076 0.5q-1.734375 0 -2.8125 -1.109375q-1.078125 -1.125 -1.078125 -3.234375zm1.453125 0q0 1.59375 0.6875 2.390625q0.703125 0.796875 1.75 0.796875q1.046875 0 1.7343826 -0.796875q0.703125 -0.796875 0.703125 -2.4375q0 -1.53125 -0.703125 -2.328125q-0.6875076 -0.796875 -1.7343826 -0.796875q-1.046875 0 -1.75 0.796875q-0.6875 0.78125 -0.6875 2.375zm13.41407 4.15625l0 -1.21875q-0.96875 1.40625 -2.640625 1.40625q-0.734375 0 -1.375 -0.28125q-0.625 -0.28125 -0.9375 -0.703125q-0.3125 -0.4375 -0.4375 -1.046875q-0.078125 -0.421875 -0.078125 -1.3125l0 -5.140625l1.40625 0l0 4.59375q0 1.109375 0.078125 1.484375q0.140625 0.5625 0.5625 0.875q0.4375 0.3125 1.0625 0.3125q0.640625 0 1.1875 -0.3125q0.5625 -0.328125 0.78125 -0.890625q0.234375 -0.5625 0.234375 -1.625l0 -4.4375l1.40625 0l0 8.296875l-1.25 0zm6.5234375 -1.265625l0.203125 1.25q-0.59375 0.125 -1.0625 0.125q-0.765625 0 -1.1875 -0.234375q-0.421875 -0.25 -0.59375 -0.640625q-0.171875 -0.40625 -0.171875 -1.671875l0 -4.765625l-1.03125 0l0 -1.09375l1.03125 0l0 -2.0625l1.40625 -0.84375l0 2.90625l1.40625 0l0 1.09375l-1.40625 0l0 4.84375q0 0.609375 0.0625 0.78125q0.078125 0.171875 0.25 0.28125q0.171875 0.09375 0.484375 0.09375q0.234375 0 0.609375 -0.0625zm1.3828125 -8.578125l0 -1.609375l1.40625 0l0 1.609375l-1.40625 0zm0 9.84375l0 -8.296875l1.40625 0l0 8.296875l-1.40625 0zm3.5546875 0l0 -8.296875l1.265625 0l0 1.171875q0.90625 -1.359375 2.640625 -1.359375q0.75 0 1.375 0.265625q0.625 0.265625 0.9375 0.703125q0.3125 0.4375 0.4375 1.046875q0.078125 0.390625 0.078125 1.359375l0 5.109375l-1.40625 0l0 -5.046875q0 -0.859375 -0.171875 -1.28125q-0.15625 -0.4375 -0.578125 -0.6875q-0.40625 -0.25 -0.96875 -0.25q-0.90625 0 -1.5625 0.578125q-0.640625 0.5625 -0.640625 2.15625l0 4.53125l-1.40625 0zm8.6328125 0.6875l1.375 0.203125q0.078125 0.640625 0.46875 0.921875q0.53125 0.390625 1.4375 0.390625q0.96875 0 1.5 -0.390625q0.53125 -0.390625 0.71875 -1.09375q0.109375 -0.421875 0.109375 -1.8125q-0.921875 1.09375 -2.296875 1.09375q-1.71875 0 -2.65625 -1.234375q-0.9375 -1.234375 -0.9375 -2.96875q0 -1.1875 0.421875 -2.1875q0.4375 -1.0 1.25 -1.546875q0.828125 -0.546875 1.921875 -0.546875q1.46875 0 2.421875 1.1875l0 -1.0l1.296875 0l0 7.171875q0 1.9375 -0.390625 2.75q-0.390625 0.8125 -1.25 1.28125q-0.859375 0.46875 -2.109375 0.46875q-1.484375 0 -2.40625 -0.671875q-0.90625 -0.671875 -0.875 -2.015625zm1.171875 -4.984375q0 1.625 0.640625 2.375q0.65625 0.75 1.625 0.75q0.96875 0 1.625 -0.734375q0.65625 -0.75 0.65625 -2.34375q0 -1.53125 -0.671875 -2.296875q-0.671875 -0.78125 -1.625 -0.78125q-0.9375 0 -1.59375 0.765625q-0.65625 0.765625 -0.65625 2.265625z" fill-rule="nonzero"/><path fill="#ffffff" d="m253.79002 265.67715l148.8189 0l0 34.33072l-148.8189 0z" fill-rule="evenodd"/><path stroke="#000000" stroke-width="1.0" stroke-linejoin="round" stroke-linecap="butt" d="m253.79002 265.67715l148.8189 0l0 34.33072l-148.8189 0z" fill-rule="evenodd"/><path fill="#000000" d="m285.34085 288.9825l0 -12.40625l8.375 0l0 1.46875l-6.734375 0l0 3.84375l5.828125 0l0 1.453125l-5.828125 0l0 5.640625l-1.640625 0zm10.006592 -6.046875q0 -3.078125 1.65625 -4.828125q1.65625 -1.75 4.28125 -1.75q1.71875 0 3.09375 0.828125q1.375 0.8125 2.09375 2.28125q0.734375 1.46875 0.734375 3.328125q0 1.890625 -0.765625 3.390625q-0.765625 1.484375 -2.15625 2.25q-1.390625 0.765625 -3.015625 0.765625q-1.75 0 -3.125 -0.84375q-1.375 -0.859375 -2.09375 -2.3125q-0.703125 -1.46875 -0.703125 -3.109375zm1.6875 0.03125q0 2.234375 1.203125 3.53125q1.203125 1.296875 3.03125 1.296875q1.84375 0 3.03125 -1.296875q1.203125 -1.3125 1.203125 -3.703125q0 -1.515625 -0.515625 -2.640625q-0.5 -1.140625 -1.484375 -1.75q-0.984375 -0.625 -2.21875 -0.625q-1.734375 0 -3.0 1.203125q-1.25 1.1875 -1.25 3.984375zm12.306488 6.015625l0 -12.40625l5.5 0q1.65625 0 2.515625 0.34375q0.875 0.328125 1.390625 1.171875q0.515625 0.84375 0.515625 1.875q0 1.3125 -0.859375 2.21875q-0.859375 0.90625 -2.640625 1.15625q0.65625 0.3125 1.0 0.609375q0.71875 0.671875 1.359375 1.65625l2.15625 3.375l-2.0625 0l-1.640625 -2.578125q-0.71875 -1.125 -1.1875 -1.703125q-0.46875 -0.59375 -0.84375 -0.828125q-0.359375 -0.25 -0.734375 -0.34375q-0.28125 -0.0625 -0.921875 -0.0625l-1.90625 0l0 5.515625l-1.640625 0zm1.640625 -6.921875l3.53125 0q1.125 0 1.75 -0.234375q0.640625 -0.234375 0.96875 -0.75q0.34375 -0.515625 0.34375 -1.109375q0 -0.890625 -0.640625 -1.453125q-0.640625 -0.5625 -2.03125 -0.5625l-3.921875 0l0 4.109375zm12.700684 6.921875l-3.28125 -12.40625l1.671875 0l1.890625 8.140625q0.3125 1.265625 0.53125 2.53125q0.46875 -1.984375 0.546875 -2.296875l2.359375 -8.375l1.984375 0l1.78125 6.28125q0.671875 2.328125 0.96875 4.390625q0.234375 -1.171875 0.609375 -2.703125l1.953125 -7.96875l1.640625 0l-3.390625 12.40625l-1.59375 0l-2.609375 -9.453125q-0.328125 -1.1875 -0.390625 -1.453125q-0.1875 0.859375 -0.359375 1.453125l-2.640625 9.453125l-1.671875 0zm12.180634 0l4.765625 -12.40625l1.765625 0l5.078125 12.40625l-1.859375 0l-1.453125 -3.75l-5.1875 0l-1.359375 3.75l-1.75 0zm3.578125 -5.09375l4.21875 0l-1.296875 -3.4375q-0.59375 -1.5625 -0.890625 -2.5625q-0.234375 1.1875 -0.65625 2.359375l-1.375 3.640625zm9.370209 5.09375l0 -12.40625l5.5 0q1.65625 0 2.515625 0.34375q0.875 0.328125 1.390625 1.171875q0.515625 0.84375 0.515625 1.875q0 1.3125 -0.859375 2.21875q-0.859375 0.90625 -2.640625 1.15625q0.65625 0.3125 1.0 0.609375q0.71875 0.671875 1.359375 1.65625l2.15625 3.375l-2.0625 0l-1.640625 -2.578125q-0.71875 -1.125 -1.1875 -1.703125q-0.46875 -0.59375 -0.84375 -0.828125q-0.359375 -0.25 -0.734375 -0.34375q-0.28125 -0.0625 -0.921875 -0.0625l-1.90625 0l0 5.515625l-1.640625 0zm1.640625 -6.921875l3.53125 0q1.125 0 1.75 -0.234375q0.640625 -0.234375 0.96875 -0.75q0.34375 -0.515625 0.34375 -1.109375q0 -0.890625 -0.640625 -1.453125q-0.640625 -0.5625 -2.03125 -0.5625l-3.921875 0l0 4.109375zm10.857574 6.921875l0 -12.40625l4.265625 0q1.453125 0 2.203125 0.1875q1.078125 0.234375 1.828125 0.875q0.984375 0.828125 1.46875 2.125q0.484375 1.296875 0.484375 2.953125q0 1.40625 -0.328125 2.5q-0.328125 1.09375 -0.84375 1.8125q-0.515625 0.703125 -1.140625 1.125q-0.609375 0.40625 -1.484375 0.625q-0.859375 0.203125 -1.984375 0.203125l-4.46875 0zm1.640625 -1.46875l2.640625 0q1.234375 0 1.921875 -0.21875q0.703125 -0.234375 1.125 -0.640625q0.578125 -0.59375 0.90625 -1.578125q0.328125 -0.984375 0.328125 -2.390625q0 -1.9375 -0.640625 -2.984375q-0.640625 -1.046875 -1.5625 -1.40625q-0.65625 -0.25 -2.125 -0.25l-2.59375 0l0 9.46875z" fill-rule="nonzero"/><path fill="#ffffff" d="m442.85303 193.85564l148.81891 0l0 34.33072l-148.81891 0z" fill-rule="evenodd"/><path stroke="#000000" stroke-width="1.0" stroke-linejoin="round" stroke-linecap="butt" d="m442.85303 193.85564l148.81891 0l0 34.33072l-148.81891 0z" fill-rule="evenodd"/><path fill="#000000" d="m482.48962 211.11412q0 -3.078125 1.65625 -4.828125q1.65625 -1.75 4.28125 -1.75q1.71875 0 3.09375 0.828125q1.375 0.8125 2.09375 2.28125q0.734375 1.46875 0.734375 3.328125q0 1.890625 -0.765625 3.390625q-0.765625 1.484375 -2.15625 2.25q-1.390625 0.765625 -3.015625 0.765625q-1.75 0 -3.125 -0.84375q-1.375 -0.859375 -2.09375 -2.3125q-0.703125 -1.46875 -0.703125 -3.109375zm1.6875 0.03125q0 2.234375 1.203125 3.53125q1.203125 1.296875 3.03125 1.296875q1.84375 0 3.03125 -1.296875q1.203125 -1.3125 1.203125 -3.703125q0 -1.515625 -0.515625 -2.640625q-0.5 -1.140625 -1.484375 -1.75q-0.984375 -0.625 -2.21875 -0.625q-1.734375 0 -3.0 1.203125q-1.25 1.1875 -1.25 3.984375zm20.415863 -6.390625l1.65625 0l0 7.171875q0 1.859375 -0.4375 2.96875q-0.421875 1.09375 -1.53125 1.796875q-1.09375 0.6875 -2.890625 0.6875q-1.734375 0 -2.84375 -0.59375q-1.109375 -0.609375 -1.59375 -1.75q-0.46875 -1.140625 -0.46875 -3.109375l0 -7.171875l1.640625 0l0 7.15625q0 1.625 0.296875 2.390625q0.3125 0.765625 1.03125 1.1875q0.734375 0.40625 1.796875 0.40625q1.8125 0 2.578125 -0.8125q0.765625 -0.828125 0.765625 -3.171875l0 -7.15625zm7.5450745 12.40625l0 -10.9375l-4.09375 0l0 -1.46875l9.828125 0l0 1.46875l-4.09375 0l0 10.9375l-1.640625 0zm7.428467 0l0 -12.40625l4.671875 0q1.234375 0 1.890625 0.125q0.90625 0.140625 1.515625 0.578125q0.625 0.421875 1.0 1.203125q0.390625 0.765625 0.390625 1.6875q0 1.578125 -1.015625 2.671875q-1.0 1.09375 -3.640625 1.09375l-3.171875 0l0 5.046875l-1.640625 0zm1.640625 -6.5l3.203125 0q1.59375 0 2.25 -0.59375q0.671875 -0.59375 0.671875 -1.671875q0 -0.78125 -0.390625 -1.328125q-0.390625 -0.5625 -1.03125 -0.734375q-0.421875 -0.109375 -1.53125 -0.109375l-3.171875 0l0 4.4375zm18.042114 -5.90625l1.65625 0l0 7.171875q0 1.859375 -0.4375 2.96875q-0.421875 1.09375 -1.53125 1.796875q-1.09375 0.6875 -2.890625 0.6875q-1.734375 0 -2.84375 -0.59375q-1.109375 -0.609375 -1.59375 -1.75q-0.46875 -1.140625 -0.46875 -3.109375l0 -7.171875l1.640625 0l0 7.15625q0 1.625 0.296875 2.390625q0.3125 0.765625 1.03125 1.1875q0.734375 0.40625 1.796875 0.40625q1.8125 0 2.578125 -0.8125q0.765625 -0.828125 0.765625 -3.171875l0 -7.15625zm7.545044 12.40625l0 -10.9375l-4.09375 0l0 -1.46875l9.828125 0l0 1.46875l-4.09375 0l0 10.9375l-1.640625 0z" fill-rule="nonzero"/><path fill="#ffffff" d="m442.85303 285.14304l74.409424 -22.321503l74.409485 22.321503l-74.409485 22.321533z" fill-rule="evenodd"/><path stroke="#000000" stroke-width="1.0" stroke-linejoin="round" stroke-linecap="butt" d="m442.85303 285.14304l74.409424 -22.321503l74.409485 22.321503l-74.409485 22.321533z" fill-rule="evenodd"/><path fill="#000000" d="m490.32336 291.00305l0 -11.453125l5.078125 0q1.53125 0 2.328125 0.3125q0.796875 0.296875 1.265625 1.078125q0.484375 0.78125 0.484375 1.734375q0 1.21875 -0.796875 2.0625q-0.78125 0.828125 -2.4375 1.046875q0.609375 0.296875 0.921875 0.578125q0.65625 0.609375 1.25 1.515625l2.0 3.125l-1.90625 0l-1.515625 -2.390625q-0.671875 -1.03125 -1.109375 -1.578125q-0.421875 -0.546875 -0.765625 -0.765625q-0.328125 -0.21875 -0.6875 -0.296875q-0.25 -0.0625 -0.84375 -0.0625l-1.75 0l0 5.09375l-1.515625 0zm1.515625 -6.40625l3.25 0q1.046875 0 1.625 -0.203125q0.59375 -0.21875 0.890625 -0.6875q0.3125 -0.484375 0.3125 -1.03125q0 -0.8125 -0.59375 -1.328125q-0.59375 -0.53125 -1.859375 -0.53125l-3.625 0l0 3.78125zm9.3046875 2.25q0 -2.296875 1.28125 -3.40625q1.078125 -0.921875 2.609375 -0.921875q1.71875 0 2.796875 1.125q1.09375 1.109375 1.09375 3.09375q0 1.59375 -0.484375 2.515625q-0.484375 0.921875 -1.40625 1.4375q-0.90625 0.5 -2.0 0.5q-1.734375 0 -2.8125 -1.109375q-1.078125 -1.125 -1.078125 -3.234375zm1.453125 0q0 1.59375 0.6875 2.390625q0.703125 0.796875 1.75 0.796875q1.046875 0 1.734375 -0.796875q0.703125 -0.796875 0.703125 -2.4375q0 -1.53125 -0.703125 -2.328125q-0.6875 -0.796875 -1.734375 -0.796875q-1.046875 0 -1.75 0.796875q-0.6875 0.78125 -0.6875 2.375zm13.4140625 4.15625l0 -1.21875q-0.96875 1.40625 -2.640625 1.40625q-0.734375 0 -1.375 -0.28125q-0.625 -0.28125 -0.9375 -0.703125q-0.3125 -0.4375 -0.4375 -1.046875q-0.078125 -0.421875 -0.078125 -1.3125l0 -5.140625l1.40625 0l0 4.59375q0 1.109375 0.078125 1.484375q0.140625 0.5625 0.5625 0.875q0.4375 0.3125 1.0625 0.3125q0.640625 0 1.1875 -0.3125q0.5625 -0.328125 0.78125 -0.890625q0.234375 -0.5625 0.234375 -1.625l0 -4.4375l1.40625 0l0 8.296875l-1.25 0zm6.5234375 -1.265625l0.203125 1.25q-0.59375 0.125 -1.0625 0.125q-0.765625 0 -1.1875 -0.234375q-0.421875 -0.25 -0.59375 -0.640625q-0.171875 -0.40625 -0.171875 -1.671875l0 -4.765625l-1.03125 0l0 -1.09375l1.03125 0l0 -2.0625l1.40625 -0.84375l0 2.90625l1.40625 0l0 1.09375l-1.40625 0l0 4.84375q0 0.609375 0.0625 0.78125q0.078125 0.171875 0.25 0.28125q0.171875 0.09375 0.484375 0.09375q0.234375 0 0.609375 -0.0625zm1.3828125 -8.578125l0 -1.609375l1.40625 0l0 1.609375l-1.40625 0zm0 9.84375l0 -8.296875l1.40625 0l0 8.296875l-1.40625 0zm3.5546875 0l0 -8.296875l1.265625 0l0 1.171875q0.90625 -1.359375 2.640625 -1.359375q0.75 0 1.375 0.265625q0.625 0.265625 0.9375 0.703125q0.3125 0.4375 0.4375 1.046875q0.078125 0.390625 0.078125 1.359375l0 5.109375l-1.40625 0l0 -5.046875q0 -0.859375 -0.171875 -1.28125q-0.15625 -0.4375 -0.578125 -0.6875q-0.40625 -0.25 -0.96875 -0.25q-0.90625 0 -1.5625 0.578125q-0.640625 0.5625 -0.640625 2.15625l0 4.53125l-1.40625 0zm8.6328125 0.6875l1.375 0.203125q0.078125 0.640625 0.46875 0.921875q0.53125 0.390625 1.4375 0.390625q0.96875 0 1.5 -0.390625q0.53125 -0.390625 0.71875 -1.09375q0.109375 -0.421875 0.109375 -1.8125q-0.921875 1.09375 -2.296875 1.09375q-1.71875 0 -2.65625 -1.234375q-0.9375 -1.234375 -0.9375 -2.96875q0 -1.1875 0.421875 -2.1875q0.4375 -1.0 1.25 -1.546875q0.828125 -0.546875 1.921875 -0.546875q1.46875 0 2.421875 1.1875l0 -1.0l1.296875 0l0 7.171875q0 1.9375 -0.390625 2.75q-0.390625 0.8125 -1.25 1.28125q-0.859375 0.46875 -2.109375 0.46875q-1.484375 0 -2.40625 -0.671875q-0.90625 -0.671875 -0.875 -2.015625zm1.171875 -4.984375q0 1.625 0.640625 2.375q0.65625 0.75 1.625 0.75q0.96875 0 1.625 -0.734375q0.65625 -0.75 0.65625 -2.34375q0 -1.53125 -0.671875 -2.296875q-0.671875 -0.78125 -1.625 -0.78125q-0.9375 0 -1.59375 0.765625q-0.65625 0.765625 -0.65625 2.265625z" fill-rule="nonzero"/><path fill="#ffffff" d="m442.85303 337.5013l148.81891 0l0 34.33072l-148.81891 0z" fill-rule="evenodd"/><path stroke="#000000" stroke-width="1.0" stroke-linejoin="round" stroke-linecap="butt" d="m442.85303 337.5013l148.81891 0l0 34.33072l-148.81891 0z" fill-rule="evenodd"/><path fill="#000000" d="m460.84296 360.80667l0 -12.40625l4.671875 0q1.234375 0 1.890625 0.125q0.90625 0.140625 1.515625 0.578125q0.625 0.421875 1.0 1.203125q0.390625 0.765625 0.390625 1.6875q0 1.578125 -1.015625 2.671875q-1.0 1.09375 -3.640625 1.09375l-3.171875 0l0 5.046875l-1.640625 0zm1.640625 -6.5l3.203125 0q1.59375 0 2.25 -0.59375q0.671875 -0.59375 0.671875 -1.671875q0 -0.78125 -0.390625 -1.328125q-0.390625 -0.5625 -1.03125 -0.734375q-0.421875 -0.109375 -1.53125 -0.109375l-3.171875 0l0 4.4375zm9.932709 6.5l0 -12.40625l5.5 0q1.65625 0 2.515625 0.34375q0.875 0.328125 1.390625 1.171875q0.515625 0.84375 0.515625 1.875q0 1.3125 -0.859375 2.21875q-0.859375 0.90625 -2.640625 1.15625q0.65625 0.3125 1.0 0.609375q0.71875 0.671875 1.359375 1.65625l2.15625 3.375l-2.0625 0l-1.640625 -2.578125q-0.71875 -1.125 -1.1875 -1.703125q-0.46875 -0.59375 -0.84375 -0.828125q-0.359375 -0.25 -0.734375 -0.34375q-0.28125 -0.0625 -0.921875 -0.0625l-1.90625 0l0 5.515625l-1.640625 0zm1.640625 -6.921875l3.53125 0q1.125 0 1.75 -0.234375q0.640625 -0.234375 0.96875 -0.75q0.34375 -0.515625 0.34375 -1.109375q0 -0.890625 -0.640625 -1.453125q-0.640625 -0.5625 -2.03125 -0.5625l-3.921875 0l0 4.109375zm10.888824 6.921875l0 -12.40625l8.96875 0l0 1.46875l-7.328125 0l0 3.796875l6.859375 0l0 1.453125l-6.859375 0l0 4.21875l7.609375 0l0 1.46875l-9.25 0zm11.542114 0l0 -12.40625l5.5 0q1.65625 0 2.515625 0.34375q0.875 0.328125 1.390625 1.171875q0.515625 0.84375 0.515625 1.875q0 1.3125 -0.859375 2.21875q-0.859375 0.90625 -2.640625 1.15625q0.65625 0.3125 1.0 0.609375q0.71875 0.671875 1.359375 1.65625l2.15625 3.375l-2.0625 0l-1.640625 -2.578125q-0.71875 -1.125 -1.1875 -1.703125q-0.46875 -0.59375 -0.84375 -0.828125q-0.359375 -0.25 -0.734375 -0.34375q-0.28125 -0.0625 -0.921875 -0.0625l-1.90625 0l0 5.515625l-1.640625 0zm1.640625 -6.921875l3.53125 0q1.125 0 1.75 -0.234375q0.640625 -0.234375 0.96875 -0.75q0.34375 -0.515625 0.34375 -1.109375q0 -0.890625 -0.640625 -1.453125q-0.640625 -0.5625 -2.03125 -0.5625l-3.921875 0l0 4.109375zm10.357574 0.875q0 -3.078125 1.65625 -4.828125q1.65625 -1.75 4.2812195 -1.75q1.71875 0 3.09375 0.828125q1.375 0.8125 2.09375 2.28125q0.734375 1.46875 0.734375 3.328125q0 1.890625 -0.765625 3.390625q-0.765625 1.484375 -2.15625 2.25q-1.390625 0.765625 -3.015625 0.765625q-1.75 0 -3.1249695 -0.84375q-1.375 -0.859375 -2.09375 -2.3125q-0.703125 -1.46875 -0.703125 -3.109375zm1.6875 0.03125q0 2.234375 1.203125 3.53125q1.2030945 1.296875 3.0312195 1.296875q1.84375 0 3.03125 -1.296875q1.203125 -1.3125 1.203125 -3.703125q0 -1.515625 -0.515625 -2.640625q-0.5 -1.140625 -1.484375 -1.75q-0.984375 -0.625 -2.21875 -0.625q-1.734375 0 -2.9999695 1.203125q-1.25 1.1875 -1.25 3.984375zm20.415863 -6.390625l1.65625 0l0 7.171875q0 1.859375 -0.4375 2.96875q-0.421875 1.09375 -1.53125 1.796875q-1.09375 0.6875 -2.890625 0.6875q-1.734375 0 -2.84375 -0.59375q-1.109375 -0.609375 -1.59375 -1.75q-0.46875 -1.140625 -0.46875 -3.109375l0 -7.171875l1.640625 0l0 7.15625q0 1.625 0.296875 2.390625q0.3125 0.765625 1.03125 1.1875q0.734375 0.40625 1.796875 0.40625q1.8125 0 2.578125 -0.8125q0.765625 -0.828125 0.765625 -3.171875l0 -7.15625zm7.545105 12.40625l0 -10.9375l-4.09375 0l0 -1.46875l9.828125 0l0 1.46875l-4.09375 0l0 10.9375l-1.640625 0zm7.694092 0l0 -12.40625l1.640625 0l0 12.40625l-1.640625 0zm4.517395 0l0 -12.40625l1.6875 0l6.515625 9.734375l0 -9.734375l1.578125 0l0 12.40625l-1.6875 0l-6.515625 -9.75l0 9.75l-1.578125 0zm18.34198 -4.859375l0 -1.46875l5.25 0l0 4.609375q-1.203125 0.953125 -2.5 1.453125q-1.28125 0.484375 -2.625 0.484375q-1.828125 0 -3.328125 -0.78125q-1.5 -0.796875 -2.265625 -2.265625q-0.75 -1.484375 -0.75 -3.3125q0 -1.8125 0.75 -3.375q0.765625 -1.578125 2.1875 -2.328125q1.421875 -0.765625 3.265625 -0.765625q1.359375 0 2.4375 0.4375q1.09375 0.421875 1.703125 1.203125q0.625 0.78125 0.9375 2.03125l-1.46875 0.40625q-0.28125 -0.9375 -0.703125 -1.484375q-0.40625 -0.546875 -1.1875 -0.859375q-0.765625 -0.328125 -1.703125 -0.328125q-1.125 0 -1.953125 0.34375q-0.8125 0.328125 -1.3125 0.890625q-0.5 0.5625 -0.78125 1.234375q-0.484375 1.140625 -0.484375 2.484375q0 1.671875 0.5625 2.78125q0.578125 1.109375 1.671875 1.65625q1.09375 0.546875 2.328125 0.546875q1.0625 0 2.078125 -0.40625q1.015625 -0.421875 1.53125 -0.890625l0 -2.296875l-3.640625 0z" fill-rule="nonzero"/><path fill="#000000" fill-opacity="0.0" d="m139.13387 262.82153l0 -34.645676" fill-rule="evenodd"/><path stroke="#000000" stroke-width="1.0" stroke-linejoin="round" stroke-linecap="butt" d="m139.13387 262.82153l0 -28.645676" fill-rule="evenodd"/><path fill="#000000" stroke="#000000" stroke-width="1.0" stroke-linecap="butt" d="m140.78558 234.17586l-1.6517181 -4.538101l-1.6517334 4.538101z" fill-rule="evenodd"/><path fill="#000000" fill-opacity="0.0" d="m139.13387 337.5013l0 -30.047241" fill-rule="evenodd"/><path stroke="#000000" stroke-width="1.0" stroke-linejoin="round" stroke-linecap="butt" d="m139.13387 337.5013l0 -24.047241" fill-rule="evenodd"/><path fill="#000000" stroke="#000000" stroke-width="1.0" stroke-linecap="butt" d="m140.78558 313.45407l-1.6517181 -4.538086l-1.6517334 4.538086z" fill-rule="evenodd"/><path fill="#000000" fill-opacity="0.0" d="m213.5433 285.14304l40.25197 -2.2991943" fill-rule="evenodd"/><path stroke="#000000" stroke-width="1.0" stroke-linejoin="round" stroke-linecap="butt" d="m213.5433 285.14304l34.261734 -1.9570312" fill-rule="evenodd"/><path fill="#000000" stroke="#000000" stroke-width="1.0" stroke-linecap="butt" d="m247.89923 284.83505l4.4365234 -1.9078369l-4.6249084 -1.3902588z" fill-rule="evenodd"/><path fill="#000000" fill-opacity="0.0" d="m402.60892 282.84253l40.251984 71.811005" fill-rule="evenodd"/><path stroke="#000000" stroke-width="1.0" stroke-linejoin="round" stroke-linecap="butt" d="m402.60892 282.84253l37.318237 66.57718" fill-rule="evenodd"/><path fill="#000000" stroke="#000000" stroke-width="1.0" stroke-linecap="butt" d="m438.48636 350.2273l3.659729 3.151001l-0.7780762 -4.7662354z" fill-rule="evenodd"/><path fill="#000000" fill-opacity="0.0" d="m517.26245 228.18636l0 34.645676" fill-rule="evenodd"/><path stroke="#000000" stroke-width="1.0" stroke-linejoin="round" stroke-linecap="butt" d="m517.26245 228.18636l0 28.645676" fill-rule="evenodd"/><path fill="#000000" stroke="#000000" stroke-width="1.0" stroke-linecap="butt" d="m515.6107 256.83203l1.6517334 4.538086l1.6517334 -4.538086z" fill-rule="evenodd"/><path fill="#000000" fill-opacity="0.0" d="m517.26245 307.46457l0 30.047241" fill-rule="evenodd"/><path stroke="#000000" stroke-width="1.0" stroke-linejoin="round" stroke-linecap="butt" d="m517.26245 307.46457l0 24.047241" fill-rule="evenodd"/><path fill="#000000" stroke="#000000" stroke-width="1.0" stroke-linecap="butt" d="m515.6107 331.5118l1.6517334 4.538086l1.6517334 -4.538086z" fill-rule="evenodd"/><path fill="#000000" fill-opacity="0.0" d="m139.13387 193.85564l-0.47244263 -61.85826" fill-rule="evenodd"/><path stroke="#000000" stroke-width="1.0" stroke-linejoin="round" stroke-linecap="butt" d="m139.13387 193.85564l-0.42663574 -55.85843" fill-rule="evenodd"/><path fill="#000000" stroke="#000000" stroke-width="1.0" stroke-linecap="butt" d="m140.35893 137.98459l-1.6863556 -4.52536l-1.6170197 4.550583z" fill-rule="evenodd"/><path fill="#000000" fill-opacity="0.0" d="m516.0026 131.99738l1.2598267 61.85826" fill-rule="evenodd"/><path stroke="#000000" stroke-width="1.0" stroke-linejoin="round" stroke-linecap="butt" d="m516.0026 131.99738l1.1376953 55.859512" fill-rule="evenodd"/><path fill="#000000" stroke="#000000" stroke-width="1.0" stroke-linecap="butt" d="m515.4889 187.89052l1.7438354 4.503525l1.55896 -4.5707855z" fill-rule="evenodd"/><path fill="#000000" fill-opacity="0.0" d="m517.26245 371.83203l0.7559204 40.661407" fill-rule="evenodd"/><path stroke="#000000" stroke-width="1.0" stroke-linejoin="round" stroke-linecap="butt" d="m517.26245 371.83203l0.6444092 34.662445" fill-rule="evenodd"/><path fill="#000000" stroke="#000000" stroke-width="1.0" stroke-linecap="butt" d="m516.25543 406.52518l1.7357788 4.5066223l1.5670776 -4.5680237z" fill-rule="evenodd"/><path fill="#000000" fill-opacity="0.0" d="m139.13387 411.3281l0 -39.496063" fill-rule="evenodd"/><path stroke="#000000" stroke-width="1.0" stroke-linejoin="round" stroke-linecap="butt" d="m139.13387 411.3281l0 -33.496063" fill-rule="evenodd"/><path fill="#000000" stroke="#000000" stroke-width="1.0" stroke-linecap="butt" d="m140.78558 377.83203l-1.6517181 -4.5381165l-1.6517334 4.5381165z" fill-rule="evenodd"/><path fill="#ff9900" d="m69.59318 485.15485l0 0c0 -21.81305 17.682991 -39.496063 39.496063 -39.496063l0 0c10.475006 0 20.520988 4.161194 27.927925 11.568146c7.406952 7.406952 11.5681305 17.452911 11.5681305 27.927917l0 0c0 21.81308 -17.682983 39.496094 -39.496056 39.496094l0 0c-21.813072 0 -39.496063 -17.683014 -39.496063 -39.496094z" fill-rule="evenodd"/><path stroke="#ffffff" stroke-width="1.0" stroke-linejoin="round" stroke-linecap="butt" d="m69.59318 485.15485l0 0c0 -21.81305 17.682991 -39.496063 39.496063 -39.496063l0 0c10.475006 0 20.520988 4.161194 27.927925 11.568146c7.406952 7.406952 11.5681305 17.452911 11.5681305 27.927917l0 0c0 21.81308 -17.682983 39.496094 -39.496056 39.496094l0 0c-21.813072 0 -39.496063 -17.683014 -39.496063 -39.496094z" fill-rule="evenodd"/><path fill="#000000" d="m98.02068 488.96548l1.6875 0.203125q-0.40625 1.484375 -1.484375 2.3125q-1.078125 0.8125 -2.765625 0.8125q-2.125 0 -3.375 -1.296875q-1.234375 -1.3125 -1.234375 -3.671875q0 -2.453125 1.25 -3.796875q1.265625 -1.34375 3.265625 -1.34375q1.9375 0 3.15625 1.328125q1.234375 1.3125 1.234375 3.703125q0 0.15625 0 0.4375l-7.21875 0q0.09375 1.59375 0.90625 2.453125q0.8125 0.84375 2.015625 0.84375q0.90625 0 1.546875 -0.46875q0.640625 -0.484375 1.015625 -1.515625zm-5.390625 -2.65625l5.40625 0q-0.109375 -1.21875 -0.625 -1.828125q-0.78125 -0.953125 -2.03125 -0.953125q-1.125 0 -1.90625 0.765625q-0.765625 0.75 -0.84375 2.015625zm12.719467 4.296875l0.234375 1.453125q-0.6875 0.140625 -1.234375 0.140625q-0.890625 0 -1.390625 -0.28125q-0.484375 -0.28125 -0.6875 -0.734375q-0.203125 -0.46875 -0.203125 -1.9375l0 -5.578125l-1.203125 0l0 -1.265625l1.203125 0l0 -2.390625l1.625 -0.984375l0 3.375l1.65625 0l0 1.265625l-1.65625 0l0 5.671875q0 0.6875 0.078125 0.890625q0.09375 0.203125 0.28125 0.328125q0.203125 0.109375 0.578125 0.109375q0.265625 0 0.71875 -0.0625zm1.6051788 1.46875l0 -13.359375l1.640625 0l0 4.796875q1.140625 -1.328125 2.890625 -1.328125q1.078125 0 1.859375 0.421875q0.796875 0.421875 1.140625 1.171875q0.34375 0.75 0.34375 2.171875l0 6.125l-1.640625 0l0 -6.125q0 -1.234375 -0.53125 -1.796875q-0.53125 -0.5625 -1.515625 -0.5625q-0.71875 0 -1.359375 0.390625q-0.640625 0.375 -0.921875 1.015625q-0.265625 0.640625 -0.265625 1.78125l0 5.296875l-1.640625 0zm9.922592 -6.59375q0 -2.359375 0.484375 -3.796875q0.484375 -1.453125 1.4375 -2.234375q0.96875 -0.78125 2.421875 -0.78125q1.078125 0 1.890625 0.4375q0.8125 0.421875 1.328125 1.25q0.53125 0.8125 0.828125 1.984375q0.3125 1.15625 0.3125 3.140625q0 2.359375 -0.484375 3.8125q-0.484375 1.4375 -1.453125 2.234375q-0.953125 0.78125 -2.421875 0.78125q-1.921875 0 -3.03125 -1.390625q-1.3125 -1.671875 -1.3125 -5.4375zm1.671875 0q0 3.296875 0.765625 4.390625q0.78125 1.078125 1.90625 1.078125q1.140625 0 1.90625 -1.09375q0.765625 -1.09375 0.765625 -4.375q0 -3.296875 -0.765625 -4.375q-0.765625 -1.078125 -1.921875 -1.078125q-1.125 0 -1.796875 0.953125q-0.859375 1.21875 -0.859375 4.5z" fill-rule="nonzero"/><path fill="#000000" fill-opacity="0.0" d="m109.08924 445.65878l0.28346252 -38.897614" fill-rule="evenodd"/><path stroke="#000000" stroke-width="1.0" stroke-linejoin="round" stroke-linecap="butt" d="m109.132965 439.65897l0.1960144 -26.89798" fill-rule="evenodd"/><path fill="#000000" stroke="#000000" stroke-width="1.0" stroke-linecap="butt" d="m107.48128 439.6469l1.6186142 4.5500183l1.684761 -4.52594z" fill-rule="evenodd"/><path fill="#000000" stroke="#000000" stroke-width="1.0" stroke-linecap="butt" d="m110.98067 412.77304l-1.6186142 -4.5500183l-1.684761 4.52594z" fill-rule="evenodd"/><path fill="#cfe2f3" d="m189.49344 454.51706l193.44882 0l0 61.82675l-193.44882 0z" fill-rule="evenodd"/><path stroke="#ffffff" stroke-width="1.0" stroke-linejoin="round" stroke-linecap="butt" d="m189.49344 454.51706l193.44882 0l0 61.82675l-193.44882 0z" fill-rule="evenodd"/><path fill="#000000" d="m254.04031 488.80356l1.609375 0.21875q-0.265625 1.65625 -1.359375 2.609375q-1.078125 0.9375 -2.671875 0.9375q-1.984375 0 -3.1875 -1.296875q-1.203125 -1.296875 -1.203125 -3.71875q0 -1.578125 0.515625 -2.75q0.515625 -1.171875 1.578125 -1.75q1.0625 -0.59375 2.3125 -0.59375q1.578125 0 2.578125 0.796875q1.0 0.796875 1.28125 2.265625l-1.59375 0.234375q-0.234375 -0.96875 -0.8125 -1.453125q-0.578125 -0.5 -1.390625 -0.5q-1.234375 0 -2.015625 0.890625q-0.78125 0.890625 -0.78125 2.8125q0 1.953125 0.75 2.84375q0.75 0.875 1.953125 0.875q0.96875 0 1.609375 -0.59375q0.65625 -0.59375 0.828125 -1.828125zm3.015625 3.546875l0 -9.671875l1.46875 0l0 1.375q1.0625 -1.59375 3.078125 -1.59375q0.875 0 1.609375 0.3125q0.734375 0.3125 1.09375 0.828125q0.375 0.5 0.515625 1.203125q0.09375 0.453125 0.09375 1.59375l0 5.953125l-1.640625 0l0 -5.890625q0 -1.0 -0.203125 -1.484375q-0.1875 -0.5 -0.671875 -0.796875q-0.484375 -0.296875 -1.140625 -0.296875q-1.046875 0 -1.8125 0.671875q-0.75 0.65625 -0.75 2.515625l0 5.28125l-1.640625 0zm10.375702 -11.46875l0 -1.890625l1.640625 0l0 1.890625l-1.640625 0zm0 11.46875l0 -9.671875l1.640625 0l0 9.671875l-1.640625 0zm3.6917114 -6.59375q0 -2.359375 0.484375 -3.796875q0.484375 -1.453125 1.4375 -2.234375q0.96875 -0.78125 2.421875 -0.78125q1.078125 0 1.890625 0.4375q0.8125 0.421875 1.328125 1.25q0.53125 0.8125 0.828125 1.984375q0.3125 1.15625 0.3125 3.140625q0 2.359375 -0.484375 3.8125q-0.484375 1.4375 -1.453125 2.234375q-0.953125 0.78125 -2.421875 0.78125q-1.921875 0 -3.03125 -1.390625q-1.3125 -1.671875 -1.3125 -5.4375zm1.671875 0q0 3.296875 0.765625 4.390625q0.78125 1.078125 1.90625 1.078125q1.140625 0 1.90625 -1.09375q0.765625 -1.09375 0.765625 -4.375q0 -3.296875 -0.765625 -4.375q-0.765625 -1.078125 -1.921875 -1.078125q-1.125 0 -1.796875 0.953125q-0.859375 1.21875 -0.859375 4.5zm12.281952 10.515625q-1.359375 -1.703125 -2.296875 -4.0q-0.9375 -2.296875 -0.9375 -4.765625q0 -2.15625 0.703125 -4.140625q0.828125 -2.3125 2.53125 -4.59375l1.171875 0q-1.09375 1.890625 -1.453125 2.703125q-0.546875 1.25 -0.875 2.625q-0.390625 1.703125 -0.390625 3.421875q0 4.375 2.71875 8.75l-1.171875 0zm4.587677 -3.921875l-1.515625 0l0 -13.359375l1.640625 0l0 4.765625q1.046875 -1.296875 2.65625 -1.296875q0.890625 0 1.6875 0.359375q0.796875 0.359375 1.3125 1.015625q0.515625 0.640625 0.796875 1.5625q0.296875 0.921875 0.296875 1.96875q0 2.484375 -1.234375 3.84375q-1.21875 1.359375 -2.953125 1.359375q-1.703125 0 -2.6875 -1.4375l0 1.21875zm-0.015625 -4.90625q0 1.734375 0.484375 2.515625q0.765625 1.265625 2.09375 1.265625q1.078125 0 1.859375 -0.9375q0.78125 -0.9375 0.78125 -2.78125q0 -1.890625 -0.75 -2.796875q-0.75 -0.90625 -1.828125 -0.90625q-1.0625 0 -1.859375 0.9375q-0.78125 0.9375 -0.78125 2.703125zm8.875732 4.90625l0 -9.671875l1.46875 0l0 1.46875q0.5625 -1.03125 1.03125 -1.359375q0.484375 -0.328125 1.0625 -0.328125q0.828125 0 1.6875 0.53125l-0.5625 1.515625q-0.609375 -0.359375 -1.203125 -0.359375q-0.546875 0 -0.96875 0.328125q-0.421875 0.328125 -0.609375 0.890625q-0.28125 0.875 -0.28125 1.921875l0 5.0625l-1.625 0zm6.228302 -11.46875l0 -1.890625l1.640625 0l0 1.890625l-1.640625 0zm0 11.46875l0 -9.671875l1.640625 0l0 9.671875l-1.640625 0zm10.410431 0l0 -1.21875q-0.90625 1.4375 -2.703125 1.4375q-1.15625 0 -2.125 -0.640625q-0.96875 -0.640625 -1.5 -1.78125q-0.53125 -1.140625 -0.53125 -2.625q0 -1.453125 0.484375 -2.625q0.484375 -1.1875 1.4375 -1.8125q0.96875 -0.625 2.171875 -0.625q0.875 0 1.546875 0.375q0.6875 0.359375 1.109375 0.953125l0 -4.796875l1.640625 0l0 13.359375l-1.53125 0zm-5.171875 -4.828125q0 1.859375 0.78125 2.78125q0.78125 0.921875 1.84375 0.921875q1.078125 0 1.828125 -0.875q0.75 -0.890625 0.75 -2.6875q0 -1.984375 -0.765625 -2.90625q-0.765625 -0.9375 -1.890625 -0.9375q-1.078125 0 -1.8125 0.890625q-0.734375 0.890625 -0.734375 2.8125zm8.969482 5.625l1.59375 0.234375q0.109375 0.75 0.5625 1.078125q0.609375 0.453125 1.671875 0.453125q1.140625 0 1.75 -0.453125q0.625 -0.453125 0.84375 -1.265625q0.125 -0.5 0.109375 -2.109375q-1.0625 1.265625 -2.671875 1.265625q-2.0 0 -3.09375 -1.4375q-1.09375 -1.4375 -1.09375 -3.453125q0 -1.390625 0.5 -2.5625q0.515625 -1.171875 1.453125 -1.796875q0.953125 -0.640625 2.25 -0.640625q1.703125 0 2.8125 1.375l0 -1.15625l1.515625 0l0 8.359375q0 2.265625 -0.46875 3.203125q-0.453125 0.9375 -1.453125 1.484375q-0.984375 0.546875 -2.453125 0.546875q-1.71875 0 -2.796875 -0.78125q-1.0625 -0.765625 -1.03125 -2.34375zm1.359375 -5.8125q0 1.90625 0.75 2.78125q0.765625 0.875 1.90625 0.875q1.125 0 1.890625 -0.859375q0.765625 -0.875 0.765625 -2.734375q0 -1.78125 -0.796875 -2.671875q-0.78125 -0.90625 -1.890625 -0.90625q-1.09375 0 -1.859375 0.890625q-0.765625 0.875 -0.765625 2.625zm15.953827 1.90625l1.6875 0.203125q-0.40625 1.484375 -1.484375 2.3125q-1.078125 0.8125 -2.765625 0.8125q-2.125 0 -3.375 -1.296875q-1.234375 -1.3125 -1.234375 -3.671875q0 -2.453125 1.25 -3.796875q1.265625 -1.34375 3.265625 -1.34375q1.9375 0 3.15625 1.328125q1.234375 1.3125 1.234375 3.703125q0 0.15625 0 0.4375l-7.21875 0q0.09375 1.59375 0.90625 2.453125q0.8125 0.84375 2.015625 0.84375q0.90625 0 1.546875 -0.46875q0.640625 -0.484375 1.015625 -1.515625zm-5.390625 -2.65625l5.40625 0q-0.109375 -1.21875 -0.625 -1.828125q-0.78125 -0.953125 -2.03125 -0.953125q-1.125 0 -1.90625 0.765625q-0.765625 0.75 -0.84375 2.015625zm10.219482 9.6875l-1.1875 0q2.734375 -4.375 2.734375 -8.75q0 -1.71875 -0.390625 -3.390625q-0.3125 -1.375 -0.875 -2.625q-0.359375 -0.828125 -1.46875 -2.734375l1.1875 0q1.703125 2.28125 2.53125 4.59375q0.6875 1.984375 0.6875 4.140625q0 2.46875 -0.9375 4.765625q-0.9375 2.296875 -2.28125 4.0z" fill-rule="nonzero"/><path fill="#d9d9d9" d="m423.8504 485.15485l0 0c0 -21.81305 17.682983 -39.496063 39.496063 -39.496063l0 0c10.475006 0 20.520966 4.161194 27.927917 11.568146c7.406952 7.406952 11.568146 17.452911 11.568146 27.927917l0 0c0 21.81308 -17.683014 39.496094 -39.496063 39.496094l0 0c-21.81308 0 -39.496063 -17.683014 -39.496063 -39.496094z" fill-rule="evenodd"/><path stroke="#ffffff" stroke-width="1.0" stroke-linejoin="round" stroke-linecap="butt" d="m423.8504 485.15485l0 0c0 -21.81305 17.682983 -39.496063 39.496063 -39.496063l0 0c10.475006 0 20.520966 4.161194 27.927917 11.568146c7.406952 7.406952 11.568146 17.452911 11.568146 27.927917l0 0c0 21.81308 -17.683014 39.496094 -39.496063 39.496094l0 0c-21.81308 0 -39.496063 -17.683014 -39.496063 -39.496094z" fill-rule="evenodd"/><path fill="#000000" d="m449.29352 491.29486l-4.796875 -12.40625l1.78125 0l3.21875 9.015625q0.390625 1.078125 0.65625 2.03125q0.28125 -1.015625 0.65625 -2.03125l3.359375 -9.015625l1.671875 0l-4.859375 12.40625l-1.6875 0zm13.023224 -2.890625l1.5625 0.1875q-0.359375 1.390625 -1.375 2.15625q-1.0 0.75 -2.5625 0.75q-1.984375 0 -3.140625 -1.203125q-1.140625 -1.21875 -1.140625 -3.421875q0 -2.265625 1.15625 -3.515625q1.171875 -1.25 3.03125 -1.25q1.8125 0 2.953125 1.234375q1.140625 1.21875 1.140625 3.4375q0 0.140625 -0.015625 0.40625l-6.703125 0q0.09375 1.484375 0.84375 2.28125q0.75 0.78125 1.875 0.78125q0.84375 0 1.4375 -0.4375q0.59375 -0.4375 0.9375 -1.40625zm-5.0 -2.46875l5.015625 0q-0.109375 -1.125 -0.578125 -1.703125q-0.734375 -0.875 -1.890625 -0.875q-1.046875 0 -1.765625 0.703125q-0.703125 0.703125 -0.78125 1.875zm11.80896 4.0l0.21875 1.34375q-0.640625 0.140625 -1.15625 0.140625q-0.828125 0 -1.28125 -0.265625q-0.453125 -0.265625 -0.640625 -0.6875q-0.1875 -0.4375 -0.1875 -1.796875l0 -5.171875l-1.125 0l0 -1.1875l1.125 0l0 -2.21875l1.515625 -0.921875l0 3.140625l1.53125 0l0 1.1875l-1.53125 0l0 5.25q0 0.65625 0.078125 0.84375q0.078125 0.1875 0.25 0.296875q0.1875 0.109375 0.53125 0.109375q0.25 0 0.671875 -0.0625zm1.486206 1.359375l0 -12.40625l1.53125 0l0 4.453125q1.0625 -1.234375 2.6875 -1.234375q1.0 0 1.734375 0.390625q0.734375 0.390625 1.046875 1.09375q0.328125 0.6875 0.328125 2.015625l0 5.6875l-1.53125 0l0 -5.6875q0 -1.15625 -0.5 -1.671875q-0.484375 -0.515625 -1.390625 -0.515625q-0.6875 0 -1.28125 0.359375q-0.59375 0.34375 -0.84375 0.953125q-0.25 0.59375 -0.25 1.640625l0 4.921875l-1.53125 0z" fill-rule="nonzero"/><path fill="#d9d9d9" d="m517.26245 485.15485l0 0c0 -21.81305 17.682983 -39.496063 39.496094 -39.496063l0 0c10.474976 0 20.520996 4.161194 27.927917 11.568146c7.4069214 7.406952 11.568115 17.452911 11.568115 27.927917l0 0c0 21.81308 -17.682983 39.496094 -39.496033 39.496094l0 0c-21.81311 0 -39.496094 -17.683014 -39.496094 -39.496094z" fill-rule="evenodd"/><path stroke="#ffffff" stroke-width="1.0" stroke-linejoin="round" stroke-linecap="butt" d="m517.26245 485.15485l0 0c0 -21.81305 17.682983 -39.496063 39.496094 -39.496063l0 0c10.474976 0 20.520996 4.161194 27.927917 11.568146c7.4069214 7.406952 11.568115 17.452911 11.568115 27.927917l0 0c0 21.81308 -17.682983 39.496094 -39.496033 39.496094l0 0c-21.81311 0 -39.496094 -17.683014 -39.496094 -39.496094z" fill-rule="evenodd"/><path fill="#000000" d="m542.70557 491.29486l-4.796875 -12.40625l1.78125 0l3.21875 9.015625q0.390625 1.078125 0.65625 2.03125q0.28125 -1.015625 0.65625 -2.03125l3.359375 -9.015625l1.671875 0l-4.859375 12.40625l-1.6875 0zm13.023254 -2.890625l1.5625 0.1875q-0.359375 1.390625 -1.375 2.15625q-1.0 0.75 -2.5625 0.75q-1.984375 0 -3.140625 -1.203125q-1.140625 -1.21875 -1.140625 -3.421875q0 -2.265625 1.15625 -3.515625q1.171875 -1.25 3.03125 -1.25q1.8125 0 2.953125 1.234375q1.140625 1.21875 1.140625 3.4375q0 0.140625 -0.015625 0.40625l-6.703125 0q0.09375 1.484375 0.84375 2.28125q0.75 0.78125 1.875 0.78125q0.84375 0 1.4375 -0.4375q0.59375 -0.4375 0.9375 -1.40625zm-5.0 -2.46875l5.015625 0q-0.109375 -1.125 -0.578125 -1.703125q-0.734375 -0.875 -1.890625 -0.875q-1.046875 0 -1.765625 0.703125q-0.703125 0.703125 -0.78125 1.875zm11.80896 4.0l0.21875 1.34375q-0.640625 0.140625 -1.15625 0.140625q-0.828125 0 -1.28125 -0.265625q-0.453125 -0.265625 -0.640625 -0.6875q-0.1875 -0.4375 -0.1875 -1.796875l0 -5.171875l-1.125 0l0 -1.1875l1.125 0l0 -2.21875l1.515625 -0.921875l0 3.140625l1.53125 0l0 1.1875l-1.53125 0l0 5.25q0 0.65625 0.078125 0.84375q0.078125 0.1875 0.25 0.296875q0.1875 0.109375 0.53125 0.109375q0.25 0 0.671875 -0.0625zm1.486206 1.359375l0 -12.40625l1.53125 0l0 4.453125q1.0625 -1.234375 2.6875 -1.234375q1.0 0 1.734375 0.390625q0.734375 0.390625 1.046875 1.09375q0.328125 0.6875 0.328125 2.015625l0 5.6875l-1.53125 0l0 -5.6875q0 -1.15625 -0.5 -1.671875q-0.484375 -0.515625 -1.390625 -0.515625q-0.6875 0 -1.28125 0.359375q-0.59375 0.34375 -0.84375 0.953125q-0.25 0.59375 -0.25 1.640625l0 4.921875l-1.53125 0z" fill-rule="nonzero"/><path fill="#000000" fill-opacity="0.0" d="m286.21783 454.51706l0.56695557 -38.92914" fill-rule="evenodd"/><path stroke="#000000" stroke-width="1.0" stroke-linejoin="round" stroke-linecap="butt" d="m286.3052 448.51773l0.3922119 -26.93045" fill-rule="evenodd"/><path fill="#000000" stroke="#000000" stroke-width="1.0" stroke-linecap="butt" d="m284.65366 448.49365l1.5854797 4.5616455l1.7176514 -4.51355z" fill-rule="evenodd"/><path fill="#000000" stroke="#000000" stroke-width="1.0" stroke-linecap="butt" d="m288.34897 421.61133l-1.5854797 -4.5616455l-1.7176514 4.51355z" fill-rule="evenodd"/><path fill="#000000" fill-opacity="0.0" d="m382.94226 485.43045l40.91339 -0.28347778" fill-rule="evenodd"/><path stroke="#000000" stroke-width="1.0" stroke-linejoin="round" stroke-linecap="butt" d="m388.9421 485.38885l28.913696 -0.20028687" fill-rule="evenodd"/><path fill="#000000" stroke="#000000" stroke-width="1.0" stroke-linecap="butt" d="m388.93066 483.73718l-4.5265503 1.683136l4.5494385 1.6202393z" fill-rule="evenodd"/><path fill="#000000" stroke="#000000" stroke-width="1.0" stroke-linecap="butt" d="m417.86722 486.84024l4.5265503 -1.683136l-4.5494385 -1.6202393z" fill-rule="evenodd"/><path fill="#f3f3f3" d="m645.1496 152.35432l148.81891 0l0 260.97638l-148.81891 0z" fill-rule="evenodd"/><path stroke="#ffffff" stroke-width="1.0" stroke-linejoin="round" stroke-linecap="butt" d="m645.1496 152.35432l148.81891 0l0 260.97638l-148.81891 0z" fill-rule="evenodd"/><path fill="#000000" d="m655.384 289.7625l0 -9.671875l1.46875 0l0 1.375q1.0625 -1.59375 3.078125 -1.59375q0.875 0 1.609375 0.3125q0.734375 0.3125 1.09375 0.828125q0.375 0.5 0.515625 1.203125q0.09375 0.453125 0.09375 1.59375l0 5.953125l-1.640625 0l0 -5.890625q0 -1.0 -0.203125 -1.484375q-0.1875 -0.5 -0.671875 -0.796875q-0.484375 -0.296875 -1.140625 -0.296875q-1.046875 0 -1.8125 0.671875q-0.75 0.65625 -0.75 2.515625l0 5.28125l-1.640625 0zm17.000732 -3.109375l1.6875 0.203125q-0.40625 1.484375 -1.484375 2.3125q-1.078125 0.8125 -2.765625 0.8125q-2.125 0 -3.375 -1.296875q-1.234375 -1.3125 -1.234375 -3.671875q0 -2.453125 1.25 -3.796875q1.265625 -1.34375 3.265625 -1.34375q1.9375 0 3.15625 1.328125q1.234375 1.3125 1.234375 3.703125q0 0.15625 0 0.4375l-7.21875 0q0.09375 1.59375 0.90625 2.453125q0.8125 0.84375 2.015625 0.84375q0.90625 0 1.546875 -0.46875q0.640625 -0.484375 1.015625 -1.515625zm-5.390625 -2.65625l5.40625 0q-0.109375 -1.21875 -0.625 -1.828125q-0.78125 -0.953125 -2.03125 -0.953125q-1.125 0 -1.90625 0.765625q-0.765625 0.75 -0.84375 2.015625zm12.719482 4.296875l0.234375 1.453125q-0.6875 0.140625 -1.234375 0.140625q-0.890625 0 -1.390625 -0.28125q-0.484375 -0.28125 -0.6875 -0.734375q-0.203125 -0.46875 -0.203125 -1.9375l0 -5.578125l-1.203125 0l0 -1.265625l1.203125 0l0 -2.390625l1.625 -0.984375l0 3.375l1.65625 0l0 1.265625l-1.65625 0l0 5.671875q0 0.6875 0.078125 0.890625q0.09375 0.203125 0.28125 0.328125q0.203125 0.109375 0.578125 0.109375q0.265625 0 0.71875 -0.0625zm3.3864136 1.46875l-2.96875 -9.671875l1.703125 0l1.53125 5.578125l0.578125 2.078125q0.046875 -0.15625 0.5 -2.0l1.546875 -5.65625l1.6875 0l1.4375 5.609375l0.484375 1.84375l0.5625 -1.859375l1.65625 -5.59375l1.59375 0l-3.03125 9.671875l-1.703125 0l-1.53125 -5.796875l-0.375 -1.640625l-1.953125 7.4375l-1.71875 0zm11.082336 -4.84375q0 -2.6875 1.484375 -3.96875q1.25 -1.078125 3.046875 -1.078125q2.0 0 3.265625 1.3125q1.265625 1.296875 1.265625 3.609375q0 1.859375 -0.5625 2.9375q-0.5625 1.0625 -1.640625 1.65625q-1.0625 0.59375 -2.328125 0.59375q-2.03125 0 -3.28125 -1.296875q-1.25 -1.3125 -1.25 -3.765625zm1.6875 0q0 1.859375 0.796875 2.796875q0.8125 0.921875 2.046875 0.921875q1.21875 0 2.03125 -0.921875q0.8125 -0.9375 0.8125 -2.84375q0 -1.796875 -0.8125 -2.71875q-0.8125 -0.921875 -2.03125 -0.921875q-1.234375 0 -2.046875 0.921875q-0.796875 0.90625 -0.796875 2.765625zm9.281921 4.84375l0 -9.671875l1.46875 0l0 1.46875q0.5625 -1.03125 1.03125 -1.359375q0.484375 -0.328125 1.0625 -0.328125q0.828125 0 1.6875 0.53125l-0.5625 1.515625q-0.609375 -0.359375 -1.203125 -0.359375q-0.546875 0 -0.96875 0.328125q-0.421875 0.328125 -0.609375 0.890625q-0.28125 0.875 -0.28125 1.921875l0 5.0625l-1.625 0zm6.2283325 0l0 -13.359375l1.640625 0l0 7.625l3.890625 -3.9375l2.109375 0l-3.6875 3.59375l4.0625 6.078125l-2.015625 0l-3.203125 -4.953125l-1.15625 1.125l0 3.828125l-1.640625 0zm13.855164 -2.890625l1.625 -0.25q0.125 0.96875 0.75 1.5q0.625 0.515625 1.75 0.515625q1.125 0 1.671875 -0.453125q0.546875 -0.46875 0.546875 -1.09375q0 -0.546875 -0.484375 -0.875q-0.328125 -0.21875 -1.671875 -0.546875q-1.8125 -0.46875 -2.515625 -0.796875q-0.6875 -0.328125 -1.046875 -0.90625q-0.359375 -0.59375 -0.359375 -1.3125q0 -0.640625 0.296875 -1.1875q0.296875 -0.5625 0.8125 -0.921875q0.375 -0.28125 1.03125 -0.46875q0.671875 -0.203125 1.421875 -0.203125q1.140625 0 2.0 0.328125q0.859375 0.328125 1.265625 0.890625q0.421875 0.5625 0.578125 1.5l-1.609375 0.21875q-0.109375 -0.75 -0.640625 -1.171875q-0.515625 -0.421875 -1.46875 -0.421875q-1.140625 0 -1.625 0.375q-0.46875 0.375 -0.46875 0.875q0 0.3125 0.1875 0.578125q0.203125 0.265625 0.640625 0.4375q0.234375 0.09375 1.4375 0.421875q1.75 0.453125 2.4375 0.75q0.6875 0.296875 1.078125 0.859375q0.390625 0.5625 0.390625 1.40625q0 0.828125 -0.484375 1.546875q-0.46875 0.71875 -1.375 1.125q-0.90625 0.390625 -2.046875 0.390625q-1.875 0 -2.875 -0.78125q-0.984375 -0.78125 -1.25 -2.328125zm13.5625 1.421875l0.234375 1.453125q-0.6875 0.140625 -1.234375 0.140625q-0.890625 0 -1.390625 -0.28125q-0.484375 -0.28125 -0.6875 -0.734375q-0.203125 -0.46875 -0.203125 -1.9375l0 -5.578125l-1.203125 0l0 -1.265625l1.203125 0l0 -2.390625l1.625 -0.984375l0 3.375l1.65625 0l0 1.265625l-1.65625 0l0 5.671875q0 0.6875 0.078125 0.890625q0.09375 0.203125 0.28125 0.328125q0.203125 0.109375 0.578125 0.109375q0.265625 0 0.71875 -0.0625zm7.9176636 0.28125q-0.921875 0.765625 -1.765625 1.09375q-0.828125 0.3125 -1.796875 0.3125q-1.59375 0 -2.453125 -0.78125q-0.859375 -0.78125 -0.859375 -1.984375q0 -0.71875 0.328125 -1.296875q0.328125 -0.59375 0.84375 -0.9375q0.53125 -0.359375 1.1875 -0.546875q0.46875 -0.125 1.453125 -0.25q1.984375 -0.234375 2.921875 -0.5625q0.015625 -0.34375 0.015625 -0.421875q0 -1.0 -0.46875 -1.421875q-0.625 -0.546875 -1.875 -0.546875q-1.15625 0 -1.703125 0.40625q-0.546875 0.40625 -0.8125 1.421875l-1.609375 -0.21875q0.21875 -1.015625 0.71875 -1.640625q0.5 -0.640625 1.453125 -0.984375q0.953125 -0.34375 2.1875 -0.34375q1.25 0 2.015625 0.296875q0.78125 0.28125 1.140625 0.734375q0.375 0.4375 0.515625 1.109375q0.078125 0.421875 0.078125 1.515625l0 2.1875q0 2.28125 0.109375 2.890625q0.109375 0.59375 0.40625 1.15625l-1.703125 0q-0.265625 -0.515625 -0.328125 -1.1875zm-0.140625 -3.671875q-0.890625 0.375 -2.671875 0.625q-1.015625 0.140625 -1.4375 0.328125q-0.421875 0.1875 -0.65625 0.53125q-0.21875 0.34375 -0.21875 0.78125q0 0.65625 0.5 1.09375q0.5 0.4375 1.453125 0.4375q0.9375 0 1.671875 -0.40625q0.75 -0.421875 1.09375 -1.140625q0.265625 -0.5625 0.265625 -1.640625l0 -0.609375zm10.516357 1.3125l1.609375 0.21875q-0.265625 1.65625 -1.359375 2.609375q-1.078125 0.9375 -2.671875 0.9375q-1.984375 0 -3.1875 -1.296875q-1.203125 -1.296875 -1.203125 -3.71875q0 -1.578125 0.515625 -2.75q0.515625 -1.171875 1.578125 -1.75q1.0625 -0.59375 2.3125 -0.59375q1.578125 0 2.578125 0.796875q1.0 0.796875 1.28125 2.265625l-1.59375 0.234375q-0.234375 -0.96875 -0.8125 -1.453125q-0.578125 -0.5 -1.390625 -0.5q-1.234375 0 -2.015625 0.890625q-0.78125 0.890625 -0.78125 2.8125q0 1.953125 0.75 2.84375q0.75 0.875 1.953125 0.875q0.96875 0 1.609375 -0.59375q0.65625 -0.59375 0.828125 -1.828125zm3.015625 3.546875l0 -13.359375l1.640625 0l0 7.625l3.890625 -3.9375l2.109375 0l-3.6875 3.59375l4.0625 6.078125l-2.015625 0l-3.203125 -4.953125l-1.15625 1.125l0 3.828125l-1.640625 0z" fill-rule="nonzero"/><path fill="#b6d7a8" d="m642.353 87.732285l148.81891 0l0 44.629913l-148.81891 0z" fill-rule="evenodd"/><path stroke="#ffffff" stroke-width="1.0" stroke-linejoin="round" stroke-linecap="butt" d="m642.353 87.732285l148.81891 0l0 44.629913l-148.81891 0z" fill-rule="evenodd"/><path fill="#000000" d="m671.09717 116.96724l5.125 -13.359375l1.90625 0l5.46875 13.359375l-2.015625 0l-1.546875 -4.046875l-5.59375 0l-1.46875 4.046875l-1.875 0zm3.859375 -5.484375l4.53125 0l-1.40625 -3.703125q-0.625 -1.6875 -0.9375 -2.765625q-0.265625 1.28125 -0.71875 2.546875l-1.46875 3.921875zm9.8498535 9.1875l0 -13.375l1.484375 0l0 1.25q0.53125 -0.734375 1.1875 -1.09375q0.671875 -0.375 1.625 -0.375q1.234375 0 2.171875 0.640625q0.953125 0.625 1.4375 1.796875q0.484375 1.15625 0.484375 2.546875q0 1.484375 -0.53125 2.671875q-0.53125 1.1875 -1.546875 1.828125q-1.015625 0.625 -2.140625 0.625q-0.8125 0 -1.46875 -0.34375q-0.65625 -0.34375 -1.0625 -0.875l0 4.703125l-1.640625 0zm1.484375 -8.484375q0 1.859375 0.75 2.765625q0.765625 0.890625 1.828125 0.890625q1.09375 0 1.875 -0.921875q0.78125 -0.9375 0.78125 -2.875q0 -1.84375 -0.765625 -2.765625q-0.75 -0.921875 -1.8125 -0.921875q-1.046875 0 -1.859375 0.984375q-0.796875 0.96875 -0.796875 2.84375zm8.891357 8.484375l0 -13.375l1.484375 0l0 1.25q0.53125 -0.734375 1.1875 -1.09375q0.671875 -0.375 1.625 -0.375q1.234375 0 2.171875 0.640625q0.953125 0.625 1.4375 1.796875q0.484375 1.15625 0.484375 2.546875q0 1.484375 -0.53125 2.671875q-0.53125 1.1875 -1.546875 1.828125q-1.015625 0.625 -2.140625 0.625q-0.8125 0 -1.46875 -0.34375q-0.65625 -0.34375 -1.0625 -0.875l0 4.703125l-1.640625 0zm1.484375 -8.484375q0 1.859375 0.75 2.765625q0.765625 0.890625 1.828125 0.890625q1.09375 0 1.875 -0.921875q0.78125 -0.9375 0.78125 -2.875q0 -1.84375 -0.765625 -2.765625q-0.75 -0.921875 -1.8125 -0.921875q-1.046875 0 -1.859375 0.984375q-0.796875 0.96875 -0.796875 2.84375zm8.844421 4.78125l0 -13.359375l1.640625 0l0 13.359375l-1.640625 0zm4.1917114 -11.46875l0 -1.890625l1.640625 0l0 1.890625l-1.640625 0zm0 11.46875l0 -9.671875l1.640625 0l0 9.671875l-1.640625 0zm10.457336 -3.546875l1.609375 0.21875q-0.265625 1.65625 -1.359375 2.609375q-1.078125 0.9375 -2.671875 0.9375q-1.984375 0 -3.1875 -1.296875q-1.203125 -1.296875 -1.203125 -3.71875q0 -1.578125 0.515625 -2.75q0.515625 -1.171875 1.578125 -1.75q1.0625 -0.59375 2.3125 -0.59375q1.578125 0 2.578125 0.796875q1.0 0.796875 1.28125 2.265625l-1.59375 0.234375q-0.234375 -0.96875 -0.8125 -1.453125q-0.578125 -0.5 -1.390625 -0.5q-1.234375 0 -2.015625 0.890625q-0.78125 0.890625 -0.78125 2.8125q0 1.953125 0.75 2.84375q0.75 0.875 1.953125 0.875q0.96875 0 1.609375 -0.59375q0.65625 -0.59375 0.828125 -1.828125zm9.328125 2.359375q-0.921875 0.765625 -1.765625 1.09375q-0.828125 0.3125 -1.796875 0.3125q-1.59375 0 -2.453125 -0.78125q-0.859375 -0.78125 -0.859375 -1.984375q0 -0.71875 0.328125 -1.296875q0.328125 -0.59375 0.84375 -0.9375q0.53125 -0.359375 1.1875 -0.546875q0.46875 -0.125 1.453125 -0.25q1.984375 -0.234375 2.921875 -0.5625q0.015625 -0.34375 0.015625 -0.421875q0 -1.0 -0.46875 -1.421875q-0.625 -0.546875 -1.875 -0.546875q-1.15625 0 -1.703125 0.40625q-0.546875 0.40625 -0.8125 1.421875l-1.609375 -0.21875q0.21875 -1.015625 0.71875 -1.640625q0.5 -0.640625 1.453125 -0.984375q0.953125 -0.34375 2.1875 -0.34375q1.25 0 2.015625 0.296875q0.78125 0.28125 1.140625 0.734375q0.375 0.4375 0.515625 1.109375q0.078125 0.421875 0.078125 1.515625l0 2.1875q0 2.28125 0.109375 2.890625q0.109375 0.59375 0.40625 1.15625l-1.703125 0q-0.265625 -0.515625 -0.328125 -1.1875zm-0.140625 -3.671875q-0.890625 0.375 -2.671875 0.625q-1.015625 0.140625 -1.4375 0.328125q-0.421875 0.1875 -0.65625 0.53125q-0.21875 0.34375 -0.21875 0.78125q0 0.65625 0.5 1.09375q0.5 0.4375 1.453125 0.4375q0.9375 0 1.671875 -0.40625q0.75 -0.421875 1.09375 -1.140625q0.265625 -0.5625 0.265625 -1.640625l0 -0.609375zm7.7819824 3.390625l0.234375 1.453125q-0.6875 0.140625 -1.234375 0.140625q-0.890625 0 -1.390625 -0.28125q-0.484375 -0.28125 -0.6875 -0.734375q-0.203125 -0.46875 -0.203125 -1.9375l0 -5.578125l-1.203125 0l0 -1.265625l1.203125 0l0 -2.390625l1.625 -0.984375l0 3.375l1.65625 0l0 1.265625l-1.65625 0l0 5.671875q0 0.6875 0.078125 0.890625q0.09375 0.203125 0.28125 0.328125q0.203125 0.109375 0.578125 0.109375q0.265625 0 0.71875 -0.0625zm1.6051636 -10.0l0 -1.890625l1.640625 0l0 1.890625l-1.640625 0zm0 11.46875l0 -9.671875l1.640625 0l0 9.671875l-1.640625 0zm3.5354614 -4.84375q0 -2.6875 1.484375 -3.96875q1.25 -1.078125 3.046875 -1.078125q2.0 0 3.265625 1.3125q1.265625 1.296875 1.265625 3.609375q0 1.859375 -0.5625 2.9375q-0.5625 1.0625 -1.640625 1.65625q-1.0625 0.59375 -2.328125 0.59375q-2.03125 0 -3.28125 -1.296875q-1.25 -1.3125 -1.25 -3.765625zm1.6875 0q0 1.859375 0.796875 2.796875q0.8125 0.921875 2.046875 0.921875q1.21875 0 2.03125 -0.921875q0.8125 -0.9375 0.8125 -2.84375q0 -1.796875 -0.8125 -2.71875q-0.8125 -0.921875 -2.03125 -0.921875q-1.234375 0 -2.046875 0.921875q-0.796875 0.90625 -0.796875 2.765625zm9.297546 4.84375l0 -9.671875l1.46875 0l0 1.375q1.0625 -1.59375 3.078125 -1.59375q0.875 0 1.609375 0.3125q0.734375 0.3125 1.09375 0.828125q0.375 0.5 0.515625 1.203125q0.09375 0.453125 0.09375 1.59375l0 5.953125l-1.640625 0l0 -5.890625q0 -1.0 -0.203125 -1.484375q-0.1875 -0.5 -0.671875 -0.796875q-0.484375 -0.296875 -1.140625 -0.296875q-1.046875 0 -1.8125 0.671875q-0.75 0.65625 -0.75 2.515625l0 5.28125l-1.640625 0z" fill-rule="nonzero"/><path fill="#d9d9d9" d="m680.063 485.43045l0 0c0 -21.81308 17.682983 -39.496063 39.496094 -39.496063l0 0c10.474976 0 20.520935 4.1611633 27.927917 11.568115c7.4069214 7.406952 11.568115 17.452942 11.568115 27.927948l0 0c0 21.81308 -17.682983 39.496063 -39.496033 39.496063l0 0c-21.81311 0 -39.496094 -17.682983 -39.496094 -39.496063z" fill-rule="evenodd"/><path stroke="#ffffff" stroke-width="1.0" stroke-linejoin="round" stroke-linecap="butt" d="m680.063 485.43045l0 0c0 -21.81308 17.682983 -39.496063 39.496094 -39.496063l0 0c10.474976 0 20.520935 4.1611633 27.927917 11.568115c7.4069214 7.406952 11.568115 17.452942 11.568115 27.927948l0 0c0 21.81308 -17.682983 39.496063 -39.496033 39.496063l0 0c-21.81311 0 -39.496094 -17.682983 -39.496094 -39.496063z" fill-rule="evenodd"/><path fill="#000000" d="m705.5061 491.57043l-4.796875 -12.40625l1.78125 0l3.21875 9.015625q0.390625 1.078125 0.65625 2.03125q0.28125 -1.015625 0.65625 -2.03125l3.359375 -9.015625l1.671875 0l-4.859375 12.40625l-1.6875 0zm13.023254 -2.890625l1.5625 0.1875q-0.359375 1.390625 -1.375 2.15625q-1.0 0.75 -2.5625 0.75q-1.984375 0 -3.140625 -1.203125q-1.140625 -1.21875 -1.140625 -3.421875q0 -2.265625 1.15625 -3.515625q1.171875 -1.25 3.03125 -1.25q1.8125 0 2.953125 1.234375q1.140625 1.21875 1.140625 3.4375q0 0.140625 -0.015625 0.40625l-6.703125 0q0.09375 1.484375 0.84375 2.28125q0.75 0.78125 1.875 0.78125q0.84375 0 1.4375 -0.4375q0.59375 -0.4375 0.9375 -1.40625zm-5.0 -2.46875l5.015625 0q-0.109375 -1.125 -0.578125 -1.703125q-0.734375 -0.875 -1.890625 -0.875q-1.046875 0 -1.765625 0.703125q-0.703125 0.703125 -0.78125 1.875zm11.80896 4.0l0.21875 1.34375q-0.640625 0.140625 -1.15625 0.140625q-0.828125 0 -1.28125 -0.265625q-0.453125 -0.265625 -0.640625 -0.6875q-0.1875 -0.4375 -0.1875 -1.796875l0 -5.171875l-1.125 0l0 -1.1875l1.125 0l0 -2.21875l1.515625 -0.921875l0 3.140625l1.53125 0l0 1.1875l-1.53125 0l0 5.25q0 0.65625 0.078125 0.84375q0.078125 0.1875 0.25 0.296875q0.1875 0.109375 0.53125 0.109375q0.25 0 0.671875 -0.0625zm1.486206 1.359375l0 -12.40625l1.53125 0l0 4.453125q1.0625 -1.234375 2.6875 -1.234375q1.0 0 1.734375 0.390625q0.734375 0.390625 1.046875 1.09375q0.328125 0.6875 0.328125 2.015625l0 5.6875l-1.53125 0l0 -5.6875q0 -1.15625 -0.5 -1.671875q-0.484375 -0.515625 -1.390625 -0.515625q-0.6875 0 -1.28125 0.359375q-0.59375 0.34375 -0.84375 0.953125q-0.25 0.59375 -0.25 1.640625l0 4.921875l-1.53125 0z" fill-rule="nonzero"/><path fill="#000000" fill-opacity="0.0" d="m719.5591 413.33072l0 32.59842" fill-rule="evenodd"/><path stroke="#000000" stroke-width="1.0" stroke-linejoin="round" stroke-linecap="butt" d="m719.5591 419.33072l0 20.59842" fill-rule="evenodd"/><path fill="#000000" stroke="#000000" stroke-width="1.0" stroke-linecap="butt" d="m721.2108 419.33072l-1.6517334 -4.5381165l-1.6517334 4.5381165z" fill-rule="evenodd"/><path fill="#000000" stroke="#000000" stroke-width="1.0" stroke-linecap="butt" d="m717.90735 439.92914l1.6517334 4.538086l1.6517334 -4.538086z" fill-rule="evenodd"/><path fill="#000000" fill-opacity="0.0" d="m463.34647 524.65094l0 25.275574l256.2205 0l0 -24.992126" fill-rule="evenodd"/><path stroke="#000000" stroke-width="1.0" stroke-linejoin="round" stroke-linecap="butt" d="m463.34647 530.65094l0 19.275574l256.2205 0l0 -18.992126" fill-rule="evenodd"/><path fill="#000000" stroke="#000000" stroke-width="1.0" stroke-linecap="butt" d="m464.9982 530.65094l-1.6517334 -4.538147l-1.6517334 4.538147z" fill-rule="evenodd"/><path fill="#000000" stroke="#000000" stroke-width="1.0" stroke-linecap="butt" d="m721.2187 530.9344l-1.6517334 -4.538086l-1.6517334 4.538086z" fill-rule="evenodd"/><path fill="#000000" fill-opacity="0.0" d="m691.4278 38.52231l56.094543 0l0 42.015747l-56.094543 0z" fill-rule="evenodd"/><path fill="#000000" d="m701.7872 65.44231l0 -13.359375l4.328125 0q2.453125 0 3.203125 0.203125q1.140625 0.296875 1.921875 1.3125q0.78125 1.0 0.78125 2.59375q0 1.234375 -0.453125 2.078125q-0.453125 0.828125 -1.140625 1.3125q-0.6875 0.46875 -1.390625 0.625q-0.96875 0.203125 -2.796875 0.203125l-1.765625 0l0 5.03125l-2.6875 0zm2.6875 -11.09375l0 3.78125l1.484375 0q1.59375 0 2.125 -0.203125q0.546875 -0.203125 0.84375 -0.65625q0.3125 -0.453125 0.3125 -1.03125q0 -0.734375 -0.4375 -1.203125q-0.421875 -0.484375 -1.078125 -0.59375q-0.484375 -0.09375 -1.9375 -0.09375l-1.3125 0zm9.1467285 6.125q0 -1.28125 0.625 -2.46875q0.625 -1.203125 1.78125 -1.828125q1.15625 -0.625 2.578125 -0.625q2.1875 0 3.59375 1.421875q1.40625 1.421875 1.40625 3.609375q0 2.1875 -1.421875 3.640625q-1.421875 1.4375 -3.5625 1.4375q-1.328125 0 -2.546875 -0.59375q-1.203125 -0.609375 -1.828125 -1.765625q-0.625 -1.171875 -0.625 -2.828125zm2.625 0.125q0 1.453125 0.671875 2.21875q0.6875 0.75 1.6875 0.75q1.0 0 1.671875 -0.75q0.6875 -0.765625 0.6875 -2.234375q0 -1.421875 -0.6875 -2.1875q-0.671875 -0.765625 -1.671875 -0.765625q-1.0 0 -1.6875 0.765625q-0.671875 0.765625 -0.671875 2.203125zm18.239746 4.84375l-2.390625 0l0 -1.421875q-0.59375 0.828125 -1.40625 1.234375q-0.796875 0.40625 -1.609375 0.40625q-1.671875 0 -2.859375 -1.34375q-1.1875 -1.34375 -1.1875 -3.75q0 -2.453125 1.15625 -3.734375q1.15625 -1.28125 2.921875 -1.28125q1.625 0 2.8125 1.34375l0 -4.8125l2.5625 0l0 13.359375zm-6.84375 -5.046875q0 1.546875 0.4375 2.234375q0.609375 1.015625 1.71875 1.015625q0.890625 0 1.5 -0.75q0.625 -0.765625 0.625 -2.25q0 -1.671875 -0.609375 -2.40625q-0.59375 -0.734375 -1.53125 -0.734375q-0.90625 0 -1.53125 0.734375q-0.609375 0.71875 -0.609375 2.15625z" fill-rule="nonzero"/><path fill="#000000" fill-opacity="0.0" d="m169.83464 38.52231l321.6693 0l0 42.015747l-321.6693 0z" fill-rule="evenodd"/><path fill="#000000" d="m221.22928 65.44231l0 -13.359375l1.765625 0l0 5.484375l6.9375 0l0 -5.484375l1.765625 0l0 13.359375l-1.765625 0l0 -6.296875l-6.9375 0l0 6.296875l-1.765625 0zm12.597946 -4.84375q0 -2.6875 1.484375 -3.96875q1.25 -1.078125 3.046875 -1.078125q2.0 0 3.265625 1.3125q1.265625 1.296875 1.265625 3.609375q0 1.859375 -0.5625 2.9375q-0.5625 1.0625 -1.640625 1.65625q-1.0625 0.59375 -2.328125 0.59375q-2.03125 0 -3.28125 -1.296875q-1.25 -1.3125 -1.25 -3.765625zm1.6875 0q0 1.859375 0.796875 2.796875q0.8125 0.921875 2.046875 0.921875q1.21875 0 2.03125 -0.921875q0.8125 -0.9375 0.8125 -2.84375q0 -1.796875 -0.8125 -2.71875q-0.8125 -0.921875 -2.03125 -0.921875q-1.234375 0 -2.046875 0.921875q-0.796875 0.90625 -0.796875 2.765625zm8.641342 1.953125l1.625 -0.25q0.125 0.96875 0.75 1.5q0.625 0.515625 1.75 0.515625q1.125 0 1.671875 -0.453125q0.546875 -0.46875 0.546875 -1.09375q0 -0.546875 -0.484375 -0.875q-0.328125 -0.21875 -1.671875 -0.546875q-1.8125 -0.46875 -2.515625 -0.796875q-0.6875 -0.328125 -1.046875 -0.90625q-0.359375 -0.59375 -0.359375 -1.3125q0 -0.640625 0.296875 -1.1875q0.296875 -0.5625 0.8125 -0.921875q0.375 -0.28125 1.03125 -0.46875q0.671875 -0.203125 1.421875 -0.203125q1.140625 0 2.0 0.328125q0.859375 0.328125 1.265625 0.890625q0.421875 0.5625 0.578125 1.5l-1.609375 0.21875q-0.109375 -0.75 -0.640625 -1.171875q-0.515625 -0.421875 -1.46875 -0.421875q-1.140625 0 -1.625 0.375q-0.46875 0.375 -0.46875 0.875q0 0.3125 0.1875 0.578125q0.203125 0.265625 0.640625 0.4375q0.234375 0.09375 1.4375 0.421875q1.75 0.453125 2.4375 0.75q0.6875 0.296875 1.078125 0.859375q0.390625 0.5625 0.390625 1.40625q0 0.828125 -0.484375 1.546875q-0.46875 0.71875 -1.375 1.125q-0.90625 0.390625 -2.046875 0.390625q-1.875 0 -2.875 -0.78125q-0.984375 -0.78125 -1.25 -2.328125zm13.5625 1.421875l0.234375 1.453125q-0.6875 0.140625 -1.234375 0.140625q-0.890625 0 -1.390625 -0.28125q-0.484375 -0.28125 -0.6875 -0.734375q-0.203125 -0.46875 -0.203125 -1.9375l0 -5.578125l-1.203125 0l0 -1.265625l1.203125 0l0 -2.390625l1.625 -0.984375l0 3.375l1.65625 0l0 1.265625l-1.65625 0l0 5.671875q0 0.6875 0.078125 0.890625q0.09375 0.203125 0.28125 0.328125q0.203125 0.109375 0.578125 0.109375q0.265625 0 0.71875 -0.0625zm12.159271 1.46875l0 -13.359375l1.8125 0l7.015625 10.484375l0 -10.484375l1.6875 0l0 13.359375l-1.8125 0l-7.015625 -10.5l0 10.5l-1.6875 0zm19.910461 -3.109375l1.6875 0.203125q-0.40625 1.484375 -1.484375 2.3125q-1.078125 0.8125 -2.765625 0.8125q-2.125 0 -3.375 -1.296875q-1.234375 -1.3125 -1.234375 -3.671875q0 -2.453125 1.25 -3.796875q1.265625 -1.34375 3.265625 -1.34375q1.9375 0 3.15625 1.328125q1.234375 1.3125 1.234375 3.703125q0 0.15625 0 0.4375l-7.21875 0q0.09375 1.59375 0.90625 2.453125q0.8125 0.84375 2.015625 0.84375q0.90625 0 1.546875 -0.46875q0.640625 -0.484375 1.015625 -1.515625zm-5.390625 -2.65625l5.40625 0q-0.109375 -1.21875 -0.625 -1.828125q-0.78125 -0.953125 -2.03125 -0.953125q-1.125 0 -1.90625 0.765625q-0.765625 0.75 -0.84375 2.015625zm12.719452 4.296875l0.234375 1.453125q-0.6875 0.140625 -1.234375 0.140625q-0.890625 0 -1.390625 -0.28125q-0.484375 -0.28125 -0.6875 -0.734375q-0.203125 -0.46875 -0.203125 -1.9375l0 -5.578125l-1.203125 0l0 -1.265625l1.203125 0l0 -2.390625l1.625 -0.984375l0 3.375l1.65625 0l0 1.265625l-1.65625 0l0 5.671875q0 0.6875 0.078125 0.890625q0.09375 0.203125 0.28125 0.328125q0.203125 0.109375 0.578125 0.109375q0.265625 0 0.71875 -0.0625zm3.386444 1.46875l-2.96875 -9.671875l1.703125 0l1.53125 5.578125l0.578125 2.078125q0.046875 -0.15625 0.5 -2.0l1.546875 -5.65625l1.6875 0l1.4375 5.609375l0.484375 1.84375l0.5625 -1.859375l1.65625 -5.59375l1.59375 0l-3.03125 9.671875l-1.703125 0l-1.53125 -5.796875l-0.375 -1.640625l-1.953125 7.4375l-1.71875 0zm11.082336 -4.84375q0 -2.6875 1.484375 -3.96875q1.25 -1.078125 3.046875 -1.078125q2.0 0 3.265625 1.3125q1.265625 1.296875 1.265625 3.609375q0 1.859375 -0.5625 2.9375q-0.5625 1.0625 -1.640625 1.65625q-1.0625 0.59375 -2.328125 0.59375q-2.03125 0 -3.28125 -1.296875q-1.25 -1.3125 -1.25 -3.765625zm1.6875 0q0 1.859375 0.796875 2.796875q0.8125 0.921875 2.046875 0.921875q1.21875 0 2.03125 -0.921875q0.8125 -0.9375 0.8125 -2.84375q0 -1.796875 -0.8125 -2.71875q-0.8125 -0.921875 -2.03125 -0.921875q-1.234375 0 -2.046875 0.921875q-0.796875 0.90625 -0.796875 2.765625zm9.281952 4.84375l0 -9.671875l1.46875 0l0 1.46875q0.5625 -1.03125 1.03125 -1.359375q0.484375 -0.328125 1.0625 -0.328125q0.828125 0 1.6875 0.53125l-0.5625 1.515625q-0.609375 -0.359375 -1.203125 -0.359375q-0.546875 0 -0.96875 0.328125q-0.421875 0.328125 -0.609375 0.890625q-0.28125 0.875 -0.28125 1.921875l0 5.0625l-1.625 0zm6.228302 0l0 -13.359375l1.640625 0l0 7.625l3.890625 -3.9375l2.109375 0l-3.6875 3.59375l4.0625 6.078125l-2.015625 0l-3.203125 -4.953125l-1.15625 1.125l0 3.828125l-1.640625 0zm14.698944 0l0 -13.359375l1.8125 0l7.015625 10.484375l0 -10.484375l1.6875 0l0 13.359375l-1.8125 0l-7.015625 -10.5l0 10.5l-1.6875 0zm19.59793 -1.1875q-0.921875 0.765625 -1.765625 1.09375q-0.828125 0.3125 -1.796875 0.3125q-1.59375 0 -2.453125 -0.78125q-0.859375 -0.78125 -0.859375 -1.984375q0 -0.71875 0.328125 -1.296875q0.328125 -0.59375 0.84375 -0.9375q0.53125 -0.359375 1.1875 -0.546875q0.46875 -0.125 1.453125 -0.25q1.984375 -0.234375 2.921875 -0.5625q0.015625 -0.34375 0.015625 -0.421875q0 -1.0 -0.46875 -1.421875q-0.625 -0.546875 -1.875 -0.546875q-1.15625 0 -1.703125 0.40625q-0.546875 0.40625 -0.8125 1.421875l-1.609375 -0.21875q0.21875 -1.015625 0.71875 -1.640625q0.5 -0.640625 1.453125 -0.984375q0.953125 -0.34375 2.1875 -0.34375q1.25 0 2.015625 0.296875q0.78125 0.28125 1.140625 0.734375q0.375 0.4375 0.515625 1.109375q0.078125 0.421875 0.078125 1.515625l0 2.1875q0 2.28125 0.109375 2.890625q0.109375 0.59375 0.40625 1.15625l-1.703125 0q-0.265625 -0.515625 -0.328125 -1.1875zm-0.140625 -3.671875q-0.890625 0.375 -2.671875 0.625q-1.015625 0.140625 -1.4375 0.328125q-0.421875 0.1875 -0.65625 0.53125q-0.21875 0.34375 -0.21875 0.78125q0 0.65625 0.5 1.09375q0.5 0.4375 1.453125 0.4375q0.9375 0 1.671875 -0.40625q0.75 -0.421875 1.09375 -1.140625q0.265625 -0.5625 0.265625 -1.640625l0 -0.609375zm4.2038574 4.859375l0 -9.671875l1.46875 0l0 1.359375q0.453125 -0.71875 1.203125 -1.140625q0.765625 -0.4375 1.71875 -0.4375q1.078125 0 1.765625 0.453125q0.6875 0.4375 0.96875 1.234375q1.15625 -1.6875 2.984375 -1.6875q1.453125 0 2.21875 0.796875q0.78125 0.796875 0.78125 2.453125l0 6.640625l-1.640625 0l0 -6.09375q0 -0.984375 -0.15625 -1.40625q-0.15625 -0.4375 -0.578125 -0.703125q-0.421875 -0.265625 -0.984375 -0.265625q-1.015625 0 -1.6875 0.6875q-0.671875 0.671875 -0.671875 2.15625l0 5.625l-1.640625 0l0 -6.28125q0 -1.09375 -0.40625 -1.640625q-0.40625 -0.546875 -1.3125 -0.546875q-0.6875 0 -1.28125 0.359375q-0.59375 0.359375 -0.859375 1.0625q-0.25 0.703125 -0.25 2.03125l0 5.015625l-1.640625 0zm22.165802 -3.109375l1.6875 0.203125q-0.40625 1.484375 -1.484375 2.3125q-1.078125 0.8125 -2.765625 0.8125q-2.125 0 -3.375 -1.296875q-1.234375 -1.3125 -1.234375 -3.671875q0 -2.453125 1.25 -3.796875q1.265625 -1.34375 3.265625 -1.34375q1.9375 0 3.15625 1.328125q1.234375 1.3125 1.234375 3.703125q0 0.15625 0 0.4375l-7.21875 0q0.09375 1.59375 0.90625 2.453125q0.8125 0.84375 2.015625 0.84375q0.90625 0 1.546875 -0.46875q0.640625 -0.484375 1.015625 -1.515625zm-5.390625 -2.65625l5.40625 0q-0.109375 -1.21875 -0.625 -1.828125q-0.78125 -0.953125 -2.03125 -0.953125q-1.125 0 -1.90625 0.765625q-0.765625 0.75 -0.84375 2.015625zm8.485077 2.875l1.625 -0.25q0.125 0.96875 0.75 1.5q0.625 0.515625 1.75 0.515625q1.125 0 1.671875 -0.453125q0.546875 -0.46875 0.546875 -1.09375q0 -0.546875 -0.484375 -0.875q-0.328125 -0.21875 -1.671875 -0.546875q-1.8125 -0.46875 -2.515625 -0.796875q-0.6875 -0.328125 -1.046875 -0.90625q-0.359375 -0.59375 -0.359375 -1.3125q0 -0.640625 0.296875 -1.1875q0.296875 -0.5625 0.8125 -0.921875q0.375 -0.28125 1.03125 -0.46875q0.671875 -0.203125 1.421875 -0.203125q1.140625 0 2.0 0.328125q0.859375 0.328125 1.265625 0.890625q0.421875 0.5625 0.578125 1.5l-1.609375 0.21875q-0.109375 -0.75 -0.640625 -1.171875q-0.515625 -0.421875 -1.46875 -0.421875q-1.140625 0 -1.625 0.375q-0.46875 0.375 -0.46875 0.875q0 0.3125 0.1875 0.578125q0.203125 0.265625 0.640625 0.4375q0.234375 0.09375 1.4375 0.421875q1.75 0.453125 2.4375 0.75q0.6875 0.296875 1.078125 0.859375q0.390625 0.5625 0.390625 1.40625q0 0.828125 -0.484375 1.546875q-0.46875 0.71875 -1.375 1.125q-0.90625 0.390625 -2.046875 0.390625q-1.875 0 -2.875 -0.78125q-0.984375 -0.78125 -1.25 -2.328125zm9.984375 6.59375l0 -13.375l1.484375 0l0 1.25q0.53125 -0.734375 1.1875 -1.09375q0.671875 -0.375 1.625 -0.375q1.234375 0 2.171875 0.640625q0.953125 0.625 1.4375 1.796875q0.484375 1.15625 0.484375 2.546875q0 1.484375 -0.53125 2.671875q-0.53125 1.1875 -1.546875 1.828125q-1.015625 0.625 -2.140625 0.625q-0.8125 0 -1.46875 -0.34375q-0.65625 -0.34375 -1.0625 -0.875l0 4.703125l-1.640625 0zm1.484375 -8.484375q0 1.859375 0.75 2.765625q0.765625 0.890625 1.828125 0.890625q1.09375 0 1.875 -0.921875q0.78125 -0.9375 0.78125 -2.875q0 -1.84375 -0.765625 -2.765625q-0.75 -0.921875 -1.8125 -0.921875q-1.046875 0 -1.859375 0.984375q-0.796875 0.96875 -0.796875 2.84375zm15.203857 3.59375q-0.921875 0.765625 -1.765625 1.09375q-0.828125 0.3125 -1.796875 0.3125q-1.59375 0 -2.453125 -0.78125q-0.859375 -0.78125 -0.859375 -1.984375q0 -0.71875 0.328125 -1.296875q0.328125 -0.59375 0.84375 -0.9375q0.53125 -0.359375 1.1875 -0.546875q0.46875 -0.125 1.453125 -0.25q1.984375 -0.234375 2.921875 -0.5625q0.015625 -0.34375 0.015625 -0.421875q0 -1.0 -0.46875 -1.421875q-0.625 -0.546875 -1.875 -0.546875q-1.15625 0 -1.703125 0.40625q-0.546875 0.40625 -0.8125 1.421875l-1.609375 -0.21875q0.21875 -1.015625 0.71875 -1.640625q0.5 -0.640625 1.453125 -0.984375q0.953125 -0.34375 2.1875 -0.34375q1.25 0 2.015625 0.296875q0.78125 0.28125 1.140625 0.734375q0.375 0.4375 0.515625 1.109375q0.078125 0.421875 0.078125 1.515625l0 2.1875q0 2.28125 0.109375 2.890625q0.109375 0.59375 0.40625 1.15625l-1.703125 0q-0.265625 -0.515625 -0.328125 -1.1875zm-0.140625 -3.671875q-0.890625 0.375 -2.671875 0.625q-1.015625 0.140625 -1.4375 0.328125q-0.421875 0.1875 -0.65625 0.53125q-0.21875 0.34375 -0.21875 0.78125q0 0.65625 0.5 1.09375q0.5 0.4375 1.453125 0.4375q0.9375 0 1.671875 -0.40625q0.75 -0.421875 1.09375 -1.140625q0.265625 -0.5625 0.265625 -1.640625l0 -0.609375zm10.516327 1.3125l1.609375 0.21875q-0.265625 1.65625 -1.359375 2.609375q-1.078125 0.9375 -2.671875 0.9375q-1.984375 0 -3.1875 -1.296875q-1.203125 -1.296875 -1.203125 -3.71875q0 -1.578125 0.515625 -2.75q0.515625 -1.171875 1.578125 -1.75q1.0625 -0.59375 2.3125 -0.59375q1.578125 0 2.578125 0.796875q1.0 0.796875 1.28125 2.265625l-1.59375 0.234375q-0.234375 -0.96875 -0.8125 -1.453125q-0.578125 -0.5 -1.390625 -0.5q-1.234375 0 -2.015625 0.890625q-0.78125 0.890625 -0.78125 2.8125q0 1.953125 0.75 2.84375q0.75 0.875 1.953125 0.875q0.96875 0 1.609375 -0.59375q0.65625 -0.59375 0.828125 -1.828125zm9.640625 0.4375l1.6875 0.203125q-0.40625 1.484375 -1.484375 2.3125q-1.078125 0.8125 -2.765625 0.8125q-2.125 0 -3.375 -1.296875q-1.234375 -1.3125 -1.234375 -3.671875q0 -2.453125 1.25 -3.796875q1.265625 -1.34375 3.265625 -1.34375q1.9375 0 3.15625 1.328125q1.234375 1.3125 1.234375 3.703125q0 0.15625 0 0.4375l-7.21875 0q0.09375 1.59375 0.90625 2.453125q0.8125 0.84375 2.015625 0.84375q0.90625 0 1.546875 -0.46875q0.640625 -0.484375 1.015625 -1.515625zm-5.390625 -2.65625l5.40625 0q-0.109375 -1.21875 -0.625 -1.828125q-0.78125 -0.953125 -2.03125 -0.953125q-1.125 0 -1.90625 0.765625q-0.765625 0.75 -0.84375 2.015625z" fill-rule="nonzero"/><path fill="#ffffff" d="m824.8845 38.79523l167.1181 0l0 522.77167l-167.1181 0z" fill-rule="evenodd"/><path stroke="#000000" stroke-width="1.0" stroke-linejoin="round" stroke-linecap="butt" d="m824.8845 38.79523l167.1181 0l0 522.77167l-167.1181 0z" fill-rule="evenodd"/><path fill="#f3f3f3" d="m834.1181 152.63911l148.81891 0l0 260.97638l-148.81891 0z" fill-rule="evenodd"/><path stroke="#ffffff" stroke-width="1.0" stroke-linejoin="round" stroke-linecap="butt" d="m834.1181 152.63911l148.81891 0l0 260.97638l-148.81891 0z" fill-rule="evenodd"/><path fill="#000000" d="m844.3525 290.0473l0 -9.671875l1.46875 0l0 1.375q1.0625 -1.59375 3.078125 -1.59375q0.875 0 1.609375 0.3125q0.734375 0.3125 1.09375 0.828125q0.375 0.5 0.515625 1.203125q0.09375 0.453125 0.09375 1.59375l0 5.953125l-1.640625 0l0 -5.890625q0 -1.0 -0.203125 -1.484375q-0.1875 -0.5 -0.671875 -0.796875q-0.484375 -0.296875 -1.140625 -0.296875q-1.046875 0 -1.8125 0.671875q-0.75 0.65625 -0.75 2.515625l0 5.28125l-1.640625 0zm17.000732 -3.109375l1.6875 0.203125q-0.40625 1.484375 -1.484375 2.3125q-1.078125 0.8125 -2.765625 0.8125q-2.125 0 -3.375 -1.296875q-1.234375 -1.3125 -1.234375 -3.671875q0 -2.453125 1.25 -3.796875q1.265625 -1.34375 3.265625 -1.34375q1.9375 0 3.15625 1.328125q1.234375 1.3125 1.234375 3.703125q0 0.15625 0 0.4375l-7.21875 0q0.09375 1.59375 0.90625 2.453125q0.8125 0.84375 2.015625 0.84375q0.90625 0 1.546875 -0.46875q0.640625 -0.484375 1.015625 -1.515625zm-5.390625 -2.65625l5.40625 0q-0.109375 -1.21875 -0.625 -1.828125q-0.78125 -0.953125 -2.03125 -0.953125q-1.125 0 -1.90625 0.765625q-0.765625 0.75 -0.84375 2.015625zm12.719482 4.296875l0.234375 1.453125q-0.6875 0.140625 -1.234375 0.140625q-0.890625 0 -1.390625 -0.28125q-0.484375 -0.28125 -0.6875 -0.734375q-0.203125 -0.46875 -0.203125 -1.9375l0 -5.578125l-1.203125 0l0 -1.265625l1.203125 0l0 -2.390625l1.625 -0.984375l0 3.375l1.65625 0l0 1.265625l-1.65625 0l0 5.671875q0 0.6875 0.078125 0.890625q0.09375 0.203125 0.28125 0.328125q0.203125 0.109375 0.578125 0.109375q0.265625 0 0.71875 -0.0625zm3.3864136 1.46875l-2.96875 -9.671875l1.703125 0l1.53125 5.578125l0.578125 2.078125q0.046875 -0.15625 0.5 -2.0l1.546875 -5.65625l1.6875 0l1.4375 5.609375l0.484375 1.84375l0.5625 -1.859375l1.65625 -5.59375l1.59375 0l-3.03125 9.671875l-1.703125 0l-1.53125 -5.796875l-0.375 -1.640625l-1.953125 7.4375l-1.71875 0zm11.082336 -4.84375q0 -2.6875 1.484375 -3.96875q1.25 -1.078125 3.046875 -1.078125q2.0 0 3.265625 1.3125q1.265625 1.296875 1.265625 3.609375q0 1.859375 -0.5625 2.9375q-0.5625 1.0625 -1.640625 1.65625q-1.0625 0.59375 -2.328125 0.59375q-2.03125 0 -3.28125 -1.296875q-1.25 -1.3125 -1.25 -3.765625zm1.6875 0q0 1.859375 0.796875 2.796875q0.8125 0.921875 2.046875 0.921875q1.21875 0 2.03125 -0.921875q0.8125 -0.9375 0.8125 -2.84375q0 -1.796875 -0.8125 -2.71875q-0.8125 -0.921875 -2.03125 -0.921875q-1.234375 0 -2.046875 0.921875q-0.796875 0.90625 -0.796875 2.765625zm9.281921 4.84375l0 -9.671875l1.46875 0l0 1.46875q0.5625 -1.03125 1.03125 -1.359375q0.484375 -0.328125 1.0625 -0.328125q0.828125 0 1.6875 0.53125l-0.5625 1.515625q-0.609375 -0.359375 -1.203125 -0.359375q-0.546875 0 -0.96875 0.328125q-0.421875 0.328125 -0.609375 0.890625q-0.28125 0.875 -0.28125 1.921875l0 5.0625l-1.625 0zm6.2283325 0l0 -13.359375l1.640625 0l0 7.625l3.890625 -3.9375l2.109375 0l-3.6875 3.59375l4.0625 6.078125l-2.015625 0l-3.203125 -4.953125l-1.15625 1.125l0 3.828125l-1.640625 0zm13.855164 -2.890625l1.625 -0.25q0.125 0.96875 0.75 1.5q0.625 0.515625 1.75 0.515625q1.125 0 1.671875 -0.453125q0.546875 -0.46875 0.546875 -1.09375q0 -0.546875 -0.484375 -0.875q-0.328125 -0.21875 -1.671875 -0.546875q-1.8125 -0.46875 -2.515625 -0.796875q-0.6875 -0.328125 -1.046875 -0.90625q-0.359375 -0.59375 -0.359375 -1.3125q0 -0.640625 0.296875 -1.1875q0.296875 -0.5625 0.8125 -0.921875q0.375 -0.28125 1.03125 -0.46875q0.671875 -0.203125 1.421875 -0.203125q1.140625 0 2.0 0.328125q0.859375 0.328125 1.265625 0.890625q0.421875 0.5625 0.578125 1.5l-1.609375 0.21875q-0.109375 -0.75 -0.640625 -1.171875q-0.515625 -0.421875 -1.46875 -0.421875q-1.140625 0 -1.625 0.375q-0.46875 0.375 -0.46875 0.875q0 0.3125 0.1875 0.578125q0.203125 0.265625 0.640625 0.4375q0.234375 0.09375 1.4375 0.421875q1.75 0.453125 2.4375 0.75q0.6875 0.296875 1.078125 0.859375q0.390625 0.5625 0.390625 1.40625q0 0.828125 -0.484375 1.546875q-0.46875 0.71875 -1.375 1.125q-0.90625 0.390625 -2.046875 0.390625q-1.875 0 -2.875 -0.78125q-0.984375 -0.78125 -1.25 -2.328125zm13.5625 1.421875l0.234375 1.453125q-0.6875 0.140625 -1.234375 0.140625q-0.890625 0 -1.390625 -0.28125q-0.484375 -0.28125 -0.6875 -0.734375q-0.203125 -0.46875 -0.203125 -1.9375l0 -5.578125l-1.203125 0l0 -1.265625l1.203125 0l0 -2.390625l1.625 -0.984375l0 3.375l1.65625 0l0 1.265625l-1.65625 0l0 5.671875q0 0.6875 0.078125 0.890625q0.09375 0.203125 0.28125 0.328125q0.203125 0.109375 0.578125 0.109375q0.265625 0 0.71875 -0.0625zm7.9176636 0.28125q-0.921875 0.765625 -1.765625 1.09375q-0.828125 0.3125 -1.796875 0.3125q-1.59375 0 -2.453125 -0.78125q-0.859375 -0.78125 -0.859375 -1.984375q0 -0.71875 0.328125 -1.296875q0.328125 -0.59375 0.84375 -0.9375q0.53125 -0.359375 1.1875 -0.546875q0.46875 -0.125 1.453125 -0.25q1.984375 -0.234375 2.921875 -0.5625q0.015625 -0.34375 0.015625 -0.421875q0 -1.0 -0.46875 -1.421875q-0.625 -0.546875 -1.875 -0.546875q-1.15625 0 -1.703125 0.40625q-0.546875 0.40625 -0.8125 1.421875l-1.609375 -0.21875q0.21875 -1.015625 0.71875 -1.640625q0.5 -0.640625 1.453125 -0.984375q0.953125 -0.34375 2.1875 -0.34375q1.25 0 2.015625 0.296875q0.78125 0.28125 1.140625 0.734375q0.375 0.4375 0.515625 1.109375q0.078125 0.421875 0.078125 1.515625l0 2.1875q0 2.28125 0.109375 2.890625q0.109375 0.59375 0.40625 1.15625l-1.703125 0q-0.265625 -0.515625 -0.328125 -1.1875zm-0.140625 -3.671875q-0.890625 0.375 -2.671875 0.625q-1.015625 0.140625 -1.4375 0.328125q-0.421875 0.1875 -0.65625 0.53125q-0.21875 0.34375 -0.21875 0.78125q0 0.65625 0.5 1.09375q0.5 0.4375 1.453125 0.4375q0.9375 0 1.671875 -0.40625q0.75 -0.421875 1.09375 -1.140625q0.265625 -0.5625 0.265625 -1.640625l0 -0.609375zm10.516357 1.3125l1.609375 0.21875q-0.265625 1.65625 -1.359375 2.609375q-1.078125 0.9375 -2.671875 0.9375q-1.984375 0 -3.1875 -1.296875q-1.203125 -1.296875 -1.203125 -3.71875q0 -1.578125 0.515625 -2.75q0.515625 -1.171875 1.578125 -1.75q1.0625 -0.59375 2.3125 -0.59375q1.578125 0 2.578125 0.796875q1.0 0.796875 1.28125 2.265625l-1.59375 0.234375q-0.234375 -0.96875 -0.8125 -1.453125q-0.578125 -0.5 -1.390625 -0.5q-1.234375 0 -2.015625 0.890625q-0.78125 0.890625 -0.78125 2.8125q0 1.953125 0.75 2.84375q0.75 0.875 1.953125 0.875q0.96875 0 1.609375 -0.59375q0.65625 -0.59375 0.828125 -1.828125zm3.015625 3.546875l0 -13.359375l1.640625 0l0 7.625l3.890625 -3.9375l2.109375 0l-3.6875 3.59375l4.0625 6.078125l-2.015625 0l-3.203125 -4.953125l-1.15625 1.125l0 3.828125l-1.640625 0z" fill-rule="nonzero"/><path fill="#b6d7a8" d="m830.3097 90.598404l148.81891 0l0 38.897644l-148.81891 0z" fill-rule="evenodd"/><path stroke="#ffffff" stroke-width="1.0" stroke-linejoin="round" stroke-linecap="butt" d="m830.3097 90.598404l148.81891 0l0 38.897644l-148.81891 0z" fill-rule="evenodd"/><path fill="#000000" d="m859.0539 116.96722l5.125 -13.359375l1.90625 0l5.46875 13.359375l-2.015625 0l-1.546875 -4.046875l-5.59375 0l-1.46875 4.046875l-1.875 0zm3.859375 -5.484375l4.53125 0l-1.40625 -3.703125q-0.625 -1.6875 -0.9375 -2.765625q-0.265625 1.28125 -0.71875 2.546875l-1.46875 3.921875zm9.8497925 9.1875l0 -13.375l1.484375 0l0 1.25q0.53125 -0.734375 1.1875 -1.09375q0.671875 -0.375 1.625 -0.375q1.234375 0 2.171875 0.640625q0.953125 0.625 1.4375 1.796875q0.484375 1.15625 0.484375 2.546875q0 1.484375 -0.53125 2.671875q-0.53125 1.1875 -1.546875 1.828125q-1.015625 0.625 -2.140625 0.625q-0.8125 0 -1.46875 -0.34375q-0.65625 -0.34375 -1.0625 -0.875l0 4.703125l-1.640625 0zm1.484375 -8.484375q0 1.859375 0.75 2.765625q0.765625 0.890625 1.828125 0.890625q1.09375 0 1.875 -0.921875q0.78125 -0.9375 0.78125 -2.875q0 -1.84375 -0.765625 -2.765625q-0.75 -0.921875 -1.8125 -0.921875q-1.046875 0 -1.859375 0.984375q-0.796875 0.96875 -0.796875 2.84375zm8.891357 8.484375l0 -13.375l1.484375 0l0 1.25q0.53125 -0.734375 1.1875 -1.09375q0.671875 -0.375 1.625 -0.375q1.234375 0 2.171875 0.640625q0.953125 0.625 1.4375 1.796875q0.484375 1.15625 0.484375 2.546875q0 1.484375 -0.53125 2.671875q-0.53125 1.1875 -1.546875 1.828125q-1.015625 0.625 -2.140625 0.625q-0.8125 0 -1.46875 -0.34375q-0.65625 -0.34375 -1.0625 -0.875l0 4.703125l-1.640625 0zm1.484375 -8.484375q0 1.859375 0.75 2.765625q0.765625 0.890625 1.828125 0.890625q1.09375 0 1.875 -0.921875q0.78125 -0.9375 0.78125 -2.875q0 -1.84375 -0.765625 -2.765625q-0.75 -0.921875 -1.8125 -0.921875q-1.046875 0 -1.859375 0.984375q-0.796875 0.96875 -0.796875 2.84375zm8.844482 4.78125l0 -13.359375l1.640625 0l0 13.359375l-1.640625 0zm4.1917114 -11.46875l0 -1.890625l1.640625 0l0 1.890625l-1.640625 0zm0 11.46875l0 -9.671875l1.640625 0l0 9.671875l-1.640625 0zm10.457275 -3.546875l1.609375 0.21875q-0.265625 1.65625 -1.359375 2.609375q-1.078125 0.9375 -2.671875 0.9375q-1.984375 0 -3.1875 -1.296875q-1.203125 -1.296875 -1.203125 -3.71875q0 -1.578125 0.515625 -2.75q0.515625 -1.171875 1.578125 -1.75q1.0625 -0.59375 2.3125 -0.59375q1.578125 0 2.578125 0.796875q1.0 0.796875 1.28125 2.265625l-1.59375 0.234375q-0.234375 -0.96875 -0.8125 -1.453125q-0.578125 -0.5 -1.390625 -0.5q-1.234375 0 -2.015625 0.890625q-0.78125 0.890625 -0.78125 2.8125q0 1.953125 0.75 2.84375q0.75 0.875 1.953125 0.875q0.96875 0 1.609375 -0.59375q0.65625 -0.59375 0.828125 -1.828125zm9.328125 2.359375q-0.921875 0.765625 -1.765625 1.09375q-0.828125 0.3125 -1.796875 0.3125q-1.59375 0 -2.453125 -0.78125q-0.859375 -0.78125 -0.859375 -1.984375q0 -0.71875 0.328125 -1.296875q0.328125 -0.59375 0.84375 -0.9375q0.53125 -0.359375 1.1875 -0.546875q0.46875 -0.125 1.453125 -0.25q1.984375 -0.234375 2.921875 -0.5625q0.015625 -0.34375 0.015625 -0.421875q0 -1.0 -0.46875 -1.421875q-0.625 -0.546875 -1.875 -0.546875q-1.15625 0 -1.703125 0.40625q-0.546875 0.40625 -0.8125 1.421875l-1.609375 -0.21875q0.21875 -1.015625 0.71875 -1.640625q0.5 -0.640625 1.453125 -0.984375q0.953125 -0.34375 2.1875 -0.34375q1.25 0 2.015625 0.296875q0.78125 0.28125 1.140625 0.734375q0.375 0.4375 0.515625 1.109375q0.078125 0.421875 0.078125 1.515625l0 2.1875q0 2.28125 0.109375 2.890625q0.109375 0.59375 0.40625 1.15625l-1.703125 0q-0.265625 -0.515625 -0.328125 -1.1875zm-0.140625 -3.671875q-0.890625 0.375 -2.671875 0.625q-1.015625 0.140625 -1.4375 0.328125q-0.421875 0.1875 -0.65625 0.53125q-0.21875 0.34375 -0.21875 0.78125q0 0.65625 0.5 1.09375q0.5 0.4375 1.453125 0.4375q0.9375 0 1.671875 -0.40625q0.75 -0.421875 1.09375 -1.140625q0.265625 -0.5625 0.265625 -1.640625l0 -0.609375zm7.7819824 3.390625l0.234375 1.453125q-0.6875 0.140625 -1.234375 0.140625q-0.890625 0 -1.390625 -0.28125q-0.484375 -0.28125 -0.6875 -0.734375q-0.203125 -0.46875 -0.203125 -1.9375l0 -5.578125l-1.203125 0l0 -1.265625l1.203125 0l0 -2.390625l1.625 -0.984375l0 3.375l1.65625 0l0 1.265625l-1.65625 0l0 5.671875q0 0.6875 0.078125 0.890625q0.09375 0.203125 0.28125 0.328125q0.203125 0.109375 0.578125 0.109375q0.265625 0 0.71875 -0.0625zm1.6051636 -10.0l0 -1.890625l1.640625 0l0 1.890625l-1.640625 0zm0 11.46875l0 -9.671875l1.640625 0l0 9.671875l-1.640625 0zm3.5354614 -4.84375q0 -2.6875 1.484375 -3.96875q1.25 -1.078125 3.046875 -1.078125q2.0 0 3.265625 1.3125q1.265625 1.296875 1.265625 3.609375q0 1.859375 -0.5625 2.9375q-0.5625 1.0625 -1.640625 1.65625q-1.0625 0.59375 -2.328125 0.59375q-2.03125 0 -3.28125 -1.296875q-1.25 -1.3125 -1.25 -3.765625zm1.6875 0q0 1.859375 0.796875 2.796875q0.8125 0.921875 2.046875 0.921875q1.21875 0 2.03125 -0.921875q0.8125 -0.9375 0.8125 -2.84375q0 -1.796875 -0.8125 -2.71875q-0.8125 -0.921875 -2.03125 -0.921875q-1.234375 0 -2.046875 0.921875q-0.796875 0.90625 -0.796875 2.765625zm9.297607 4.84375l0 -9.671875l1.46875 0l0 1.375q1.0625 -1.59375 3.078125 -1.59375q0.875 0 1.609375 0.3125q0.734375 0.3125 1.09375 0.828125q0.375 0.5 0.515625 1.203125q0.09375 0.453125 0.09375 1.59375l0 5.953125l-1.640625 0l0 -5.890625q0 -1.0 -0.203125 -1.484375q-0.1875 -0.5 -0.671875 -0.796875q-0.484375 -0.296875 -1.140625 -0.296875q-1.046875 0 -1.8125 0.671875q-0.75 0.65625 -0.75 2.515625l0 5.28125l-1.640625 0z" fill-rule="nonzero"/><path fill="#d9d9d9" d="m869.0315 485.7152l0 0c0 -21.81305 17.682983 -39.496063 39.496094 -39.496063l0 0c10.474976 0 20.520935 4.161194 27.927917 11.568146c7.4069214 7.406952 11.568115 17.452911 11.568115 27.927917l0 0c0 21.81308 -17.682983 39.496094 -39.496033 39.496094l0 0c-21.81311 0 -39.496094 -17.683014 -39.496094 -39.496094z" fill-rule="evenodd"/><path stroke="#ffffff" stroke-width="1.0" stroke-linejoin="round" stroke-linecap="butt" d="m869.0315 485.7152l0 0c0 -21.81305 17.682983 -39.496063 39.496094 -39.496063l0 0c10.474976 0 20.520935 4.161194 27.927917 11.568146c7.4069214 7.406952 11.568115 17.452911 11.568115 27.927917l0 0c0 21.81308 -17.682983 39.496094 -39.496033 39.496094l0 0c-21.81311 0 -39.496094 -17.683014 -39.496094 -39.496094z" fill-rule="evenodd"/><path fill="#000000" d="m894.4746 491.85522l-4.796875 -12.40625l1.78125 0l3.21875 9.015625q0.390625 1.078125 0.65625 2.03125q0.28125 -1.015625 0.65625 -2.03125l3.359375 -9.015625l1.671875 0l-4.859375 12.40625l-1.6875 0zm13.023254 -2.890625l1.5625 0.1875q-0.359375 1.390625 -1.375 2.15625q-1.0 0.75 -2.5625 0.75q-1.984375 0 -3.140625 -1.203125q-1.140625 -1.21875 -1.140625 -3.421875q0 -2.265625 1.15625 -3.515625q1.171875 -1.25 3.03125 -1.25q1.8125 0 2.953125 1.234375q1.140625 1.21875 1.140625 3.4375q0 0.140625 -0.015625 0.40625l-6.703125 0q0.09375 1.484375 0.84375 2.28125q0.75 0.78125 1.875 0.78125q0.84375 0 1.4375 -0.4375q0.59375 -0.4375 0.9375 -1.40625zm-5.0 -2.46875l5.015625 0q-0.109375 -1.125 -0.578125 -1.703125q-0.734375 -0.875 -1.890625 -0.875q-1.046875 0 -1.765625 0.703125q-0.703125 0.703125 -0.78125 1.875zm11.80896 4.0l0.21875 1.34375q-0.640625 0.140625 -1.15625 0.140625q-0.828125 0 -1.28125 -0.265625q-0.453125 -0.265625 -0.640625 -0.6875q-0.1875 -0.4375 -0.1875 -1.796875l0 -5.171875l-1.125 0l0 -1.1875l1.125 0l0 -2.21875l1.515625 -0.921875l0 3.140625l1.53125 0l0 1.1875l-1.53125 0l0 5.25q0 0.65625 0.078125 0.84375q0.078125 0.1875 0.25 0.296875q0.1875 0.109375 0.53125 0.109375q0.25 0 0.671875 -0.0625zm1.486206 1.359375l0 -12.40625l1.53125 0l0 4.453125q1.0625 -1.234375 2.6875 -1.234375q1.0 0 1.734375 0.390625q0.734375 0.390625 1.046875 1.09375q0.328125 0.6875 0.328125 2.015625l0 5.6875l-1.53125 0l0 -5.6875q0 -1.15625 -0.5 -1.671875q-0.484375 -0.515625 -1.390625 -0.515625q-0.6875 0 -1.28125 0.359375q-0.59375 0.34375 -0.84375 0.953125q-0.25 0.59375 -0.25 1.640625l0 4.921875l-1.53125 0z" fill-rule="nonzero"/><path fill="#000000" fill-opacity="0.0" d="m908.5276 413.61548l0 32.59842" fill-rule="evenodd"/><path stroke="#000000" stroke-width="1.0" stroke-linejoin="round" stroke-linecap="butt" d="m908.5276 419.61548l0 20.59842" fill-rule="evenodd"/><path fill="#000000" stroke="#000000" stroke-width="1.0" stroke-linecap="butt" d="m910.1793 419.61548l-1.6517334 -4.538086l-1.6517334 4.538086z" fill-rule="evenodd"/><path fill="#000000" stroke="#000000" stroke-width="1.0" stroke-linecap="butt" d="m906.87585 440.2139l1.6517334 4.5381165l1.6517334 -4.5381165z" fill-rule="evenodd"/><path fill="#000000" fill-opacity="0.0" d="m556.2126 524.9278l0.22198486 0l0 43.405518l352.09302 0l0 -43.12201" fill-rule="evenodd"/><path stroke="#000000" stroke-width="1.0" stroke-linejoin="round" stroke-linecap="butt" d="m556.4346 530.9237l0 37.409607l352.09302 0l0 -37.12201" fill-rule="evenodd"/><path fill="#000000" stroke="#000000" stroke-width="1.0" stroke-linecap="butt" d="m558.08514 530.8626l-1.8184814 -4.473877l-1.482727 4.5960693z" fill-rule="evenodd"/><path fill="#000000" stroke="#000000" stroke-width="1.0" stroke-linecap="butt" d="m910.1793 531.2113l-1.6517334 -4.538086l-1.6517334 4.538086z" fill-rule="evenodd"/><path fill="#000000" fill-opacity="0.0" d="m873.24146 30.788713l68.69293 0l0 42.015747l-68.69293 0z" fill-rule="evenodd"/><path fill="#000000" fill-opacity="0.0" d="m880.4803 38.520996l56.094543 0l0 42.015747l-56.094543 0z" fill-rule="evenodd"/><path fill="#000000" d="m890.83966 65.440994l0 -13.359375l4.328125 0q2.453125 0 3.203125 0.203125q1.140625 0.296875 1.921875 1.3125q0.78125 1.0 0.78125 2.59375q0 1.234375 -0.453125 2.078125q-0.453125 0.828125 -1.140625 1.3125q-0.6875 0.46875 -1.390625 0.625q-0.96875 0.203125 -2.796875 0.203125l-1.765625 0l0 5.03125l-2.6875 0zm2.6875 -11.09375l0 3.78125l1.484375 0q1.59375 0 2.125 -0.203125q0.546875 -0.203125 0.84375 -0.65625q0.3125 -0.453125 0.3125 -1.03125q0 -0.734375 -0.4375 -1.203125q-0.421875 -0.484375 -1.078125 -0.59375q-0.484375 -0.09375 -1.9375 -0.09375l-1.3125 0zm9.1467285 6.125q0 -1.28125 0.625 -2.46875q0.625 -1.203125 1.78125 -1.828125q1.15625 -0.625 2.578125 -0.625q2.1875 0 3.59375 1.421875q1.40625 1.421875 1.40625 3.609375q0 2.1875 -1.421875 3.640625q-1.421875 1.4375 -3.5625 1.4375q-1.328125 0 -2.546875 -0.59375q-1.203125 -0.609375 -1.828125 -1.765625q-0.625 -1.171875 -0.625 -2.828125zm2.625 0.125q0 1.453125 0.671875 2.21875q0.6875 0.75 1.6875 0.75q1.0 0 1.671875 -0.75q0.6875 -0.765625 0.6875 -2.234375q0 -1.421875 -0.6875 -2.1875q-0.671875 -0.765625 -1.671875 -0.765625q-1.0 0 -1.6875 0.765625q-0.671875 0.765625 -0.671875 2.203125zm18.239746 4.84375l-2.390625 0l0 -1.421875q-0.59375 0.828125 -1.40625 1.234375q-0.796875 0.40625 -1.609375 0.40625q-1.671875 0 -2.859375 -1.34375q-1.1875 -1.34375 -1.1875 -3.75q0 -2.453125 1.15625 -3.734375q1.15625 -1.28125 2.921875 -1.28125q1.625 0 2.8125 1.34375l0 -4.8125l2.5625 0l0 13.359375zm-6.84375 -5.046875q0 1.546875 0.4375 2.234375q0.609375 1.015625 1.71875 1.015625q0.890625 0 1.5 -0.75q0.625 -0.765625 0.625 -2.25q0 -1.671875 -0.609375 -2.40625q-0.59375 -0.734375 -1.53125 -0.734375q-0.90625 0 -1.53125 0.734375q-0.609375 0.71875 -0.609375 2.15625z" fill-rule="nonzero"/></g></svg>