<svg version="1.1" viewBox="0.0 0.0 847.2677165354331 445.8031496062992" fill="none" stroke="none" stroke-linecap="square" stroke-miterlimit="10" xmlns:xlink="http://www.w3.org/1999/xlink" xmlns="http://www.w3.org/2000/svg"><clipPath id="p.0"><path d="m0 0l847.2677 0l0 445.80316l-847.2677 0l0 -445.80316z" clip-rule="nonzero"/></clipPath><g clip-path="url(#p.0)"><path fill="#000000" fill-opacity="0.0" d="m0 0l847.2677 0l0 445.80316l-847.2677 0z" fill-rule="evenodd"/><path fill="#ffffff" d="m11.343896 6.7560234l820.6115 0l0 411.64575l-820.6115 0z" fill-rule="evenodd"/><path stroke="#000000" stroke-width="1.0" stroke-linejoin="round" stroke-linecap="butt" d="m11.343896 6.7560234l820.6115 0l0 411.64575l-820.6115 0z" fill-rule="evenodd"/><path fill="#ffffff" d="m53.929558 78.024414l0 0c0 -20.270462 16.432457 -36.70292 36.70291 -36.70292l146.80725 0l0 0c9.734207 0 19.069733 3.8669052 25.95288 10.750038c6.8831177 6.883129 10.7500305 16.218658 10.7500305 25.95288l0 195.7724c0 20.270477 -16.432465 36.70291 -36.70291 36.70291l-146.80725 0c-20.270454 0 -36.70291 -16.432434 -36.70291 -36.70291z" fill-rule="evenodd"/><path stroke="#434343" stroke-width="1.0" stroke-linejoin="round" stroke-linecap="butt" d="m53.929558 78.024414l0 0c0 -20.270462 16.432457 -36.70292 36.70291 -36.70292l146.80725 0l0 0c9.734207 0 19.069733 3.8669052 25.95288 10.750038c6.8831177 6.883129 10.7500305 16.218658 10.7500305 25.95288l0 195.7724c0 20.270477 -16.432465 36.70291 -36.70291 36.70291l-146.80725 0c-20.270454 0 -36.70291 -16.432434 -36.70291 -36.70291z" fill-rule="evenodd"/><path fill="#000000" fill-opacity="0.0" d="m69.51451 60.175854l204.615 0l0 42.018063l-204.615 0z" fill-rule="evenodd"/><path fill="#000000" d="m79.936386 87.09585l0 -13.359375l1.8125 0l7.015625 10.484375l0 -10.484375l1.6875 0l0 13.359375l-1.8125 0l-7.015625 -10.5l0 10.5l-1.6875 0zm19.910446 -3.109375l1.6875 0.203125q-0.40625 1.484375 -1.484375 2.3125q-1.078125 0.8125 -2.765625 0.8125q-2.125 0 -3.375 -1.296875q-1.234375 -1.3125 -1.234375 -3.671875q0 -2.453125 1.25 -3.796875q1.265625 -1.34375 3.265625 -1.34375q1.9375 0 3.15625 1.328125q1.234375 1.3125 1.234375 3.703125q0 0.15625 0 0.4375l-7.21875 0q0.09375 1.59375 0.90625 2.453125q0.8125 0.84375 2.015625 0.84375q0.90625 0 1.546875 -0.46875q0.640625 -0.484375 1.015625 -1.515625zm-5.390625 -2.65625l5.40625 0q-0.109375 -1.21875 -0.625 -1.828125q-0.78125 -0.953125 -2.03125 -0.953125q-1.125 0 -1.90625 0.765625q-0.765625 0.75 -0.84375 2.015625zm12.719467 4.296875l0.234375 1.453125q-0.6875 0.140625 -1.234375 0.140625q-0.890625 0 -1.390625 -0.28125q-0.484375 -0.28125 -0.6875 -0.734375q-0.203125 -0.46875 -0.203125 -1.9375l0 -5.578125l-1.203125 0l0 -1.265625l1.203125 0l0 -2.390625l1.625 -0.984375l0 3.375l1.65625 0l0 1.265625l-1.65625 0l0 5.671875q0 0.6875 0.078125 0.890625q0.09375 0.203125 0.28125 0.328125q0.203125 0.109375 0.578125 0.109375q0.265625 0 0.71875 -0.0625zm3.3864288 1.46875l-2.96875 -9.671875l1.703125 0l1.53125 5.578125l0.578125 2.078125q0.046875 -0.15625 0.5 -2.0l1.546875 -5.65625l1.6875 0l1.4375 5.609375l0.484375 1.84375l0.5625 -1.859375l1.65625 -5.59375l1.59375 0l-3.03125 9.671875l-1.703125 0l-1.53125 -5.796875l-0.375 -1.640625l-1.953125 7.4375l-1.71875 0zm11.082321 -4.84375q0 -2.6875 1.484375 -3.96875q1.25 -1.078125 3.046875 -1.078125q2.0 0 3.265625 1.3125q1.265625 1.296875 1.265625 3.609375q0 1.859375 -0.5625 2.9375q-0.5625 1.0625 -1.640625 1.65625q-1.0625 0.59375 -2.328125 0.59375q-2.03125 0 -3.28125 -1.296875q-1.25 -1.3125 -1.25 -3.765625zm1.6875 0q0 1.859375 0.796875 2.796875q0.8125 0.921875 2.046875 0.921875q1.21875 0 2.03125 -0.921875q0.8125 -0.9375 0.8125 -2.84375q0 -1.796875 -0.8125 -2.71875q-0.8125 -0.921875 -2.03125 -0.921875q-1.234375 0 -2.046875 0.921875q-0.796875 0.90625 -0.796875 2.765625zm9.281967 4.84375l0 -9.671875l1.46875 0l0 1.46875q0.5625 -1.03125 1.03125 -1.359375q0.484375 -0.328125 1.0625 -0.328125q0.828125 0 1.6875 0.53125l-0.5625 1.515625q-0.609375 -0.359375 -1.203125 -0.359375q-0.546875 0 -0.96875 0.328125q-0.421875 0.328125 -0.609375 0.890625q-0.28125 0.875 -0.28125 1.921875l0 5.0625l-1.625 0zm6.228302 0l0 -13.359375l1.640625 0l0 7.625l3.890625 -3.9375l2.109375 0l-3.6875 3.59375l4.0625 6.078125l-2.015625 0l-3.203125 -4.953125l-1.15625 1.125l0 3.828125l-1.640625 0zm14.511429 0l0 -9.671875l1.46875 0l0 1.375q1.0625 -1.59375 3.078125 -1.59375q0.875 0 1.609375 0.3125q0.734375 0.3125 1.09375 0.828125q0.375 0.5 0.515625 1.203125q0.09375 0.453125 0.09375 1.59375l0 5.953125l-1.640625 0l0 -5.890625q0 -1.0 -0.203125 -1.484375q-0.1875 -0.5 -0.671875 -0.796875q-0.484375 -0.296875 -1.140625 -0.296875q-1.046875 0 -1.8125 0.671875q-0.75 0.65625 -0.75 2.515625l0 5.28125l-1.640625 0zm16.688217 -1.1875q-0.921875 0.765625 -1.765625 1.09375q-0.828125 0.3125 -1.796875 0.3125q-1.59375 0 -2.453125 -0.78125q-0.859375 -0.78125 -0.859375 -1.984375q0 -0.71875 0.328125 -1.296875q0.328125 -0.59375 0.84375 -0.9375q0.53125 -0.359375 1.1875 -0.546875q0.46875 -0.125 1.453125 -0.25q1.984375 -0.234375 2.921875 -0.5625q0.015625 -0.34375 0.015625 -0.421875q0 -1.0 -0.46875 -1.421875q-0.625 -0.546875 -1.875 -0.546875q-1.15625 0 -1.703125 0.40625q-0.546875 0.40625 -0.8125 1.421875l-1.609375 -0.21875q0.21875 -1.015625 0.71875 -1.640625q0.5 -0.640625 1.453125 -0.984375q0.953125 -0.34375 2.1875 -0.34375q1.25 0 2.015625 0.296875q0.78125 0.28125 1.140625 0.734375q0.375 0.4375 0.515625 1.109375q0.078125 0.421875 0.078125 1.515625l0 2.1875q0 2.28125 0.109375 2.890625q0.109375 0.59375 0.40625 1.15625l-1.703125 0q-0.265625 -0.515625 -0.328125 -1.1875zm-0.140625 -3.671875q-0.890625 0.375 -2.671875 0.625q-1.015625 0.140625 -1.4375 0.328125q-0.421875 0.1875 -0.65625 0.53125q-0.21875 0.34375 -0.21875 0.78125q0 0.65625 0.5 1.09375q0.5 0.4375 1.453125 0.4375q0.9375 0 1.671875 -0.40625q0.75 -0.421875 1.09375 -1.140625q0.265625 -0.5625 0.265625 -1.640625l0 -0.609375zm4.203842 4.859375l0 -9.671875l1.46875 0l0 1.359375q0.453125 -0.71875 1.203125 -1.140625q0.765625 -0.4375 1.71875 -0.4375q1.078125 0 1.765625 0.453125q0.6875 0.4375 0.96875 1.234375q1.15625 -1.6875 2.984375 -1.6875q1.453125 0 2.21875 0.796875q0.78125 0.796875 0.78125 2.453125l0 6.640625l-1.640625 0l0 -6.09375q0 -0.984375 -0.15625 -1.40625q-0.15625 -0.4375 -0.578125 -0.703125q-0.421875 -0.265625 -0.984375 -0.265625q-1.015625 0 -1.6875 0.6875q-0.671875 0.671875 -0.671875 2.15625l0 5.625l-1.640625 0l0 -6.28125q0 -1.09375 -0.40625 -1.640625q-0.40625 -0.546875 -1.3125 -0.546875q-0.6875 0 -1.28125 0.359375q-0.59375 0.359375 -0.859375 1.0625q-0.25 0.703125 -0.25 2.03125l0 5.015625l-1.640625 0zm22.165802 -3.109375l1.6875 0.203125q-0.40625 1.484375 -1.484375 2.3125q-1.078125 0.8125 -2.765625 0.8125q-2.125 0 -3.375 -1.296875q-1.234375 -1.3125 -1.234375 -3.671875q0 -2.453125 1.25 -3.796875q1.265625 -1.34375 3.265625 -1.34375q1.9375 0 3.15625 1.328125q1.234375 1.3125 1.234375 3.703125q0 0.15625 0 0.4375l-7.21875 0q0.09375 1.59375 0.90625 2.453125q0.8125 0.84375 2.015625 0.84375q0.90625 0 1.546875 -0.46875q0.640625 -0.484375 1.015625 -1.515625zm-5.390625 -2.65625l5.40625 0q-0.109375 -1.21875 -0.625 -1.828125q-0.78125 -0.953125 -2.03125 -0.953125q-1.125 0 -1.90625 0.765625q-0.765625 0.75 -0.84375 2.015625zm8.485092 2.875l1.625 -0.25q0.125 0.96875 0.75 1.5q0.625 0.515625 1.75 0.515625q1.125 0 1.671875 -0.453125q0.546875 -0.46875 0.546875 -1.09375q0 -0.546875 -0.484375 -0.875q-0.328125 -0.21875 -1.671875 -0.546875q-1.8125 -0.46875 -2.515625 -0.796875q-0.6875 -0.328125 -1.046875 -0.90625q-0.359375 -0.59375 -0.359375 -1.3125q0 -0.640625 0.296875 -1.1875q0.296875 -0.5625 0.8125 -0.921875q0.375 -0.28125 1.03125 -0.46875q0.671875 -0.203125 1.421875 -0.203125q1.140625 0 2.0 0.328125q0.859375 0.328125 1.265625 0.890625q0.421875 0.5625 0.578125 1.5l-1.609375 0.21875q-0.109375 -0.75 -0.640625 -1.171875q-0.515625 -0.421875 -1.46875 -0.421875q-1.140625 0 -1.625 0.375q-0.46875 0.375 -0.46875 0.875q0 0.3125 0.1875 0.578125q0.203125 0.265625 0.640625 0.4375q0.234375 0.09375 1.4375 0.421875q1.75 0.453125 2.4375 0.75q0.6875 0.296875 1.078125 0.859375q0.390625 0.5625 0.390625 1.40625q0 0.828125 -0.484375 1.546875q-0.46875 0.71875 -1.375 1.125q-0.90625 0.390625 -2.046875 0.390625q-1.875 0 -2.875 -0.78125q-0.984375 -0.78125 -1.25 -2.328125zm9.984375 6.59375l0 -13.375l1.484375 0l0 1.25q0.53125 -0.734375 1.1875 -1.09375q0.671875 -0.375 1.625 -0.375q1.234375 0 2.171875 0.640625q0.953125 0.625 1.4375 1.796875q0.484375 1.15625 0.484375 2.546875q0 1.484375 -0.53125 2.671875q-0.53125 1.1875 -1.546875 1.828125q-1.015625 0.625 -2.140625 0.625q-0.8125 0 -1.46875 -0.34375q-0.65625 -0.34375 -1.0625 -0.875l0 4.703125l-1.640625 0zm1.484375 -8.484375q0 1.859375 0.75 2.765625q0.765625 0.890625 1.828125 0.890625q1.09375 0 1.875 -0.921875q0.78125 -0.9375 0.78125 -2.875q0 -1.84375 -0.765625 -2.765625q-0.75 -0.921875 -1.8125 -0.921875q-1.046875 0 -1.859375 0.984375q-0.796875 0.96875 -0.796875 2.84375zm15.203842 3.59375q-0.921875 0.765625 -1.765625 1.09375q-0.828125 0.3125 -1.796875 0.3125q-1.59375 0 -2.453125 -0.78125q-0.859375 -0.78125 -0.859375 -1.984375q0 -0.71875 0.328125 -1.296875q0.328125 -0.59375 0.84375 -0.9375q0.53125 -0.359375 1.1875 -0.546875q0.46875 -0.125 1.453125 -0.25q1.984375 -0.234375 2.921875 -0.5625q0.015625 -0.34375 0.015625 -0.421875q0 -1.0 -0.46875 -1.421875q-0.625 -0.546875 -1.875 -0.546875q-1.15625 0 -1.703125 0.40625q-0.546875 0.40625 -0.8125 1.421875l-1.609375 -0.21875q0.21875 -1.015625 0.71875 -1.640625q0.5 -0.640625 1.453125 -0.984375q0.953125 -0.34375 2.1875 -0.34375q1.25 0 2.015625 0.296875q0.78125 0.28125 1.140625 0.734375q0.375 0.4375 0.515625 1.109375q0.078125 0.421875 0.078125 1.515625l0 2.1875q0 2.28125 0.109375 2.890625q0.109375 0.59375 0.40625 1.15625l-1.703125 0q-0.265625 -0.515625 -0.328125 -1.1875zm-0.140625 -3.671875q-0.890625 0.375 -2.671875 0.625q-1.015625 0.140625 -1.4375 0.328125q-0.421875 0.1875 -0.65625 0.53125q-0.21875 0.34375 -0.21875 0.78125q0 0.65625 0.5 1.09375q0.5 0.4375 1.453125 0.4375q0.9375 0 1.671875 -0.40625q0.75 -0.421875 1.09375 -1.140625q0.265625 -0.5625 0.265625 -1.640625l0 -0.609375zm10.516342 1.3125l1.609375 0.21875q-0.265625 1.65625 -1.359375 2.609375q-1.078125 0.9375 -2.671875 0.9375q-1.984375 0 -3.1875 -1.296875q-1.203125 -1.296875 -1.203125 -3.71875q0 -1.578125 0.515625 -2.75q0.515625 -1.171875 1.578125 -1.75q1.0625 -0.59375 2.3125 -0.59375q1.578125 0 2.578125 0.796875q1.0 0.796875 1.28125 2.265625l-1.59375 0.234375q-0.234375 -0.96875 -0.8125 -1.453125q-0.578125 -0.5 -1.390625 -0.5q-1.234375 0 -2.015625 0.890625q-0.78125 0.890625 -0.78125 2.8125q0 1.953125 0.75 2.84375q0.75 0.875 1.953125 0.875q0.96875 0 1.609375 -0.59375q0.65625 -0.59375 0.828125 -1.828125zm9.640625 0.4375l1.6875 0.203125q-0.40625 1.484375 -1.484375 2.3125q-1.078125 0.8125 -2.765625 0.8125q-2.125 0 -3.375 -1.296875q-1.234375 -1.3125 -1.234375 -3.671875q0 -2.453125 1.25 -3.796875q1.265625 -1.34375 3.265625 -1.34375q1.9375 0 3.15625 1.328125q1.234375 1.3125 1.234375 3.703125q0 0.15625 0 0.4375l-7.21875 0q0.09375 1.59375 0.90625 2.453125q0.8125 0.84375 2.015625 0.84375q0.90625 0 1.546875 -0.46875q0.640625 -0.484375 1.015625 -1.515625zm-5.390625 -2.65625l5.40625 0q-0.109375 -1.21875 -0.625 -1.828125q-0.78125 -0.953125 -2.03125 -0.953125q-1.125 0 -1.90625 0.765625q-0.765625 0.75 -0.84375 2.015625zm14.860092 5.765625l-1.640625 0l0 -10.453125q-0.59375 0.5625 -1.5625 1.140625q-0.953125 0.5625 -1.71875 0.84375l0 -1.59375q1.375 -0.640625 2.40625 -1.5625q1.03125 -0.921875 1.453125 -1.78125l1.0625 0l0 13.40625z" fill-rule="nonzero"/><path fill="#efefef" d="m71.58945 113.59476l189.04523 0l0 42.931503l-189.04523 0z" fill-rule="evenodd"/><path fill="#000000" d="m81.65195 131.07677l0 -1.609375l1.40625 0l0 1.609375l-1.40625 0zm0 9.84375l0 -8.296875l1.40625 0l0 8.296875l-1.40625 0zm3.5546875 3.1875l0 -11.484375l1.28125 0l0 1.078125q0.453125 -0.640625 1.015625 -0.953125q0.578125 -0.3125 1.390625 -0.3125q1.0625 0 1.875 0.546875q0.8125 0.546875 1.21875 1.546875q0.421875 0.984375 0.421875 2.171875q0 1.28125 -0.46875 2.296875q-0.453125 1.015625 -1.328125 1.5625q-0.859375 0.546875 -1.828125 0.546875q-0.703125 0 -1.265625 -0.296875q-0.546875 -0.296875 -0.90625 -0.75l0 4.046875l-1.40625 0zm1.265625 -7.296875q0 1.609375 0.640625 2.375q0.65625 0.765625 1.578125 0.765625q0.9375 0 1.609375 -0.796875q0.671875 -0.796875 0.671875 -2.453125q0 -1.59375 -0.65625 -2.375q-0.65625 -0.796875 -1.5625 -0.796875q-0.890625 0 -1.59375 0.84375q-0.6875 0.84375 -0.6875 2.4375zm10.6953125 2.84375l0.203125 1.25q-0.59375 0.125 -1.0625 0.125q-0.765625 0 -1.1875 -0.234375q-0.421875 -0.25 -0.59375 -0.640625q-0.171875 -0.40625 -0.171875 -1.671875l0 -4.765625l-1.03125 0l0 -1.09375l1.03125 0l0 -2.0625l1.40625 -0.84375l0 2.90625l1.40625 0l0 1.09375l-1.40625 0l0 4.84375q0 0.609375 0.0625 0.78125q0.078125 0.171875 0.25 0.28125q0.171875 0.09375 0.484375 0.09375q0.234375 0 0.609375 -0.0625zm6.7890625 0.234375q-0.78125 0.671875 -1.5 0.953125q-0.71875 0.265625 -1.546875 0.265625q-1.375 0 -2.109375 -0.671875q-0.734375 -0.671875 -0.734375 -1.703125q0 -0.609375 0.28125 -1.109375q0.28125 -0.515625 0.71875 -0.8125q0.453125 -0.3125 1.015625 -0.46875q0.421875 -0.109375 1.25 -0.203125q1.703125 -0.203125 2.515625 -0.484375q0 -0.296875 0 -0.375q0 -0.859375 -0.390625 -1.203125q-0.546875 -0.484375 -1.609375 -0.484375q-0.984375 0 -1.46875 0.359375q-0.46875 0.34375 -0.6875 1.21875l-1.375 -0.1875q0.1875 -0.875 0.609375 -1.421875q0.4375 -0.546875 1.25 -0.828125q0.8125 -0.296875 1.875 -0.296875q1.0625 0 1.71875 0.25q0.671875 0.25 0.984375 0.625q0.3125 0.375 0.4375 0.953125q0.078125 0.359375 0.078125 1.296875l0 1.875q0 1.96875 0.078125 2.484375q0.09375 0.515625 0.359375 1.0l-1.46875 0q-0.21875 -0.4375 -0.28125 -1.03125zm-0.109375 -3.140625q-0.765625 0.3125 -2.296875 0.53125q-0.875 0.125 -1.234375 0.28125q-0.359375 0.15625 -0.5625 0.46875q-0.1875 0.296875 -0.1875 0.65625q0 0.5625 0.421875 0.9375q0.4375 0.375 1.25 0.375q0.8125 0 1.4375 -0.34375q0.640625 -0.359375 0.9375 -0.984375q0.234375 -0.46875 0.234375 -1.40625l0 -0.515625zm4.8984375 4.171875l-1.3125 0l0 -11.453125l1.40625 0l0 4.078125q0.890625 -1.109375 2.28125 -1.109375q0.765625 0 1.4375 0.3125q0.6875 0.296875 1.125 0.859375q0.453125 0.5625 0.703125 1.359375q0.25 0.78125 0.25 1.671875q0 2.140625 -1.0625 3.3125q-1.046875 1.15625 -2.53125 1.15625q-1.46875 0 -2.296875 -1.234375l0 1.046875zm-0.015625 -4.21875q0 1.5 0.40625 2.15625q0.65625 1.09375 1.796875 1.09375q0.921875 0 1.59375 -0.796875q0.671875 -0.8125 0.671875 -2.390625q0 -1.625 -0.65625 -2.390625q-0.640625 -0.78125 -1.546875 -0.78125q-0.921875 0 -1.59375 0.796875q-0.671875 0.796875 -0.671875 2.3125zm7.5859375 4.21875l0 -11.453125l1.40625 0l0 11.453125l-1.40625 0zm9.2578125 -2.671875l1.453125 0.171875q-0.34375 1.28125 -1.28125 1.984375q-0.921875 0.703125 -2.359375 0.703125q-1.828125 0 -2.890625 -1.125q-1.0625 -1.125 -1.0625 -3.140625q0 -2.09375 1.078125 -3.25q1.078125 -1.15625 2.796875 -1.15625q1.65625 0 2.703125 1.140625q1.0625 1.125 1.0625 3.171875q0 0.125 0 0.375l-6.1875 0q0.078125 1.375 0.765625 2.109375q0.703125 0.71875 1.734375 0.71875q0.78125 0 1.328125 -0.40625q0.546875 -0.40625 0.859375 -1.296875zm-4.609375 -2.28125l4.625 0q-0.09375 -1.046875 -0.53125 -1.5625q-0.671875 -0.8125 -1.734375 -0.8125q-0.96875 0 -1.640625 0.65625q-0.65625 0.640625 -0.71875 1.71875zm7.2734375 2.46875l1.390625 -0.21875q0.109375 0.84375 0.640625 1.296875q0.546875 0.4375 1.5 0.4375q0.96875 0 1.4375 -0.390625q0.46875 -0.40625 0.46875 -0.9375q0 -0.46875 -0.40625 -0.75q-0.296875 -0.1875 -1.4375 -0.46875q-1.546875 -0.390625 -2.15625 -0.671875q-0.59375 -0.296875 -0.90625 -0.796875q-0.296875 -0.5 -0.296875 -1.109375q0 -0.5625 0.25 -1.03125q0.25 -0.46875 0.6875 -0.78125q0.328125 -0.25 0.890625 -0.40625q0.578125 -0.171875 1.21875 -0.171875q0.984375 0 1.71875 0.28125q0.734375 0.28125 1.078125 0.765625q0.359375 0.46875 0.5 1.28125l-1.375 0.1875q-0.09375 -0.640625 -0.546875 -1.0q-0.453125 -0.359375 -1.265625 -0.359375q-0.96875 0 -1.390625 0.328125q-0.40625 0.3125 -0.40625 0.734375q0 0.28125 0.171875 0.5q0.171875 0.21875 0.53125 0.375q0.21875 0.078125 1.25 0.359375q1.484375 0.390625 2.078125 0.65625q0.59375 0.25 0.921875 0.734375q0.34375 0.484375 0.34375 1.203125q0 0.703125 -0.421875 1.328125q-0.40625 0.609375 -1.1875 0.953125q-0.765625 0.34375 -1.734375 0.34375q-1.625 0 -2.46875 -0.671875q-0.84375 -0.671875 -1.078125 -2.0z" fill-rule="nonzero"/><path fill="#000000" d="m144.8707 136.60802q1.5 1.125 2.8125 2.25q-0.5 0.5625 -0.9375 1.125q-0.875 -1.1875 -2.1875 -2.1875q-0.4375 1.0 -1.09375 2.15625q-0.65625 1.15625 -1.53125 2.28125q-0.5 -0.625 -1.25 -0.9375q0.8125 -0.5625 1.46875 -1.5q0.65625 -0.9375 1.125 -2.09375q0.46875 -1.15625 0.53125 -2.40625l-0.5625 0q-0.9375 0 -2.0625 0.0625l0 -1.125q1.125 0.0625 2.125 0.0625l0.5625 0l0 -2.6875q-1.25 0 -2.0625 0.0625l0 -1.125q0.875 0.0625 2.0625 0.0625q0 -2.125 -0.0625 -2.9375076q0.6875 0.0625 1.5 0.1875q-0.25 0.37500763 -0.28125 1.2187576q-0.03125 0.84375 -0.03125 1.53125q1.375 0 1.9375 -0.0625l0 1.125q-0.75 -0.0625 -1.9375 -0.0625l0 2.6875q1.6875 0 2.25 -0.0625l0 1.125q-0.5625 -0.0625 -2.3125 -0.0625q0 0.5 -0.0625 1.3125zm7.0 -4.9375q-0.1875 0.75 -0.3125 2.3125q-0.125 1.5625 -0.3125 2.75l1.0625 0q-0.0625 0.625 -0.0625 1.6875l0 1.75q0 0.8125 0.40625 0.9375q0.40625 0.125 0.84375 0.09375q0.4375 -0.03125 0.59375 -0.34375q0.15625 -0.3125 0.34375 -1.625q0.5 0.4375 1.25 0.6875q-0.5 1.6875 -0.84375 2.03125q-0.34375 0.34375 -1.15625 0.34375l-1.1875 0q-1.375 0 -1.375 -1.4375l0 -3.8125q-0.25 0.9375 -0.65625 1.6875q-0.40625 0.75 -1.375 1.6875q-0.96875 0.9375 -2.96875 2.0625q-0.375 -0.5625 -1.0625 -1.0q1.9375 -0.8125 3.09375 -1.875q1.15625 -1.0625 1.625 -2.125q0.46875 -1.0625 0.59375 -2.71875q0.125 -1.65625 0.125 -3.34375q0.8125 0.1875 1.375 0.25zm2.5625 -2.9375q-0.0625 1.0 -0.0625 4.0q0 3.0 0.0625 4.25l-1.1875 0l0 -7.1875l-4.4375 0l0 7.25l-1.125 0q0.0625 -1.4375 0.0625 -4.3125q0 -2.875 -0.0625 -4.0l6.75 0zm10.125 0q-0.0625 1.0 -0.0625 2.125l0 4.375q0 1.3125 0.0625 2.375l-1.3125 0l0 -7.8125l-4.1875 0l0 7.875l-1.375 0q0.0625 -1.0625 0.0625 -2.1875l0 -4.5625q0 -1.3125 -0.0625 -2.1875l6.875 0zm6.0625 -0.8750076q-0.0625 0.8750076 -0.0625 1.8750076l0 11.25q0 1.0 -0.53125 1.21875q-0.53125 0.21875 -1.90625 0.40625q-0.1875 -0.75 -0.5 -1.5q1.125 0 1.40625 -0.0625q0.28125 -0.0625 0.28125 -0.875l0 -10.4375q0 -1.0 -0.0625 -1.8750076l1.375 0zm-8.6875 3.5000076q-0.1875 0.75 -0.21875 1.59375q-0.03125 0.84375 -0.0625 2.375q-0.03125 1.53125 -0.46875 2.75q-0.4375 1.21875 -1.0 2.03125q-0.5625 0.8125 -2.1875 2.125q-0.5625 -0.5625 -1.25 -1.0625q1.5 -0.6875 2.28125 -1.6875q0.78125 -1.0 1.09375 -2.28125q0.3125 -1.28125 0.3125 -2.71875q0 -1.4375 -0.0625 -3.25q0.6875 0.125 1.5625 0.125zm5.75 -1.5625q-0.0625 0.6875 -0.0625 1.5625l0 5.375q0 1.25 0.0625 2.25l-1.375 0q0.0625 -1.0625 0.0625 -2.25l0 -5.375q0 -0.75 -0.0625 -1.5625l1.375 0zm-5.375 8.5625q0.8125 0.625 1.53125 1.21875q0.71875 0.59375 1.28125 1.09375q-0.4375 0.3125 -0.9375 1.0q-0.75 -0.75 -1.375 -1.3125q-0.625 -0.5625 -1.3125 -1.0625q0.4375 -0.4375 0.8125 -0.9375z" fill-rule="nonzero"/><path fill="#000000" d="m183.3707 138.60802q1.0 1.25 3.75 2.25l-0.625 1.375q-4.875 -1.625 -6.1875 -6.875l-0.375 0q-0.625 0.875 -1.3125 1.5625l0 3.5l3.5625 -0.6875l0.1875 1.0625q-3.375 0.8125 -6.625 1.4375q-0.1875 0.5625 -0.375 0.1875l-0.4375 -1.5l2.4375 -0.3125l0 -2.6875q-1.625 1.125 -3.625 1.8125l-0.625 -1.25q3.125 -0.875 5.3125 -3.125l-5.0 0l0 -1.1875l6.0625 0l0 -1.125l-4.5 0l0 -1.1875l4.5 0l0 -1.125l-5.3125 0l0 -1.1875l5.3125 0l0 -1.5l1.1875 0q0.5 0.0625 0.0625 0.375l0 1.125l5.3125 0l0 1.1875l-5.3125 0l0 1.125l4.5 0l0 1.1875l-4.5 0l0 1.125l6.0625 0l0 1.1875l-5.3125 0q0.375 1.1875 1.25 2.5q1.1875 -1.0 2.25 -2.1875l0.9375 0.9375q0.0625 0.3125 -0.3125 0.1875q-1.0625 1.0 -2.25 1.8125z" fill-rule="nonzero"/><path fill="#efefef" d="m71.58945 160.82465l189.04523 0l0 42.931503l-189.04523 0z" fill-rule="evenodd"/><path fill="#000000" d="m93.27695 187.58789l0 -2.8125l-3.125 0l0 2.8125l3.125 0zm1.25 1.6875l-1.25 0l0 -0.6875l-3.125 0l0 0.875l-1.25 0l0 -5.6875l5.625 0l0 5.5zm-4.4375 -11.625q0.3125 0.875 1.5625 2.25q1.125 -1.5 1.4375 -2.25l-3.0 0zm1.5625 4.0q-2.1875 2.0 -4.0625 2.6875l-0.5625 -1.25q1.75 -0.5625 3.8125 -2.375q-0.5 -0.5 -1.3125 -1.8125q-0.625 1.4375 -1.25 2.0625l-0.9375 -0.9375q1.5 -2.0 2.3125 -5.0l1.3125 0.375q0.25 0.25 -0.1875 0.3125l-0.3125 0.75l3.1875 0l0.1875 -0.3125l1.0 0.8125q0.25 0.1875 -0.25 0.375q-0.875 2.0 -2.0625 3.375q2.125 1.625 3.625 2.125l-0.5 1.375q-1.5 -0.5 -4.0 -2.5625zm-4.5625 -5.625l0 4.625l-1.5625 0l0 2.3125l1.4375 0l0 1.1875l-1.4375 0l0 2.875l2.1875 -0.6875l0.25 1.125l-5.75 1.625q-0.0625 0.5 -0.3125 0.25l-0.5 -1.375l0.75 -0.125l0 -5.8125l1.1875 0q0.5 0.0625 0.0625 0.375l0 5.125l0.875 -0.1875l0 -6.6875l-1.125 0l-1.0625 0l0 -4.625l5.0 0zm-1.25 3.625l0 -2.625l-2.5 0l0 2.625l2.5 0zm14.1875 7.5l4.0 0l0 -3.25l-4.0 0l0 3.25zm0 -4.4375l4.0 0l0 -3.25l-4.0 0l0 3.25zm9.25 0l0 -3.25l-4.0 0l0 3.25l4.0 0zm-4.0 4.4375l4.0 0l0 -3.25l-4.0 0l0 3.25zm-6.5 2.1875l0 -11.0625l5.25 0l0 -2.9375l1.1875 0q0.5 0.0625 0.0625 0.375l0 2.5625l5.25 0l0 10.8125l-1.25 0l0 -0.75l-9.25 0l0 1.0l-1.25 0z" fill-rule="nonzero"/><path fill="#000000" d="m117.27695 183.83789q1.5 1.125 2.8125 2.25q-0.5 0.5625 -0.9375 1.125q-0.875 -1.1875 -2.1875 -2.1875q-0.4375 1.0 -1.09375 2.15625q-0.65625 1.15625 -1.53125 2.28125q-0.5 -0.625 -1.25 -0.9375q0.8125 -0.5625 1.46875 -1.5q0.65625 -0.9375 1.125 -2.09375q0.46875 -1.15625 0.53125 -2.40625l-0.5625 0q-0.9375 0 -2.0625 0.0625l0 -1.125q1.125 0.0625 2.125 0.0625l0.5625 0l0 -2.6875q-1.25 0 -2.0625 0.0625l0 -1.125q0.875 0.0625 2.0625 0.0625q0 -2.125 -0.0625 -2.9375q0.6875 0.0625 1.5 0.1875q-0.25 0.375 -0.28125 1.21875q-0.03125 0.84375 -0.03125 1.53125q1.375 0 1.9375 -0.0625l0 1.125q-0.75 -0.0625 -1.9375 -0.0625l0 2.6875q1.6875 0 2.25 -0.0625l0 1.125q-0.5625 -0.0625 -2.3125 -0.0625q0 0.5 -0.0625 1.3125zm7.0 -4.9375q-0.1875 0.75 -0.3125 2.3125q-0.125 1.5625 -0.3125 2.75l1.0625 0q-0.0625 0.625 -0.0625 1.6875l0 1.75q0 0.8125 0.40625 0.9375q0.40625 0.125 0.84375 0.09375q0.4375 -0.03125 0.59375 -0.34375q0.15625 -0.3125 0.34375 -1.625q0.5 0.4375 1.25 0.6875q-0.5 1.6875 -0.84375 2.03125q-0.34375 0.34375 -1.15625 0.34375l-1.1875 0q-1.375 0 -1.375 -1.4375l0 -3.8125q-0.25 0.9375 -0.65625 1.6875q-0.40625 0.75 -1.375 1.6875q-0.96875 0.9375 -2.96875 2.0625q-0.375 -0.5625 -1.0625 -1.0q1.9375 -0.8125 3.09375 -1.875q1.15625 -1.0625 1.625 -2.125q0.46875 -1.0625 0.59375 -2.71875q0.125 -1.65625 0.125 -3.34375q0.8125 0.1875 1.375 0.25zm2.5625 -2.9375q-0.0625 1.0 -0.0625 4.0q0 3.0 0.0625 4.25l-1.1875 0l0 -7.1875l-4.4375 0l0 7.25l-1.125 0q0.0625 -1.4375 0.0625 -4.3125q0 -2.875 -0.0625 -4.0l6.75 0zm10.125 0q-0.0625 1.0 -0.0625 2.125l0 4.375q0 1.3125 0.0625 2.375l-1.3125 0l0 -7.8125l-4.1875 0l0 7.875l-1.375 0q0.0625 -1.0625 0.0625 -2.1875l0 -4.5625q0 -1.3125 -0.0625 -2.1875l6.875 0zm6.0625 -0.875q-0.0625 0.875 -0.0625 1.875l0 11.25q0 1.0 -0.53125 1.21875q-0.53125 0.21875 -1.90625 0.40625q-0.1875 -0.75 -0.5 -1.5q1.125 0 1.40625 -0.0625q0.28125 -0.0625 0.28125 -0.875l0 -10.4375q0 -1.0 -0.0625 -1.875l1.375 0zm-8.6875 3.5q-0.1875 0.75 -0.21875 1.59375q-0.03125 0.84375 -0.0625 2.375q-0.03125 1.53125 -0.46875 2.75q-0.4375 1.21875 -1.0 2.03125q-0.5625 0.8125 -2.1875 2.125q-0.5625 -0.5625 -1.25 -1.0625q1.5 -0.6875 2.28125 -1.6875q0.78125 -1.0 1.09375 -2.28125q0.3125 -1.28125 0.3125 -2.71875q0 -1.4375 -0.0625 -3.25q0.6875 0.125 1.5625 0.125zm5.75 -1.5625q-0.0625 0.6875 -0.0625 1.5625l0 5.375q0 1.25 0.0625 2.25l-1.375 0q0.0625 -1.0625 0.0625 -2.25l0 -5.375q0 -0.75 -0.0625 -1.5625l1.375 0zm-5.375 8.5625q0.8125 0.625 1.53125 1.21875q0.71875 0.59375 1.28125 1.09375q-0.4375 0.3125 -0.9375 1.0q-0.75 -0.75 -1.375 -1.3125q-0.625 -0.5625 -1.3125 -1.0625q0.4375 -0.4375 0.8125 -0.9375z" fill-rule="nonzero"/><path fill="#000000" d="m155.77695 185.83789q1.0 1.25 3.75 2.25l-0.625 1.375q-4.875 -1.625 -6.1875 -6.875l-0.375 0q-0.625 0.875 -1.3125 1.5625l0 3.5l3.5625 -0.6875l0.1875 1.0625q-3.375 0.8125 -6.625 1.4375q-0.1875 0.5625 -0.375 0.1875l-0.4375 -1.5l2.4375 -0.3125l0 -2.6875q-1.625 1.125 -3.625 1.8125l-0.625 -1.25q3.125 -0.875 5.3125 -3.125l-5.0 0l0 -1.1875l6.0625 0l0 -1.125l-4.5 0l0 -1.1875l4.5 0l0 -1.125l-5.3125 0l0 -1.1875l5.3125 0l0 -1.5l1.1875 0q0.5 0.0625 0.0625 0.375l0 1.125l5.3125 0l0 1.1875l-5.3125 0l0 1.125l4.5 0l0 1.1875l-4.5 0l0 1.125l6.0625 0l0 1.1875l-5.3125 0q0.375 1.1875 1.25 2.5q1.1875 -1.0 2.25 -2.1875l0.9375 0.9375q0.0625 0.3125 -0.3125 0.1875q-1.0625 1.0 -2.25 1.8125z" fill-rule="nonzero"/><path fill="#efefef" d="m71.58945 208.05334l189.04523 0l0 42.931503l-189.04523 0z" fill-rule="evenodd"/><path fill="#000000" d="m86.52695 231.06659q-0.75 1.9375 -2.25 3.625l-0.6875 -0.9375q1.4375 -1.75 2.1875 -3.6875q-0.9375 -1.375 -1.9375 -2.6875l0.625 -0.625q0.875 1.0 1.5625 1.9375q0.25 -1.5 0.375 -3.0625l1.0625 0.25q0.5 0.1875 -0.0625 0.375q-0.1875 1.5 -0.5 3.4375q0.875 1.1875 1.625 2.3125l-0.625 1.0625q-0.6875 -1.0 -1.375 -2.0zm-3.25 -6.375l0 11.5625l-1.25 0l0 -12.75l12.9375 0l0 11.625q0 1.0 -0.9375 1.0l-1.5625 0l-0.25 -1.1875l1.3125 0q0.1875 0 0.1875 -0.1875l0 -10.0625l-10.4375 0zm7.375 4.375q0.375 -1.875 0.5 -3.5l1.0 0.125q0.625 0.1875 0 0.4375q-0.1875 1.75 -0.6875 3.875q0.9375 1.3125 1.625 2.5l-0.625 1.0q-0.75 -1.25 -1.4375 -2.3125q-0.9375 2.4375 -2.1875 3.75l-0.6875 -1.0q1.25 -1.3125 2.0625 -3.6875q-0.9375 -1.5 -1.875 -2.625l0.625 -0.6875q0.75 0.875 1.6875 2.125z" fill-rule="nonzero"/><path fill="#000000" d="m102.58945 227.62909q0.6875 -0.75 1.125 -1.5q0.4375 -0.75 0.84375 -1.65625q0.40625 -0.90625 0.65625 -2.09375q0.6875 0.3125 1.5 0.4375q-0.375 0.5625 -0.8125 1.4375l5.0625 0q-0.9375 1.875 -1.5625 2.8125q-0.625 0.9375 -1.3125 1.6875q0.8125 0.5625 1.9375 0.9375q1.125 0.375 2.0625 0.5625q-0.3125 0.5 -0.625 1.3125q-0.625 -0.1875 -1.125 -0.375q-0.125 0.875 -0.125 1.625l0 2.25q0 0.9375 0.0625 1.9375l-1.1875 0l0 -1.1875l-3.75 0l0 1.3125l-1.1875 0q0.0625 -0.9375 0.0625 -1.75l0 -2.5q0 -0.5 -0.0625 -1.6875q-0.375 0.1875 -1.0625 0.4375q-0.25 -0.6875 -0.6875 -1.1875q0.9375 -0.25 2.09375 -0.71875q1.15625 -0.46875 1.84375 -1.03125q-0.8125 -1.0625 -1.375 -2.375q-0.6875 1.0625 -1.375 2.0q-0.375 -0.375 -1.0 -0.6875zm-1.4375 -4.0625q-0.4375 0.5625 -1.0 1.71875q-0.5625 1.15625 -1.3125 2.46875l1.75 0q0.6875 -1.3125 1.0 -2.3125q0.625 0.5 1.25 0.8125q-0.375 0.4375 -1.125 1.78125q-0.75 1.34375 -2.0625 3.53125q1.875 -0.3125 2.6875 -0.4375q-0.0625 0.8125 0 1.1875q-1.5 0.1875 -2.3125 0.34375q-0.8125 0.15625 -1.875 0.40625q-0.1875 -0.6875 -0.4375 -1.1875q0.625 -0.25 1.21875 -1.125q0.59375 -0.875 1.21875 -2.125q-1.6875 0.0625 -2.5625 0.4375q-0.1875 -0.5625 -0.4375 -1.25q0.75 -0.375 1.5 -1.90625q0.75 -1.53125 1.125 -3.03125q0.6875 0.4375 1.375 0.6875zm7.9375 11.25l0 -2.6875l-3.75 0l0 2.6875l3.75 0zm-6.5625 -1.1875q0.125 0.625 0.125 1.125q-0.6875 0.125 -1.96875 0.5625q-1.28125 0.4375 -2.46875 0.9375q-0.25 -0.75 -0.5625 -1.375q1.5625 -0.3125 2.59375 -0.5625q1.03125 -0.25 2.28125 -0.6875zm4.75 -5.6875q0.375 -0.375 0.90625 -1.125q0.53125 -0.75 0.90625 -1.5625l-3.375 0q0.625 1.5625 1.5625 2.6875zm3.0 3.1875q-0.875 -0.375 -1.65625 -0.75q-0.78125 -0.375 -1.46875 -0.875q-0.75 0.5 -1.40625 0.875q-0.65625 0.375 -1.46875 0.75l6.0 0zm8.0 -2.0625q1.0 0.0625 2.25 0.0625l5.625 0q-0.375 1.125 -1.03125 2.46875q-0.65625 1.34375 -1.78125 2.65625q2.0 1.3125 4.625 1.375q-0.5 0.5625 -0.75 1.3125q-2.6875 -0.5625 -4.8125 -1.9375q-0.8125 0.5 -1.9375 1.09375q-1.125 0.59375 -2.4375 0.96875q-0.25 -0.5 -0.9375 -0.9375q1.375 -0.25 2.59375 -0.8125q1.21875 -0.5625 1.84375 -1.125q-1.375 -1.4375 -2.25 -4.0625l-1.0 0l0 -1.0625zm6.375 -0.625q-1.0625 0 -1.125 -0.875l0 -3.5l-2.75 0q0 1.75 -0.40625 2.75q-0.40625 1.0 -1.71875 2.0625q-0.25 -0.4375 -1.0 -0.75q1.5625 -1.0625 1.78125 -2.4375q0.21875 -1.375 0.15625 -2.625l5.25 0q-0.0625 0.75 -0.0625 1.875l0 1.6875q0 0.5 0.34375 0.59375q0.34375 0.09375 0.96875 0.0625q0.625 -0.03125 1.4375 -0.09375q-0.125 0.625 0 1.25l-2.875 0zm-7.9375 -1.125q-0.0625 1.125 -0.0625 2.5l0 3.8125q0.8125 -0.75 1.375 -1.5q0.1875 0.625 0.625 1.3125q-0.8125 0.75 -1.5 1.4375q-0.6875 0.6875 -1.25 1.5q-0.4375 -0.6875 -0.9375 -1.0625q0.5 -0.5 0.5 -1.4375l0 -5.5q-1.3125 0 -2.1875 0.0625l0 -1.1875q0.8125 0.0625 1.6875 0.0625l1.75 0zm5.75 6.0625q1.25 -1.25 1.9375 -3.25l-3.875 0q0.4375 1.9375 1.9375 3.25zm-7.3125 -10.9375q1.0 0.8125 2.4375 2.5625q-0.5 0.3125 -1.0 0.8125q-1.0625 -1.4375 -2.25 -2.5625q0.375 -0.25 0.8125 -0.8125zm26.1875 7.875q-0.0625 1.125 -0.0625 3.3125q0 2.125 0.0625 3.3125l-1.1875 0l0 -0.8125l-7.0625 0l0 0.8125l-1.1875 0q0.0625 -1.1875 0.0625 -3.3125q0 -2.1875 -0.0625 -3.3125l9.4375 0zm-11.4375 0.375q-0.125 -0.5625 -0.6875 -1.1875q1.5625 -0.125 3.40625 -0.5q1.84375 -0.375 2.96875 -1.0q-1.4375 -1.1875 -2.375 -2.125q-0.75 0.75 -1.75 1.625q-0.5625 -0.5 -1.0 -0.6875q2.4375 -1.875 3.8125 -4.6875q0.625 0.375 1.3125 0.625l-0.5 0.5q-0.1875 0.1875 -0.625 0.75l6.9375 0q-0.5625 1.0625 -1.46875 2.09375q-0.90625 1.03125 -2.15625 1.96875q1.0 0.5 2.90625 0.8125q1.90625 0.3125 3.34375 0.1875q-0.375 0.625 -0.5625 1.3125q-2.25 -0.25 -3.75 -0.53125q-1.5 -0.28125 -3.0625 -1.09375q-1.75 0.8125 -3.65625 1.25q-1.90625 0.4375 -3.09375 0.6875zm3.9375 -5.625q1.3125 1.25 2.9375 2.375q1.3125 -0.8125 2.75 -2.5625l-5.5 0l-0.1875 0.1875zm6.3125 7.6875l0 -1.5l-3.0 0l0 1.5l3.0 0zm-4.125 0l0 -1.5l-2.9375 0l0 1.5l2.9375 0zm4.125 2.375l0 -1.4375l-3.0 0l0 1.4375l3.0 0zm-4.125 0l0 -1.4375l-2.9375 0l0 1.4375l2.9375 0z" fill-rule="nonzero"/><path fill="#000000" d="m155.77695 233.06659q1.0 1.25 3.75 2.25l-0.625 1.375q-4.875 -1.625 -6.1875 -6.875l-0.375 0q-0.625 0.875 -1.3125 1.5625l0 3.5l3.5625 -0.6875l0.1875 1.0625q-3.375 0.8125 -6.625 1.4375q-0.1875 0.5625 -0.375 0.1875l-0.4375 -1.5l2.4375 -0.3125l0 -2.6875q-1.625 1.125 -3.625 1.8125l-0.625 -1.25q3.125 -0.875 5.3125 -3.125l-5.0 0l0 -1.1875l6.0625 0l0 -1.125l-4.5 0l0 -1.1875l4.5 0l0 -1.125l-5.3125 0l0 -1.1875l5.3125 0l0 -1.5l1.1875 0q0.5 0.0625 0.0625 0.375l0 1.125l5.3125 0l0 1.1875l-5.3125 0l0 1.125l4.5 0l0 1.1875l-4.5 0l0 1.125l6.0625 0l0 1.1875l-5.3125 0q0.375 1.1875 1.25 2.5q1.1875 -1.0 2.25 -2.1875l0.9375 0.9375q0.0625 0.3125 -0.3125 0.1875q-1.0625 1.0 -2.25 1.8125z" fill-rule="nonzero"/><path fill="#000000" fill-opacity="0.0" d="m32.115376 360.78394l598.3036 0l0 42.018066l-598.3036 0z" fill-rule="evenodd"/><path fill="#000000" d="m47.646626 378.71954l0 -1.40625l9.5 0l0 1.40625l-3.703125 0q-0.234375 0.8125 -0.453125 1.5625l4.375 0l0 8.90625l-1.484375 0l0 -0.59375l-6.15625 0l0 0.59375l-1.484375 0l0 -8.90625l3.265625 0q0.15625 -0.96875 0.296875 -1.5625l-4.15625 0zm3.71875 -4.890625l7.34375 0l0 3.109375l-1.484375 0l0 -1.703125l-13.0625 0l0 2.21875l-1.484375 0l0 -3.625l7.203125 0l0 -1.640625l1.40625 0q0.59375 0.078125 0.078125 0.453125l0 1.1875zm-4.015625 2.890625q0.296875 0.296875 -0.21875 0.375q-0.453125 1.546875 -1.265625 3.03125l0 9.0625l-1.484375 0l0 -6.984375q-0.734375 1.046875 -1.5625 1.859375l-0.890625 -1.484375q2.53125 -2.296875 4.015625 -6.609375l1.40625 0.75zm2.375 4.96875l0 1.9375l6.15625 0l0 -1.9375l-6.15625 0zm0 3.34375l0 2.15625l6.15625 0l0 -2.15625l-6.15625 0zm20.562504 2.0l7.34375 0l0 1.421875l-16.031254 0l0 -1.421875l7.203129 0l0 -4.59375l-5.125004 0l0 -1.421875l5.125004 0l0 -3.625l-6.531254 0l0 -1.421875l7.265629 0q-1.1875 -1.40625 -2.671875 -2.4375l1.265625 -1.125q1.484375 0.96875 2.96875 2.53125l-1.328125 1.03125l7.046875 0l0 1.421875l-6.53125 0l0 3.625l5.125 0l0 1.421875l-5.125 0l0 4.59375zm15.359375 0.828125q2.75 -1.265625 2.75 -5.578125l0 -8.53125l5.78125 0l0 12.84375q0 0.59375 0.53125 0.59375l0.4375 0q0.375 0 0.453125 -0.53125l0.140625 -1.546875l1.5625 0.59375l-0.296875 1.84375q-0.15625 1.046875 -1.1875 1.046875l-1.78125 0q-1.34375 0 -1.34375 -1.265625l0 -12.171875l-2.8125 0l0 7.046875q0 5.34375 -3.1875 7.0625l-1.046875 -1.40625zm-0.4375 1.40625l-1.484375 0l0 -7.578125q-1.046875 2.375 -2.609375 4.078125l-0.953125 -1.625q2.96875 -3.046875 3.40625 -6.3125l-2.96875 0l0 -1.40625l3.125 0l0 -3.9375l1.40625 0q0.734375 0.078125 0.078125 0.453125l0 3.484375l2.59375 0l0 1.40625l-2.59375 0l0 2.234375q1.328125 0.59375 2.671875 1.625l-0.828125 1.703125q-0.890625 -0.953125 -1.84375 -1.78125l0 7.65625z" fill-rule="nonzero"/><path fill="#ffffff" d="m311.5431 84.40419l0 0c0 -20.270454 16.432465 -36.70291 36.70291 -36.70291l146.80725 0l0 0c9.734222 0 19.069733 3.8669014 25.952911 10.750034c6.8831177 6.883129 10.75 16.218662 10.75 25.952877l0 195.77242c0 20.270447 -16.432434 36.70291 -36.70291 36.70291l-146.80725 0c-20.270447 0 -36.70291 -16.432465 -36.70291 -36.70291z" fill-rule="evenodd"/><path stroke="#434343" stroke-width="1.0" stroke-linejoin="round" stroke-linecap="butt" d="m311.5431 84.40419l0 0c0 -20.270454 16.432465 -36.70291 36.70291 -36.70291l146.80725 0l0 0c9.734222 0 19.069733 3.8669014 25.952911 10.750034c6.8831177 6.883129 10.75 16.218662 10.75 25.952877l0 195.77242c0 20.270447 -16.432434 36.70291 -36.70291 36.70291l-146.80725 0c-20.270447 0 -36.70291 -16.432465 -36.70291 -36.70291z" fill-rule="evenodd"/><path fill="#000000" fill-opacity="0.0" d="m327.12585 66.55643l213.84363 0l0 42.018066l-213.84363 0z" fill-rule="evenodd"/><path fill="#000000" d="m337.54773 93.476425l0 -13.359375l1.8125 0l7.015625 10.484375l0 -10.484375l1.6875 0l0 13.359375l-1.8125 0l-7.015625 -10.5l0 10.5l-1.6875 0zm19.91043 -3.109375l1.6875 0.203125q-0.40625 1.484375 -1.484375 2.3125q-1.078125 0.8125 -2.765625 0.8125q-2.125 0 -3.375 -1.296875q-1.234375 -1.3125 -1.234375 -3.671875q0 -2.453125 1.25 -3.796875q1.265625 -1.34375 3.265625 -1.34375q1.9375 0 3.15625 1.328125q1.234375 1.3125 1.234375 3.703125q0 0.15625 0 0.4375l-7.21875 0q0.09375 1.59375 0.90625 2.453125q0.8125 0.84375 2.015625 0.84375q0.90625 0 1.546875 -0.46875q0.640625 -0.484375 1.015625 -1.515625zm-5.390625 -2.65625l5.40625 0q-0.109375 -1.21875 -0.625 -1.828125q-0.78125 -0.953125 -2.03125 -0.953125q-1.125 0 -1.90625 0.765625q-0.765625 0.75 -0.84375 2.015625zm12.719482 4.296875l0.234375 1.453125q-0.6875 0.140625 -1.234375 0.140625q-0.890625 0 -1.390625 -0.28125q-0.484375 -0.28125 -0.6875 -0.734375q-0.203125 -0.46875 -0.203125 -1.9375l0 -5.578125l-1.203125 0l0 -1.265625l1.203125 0l0 -2.390625l1.625 -0.984375l0 3.375l1.65625 0l0 1.265625l-1.65625 0l0 5.671875q0 0.6875 0.078125 0.890625q0.09375 0.203125 0.28125 0.328125q0.203125 0.109375 0.578125 0.109375q0.265625 0 0.71875 -0.0625zm3.3864136 1.46875l-2.96875 -9.671875l1.703125 0l1.53125 5.578125l0.578125 2.078125q0.046875 -0.15625 0.5 -2.0l1.546875 -5.65625l1.6875 0l1.4375 5.609375l0.484375 1.84375l0.5625 -1.859375l1.65625 -5.59375l1.59375 0l-3.03125 9.671875l-1.703125 0l-1.53125 -5.796875l-0.375 -1.640625l-1.953125 7.4375l-1.71875 0zm11.082336 -4.84375q0 -2.6875 1.484375 -3.96875q1.25 -1.078125 3.046875 -1.078125q2.0 0 3.265625 1.3125q1.265625 1.296875 1.265625 3.609375q0 1.859375 -0.5625 2.9375q-0.5625 1.0625 -1.640625 1.65625q-1.0625 0.59375 -2.328125 0.59375q-2.03125 0 -3.28125 -1.296875q-1.25 -1.3125 -1.25 -3.765625zm1.6875 0q0 1.859375 0.796875 2.796875q0.8125 0.921875 2.046875 0.921875q1.21875 0 2.03125 -0.921875q0.8125 -0.9375 0.8125 -2.84375q0 -1.796875 -0.8125 -2.71875q-0.8125 -0.921875 -2.03125 -0.921875q-1.234375 0 -2.046875 0.921875q-0.796875 0.90625 -0.796875 2.765625zm9.281952 4.84375l0 -9.671875l1.46875 0l0 1.46875q0.5625 -1.03125 1.03125 -1.359375q0.484375 -0.328125 1.0625 -0.328125q0.828125 0 1.6875 0.53125l-0.5625 1.515625q-0.609375 -0.359375 -1.203125 -0.359375q-0.546875 0 -0.96875 0.328125q-0.421875 0.328125 -0.609375 0.890625q-0.28125 0.875 -0.28125 1.921875l0 5.0625l-1.625 0zm6.228302 0l0 -13.359375l1.640625 0l0 7.625l3.890625 -3.9375l2.109375 0l-3.6875 3.59375l4.0625 6.078125l-2.015625 0l-3.203125 -4.953125l-1.15625 1.125l0 3.828125l-1.640625 0zm14.511444 0l0 -9.671875l1.46875 0l0 1.375q1.0625 -1.59375 3.078125 -1.59375q0.875 0 1.609375 0.3125q0.734375 0.3125 1.09375 0.828125q0.375 0.5 0.515625 1.203125q0.09375 0.453125 0.09375 1.59375l0 5.953125l-1.640625 0l0 -5.890625q0 -1.0 -0.203125 -1.484375q-0.1875 -0.5 -0.671875 -0.796875q-0.484375 -0.296875 -1.140625 -0.296875q-1.046875 0 -1.8125 0.671875q-0.75 0.65625 -0.75 2.515625l0 5.28125l-1.640625 0zm16.688202 -1.1875q-0.921875 0.765625 -1.765625 1.09375q-0.828125 0.3125 -1.796875 0.3125q-1.59375 0 -2.453125 -0.78125q-0.859375 -0.78125 -0.859375 -1.984375q0 -0.71875 0.328125 -1.296875q0.328125 -0.59375 0.84375 -0.9375q0.53125 -0.359375 1.1875 -0.546875q0.46875 -0.125 1.453125 -0.25q1.984375 -0.234375 2.921875 -0.5625q0.015625 -0.34375 0.015625 -0.421875q0 -1.0 -0.46875 -1.421875q-0.625 -0.546875 -1.875 -0.546875q-1.15625 0 -1.703125 0.40625q-0.546875 0.40625 -0.8125 1.421875l-1.609375 -0.21875q0.21875 -1.015625 0.71875 -1.640625q0.5 -0.640625 1.453125 -0.984375q0.953125 -0.34375 2.1875 -0.34375q1.25 0 2.015625 0.296875q0.78125 0.28125 1.140625 0.734375q0.375 0.4375 0.515625 1.109375q0.078125 0.421875 0.078125 1.515625l0 2.1875q0 2.28125 0.109375 2.890625q0.109375 0.59375 0.40625 1.15625l-1.703125 0q-0.265625 -0.515625 -0.328125 -1.1875zm-0.140625 -3.671875q-0.890625 0.375 -2.671875 0.625q-1.015625 0.140625 -1.4375 0.328125q-0.421875 0.1875 -0.65625 0.53125q-0.21875 0.34375 -0.21875 0.78125q0 0.65625 0.5 1.09375q0.5 0.4375 1.453125 0.4375q0.9375 0 1.671875 -0.40625q0.75 -0.421875 1.09375 -1.140625q0.265625 -0.5625 0.265625 -1.640625l0 -0.609375zm4.2038574 4.859375l0 -9.671875l1.46875 0l0 1.359375q0.453125 -0.71875 1.203125 -1.140625q0.765625 -0.4375 1.71875 -0.4375q1.078125 0 1.765625 0.453125q0.6875 0.4375 0.96875 1.234375q1.15625 -1.6875 2.984375 -1.6875q1.453125 0 2.21875 0.796875q0.78125 0.796875 0.78125 2.453125l0 6.640625l-1.640625 0l0 -6.09375q0 -0.984375 -0.15625 -1.40625q-0.15625 -0.4375 -0.578125 -0.703125q-0.421875 -0.265625 -0.984375 -0.265625q-1.015625 0 -1.6875 0.6875q-0.671875 0.671875 -0.671875 2.15625l0 5.625l-1.640625 0l0 -6.28125q0 -1.09375 -0.40625 -1.640625q-0.40625 -0.546875 -1.3125 -0.546875q-0.6875 0 -1.28125 0.359375q-0.59375 0.359375 -0.859375 1.0625q-0.25 0.703125 -0.25 2.03125l0 5.015625l-1.640625 0zm22.165802 -3.109375l1.6875 0.203125q-0.40625 1.484375 -1.484375 2.3125q-1.078125 0.8125 -2.765625 0.8125q-2.125 0 -3.375 -1.296875q-1.234375 -1.3125 -1.234375 -3.671875q0 -2.453125 1.25 -3.796875q1.265625 -1.34375 3.265625 -1.34375q1.9375 0 3.15625 1.328125q1.234375 1.3125 1.234375 3.703125q0 0.15625 0 0.4375l-7.21875 0q0.09375 1.59375 0.90625 2.453125q0.8125 0.84375 2.015625 0.84375q0.90625 0 1.546875 -0.46875q0.640625 -0.484375 1.015625 -1.515625zm-5.390625 -2.65625l5.40625 0q-0.109375 -1.21875 -0.625 -1.828125q-0.78125 -0.953125 -2.03125 -0.953125q-1.125 0 -1.90625 0.765625q-0.765625 0.75 -0.84375 2.015625zm8.485077 2.875l1.625 -0.25q0.125 0.96875 0.75 1.5q0.625 0.515625 1.75 0.515625q1.125 0 1.671875 -0.453125q0.546875 -0.46875 0.546875 -1.09375q0 -0.546875 -0.484375 -0.875q-0.328125 -0.21875 -1.671875 -0.546875q-1.8125 -0.46875 -2.515625 -0.796875q-0.6875 -0.328125 -1.046875 -0.90625q-0.359375 -0.59375 -0.359375 -1.3125q0 -0.640625 0.296875 -1.1875q0.296875 -0.5625 0.8125 -0.921875q0.375 -0.28125 1.03125 -0.46875q0.671875 -0.203125 1.421875 -0.203125q1.140625 0 2.0 0.328125q0.859375 0.328125 1.265625 0.890625q0.421875 0.5625 0.578125 1.5l-1.609375 0.21875q-0.109375 -0.75 -0.640625 -1.171875q-0.515625 -0.421875 -1.46875 -0.421875q-1.140625 0 -1.625 0.375q-0.46875 0.375 -0.46875 0.875q0 0.3125 0.1875 0.578125q0.203125 0.265625 0.640625 0.4375q0.234375 0.09375 1.4375 0.421875q1.75 0.453125 2.4375 0.75q0.6875 0.296875 1.078125 0.859375q0.390625 0.5625 0.390625 1.40625q0 0.828125 -0.484375 1.546875q-0.46875 0.71875 -1.375 1.125q-0.90625 0.390625 -2.046875 0.390625q-1.875 0 -2.875 -0.78125q-0.984375 -0.78125 -1.25 -2.328125zm9.984375 6.59375l0 -13.375l1.484375 0l0 1.25q0.53125 -0.734375 1.1875 -1.09375q0.671875 -0.375 1.625 -0.375q1.234375 0 2.171875 0.640625q0.953125 0.625 1.4375 1.796875q0.484375 1.15625 0.484375 2.546875q0 1.484375 -0.53125 2.671875q-0.53125 1.1875 -1.546875 1.828125q-1.015625 0.625 -2.140625 0.625q-0.8125 0 -1.46875 -0.34375q-0.65625 -0.34375 -1.0625 -0.875l0 4.703125l-1.640625 0zm1.484375 -8.484375q0 1.859375 0.75 2.765625q0.765625 0.890625 1.828125 0.890625q1.09375 0 1.875 -0.921875q0.78125 -0.9375 0.78125 -2.875q0 -1.84375 -0.765625 -2.765625q-0.75 -0.921875 -1.8125 -0.921875q-1.046875 0 -1.859375 0.984375q-0.796875 0.96875 -0.796875 2.84375zm15.203857 3.59375q-0.921875 0.765625 -1.765625 1.09375q-0.828125 0.3125 -1.796875 0.3125q-1.59375 0 -2.453125 -0.78125q-0.859375 -0.78125 -0.859375 -1.984375q0 -0.71875 0.328125 -1.296875q0.328125 -0.59375 0.84375 -0.9375q0.53125 -0.359375 1.1875 -0.546875q0.46875 -0.125 1.453125 -0.25q1.984375 -0.234375 2.921875 -0.5625q0.015625 -0.34375 0.015625 -0.421875q0 -1.0 -0.46875 -1.421875q-0.625 -0.546875 -1.875 -0.546875q-1.15625 0 -1.703125 0.40625q-0.546875 0.40625 -0.8125 1.421875l-1.609375 -0.21875q0.21875 -1.015625 0.71875 -1.640625q0.5 -0.640625 1.453125 -0.984375q0.953125 -0.34375 2.1875 -0.34375q1.25 0 2.015625 0.296875q0.78125 0.28125 1.140625 0.734375q0.375 0.4375 0.515625 1.109375q0.078125 0.421875 0.078125 1.515625l0 2.1875q0 2.28125 0.109375 2.890625q0.109375 0.59375 0.40625 1.15625l-1.703125 0q-0.265625 -0.515625 -0.328125 -1.1875zm-0.140625 -3.671875q-0.890625 0.375 -2.671875 0.625q-1.015625 0.140625 -1.4375 0.328125q-0.421875 0.1875 -0.65625 0.53125q-0.21875 0.34375 -0.21875 0.78125q0 0.65625 0.5 1.09375q0.5 0.4375 1.453125 0.4375q0.9375 0 1.671875 -0.40625q0.75 -0.421875 1.09375 -1.140625q0.265625 -0.5625 0.265625 -1.640625l0 -0.609375zm10.516327 1.3125l1.609375 0.21875q-0.265625 1.65625 -1.359375 2.609375q-1.078125 0.9375 -2.671875 0.9375q-1.984375 0 -3.1875 -1.296875q-1.203125 -1.296875 -1.203125 -3.71875q0 -1.578125 0.515625 -2.75q0.515625 -1.171875 1.578125 -1.75q1.0625 -0.59375 2.3125 -0.59375q1.578125 0 2.578125 0.796875q1.0 0.796875 1.28125 2.265625l-1.59375 0.234375q-0.234375 -0.96875 -0.8125 -1.453125q-0.578125 -0.5 -1.390625 -0.5q-1.234375 0 -2.015625 0.890625q-0.78125 0.890625 -0.78125 2.8125q0 1.953125 0.75 2.84375q0.75 0.875 1.953125 0.875q0.96875 0 1.609375 -0.59375q0.65625 -0.59375 0.828125 -1.828125zm9.640625 0.4375l1.6875 0.203125q-0.40625 1.484375 -1.484375 2.3125q-1.078125 0.8125 -2.765625 0.8125q-2.125 0 -3.375 -1.296875q-1.234375 -1.3125 -1.234375 -3.671875q0 -2.453125 1.25 -3.796875q1.265625 -1.34375 3.265625 -1.34375q1.9375 0 3.15625 1.328125q1.234375 1.3125 1.234375 3.703125q0 0.15625 0 0.4375l-7.21875 0q0.09375 1.59375 0.90625 2.453125q0.8125 0.84375 2.015625 0.84375q0.90625 0 1.546875 -0.46875q0.640625 -0.484375 1.015625 -1.515625zm-5.390625 -2.65625l5.40625 0q-0.109375 -1.21875 -0.625 -1.828125q-0.78125 -0.953125 -2.03125 -0.953125q-1.125 0 -1.90625 0.765625q-0.765625 0.75 -0.84375 2.015625zm17.297607 4.1875l0 1.578125l-8.828125 0q-0.015625 -0.59375 0.1875 -1.140625q0.34375 -0.90625 1.078125 -1.78125q0.75 -0.875 2.15625 -2.015625q2.171875 -1.78125 2.9375 -2.828125q0.765625 -1.046875 0.765625 -1.96875q0 -0.984375 -0.703125 -1.640625q-0.6875 -0.671875 -1.8125 -0.671875q-1.1875 0 -1.90625 0.71875q-0.703125 0.703125 -0.703125 1.953125l-1.6875 -0.171875q0.171875 -1.890625 1.296875 -2.875q1.140625 -0.984375 3.03125 -0.984375q1.921875 0 3.046875 1.0625q1.125 1.0625 1.125 2.640625q0 0.796875 -0.328125 1.578125q-0.328125 0.78125 -1.09375 1.640625q-0.75 0.84375 -2.53125 2.34375q-1.46875 1.234375 -1.890625 1.6875q-0.421875 0.4375 -0.6875 0.875l6.546875 0z" fill-rule="nonzero"/><path fill="#efefef" d="m329.20297 119.97454l189.04526 0l0 42.931496l-189.04526 0z" fill-rule="evenodd"/><path fill="#000000" d="m339.26547 137.45654l0 -1.609375l1.40625 0l0 1.609375l-1.40625 0zm0 9.84375l0 -8.296875l1.40625 0l0 8.296875l-1.40625 0zm3.5546875 3.1875l0 -11.484375l1.28125 0l0 1.078125q0.453125 -0.640625 1.015625 -0.953125q0.578125 -0.3125 1.390625 -0.3125q1.0625 0 1.875 0.546875q0.8125 0.546875 1.21875 1.546875q0.421875 0.984375 0.421875 2.171875q0 1.28125 -0.46875 2.296875q-0.453125 1.015625 -1.328125 1.5625q-0.859375 0.546875 -1.828125 0.546875q-0.703125 0 -1.265625 -0.296875q-0.546875 -0.296875 -0.90625 -0.75l0 4.046875l-1.40625 0zm1.265625 -7.296875q0 1.609375 0.640625 2.375q0.65625 0.765625 1.578125 0.765625q0.9375 0 1.609375 -0.796875q0.671875 -0.796875 0.671875 -2.453125q0 -1.59375 -0.65625 -2.375q-0.65625 -0.796875 -1.5625 -0.796875q-0.890625 0 -1.59375 0.84375q-0.6875 0.84375 -0.6875 2.4375zm10.6953125 2.84375l0.203125 1.25q-0.59375 0.125 -1.0625 0.125q-0.765625 0 -1.1875 -0.234375q-0.421875 -0.25 -0.59375 -0.640625q-0.171875 -0.40625 -0.171875 -1.671875l0 -4.765625l-1.03125 0l0 -1.09375l1.03125 0l0 -2.0625l1.40625 -0.84375l0 2.90625l1.40625 0l0 1.09375l-1.40625 0l0 4.84375q0 0.609375 0.0625 0.78125q0.078125 0.171875 0.25 0.28125q0.171875 0.09375 0.484375 0.09375q0.234375 0 0.609375 -0.0625zm6.7890625 0.234375q-0.78125 0.671875 -1.5 0.953125q-0.71875 0.265625 -1.546875 0.265625q-1.375 0 -2.109375 -0.671875q-0.734375 -0.671875 -0.734375 -1.703125q0 -0.609375 0.28125 -1.109375q0.28125 -0.515625 0.71875 -0.8125q0.453125 -0.3125 1.015625 -0.46875q0.421875 -0.109375 1.25 -0.203125q1.703125 -0.203125 2.515625 -0.484375q0 -0.296875 0 -0.375q0 -0.859375 -0.390625 -1.203125q-0.546875 -0.484375 -1.609375 -0.484375q-0.984375 0 -1.46875 0.359375q-0.46875 0.34375 -0.6875 1.21875l-1.375 -0.1875q0.1875 -0.875 0.609375 -1.421875q0.4375 -0.546875 1.25 -0.828125q0.8125 -0.296875 1.875 -0.296875q1.0625 0 1.71875 0.25q0.671875 0.25 0.984375 0.625q0.3125 0.375 0.4375 0.953125q0.078125 0.359375 0.078125 1.296875l0 1.875q0 1.96875 0.078125 2.484375q0.09375 0.515625 0.359375 1.0l-1.46875 0q-0.21875 -0.4375 -0.28125 -1.03125zm-0.109375 -3.140625q-0.765625 0.3125 -2.296875 0.53125q-0.875 0.125 -1.234375 0.28125q-0.359375 0.15625 -0.5625 0.46875q-0.1875 0.296875 -0.1875 0.65625q0 0.5625 0.421875 0.9375q0.4375 0.375 1.25 0.375q0.8125 0 1.4375 -0.34375q0.640625 -0.359375 0.9375 -0.984375q0.234375 -0.46875 0.234375 -1.40625l0 -0.515625zm4.8984375 4.171875l-1.3125 0l0 -11.453125l1.40625 0l0 4.078125q0.890625 -1.109375 2.28125 -1.109375q0.765625 0 1.4375 0.3125q0.6875 0.296875 1.125 0.859375q0.453125 0.5625 0.703125 1.359375q0.25 0.78125 0.25 1.671875q0 2.140625 -1.0625 3.3125q-1.046875 1.15625 -2.53125 1.15625q-1.46875 0 -2.296875 -1.234375l0 1.046875zm-0.015625 -4.21875q0 1.5 0.40625 2.15625q0.65625 1.09375 1.796875 1.09375q0.921875 0 1.59375 -0.796875q0.671875 -0.8125 0.671875 -2.390625q0 -1.625 -0.65625 -2.390625q-0.640625 -0.78125 -1.546875 -0.78125q-0.921875 0 -1.59375 0.796875q-0.671875 0.796875 -0.671875 2.3125zm7.5859375 4.21875l0 -11.453125l1.40625 0l0 11.453125l-1.40625 0zm9.2578125 -2.671875l1.453125 0.171875q-0.34375 1.28125 -1.28125 1.984375q-0.921875 0.703125 -2.359375 0.703125q-1.828125 0 -2.890625 -1.125q-1.0625 -1.125 -1.0625 -3.140625q0 -2.09375 1.078125 -3.25q1.078125 -1.15625 2.796875 -1.15625q1.65625 0 2.703125 1.140625q1.0625 1.125 1.0625 3.171875q0 0.125 0 0.375l-6.1875 0q0.078125 1.375 0.765625 2.109375q0.703125 0.71875 1.734375 0.71875q0.78125 0 1.328125 -0.40625q0.546875 -0.40625 0.859375 -1.296875zm-4.609375 -2.28125l4.625 0q-0.09375 -1.046875 -0.53125 -1.5625q-0.671875 -0.8125 -1.734375 -0.8125q-0.96875 0 -1.640625 0.65625q-0.65625 0.640625 -0.71875 1.71875zm7.2734375 2.46875l1.390625 -0.21875q0.109375 0.84375 0.640625 1.296875q0.546875 0.4375 1.5 0.4375q0.96875 0 1.4375 -0.390625q0.46875 -0.40625 0.46875 -0.9375q0 -0.46875 -0.40625 -0.75q-0.296875 -0.1875 -1.4375 -0.46875q-1.546875 -0.390625 -2.15625 -0.671875q-0.59375 -0.296875 -0.90625 -0.796875q-0.296875 -0.5 -0.296875 -1.109375q0 -0.5625 0.25 -1.03125q0.25 -0.46875 0.6875 -0.78125q0.328125 -0.25 0.890625 -0.40625q0.578125 -0.171875 1.21875 -0.171875q0.984375 0 1.71875 0.28125q0.734375 0.28125 1.078125 0.765625q0.359375 0.46875 0.5 1.28125l-1.375 0.1875q-0.09375 -0.640625 -0.546875 -1.0q-0.453125 -0.359375 -1.265625 -0.359375q-0.96875 0 -1.390625 0.328125q-0.40625 0.3125 -0.40625 0.734375q0 0.28125 0.171875 0.5q0.171875 0.21875 0.53125 0.375q0.21875 0.078125 1.25 0.359375q1.484375 0.390625 2.078125 0.65625q0.59375 0.25 0.921875 0.734375q0.34375 0.484375 0.34375 1.203125q0 0.703125 -0.421875 1.328125q-0.40625 0.609375 -1.1875 0.953125q-0.765625 0.34375 -1.734375 0.34375q-1.625 0 -2.46875 -0.671875q-0.84375 -0.671875 -1.078125 -2.0z" fill-rule="nonzero"/><path fill="#000000" d="m402.48422 142.9878q1.5 1.125 2.8125 2.25q-0.5 0.5625 -0.9375 1.125q-0.875 -1.1875 -2.1875 -2.1875q-0.4375 1.0 -1.09375 2.15625q-0.65625 1.15625 -1.53125 2.28125q-0.5 -0.625 -1.25 -0.9375q0.8125 -0.5625 1.46875 -1.5q0.65625 -0.9375 1.125 -2.09375q0.46875 -1.15625 0.53125 -2.40625l-0.5625 0q-0.9375 0 -2.0625 0.0625l0 -1.125q1.125 0.0625 2.125 0.0625l0.5625 0l0 -2.6875q-1.25 0 -2.0625 0.0625l0 -1.125q0.875 0.0625 2.0625 0.0625q0 -2.125 -0.0625 -2.9375q0.6875 0.0625 1.5 0.1875q-0.25 0.375 -0.28125 1.21875q-0.03125 0.84375 -0.03125 1.53125q1.375 0 1.9375 -0.0625l0 1.125q-0.75 -0.0625 -1.9375 -0.0625l0 2.6875q1.6875 0 2.25 -0.0625l0 1.125q-0.5625 -0.0625 -2.3125 -0.0625q0 0.5 -0.0625 1.3125zm7.0 -4.9375q-0.1875 0.75 -0.3125 2.3125q-0.125 1.5625 -0.3125 2.75l1.0625 0q-0.0625 0.625 -0.0625 1.6875l0 1.75q0 0.8125 0.40625 0.9375q0.40625 0.125 0.84375 0.09375q0.4375 -0.03125 0.59375 -0.34375q0.15625 -0.3125 0.34375 -1.625q0.5 0.4375 1.25 0.6875q-0.5 1.6875 -0.84375 2.03125q-0.34375 0.34375 -1.15625 0.34375l-1.1875 0q-1.375 0 -1.375 -1.4375l0 -3.8125q-0.25 0.9375 -0.65625 1.6875q-0.40625 0.75 -1.375 1.6875q-0.96875 0.9375 -2.96875 2.0625q-0.375 -0.5625 -1.0625 -1.0q1.9375 -0.8125 3.09375 -1.875q1.15625 -1.0625 1.625 -2.125q0.46875 -1.0625 0.59375 -2.71875q0.125 -1.65625 0.125 -3.34375q0.8125 0.1875 1.375 0.25zm2.5625 -2.9375q-0.0625 1.0 -0.0625 4.0q0 3.0 0.0625 4.25l-1.1875 0l0 -7.1875l-4.4375 0l0 7.25l-1.125 0q0.0625 -1.4375 0.0625 -4.3125q0 -2.875 -0.0625 -4.0l6.75 0zm10.125 0q-0.0625 1.0 -0.0625 2.125l0 4.375q0 1.3125 0.0625 2.375l-1.3125 0l0 -7.8125l-4.1875 0l0 7.875l-1.375 0q0.0625 -1.0625 0.0625 -2.1875l0 -4.5625q0 -1.3125 -0.0625 -2.1875l6.875 0zm6.0625 -0.875q-0.0625 0.875 -0.0625 1.875l0 11.25q0 1.0 -0.53125 1.21875q-0.53125 0.21875 -1.90625 0.40625q-0.1875 -0.75 -0.5 -1.5q1.125 0 1.40625 -0.0625q0.28125 -0.0625 0.28125 -0.875l0 -10.4375q0 -1.0 -0.0625 -1.875l1.375 0zm-8.6875 3.5q-0.1875 0.75 -0.21875 1.59375q-0.03125 0.84375 -0.0625 2.375q-0.03125 1.53125 -0.46875 2.75q-0.4375 1.21875 -1.0 2.03125q-0.5625 0.8125 -2.1875 2.125q-0.5625 -0.5625 -1.25 -1.0625q1.5 -0.6875 2.28125 -1.6875q0.78125 -1.0 1.09375 -2.28125q0.3125 -1.28125 0.3125 -2.71875q0 -1.4375 -0.0625 -3.25q0.6875 0.125 1.5625 0.125zm5.75 -1.5625q-0.0625 0.6875 -0.0625 1.5625l0 5.375q0 1.25 0.0625 2.25l-1.375 0q0.0625 -1.0625 0.0625 -2.25l0 -5.375q0 -0.75 -0.0625 -1.5625l1.375 0zm-5.375 8.5625q0.8125 0.625 1.53125 1.21875q0.71875 0.59375 1.28125 1.09375q-0.4375 0.3125 -0.9375 1.0q-0.75 -0.75 -1.375 -1.3125q-0.625 -0.5625 -1.3125 -1.0625q0.4375 -0.4375 0.8125 -0.9375z" fill-rule="nonzero"/><path fill="#000000" d="m440.98422 144.9878q1.0 1.25 3.75 2.25l-0.625 1.375q-4.875 -1.625 -6.1875 -6.875l-0.375 0q-0.625 0.875 -1.3125 1.5625l0 3.5l3.5625 -0.6875l0.1875 1.0625q-3.375 0.8125 -6.625 1.4375q-0.1875 0.5625 -0.375 0.1875l-0.4375 -1.5l2.4375 -0.3125l0 -2.6875q-1.625 1.125 -3.625 1.8125l-0.625 -1.25q3.125 -0.875 5.3125 -3.125l-5.0 0l0 -1.1875l6.0625 0l0 -1.125l-4.5 0l0 -1.1875l4.5 0l0 -1.125l-5.3125 0l0 -1.1875l5.3125 0l0 -1.5l1.1875 0q0.5 0.0625 0.0625 0.375l0 1.125l5.3125 0l0 1.1875l-5.3125 0l0 1.125l4.5 0l0 1.1875l-4.5 0l0 1.125l6.0625 0l0 1.1875l-5.3125 0q0.375 1.1875 1.25 2.5q1.1875 -1.0 2.25 -2.1875l0.9375 0.9375q0.0625 0.3125 -0.3125 0.1875q-1.0625 1.0 -2.25 1.8125z" fill-rule="nonzero"/><path fill="#efefef" d="m329.20297 167.20442l189.04526 0l0 42.931503l-189.04526 0z" fill-rule="evenodd"/><path fill="#000000" d="m350.89047 193.96768l0 -2.8125l-3.125 0l0 2.8125l3.125 0zm1.25 1.6875l-1.25 0l0 -0.6875l-3.125 0l0 0.875l-1.25 0l0 -5.6875l5.625 0l0 5.5zm-4.4375 -11.625q0.3125 0.875 1.5625 2.25q1.125 -1.5 1.4375 -2.25l-3.0 0zm1.5625 4.0q-2.1875 2.0 -4.0625 2.6875l-0.5625 -1.25q1.75 -0.5625 3.8125 -2.375q-0.5 -0.5 -1.3125 -1.8125q-0.625 1.4375 -1.25 2.0625l-0.9375 -0.9375q1.5 -2.0 2.3125 -5.0l1.3125 0.375q0.25 0.25 -0.1875 0.3125l-0.3125 0.75l3.1875 0l0.1875 -0.3125l1.0 0.8125q0.25 0.1875 -0.25 0.375q-0.875 2.0 -2.0625 3.375q2.125 1.625 3.625 2.125l-0.5 1.375q-1.5 -0.5 -4.0 -2.5625zm-4.5625 -5.625l0 4.625l-1.5625 0l0 2.3125l1.4375 0l0 1.1875l-1.4375 0l0 2.875l2.1875 -0.6875l0.25 1.125l-5.75 1.625q-0.0625 0.5 -0.3125 0.25l-0.5 -1.375l0.75 -0.125l0 -5.8125l1.1875 0q0.5 0.0625 0.0625 0.375l0 5.125l0.875 -0.1875l0 -6.6875l-1.125 0l-1.0625 0l0 -4.625l5.0 0zm-1.25 3.625l0 -2.625l-2.5 0l0 2.625l2.5 0zm14.1875 7.5l4.0 0l0 -3.25l-4.0 0l0 3.25zm0 -4.4375l4.0 0l0 -3.25l-4.0 0l0 3.25zm9.25 0l0 -3.25l-4.0 0l0 3.25l4.0 0zm-4.0 4.4375l4.0 0l0 -3.25l-4.0 0l0 3.25zm-6.5 2.1875l0 -11.0625l5.25 0l0 -2.9375l1.1875 0q0.5 0.0625 0.0625 0.375l0 2.5625l5.25 0l0 10.8125l-1.25 0l0 -0.75l-9.25 0l0 1.0l-1.25 0z" fill-rule="nonzero"/><path fill="#000000" d="m374.89047 190.21768q1.5 1.125 2.8125 2.25q-0.5 0.5625 -0.9375 1.125q-0.875 -1.1875 -2.1875 -2.1875q-0.4375 1.0 -1.09375 2.15625q-0.65625 1.15625 -1.53125 2.28125q-0.5 -0.625 -1.25 -0.9375q0.8125 -0.5625 1.46875 -1.5q0.65625 -0.9375 1.125 -2.09375q0.46875 -1.15625 0.53125 -2.40625l-0.5625 0q-0.9375 0 -2.0625 0.0625l0 -1.125q1.125 0.0625 2.125 0.0625l0.5625 0l0 -2.6875q-1.25 0 -2.0625 0.0625l0 -1.125q0.875 0.0625 2.0625 0.0625q0 -2.125 -0.0625 -2.9375q0.6875 0.0625 1.5 0.1875q-0.25 0.375 -0.28125 1.21875q-0.03125 0.84375 -0.03125 1.53125q1.375 0 1.9375 -0.0625l0 1.125q-0.75 -0.0625 -1.9375 -0.0625l0 2.6875q1.6875 0 2.25 -0.0625l0 1.125q-0.5625 -0.0625 -2.3125 -0.0625q0 0.5 -0.0625 1.3125zm7.0 -4.9375q-0.1875 0.75 -0.3125 2.3125q-0.125 1.5625 -0.3125 2.75l1.0625 0q-0.0625 0.625 -0.0625 1.6875l0 1.75q0 0.8125 0.40625 0.9375q0.40625 0.125 0.84375 0.09375q0.4375 -0.03125 0.59375 -0.34375q0.15625 -0.3125 0.34375 -1.625q0.5 0.4375 1.25 0.6875q-0.5 1.6875 -0.84375 2.03125q-0.34375 0.34375 -1.15625 0.34375l-1.1875 0q-1.375 0 -1.375 -1.4375l0 -3.8125q-0.25 0.9375 -0.65625 1.6875q-0.40625 0.75 -1.375 1.6875q-0.96875 0.9375 -2.96875 2.0625q-0.375 -0.5625 -1.0625 -1.0q1.9375 -0.8125 3.09375 -1.875q1.15625 -1.0625 1.625 -2.125q0.46875 -1.0625 0.59375 -2.71875q0.125 -1.65625 0.125 -3.34375q0.8125 0.1875 1.375 0.25zm2.5625 -2.9375q-0.0625 1.0 -0.0625 4.0q0 3.0 0.0625 4.25l-1.1875 0l0 -7.1875l-4.4375 0l0 7.25l-1.125 0q0.0625 -1.4375 0.0625 -4.3125q0 -2.875 -0.0625 -4.0l6.75 0zm10.125 0q-0.0625 1.0 -0.0625 2.125l0 4.375q0 1.3125 0.0625 2.375l-1.3125 0l0 -7.8125l-4.1875 0l0 7.875l-1.375 0q0.0625 -1.0625 0.0625 -2.1875l0 -4.5625q0 -1.3125 -0.0625 -2.1875l6.875 0zm6.0625 -0.875q-0.0625 0.875 -0.0625 1.875l0 11.25q0 1.0 -0.53125 1.21875q-0.53125 0.21875 -1.90625 0.40625q-0.1875 -0.75 -0.5 -1.5q1.125 0 1.40625 -0.0625q0.28125 -0.0625 0.28125 -0.875l0 -10.4375q0 -1.0 -0.0625 -1.875l1.375 0zm-8.6875 3.5q-0.1875 0.75 -0.21875 1.59375q-0.03125 0.84375 -0.0625 2.375q-0.03125 1.53125 -0.46875 2.75q-0.4375 1.21875 -1.0 2.03125q-0.5625 0.8125 -2.1875 2.125q-0.5625 -0.5625 -1.25 -1.0625q1.5 -0.6875 2.28125 -1.6875q0.78125 -1.0 1.09375 -2.28125q0.3125 -1.28125 0.3125 -2.71875q0 -1.4375 -0.0625 -3.25q0.6875 0.125 1.5625 0.125zm5.75 -1.5625q-0.0625 0.6875 -0.0625 1.5625l0 5.375q0 1.25 0.0625 2.25l-1.375 0q0.0625 -1.0625 0.0625 -2.25l0 -5.375q0 -0.75 -0.0625 -1.5625l1.375 0zm-5.375 8.5625q0.8125 0.625 1.53125 1.21875q0.71875 0.59375 1.28125 1.09375q-0.4375 0.3125 -0.9375 1.0q-0.75 -0.75 -1.375 -1.3125q-0.625 -0.5625 -1.3125 -1.0625q0.4375 -0.4375 0.8125 -0.9375z" fill-rule="nonzero"/><path fill="#000000" d="m413.39047 192.21768q1.0 1.25 3.75 2.25l-0.625 1.375q-4.875 -1.625 -6.1875 -6.875l-0.375 0q-0.625 0.875 -1.3125 1.5625l0 3.5l3.5625 -0.6875l0.1875 1.0625q-3.375 0.8125 -6.625 1.4375q-0.1875 0.5625 -0.375 0.1875l-0.4375 -1.5l2.4375 -0.3125l0 -2.6875q-1.625 1.125 -3.625 1.8125l-0.625 -1.25q3.125 -0.875 5.3125 -3.125l-5.0 0l0 -1.1875l6.0625 0l0 -1.125l-4.5 0l0 -1.1875l4.5 0l0 -1.125l-5.3125 0l0 -1.1875l5.3125 0l0 -1.5l1.1875 0q0.5 0.0625 0.0625 0.375l0 1.125l5.3125 0l0 1.1875l-5.3125 0l0 1.125l4.5 0l0 1.1875l-4.5 0l0 1.125l6.0625 0l0 1.1875l-5.3125 0q0.375 1.1875 1.25 2.5q1.1875 -1.0 2.25 -2.1875l0.9375 0.9375q0.0625 0.3125 -0.3125 0.1875q-1.0625 1.0 -2.25 1.8125z" fill-rule="nonzero"/><path fill="#efefef" d="m329.20297 214.43312l189.04526 0l0 42.931503l-189.04526 0z" fill-rule="evenodd"/><path fill="#000000" d="m344.14047 237.44638q-0.75 1.9375 -2.25 3.625l-0.6875 -0.9375q1.4375 -1.75 2.1875 -3.6875q-0.9375 -1.375 -1.9375 -2.6875l0.625 -0.625q0.875 1.0 1.5625 1.9375q0.25 -1.5 0.375 -3.0625l1.0625 0.25q0.5 0.1875 -0.0625 0.375q-0.1875 1.5 -0.5 3.4375q0.875 1.1875 1.625 2.3125l-0.625 1.0625q-0.6875 -1.0 -1.375 -2.0zm-3.25 -6.375l0 11.5625l-1.25 0l0 -12.75l12.9375 0l0 11.625q0 1.0 -0.9375 1.0l-1.5625 0l-0.25 -1.1875l1.3125 0q0.1875 0 0.1875 -0.1875l0 -10.0625l-10.4375 0zm7.375 4.375q0.375 -1.875 0.5 -3.5l1.0 0.125q0.625 0.1875 0 0.4375q-0.1875 1.75 -0.6875 3.875q0.9375 1.3125 1.625 2.5l-0.625 1.0q-0.75 -1.25 -1.4375 -2.3125q-0.9375 2.4375 -2.1875 3.75l-0.6875 -1.0q1.25 -1.3125 2.0625 -3.6875q-0.9375 -1.5 -1.875 -2.625l0.625 -0.6875q0.75 0.875 1.6875 2.125z" fill-rule="nonzero"/><path fill="#000000" d="m360.20297 234.00888q0.6875 -0.75 1.125 -1.5q0.4375 -0.75 0.84375 -1.65625q0.40625 -0.90625 0.65625 -2.09375q0.6875 0.3125 1.5 0.4375q-0.375 0.5625 -0.8125 1.4375l5.0625 0q-0.9375 1.875 -1.5625 2.8125q-0.625 0.9375 -1.3125 1.6875q0.8125 0.5625 1.9375 0.9375q1.125 0.375 2.0625 0.5625q-0.3125 0.5 -0.625 1.3125q-0.625 -0.1875 -1.125 -0.375q-0.125 0.875 -0.125 1.625l0 2.25q0 0.9375 0.0625 1.9375l-1.1875 0l0 -1.1875l-3.75 0l0 1.3125l-1.1875 0q0.0625 -0.9375 0.0625 -1.75l0 -2.5q0 -0.5 -0.0625 -1.6875q-0.375 0.1875 -1.0625 0.4375q-0.25 -0.6875 -0.6875 -1.1875q0.9375 -0.25 2.09375 -0.71875q1.15625 -0.46875 1.84375 -1.03125q-0.8125 -1.0625 -1.375 -2.375q-0.6875 1.0625 -1.375 2.0q-0.375 -0.375 -1.0 -0.6875zm-1.4375 -4.0625q-0.4375 0.5625 -1.0 1.71875q-0.5625 1.15625 -1.3125 2.46875l1.75 0q0.6875 -1.3125 1.0 -2.3125q0.625 0.5 1.25 0.8125q-0.375 0.4375 -1.125 1.78125q-0.75 1.34375 -2.0625 3.53125q1.875 -0.3125 2.6875 -0.4375q-0.0625 0.8125 0 1.1875q-1.5 0.1875 -2.3125 0.34375q-0.8125 0.15625 -1.875 0.40625q-0.1875 -0.6875 -0.4375 -1.1875q0.625 -0.25 1.21875 -1.125q0.59375 -0.875 1.21875 -2.125q-1.6875 0.0625 -2.5625 0.4375q-0.1875 -0.5625 -0.4375 -1.25q0.75 -0.375 1.5 -1.90625q0.75 -1.53125 1.125 -3.03125q0.6875 0.4375 1.375 0.6875zm7.9375 11.25l0 -2.6875l-3.75 0l0 2.6875l3.75 0zm-6.5625 -1.1875q0.125 0.625 0.125 1.125q-0.6875 0.125 -1.96875 0.5625q-1.28125 0.4375 -2.46875 0.9375q-0.25 -0.75 -0.5625 -1.375q1.5625 -0.3125 2.59375 -0.5625q1.03125 -0.25 2.28125 -0.6875zm4.75 -5.6875q0.375 -0.375 0.90625 -1.125q0.53125 -0.75 0.90625 -1.5625l-3.375 0q0.625 1.5625 1.5625 2.6875zm3.0 3.1875q-0.875 -0.375 -1.65625 -0.75q-0.78125 -0.375 -1.46875 -0.875q-0.75 0.5 -1.40625 0.875q-0.65625 0.375 -1.46875 0.75l6.0 0zm8.0 -2.0625q1.0 0.0625 2.25 0.0625l5.625 0q-0.375 1.125 -1.03125 2.46875q-0.65625 1.34375 -1.78125 2.65625q2.0 1.3125 4.625 1.375q-0.5 0.5625 -0.75 1.3125q-2.6875 -0.5625 -4.8125 -1.9375q-0.8125 0.5 -1.9375 1.09375q-1.125 0.59375 -2.4375 0.96875q-0.25 -0.5 -0.9375 -0.9375q1.375 -0.25 2.59375 -0.8125q1.21875 -0.5625 1.84375 -1.125q-1.375 -1.4375 -2.25 -4.0625l-1.0 0l0 -1.0625zm6.375 -0.625q-1.0625 0 -1.125 -0.875l0 -3.5l-2.75 0q0 1.75 -0.40625 2.75q-0.40625 1.0 -1.71875 2.0625q-0.25 -0.4375 -1.0 -0.75q1.5625 -1.0625 1.78125 -2.4375q0.21875 -1.375 0.15625 -2.625l5.25 0q-0.0625 0.75 -0.0625 1.875l0 1.6875q0 0.5 0.34375 0.59375q0.34375 0.09375 0.96875 0.0625q0.625 -0.03125 1.4375 -0.09375q-0.125 0.625 0 1.25l-2.875 0zm-7.9375 -1.125q-0.0625 1.125 -0.0625 2.5l0 3.8125q0.8125 -0.75 1.375 -1.5q0.1875 0.625 0.625 1.3125q-0.8125 0.75 -1.5 1.4375q-0.6875 0.6875 -1.25 1.5q-0.4375 -0.6875 -0.9375 -1.0625q0.5 -0.5 0.5 -1.4375l0 -5.5q-1.3125 0 -2.1875 0.0625l0 -1.1875q0.8125 0.0625 1.6875 0.0625l1.75 0zm5.75 6.0625q1.25 -1.25 1.9375 -3.25l-3.875 0q0.4375 1.9375 1.9375 3.25zm-7.3125 -10.9375q1.0 0.8125 2.4375 2.5625q-0.5 0.3125 -1.0 0.8125q-1.0625 -1.4375 -2.25 -2.5625q0.375 -0.25 0.8125 -0.8125zm26.1875 7.875q-0.0625 1.125 -0.0625 3.3125q0 2.125 0.0625 3.3125l-1.1875 0l0 -0.8125l-7.0625 0l0 0.8125l-1.1875 0q0.0625 -1.1875 0.0625 -3.3125q0 -2.1875 -0.0625 -3.3125l9.4375 0zm-11.4375 0.375q-0.125 -0.5625 -0.6875 -1.1875q1.5625 -0.125 3.40625 -0.5q1.84375 -0.375 2.96875 -1.0q-1.4375 -1.1875 -2.375 -2.125q-0.75 0.75 -1.75 1.625q-0.5625 -0.5 -1.0 -0.6875q2.4375 -1.875 3.8125 -4.6875q0.625 0.375 1.3125 0.625l-0.5 0.5q-0.1875 0.1875 -0.625 0.75l6.9375 0q-0.5625 1.0625 -1.46875 2.09375q-0.90625 1.03125 -2.15625 1.96875q1.0 0.5 2.90625 0.8125q1.90625 0.3125 3.34375 0.1875q-0.375 0.625 -0.5625 1.3125q-2.25 -0.25 -3.75 -0.53125q-1.5 -0.28125 -3.0625 -1.09375q-1.75 0.8125 -3.65625 1.25q-1.90625 0.4375 -3.09375 0.6875zm3.9375 -5.625q1.3125 1.25 2.9375 2.375q1.3125 -0.8125 2.75 -2.5625l-5.5 0l-0.1875 0.1875zm6.3125 7.6875l0 -1.5l-3.0 0l0 1.5l3.0 0zm-4.125 0l0 -1.5l-2.9375 0l0 1.5l2.9375 0zm4.125 2.375l0 -1.4375l-3.0 0l0 1.4375l3.0 0zm-4.125 0l0 -1.4375l-2.9375 0l0 1.4375l2.9375 0z" fill-rule="nonzero"/><path fill="#000000" d="m413.39047 239.44638q1.0 1.25 3.75 2.25l-0.625 1.375q-4.875 -1.625 -6.1875 -6.875l-0.375 0q-0.625 0.875 -1.3125 1.5625l0 3.5l3.5625 -0.6875l0.1875 1.0625q-3.375 0.8125 -6.625 1.4375q-0.1875 0.5625 -0.375 0.1875l-0.4375 -1.5l2.4375 -0.3125l0 -2.6875q-1.625 1.125 -3.625 1.8125l-0.625 -1.25q3.125 -0.875 5.3125 -3.125l-5.0 0l0 -1.1875l6.0625 0l0 -1.125l-4.5 0l0 -1.1875l4.5 0l0 -1.125l-5.3125 0l0 -1.1875l5.3125 0l0 -1.5l1.1875 0q0.5 0.0625 0.0625 0.375l0 1.125l5.3125 0l0 1.1875l-5.3125 0l0 1.125l4.5 0l0 1.1875l-4.5 0l0 1.125l6.0625 0l0 1.1875l-5.3125 0q0.375 1.1875 1.25 2.5q1.1875 -1.0 2.25 -2.1875l0.9375 0.9375q0.0625 0.3125 -0.3125 0.1875q-1.0625 1.0 -2.25 1.8125z" fill-rule="nonzero"/><path fill="#ffffff" d="m569.1566 84.40419l0 0c0 -20.270454 16.432495 -36.70291 36.70294 -36.70291l146.80725 0l0 0c9.734192 0 19.069763 3.8669014 25.95288 10.750034c6.8831177 6.883129 10.75 16.218662 10.75 25.952877l0 195.77242c0 20.270447 -16.432434 36.70291 -36.70288 36.70291l-146.80725 0c-20.270447 0 -36.70294 -16.432465 -36.70294 -36.70291z" fill-rule="evenodd"/><path stroke="#434343" stroke-width="1.0" stroke-linejoin="round" stroke-linecap="butt" d="m569.1566 84.40419l0 0c0 -20.270454 16.432495 -36.70291 36.70294 -36.70291l146.80725 0l0 0c9.734192 0 19.069763 3.8669014 25.95288 10.750034c6.8831177 6.883129 10.75 16.218662 10.75 25.952877l0 195.77242c0 20.270447 -16.432434 36.70291 -36.70288 36.70291l-146.80725 0c-20.270447 0 -36.70294 -16.432465 -36.70294 -36.70291z" fill-rule="evenodd"/><path fill="#000000" fill-opacity="0.0" d="m584.7402 66.55643l213.84363 0l0 42.018066l-213.84363 0z" fill-rule="evenodd"/><path fill="#000000" d="m595.16205 93.476425l0 -13.359375l1.8125 0l7.015625 10.484375l0 -10.484375l1.6875 0l0 13.359375l-1.8125 0l-7.015625 -10.5l0 10.5l-1.6875 0zm19.910461 -3.109375l1.6875 0.203125q-0.40625 1.484375 -1.484375 2.3125q-1.078125 0.8125 -2.765625 0.8125q-2.125 0 -3.375 -1.296875q-1.234375 -1.3125 -1.234375 -3.671875q0 -2.453125 1.25 -3.796875q1.265625 -1.34375 3.265625 -1.34375q1.9375 0 3.15625 1.328125q1.234375 1.3125 1.234375 3.703125q0 0.15625 0 0.4375l-7.21875 0q0.09375 1.59375 0.90625 2.453125q0.8125 0.84375 2.015625 0.84375q0.90625 0 1.546875 -0.46875q0.640625 -0.484375 1.015625 -1.515625zm-5.390625 -2.65625l5.40625 0q-0.109375 -1.21875 -0.625 -1.828125q-0.78125 -0.953125 -2.03125 -0.953125q-1.125 0 -1.90625 0.765625q-0.765625 0.75 -0.84375 2.015625zm12.719421 4.296875l0.234375 1.453125q-0.6875 0.140625 -1.234375 0.140625q-0.890625 0 -1.390625 -0.28125q-0.484375 -0.28125 -0.6875 -0.734375q-0.203125 -0.46875 -0.203125 -1.9375l0 -5.578125l-1.203125 0l0 -1.265625l1.203125 0l0 -2.390625l1.625 -0.984375l0 3.375l1.65625 0l0 1.265625l-1.65625 0l0 5.671875q0 0.6875 0.078125 0.890625q0.09375 0.203125 0.28125 0.328125q0.203125 0.109375 0.578125 0.109375q0.265625 0 0.71875 -0.0625zm3.3864746 1.46875l-2.96875 -9.671875l1.703125 0l1.53125 5.578125l0.578125 2.078125q0.046875 -0.15625 0.5 -2.0l1.546875 -5.65625l1.6875 0l1.4375 5.609375l0.484375 1.84375l0.5625 -1.859375l1.65625 -5.59375l1.59375 0l-3.03125 9.671875l-1.703125 0l-1.53125 -5.796875l-0.375 -1.640625l-1.953125 7.4375l-1.71875 0zm11.082275 -4.84375q0 -2.6875 1.484375 -3.96875q1.25 -1.078125 3.046875 -1.078125q2.0 0 3.265625 1.3125q1.265625 1.296875 1.265625 3.609375q0 1.859375 -0.5625 2.9375q-0.5625 1.0625 -1.640625 1.65625q-1.0625 0.59375 -2.328125 0.59375q-2.03125 0 -3.28125 -1.296875q-1.25 -1.3125 -1.25 -3.765625zm1.6875 0q0 1.859375 0.796875 2.796875q0.8125 0.921875 2.046875 0.921875q1.21875 0 2.03125 -0.921875q0.8125 -0.9375 0.8125 -2.84375q0 -1.796875 -0.8125 -2.71875q-0.8125 -0.921875 -2.03125 -0.921875q-1.234375 0 -2.046875 0.921875q-0.796875 0.90625 -0.796875 2.765625zm9.281982 4.84375l0 -9.671875l1.46875 0l0 1.46875q0.5625 -1.03125 1.03125 -1.359375q0.484375 -0.328125 1.0625 -0.328125q0.828125 0 1.6875 0.53125l-0.5625 1.515625q-0.609375 -0.359375 -1.203125 -0.359375q-0.546875 0 -0.96875 0.328125q-0.421875 0.328125 -0.609375 0.890625q-0.28125 0.875 -0.28125 1.921875l0 5.0625l-1.625 0zm6.2283325 0l0 -13.359375l1.640625 0l0 7.625l3.890625 -3.9375l2.109375 0l-3.6875 3.59375l4.0625 6.078125l-2.015625 0l-3.203125 -4.953125l-1.15625 1.125l0 3.828125l-1.640625 0zm14.511414 0l0 -9.671875l1.46875 0l0 1.375q1.0625 -1.59375 3.078125 -1.59375q0.875 0 1.609375 0.3125q0.734375 0.3125 1.09375 0.828125q0.375 0.5 0.515625 1.203125q0.09375 0.453125 0.09375 1.59375l0 5.953125l-1.640625 0l0 -5.890625q0 -1.0 -0.203125 -1.484375q-0.1875 -0.5 -0.671875 -0.796875q-0.484375 -0.296875 -1.140625 -0.296875q-1.046875 0 -1.8125 0.671875q-0.75 0.65625 -0.75 2.515625l0 5.28125l-1.640625 0zm16.688232 -1.1875q-0.921875 0.765625 -1.765625 1.09375q-0.828125 0.3125 -1.796875 0.3125q-1.59375 0 -2.453125 -0.78125q-0.859375 -0.78125 -0.859375 -1.984375q0 -0.71875 0.328125 -1.296875q0.328125 -0.59375 0.84375 -0.9375q0.53125 -0.359375 1.1875 -0.546875q0.46875 -0.125 1.453125 -0.25q1.984375 -0.234375 2.921875 -0.5625q0.015625 -0.34375 0.015625 -0.421875q0 -1.0 -0.46875 -1.421875q-0.625 -0.546875 -1.875 -0.546875q-1.15625 0 -1.703125 0.40625q-0.546875 0.40625 -0.8125 1.421875l-1.609375 -0.21875q0.21875 -1.015625 0.71875 -1.640625q0.5 -0.640625 1.453125 -0.984375q0.953125 -0.34375 2.1875 -0.34375q1.25 0 2.015625 0.296875q0.78125 0.28125 1.140625 0.734375q0.375 0.4375 0.515625 1.109375q0.078125 0.421875 0.078125 1.515625l0 2.1875q0 2.28125 0.109375 2.890625q0.109375 0.59375 0.40625 1.15625l-1.703125 0q-0.265625 -0.515625 -0.328125 -1.1875zm-0.140625 -3.671875q-0.890625 0.375 -2.671875 0.625q-1.015625 0.140625 -1.4375 0.328125q-0.421875 0.1875 -0.65625 0.53125q-0.21875 0.34375 -0.21875 0.78125q0 0.65625 0.5 1.09375q0.5 0.4375 1.453125 0.4375q0.9375 0 1.671875 -0.40625q0.75 -0.421875 1.09375 -1.140625q0.265625 -0.5625 0.265625 -1.640625l0 -0.609375zm4.2037964 4.859375l0 -9.671875l1.46875 0l0 1.359375q0.453125 -0.71875 1.203125 -1.140625q0.765625 -0.4375 1.71875 -0.4375q1.078125 0 1.765625 0.453125q0.6875 0.4375 0.96875 1.234375q1.15625 -1.6875 2.984375 -1.6875q1.453125 0 2.21875 0.796875q0.78125 0.796875 0.78125 2.453125l0 6.640625l-1.640625 0l0 -6.09375q0 -0.984375 -0.15625 -1.40625q-0.15625 -0.4375 -0.578125 -0.703125q-0.421875 -0.265625 -0.984375 -0.265625q-1.015625 0 -1.6875 0.6875q-0.671875 0.671875 -0.671875 2.15625l0 5.625l-1.640625 0l0 -6.28125q0 -1.09375 -0.40625 -1.640625q-0.40625 -0.546875 -1.3125 -0.546875q-0.6875 0 -1.28125 0.359375q-0.59375 0.359375 -0.859375 1.0625q-0.25 0.703125 -0.25 2.03125l0 5.015625l-1.640625 0zm22.165833 -3.109375l1.6875 0.203125q-0.40625 1.484375 -1.484375 2.3125q-1.078125 0.8125 -2.765625 0.8125q-2.125 0 -3.375 -1.296875q-1.234375 -1.3125 -1.234375 -3.671875q0 -2.453125 1.25 -3.796875q1.265625 -1.34375 3.265625 -1.34375q1.9375 0 3.15625 1.328125q1.234375 1.3125 1.234375 3.703125q0 0.15625 0 0.4375l-7.21875 0q0.09375 1.59375 0.90625 2.453125q0.8125 0.84375 2.015625 0.84375q0.90625 0 1.546875 -0.46875q0.640625 -0.484375 1.015625 -1.515625zm-5.390625 -2.65625l5.40625 0q-0.109375 -1.21875 -0.625 -1.828125q-0.78125 -0.953125 -2.03125 -0.953125q-1.125 0 -1.90625 0.765625q-0.765625 0.75 -0.84375 2.015625zm8.485107 2.875l1.625 -0.25q0.125 0.96875 0.75 1.5q0.625 0.515625 1.75 0.515625q1.125 0 1.671875 -0.453125q0.546875 -0.46875 0.546875 -1.09375q0 -0.546875 -0.484375 -0.875q-0.328125 -0.21875 -1.671875 -0.546875q-1.8125 -0.46875 -2.515625 -0.796875q-0.6875 -0.328125 -1.046875 -0.90625q-0.359375 -0.59375 -0.359375 -1.3125q0 -0.640625 0.296875 -1.1875q0.296875 -0.5625 0.8125 -0.921875q0.375 -0.28125 1.03125 -0.46875q0.671875 -0.203125 1.421875 -0.203125q1.140625 0 2.0 0.328125q0.859375 0.328125 1.265625 0.890625q0.421875 0.5625 0.578125 1.5l-1.609375 0.21875q-0.109375 -0.75 -0.640625 -1.171875q-0.515625 -0.421875 -1.46875 -0.421875q-1.140625 0 -1.625 0.375q-0.46875 0.375 -0.46875 0.875q0 0.3125 0.1875 0.578125q0.203125 0.265625 0.640625 0.4375q0.234375 0.09375 1.4375 0.421875q1.75 0.453125 2.4375 0.75q0.6875 0.296875 1.078125 0.859375q0.390625 0.5625 0.390625 1.40625q0 0.828125 -0.484375 1.546875q-0.46875 0.71875 -1.375 1.125q-0.90625 0.390625 -2.046875 0.390625q-1.875 0 -2.875 -0.78125q-0.984375 -0.78125 -1.25 -2.328125zm9.984375 6.59375l0 -13.375l1.484375 0l0 1.25q0.53125 -0.734375 1.1875 -1.09375q0.671875 -0.375 1.625 -0.375q1.234375 0 2.171875 0.640625q0.953125 0.625 1.4375 1.796875q0.484375 1.15625 0.484375 2.546875q0 1.484375 -0.53125 2.671875q-0.53125 1.1875 -1.546875 1.828125q-1.015625 0.625 -2.140625 0.625q-0.8125 0 -1.46875 -0.34375q-0.65625 -0.34375 -1.0625 -0.875l0 4.703125l-1.640625 0zm1.484375 -8.484375q0 1.859375 0.75 2.765625q0.765625 0.890625 1.828125 0.890625q1.09375 0 1.875 -0.921875q0.78125 -0.9375 0.78125 -2.875q0 -1.84375 -0.765625 -2.765625q-0.75 -0.921875 -1.8125 -0.921875q-1.046875 0 -1.859375 0.984375q-0.796875 0.96875 -0.796875 2.84375zm15.203796 3.59375q-0.921875 0.765625 -1.765625 1.09375q-0.828125 0.3125 -1.796875 0.3125q-1.59375 0 -2.453125 -0.78125q-0.859375 -0.78125 -0.859375 -1.984375q0 -0.71875 0.328125 -1.296875q0.328125 -0.59375 0.84375 -0.9375q0.53125 -0.359375 1.1875 -0.546875q0.46875 -0.125 1.453125 -0.25q1.984375 -0.234375 2.921875 -0.5625q0.015625 -0.34375 0.015625 -0.421875q0 -1.0 -0.46875 -1.421875q-0.625 -0.546875 -1.875 -0.546875q-1.15625 0 -1.703125 0.40625q-0.546875 0.40625 -0.8125 1.421875l-1.609375 -0.21875q0.21875 -1.015625 0.71875 -1.640625q0.5 -0.640625 1.453125 -0.984375q0.953125 -0.34375 2.1875 -0.34375q1.25 0 2.015625 0.296875q0.78125 0.28125 1.140625 0.734375q0.375 0.4375 0.515625 1.109375q0.078125 0.421875 0.078125 1.515625l0 2.1875q0 2.28125 0.109375 2.890625q0.109375 0.59375 0.40625 1.15625l-1.703125 0q-0.265625 -0.515625 -0.328125 -1.1875zm-0.140625 -3.671875q-0.890625 0.375 -2.671875 0.625q-1.015625 0.140625 -1.4375 0.328125q-0.421875 0.1875 -0.65625 0.53125q-0.21875 0.34375 -0.21875 0.78125q0 0.65625 0.5 1.09375q0.5 0.4375 1.453125 0.4375q0.9375 0 1.671875 -0.40625q0.75 -0.421875 1.09375 -1.140625q0.265625 -0.5625 0.265625 -1.640625l0 -0.609375zm10.516357 1.3125l1.609375 0.21875q-0.265625 1.65625 -1.359375 2.609375q-1.078125 0.9375 -2.671875 0.9375q-1.984375 0 -3.1875 -1.296875q-1.203125 -1.296875 -1.203125 -3.71875q0 -1.578125 0.515625 -2.75q0.515625 -1.171875 1.578125 -1.75q1.0625 -0.59375 2.3125 -0.59375q1.578125 0 2.578125 0.796875q1.0 0.796875 1.28125 2.265625l-1.59375 0.234375q-0.234375 -0.96875 -0.8125 -1.453125q-0.578125 -0.5 -1.390625 -0.5q-1.234375 0 -2.015625 0.890625q-0.78125 0.890625 -0.78125 2.8125q0 1.953125 0.75 2.84375q0.75 0.875 1.953125 0.875q0.96875 0 1.609375 -0.59375q0.65625 -0.59375 0.828125 -1.828125zm9.640625 0.4375l1.6875 0.203125q-0.40625 1.484375 -1.484375 2.3125q-1.078125 0.8125 -2.765625 0.8125q-2.125 0 -3.375 -1.296875q-1.234375 -1.3125 -1.234375 -3.671875q0 -2.453125 1.25 -3.796875q1.265625 -1.34375 3.265625 -1.34375q1.9375 0 3.15625 1.328125q1.234375 1.3125 1.234375 3.703125q0 0.15625 0 0.4375l-7.21875 0q0.09375 1.59375 0.90625 2.453125q0.8125 0.84375 2.015625 0.84375q0.90625 0 1.546875 -0.46875q0.640625 -0.484375 1.015625 -1.515625zm-5.390625 -2.65625l5.40625 0q-0.109375 -1.21875 -0.625 -1.828125q-0.78125 -0.953125 -2.03125 -0.953125q-1.125 0 -1.90625 0.765625q-0.765625 0.75 -0.84375 2.015625zm10.078857 5.765625l0 -1.875l1.875 0l0 1.875l-1.875 0zm6.234375 0l0 -1.875l1.859375 0l0 1.875l-1.859375 0zm6.203125 0l0 -1.875l1.875 0l0 1.875l-1.875 0z" fill-rule="nonzero"/><path fill="#efefef" d="m586.8165 119.97454l189.04523 0l0 42.931496l-189.04523 0z" fill-rule="evenodd"/><path fill="#000000" d="m596.879 137.45654l0 -1.609375l1.40625 0l0 1.609375l-1.40625 0zm0 9.84375l0 -8.296875l1.40625 0l0 8.296875l-1.40625 0zm3.5546875 3.1875l0 -11.484375l1.28125 0l0 1.078125q0.453125 -0.640625 1.015625 -0.953125q0.578125 -0.3125 1.390625 -0.3125q1.0625 0 1.875 0.546875q0.8125 0.546875 1.21875 1.546875q0.421875 0.984375 0.421875 2.171875q0 1.28125 -0.46875 2.296875q-0.453125 1.015625 -1.328125 1.5625q-0.859375 0.546875 -1.828125 0.546875q-0.703125 0 -1.265625 -0.296875q-0.546875 -0.296875 -0.90625 -0.75l0 4.046875l-1.40625 0zm1.265625 -7.296875q0 1.609375 0.640625 2.375q0.65625 0.765625 1.578125 0.765625q0.9375 0 1.609375 -0.796875q0.671875 -0.796875 0.671875 -2.453125q0 -1.59375 -0.65625 -2.375q-0.65625 -0.796875 -1.5625 -0.796875q-0.890625 0 -1.59375 0.84375q-0.6875 0.84375 -0.6875 2.4375zm10.6953125 2.84375l0.203125 1.25q-0.59375 0.125 -1.0625 0.125q-0.765625 0 -1.1875 -0.234375q-0.421875 -0.25 -0.59375 -0.640625q-0.171875 -0.40625 -0.171875 -1.671875l0 -4.765625l-1.03125 0l0 -1.09375l1.03125 0l0 -2.0625l1.40625 -0.84375l0 2.90625l1.40625 0l0 1.09375l-1.40625 0l0 4.84375q0 0.609375 0.0625 0.78125q0.078125 0.171875 0.25 0.28125q0.171875 0.09375 0.484375 0.09375q0.234375 0 0.609375 -0.0625zm6.7890625 0.234375q-0.78125 0.671875 -1.5 0.953125q-0.71875 0.265625 -1.546875 0.265625q-1.375 0 -2.109375 -0.671875q-0.734375 -0.671875 -0.734375 -1.703125q0 -0.609375 0.28125 -1.109375q0.28125 -0.515625 0.71875 -0.8125q0.453125 -0.3125 1.015625 -0.46875q0.421875 -0.109375 1.25 -0.203125q1.703125 -0.203125 2.515625 -0.484375q0 -0.296875 0 -0.375q0 -0.859375 -0.390625 -1.203125q-0.546875 -0.484375 -1.609375 -0.484375q-0.984375 0 -1.46875 0.359375q-0.46875 0.34375 -0.6875 1.21875l-1.375 -0.1875q0.1875 -0.875 0.609375 -1.421875q0.4375 -0.546875 1.25 -0.828125q0.8125 -0.296875 1.875 -0.296875q1.0625 0 1.71875 0.25q0.671875 0.25 0.984375 0.625q0.3125 0.375 0.4375 0.953125q0.078125 0.359375 0.078125 1.296875l0 1.875q0 1.96875 0.078125 2.484375q0.09375 0.515625 0.359375 1.0l-1.46875 0q-0.21875 -0.4375 -0.28125 -1.03125zm-0.109375 -3.140625q-0.765625 0.3125 -2.296875 0.53125q-0.875 0.125 -1.234375 0.28125q-0.359375 0.15625 -0.5625 0.46875q-0.1875 0.296875 -0.1875 0.65625q0 0.5625 0.421875 0.9375q0.4375 0.375 1.25 0.375q0.8125 0 1.4375 -0.34375q0.640625 -0.359375 0.9375 -0.984375q0.234375 -0.46875 0.234375 -1.40625l0 -0.515625zm4.8984375 4.171875l-1.3125 0l0 -11.453125l1.40625 0l0 4.078125q0.890625 -1.109375 2.28125 -1.109375q0.765625 0 1.4375 0.3125q0.6875 0.296875 1.125 0.859375q0.453125 0.5625 0.703125 1.359375q0.25 0.78125 0.25 1.671875q0 2.140625 -1.0625 3.3125q-1.046875 1.15625 -2.53125 1.15625q-1.46875 0 -2.296875 -1.234375l0 1.046875zm-0.015625 -4.21875q0 1.5 0.40625 2.15625q0.65625 1.09375 1.796875 1.09375q0.921875 0 1.59375 -0.796875q0.671875 -0.8125 0.671875 -2.390625q0 -1.625 -0.65625 -2.390625q-0.640625 -0.78125 -1.546875 -0.78125q-0.921875 0 -1.59375 0.796875q-0.671875 0.796875 -0.671875 2.3125zm7.5859375 4.21875l0 -11.453125l1.40625 0l0 11.453125l-1.40625 0zm9.2578125 -2.671875l1.453125 0.171875q-0.34375 1.28125 -1.28125 1.984375q-0.921875 0.703125 -2.359375 0.703125q-1.828125 0 -2.890625 -1.125q-1.0625 -1.125 -1.0625 -3.140625q0 -2.09375 1.078125 -3.25q1.078125 -1.15625 2.796875 -1.15625q1.65625 0 2.703125 1.140625q1.0625 1.125 1.0625 3.171875q0 0.125 0 0.375l-6.1875 0q0.078125 1.375 0.765625 2.109375q0.703125 0.71875 1.734375 0.71875q0.78125 0 1.328125 -0.40625q0.546875 -0.40625 0.859375 -1.296875zm-4.609375 -2.28125l4.625 0q-0.09375 -1.046875 -0.53125 -1.5625q-0.671875 -0.8125 -1.734375 -0.8125q-0.96875 0 -1.640625 0.65625q-0.65625 0.640625 -0.71875 1.71875zm7.2734375 2.46875l1.390625 -0.21875q0.109375 0.84375 0.640625 1.296875q0.546875 0.4375 1.5 0.4375q0.96875 0 1.4375 -0.390625q0.46875 -0.40625 0.46875 -0.9375q0 -0.46875 -0.40625 -0.75q-0.296875 -0.1875 -1.4375 -0.46875q-1.546875 -0.390625 -2.15625 -0.671875q-0.59375 -0.296875 -0.90625 -0.796875q-0.296875 -0.5 -0.296875 -1.109375q0 -0.5625 0.25 -1.03125q0.25 -0.46875 0.6875 -0.78125q0.328125 -0.25 0.890625 -0.40625q0.578125 -0.171875 1.21875 -0.171875q0.984375 0 1.71875 0.28125q0.734375 0.28125 1.078125 0.765625q0.359375 0.46875 0.5 1.28125l-1.375 0.1875q-0.09375 -0.640625 -0.546875 -1.0q-0.453125 -0.359375 -1.265625 -0.359375q-0.96875 0 -1.390625 0.328125q-0.40625 0.3125 -0.40625 0.734375q0 0.28125 0.171875 0.5q0.171875 0.21875 0.53125 0.375q0.21875 0.078125 1.25 0.359375q1.484375 0.390625 2.078125 0.65625q0.59375 0.25 0.921875 0.734375q0.34375 0.484375 0.34375 1.203125q0 0.703125 -0.421875 1.328125q-0.40625 0.609375 -1.1875 0.953125q-0.765625 0.34375 -1.734375 0.34375q-1.625 0 -2.46875 -0.671875q-0.84375 -0.671875 -1.078125 -2.0z" fill-rule="nonzero"/><path fill="#000000" d="m660.0978 142.9878q1.5 1.125 2.8125 2.25q-0.5 0.5625 -0.9375 1.125q-0.875 -1.1875 -2.1875 -2.1875q-0.4375 1.0 -1.09375 2.15625q-0.65625 1.15625 -1.53125 2.28125q-0.5 -0.625 -1.25 -0.9375q0.8125 -0.5625 1.46875 -1.5q0.65625 -0.9375 1.125 -2.09375q0.46875 -1.15625 0.53125 -2.40625l-0.5625 0q-0.9375 0 -2.0625 0.0625l0 -1.125q1.125 0.0625 2.125 0.0625l0.5625 0l0 -2.6875q-1.25 0 -2.0625 0.0625l0 -1.125q0.875 0.0625 2.0625 0.0625q0 -2.125 -0.0625 -2.9375q0.6875 0.0625 1.5 0.1875q-0.25 0.375 -0.28125 1.21875q-0.03125 0.84375 -0.03125 1.53125q1.375 0 1.9375 -0.0625l0 1.125q-0.75 -0.0625 -1.9375 -0.0625l0 2.6875q1.6875 0 2.25 -0.0625l0 1.125q-0.5625 -0.0625 -2.3125 -0.0625q0 0.5 -0.0625 1.3125zm7.0 -4.9375q-0.1875 0.75 -0.3125 2.3125q-0.125 1.5625 -0.3125 2.75l1.0625 0q-0.0625 0.625 -0.0625 1.6875l0 1.75q0 0.8125 0.40625 0.9375q0.40625 0.125 0.84375 0.09375q0.4375 -0.03125 0.59375 -0.34375q0.15625 -0.3125 0.34375 -1.625q0.5 0.4375 1.25 0.6875q-0.5 1.6875 -0.84375 2.03125q-0.34375 0.34375 -1.15625 0.34375l-1.1875 0q-1.375 0 -1.375 -1.4375l0 -3.8125q-0.25 0.9375 -0.65625 1.6875q-0.40625 0.75 -1.375 1.6875q-0.96875 0.9375 -2.96875 2.0625q-0.375 -0.5625 -1.0625 -1.0q1.9375 -0.8125 3.09375 -1.875q1.15625 -1.0625 1.625 -2.125q0.46875 -1.0625 0.59375 -2.71875q0.125 -1.65625 0.125 -3.34375q0.8125 0.1875 1.375 0.25zm2.5625 -2.9375q-0.0625 1.0 -0.0625 4.0q0 3.0 0.0625 4.25l-1.1875 0l0 -7.1875l-4.4375 0l0 7.25l-1.125 0q0.0625 -1.4375 0.0625 -4.3125q0 -2.875 -0.0625 -4.0l6.75 0zm10.125 0q-0.0625 1.0 -0.0625 2.125l0 4.375q0 1.3125 0.0625 2.375l-1.3125 0l0 -7.8125l-4.1875 0l0 7.875l-1.375 0q0.0625 -1.0625 0.0625 -2.1875l0 -4.5625q0 -1.3125 -0.0625 -2.1875l6.875 0zm6.0625 -0.875q-0.0625 0.875 -0.0625 1.875l0 11.25q0 1.0 -0.53125 1.21875q-0.53125 0.21875 -1.90625 0.40625q-0.1875 -0.75 -0.5 -1.5q1.125 0 1.40625 -0.0625q0.28125 -0.0625 0.28125 -0.875l0 -10.4375q0 -1.0 -0.0625 -1.875l1.375 0zm-8.6875 3.5q-0.1875 0.75 -0.21875 1.59375q-0.03125 0.84375 -0.0625 2.375q-0.03125 1.53125 -0.46875 2.75q-0.4375 1.21875 -1.0 2.03125q-0.5625 0.8125 -2.1875 2.125q-0.5625 -0.5625 -1.25 -1.0625q1.5 -0.6875 2.28125 -1.6875q0.78125 -1.0 1.09375 -2.28125q0.3125 -1.28125 0.3125 -2.71875q0 -1.4375 -0.0625 -3.25q0.6875 0.125 1.5625 0.125zm5.75 -1.5625q-0.0625 0.6875 -0.0625 1.5625l0 5.375q0 1.25 0.0625 2.25l-1.375 0q0.0625 -1.0625 0.0625 -2.25l0 -5.375q0 -0.75 -0.0625 -1.5625l1.375 0zm-5.375 8.5625q0.8125 0.625 1.53125 1.21875q0.71875 0.59375 1.28125 1.09375q-0.4375 0.3125 -0.9375 1.0q-0.75 -0.75 -1.375 -1.3125q-0.625 -0.5625 -1.3125 -1.0625q0.4375 -0.4375 0.8125 -0.9375z" fill-rule="nonzero"/><path fill="#000000" d="m698.5978 144.9878q1.0 1.25 3.75 2.25l-0.625 1.375q-4.875 -1.625 -6.1875 -6.875l-0.375 0q-0.625 0.875 -1.3125 1.5625l0 3.5l3.5625 -0.6875l0.1875 1.0625q-3.375 0.8125 -6.625 1.4375q-0.1875 0.5625 -0.375 0.1875l-0.4375 -1.5l2.4375 -0.3125l0 -2.6875q-1.625 1.125 -3.625 1.8125l-0.625 -1.25q3.125 -0.875 5.3125 -3.125l-5.0 0l0 -1.1875l6.0625 0l0 -1.125l-4.5 0l0 -1.1875l4.5 0l0 -1.125l-5.3125 0l0 -1.1875l5.3125 0l0 -1.5l1.1875 0q0.5 0.0625 0.0625 0.375l0 1.125l5.3125 0l0 1.1875l-5.3125 0l0 1.125l4.5 0l0 1.1875l-4.5 0l0 1.125l6.0625 0l0 1.1875l-5.3125 0q0.375 1.1875 1.25 2.5q1.1875 -1.0 2.25 -2.1875l0.9375 0.9375q0.0625 0.3125 -0.3125 0.1875q-1.0625 1.0 -2.25 1.8125z" fill-rule="nonzero"/><path fill="#efefef" d="m586.8165 167.20442l189.04523 0l0 42.931503l-189.04523 0z" fill-rule="evenodd"/><path fill="#000000" d="m608.504 193.96768l0 -2.8125l-3.125 0l0 2.8125l3.125 0zm1.25 1.6875l-1.25 0l0 -0.6875l-3.125 0l0 0.875l-1.25 0l0 -5.6875l5.625 0l0 5.5zm-4.4375 -11.625q0.3125 0.875 1.5625 2.25q1.125 -1.5 1.4375 -2.25l-3.0 0zm1.5625 4.0q-2.1875 2.0 -4.0625 2.6875l-0.5625 -1.25q1.75 -0.5625 3.8125 -2.375q-0.5 -0.5 -1.3125 -1.8125q-0.625 1.4375 -1.25 2.0625l-0.9375 -0.9375q1.5 -2.0 2.3125 -5.0l1.3125 0.375q0.25 0.25 -0.1875 0.3125l-0.3125 0.75l3.1875 0l0.1875 -0.3125l1.0 0.8125q0.25 0.1875 -0.25 0.375q-0.875 2.0 -2.0625 3.375q2.125 1.625 3.625 2.125l-0.5 1.375q-1.5 -0.5 -4.0 -2.5625zm-4.5625 -5.625l0 4.625l-1.5625 0l0 2.3125l1.4375 0l0 1.1875l-1.4375 0l0 2.875l2.1875 -0.6875l0.25 1.125l-5.75 1.625q-0.0625 0.5 -0.3125 0.25l-0.5 -1.375l0.75 -0.125l0 -5.8125l1.1875 0q0.5 0.0625 0.0625 0.375l0 5.125l0.875 -0.1875l0 -6.6875l-1.125 0l-1.0625 0l0 -4.625l5.0 0zm-1.25 3.625l0 -2.625l-2.5 0l0 2.625l2.5 0zm14.1875 7.5l4.0 0l0 -3.25l-4.0 0l0 3.25zm0 -4.4375l4.0 0l0 -3.25l-4.0 0l0 3.25zm9.25 0l0 -3.25l-4.0 0l0 3.25l4.0 0zm-4.0 4.4375l4.0 0l0 -3.25l-4.0 0l0 3.25zm-6.5 2.1875l0 -11.0625l5.25 0l0 -2.9375l1.1875 0q0.5 0.0625 0.0625 0.375l0 2.5625l5.25 0l0 10.8125l-1.25 0l0 -0.75l-9.25 0l0 1.0l-1.25 0z" fill-rule="nonzero"/><path fill="#000000" d="m632.504 190.21768q1.5 1.125 2.8125 2.25q-0.5 0.5625 -0.9375 1.125q-0.875 -1.1875 -2.1875 -2.1875q-0.4375 1.0 -1.09375 2.15625q-0.65625 1.15625 -1.53125 2.28125q-0.5 -0.625 -1.25 -0.9375q0.8125 -0.5625 1.46875 -1.5q0.65625 -0.9375 1.125 -2.09375q0.46875 -1.15625 0.53125 -2.40625l-0.5625 0q-0.9375 0 -2.0625 0.0625l0 -1.125q1.125 0.0625 2.125 0.0625l0.5625 0l0 -2.6875q-1.25 0 -2.0625 0.0625l0 -1.125q0.875 0.0625 2.0625 0.0625q0 -2.125 -0.0625 -2.9375q0.6875 0.0625 1.5 0.1875q-0.25 0.375 -0.28125 1.21875q-0.03125 0.84375 -0.03125 1.53125q1.375 0 1.9375 -0.0625l0 1.125q-0.75 -0.0625 -1.9375 -0.0625l0 2.6875q1.6875 0 2.25 -0.0625l0 1.125q-0.5625 -0.0625 -2.3125 -0.0625q0 0.5 -0.0625 1.3125zm7.0 -4.9375q-0.1875 0.75 -0.3125 2.3125q-0.125 1.5625 -0.3125 2.75l1.0625 0q-0.0625 0.625 -0.0625 1.6875l0 1.75q0 0.8125 0.40625 0.9375q0.40625 0.125 0.84375 0.09375q0.4375 -0.03125 0.59375 -0.34375q0.15625 -0.3125 0.34375 -1.625q0.5 0.4375 1.25 0.6875q-0.5 1.6875 -0.84375 2.03125q-0.34375 0.34375 -1.15625 0.34375l-1.1875 0q-1.375 0 -1.375 -1.4375l0 -3.8125q-0.25 0.9375 -0.65625 1.6875q-0.40625 0.75 -1.375 1.6875q-0.96875 0.9375 -2.96875 2.0625q-0.375 -0.5625 -1.0625 -1.0q1.9375 -0.8125 3.09375 -1.875q1.15625 -1.0625 1.625 -2.125q0.46875 -1.0625 0.59375 -2.71875q0.125 -1.65625 0.125 -3.34375q0.8125 0.1875 1.375 0.25zm2.5625 -2.9375q-0.0625 1.0 -0.0625 4.0q0 3.0 0.0625 4.25l-1.1875 0l0 -7.1875l-4.4375 0l0 7.25l-1.125 0q0.0625 -1.4375 0.0625 -4.3125q0 -2.875 -0.0625 -4.0l6.75 0zm10.125 0q-0.0625 1.0 -0.0625 2.125l0 4.375q0 1.3125 0.0625 2.375l-1.3125 0l0 -7.8125l-4.1875 0l0 7.875l-1.375 0q0.0625 -1.0625 0.0625 -2.1875l0 -4.5625q0 -1.3125 -0.0625 -2.1875l6.875 0zm6.0625 -0.875q-0.0625 0.875 -0.0625 1.875l0 11.25q0 1.0 -0.53125 1.21875q-0.53125 0.21875 -1.90625 0.40625q-0.1875 -0.75 -0.5 -1.5q1.125 0 1.40625 -0.0625q0.28125 -0.0625 0.28125 -0.875l0 -10.4375q0 -1.0 -0.0625 -1.875l1.375 0zm-8.6875 3.5q-0.1875 0.75 -0.21875 1.59375q-0.03125 0.84375 -0.0625 2.375q-0.03125 1.53125 -0.46875 2.75q-0.4375 1.21875 -1.0 2.03125q-0.5625 0.8125 -2.1875 2.125q-0.5625 -0.5625 -1.25 -1.0625q1.5 -0.6875 2.28125 -1.6875q0.78125 -1.0 1.09375 -2.28125q0.3125 -1.28125 0.3125 -2.71875q0 -1.4375 -0.0625 -3.25q0.6875 0.125 1.5625 0.125zm5.75 -1.5625q-0.0625 0.6875 -0.0625 1.5625l0 5.375q0 1.25 0.0625 2.25l-1.375 0q0.0625 -1.0625 0.0625 -2.25l0 -5.375q0 -0.75 -0.0625 -1.5625l1.375 0zm-5.375 8.5625q0.8125 0.625 1.53125 1.21875q0.71875 0.59375 1.28125 1.09375q-0.4375 0.3125 -0.9375 1.0q-0.75 -0.75 -1.375 -1.3125q-0.625 -0.5625 -1.3125 -1.0625q0.4375 -0.4375 0.8125 -0.9375z" fill-rule="nonzero"/><path fill="#000000" d="m671.004 192.21768q1.0 1.25 3.75 2.25l-0.625 1.375q-4.875 -1.625 -6.1875 -6.875l-0.375 0q-0.625 0.875 -1.3125 1.5625l0 3.5l3.5625 -0.6875l0.1875 1.0625q-3.375 0.8125 -6.625 1.4375q-0.1875 0.5625 -0.375 0.1875l-0.4375 -1.5l2.4375 -0.3125l0 -2.6875q-1.625 1.125 -3.625 1.8125l-0.625 -1.25q3.125 -0.875 5.3125 -3.125l-5.0 0l0 -1.1875l6.0625 0l0 -1.125l-4.5 0l0 -1.1875l4.5 0l0 -1.125l-5.3125 0l0 -1.1875l5.3125 0l0 -1.5l1.1875 0q0.5 0.0625 0.0625 0.375l0 1.125l5.3125 0l0 1.1875l-5.3125 0l0 1.125l4.5 0l0 1.1875l-4.5 0l0 1.125l6.0625 0l0 1.1875l-5.3125 0q0.375 1.1875 1.25 2.5q1.1875 -1.0 2.25 -2.1875l0.9375 0.9375q0.0625 0.3125 -0.3125 0.1875q-1.0625 1.0 -2.25 1.8125z" fill-rule="nonzero"/><path fill="#efefef" d="m586.8165 214.43312l189.04523 0l0 42.931503l-189.04523 0z" fill-rule="evenodd"/><path fill="#000000" d="m601.754 237.44638q-0.75 1.9375 -2.25 3.625l-0.6875 -0.9375q1.4375 -1.75 2.1875 -3.6875q-0.9375 -1.375 -1.9375 -2.6875l0.625 -0.625q0.875 1.0 1.5625 1.9375q0.25 -1.5 0.375 -3.0625l1.0625 0.25q0.5 0.1875 -0.0625 0.375q-0.1875 1.5 -0.5 3.4375q0.875 1.1875 1.625 2.3125l-0.625 1.0625q-0.6875 -1.0 -1.375 -2.0zm-3.25 -6.375l0 11.5625l-1.25 0l0 -12.75l12.9375 0l0 11.625q0 1.0 -0.9375 1.0l-1.5625 0l-0.25 -1.1875l1.3125 0q0.1875 0 0.1875 -0.1875l0 -10.0625l-10.4375 0zm7.375 4.375q0.375 -1.875 0.5 -3.5l1.0 0.125q0.625 0.1875 0 0.4375q-0.1875 1.75 -0.6875 3.875q0.9375 1.3125 1.625 2.5l-0.625 1.0q-0.75 -1.25 -1.4375 -2.3125q-0.9375 2.4375 -2.1875 3.75l-0.6875 -1.0q1.25 -1.3125 2.0625 -3.6875q-0.9375 -1.5 -1.875 -2.625l0.625 -0.6875q0.75 0.875 1.6875 2.125z" fill-rule="nonzero"/><path fill="#000000" d="m617.8165 234.00888q0.6875 -0.75 1.125 -1.5q0.4375 -0.75 0.84375 -1.65625q0.40625 -0.90625 0.65625 -2.09375q0.6875 0.3125 1.5 0.4375q-0.375 0.5625 -0.8125 1.4375l5.0625 0q-0.9375 1.875 -1.5625 2.8125q-0.625 0.9375 -1.3125 1.6875q0.8125 0.5625 1.9375 0.9375q1.125 0.375 2.0625 0.5625q-0.3125 0.5 -0.625 1.3125q-0.625 -0.1875 -1.125 -0.375q-0.125 0.875 -0.125 1.625l0 2.25q0 0.9375 0.0625 1.9375l-1.1875 0l0 -1.1875l-3.75 0l0 1.3125l-1.1875 0q0.0625 -0.9375 0.0625 -1.75l0 -2.5q0 -0.5 -0.0625 -1.6875q-0.375 0.1875 -1.0625 0.4375q-0.25 -0.6875 -0.6875 -1.1875q0.9375 -0.25 2.09375 -0.71875q1.15625 -0.46875 1.84375 -1.03125q-0.8125 -1.0625 -1.375 -2.375q-0.6875 1.0625 -1.375 2.0q-0.375 -0.375 -1.0 -0.6875zm-1.4375 -4.0625q-0.4375 0.5625 -1.0 1.71875q-0.5625 1.15625 -1.3125 2.46875l1.75 0q0.6875 -1.3125 1.0 -2.3125q0.625 0.5 1.25 0.8125q-0.375 0.4375 -1.125 1.78125q-0.75 1.34375 -2.0625 3.53125q1.875 -0.3125 2.6875 -0.4375q-0.0625 0.8125 0 1.1875q-1.5 0.1875 -2.3125 0.34375q-0.8125 0.15625 -1.875 0.40625q-0.1875 -0.6875 -0.4375 -1.1875q0.625 -0.25 1.21875 -1.125q0.59375 -0.875 1.21875 -2.125q-1.6875 0.0625 -2.5625 0.4375q-0.1875 -0.5625 -0.4375 -1.25q0.75 -0.375 1.5 -1.90625q0.75 -1.53125 1.125 -3.03125q0.6875 0.4375 1.375 0.6875zm7.9375 11.25l0 -2.6875l-3.75 0l0 2.6875l3.75 0zm-6.5625 -1.1875q0.125 0.625 0.125 1.125q-0.6875 0.125 -1.96875 0.5625q-1.28125 0.4375 -2.46875 0.9375q-0.25 -0.75 -0.5625 -1.375q1.5625 -0.3125 2.59375 -0.5625q1.03125 -0.25 2.28125 -0.6875zm4.75 -5.6875q0.375 -0.375 0.90625 -1.125q0.53125 -0.75 0.90625 -1.5625l-3.375 0q0.625 1.5625 1.5625 2.6875zm3.0 3.1875q-0.875 -0.375 -1.65625 -0.75q-0.78125 -0.375 -1.46875 -0.875q-0.75 0.5 -1.40625 0.875q-0.65625 0.375 -1.46875 0.75l6.0 0zm8.0 -2.0625q1.0 0.0625 2.25 0.0625l5.625 0q-0.375 1.125 -1.03125 2.46875q-0.65625 1.34375 -1.78125 2.65625q2.0 1.3125 4.625 1.375q-0.5 0.5625 -0.75 1.3125q-2.6875 -0.5625 -4.8125 -1.9375q-0.8125 0.5 -1.9375 1.09375q-1.125 0.59375 -2.4375 0.96875q-0.25 -0.5 -0.9375 -0.9375q1.375 -0.25 2.59375 -0.8125q1.21875 -0.5625 1.84375 -1.125q-1.375 -1.4375 -2.25 -4.0625l-1.0 0l0 -1.0625zm6.375 -0.625q-1.0625 0 -1.125 -0.875l0 -3.5l-2.75 0q0 1.75 -0.40625 2.75q-0.40625 1.0 -1.71875 2.0625q-0.25 -0.4375 -1.0 -0.75q1.5625 -1.0625 1.78125 -2.4375q0.21875 -1.375 0.15625 -2.625l5.25 0q-0.0625 0.75 -0.0625 1.875l0 1.6875q0 0.5 0.34375 0.59375q0.34375 0.09375 0.96875 0.0625q0.625 -0.03125 1.4375 -0.09375q-0.125 0.625 0 1.25l-2.875 0zm-7.9375 -1.125q-0.0625 1.125 -0.0625 2.5l0 3.8125q0.8125 -0.75 1.375 -1.5q0.1875 0.625 0.625 1.3125q-0.8125 0.75 -1.5 1.4375q-0.6875 0.6875 -1.25 1.5q-0.4375 -0.6875 -0.9375 -1.0625q0.5 -0.5 0.5 -1.4375l0 -5.5q-1.3125 0 -2.1875 0.0625l0 -1.1875q0.8125 0.0625 1.6875 0.0625l1.75 0zm5.75 6.0625q1.25 -1.25 1.9375 -3.25l-3.875 0q0.4375 1.9375 1.9375 3.25zm-7.3125 -10.9375q1.0 0.8125 2.4375 2.5625q-0.5 0.3125 -1.0 0.8125q-1.0625 -1.4375 -2.25 -2.5625q0.375 -0.25 0.8125 -0.8125zm26.1875 7.875q-0.0625 1.125 -0.0625 3.3125q0 2.125 0.0625 3.3125l-1.1875 0l0 -0.8125l-7.0625 0l0 0.8125l-1.1875 0q0.0625 -1.1875 0.0625 -3.3125q0 -2.1875 -0.0625 -3.3125l9.4375 0zm-11.4375 0.375q-0.125 -0.5625 -0.6875 -1.1875q1.5625 -0.125 3.40625 -0.5q1.84375 -0.375 2.96875 -1.0q-1.4375 -1.1875 -2.375 -2.125q-0.75 0.75 -1.75 1.625q-0.5625 -0.5 -1.0 -0.6875q2.4375 -1.875 3.8125 -4.6875q0.625 0.375 1.3125 0.625l-0.5 0.5q-0.1875 0.1875 -0.625 0.75l6.9375 0q-0.5625 1.0625 -1.46875 2.09375q-0.90625 1.03125 -2.15625 1.96875q1.0 0.5 2.90625 0.8125q1.90625 0.3125 3.34375 0.1875q-0.375 0.625 -0.5625 1.3125q-2.25 -0.25 -3.75 -0.53125q-1.5 -0.28125 -3.0625 -1.09375q-1.75 0.8125 -3.65625 1.25q-1.90625 0.4375 -3.09375 0.6875zm3.9375 -5.625q1.3125 1.25 2.9375 2.375q1.3125 -0.8125 2.75 -2.5625l-5.5 0l-0.1875 0.1875zm6.3125 7.6875l0 -1.5l-3.0 0l0 1.5l3.0 0zm-4.125 0l0 -1.5l-2.9375 0l0 1.5l2.9375 0zm4.125 2.375l0 -1.4375l-3.0 0l0 1.4375l3.0 0zm-4.125 0l0 -1.4375l-2.9375 0l0 1.4375l2.9375 0z" fill-rule="nonzero"/><path fill="#000000" d="m671.004 239.44638q1.0 1.25 3.75 2.25l-0.625 1.375q-4.875 -1.625 -6.1875 -6.875l-0.375 0q-0.625 0.875 -1.3125 1.5625l0 3.5l3.5625 -0.6875l0.1875 1.0625q-3.375 0.8125 -6.625 1.4375q-0.1875 0.5625 -0.375 0.1875l-0.4375 -1.5l2.4375 -0.3125l0 -2.6875q-1.625 1.125 -3.625 1.8125l-0.625 -1.25q3.125 -0.875 5.3125 -3.125l-5.0 0l0 -1.1875l6.0625 0l0 -1.125l-4.5 0l0 -1.1875l4.5 0l0 -1.125l-5.3125 0l0 -1.1875l5.3125 0l0 -1.5l1.1875 0q0.5 0.0625 0.0625 0.375l0 1.125l5.3125 0l0 1.1875l-5.3125 0l0 1.125l4.5 0l0 1.1875l-4.5 0l0 1.125l6.0625 0l0 1.1875l-5.3125 0q0.375 1.1875 1.25 2.5q1.1875 -1.0 2.25 -2.1875l0.9375 0.9375q0.0625 0.3125 -0.3125 0.1875q-1.0625 1.0 -2.25 1.8125z" fill-rule="nonzero"/></g></svg>