<svg version="1.1" viewBox="0.0 0.0 849.9343832020998 349.36482939632543" fill="none" stroke="none" stroke-linecap="square" stroke-miterlimit="10" xmlns:xlink="http://www.w3.org/1999/xlink" xmlns="http://www.w3.org/2000/svg"><clipPath id="p.0"><path d="m0 0l849.9344 0l0 349.36484l-849.9344 0l0 -349.36484z" clip-rule="nonzero"/></clipPath><g clip-path="url(#p.0)"><path fill="#000000" fill-opacity="0.0" d="m0 0l849.9344 0l0 349.36484l-849.9344 0z" fill-rule="evenodd"/><path fill="#cfe2f3" d="m8.3149605 211.78752l0 0c0 -3.51091 2.8461628 -6.357071 6.3570824 -6.357071l811.2858 0c1.6859741 0 3.3029175 0.669754 4.495117 1.8619385c1.1921997 1.1921844 1.8619385 2.809143 1.8619385 4.4951324l0 25.427582c0 3.51091 -2.8461304 6.357071 -6.3570557 6.357071l-811.2858 0c-3.5109196 0 -6.3570824 -2.846161 -6.3570824 -6.357071z" fill-rule="evenodd"/><path fill="#efefef" d="m8.3149605 173.6458l0 0c0 -3.5109253 2.8461628 -6.357086 6.3570824 -6.357086l811.2858 0c1.6859741 0 3.3029175 0.6697693 4.495117 1.8619537c1.1921997 1.1921844 1.8619385 2.8091278 1.8619385 4.4951324l0 25.427567c0 3.5109253 -2.8461304 6.357086 -6.3570557 6.357086l-811.2858 0c-3.5109196 0 -6.3570824 -2.846161 -6.3570824 -6.357086z" fill-rule="evenodd"/><path fill="#ffffff" d="m32.774277 52.863518l197.6378 0l0 38.14173l-197.6378 0z" fill-rule="evenodd"/><path stroke="#000000" stroke-width="1.0" stroke-linejoin="round" stroke-linecap="butt" d="m32.774277 52.863518l197.6378 0l0 38.14173l-197.6378 0z" fill-rule="evenodd"/><path fill="#000000" d="m116.40568 64.60688q0.4375 1.125 0.8125 2.1875l2.25 0q1.3125 0 2.75 -0.0625l0 1.125q-1.4375 -0.0625 -2.75 -0.0625l-8.1875 0q0 3.6875 -0.125 5.25q-0.125 1.5625 -0.46875 3.1875q-0.34375 1.625 -1.21875 3.125q-0.4375 -0.5625 -1.125 -0.9375q0.8125 -1.0625 1.25 -2.96875q0.4375 -1.90625 0.5 -4.09375q0.0625 -2.1875 0 -4.5625l5.625 0q-0.1875 -0.875 -0.625 -1.75q0.625 -0.125 1.3125 -0.4375zm5.25 5.375q-0.625 1.375 -1.09375 2.6875q-0.46875 1.3125 -1.84375 4.5625l1.75 0q0.875 0 1.9375 -0.0625l0 1.3125q-1.0625 -0.0625 -1.9375 -0.0625l-6.6875 0q-1.0625 0 -2.5625 0.0625l0 -1.3125q1.4375 0.0625 2.5625 0.0625l3.6875 0q0.9375 -1.9375 1.65625 -4.0625q0.71875 -2.125 1.03125 -3.75q0.8125 0.4375 1.5 0.5625zm-8.8125 0.6875q1.625 2.5625 2.4375 4.5q-0.4375 0.25 -1.0625 0.625q-1.25 -2.8125 -2.375 -4.4375q0.5625 -0.4375 1.0 -0.6875zm3.0 -1.4375q1.25 2.1875 2.1875 4.3125q-0.5625 0.3125 -1.1875 0.625q-0.75 -2.125 -2.0 -4.375q0.5 -0.1875 1.0 -0.5625z" fill-rule="nonzero"/><path fill="#000000" d="m136.53069 73.91938l-4.0625 0l0 4.75l-1.25 0l0 -4.75l-3.7500076 0q-0.125 3.25 -1.9375 5.1875l-1.0 -1.0q1.6875 -1.875 1.6875 -4.375l0 -8.0l11.562508 0l0 11.9375q0 1.0 -1.0 1.0l-1.75 0l-0.3125 -1.375l1.5625 0q0.25 0 0.25 -0.25l0 -3.125zm-9.062508 -3.5l0 2.3125l3.7500076 0l0 -2.3125l-3.7500076 0zm0 -3.5l0 2.3125l3.7500076 0l0 -2.3125l-3.7500076 0zm5.0000076 3.5l0 2.3125l4.0625 0l0 -2.3125l-4.0625 0zm0 -3.5l0 2.3125l4.0625 0l0 -2.3125l-4.0625 0z" fill-rule="nonzero"/><path fill="#000000" d="m153.15569 65.23188q-0.0625 1.3125 -0.0625 2.125q0 0.75 0.0625 1.875l-9.875 0q0 2.75 -0.25 5.0625q-0.25 2.3125 -1.625 5.125q-0.5 -0.375 -1.125 -0.6875q0.75 -1.0625 1.125 -2.40625q0.375 -1.34375 0.5625 -3.15625q0.1875 -1.8125 0.1875 -3.875q0 -2.125 -0.0625 -4.0625l11.0625 0zm-0.875 8.625q0.9375 0 2.0625 -0.0625l0 1.1875q-1.125 -0.0625 -2.0625 -0.0625l-3.875 0q-1.0625 1.8125 -2.25 2.9375q2.125 -0.0625 5.5 -0.1875q-0.5625 -0.625 -1.3125 -1.375q0.5 -0.4375 0.9375 -0.8125q1.625 1.5625 3.0625 3.1875q-0.4375 0.375 -1.0625 0.875q-0.375 -0.4375 -0.8125 -0.9375q-2.0625 0.0625 -4.34375 0.25q-2.28125 0.1875 -3.15625 0.4375q-0.25 -0.75 -0.5625 -1.375q0.625 -0.1875 1.375 -1.0625q0.75 -0.875 1.1875 -1.9375l-1.3125 0q-0.75 0 -2.0625 0.0625l0 -1.1875q1.3125 0.0625 2.25 0.0625l6.4375 0zm-0.25 -5.6875l0 -1.875l-8.75 0l0 1.875l8.75 0zm-1.25 2.75q1.25 0 2.3125 -0.0625l0 1.1875q-0.8125 -0.0625 -2.1875 -0.0625l-4.0 0q-1.0 0 -2.125 0.0625l0 -1.1875q1.125 0.0625 2.125 0.0625l3.875 0z" fill-rule="nonzero"/><path fill="#ffffff" d="m32.774277 91.00525l197.6378 0l0 38.14174l-197.6378 0z" fill-rule="evenodd"/><path stroke="#000000" stroke-width="1.0" stroke-linejoin="round" stroke-linecap="butt" d="m32.774277 91.00525l197.6378 0l0 38.14174l-197.6378 0z" fill-rule="evenodd"/><path fill="#000000" d="m118.78068 113.62362q1.0 1.25 3.75 2.25l-0.625 1.375q-4.875 -1.625 -6.1875 -6.875l-0.375 0q-0.625 0.875 -1.3125 1.5625l0 3.5l3.5625 -0.6875l0.1875 1.0625q-3.375 0.8125 -6.625 1.4375q-0.1875 0.5625 -0.375 0.1875l-0.4375 -1.5l2.4375 -0.3125l0 -2.6875q-1.625 1.125 -3.625 1.8125l-0.625 -1.25q3.125 -0.875 5.3125 -3.125l-5.0 0l0 -1.1875l6.0625 0l0 -1.125l-4.5 0l0 -1.1875l4.5 0l0 -1.125l-5.3125 0l0 -1.1875l5.3125 0l0 -1.5l1.1875 0q0.5 0.0625 0.0625 0.375l0 1.125l5.3125 0l0 1.1875l-5.3125 0l0 1.125l4.5 0l0 1.1875l-4.5 0l0 1.125l6.0625 0l0 1.1875l-5.3125 0q0.375 1.1875 1.25 2.5q1.1875 -1.0 2.25 -2.1875l0.9375 0.9375q0.0625 0.3125 -0.3125 0.1875q-1.0625 1.0 -2.25 1.8125zm16.312508 -3.125q1.25 2.0625 3.4375 3.625l-1.0625 1.1875q-2.0625 -1.6875 -3.5 -4.0625l1.125 -0.75zm-2.6875 5.1875q0 1.125 -1.0625 1.125l-1.75 0l-0.25 -1.375l1.375 0q0.25 0 0.25 -0.25l0 -5.875l-6.1250076 0l0 -1.375l13.437508 0l0 1.375l-5.875 0l0 6.375zm-5.5000076 -10.0625l0 -1.375l9.500008 0l0 1.375l-9.500008 0zm-2.0625 8.75q1.75 -1.25 3.0625 -3.8125l1.2500076 0.6875q0.5 0.3125 -0.1875 0.4375q-1.0625076 2.25 -3.1250076 3.875l-1.0 -1.1875z" fill-rule="nonzero"/><path fill="#000000" d="m153.15569 103.37362q-0.0625 1.3125 -0.0625 2.125q0 0.75 0.0625 1.875l-9.875 0q0 2.75 -0.25 5.0625q-0.25 2.3125 -1.625 5.125q-0.5 -0.375 -1.125 -0.6875q0.75 -1.0625 1.125 -2.40625q0.375 -1.34375 0.5625 -3.15625q0.1875 -1.8125 0.1875 -3.875q0 -2.125 -0.0625 -4.0625l11.0625 0zm-0.875 8.625q0.9375 0 2.0625 -0.0625l0 1.1875q-1.125 -0.0625 -2.0625 -0.0625l-3.875 0q-1.0625 1.8125 -2.25 2.9375q2.125 -0.0625 5.5 -0.1875q-0.5625 -0.625 -1.3125 -1.375q0.5 -0.4375 0.9375 -0.8125q1.625 1.5625 3.0625 3.1875q-0.4375 0.375 -1.0625 0.875q-0.375 -0.4375 -0.8125 -0.9375q-2.0625 0.0625 -4.34375 0.25q-2.28125 0.1875 -3.15625 0.4375q-0.25 -0.75 -0.5625 -1.375q0.625 -0.1875 1.375 -1.0625q0.75 -0.875 1.1875 -1.9375l-1.3125 0q-0.75 0 -2.0625 0.0625l0 -1.1875q1.3125 0.0625 2.25 0.0625l6.4375 0zm-0.25 -5.6875l0 -1.875l-8.75 0l0 1.875l8.75 0zm-1.25 2.75q1.25 0 2.3125 -0.0625l0 1.1875q-0.8125 -0.0625 -2.1875 -0.0625l-4.0 0q-1.0 0 -2.125 0.0625l0 -1.1875q1.125 0.0625 2.125 0.0625l3.875 0z" fill-rule="nonzero"/><path fill="#ffffff" d="m32.774277 129.14699l197.6378 0l0 38.141724l-197.6378 0z" fill-rule="evenodd"/><path stroke="#000000" stroke-width="1.0" stroke-linejoin="round" stroke-linecap="butt" d="m32.774277 129.14699l197.6378 0l0 38.141724l-197.6378 0z" fill-rule="evenodd"/><path fill="#000000" d="m119.03068 146.07785q-2.1875 -1.1875 -3.5625 -3.5625q-1.375 2.25 -3.1875 3.5625l6.75 0zm2.9375 1.3125q-1.0625 -0.25 -2.8125 -1.25l0 1.3125l-7.0625 0l0 -1.25q-1.6875 1.1875 -3.1875 1.625l-0.5625 -1.5q4.375 -1.1875 6.5 -5.125l1.3125 0.1875q0.5 0.0625 0.0625 0.375q2.0 3.0 6.375 4.125l-0.625 1.5zm-1.375 7.9375q-0.5 -0.6875 -1.1875 -1.3125l-9.0625 1.0q-0.3125 0.3125 -0.5625 0.125l-0.4375 -1.5625l2.5625 -0.125l1.75 -3.1875l-4.5 0l0 -1.375l12.8125 0l0 1.375l-6.75 0l-1.875 3.125l5.125 -0.375q-0.8125 -0.75 -1.8125 -1.5l1.125 -0.75q3.0 2.25 4.125 3.75l-1.3125 0.8125z" fill-rule="nonzero"/><path fill="#000000" d="m137.15569 141.51535q0.125 0.5625 0.625 1.25q-0.75 0.0625 -1.59375 0.15625q-0.84375 0.09375 -1.78125 0.28125l0 2.625q3.4375 0 4.4375 -0.0625l0 1.125q-0.8125 -0.0625 -4.4375 -0.0625l0 2.6875l3.125 0q-0.0625 0.75 -0.0625 2.875q0 2.0625 0.0625 2.875l-1.25 0l0 -1.0l-4.875 0l0 1.1875l-1.25 0q0.0625 -1.0 0.0625 -3.25q0 -2.3125 -0.0625 -2.6875l3.0625 0l0 -2.6875q-3.0 0 -4.375 0.0625l0 -1.125q1.375 0.0625 4.375 0.0625l0 -2.4375q-2.3125 0.25 -3.125 0.4375q-0.1875 -0.5625 -0.4375 -1.1875q1.25 -0.0625 3.53125 -0.34375q2.28125 -0.28125 3.96875 -0.78125zm-7.9375 9.1875q0.1875 0.5 0.6875 1.0q-0.6875 0.75 -1.375 1.46875q-0.6875076 0.71875 -1.5625076 1.71875q-0.5 -0.625 -1.0625 -1.0q0.4375 -0.5 0.4375 -1.3125l0 -5.375q-0.875 0 -2.0 0.0625l0 -1.1875l3.25 0q-0.0625 1.125 -0.0625 2.5l0 4.0625q0.5625076 -0.5 1.6875076 -1.9375zm7.0625 2.5625l0 -2.8125l-4.875 0l0 2.8125l4.875 0zm-9.562508 -12.0625q0.375 0.4375 1.8750076 2.3125q-0.4375 0.375 -1.0000076 0.875q-1.0625 -1.5625 -1.8125 -2.375q0.5 -0.3125 0.9375 -0.8125zm26.437508 0.3125q-0.0625 1.3125 -0.0625 2.125q0 0.75 0.0625 1.875l-9.875 0q0 2.75 -0.25 5.0625q-0.25 2.3125 -1.625 5.125q-0.5 -0.375 -1.125 -0.6875q0.75 -1.0625 1.125 -2.40625q0.375 -1.34375 0.5625 -3.15625q0.1875 -1.8125 0.1875 -3.875q0 -2.125 -0.0625 -4.0625l11.0625 0zm-0.875 8.625q0.9375 0 2.0625 -0.0625l0 1.1875q-1.125 -0.0625 -2.0625 -0.0625l-3.875 0q-1.0625 1.8125 -2.25 2.9375q2.125 -0.0625 5.5 -0.1875q-0.5625 -0.625 -1.3125 -1.375q0.5 -0.4375 0.9375 -0.8125q1.625 1.5625 3.0625 3.1875q-0.4375 0.375 -1.0625 0.875q-0.375 -0.4375 -0.8125 -0.9375q-2.0625 0.0625 -4.34375 0.25q-2.28125 0.1875 -3.15625 0.4375q-0.25 -0.75 -0.5625 -1.375q0.625 -0.1875 1.375 -1.0625q0.75 -0.875 1.1875 -1.9375l-1.3125 0q-0.75 0 -2.0625 0.0625l0 -1.1875q1.3125 0.0625 2.25 0.0625l6.4375 0zm-0.25 -5.6875l0 -1.875l-8.75 0l0 1.875l8.75 0zm-1.25 2.75q1.25 0 2.3125 -0.0625l0 1.1875q-0.8125 -0.0625 -2.1875 -0.0625l-4.0 0q-1.0 0 -2.125 0.0625l0 -1.1875q1.125 0.0625 2.125 0.0625l3.875 0z" fill-rule="nonzero"/><path fill="#efefef" d="m32.774277 167.28871l197.6378 0l0 38.14174l-197.6378 0z" fill-rule="evenodd"/><path stroke="#000000" stroke-width="1.0" stroke-linejoin="round" stroke-linecap="butt" d="m32.774277 167.28871l197.6378 0l0 38.14174l-197.6378 0z" fill-rule="evenodd"/><path fill="#000000" d="m121.34318 187.28207q-1.1875 2.625 -2.0 4.3125q0.6875 0.375 1.875 1.125q-0.375 0.4375 -0.8125 1.1875q-1.0625 -0.75 -2.78125 -1.71875q-1.71875 -0.96875 -2.40625 -1.28125q0.3125 -0.5625 0.5625 -1.0625q0.8125 0.375 2.5 1.1875q0.625 -1.25 1.1875 -2.6875l-4.875 0q0.375 -1.125 0.8125 -2.75l-1.375 0q-0.9375 0 -1.625 0.0625l0 -1.125q0.8125 0.0625 1.6875 0.0625l1.5 0q0.25 -1.1875 0.375 -1.9375l-0.9375 0q-1.125 0 -1.8125 0.0625l0 -1.125q0.75 0.0625 1.75 0.0625l1.1875 0q0.25 -1.8125 0.25 -2.5q0.8125 0.1875 1.4375 0.25q-0.1875 0.3125 -0.5625 2.25l2.6875 0q1.0 0 1.875 -0.0625l0 1.125q-0.8125 -0.0625 -1.9375 -0.0625l-2.75 0q-0.125 0.6875 -0.375 1.9375l3.9375 0q1.25 0 1.9375 -0.0625l0 1.125q-0.75 -0.0625 -1.9375 -0.0625l-4.125 0q-0.25 1.0 -0.4375 1.6875l5.1875 0zm-8.1875 -7.25q-0.5 0.5 -1.4375 2.8125l0 8.0q0 1.4375 0.0625 2.6875l-1.375 0q0.125 -1.0 0.125 -2.625l0 -6.1875q-0.9375 1.5 -1.5625 2.375q-0.25 -0.5 -0.875 -1.0q0.75 -0.875 1.8125 -2.6875q1.0625 -1.8125 1.75 -4.125q0.5625 0.3125 1.5 0.75zm18.500008 3.0625q-1.25 1.375 -1.6875 1.75l3.875 0q-0.0625 0.6875 -0.0625 1.6875l0 5.9375q0.0625 0.5625 -0.28125 0.8125q-0.34375 0.25 -1.21875 0.4375q-0.1875 -0.625 -0.625 -1.25q1.0625 0 1.0625 -0.3125l0 -1.625l-1.6875 0l0 3.125l-1.125 0q0.0625 -1.125 0.0625 -2.25l0 -4.375q0 -1.0625 -0.0625 -2.125l-0.375 0.3125q-0.4375 -0.5 -1.0625 -0.75q1.5625 -1.0625 2.6875 -2.46875q1.125 -1.40625 1.875 -3.03125q0.75 0.375 1.375 0.5l-0.25 0.3125q1.1875 1.625 2.5 2.5q1.3125 0.875 2.4375 1.25q-0.5625 0.5 -0.9375 1.125q-1.375 -0.6875 -2.375 -1.5625l0 0.75l-4.125 0l0 -0.75zm-2.5 7.0625q-0.625 0.125 -1.2500076 0.375q0 1.9375 0.0625 3.3125l-1.1875 0q0.0625 -1.375 0.0625 -3.0625q-1.4375 0.375 -2.0625 0.625q-0.1875 -0.625 -0.5625 -1.25q1.0 -0.125 2.625 -0.5l0 -2.375q-1.5 0.125 -2.25 0.4375l-0.4375 -1.0625q0.5 -0.3125 0.9375 -1.5625q0.4375 -1.25 0.6875 -2.4375q-0.625 0 -1.3125 0.0625l0 -1.125q0.8125 0.0625 1.5 0.0625q0.25 -1.1875 0.3125 -2.375q0.8125 0.25 1.5 0.375q-0.375 0.4375 -0.6875 2.0q1.3125076 0 2.2500076 -0.0625l0 1.125q-1.125 -0.0625 -2.4375076 -0.0625q-0.625 2.3125 -1.25 3.75l1.1875 -0.125q0 -0.8125 -0.0625 -1.875l1.1875 0q-0.0625 0.5625 -0.0625 1.75l1.0625076 -0.125l0 1.0l-1.0625076 0.125l0 2.25l1.2500076 -0.3125l0 1.0625zm8.875 -5.25q-0.0625 1.0 -0.0625 1.9375l0 5.625q0 0.6875 -0.3125 0.9375q-0.3125 0.25 -1.5625 0.5q-0.125 -0.5625 -0.625 -1.25q1.375 0.0625 1.4375 -0.4375l0 -5.25q0 -1.0 -0.0625 -2.0625l1.1875 0zm-2.0 0.5625q-0.0625 0.75 -0.0625 1.75l0 2.75q0 1.1875 0.0625 1.9375l-1.25 0q0.0625 -0.9375 0.0625 -1.875l0 -2.8125q0 -0.875 -0.0625 -1.75l1.25 0zm-0.5625 -2.625q-0.75 -0.6875 -1.9375 -2.3125q-1.0 1.5 -1.6875 2.3125l3.625 0zm-2.75 4.375l0 -1.4375l-1.6875 0l0 1.4375l1.6875 0zm0 2.3125l0 -1.375l-1.6875 0l0 1.375l1.6875 0zm20.4375 -9.875q-0.0625 1.3125 -0.0625 2.125q0 0.75 0.0625 1.875l-9.875 0q0 2.75 -0.25 5.0625q-0.25 2.3125 -1.625 5.125q-0.5 -0.375 -1.125 -0.6875q0.75 -1.0625 1.125 -2.40625q0.375 -1.34375 0.5625 -3.15625q0.1875 -1.8125 0.1875 -3.875q0 -2.125 -0.0625 -4.0625l11.0625 0zm-0.875 8.625q0.9375 0 2.0625 -0.0625l0 1.1875q-1.125 -0.0625 -2.0625 -0.0625l-3.875 0q-1.0625 1.8125 -2.25 2.9375q2.125 -0.0625 5.5 -0.1875q-0.5625 -0.625 -1.3125 -1.375q0.5 -0.4375 0.9375 -0.8125q1.625 1.5625 3.0625 3.1875q-0.4375 0.375 -1.0625 0.875q-0.375 -0.4375 -0.8125 -0.9375q-2.0625 0.0625 -4.34375 0.25q-2.28125 0.1875 -3.15625 0.4375q-0.25 -0.75 -0.5625 -1.375q0.625 -0.1875 1.375 -1.0625q0.75 -0.875 1.1875 -1.9375l-1.3125 0q-0.75 0 -2.0625 0.0625l0 -1.1875q1.3125 0.0625 2.25 0.0625l6.4375 0zm-0.25 -5.6875l0 -1.875l-8.75 0l0 1.875l8.75 0zm-1.25 2.75q1.25 0 2.3125 -0.0625l0 1.1875q-0.8125 -0.0625 -2.1875 -0.0625l-4.0 0q-1.0 0 -2.125 0.0625l0 -1.1875q1.125 0.0625 2.125 0.0625l3.875 0z" fill-rule="nonzero"/><path fill="#cfe2f3" d="m32.774277 205.43045l197.6378 0l0 38.141724l-197.6378 0z" fill-rule="evenodd"/><path stroke="#000000" stroke-width="1.0" stroke-linejoin="round" stroke-linecap="butt" d="m32.774277 205.43045l197.6378 0l0 38.141724l-197.6378 0z" fill-rule="evenodd"/><path fill="#000000" d="m113.53068 226.04881q-0.75 1.9375 -2.25 3.625l-0.6875 -0.9375q1.4375 -1.75 2.1875 -3.6875q-0.9375 -1.375 -1.9375 -2.6875l0.625 -0.625q0.875 1.0 1.5625 1.9375q0.25 -1.5 0.375 -3.0625l1.0625 0.25q0.5 0.1875 -0.0625 0.375q-0.1875 1.5 -0.5 3.4375q0.875 1.1875 1.625 2.3125l-0.625 1.0625q-0.6875 -1.0 -1.375 -2.0zm-3.25 -6.375l0 11.5625l-1.25 0l0 -12.75l12.9375 0l0 11.625q0 1.0 -0.9375 1.0l-1.5625 0l-0.25 -1.1875l1.3125 0q0.1875 0 0.1875 -0.1875l0 -10.0625l-10.4375 0zm7.375 4.375q0.375 -1.875 0.5 -3.5l1.0 0.125q0.625 0.1875 0 0.4375q-0.1875 1.75 -0.6875 3.875q0.9375 1.3125 1.625 2.5l-0.625 1.0q-0.75 -1.25 -1.4375 -2.3125q-0.9375 2.4375 -2.1875 3.75l-0.6875 -1.0q1.25 -1.3125 2.0625 -3.6875q-0.9375 -1.5 -1.875 -2.625l0.625 -0.6875q0.75 0.875 1.6875 2.125z" fill-rule="nonzero"/><path fill="#000000" d="m129.59319 222.61131q0.6875 -0.75 1.125 -1.5q0.4375 -0.75 0.84375 -1.65625q0.40625 -0.90625 0.65625 -2.09375q0.6875 0.3125 1.5 0.4375q-0.375 0.5625 -0.8125 1.4375l5.0625 0q-0.9375 1.875 -1.5625 2.8125q-0.625 0.9375 -1.3125 1.6875q0.8125 0.5625 1.9375 0.9375q1.125 0.375 2.0625 0.5625q-0.3125 0.5 -0.625 1.3125q-0.625 -0.1875 -1.125 -0.375q-0.125 0.875 -0.125 1.625l0 2.25q0 0.9375 0.0625 1.9375l-1.1875 0l0 -1.1875l-3.75 0l0 1.3125l-1.1875 0q0.0625 -0.9375 0.0625 -1.75l0 -2.5q0 -0.5 -0.0625 -1.6875q-0.375 0.1875 -1.0625 0.4375q-0.25 -0.6875 -0.6875 -1.1875q0.9375 -0.25 2.09375 -0.71875q1.15625 -0.46875 1.84375 -1.03125q-0.8125 -1.0625 -1.375 -2.375q-0.6875 1.0625 -1.375 2.0q-0.375 -0.375 -1.0 -0.6875zm-1.4375 -4.0625q-0.43750763 0.5625 -1.0000076 1.71875q-0.5625 1.15625 -1.3125 2.46875l1.75 0q0.6875076 -1.3125 1.0000076 -2.3125q0.625 0.5 1.25 0.8125q-0.375 0.4375 -1.125 1.78125q-0.7500076 1.34375 -2.0625076 3.53125q1.8750076 -0.3125 2.6875076 -0.4375q-0.0625 0.8125 0 1.1875q-1.5000076 0.1875 -2.3125076 0.34375q-0.8125 0.15625 -1.875 0.40625q-0.1875 -0.6875 -0.4375 -1.1875q0.625 -0.25 1.21875 -1.125q0.59375 -0.875 1.21875 -2.125q-1.6875 0.0625 -2.5625 0.4375q-0.1875 -0.5625 -0.4375 -1.25q0.75 -0.375 1.5 -1.90625q0.75 -1.53125 1.125 -3.03125q0.6875 0.4375 1.3750076 0.6875zm7.9375 11.25l0 -2.6875l-3.75 0l0 2.6875l3.75 0zm-6.5625 -1.1875q0.125 0.625 0.125 1.125q-0.6875 0.125 -1.9687576 0.5625q-1.28125 0.4375 -2.46875 0.9375q-0.25 -0.75 -0.5625 -1.375q1.5625 -0.3125 2.59375 -0.5625q1.0312576 -0.25 2.2812576 -0.6875zm4.75 -5.6875q0.375 -0.375 0.90625 -1.125q0.53125 -0.75 0.90625 -1.5625l-3.375 0q0.625 1.5625 1.5625 2.6875zm3.0 3.1875q-0.875 -0.375 -1.65625 -0.75q-0.78125 -0.375 -1.46875 -0.875q-0.75 0.5 -1.40625 0.875q-0.65625 0.375 -1.46875 0.75l6.0 0zm15.875 -8.3125q-0.0625 1.3125 -0.0625 2.125q0 0.75 0.0625 1.875l-9.875 0q0 2.75 -0.25 5.0625q-0.25 2.3125 -1.625 5.125q-0.5 -0.375 -1.125 -0.6875q0.75 -1.0625 1.125 -2.40625q0.375 -1.34375 0.5625 -3.15625q0.1875 -1.8125 0.1875 -3.875q0 -2.125 -0.0625 -4.0625l11.0625 0zm-0.875 8.625q0.9375 0 2.0625 -0.0625l0 1.1875q-1.125 -0.0625 -2.0625 -0.0625l-3.875 0q-1.0625 1.8125 -2.25 2.9375q2.125 -0.0625 5.5 -0.1875q-0.5625 -0.625 -1.3125 -1.375q0.5 -0.4375 0.9375 -0.8125q1.625 1.5625 3.0625 3.1875q-0.4375 0.375 -1.0625 0.875q-0.375 -0.4375 -0.8125 -0.9375q-2.0625 0.0625 -4.34375 0.25q-2.28125 0.1875 -3.15625 0.4375q-0.25 -0.75 -0.5625 -1.375q0.625 -0.1875 1.375 -1.0625q0.75 -0.875 1.1875 -1.9375l-1.3125 0q-0.75 0 -2.0625 0.0625l0 -1.1875q1.3125 0.0625 2.25 0.0625l6.4375 0zm-0.25 -5.6875l0 -1.875l-8.75 0l0 1.875l8.75 0zm-1.25 2.75q1.25 0 2.3125 -0.0625l0 1.1875q-0.8125 -0.0625 -2.1875 -0.0625l-4.0 0q-1.0 0 -2.125 0.0625l0 -1.1875q1.125 0.0625 2.125 0.0625l3.875 0z" fill-rule="nonzero"/><path fill="#b6d7a8" d="m32.774277 243.57217l197.6378 0l0 38.141724l-197.6378 0z" fill-rule="evenodd"/><path stroke="#000000" stroke-width="1.0" stroke-linejoin="round" stroke-linecap="butt" d="m32.774277 243.57217l197.6378 0l0 38.141724l-197.6378 0z" fill-rule="evenodd"/><path fill="#000000" d="m103.21818 265.06555q0.875 -1.6875 1.0625 -5.125l-2.125 0q0.1875 3.4375 1.0625 5.125zm2.3125 -5.125q-0.125 3.875 -1.5 6.25q1.0 1.25 2.8125 2.1875l-0.8125 1.375q-2.0 -1.3125 -2.8125 -2.5q-1.4375 1.625 -4.4375 2.8125l-0.625 -1.25q3.25 -1.3125 4.3125 -2.6875q-1.0625 -2.0625 -1.1875 -4.125q-0.375 0.9375 -0.75 1.4375l-1.0625 -0.8125q1.875 -2.75 2.25 -6.8125l1.3125 0.3125q0.375 0.25 -0.1875 0.375q-0.1875 1.125 -0.5 2.25l4.25 0l0 1.1875l-1.0625 0zm-5.8125 -3.0q-0.375 0.9375 -0.875 1.5625l-1.0 -0.5625q0.5 -0.8125 0.9375 -1.875l1.125 0.5625q0.25 0.25 -0.1875 0.3125zm-4.0 8.8125q0.875 0.25 1.5625 0.5625q0.5 -0.5625 0.8125 -1.6875l-1.8125 0q-0.25 0.5625 -0.5625 1.125zm-0.875 1.5625l-1.0 -0.5625q0.625 -0.9375 1.25 -2.125l-2.375 0l0 -1.0l2.75 0q0.375 -0.8125 0.5625 -1.375l1.1875 0.3125q0.25 0.25 -0.1875 0.3125l-0.375 0.75l3.5625 0l0 1.0l-0.9375 0q-0.3125 1.25 -0.9375 2.125q0.5625 0.25 1.1875 0.625l-0.5625 1.0q-0.6875 -0.4375 -1.25 -0.6875q-1.625 1.625 -4.375 2.0l-0.4375 -1.125q2.4375 -0.25 3.75 -1.375q-0.6875 -0.3125 -1.375 -0.5625l-0.4375 0.6875zm1.25 -11.75l1.0 0q0.5 0.0625 0.0625 0.375l0 2.6875l3.1875 0l0 1.0l-2.625 0q0.6875 0.8125 2.125 1.5625l-0.6875 1.0625q-1.0625 -0.625 -2.0 -1.75l0 1.5l-1.0625 0l0 -1.1875q-1.0 1.25 -2.75 2.25l-0.8125 -1.0q1.9375 -1.0 3.1875 -2.4375l-2.875 0l0 -1.0l3.25 0l0 -3.0625zm-1.75 2.875q-0.4375 -0.9375 -1.125 -1.625l1.0 -0.625q0.75 0.75 1.125 1.5625l-1.0 0.6875zm19.5 -2.5l8.1875 0l0 3.9375l-2.8125 0l0 1.8125l3.5 0l0 1.0l-3.5 0l0 1.875l2.4375 0l0 5.1875l-1.0625 0l0 -0.6875l-3.75 0l0 0.875l-1.0625 0l0 -5.375l2.1875 0l0 -1.875l-3.0625 0l0 1.0q0 4.1875 -1.8125 6.0625l-0.9375 -0.9375q1.6875 -1.6875 1.6875 -5.375l0 -7.5zm6.75 9.625l-3.75 0l0 2.5l3.75 0l0 -2.5zm-2.625 -3.875l0 -1.8125l-3.0625 0l0 1.8125l3.0625 0zm-3.0625 -2.8125l5.875 0l0 -1.9375l-5.875 0l0 1.9375zm-1.625 4.6875l-1.625 0.5625l0 4.875q0 1.0 -1.0 1.0l-1.25 0l-0.1875 -1.1875l0.9375 0q0.25 0 0.25 -0.25l0 -4.0625l-1.3125 0.4375q-0.0625 0.4375 -0.3125 0.1875l-0.4375 -1.5l2.0625 -0.4375l0 -3.25l-1.75 0l0 -1.1875l1.75 0l0 -3.25l1.1875 0q0.5 0.0625 0.0625 0.375l0 2.875l1.625 0l0 1.1875l-1.625 0l0 3.0l1.5 -0.4375l0.125 1.0625z" fill-rule="nonzero"/><path fill="#000000" d="m133.90569 257.50305q0.375 -0.6875 0.625 -2.125l1.5 0.5q-0.375 0.5625 -0.875 1.625l1.75 0q0.9375 0 1.875 -0.0625l0 1.0625q-0.9375 -0.0625 -1.875 -0.0625l-2.0 0q-0.875 2.0625 -1.3125 3.25l1.5 0q0 -0.75 -0.0625 -1.6875l1.25 0q-0.0625 1.25 -0.0625 1.6875l0.625 0q0.75 0 1.625 -0.0625l0 1.0625q-0.875 -0.0625 -1.5625 -0.0625l-0.6875 0l0 2.0625l0.75 0q0.875 0 1.6875 -0.0625l0 1.0625q-0.75 -0.0625 -1.6875 -0.0625l-0.75 0q0 0.9375 0.0625 2.375l-1.25 0q0.0625 -1.4375 0.0625 -2.375l-1.0 0q-0.875 0 -1.75 0.0625l0 -1.0625q0.875 0.0625 1.75 0.0625l1.0 0l0 -2.0625l-0.9375 0q-1.1875 0 -1.6875 0.25q-0.1875 -0.5625 -0.4375 -1.1875q0.5 -0.25 0.9375 -1.25q0.4375 -1.0 0.75 -2.0q-0.4375 0 -1.4375 0.0625l0 -1.0625q0.8125 0.0625 1.625 0.0625zm-6.0625076 3.0625q0.43750763 0 0.9375076 -0.0625l0 1.125q-1.0000076 -0.0625 -1.3750076 -0.0625l0 1.75q0.7500076 0 1.6250076 -0.0625l0 1.1875q-0.875 -0.125 -1.6250076 -0.125l0 3.0625q1.2500076 -1.0 1.6875076 -1.5q0.125 0.5625 0.5 1.125q-0.625 0.375 -1.375 1.03125q-0.7500076 0.65625 -1.5625076 1.46875q-0.375 -0.4375 -0.875 -0.875q0.4375 -0.4375 0.5625 -1.5625l0 -2.75q-0.8125 0 -1.8125 0.0625l0 -1.125q1.0 0.0625 1.8125 0.0625l0 -1.75q-0.375 0 -0.9375 0.0625l0 -1.0l-0.5 0.625q-0.3125 -0.4375 -0.8125 -0.9375q0.9375 -0.9375 1.46875 -2.125q0.53125 -1.1875 0.84375 -2.5625q1.0 0.4375 1.5625 0.5625q-0.4375 0.375 -0.65625 0.875q-0.21875 0.5 -0.46875 0.9375q1.0625 0 2.2500076 -0.0625l0 1.125q-1.3125076 -0.0625 -2.6250076 -0.0625q-0.375 0.625 -0.9375 1.4375q0.4375 0 0.875 0.125l1.4375 0zm1.5625076 0.5q0.5625 0.0625 1.0625 0.0625l1.1875 0q-0.125 1.0 -0.125 1.75l0 4.25q0.5 0.5 1.46875 0.8125q0.96875 0.3125 2.09375 0.40625q1.125 0.09375 4.0 -0.15625q-0.4375 0.6875 -0.5625 1.4375q-2.0625 0 -3.28125 -0.125q-1.21875 -0.125 -1.90625 -0.3125q-0.6875 -0.1875 -1.5625 -0.78125q-0.875 -0.59375 -1.34375 -0.09375q-0.46875 0.5 -0.96875 1.0625q-0.4375 -0.6875 -0.875 -1.125q1.25 -0.8125 1.875 -1.125l0 -5.0l-0.25 0q-0.3125 0 -0.8125 0.125l0 -1.1875zm1.375 -4.6875q0.5 1.0625 0.875 2.5q-0.5625 0.1875 -1.125 0.5q-0.375 -1.4375 -0.875 -2.625q0.4375 -0.1875 1.125 -0.375z" fill-rule="nonzero"/><path fill="#000000" d="m152.28069 267.94055l0 -2.8125l-3.125 0l0 2.8125l3.125 0zm1.25 1.6875l-1.25 0l0 -0.6875l-3.125 0l0 0.875l-1.25 0l0 -5.6875l5.625 0l0 5.5zm-4.4375 -11.625q0.3125 0.875 1.5625 2.25q1.125 -1.5 1.4375 -2.25l-3.0 0zm1.5625 4.0q-2.1875 2.0 -4.0625 2.6875l-0.5625 -1.25q1.75 -0.5625 3.8125 -2.375q-0.5 -0.5 -1.3125 -1.8125q-0.625 1.4375 -1.25 2.0625l-0.9375 -0.9375q1.5 -2.0 2.3125 -5.0l1.3125 0.375q0.25 0.25 -0.1875 0.3125l-0.3125 0.75l3.1875 0l0.1875 -0.3125l1.0 0.8125q0.25 0.1875 -0.25 0.375q-0.875 2.0 -2.0625 3.375q2.125 1.625 3.625 2.125l-0.5 1.375q-1.5 -0.5 -4.0 -2.5625zm-4.5625 -5.625l0 4.625l-1.5625 0l0 2.3125l1.4375 0l0 1.1875l-1.4375 0l0 2.875l2.1875 -0.6875l0.25 1.125l-5.75 1.625q-0.0625 0.5 -0.3125 0.25l-0.5 -1.375l0.75 -0.125l0 -5.8125l1.1875 0q0.5 0.0625 0.0625 0.375l0 5.125l0.875 -0.1875l0 -6.6875l-1.125 0l-1.0625 0l0 -4.625l5.0 0zm-1.25 3.625l0 -2.625l-2.5 0l0 2.625l2.5 0z" fill-rule="nonzero"/><path fill="#000000" d="m169.15569 255.94055q-0.0625 1.3125 -0.0625 2.125q0 0.75 0.0625 1.875l-9.875 0q0 2.75 -0.25 5.0625q-0.25 2.3125 -1.625 5.125q-0.5 -0.375 -1.125 -0.6875q0.75 -1.0625 1.125 -2.40625q0.375 -1.34375 0.5625 -3.15625q0.1875 -1.8125 0.1875 -3.875q0 -2.125 -0.0625 -4.0625l11.0625 0zm-0.875 8.625q0.9375 0 2.0625 -0.0625l0 1.1875q-1.125 -0.0625 -2.0625 -0.0625l-3.875 0q-1.0625 1.8125 -2.25 2.9375q2.125 -0.0625 5.5 -0.1875q-0.5625 -0.625 -1.3125 -1.375q0.5 -0.4375 0.9375 -0.8125q1.625 1.5625 3.0625 3.1875q-0.4375 0.375 -1.0625 0.875q-0.375 -0.4375 -0.8125 -0.9375q-2.0625 0.0625 -4.34375 0.25q-2.28125 0.1875 -3.15625 0.4375q-0.25 -0.75 -0.5625 -1.375q0.625 -0.1875 1.375 -1.0625q0.75 -0.875 1.1875 -1.9375l-1.3125 0q-0.75 0 -2.0625 0.0625l0 -1.1875q1.3125 0.0625 2.25 0.0625l6.4375 0zm-0.25 -5.6875l0 -1.875l-8.75 0l0 1.875l8.75 0zm-1.25 2.75q1.25 0 2.3125 -0.0625l0 1.1875q-0.8125 -0.0625 -2.1875 -0.0625l-4.0 0q-1.0 0 -2.125 0.0625l0 -1.1875q1.125 0.0625 2.125 0.0625l3.875 0z" fill-rule="nonzero"/><path fill="#ffffff" d="m32.774277 281.7139l197.6378 0l0 38.141754l-197.6378 0z" fill-rule="evenodd"/><path stroke="#000000" stroke-width="1.0" stroke-linejoin="round" stroke-linecap="butt" d="m32.774277 281.7139l197.6378 0l0 38.141754l-197.6378 0z" fill-rule="evenodd"/><path fill="#000000" d="m110.21818 296.83228l1.0 0l0 -3.1875l1.1875 0q0.5 0.0625 0.0625 0.375l0 2.8125l1.75 0l0 1.1875l-1.75 0l0 3.4375l1.625 -0.625l0.3125 1.0625l-1.9375 0.8125l0 5.375l-1.25 0l0 -4.9375l-1.9375 0.625q-0.0625 0.4375 -0.3125 0.1875l-0.4375 -1.375l2.6875 -0.75l0 -3.8125l-1.0625 0q-0.125 1.1875 -0.5 2.3125l-1.1875 -0.4375q0.75 -2.1875 0.75 -4.8125l1.25 0.1875q0.1875 0.1875 -0.125 0.375l-0.125 1.1875zm12.1875 -0.125l-0.0625 7.6875q0 3.3125 -1.875 3.3125l-1.8125 0l-0.25 -1.375l1.5625 0q1.125 0.125 1.125 -1.9375l0.0625 -6.5l-0.6875 0q0.0625 5.5 -5.4375 10.125l-0.8125 -1.125q4.625 -3.4375 5.0625 -9.0l-1.0 0q-0.25 3.8125 -3.8125 6.75l-0.875 -1.0625q3.125 -2.4375 3.5 -5.6875l-1.0 0q-0.6875 1.6875 -1.75 2.875l-1.0625 -0.75q2.1875 -2.6875 2.6875 -6.1875l1.3125 0.25q0.25 0.25 -0.1875 0.3125q-0.1875 1.0625 -0.5625 2.3125l5.875 0zm7.3750076 7.5q-2.4375076 0.875 -4.5625076 1.4375q-0.1875 0.5 -0.375 0.1875l-0.4375 -1.4375l2.1875 -0.4375l0 -3.4375l-1.6875 0l0 -1.1875l1.6875 0l0 -3.3125l-1.875 0l0 -1.1875l5.0000076 0l0 1.1875l-1.8750076 0l0 3.3125l1.6875076 0l0 1.1875l-1.6875076 0l0 3.125q0.5000076 -0.0625 1.8125076 -0.5l0.125 1.0625zm4.9375 -2.9375l0 1.8125l3.5 0l0 1.1875l-3.5 0l0 1.9375l4.125 0l0 1.1875l-9.9375 0l0 -1.1875l4.75 0l0 -1.9375l-3.375 0l0 -1.1875l3.375 0l0 -1.8125l-2.25 0l0 0.8125l-1.0625 0l0 -7.6875l7.75 0l0 7.4375l-1.0625 0l0 -0.5625l-2.3125 0zm2.3125 -2.875l-2.3125 0l0 1.875l2.3125 0l0 -1.875zm0 -3.0l-2.3125 0l0 2.0l2.3125 0l0 -2.0zm-3.375 2.0l0 -2.0l-2.25 0l0 2.0l2.25 0zm0 1.0l-2.25 0l0 1.875l2.25 0l0 -1.875z" fill-rule="nonzero"/><path fill="#000000" d="m153.15569 294.08228q-0.0625 1.3125 -0.0625 2.125q0 0.75 0.0625 1.875l-9.875 0q0 2.75 -0.25 5.0625q-0.25 2.3125 -1.625 5.125q-0.5 -0.375 -1.125 -0.6875q0.75 -1.0625 1.125 -2.40625q0.375 -1.34375 0.5625 -3.15625q0.1875 -1.8125 0.1875 -3.875q0 -2.125 -0.0625 -4.0625l11.0625 0zm-0.875 8.625q0.9375 0 2.0625 -0.0625l0 1.1875q-1.125 -0.0625 -2.0625 -0.0625l-3.875 0q-1.0625 1.8125 -2.25 2.9375q2.125 -0.0625 5.5 -0.1875q-0.5625 -0.625 -1.3125 -1.375q0.5 -0.4375 0.9375 -0.8125q1.625 1.5625 3.0625 3.1875q-0.4375 0.375 -1.0625 0.875q-0.375 -0.4375 -0.8125 -0.9375q-2.0625 0.0625 -4.34375 0.25q-2.28125 0.1875 -3.15625 0.4375q-0.25 -0.75 -0.5625 -1.375q0.625 -0.1875 1.375 -1.0625q0.75 -0.875 1.1875 -1.9375l-1.3125 0q-0.75 0 -2.0625 0.0625l0 -1.1875q1.3125 0.0625 2.25 0.0625l6.4375 0zm-0.25 -5.6875l0 -1.875l-8.75 0l0 1.875l8.75 0zm-1.25 2.75q1.25 0 2.3125 -0.0625l0 1.1875q-0.8125 -0.0625 -2.1875 -0.0625l-4.0 0q-1.0 0 -2.125 0.0625l0 -1.1875q1.125 0.0625 2.125 0.0625l3.875 0z" fill-rule="nonzero"/><path fill="#ffffff" d="m321.49606 52.863518l197.63779 0l0 114.42519l-197.63779 0z" fill-rule="evenodd"/><path stroke="#000000" stroke-width="1.0" stroke-linejoin="round" stroke-linecap="butt" d="m321.49606 52.863518l197.63779 0l0 114.42519l-197.63779 0z" fill-rule="evenodd"/><path fill="#000000" d="m405.12747 102.74861q0.4375 1.125 0.8125 2.1875l2.25 0q1.3125 0 2.75 -0.0625l0 1.125q-1.4375 -0.0625 -2.75 -0.0625l-8.1875 0q0 3.6875 -0.125 5.25q-0.125 1.5625 -0.46875 3.1875q-0.34375 1.625 -1.21875 3.1250076q-0.4375 -0.5625 -1.125 -0.9375076q0.8125 -1.0625 1.25 -2.96875q0.4375 -1.90625 0.5 -4.09375q0.0625 -2.1875 0 -4.5625l5.625 0q-0.1875 -0.875 -0.625 -1.75q0.625 -0.125 1.3125 -0.4375zm5.25 5.375q-0.625 1.375 -1.09375 2.6875q-0.46875 1.3125 -1.84375 4.5625l1.75 0q0.875 0 1.9375 -0.0625l0 1.3125q-1.0625 -0.0625 -1.9375 -0.0625l-6.6875 0q-1.0625 0 -2.5625 0.0625l0 -1.3125q1.4375 0.0625 2.5625 0.0625l3.6875 0q0.9375 -1.9375 1.65625 -4.0625q0.71875 -2.125 1.03125 -3.75q0.8125 0.4375 1.5 0.5625zm-8.8125 0.6875q1.625 2.5625 2.4375 4.5q-0.4375 0.25 -1.0625 0.625q-1.25 -2.8125 -2.375 -4.4375q0.5625 -0.4375 1.0 -0.6875zm3.0 -1.4375q1.25 2.1875 2.1875 4.3125q-0.5625 0.3125 -1.1875 0.625q-0.75 -2.125 -2.0 -4.375q0.5 -0.1875 1.0 -0.5625z" fill-rule="nonzero"/><path fill="#000000" d="m425.25247 112.06111l-4.0625 0l0 4.75l-1.25 0l0 -4.75l-3.75 0q-0.125 3.25 -1.9375 5.1875076l-1.0 -1.0000076q1.6875 -1.875 1.6875 -4.375l0 -8.0l11.5625 0l0 11.9375q0 1.0 -1.0 1.0l-1.75 0l-0.3125 -1.375l1.5625 0q0.25 0 0.25 -0.25l0 -3.125zm-9.0625 -3.5l0 2.3125l3.75 0l0 -2.3125l-3.75 0zm0 -3.5l0 2.3125l3.75 0l0 -2.3125l-3.75 0zm5.0 3.5l0 2.3125l4.0625 0l0 -2.3125l-4.0625 0zm0 -3.5l0 2.3125l4.0625 0l0 -2.3125l-4.0625 0z" fill-rule="nonzero"/><path fill="#000000" d="m441.87747 103.37361q-0.0625 1.3125 -0.0625 2.125q0 0.75 0.0625 1.875l-9.875 0q0 2.75 -0.25 5.0625q-0.25 2.3125 -1.625 5.1250076q-0.5 -0.375 -1.125 -0.6875q0.75 -1.0625076 1.125 -2.4062576q0.375 -1.34375 0.5625 -3.15625q0.1875 -1.8125 0.1875 -3.875q0 -2.125 -0.0625 -4.0625l11.0625 0zm-0.875 8.625q0.9375 0 2.0625 -0.0625l0 1.1875q-1.125 -0.0625 -2.0625 -0.0625l-3.875 0q-1.0625 1.8125 -2.25 2.9375q2.125 -0.0625 5.5 -0.1875q-0.5625 -0.625 -1.3125 -1.375q0.5 -0.4375 0.9375 -0.8125q1.625 1.5625 3.0625 3.1875q-0.4375 0.37500763 -1.0625 0.8750076q-0.375 -0.4375 -0.8125 -0.9375076q-2.0625 0.0625 -4.34375 0.25000763q-2.28125 0.1875 -3.15625 0.4375q-0.25 -0.7500076 -0.5625 -1.3750076q0.625 -0.1875 1.375 -1.0625q0.75 -0.875 1.1875 -1.9375l-1.3125 0q-0.75 0 -2.0625 0.0625l0 -1.1875q1.3125 0.0625 2.25 0.0625l6.4375 0zm-0.25 -5.6875l0 -1.875l-8.75 0l0 1.875l8.75 0zm-1.25 2.75q1.25 0 2.3125 -0.0625l0 1.1875q-0.8125 -0.0625 -2.1875 -0.0625l-4.0 0q-1.0 0 -2.125 0.0625l0 -1.1875q1.125 0.0625 2.125 0.0625l3.875 0z" fill-rule="nonzero"/><path fill="#efefef" d="m321.49606 167.28871l197.63779 0l0 38.14174l-197.63779 0z" fill-rule="evenodd"/><path stroke="#000000" stroke-width="1.0" stroke-linejoin="round" stroke-linecap="butt" d="m321.49606 167.28871l197.63779 0l0 38.14174l-197.63779 0z" fill-rule="evenodd"/><path fill="#000000" d="m410.06497 187.28207q-1.1875 2.625 -2.0 4.3125q0.6875 0.375 1.875 1.125q-0.375 0.4375 -0.8125 1.1875q-1.0625 -0.75 -2.78125 -1.71875q-1.71875 -0.96875 -2.40625 -1.28125q0.3125 -0.5625 0.5625 -1.0625q0.8125 0.375 2.5 1.1875q0.625 -1.25 1.1875 -2.6875l-4.875 0q0.375 -1.125 0.8125 -2.75l-1.375 0q-0.9375 0 -1.625 0.0625l0 -1.125q0.8125 0.0625 1.6875 0.0625l1.5 0q0.25 -1.1875 0.375 -1.9375l-0.9375 0q-1.125 0 -1.8125 0.0625l0 -1.125q0.75 0.0625 1.75 0.0625l1.1875 0q0.25 -1.8125 0.25 -2.5q0.8125 0.1875 1.4375 0.25q-0.1875 0.3125 -0.5625 2.25l2.6875 0q1.0 0 1.875 -0.0625l0 1.125q-0.8125 -0.0625 -1.9375 -0.0625l-2.75 0q-0.125 0.6875 -0.375 1.9375l3.9375 0q1.25 0 1.9375 -0.0625l0 1.125q-0.75 -0.0625 -1.9375 -0.0625l-4.125 0q-0.25 1.0 -0.4375 1.6875l5.1875 0zm-8.1875 -7.25q-0.5 0.5 -1.4375 2.8125l0 8.0q0 1.4375 0.0625 2.6875l-1.375 0q0.125 -1.0 0.125 -2.625l0 -6.1875q-0.9375 1.5 -1.5625 2.375q-0.25 -0.5 -0.875 -1.0q0.75 -0.875 1.8125 -2.6875q1.0625 -1.8125 1.75 -4.125q0.5625 0.3125 1.5 0.75zm18.5 3.0625q-1.25 1.375 -1.6875 1.75l3.875 0q-0.0625 0.6875 -0.0625 1.6875l0 5.9375q0.0625 0.5625 -0.28125 0.8125q-0.34375 0.25 -1.21875 0.4375q-0.1875 -0.625 -0.625 -1.25q1.0625 0 1.0625 -0.3125l0 -1.625l-1.6875 0l0 3.125l-1.125 0q0.0625 -1.125 0.0625 -2.25l0 -4.375q0 -1.0625 -0.0625 -2.125l-0.375 0.3125q-0.4375 -0.5 -1.0625 -0.75q1.5625 -1.0625 2.6875 -2.46875q1.125 -1.40625 1.875 -3.03125q0.75 0.375 1.375 0.5l-0.25 0.3125q1.1875 1.625 2.5 2.5q1.3125 0.875 2.4375 1.25q-0.5625 0.5 -0.9375 1.125q-1.375 -0.6875 -2.375 -1.5625l0 0.75l-4.125 0l0 -0.75zm-2.5 7.0625q-0.625 0.125 -1.25 0.375q0 1.9375 0.0625 3.3125l-1.1875 0q0.0625 -1.375 0.0625 -3.0625q-1.4375 0.375 -2.0625 0.625q-0.1875 -0.625 -0.5625 -1.25q1.0 -0.125 2.625 -0.5l0 -2.375q-1.5 0.125 -2.25 0.4375l-0.4375 -1.0625q0.5 -0.3125 0.9375 -1.5625q0.4375 -1.25 0.6875 -2.4375q-0.625 0 -1.3125 0.0625l0 -1.125q0.8125 0.0625 1.5 0.0625q0.25 -1.1875 0.3125 -2.375q0.8125 0.25 1.5 0.375q-0.375 0.4375 -0.6875 2.0q1.3125 0 2.25 -0.0625l0 1.125q-1.125 -0.0625 -2.4375 -0.0625q-0.625 2.3125 -1.25 3.75l1.1875 -0.125q0 -0.8125 -0.0625 -1.875l1.1875 0q-0.0625 0.5625 -0.0625 1.75l1.0625 -0.125l0 1.0l-1.0625 0.125l0 2.25l1.25 -0.3125l0 1.0625zm8.875 -5.25q-0.0625 1.0 -0.0625 1.9375l0 5.625q0 0.6875 -0.3125 0.9375q-0.3125 0.25 -1.5625 0.5q-0.125 -0.5625 -0.625 -1.25q1.375 0.0625 1.4375 -0.4375l0 -5.25q0 -1.0 -0.0625 -2.0625l1.1875 0zm-2.0 0.5625q-0.0625 0.75 -0.0625 1.75l0 2.75q0 1.1875 0.0625 1.9375l-1.25 0q0.0625 -0.9375 0.0625 -1.875l0 -2.8125q0 -0.875 -0.0625 -1.75l1.25 0zm-0.5625 -2.625q-0.75 -0.6875 -1.9375 -2.3125q-1.0 1.5 -1.6875 2.3125l3.625 0zm-2.75 4.375l0 -1.4375l-1.6875 0l0 1.4375l1.6875 0zm0 2.3125l0 -1.375l-1.6875 0l0 1.375l1.6875 0zm20.4375 -9.875q-0.0625 1.3125 -0.0625 2.125q0 0.75 0.0625 1.875l-9.875 0q0 2.75 -0.25 5.0625q-0.25 2.3125 -1.625 5.125q-0.5 -0.375 -1.125 -0.6875q0.75 -1.0625 1.125 -2.40625q0.375 -1.34375 0.5625 -3.15625q0.1875 -1.8125 0.1875 -3.875q0 -2.125 -0.0625 -4.0625l11.0625 0zm-0.875 8.625q0.9375 0 2.0625 -0.0625l0 1.1875q-1.125 -0.0625 -2.0625 -0.0625l-3.875 0q-1.0625 1.8125 -2.25 2.9375q2.125 -0.0625 5.5 -0.1875q-0.5625 -0.625 -1.3125 -1.375q0.5 -0.4375 0.9375 -0.8125q1.625 1.5625 3.0625 3.1875q-0.4375 0.375 -1.0625 0.875q-0.375 -0.4375 -0.8125 -0.9375q-2.0625 0.0625 -4.34375 0.25q-2.28125 0.1875 -3.15625 0.4375q-0.25 -0.75 -0.5625 -1.375q0.625 -0.1875 1.375 -1.0625q0.75 -0.875 1.1875 -1.9375l-1.3125 0q-0.75 0 -2.0625 0.0625l0 -1.1875q1.3125 0.0625 2.25 0.0625l6.4375 0zm-0.25 -5.6875l0 -1.875l-8.75 0l0 1.875l8.75 0zm-1.25 2.75q1.25 0 2.3125 -0.0625l0 1.1875q-0.8125 -0.0625 -2.1875 -0.0625l-4.0 0q-1.0 0 -2.125 0.0625l0 -1.1875q1.125 0.0625 2.125 0.0625l3.875 0z" fill-rule="nonzero"/><path fill="#cfe2f3" d="m321.49606 205.43045l197.63779 0l0 38.141724l-197.63779 0z" fill-rule="evenodd"/><path stroke="#000000" stroke-width="1.0" stroke-linejoin="round" stroke-linecap="butt" d="m321.49606 205.43045l197.63779 0l0 38.141724l-197.63779 0z" fill-rule="evenodd"/><path fill="#000000" d="m402.25247 226.04881q-0.75 1.9375 -2.25 3.625l-0.6875 -0.9375q1.4375 -1.75 2.1875 -3.6875q-0.9375 -1.375 -1.9375 -2.6875l0.625 -0.625q0.875 1.0 1.5625 1.9375q0.25 -1.5 0.375 -3.0625l1.0625 0.25q0.5 0.1875 -0.0625 0.375q-0.1875 1.5 -0.5 3.4375q0.875 1.1875 1.625 2.3125l-0.625 1.0625q-0.6875 -1.0 -1.375 -2.0zm-3.25 -6.375l0 11.5625l-1.25 0l0 -12.75l12.9375 0l0 11.625q0 1.0 -0.9375 1.0l-1.5625 0l-0.25 -1.1875l1.3125 0q0.1875 0 0.1875 -0.1875l0 -10.0625l-10.4375 0zm7.375 4.375q0.375 -1.875 0.5 -3.5l1.0 0.125q0.625 0.1875 0 0.4375q-0.1875 1.75 -0.6875 3.875q0.9375 1.3125 1.625 2.5l-0.625 1.0q-0.75 -1.25 -1.4375 -2.3125q-0.9375 2.4375 -2.1875 3.75l-0.6875 -1.0q1.25 -1.3125 2.0625 -3.6875q-0.9375 -1.5 -1.875 -2.625l0.625 -0.6875q0.75 0.875 1.6875 2.125z" fill-rule="nonzero"/><path fill="#000000" d="m418.31497 222.61131q0.6875 -0.75 1.125 -1.5q0.4375 -0.75 0.84375 -1.65625q0.40625 -0.90625 0.65625 -2.09375q0.6875 0.3125 1.5 0.4375q-0.375 0.5625 -0.8125 1.4375l5.0625 0q-0.9375 1.875 -1.5625 2.8125q-0.625 0.9375 -1.3125 1.6875q0.8125 0.5625 1.9375 0.9375q1.125 0.375 2.0625 0.5625q-0.3125 0.5 -0.625 1.3125q-0.625 -0.1875 -1.125 -0.375q-0.125 0.875 -0.125 1.625l0 2.25q0 0.9375 0.0625 1.9375l-1.1875 0l0 -1.1875l-3.75 0l0 1.3125l-1.1875 0q0.0625 -0.9375 0.0625 -1.75l0 -2.5q0 -0.5 -0.0625 -1.6875q-0.375 0.1875 -1.0625 0.4375q-0.25 -0.6875 -0.6875 -1.1875q0.9375 -0.25 2.09375 -0.71875q1.15625 -0.46875 1.84375 -1.03125q-0.8125 -1.0625 -1.375 -2.375q-0.6875 1.0625 -1.375 2.0q-0.375 -0.375 -1.0 -0.6875zm-1.4375 -4.0625q-0.4375 0.5625 -1.0 1.71875q-0.5625 1.15625 -1.3125 2.46875l1.75 0q0.6875 -1.3125 1.0 -2.3125q0.625 0.5 1.25 0.8125q-0.375 0.4375 -1.125 1.78125q-0.75 1.34375 -2.0625 3.53125q1.875 -0.3125 2.6875 -0.4375q-0.0625 0.8125 0 1.1875q-1.5 0.1875 -2.3125 0.34375q-0.8125 0.15625 -1.875 0.40625q-0.1875 -0.6875 -0.4375 -1.1875q0.625 -0.25 1.21875 -1.125q0.59375 -0.875 1.21875 -2.125q-1.6875 0.0625 -2.5625 0.4375q-0.1875 -0.5625 -0.4375 -1.25q0.75 -0.375 1.5 -1.90625q0.75 -1.53125 1.125 -3.03125q0.6875 0.4375 1.375 0.6875zm7.9375 11.25l0 -2.6875l-3.75 0l0 2.6875l3.75 0zm-6.5625 -1.1875q0.125 0.625 0.125 1.125q-0.6875 0.125 -1.96875 0.5625q-1.28125 0.4375 -2.46875 0.9375q-0.25 -0.75 -0.5625 -1.375q1.5625 -0.3125 2.59375 -0.5625q1.03125 -0.25 2.28125 -0.6875zm4.75 -5.6875q0.375 -0.375 0.90625 -1.125q0.53125 -0.75 0.90625 -1.5625l-3.375 0q0.625 1.5625 1.5625 2.6875zm3.0 3.1875q-0.875 -0.375 -1.65625 -0.75q-0.78125 -0.375 -1.46875 -0.875q-0.75 0.5 -1.40625 0.875q-0.65625 0.375 -1.46875 0.75l6.0 0zm15.875 -8.3125q-0.0625 1.3125 -0.0625 2.125q0 0.75 0.0625 1.875l-9.875 0q0 2.75 -0.25 5.0625q-0.25 2.3125 -1.625 5.125q-0.5 -0.375 -1.125 -0.6875q0.75 -1.0625 1.125 -2.40625q0.375 -1.34375 0.5625 -3.15625q0.1875 -1.8125 0.1875 -3.875q0 -2.125 -0.0625 -4.0625l11.0625 0zm-0.875 8.625q0.9375 0 2.0625 -0.0625l0 1.1875q-1.125 -0.0625 -2.0625 -0.0625l-3.875 0q-1.0625 1.8125 -2.25 2.9375q2.125 -0.0625 5.5 -0.1875q-0.5625 -0.625 -1.3125 -1.375q0.5 -0.4375 0.9375 -0.8125q1.625 1.5625 3.0625 3.1875q-0.4375 0.375 -1.0625 0.875q-0.375 -0.4375 -0.8125 -0.9375q-2.0625 0.0625 -4.34375 0.25q-2.28125 0.1875 -3.15625 0.4375q-0.25 -0.75 -0.5625 -1.375q0.625 -0.1875 1.375 -1.0625q0.75 -0.875 1.1875 -1.9375l-1.3125 0q-0.75 0 -2.0625 0.0625l0 -1.1875q1.3125 0.0625 2.25 0.0625l6.4375 0zm-0.25 -5.6875l0 -1.875l-8.75 0l0 1.875l8.75 0zm-1.25 2.75q1.25 0 2.3125 -0.0625l0 1.1875q-0.8125 -0.0625 -2.1875 -0.0625l-4.0 0q-1.0 0 -2.125 0.0625l0 -1.1875q1.125 0.0625 2.125 0.0625l3.875 0z" fill-rule="nonzero"/><path fill="#ffffff" d="m321.49606 243.57217l197.63779 0l0 76.28348l-197.63779 0z" fill-rule="evenodd"/><path stroke="#000000" stroke-width="1.0" stroke-linejoin="round" stroke-linecap="butt" d="m321.49606 243.57217l197.63779 0l0 76.28348l-197.63779 0z" fill-rule="evenodd"/><path fill="#000000" d="m386.25247 283.2614q-0.75 1.9375 -2.25 3.625l-0.6875 -0.9375q1.4375 -1.75 2.1875 -3.6875q-0.9375 -1.375 -1.9375 -2.6875l0.625 -0.625q0.875 1.0 1.5625 1.9375q0.25 -1.5 0.375 -3.0625l1.0625 0.25q0.5 0.1875 -0.0625 0.375q-0.1875 1.5 -0.5 3.4375q0.875 1.1875 1.625 2.3125l-0.625 1.0625q-0.6875 -1.0 -1.375 -2.0zm-3.25 -6.375l0 11.5625l-1.25 0l0 -12.75l12.9375 0l0 11.625q0 1.0 -0.9375 1.0l-1.5625 0l-0.25 -1.1875l1.3125 0q0.1875 0 0.1875 -0.1875l0 -10.0625l-10.4375 0zm7.375 4.375q0.375 -1.875 0.5 -3.5l1.0 0.125q0.625 0.1875 0 0.4375q-0.1875 1.75 -0.6875 3.875q0.9375 1.3125 1.625 2.5l-0.625 1.0q-0.75 -1.25 -1.4375 -2.3125q-0.9375 2.4375 -2.1875 3.75l-0.6875 -1.0q1.25 -1.3125 2.0625 -3.6875q-0.9375 -1.5 -1.875 -2.625l0.625 -0.6875q0.75 0.875 1.6875 2.125z" fill-rule="nonzero"/><path fill="#000000" d="m402.31497 279.8239q0.6875 -0.75 1.125 -1.5q0.4375 -0.75 0.84375 -1.65625q0.40625 -0.90625 0.65625 -2.09375q0.6875 0.3125 1.5 0.4375q-0.375 0.5625 -0.8125 1.4375l5.0625 0q-0.9375 1.875 -1.5625 2.8125q-0.625 0.9375 -1.3125 1.6875q0.8125 0.5625 1.9375 0.9375q1.125 0.375 2.0625 0.5625q-0.3125 0.5 -0.625 1.3125q-0.625 -0.1875 -1.125 -0.375q-0.125 0.875 -0.125 1.625l0 2.25q0 0.9375 0.0625 1.9375l-1.1875 0l0 -1.1875l-3.75 0l0 1.3125l-1.1875 0q0.0625 -0.9375 0.0625 -1.75l0 -2.5q0 -0.5 -0.0625 -1.6875q-0.375 0.1875 -1.0625 0.4375q-0.25 -0.6875 -0.6875 -1.1875q0.9375 -0.25 2.09375 -0.71875q1.15625 -0.46875 1.84375 -1.03125q-0.8125 -1.0625 -1.375 -2.375q-0.6875 1.0625 -1.375 2.0q-0.375 -0.375 -1.0 -0.6875zm-1.4375 -4.0625q-0.4375 0.5625 -1.0 1.71875q-0.5625 1.15625 -1.3125 2.46875l1.75 0q0.6875 -1.3125 1.0 -2.3125q0.625 0.5 1.25 0.8125q-0.375 0.4375 -1.125 1.78125q-0.75 1.34375 -2.0625 3.53125q1.875 -0.3125 2.6875 -0.4375q-0.0625 0.8125 0 1.1875q-1.5 0.1875 -2.3125 0.34375q-0.8125 0.15625 -1.875 0.40625q-0.1875 -0.6875 -0.4375 -1.1875q0.625 -0.25 1.21875 -1.125q0.59375 -0.875 1.21875 -2.125q-1.6875 0.0625 -2.5625 0.4375q-0.1875 -0.5625 -0.4375 -1.25q0.75 -0.375 1.5 -1.90625q0.75 -1.53125 1.125 -3.03125q0.6875 0.4375 1.375 0.6875zm7.9375 11.25l0 -2.6875l-3.75 0l0 2.6875l3.75 0zm-6.5625 -1.1875q0.125 0.625 0.125 1.125q-0.6875 0.125 -1.96875 0.5625q-1.28125 0.4375 -2.46875 0.9375q-0.25 -0.75 -0.5625 -1.375q1.5625 -0.3125 2.59375 -0.5625q1.03125 -0.25 2.28125 -0.6875zm4.75 -5.6875q0.375 -0.375 0.90625 -1.125q0.53125 -0.75 0.90625 -1.5625l-3.375 0q0.625 1.5625 1.5625 2.6875zm3.0 3.1875q-0.875 -0.375 -1.65625 -0.75q-0.78125 -0.375 -1.46875 -0.875q-0.75 0.5 -1.40625 0.875q-0.65625 0.375 -1.46875 0.75l6.0 0z" fill-rule="nonzero"/><path fill="#000000" d="m422.50247 281.0739l0.5 0.1875q0.25 0.25 -0.1875 0.3125l-0.5625 1.125l4.75 0l0 1.1875l-1.625 0q-0.5 1.625 -1.1875 2.4375q1.5625 0.5625 2.9375 1.375l-0.75 1.125q-2.0625 -1.125 -3.0625 -1.5625q-2.0625 1.375 -4.8125 1.8125l-0.4375 -1.125q2.625 -0.3125 4.0 -1.25l-1.625 -0.6875l-0.375 0.5625l-1.0 -0.5l1.25 -2.1875l-1.875 0l0 -1.1875l2.5 0l0.75 -1.625l-3.8125 0l0 -1.1875l2.5625 0l-0.6875 -2.25l-0.9375 0l0 -1.1875l3.0625 0l0 -1.75l1.1875 0q0.5 0.0625 0.0625 0.375l0 1.375l3.5 0l0 1.1875l-1.3125 0l-0.6875 2.25l2.875 0l0 1.1875l-5.0 0zm0.5625 4.8125q0.625 -0.6875 1.0 -2.0l-2.375 0l-0.75 1.25l2.125 0.75zm-1.3125 -6.0l1.625 0l0.625 -2.25l-2.9375 0l0.6875 2.25zm-6.6875 -5.1875l1.1875 0q0.5 0.0625 0.0625 0.375l0 2.4375l1.75 0l0 1.1875l-1.75 0l0 3.25l1.3125 -0.4375l0.4375 1.0625l-1.75 0.6875l0 4.9375q0 0.875 -0.875 0.875l-1.1875 0l-0.1875 -1.1875l0.75 0q0.25 0 0.25 -0.25l0 -3.9375l-1.0625 0.3125q-0.0625 0.4375 -0.3125 0.1875l-0.5 -1.375l1.875 -0.5l0 -3.625l-1.6875 0l0 -1.1875l1.6875 0l0 -2.8125zm25.0625 11.6875l-7.8125 0l0 1.1875l-1.4375 0l0 -11.125l10.6875 0l0 10.875l-1.4375 0l0 -0.9375zm-7.8125 -8.5625l0 7.1875l7.8125 0l0 -7.1875l-7.8125 0z" fill-rule="nonzero"/><path fill="#000000" d="m457.87747 275.0114q-0.0625 1.3125 -0.0625 2.125q0 0.75 0.0625 1.875l-9.875 0q0 2.75 -0.25 5.0625q-0.25 2.3125 -1.625 5.125q-0.5 -0.375 -1.125 -0.6875q0.75 -1.0625 1.125 -2.40625q0.375 -1.34375 0.5625 -3.15625q0.1875 -1.8125 0.1875 -3.875q0 -2.125 -0.0625 -4.0625l11.0625 0zm-0.875 8.625q0.9375 0 2.0625 -0.0625l0 1.1875q-1.125 -0.0625 -2.0625 -0.0625l-3.875 0q-1.0625 1.8125 -2.25 2.9375q2.125 -0.0625 5.5 -0.1875q-0.5625 -0.625 -1.3125 -1.375q0.5 -0.4375 0.9375 -0.8125q1.625 1.5625 3.0625 3.1875q-0.4375 0.375 -1.0625 0.875q-0.375 -0.4375 -0.8125 -0.9375q-2.0625 0.0625 -4.34375 0.25q-2.28125 0.1875 -3.15625 0.4375q-0.25 -0.75 -0.5625 -1.375q0.625 -0.1875 1.375 -1.0625q0.75 -0.875 1.1875 -1.9375l-1.3125 0q-0.75 0 -2.0625 0.0625l0 -1.1875q1.3125 0.0625 2.25 0.0625l6.4375 0zm-0.25 -5.6875l0 -1.875l-8.75 0l0 1.875l8.75 0zm-1.25 2.75q1.25 0 2.3125 -0.0625l0 1.1875q-0.8125 -0.0625 -2.1875 -0.0625l-4.0 0q-1.0 0 -2.125 0.0625l0 -1.1875q1.125 0.0625 2.125 0.0625l3.875 0z" fill-rule="nonzero"/><path fill="#ffffff" d="m599.8399 52.863518l197.63776 0l0 114.42519l-197.63776 0z" fill-rule="evenodd"/><path stroke="#000000" stroke-width="1.0" stroke-linejoin="round" stroke-linecap="butt" d="m599.8399 52.863518l197.63776 0l0 114.42519l-197.63776 0z" fill-rule="evenodd"/><path fill="#000000" d="m683.4713 102.74861q0.4375 1.125 0.8125 2.1875l2.25 0q1.3125 0 2.75 -0.0625l0 1.125q-1.4375 -0.0625 -2.75 -0.0625l-8.1875 0q0 3.6875 -0.125 5.25q-0.125 1.5625 -0.46875 3.1875q-0.34375 1.625 -1.21875 3.1250076q-0.4375 -0.5625 -1.125 -0.9375076q0.8125 -1.0625 1.25 -2.96875q0.4375 -1.90625 0.5 -4.09375q0.0625 -2.1875 0 -4.5625l5.625 0q-0.1875 -0.875 -0.625 -1.75q0.625 -0.125 1.3125 -0.4375zm5.25 5.375q-0.625 1.375 -1.09375 2.6875q-0.46875 1.3125 -1.84375 4.5625l1.75 0q0.875 0 1.9375 -0.0625l0 1.3125q-1.0625 -0.0625 -1.9375 -0.0625l-6.6875 0q-1.0625 0 -2.5625 0.0625l0 -1.3125q1.4375 0.0625 2.5625 0.0625l3.6875 0q0.9375 -1.9375 1.65625 -4.0625q0.71875 -2.125 1.03125 -3.75q0.8125 0.4375 1.5 0.5625zm-8.8125 0.6875q1.625 2.5625 2.4375 4.5q-0.4375 0.25 -1.0625 0.625q-1.25 -2.8125 -2.375 -4.4375q0.5625 -0.4375 1.0 -0.6875zm3.0 -1.4375q1.25 2.1875 2.1875 4.3125q-0.5625 0.3125 -1.1875 0.625q-0.75 -2.125 -2.0 -4.375q0.5 -0.1875 1.0 -0.5625z" fill-rule="nonzero"/><path fill="#000000" d="m703.5963 112.06111l-4.0625 0l0 4.75l-1.25 0l0 -4.75l-3.75 0q-0.125 3.25 -1.9375 5.1875076l-1.0 -1.0000076q1.6875 -1.875 1.6875 -4.375l0 -8.0l11.5625 0l0 11.9375q0 1.0 -1.0 1.0l-1.75 0l-0.3125 -1.375l1.5625 0q0.25 0 0.25 -0.25l0 -3.125zm-9.0625 -3.5l0 2.3125l3.75 0l0 -2.3125l-3.75 0zm0 -3.5l0 2.3125l3.75 0l0 -2.3125l-3.75 0zm5.0 3.5l0 2.3125l4.0625 0l0 -2.3125l-4.0625 0zm0 -3.5l0 2.3125l4.0625 0l0 -2.3125l-4.0625 0z" fill-rule="nonzero"/><path fill="#000000" d="m720.2213 103.37361q-0.0625 1.3125 -0.0625 2.125q0 0.75 0.0625 1.875l-9.875 0q0 2.75 -0.25 5.0625q-0.25 2.3125 -1.625 5.1250076q-0.5 -0.375 -1.125 -0.6875q0.75 -1.0625076 1.125 -2.4062576q0.375 -1.34375 0.5625 -3.15625q0.1875 -1.8125 0.1875 -3.875q0 -2.125 -0.0625 -4.0625l11.0625 0zm-0.875 8.625q0.9375 0 2.0625 -0.0625l0 1.1875q-1.125 -0.0625 -2.0625 -0.0625l-3.875 0q-1.0625 1.8125 -2.25 2.9375q2.125 -0.0625 5.5 -0.1875q-0.5625 -0.625 -1.3125 -1.375q0.5 -0.4375 0.9375 -0.8125q1.625 1.5625 3.0625 3.1875q-0.4375 0.37500763 -1.0625 0.8750076q-0.375 -0.4375 -0.8125 -0.9375076q-2.0625 0.0625 -4.34375 0.25000763q-2.28125 0.1875 -3.15625 0.4375q-0.25 -0.7500076 -0.5625 -1.3750076q0.625 -0.1875 1.375 -1.0625q0.75 -0.875 1.1875 -1.9375l-1.3125 0q-0.75 0 -2.0625 0.0625l0 -1.1875q1.3125 0.0625 2.25 0.0625l6.4375 0zm-0.25 -5.6875l0 -1.875l-8.75 0l0 1.875l8.75 0zm-1.25 2.75q1.25 0 2.3125 -0.0625l0 1.1875q-0.8125 -0.0625 -2.1875 -0.0625l-4.0 0q-1.0 0 -2.125 0.0625l0 -1.1875q1.125 0.0625 2.125 0.0625l3.875 0z" fill-rule="nonzero"/><path fill="#efefef" d="m599.8399 167.28871l197.63776 0l0 38.14174l-197.63776 0z" fill-rule="evenodd"/><path stroke="#000000" stroke-width="1.0" stroke-linejoin="round" stroke-linecap="butt" d="m599.8399 167.28871l197.63776 0l0 38.14174l-197.63776 0z" fill-rule="evenodd"/><path fill="#000000" d="m688.4088 187.28207q-1.1875 2.625 -2.0 4.3125q0.6875 0.375 1.875 1.125q-0.375 0.4375 -0.8125 1.1875q-1.0625 -0.75 -2.78125 -1.71875q-1.71875 -0.96875 -2.40625 -1.28125q0.3125 -0.5625 0.5625 -1.0625q0.8125 0.375 2.5 1.1875q0.625 -1.25 1.1875 -2.6875l-4.875 0q0.375 -1.125 0.8125 -2.75l-1.375 0q-0.9375 0 -1.625 0.0625l0 -1.125q0.8125 0.0625 1.6875 0.0625l1.5 0q0.25 -1.1875 0.375 -1.9375l-0.9375 0q-1.125 0 -1.8125 0.0625l0 -1.125q0.75 0.0625 1.75 0.0625l1.1875 0q0.25 -1.8125 0.25 -2.5q0.8125 0.1875 1.4375 0.25q-0.1875 0.3125 -0.5625 2.25l2.6875 0q1.0 0 1.875 -0.0625l0 1.125q-0.8125 -0.0625 -1.9375 -0.0625l-2.75 0q-0.125 0.6875 -0.375 1.9375l3.9375 0q1.25 0 1.9375 -0.0625l0 1.125q-0.75 -0.0625 -1.9375 -0.0625l-4.125 0q-0.25 1.0 -0.4375 1.6875l5.1875 0zm-8.1875 -7.25q-0.5 0.5 -1.4375 2.8125l0 8.0q0 1.4375 0.0625 2.6875l-1.375 0q0.125 -1.0 0.125 -2.625l0 -6.1875q-0.9375 1.5 -1.5625 2.375q-0.25 -0.5 -0.875 -1.0q0.75 -0.875 1.8125 -2.6875q1.0625 -1.8125 1.75 -4.125q0.5625 0.3125 1.5 0.75zm18.5 3.0625q-1.25 1.375 -1.6875 1.75l3.875 0q-0.0625 0.6875 -0.0625 1.6875l0 5.9375q0.0625 0.5625 -0.28125 0.8125q-0.34375 0.25 -1.21875 0.4375q-0.1875 -0.625 -0.625 -1.25q1.0625 0 1.0625 -0.3125l0 -1.625l-1.6875 0l0 3.125l-1.125 0q0.0625 -1.125 0.0625 -2.25l0 -4.375q0 -1.0625 -0.0625 -2.125l-0.375 0.3125q-0.4375 -0.5 -1.0625 -0.75q1.5625 -1.0625 2.6875 -2.46875q1.125 -1.40625 1.875 -3.03125q0.75 0.375 1.375 0.5l-0.25 0.3125q1.1875 1.625 2.5 2.5q1.3125 0.875 2.4375 1.25q-0.5625 0.5 -0.9375 1.125q-1.375 -0.6875 -2.375 -1.5625l0 0.75l-4.125 0l0 -0.75zm-2.5 7.0625q-0.625 0.125 -1.25 0.375q0 1.9375 0.0625 3.3125l-1.1875 0q0.0625 -1.375 0.0625 -3.0625q-1.4375 0.375 -2.0625 0.625q-0.1875 -0.625 -0.5625 -1.25q1.0 -0.125 2.625 -0.5l0 -2.375q-1.5 0.125 -2.25 0.4375l-0.4375 -1.0625q0.5 -0.3125 0.9375 -1.5625q0.4375 -1.25 0.6875 -2.4375q-0.625 0 -1.3125 0.0625l0 -1.125q0.8125 0.0625 1.5 0.0625q0.25 -1.1875 0.3125 -2.375q0.8125 0.25 1.5 0.375q-0.375 0.4375 -0.6875 2.0q1.3125 0 2.25 -0.0625l0 1.125q-1.125 -0.0625 -2.4375 -0.0625q-0.625 2.3125 -1.25 3.75l1.1875 -0.125q0 -0.8125 -0.0625 -1.875l1.1875 0q-0.0625 0.5625 -0.0625 1.75l1.0625 -0.125l0 1.0l-1.0625 0.125l0 2.25l1.25 -0.3125l0 1.0625zm8.875 -5.25q-0.0625 1.0 -0.0625 1.9375l0 5.625q0 0.6875 -0.3125 0.9375q-0.3125 0.25 -1.5625 0.5q-0.125 -0.5625 -0.625 -1.25q1.375 0.0625 1.4375 -0.4375l0 -5.25q0 -1.0 -0.0625 -2.0625l1.1875 0zm-2.0 0.5625q-0.0625 0.75 -0.0625 1.75l0 2.75q0 1.1875 0.0625 1.9375l-1.25 0q0.0625 -0.9375 0.0625 -1.875l0 -2.8125q0 -0.875 -0.0625 -1.75l1.25 0zm-0.5625 -2.625q-0.75 -0.6875 -1.9375 -2.3125q-1.0 1.5 -1.6875 2.3125l3.625 0zm-2.75 4.375l0 -1.4375l-1.6875 0l0 1.4375l1.6875 0zm0 2.3125l0 -1.375l-1.6875 0l0 1.375l1.6875 0zm20.4375 -9.875q-0.0625 1.3125 -0.0625 2.125q0 0.75 0.0625 1.875l-9.875 0q0 2.75 -0.25 5.0625q-0.25 2.3125 -1.625 5.125q-0.5 -0.375 -1.125 -0.6875q0.75 -1.0625 1.125 -2.40625q0.375 -1.34375 0.5625 -3.15625q0.1875 -1.8125 0.1875 -3.875q0 -2.125 -0.0625 -4.0625l11.0625 0zm-0.875 8.625q0.9375 0 2.0625 -0.0625l0 1.1875q-1.125 -0.0625 -2.0625 -0.0625l-3.875 0q-1.0625 1.8125 -2.25 2.9375q2.125 -0.0625 5.5 -0.1875q-0.5625 -0.625 -1.3125 -1.375q0.5 -0.4375 0.9375 -0.8125q1.625 1.5625 3.0625 3.1875q-0.4375 0.375 -1.0625 0.875q-0.375 -0.4375 -0.8125 -0.9375q-2.0625 0.0625 -4.34375 0.25q-2.28125 0.1875 -3.15625 0.4375q-0.25 -0.75 -0.5625 -1.375q0.625 -0.1875 1.375 -1.0625q0.75 -0.875 1.1875 -1.9375l-1.3125 0q-0.75 0 -2.0625 0.0625l0 -1.1875q1.3125 0.0625 2.25 0.0625l6.4375 0zm-0.25 -5.6875l0 -1.875l-8.75 0l0 1.875l8.75 0zm-1.25 2.75q1.25 0 2.3125 -0.0625l0 1.1875q-0.8125 -0.0625 -2.1875 -0.0625l-4.0 0q-1.0 0 -2.125 0.0625l0 -1.1875q1.125 0.0625 2.125 0.0625l3.875 0z" fill-rule="nonzero"/><path fill="#cfe2f3" d="m599.8399 205.43045l197.63776 0l0 38.141724l-197.63776 0z" fill-rule="evenodd"/><path stroke="#000000" stroke-width="1.0" stroke-linejoin="round" stroke-linecap="butt" d="m599.8399 205.43045l197.63776 0l0 38.141724l-197.63776 0z" fill-rule="evenodd"/><path fill="#000000" d="m680.5963 226.04881q-0.75 1.9375 -2.25 3.625l-0.6875 -0.9375q1.4375 -1.75 2.1875 -3.6875q-0.9375 -1.375 -1.9375 -2.6875l0.625 -0.625q0.875 1.0 1.5625 1.9375q0.25 -1.5 0.375 -3.0625l1.0625 0.25q0.5 0.1875 -0.0625 0.375q-0.1875 1.5 -0.5 3.4375q0.875 1.1875 1.625 2.3125l-0.625 1.0625q-0.6875 -1.0 -1.375 -2.0zm-3.25 -6.375l0 11.5625l-1.25 0l0 -12.75l12.9375 0l0 11.625q0 1.0 -0.9375 1.0l-1.5625 0l-0.25 -1.1875l1.3125 0q0.1875 0 0.1875 -0.1875l0 -10.0625l-10.4375 0zm7.375 4.375q0.375 -1.875 0.5 -3.5l1.0 0.125q0.625 0.1875 0 0.4375q-0.1875 1.75 -0.6875 3.875q0.9375 1.3125 1.625 2.5l-0.625 1.0q-0.75 -1.25 -1.4375 -2.3125q-0.9375 2.4375 -2.1875 3.75l-0.6875 -1.0q1.25 -1.3125 2.0625 -3.6875q-0.9375 -1.5 -1.875 -2.625l0.625 -0.6875q0.75 0.875 1.6875 2.125z" fill-rule="nonzero"/><path fill="#000000" d="m696.6588 222.61131q0.6875 -0.75 1.125 -1.5q0.4375 -0.75 0.84375 -1.65625q0.40625 -0.90625 0.65625 -2.09375q0.6875 0.3125 1.5 0.4375q-0.375 0.5625 -0.8125 1.4375l5.0625 0q-0.9375 1.875 -1.5625 2.8125q-0.625 0.9375 -1.3125 1.6875q0.8125 0.5625 1.9375 0.9375q1.125 0.375 2.0625 0.5625q-0.3125 0.5 -0.625 1.3125q-0.625 -0.1875 -1.125 -0.375q-0.125 0.875 -0.125 1.625l0 2.25q0 0.9375 0.0625 1.9375l-1.1875 0l0 -1.1875l-3.75 0l0 1.3125l-1.1875 0q0.0625 -0.9375 0.0625 -1.75l0 -2.5q0 -0.5 -0.0625 -1.6875q-0.375 0.1875 -1.0625 0.4375q-0.25 -0.6875 -0.6875 -1.1875q0.9375 -0.25 2.09375 -0.71875q1.15625 -0.46875 1.84375 -1.03125q-0.8125 -1.0625 -1.375 -2.375q-0.6875 1.0625 -1.375 2.0q-0.375 -0.375 -1.0 -0.6875zm-1.4375 -4.0625q-0.4375 0.5625 -1.0 1.71875q-0.5625 1.15625 -1.3125 2.46875l1.75 0q0.6875 -1.3125 1.0 -2.3125q0.625 0.5 1.25 0.8125q-0.375 0.4375 -1.125 1.78125q-0.75 1.34375 -2.0625 3.53125q1.875 -0.3125 2.6875 -0.4375q-0.0625 0.8125 0 1.1875q-1.5 0.1875 -2.3125 0.34375q-0.8125 0.15625 -1.875 0.40625q-0.1875 -0.6875 -0.4375 -1.1875q0.625 -0.25 1.21875 -1.125q0.59375 -0.875 1.21875 -2.125q-1.6875 0.0625 -2.5625 0.4375q-0.1875 -0.5625 -0.4375 -1.25q0.75 -0.375 1.5 -1.90625q0.75 -1.53125 1.125 -3.03125q0.6875 0.4375 1.375 0.6875zm7.9375 11.25l0 -2.6875l-3.75 0l0 2.6875l3.75 0zm-6.5625 -1.1875q0.125 0.625 0.125 1.125q-0.6875 0.125 -1.96875 0.5625q-1.28125 0.4375 -2.46875 0.9375q-0.25 -0.75 -0.5625 -1.375q1.5625 -0.3125 2.59375 -0.5625q1.03125 -0.25 2.28125 -0.6875zm4.75 -5.6875q0.375 -0.375 0.90625 -1.125q0.53125 -0.75 0.90625 -1.5625l-3.375 0q0.625 1.5625 1.5625 2.6875zm3.0 3.1875q-0.875 -0.375 -1.65625 -0.75q-0.78125 -0.375 -1.46875 -0.875q-0.75 0.5 -1.40625 0.875q-0.65625 0.375 -1.46875 0.75l6.0 0zm15.875 -8.3125q-0.0625 1.3125 -0.0625 2.125q0 0.75 0.0625 1.875l-9.875 0q0 2.75 -0.25 5.0625q-0.25 2.3125 -1.625 5.125q-0.5 -0.375 -1.125 -0.6875q0.75 -1.0625 1.125 -2.40625q0.375 -1.34375 0.5625 -3.15625q0.1875 -1.8125 0.1875 -3.875q0 -2.125 -0.0625 -4.0625l11.0625 0zm-0.875 8.625q0.9375 0 2.0625 -0.0625l0 1.1875q-1.125 -0.0625 -2.0625 -0.0625l-3.875 0q-1.0625 1.8125 -2.25 2.9375q2.125 -0.0625 5.5 -0.1875q-0.5625 -0.625 -1.3125 -1.375q0.5 -0.4375 0.9375 -0.8125q1.625 1.5625 3.0625 3.1875q-0.4375 0.375 -1.0625 0.875q-0.375 -0.4375 -0.8125 -0.9375q-2.0625 0.0625 -4.34375 0.25q-2.28125 0.1875 -3.15625 0.4375q-0.25 -0.75 -0.5625 -1.375q0.625 -0.1875 1.375 -1.0625q0.75 -0.875 1.1875 -1.9375l-1.3125 0q-0.75 0 -2.0625 0.0625l0 -1.1875q1.3125 0.0625 2.25 0.0625l6.4375 0zm-0.25 -5.6875l0 -1.875l-8.75 0l0 1.875l8.75 0zm-1.25 2.75q1.25 0 2.3125 -0.0625l0 1.1875q-0.8125 -0.0625 -2.1875 -0.0625l-4.0 0q-1.0 0 -2.125 0.0625l0 -1.1875q1.125 0.0625 2.125 0.0625l3.875 0z" fill-rule="nonzero"/><path fill="#ffffff" d="m599.8399 281.7139l197.63776 0l0 38.141754l-197.63776 0z" fill-rule="evenodd"/><path stroke="#000000" stroke-width="1.0" stroke-linejoin="round" stroke-linecap="butt" d="m599.8399 281.7139l197.63776 0l0 38.141754l-197.63776 0z" fill-rule="evenodd"/><path fill="#000000" d="m677.2838 296.83228l1.0 0l0 -3.1875l1.1875 0q0.5 0.0625 0.0625 0.375l0 2.8125l1.75 0l0 1.1875l-1.75 0l0 3.4375l1.625 -0.625l0.3125 1.0625l-1.9375 0.8125l0 5.375l-1.25 0l0 -4.9375l-1.9375 0.625q-0.0625 0.4375 -0.3125 0.1875l-0.4375 -1.375l2.6875 -0.75l0 -3.8125l-1.0625 0q-0.125 1.1875 -0.5 2.3125l-1.1875 -0.4375q0.75 -2.1875 0.75 -4.8125l1.25 0.1875q0.1875 0.1875 -0.125 0.375l-0.125 1.1875zm12.1875 -0.125l-0.0625 7.6875q0 3.3125 -1.875 3.3125l-1.8125 0l-0.25 -1.375l1.5625 0q1.125 0.125 1.125 -1.9375l0.0625 -6.5l-0.6875 0q0.0625 5.5 -5.4375 10.125l-0.8125 -1.125q4.625 -3.4375 5.0625 -9.0l-1.0 0q-0.25 3.8125 -3.8125 6.75l-0.875 -1.0625q3.125 -2.4375 3.5 -5.6875l-1.0 0q-0.6875 1.6875 -1.75 2.875l-1.0625 -0.75q2.1875 -2.6875 2.6875 -6.1875l1.3125 0.25q0.25 0.25 -0.1875 0.3125q-0.1875 1.0625 -0.5625 2.3125l5.875 0zm7.375 7.5q-2.4375 0.875 -4.5625 1.4375q-0.1875 0.5 -0.375 0.1875l-0.4375 -1.4375l2.1875 -0.4375l0 -3.4375l-1.6875 0l0 -1.1875l1.6875 0l0 -3.3125l-1.875 0l0 -1.1875l5.0 0l0 1.1875l-1.875 0l0 3.3125l1.6875 0l0 1.1875l-1.6875 0l0 3.125q0.5 -0.0625 1.8125 -0.5l0.125 1.0625zm4.9375 -2.9375l0 1.8125l3.5 0l0 1.1875l-3.5 0l0 1.9375l4.125 0l0 1.1875l-9.9375 0l0 -1.1875l4.75 0l0 -1.9375l-3.375 0l0 -1.1875l3.375 0l0 -1.8125l-2.25 0l0 0.8125l-1.0625 0l0 -7.6875l7.75 0l0 7.4375l-1.0625 0l0 -0.5625l-2.3125 0zm2.3125 -2.875l-2.3125 0l0 1.875l2.3125 0l0 -1.875zm0 -3.0l-2.3125 0l0 2.0l2.3125 0l0 -2.0zm-3.375 2.0l0 -2.0l-2.25 0l0 2.0l2.25 0zm0 1.0l-2.25 0l0 1.875l2.25 0l0 -1.875z" fill-rule="nonzero"/><path fill="#000000" d="m720.2213 294.08228q-0.0625 1.3125 -0.0625 2.125q0 0.75 0.0625 1.875l-9.875 0q0 2.75 -0.25 5.0625q-0.25 2.3125 -1.625 5.125q-0.5 -0.375 -1.125 -0.6875q0.75 -1.0625 1.125 -2.40625q0.375 -1.34375 0.5625 -3.15625q0.1875 -1.8125 0.1875 -3.875q0 -2.125 -0.0625 -4.0625l11.0625 0zm-0.875 8.625q0.9375 0 2.0625 -0.0625l0 1.1875q-1.125 -0.0625 -2.0625 -0.0625l-3.875 0q-1.0625 1.8125 -2.25 2.9375q2.125 -0.0625 5.5 -0.1875q-0.5625 -0.625 -1.3125 -1.375q0.5 -0.4375 0.9375 -0.8125q1.625 1.5625 3.0625 3.1875q-0.4375 0.375 -1.0625 0.875q-0.375 -0.4375 -0.8125 -0.9375q-2.0625 0.0625 -4.34375 0.25q-2.28125 0.1875 -3.15625 0.4375q-0.25 -0.75 -0.5625 -1.375q0.625 -0.1875 1.375 -1.0625q0.75 -0.875 1.1875 -1.9375l-1.3125 0q-0.75 0 -2.0625 0.0625l0 -1.1875q1.3125 0.0625 2.25 0.0625l6.4375 0zm-0.25 -5.6875l0 -1.875l-8.75 0l0 1.875l8.75 0zm-1.25 2.75q1.25 0 2.3125 -0.0625l0 1.1875q-0.8125 -0.0625 -2.1875 -0.0625l-4.0 0q-1.0 0 -2.125 0.0625l0 -1.1875q1.125 0.0625 2.125 0.0625l3.875 0z" fill-rule="nonzero"/><path fill="#b6d7a8" d="m599.8399 243.57217l197.63776 0l0 38.141724l-197.63776 0z" fill-rule="evenodd"/><path stroke="#000000" stroke-width="1.0" stroke-linejoin="round" stroke-linecap="butt" d="m599.8399 243.57217l197.63776 0l0 38.141724l-197.63776 0z" fill-rule="evenodd"/><path fill="#000000" d="m670.2838 265.06555q0.875 -1.6875 1.0625 -5.125l-2.125 0q0.1875 3.4375 1.0625 5.125zm2.3125 -5.125q-0.125 3.875 -1.5 6.25q1.0 1.25 2.8125 2.1875l-0.8125 1.375q-2.0 -1.3125 -2.8125 -2.5q-1.4375 1.625 -4.4375 2.8125l-0.625 -1.25q3.25 -1.3125 4.3125 -2.6875q-1.0625 -2.0625 -1.1875 -4.125q-0.375 0.9375 -0.75 1.4375l-1.0625 -0.8125q1.875 -2.75 2.25 -6.8125l1.3125 0.3125q0.375 0.25 -0.1875 0.375q-0.1875 1.125 -0.5 2.25l4.25 0l0 1.1875l-1.0625 0zm-5.8125 -3.0q-0.375 0.9375 -0.875 1.5625l-1.0 -0.5625q0.5 -0.8125 0.9375 -1.875l1.125 0.5625q0.25 0.25 -0.1875 0.3125zm-4.0 8.8125q0.875 0.25 1.5625 0.5625q0.5 -0.5625 0.8125 -1.6875l-1.8125 0q-0.25 0.5625 -0.5625 1.125zm-0.875 1.5625l-1.0 -0.5625q0.625 -0.9375 1.25 -2.125l-2.375 0l0 -1.0l2.75 0q0.375 -0.8125 0.5625 -1.375l1.1875 0.3125q0.25 0.25 -0.1875 0.3125l-0.375 0.75l3.5625 0l0 1.0l-0.9375 0q-0.3125 1.25 -0.9375 2.125q0.5625 0.25 1.1875 0.625l-0.5625 1.0q-0.6875 -0.4375 -1.25 -0.6875q-1.625 1.625 -4.375 2.0l-0.4375 -1.125q2.4375 -0.25 3.75 -1.375q-0.6875 -0.3125 -1.375 -0.5625l-0.4375 0.6875zm1.25 -11.75l1.0 0q0.5 0.0625 0.0625 0.375l0 2.6875l3.1875 0l0 1.0l-2.625 0q0.6875 0.8125 2.125 1.5625l-0.6875 1.0625q-1.0625 -0.625 -2.0 -1.75l0 1.5l-1.0625 0l0 -1.1875q-1.0 1.25 -2.75 2.25l-0.8125 -1.0q1.9375 -1.0 3.1875 -2.4375l-2.875 0l0 -1.0l3.25 0l0 -3.0625zm-1.75 2.875q-0.4375 -0.9375 -1.125 -1.625l1.0 -0.625q0.75 0.75 1.125 1.5625l-1.0 0.6875zm19.5 -2.5l8.1875 0l0 3.9375l-2.8125 0l0 1.8125l3.5 0l0 1.0l-3.5 0l0 1.875l2.4375 0l0 5.1875l-1.0625 0l0 -0.6875l-3.75 0l0 0.875l-1.0625 0l0 -5.375l2.1875 0l0 -1.875l-3.0625 0l0 1.0q0 4.1875 -1.8125 6.0625l-0.9375 -0.9375q1.6875 -1.6875 1.6875 -5.375l0 -7.5zm6.75 9.625l-3.75 0l0 2.5l3.75 0l0 -2.5zm-2.625 -3.875l0 -1.8125l-3.0625 0l0 1.8125l3.0625 0zm-3.0625 -2.8125l5.875 0l0 -1.9375l-5.875 0l0 1.9375zm-1.625 4.6875l-1.625 0.5625l0 4.875q0 1.0 -1.0 1.0l-1.25 0l-0.1875 -1.1875l0.9375 0q0.25 0 0.25 -0.25l0 -4.0625l-1.3125 0.4375q-0.0625 0.4375 -0.3125 0.1875l-0.4375 -1.5l2.0625 -0.4375l0 -3.25l-1.75 0l0 -1.1875l1.75 0l0 -3.25l1.1875 0q0.5 0.0625 0.0625 0.375l0 2.875l1.625 0l0 1.1875l-1.625 0l0 3.0l1.5 -0.4375l0.125 1.0625z" fill-rule="nonzero"/><path fill="#000000" d="m700.9713 257.50305q0.375 -0.6875 0.625 -2.125l1.5 0.5q-0.375 0.5625 -0.875 1.625l1.75 0q0.9375 0 1.875 -0.0625l0 1.0625q-0.9375 -0.0625 -1.875 -0.0625l-2.0 0q-0.875 2.0625 -1.3125 3.25l1.5 0q0 -0.75 -0.0625 -1.6875l1.25 0q-0.0625 1.25 -0.0625 1.6875l0.625 0q0.75 0 1.625 -0.0625l0 1.0625q-0.875 -0.0625 -1.5625 -0.0625l-0.6875 0l0 2.0625l0.75 0q0.875 0 1.6875 -0.0625l0 1.0625q-0.75 -0.0625 -1.6875 -0.0625l-0.75 0q0 0.9375 0.0625 2.375l-1.25 0q0.0625 -1.4375 0.0625 -2.375l-1.0 0q-0.875 0 -1.75 0.0625l0 -1.0625q0.875 0.0625 1.75 0.0625l1.0 0l0 -2.0625l-0.9375 0q-1.1875 0 -1.6875 0.25q-0.1875 -0.5625 -0.4375 -1.1875q0.5 -0.25 0.9375 -1.25q0.4375 -1.0 0.75 -2.0q-0.4375 0 -1.4375 0.0625l0 -1.0625q0.8125 0.0625 1.625 0.0625zm-6.0625 3.0625q0.4375 0 0.9375 -0.0625l0 1.125q-1.0 -0.0625 -1.375 -0.0625l0 1.75q0.75 0 1.625 -0.0625l0 1.1875q-0.875 -0.125 -1.625 -0.125l0 3.0625q1.25 -1.0 1.6875 -1.5q0.125 0.5625 0.5 1.125q-0.625 0.375 -1.375 1.03125q-0.75 0.65625 -1.5625 1.46875q-0.375 -0.4375 -0.875 -0.875q0.4375 -0.4375 0.5625 -1.5625l0 -2.75q-0.8125 0 -1.8125 0.0625l0 -1.125q1.0 0.0625 1.8125 0.0625l0 -1.75q-0.375 0 -0.9375 0.0625l0 -1.0l-0.5 0.625q-0.3125 -0.4375 -0.8125 -0.9375q0.9375 -0.9375 1.46875 -2.125q0.53125 -1.1875 0.84375 -2.5625q1.0 0.4375 1.5625 0.5625q-0.4375 0.375 -0.65625 0.875q-0.21875 0.5 -0.46875 0.9375q1.0625 0 2.25 -0.0625l0 1.125q-1.3125 -0.0625 -2.625 -0.0625q-0.375 0.625 -0.9375 1.4375q0.4375 0 0.875 0.125l1.4375 0zm1.5625 0.5q0.5625 0.0625 1.0625 0.0625l1.1875 0q-0.125 1.0 -0.125 1.75l0 4.25q0.5 0.5 1.46875 0.8125q0.96875 0.3125 2.09375 0.40625q1.125 0.09375 4.0 -0.15625q-0.4375 0.6875 -0.5625 1.4375q-2.0625 0 -3.28125 -0.125q-1.21875 -0.125 -1.90625 -0.3125q-0.6875 -0.1875 -1.5625 -0.78125q-0.875 -0.59375 -1.34375 -0.09375q-0.46875 0.5 -0.96875 1.0625q-0.4375 -0.6875 -0.875 -1.125q1.25 -0.8125 1.875 -1.125l0 -5.0l-0.25 0q-0.3125 0 -0.8125 0.125l0 -1.1875zm1.375 -4.6875q0.5 1.0625 0.875 2.5q-0.5625 0.1875 -1.125 0.5q-0.375 -1.4375 -0.875 -2.625q0.4375 -0.1875 1.125 -0.375z" fill-rule="nonzero"/><path fill="#000000" d="m719.3463 267.94055l0 -2.8125l-3.125 0l0 2.8125l3.125 0zm1.25 1.6875l-1.25 0l0 -0.6875l-3.125 0l0 0.875l-1.25 0l0 -5.6875l5.625 0l0 5.5zm-4.4375 -11.625q0.3125 0.875 1.5625 2.25q1.125 -1.5 1.4375 -2.25l-3.0 0zm1.5625 4.0q-2.1875 2.0 -4.0625 2.6875l-0.5625 -1.25q1.75 -0.5625 3.8125 -2.375q-0.5 -0.5 -1.3125 -1.8125q-0.625 1.4375 -1.25 2.0625l-0.9375 -0.9375q1.5 -2.0 2.3125 -5.0l1.3125 0.375q0.25 0.25 -0.1875 0.3125l-0.3125 0.75l3.1875 0l0.1875 -0.3125l1.0 0.8125q0.25 0.1875 -0.25 0.375q-0.875 2.0 -2.0625 3.375q2.125 1.625 3.625 2.125l-0.5 1.375q-1.5 -0.5 -4.0 -2.5625zm-4.5625 -5.625l0 4.625l-1.5625 0l0 2.3125l1.4375 0l0 1.1875l-1.4375 0l0 2.875l2.1875 -0.6875l0.25 1.125l-5.75 1.625q-0.0625 0.5 -0.3125 0.25l-0.5 -1.375l0.75 -0.125l0 -5.8125l1.1875 0q0.5 0.0625 0.0625 0.375l0 5.125l0.875 -0.1875l0 -6.6875l-1.125 0l-1.0625 0l0 -4.625l5.0 0zm-1.25 3.625l0 -2.625l-2.5 0l0 2.625l2.5 0z" fill-rule="nonzero"/><path fill="#000000" d="m736.2213 255.94055q-0.0625 1.3125 -0.0625 2.125q0 0.75 0.0625 1.875l-9.875 0q0 2.75 -0.25 5.0625q-0.25 2.3125 -1.625 5.125q-0.5 -0.375 -1.125 -0.6875q0.75 -1.0625 1.125 -2.40625q0.375 -1.34375 0.5625 -3.15625q0.1875 -1.8125 0.1875 -3.875q0 -2.125 -0.0625 -4.0625l11.0625 0zm-0.875 8.625q0.9375 0 2.0625 -0.0625l0 1.1875q-1.125 -0.0625 -2.0625 -0.0625l-3.875 0q-1.0625 1.8125 -2.25 2.9375q2.125 -0.0625 5.5 -0.1875q-0.5625 -0.625 -1.3125 -1.375q0.5 -0.4375 0.9375 -0.8125q1.625 1.5625 3.0625 3.1875q-0.4375 0.375 -1.0625 0.875q-0.375 -0.4375 -0.8125 -0.9375q-2.0625 0.0625 -4.34375 0.25q-2.28125 0.1875 -3.15625 0.4375q-0.25 -0.75 -0.5625 -1.375q0.625 -0.1875 1.375 -1.0625q0.75 -0.875 1.1875 -1.9375l-1.3125 0q-0.75 0 -2.0625 0.0625l0 -1.1875q1.3125 0.0625 2.25 0.0625l6.4375 0zm-0.25 -5.6875l0 -1.875l-8.75 0l0 1.875l8.75 0zm-1.25 2.75q1.25 0 2.3125 -0.0625l0 1.1875q-0.8125 -0.0625 -2.1875 -0.0625l-4.0 0q-1.0 0 -2.125 0.0625l0 -1.1875q1.125 0.0625 2.125 0.0625l3.875 0z" fill-rule="nonzero"/><path fill="#000000" fill-opacity="0.0" d="m35.671917 7.1574802l191.84251 0l0 38.771652l-191.84251 0z" fill-rule="evenodd"/><path fill="#000000" d="m84.370514 25.939356q0 -2.859375 1.53125 -4.46875q1.53125 -1.609375 3.953125 -1.609375q1.578125 0 2.84375 0.765625q1.28125 0.75 1.953125 2.109375q0.671875 1.34375 0.671875 3.0625q0 1.75 -0.703125 3.125q-0.703125 1.375 -2.0 2.09375q-1.28125 0.703125 -2.78125 0.703125q-1.609375 0 -2.890625 -0.78125q-1.265625 -0.796875 -1.921875 -2.140625q-0.65625 -1.359375 -0.65625 -2.859375zm1.5625 0.015625q0 2.078125 1.109375 3.265625q1.109375 1.1875 2.796875 1.1875q1.703125 0 2.8125 -1.203125q1.109375 -1.203125 1.109375 -3.40625q0 -1.40625 -0.484375 -2.4375q-0.46875 -1.046875 -1.375 -1.625q-0.90625 -0.578125 -2.046875 -0.578125q-1.609375 0 -2.765625 1.109375q-1.15625 1.109375 -1.15625 3.6875zm10.8203125 1.875l1.4375 -0.125q0.09375 0.859375 0.46875 1.421875q0.375 0.546875 1.15625 0.890625q0.78125 0.328125 1.75 0.328125q0.875 0 1.53125 -0.25q0.671875 -0.265625 0.984375 -0.703125q0.328125 -0.453125 0.328125 -0.984375q0 -0.546875 -0.3125 -0.9375q-0.3125 -0.40625 -1.03125 -0.6875q-0.453125 -0.171875 -2.03125 -0.546875q-1.578125 -0.390625 -2.21875 -0.71875q-0.8125 -0.4375 -1.21875 -1.0625q-0.40625 -0.640625 -0.40625 -1.4375q0 -0.859375 0.484375 -1.609375q0.5 -0.765625 1.4375 -1.15625q0.953125 -0.390625 2.109375 -0.390625q1.28125 0 2.25 0.421875q0.96875 0.40625 1.484375 1.203125q0.53125 0.796875 0.578125 1.796875l-1.453125 0.109375q-0.125 -1.078125 -0.796875 -1.625q-0.671875 -0.5625 -2.0 -0.5625q-1.375 0 -2.0 0.5q-0.625 0.5 -0.625 1.21875q0 0.609375 0.4375 1.015625q0.4375 0.390625 2.28125 0.8125q1.859375 0.421875 2.546875 0.734375q1.0 0.453125 1.46875 1.171875q0.484375 0.703125 0.484375 1.625q0 0.90625 -0.53125 1.71875q-0.515625 0.8125 -1.5 1.265625q-0.984375 0.453125 -2.203125 0.453125q-1.5625 0 -2.609375 -0.453125q-1.046875 -0.46875 -1.65625 -1.375q-0.59375 -0.90625 -0.625 -2.0625zm11.453125 3.6875l0 -11.453125l1.515625 0l0 11.453125l-1.515625 0z" fill-rule="nonzero"/><path fill="#000000" d="m119.90958 29.14248q3.0625 -2.8125 4.5 -6.25l-3.9375 0l0 -1.1875l4.25 0l0 -3.125l1.1875 0q0.5 0.0625 0.0625 0.375l0 2.75l4.5 0l0 1.1875l-4.125 0q1.0 3.0 4.5 6.25l-0.875 1.25q-2.6875 -2.6875 -4.0 -5.4375l0 3.625l1.8125 0l0 1.1875l-1.8125 0l0 3.062502l-1.25 0l0 -3.062502l-1.625 0l0 -1.1875l1.625 0l0 -3.625q-1.5 3.3125 -3.875 5.375l-0.9375 -1.1875zm0.5 -9.8125q-0.3125 1.625 -0.875 3.0625q0.5 0.1875 0 0.4375l0 10.125002l-1.25 0l0 -7.812502q-0.4375 0.9375 -1.125 1.625l-0.875 -1.125q2.125 -2.875 2.9375 -7.125l1.375 0.5q0.3125 0.25 -0.1875 0.3125zm18.4375 1.1875q-2.6875 0.125 -5.25 0.125l-0.3125 -1.125q6.1875 -0.0625 11.0 -0.875l0.875 1.1875q0.125 0.3125 -0.4375 0.125q-2.5 0.3125 -5.25 0.5l0.75 0.5q0.4375 0.3125 -0.3125 0.375q-1.5625 1.75 -2.4375 2.625l1.4375 0.875q1.9375 -1.75 3.25 -3.25l1.1875 0.875q0.4375 0.3125 -0.3125 0.3125q-2.0 1.75 -4.1875 3.5l4.5625 -0.25q-0.625 -0.625 -1.1875 -1.0l0.9375 -0.875q2.0625 1.375 3.375 3.1875l-1.1875 1.0625q-0.6875 -1.0625 -1.0625 -1.375l-4.0625 0.3125l0 5.562502l-1.25 0l0 -5.437502l-5.25 0.3125q-0.0625 0.4375 -0.3125 0.1875l-0.4375 -1.5625l4.0 -0.0625l0.8125 -0.5625q-1.5625 -1.125 -3.25 -2.0l0.8125 -1.0l1.125 0.5625q0.6875 -0.625 2.375 -2.8125zm6.875 11.812502q-2.4375 -1.0625019 -4.1875 -3.187502l1.1875 -0.9375q1.375 1.6875 3.8125 2.75l-0.8125 1.3750019zm-8.0 -3.312502q0.5 0.3125 -0.1875 0.375q-1.4375 1.875 -3.5625 3.187502l-0.9375 -1.3125019q2.125 -1.3125 3.4375 -3.0l1.25 0.75z" fill-rule="nonzero"/><path fill="#000000" d="m161.90958 26.70498q-0.0625 0.8125 -0.0625 1.8125l0 2.125q0 1.1875 0.0625 2.062502l-1.25 0l0 -1.1875019l-4.25 0l0 1.3125019l-1.25 0q0.0625 -1.6250019 0.0625 -2.125002l0 -2.3125q0 -0.75 -0.0625 -1.6875l6.75 0zm-9.5625 -7.3125q-0.5 0.625 -1.0625 1.625q-0.5625 1.0 -1.375 2.5q1.375 -0.0625 2.0 -0.0625q0.5625 -1.0 0.9375 -1.9375q0.625 0.4375 1.375 0.8125q-0.3125 0.25 -1.09375 1.375q-0.78125 1.125 -2.46875 3.6875q2.0625 -0.3125 3.25 -0.5q-0.1875 0.6875 -0.1875 1.1875q-0.5625 0.0625 -2.0 0.25q-1.4375 0.1875 -2.8125 0.5625q-0.25 -0.625 -0.4375 -1.25q0.75 -0.1875 1.5 -1.15625q0.75 -0.96875 1.3125 -2.03125q-0.4375 0 -1.28125 0.09375q-0.84375 0.09375 -1.46875 0.28125q-0.1875 -0.625 -0.375 -1.1875q0.6875 -0.5625 1.46875 -1.9375q0.78125 -1.375 1.21875 -3.0q0.75 0.375 1.5 0.6875zm5.4375 1.6875q0 -1.0625 -0.0625 -2.5l1.3125 0q-0.0625 1.125 -0.0625 2.5l1.8125 0q1.1875 0 2.1875 -0.0625l0 1.125q-1.0 -0.0625 -2.125 -0.0625l-1.875 0l0 2.0625l1.4375 0q0.875 0 1.75 -0.0625l0 1.125q-0.75 -0.0625 -1.8125 -0.0625l-3.625 0q-1.0625 0 -1.875 0.0625l0 -1.125q0.8125 0.0625 1.75 0.0625l1.1875 0l0 -2.0625l-1.375 0q-1.125 0 -2.125 0.0625l0 -1.125q0.8125 0.0625 2.0 0.0625l1.5 0zm2.875 9.4375l0 -2.8125l-4.25 0l0 2.8125l4.25 0zm-6.625 -0.625q-0.1875 0.5625 -0.125 1.1875q-1.1875 0.1875 -2.6875 0.4375q-1.5 0.25 -2.5625 0.5625019q-0.25 -0.8125019 -0.5 -1.4375019q1.3125 -0.0625 2.375 -0.21875q1.0625 -0.15625 3.5 -0.53125z" fill-rule="nonzero"/><path fill="#000000" d="m174.97209 30.70498l-0.125 -0.9375q-1.5 0.4375 -3.75 1.0q-0.3125 0.5 -0.4375 -0.125l-0.25 -1.125l0.8125 -0.125q0.8125 -2.625 1.0625 -5.875l1.5 0.125q0.1875 0.1875 -0.125 0.375q-0.3125 1.9375 -1.25 5.125l2.25 -0.375q-0.1875 -1.25 -0.625 -2.4375l1.1875 -0.25q0.8125 2.125 1.0625 4.375l-1.3125 0.25zm-5.625 -6.6875q1.9375 -2.125 2.5625 -5.375l1.375 0.0625q0.1875 0.125 -0.125 0.3125q-0.4375 1.5 -0.8125 2.375l5.8125 0l-0.125 9.5q0 1.8750019 -1.625 1.8750019l-1.125 0l-0.125 -1.1875019l0.8125 0q0.8125 0 0.8125 -1.0l0.125 -8.0l-5.0625 0q-0.5625 1.25 -1.6875 2.625l-0.8125 -1.1875zm-1.4375 -2.125l1.6875 0l0 1.1875l-1.6875 0l0 1.6875q0.9375 0.5625 1.875 1.5625l-0.8125 1.25q-0.5 -0.8125 -1.0625 -1.25l0 6.625002l-1.25 0l0 -6.437502q-0.4375 1.375 -1.75 3.0625l-0.6875 -1.5625q1.875 -2.125 2.4375 -4.9375l-1.9375 0l0 -1.1875l1.9375 0l0 -3.3125l1.1875 0q0.5 0.0625 0.0625 0.375l0 2.9375z" fill-rule="nonzero"/><path fill="#000000" fill-opacity="0.0" d="m324.3937 7.1574802l191.8425 0l0 38.771652l-191.8425 0z" fill-rule="evenodd"/><path fill="#000000" d="m364.61185 31.51748l0 -10.109375l-3.78125 0l0 -1.34375l9.078125 0l0 1.34375l-3.78125 0l0 10.109375l-1.515625 0zm15.0234375 -4.015625l1.515625 0.375q-0.46875 1.875 -1.71875 2.859375q-1.234375 0.984375 -3.015625 0.984375q-1.859375 0 -3.015625 -0.75q-1.15625 -0.765625 -1.765625 -2.1875q-0.609375 -1.4375 -0.609375 -3.078125q0 -1.796875 0.6875 -3.125q0.6875 -1.328125 1.9375 -2.015625q1.265625 -0.703125 2.78125 -0.703125q1.71875 0 2.890625 0.875q1.171875 0.875 1.640625 2.46875l-1.5 0.34375q-0.390625 -1.25 -1.15625 -1.8125q-0.75 -0.578125 -1.90625 -0.578125q-1.3125 0 -2.203125 0.640625q-0.890625 0.625 -1.25 1.703125q-0.359375 1.0625 -0.359375 2.1875q0 1.46875 0.421875 2.5625q0.4375 1.078125 1.328125 1.625q0.90625 0.53125 1.953125 0.53125q1.265625 0 2.140625 -0.734375q0.890625 -0.734375 1.203125 -2.171875zm3.3828125 4.015625l0 -11.453125l4.328125 0q1.140625 0 1.734375 0.109375q0.84375 0.140625 1.40625 0.53125q0.578125 0.390625 0.921875 1.109375q0.359375 0.703125 0.359375 1.5625q0 1.453125 -0.9375 2.46875q-0.921875 1.015625 -3.359375 1.015625l-2.9375 0l0 4.65625l-1.515625 0zm1.515625 -6.015625l2.96875 0q1.46875 0 2.078125 -0.546875q0.625 -0.546875 0.625 -1.53125q0 -0.71875 -0.375 -1.234375q-0.359375 -0.515625 -0.953125 -0.671875q-0.375 -0.109375 -1.40625 -0.109375l-2.9375 0l0 4.09375zm7.921875 6.21875l3.328125 -11.859375l1.125 0l-3.3125 11.859375l-1.140625 0zm5.9453125 -0.203125l0 -11.453125l1.515625 0l0 11.453125l-1.515625 0zm4.1796875 0l0 -11.453125l4.328125 0q1.140625 0 1.734375 0.109375q0.84375 0.140625 1.40625 0.53125q0.578125 0.390625 0.921875 1.109375q0.359375 0.703125 0.359375 1.5625q0 1.453125 -0.9375 2.46875q-0.921875 1.015625 -3.359375 1.015625l-2.9375 0l0 4.65625l-1.515625 0zm1.515625 -6.015625l2.96875 0q1.46875 0 2.078125 -0.546875q0.625 -0.546875 0.625 -1.53125q0 -0.71875 -0.375 -1.234375q-0.359375 -0.515625 -0.953125 -0.671875q-0.375 -0.109375 -1.40625 -0.109375l-2.9375 0l0 4.09375z" fill-rule="nonzero"/><path fill="#000000" d="m420.48685 29.14248q3.0625 -2.8125 4.5 -6.25l-3.9375 0l0 -1.1875l4.25 0l0 -3.125l1.1875 0q0.5 0.0625 0.0625 0.375l0 2.75l4.5 0l0 1.1875l-4.125 0q1.0 3.0 4.5 6.25l-0.875 1.25q-2.6875 -2.6875 -4.0 -5.4375l0 3.625l1.8125 0l0 1.1875l-1.8125 0l0 3.062502l-1.25 0l0 -3.062502l-1.625 0l0 -1.1875l1.625 0l0 -3.625q-1.5 3.3125 -3.875 5.375l-0.9375 -1.1875zm0.5 -9.8125q-0.3125 1.625 -0.875 3.0625q0.5 0.1875 0 0.4375l0 10.125002l-1.25 0l0 -7.812502q-0.4375 0.9375 -1.125 1.625l-0.875 -1.125q2.125 -2.875 2.9375 -7.125l1.375 0.5q0.3125 0.25 -0.1875 0.3125zm18.4375 1.1875q-2.6875 0.125 -5.25 0.125l-0.3125 -1.125q6.1875 -0.0625 11.0 -0.875l0.875 1.1875q0.125 0.3125 -0.4375 0.125q-2.5 0.3125 -5.25 0.5l0.75 0.5q0.4375 0.3125 -0.3125 0.375q-1.5625 1.75 -2.4375 2.625l1.4375 0.875q1.9375 -1.75 3.25 -3.25l1.1875 0.875q0.4375 0.3125 -0.3125 0.3125q-2.0 1.75 -4.1875 3.5l4.5625 -0.25q-0.625 -0.625 -1.1875 -1.0l0.9375 -0.875q2.0625 1.375 3.375 3.1875l-1.1875 1.0625q-0.6875 -1.0625 -1.0625 -1.375l-4.0625 0.3125l0 5.562502l-1.25 0l0 -5.437502l-5.25 0.3125q-0.0625 0.4375 -0.3125 0.1875l-0.4375 -1.5625l4.0 -0.0625l0.8125 -0.5625q-1.5625 -1.125 -3.25 -2.0l0.8125 -1.0l1.125 0.5625q0.6875 -0.625 2.375 -2.8125zm6.875 11.812502q-2.4375 -1.0625019 -4.1875 -3.187502l1.1875 -0.9375q1.375 1.6875 3.8125 2.75l-0.8125 1.3750019zm-8.0 -3.312502q0.5 0.3125 -0.1875 0.375q-1.4375 1.875 -3.5625 3.187502l-0.9375 -1.3125019q2.125 -1.3125 3.4375 -3.0l1.25 0.75z" fill-rule="nonzero"/><path fill="#000000" d="m462.48685 26.70498q-0.0625 0.8125 -0.0625 1.8125l0 2.125q0 1.1875 0.0625 2.062502l-1.25 0l0 -1.1875019l-4.25 0l0 1.3125019l-1.25 0q0.0625 -1.6250019 0.0625 -2.125002l0 -2.3125q0 -0.75 -0.0625 -1.6875l6.75 0zm-9.5625 -7.3125q-0.5 0.625 -1.0625 1.625q-0.5625 1.0 -1.375 2.5q1.375 -0.0625 2.0 -0.0625q0.5625 -1.0 0.9375 -1.9375q0.625 0.4375 1.375 0.8125q-0.3125 0.25 -1.09375 1.375q-0.78125 1.125 -2.46875 3.6875q2.0625 -0.3125 3.25 -0.5q-0.1875 0.6875 -0.1875 1.1875q-0.5625 0.0625 -2.0 0.25q-1.4375 0.1875 -2.8125 0.5625q-0.25 -0.625 -0.4375 -1.25q0.75 -0.1875 1.5 -1.15625q0.75 -0.96875 1.3125 -2.03125q-0.4375 0 -1.28125 0.09375q-0.84375 0.09375 -1.46875 0.28125q-0.1875 -0.625 -0.375 -1.1875q0.6875 -0.5625 1.46875 -1.9375q0.78125 -1.375 1.21875 -3.0q0.75 0.375 1.5 0.6875zm5.4375 1.6875q0 -1.0625 -0.0625 -2.5l1.3125 0q-0.0625 1.125 -0.0625 2.5l1.8125 0q1.1875 0 2.1875 -0.0625l0 1.125q-1.0 -0.0625 -2.125 -0.0625l-1.875 0l0 2.0625l1.4375 0q0.875 0 1.75 -0.0625l0 1.125q-0.75 -0.0625 -1.8125 -0.0625l-3.625 0q-1.0625 0 -1.875 0.0625l0 -1.125q0.8125 0.0625 1.75 0.0625l1.1875 0l0 -2.0625l-1.375 0q-1.125 0 -2.125 0.0625l0 -1.125q0.8125 0.0625 2.0 0.0625l1.5 0zm2.875 9.4375l0 -2.8125l-4.25 0l0 2.8125l4.25 0zm-6.625 -0.625q-0.1875 0.5625 -0.125 1.1875q-1.1875 0.1875 -2.6875 0.4375q-1.5 0.25 -2.5625 0.5625019q-0.25 -0.8125019 -0.5 -1.4375019q1.3125 -0.0625 2.375 -0.21875q1.0625 -0.15625 3.5 -0.53125z" fill-rule="nonzero"/><path fill="#000000" d="m475.54935 30.70498l-0.125 -0.9375q-1.5 0.4375 -3.75 1.0q-0.3125 0.5 -0.4375 -0.125l-0.25 -1.125l0.8125 -0.125q0.8125 -2.625 1.0625 -5.875l1.5 0.125q0.1875 0.1875 -0.125 0.375q-0.3125 1.9375 -1.25 5.125l2.25 -0.375q-0.1875 -1.25 -0.625 -2.4375l1.1875 -0.25q0.8125 2.125 1.0625 4.375l-1.3125 0.25zm-5.625 -6.6875q1.9375 -2.125 2.5625 -5.375l1.375 0.0625q0.1875 0.125 -0.125 0.3125q-0.4375 1.5 -0.8125 2.375l5.8125 0l-0.125 9.5q0 1.8750019 -1.625 1.8750019l-1.125 0l-0.125 -1.1875019l0.8125 0q0.8125 0 0.8125 -1.0l0.125 -8.0l-5.0625 0q-0.5625 1.25 -1.6875 2.625l-0.8125 -1.1875zm-1.4375 -2.125l1.6875 0l0 1.1875l-1.6875 0l0 1.6875q0.9375 0.5625 1.875 1.5625l-0.8125 1.25q-0.5 -0.8125 -1.0625 -1.25l0 6.625002l-1.25 0l0 -6.437502q-0.4375 1.375 -1.75 3.0625l-0.6875 -1.5625q1.875 -2.125 2.4375 -4.9375l-1.9375 0l0 -1.1875l1.9375 0l0 -3.3125l1.1875 0q0.5 0.0625 0.0625 0.375l0 2.9375z" fill-rule="nonzero"/><path fill="#000000" fill-opacity="0.0" d="m599.8399 7.1574802l191.84253 0l0 38.771652l-191.84253 0z" fill-rule="evenodd"/><path fill="#000000" d="m639.13617 25.64248l-0.8125 4.5625l4.0 0l0.1875 -4.5625l-3.375 0zm0.5625 -4.4375l-0.375 3.0625l4.5625 0l-0.1875 5.9375l2.8125 0l0 1.375l-13.5625 0l0 -1.375l4.0 0l0.875 -4.5625l-3.25 0l0 -1.375l3.4375 0l0.375 -3.0625l-4.6875 0l0 -1.375l12.0 0l0 1.375l-6.0 0z" fill-rule="nonzero"/><path fill="#000000" d="m661.32367 18.95498q-0.0625 1.3125 -0.0625 2.125q0 0.75 0.0625 1.875l-9.875 0q0 2.75 -0.25 5.0625q-0.25 2.3125 -1.625 5.125002q-0.5 -0.375 -1.125 -0.6875q0.75 -1.0625019 1.125 -2.406252q0.375 -1.34375 0.5625 -3.15625q0.1875 -1.8125 0.1875 -3.875q0 -2.125 -0.0625 -4.0625l11.0625 0zm-0.875 8.625q0.9375 0 2.0625 -0.0625l0 1.1875q-1.125 -0.0625 -2.0625 -0.0625l-3.875 0q-1.0625 1.8125 -2.25 2.9375q2.125 -0.0625 5.5 -0.1875q-0.5625 -0.625 -1.3125 -1.375q0.5 -0.4375 0.9375 -0.8125q1.625 1.5625 3.0625 3.187502q-0.4375 0.375 -1.0625 0.875q-0.375 -0.4375 -0.8125 -0.9375q-2.0625 0.0625 -4.34375 0.25q-2.28125 0.1875 -3.15625 0.4375q-0.25 -0.75 -0.5625 -1.3750019q0.625 -0.1875 1.375 -1.0625q0.75 -0.875 1.1875 -1.9375l-1.3125 0q-0.75 0 -2.0625 0.0625l0 -1.1875q1.3125 0.0625 2.25 0.0625l6.4375 0zm-0.25 -5.6875l0 -1.875l-8.75 0l0 1.875l8.75 0zm-1.25 2.75q1.25 0 2.3125 -0.0625l0 1.1875q-0.8125 -0.0625 -2.1875 -0.0625l-4.0 0q-1.0 0 -2.125 0.0625l0 -1.1875q1.125 0.0625 2.125 0.0625l3.875 0zm13.5 -2.6875q0 -2.0 -0.0625 -3.3125q0.6875 0.1875 1.5 0.25q-0.25 1.0 -0.1875 3.0625l3.375 0q-0.125 0.5625 -0.25 1.875l-0.4375 6.9375q-0.125 1.0 -0.75 1.21875q-0.625 0.2187519 -1.75 0.4687519q-0.25 -0.8125019 -0.5625 -1.3750019q1.3125 -0.0625 1.59375 -0.125q0.28125 -0.0625 0.34375 -0.875l0.4375 -7.125l-2.0625 0q-0.0625 2.8125 -0.875 5.3125q-0.8125 2.5 -2.8125 4.500002q-0.375 -0.5 -1.5 -0.8750019q1.4375 -0.75 2.625 -3.0625q1.1875 -2.3125 1.3125 -5.875q-1.1875 0 -2.375 0.0625l0 -1.125q1.1875 0.0625 2.4375 0.0625zm-6.125 0.875q0 -3.0 -0.0625 -4.0l1.375 0q-0.0625 1.0 -0.0625 4.0q1.1875 0 2.0 -0.0625l0 1.125q-0.8125 -0.0625 -2.0 -0.0625l0 6.875q0 0.875 0.0625 2.250002l-1.375 0q0.0625 -1.3750019 0.0625 -2.250002l0 -6.875q-1.25 0 -2.0 0.0625l0 -1.125q0.75 0.0625 2.0 0.0625zm4.875 2.4375q-0.375 0.5 -1.1875 3.1875q-0.625 -0.25 -1.1875 -0.3125q0.875 -2.3125 1.0 -3.1875q0.5 0.1875 1.375 0.3125zm6.875 -0.4375q0.9375 2.0 1.1875 2.9375q-0.6875 0.125 -1.1875 0.4375q-0.375 -1.3125 -1.0625 -2.875q0.5625 -0.1875 1.0625 -0.5zm8.9375 -4.125q0.125 1.4375 0.375 2.53125q0.25 1.09375 0.75 2.21875q0.5 1.125 1.5625 2.5625q0.8125 -1.5625 1.15625 -2.84375q0.34375 -1.28125 0.59375 -2.53125q0.25 -1.25 0.4375 -2.875q0.6875 0.1875 1.625 0.3125q-0.375 0.5625 -0.5 1.09375q-0.125 0.53125 -0.3125 1.53125q-0.1875 1.0 -0.5625 2.5625q-0.375 1.5625 -1.5 3.75q1.0 1.0 2.0 1.53125q1.0 0.53125 2.4375 0.90625q-0.6875 0.5 -1.125 1.5000019q-1.625 -0.9375 -2.375 -1.4062519q-0.75 -0.46875 -1.8125 -1.59375q-1.125 1.25 -2.0 1.90625q-0.875 0.6562519 -1.875 1.3437519q-0.5625 -0.4375 -1.375 -1.125q1.3125 -0.5000019 2.46875 -1.2812519q1.15625 -0.78125 1.84375 -1.78125q-1.1875 -1.5625 -1.75 -2.9375q-0.5625 -1.375 -0.84375 -2.53125q-0.28125 -1.15625 -0.53125 -2.59375q0.625 -0.0625 1.3125 -0.25zm-4.25 12.187502q-0.4375 -0.5625 -1.0625 -1.2500019q0.875 -0.5625 0.875 -1.5l0 -5.5625l-0.8125 0q-0.625 0 -1.375 0.0625l0 -1.25q0.75 0.125 1.375 0.125l2.0625 0q-0.0625 1.0625 -0.0625 2.4375l0 3.9375q0.6875 -0.75 1.8125 -2.0625q0.25 0.3125 0.8125 1.0q-0.9375 0.9375 -1.875 1.90625q-0.9375 0.96875 -1.75 2.156252zm6.5 -14.562502q0.6875 3.0 1.0625 4.9375q-0.75 0.0625 -1.25 0.25q-0.375 -2.25 -1.0625 -4.8125q0.5625 -0.1875 1.25 -0.375zm-6.375 0.25q1.0 1.6875 1.5 2.6875q-0.5625 0.25 -1.1875 0.625q-1.0 -2.125 -1.375 -2.6875q0.5625 -0.25 1.0625 -0.625z" fill-rule="nonzero"/><path fill="#000000" d="m700.07367 29.14248q3.0625 -2.8125 4.5 -6.25l-3.9375 0l0 -1.1875l4.25 0l0 -3.125l1.1875 0q0.5 0.0625 0.0625 0.375l0 2.75l4.5 0l0 1.1875l-4.125 0q1.0 3.0 4.5 6.25l-0.875 1.25q-2.6875 -2.6875 -4.0 -5.4375l0 3.625l1.8125 0l0 1.1875l-1.8125 0l0 3.062502l-1.25 0l0 -3.062502l-1.625 0l0 -1.1875l1.625 0l0 -3.625q-1.5 3.3125 -3.875 5.375l-0.9375 -1.1875zm0.5 -9.8125q-0.3125 1.625 -0.875 3.0625q0.5 0.1875 0 0.4375l0 10.125002l-1.25 0l0 -7.812502q-0.4375 0.9375 -1.125 1.625l-0.875 -1.125q2.125 -2.875 2.9375 -7.125l1.375 0.5q0.3125 0.25 -0.1875 0.3125zm18.4375 1.1875q-2.6875 0.125 -5.25 0.125l-0.3125 -1.125q6.1875 -0.0625 11.0 -0.875l0.875 1.1875q0.125 0.3125 -0.4375 0.125q-2.5 0.3125 -5.25 0.5l0.75 0.5q0.4375 0.3125 -0.3125 0.375q-1.5625 1.75 -2.4375 2.625l1.4375 0.875q1.9375 -1.75 3.25 -3.25l1.1875 0.875q0.4375 0.3125 -0.3125 0.3125q-2.0 1.75 -4.1875 3.5l4.5625 -0.25q-0.625 -0.625 -1.1875 -1.0l0.9375 -0.875q2.0625 1.375 3.375 3.1875l-1.1875 1.0625q-0.6875 -1.0625 -1.0625 -1.375l-4.0625 0.3125l0 5.562502l-1.25 0l0 -5.437502l-5.25 0.3125q-0.0625 0.4375 -0.3125 0.1875l-0.4375 -1.5625l4.0 -0.0625l0.8125 -0.5625q-1.5625 -1.125 -3.25 -2.0l0.8125 -1.0l1.125 0.5625q0.6875 -0.625 2.375 -2.8125zm6.875 11.812502q-2.4375 -1.0625019 -4.1875 -3.187502l1.1875 -0.9375q1.375 1.6875 3.8125 2.75l-0.8125 1.3750019zm-8.0 -3.312502q0.5 0.3125 -0.1875 0.375q-1.4375 1.875 -3.5625 3.187502l-0.9375 -1.3125019q2.125 -1.3125 3.4375 -3.0l1.25 0.75z" fill-rule="nonzero"/><path fill="#000000" d="m742.07367 26.70498q-0.0625 0.8125 -0.0625 1.8125l0 2.125q0 1.1875 0.0625 2.062502l-1.25 0l0 -1.1875019l-4.25 0l0 1.3125019l-1.25 0q0.0625 -1.6250019 0.0625 -2.125002l0 -2.3125q0 -0.75 -0.0625 -1.6875l6.75 0zm-9.5625 -7.3125q-0.5 0.625 -1.0625 1.625q-0.5625 1.0 -1.375 2.5q1.375 -0.0625 2.0 -0.0625q0.5625 -1.0 0.9375 -1.9375q0.625 0.4375 1.375 0.8125q-0.3125 0.25 -1.09375 1.375q-0.78125 1.125 -2.46875 3.6875q2.0625 -0.3125 3.25 -0.5q-0.1875 0.6875 -0.1875 1.1875q-0.5625 0.0625 -2.0 0.25q-1.4375 0.1875 -2.8125 0.5625q-0.25 -0.625 -0.4375 -1.25q0.75 -0.1875 1.5 -1.15625q0.75 -0.96875 1.3125 -2.03125q-0.4375 0 -1.28125 0.09375q-0.84375 0.09375 -1.46875 0.28125q-0.1875 -0.625 -0.375 -1.1875q0.6875 -0.5625 1.46875 -1.9375q0.78125 -1.375 1.21875 -3.0q0.75 0.375 1.5 0.6875zm5.4375 1.6875q0 -1.0625 -0.0625 -2.5l1.3125 0q-0.0625 1.125 -0.0625 2.5l1.8125 0q1.1875 0 2.1875 -0.0625l0 1.125q-1.0 -0.0625 -2.125 -0.0625l-1.875 0l0 2.0625l1.4375 0q0.875 0 1.75 -0.0625l0 1.125q-0.75 -0.0625 -1.8125 -0.0625l-3.625 0q-1.0625 0 -1.875 0.0625l0 -1.125q0.8125 0.0625 1.75 0.0625l1.1875 0l0 -2.0625l-1.375 0q-1.125 0 -2.125 0.0625l0 -1.125q0.8125 0.0625 2.0 0.0625l1.5 0zm2.875 9.4375l0 -2.8125l-4.25 0l0 2.8125l4.25 0zm-6.625 -0.625q-0.1875 0.5625 -0.125 1.1875q-1.1875 0.1875 -2.6875 0.4375q-1.5 0.25 -2.5625 0.5625019q-0.25 -0.8125019 -0.5 -1.4375019q1.3125 -0.0625 2.375 -0.21875q1.0625 -0.15625 3.5 -0.53125z" fill-rule="nonzero"/><path fill="#000000" d="m755.13617 30.70498l-0.125 -0.9375q-1.5 0.4375 -3.75 1.0q-0.3125 0.5 -0.4375 -0.125l-0.25 -1.125l0.8125 -0.125q0.8125 -2.625 1.0625 -5.875l1.5 0.125q0.1875 0.1875 -0.125 0.375q-0.3125 1.9375 -1.25 5.125l2.25 -0.375q-0.1875 -1.25 -0.625 -2.4375l1.1875 -0.25q0.8125 2.125 1.0625 4.375l-1.3125 0.25zm-5.625 -6.6875q1.9375 -2.125 2.5625 -5.375l1.375 0.0625q0.1875 0.125 -0.125 0.3125q-0.4375 1.5 -0.8125 2.375l5.8125 0l-0.125 9.5q0 1.8750019 -1.625 1.8750019l-1.125 0l-0.125 -1.1875019l0.8125 0q0.8125 0 0.8125 -1.0l0.125 -8.0l-5.0625 0q-0.5625 1.25 -1.6875 2.625l-0.8125 -1.1875zm-1.4375 -2.125l1.6875 0l0 1.1875l-1.6875 0l0 1.6875q0.9375 0.5625 1.875 1.5625l-0.8125 1.25q-0.5 -0.8125 -1.0625 -1.25l0 6.625002l-1.25 0l0 -6.437502q-0.4375 1.375 -1.75 3.0625l-0.6875 -1.5625q1.875 -2.125 2.4375 -4.9375l-1.9375 0l0 -1.1875l1.9375 0l0 -3.3125l1.1875 0q0.5 0.0625 0.0625 0.375l0 2.9375z" fill-rule="nonzero"/></g></svg>