<svg version="1.1" viewBox="0.0 0.0 843.0 281.0" fill="none" stroke="none" stroke-linecap="square" stroke-miterlimit="10" xmlns:xlink="http://www.w3.org/1999/xlink" xmlns="http://www.w3.org/2000/svg"><clipPath id="p.0"><path d="m0 0l843.0 0l0 281.0l-843.0 0l0 -281.0z" clip-rule="nonzero"/></clipPath><g clip-path="url(#p.0)"><path fill="#000000" fill-opacity="0.0" d="m0 0l843.0 0l0 281.0l-843.0 0z" fill-rule="evenodd"/><path fill="#000000" fill-opacity="0.0" d="m10.374016 45.228348l130.58267 0l0 38.771652l-130.58267 0z" fill-rule="evenodd"/><path fill="#ffffff" d="m36.99348 54.228348l77.34375 0l0 19.199997l-77.34375 0l0 -19.199997z" fill-rule="nonzero"/><path fill="#000000" fill-opacity="0.0" d="m36.99348 55.83835l16.0 0l0 16.0l-16.0 0l0 -16.0z" fill-rule="nonzero"/><path fill="#2c3e50" d="m45.18098 67.46335q0.4375 0.75 1.75 1.5l0 -4.25l-3.9375 0l0 -1.1875l9.0625 0l0 1.1875l-3.875 0l0 1.375l2.9375 0l0 1.1875l-2.9375 0l0 2.125q0.5625 0.125 1.4375 0.125l2.5625 0l-0.1875 1.1875l-2.5 0q-3.0625 0 -4.75 -2.0625q-1.125 1.75 -2.1875 2.3125l-0.8125 -1.0q2.3125 -1.75 2.625 -4.5625l1.3125 0.3125q0.4375 0.25 -0.125 0.375l-0.375 1.375zm-4.125 -3.625l1.25 -0.4375l0.25 1.0625l-1.5 0.625l0 4.75q0 1.0 -1.0 1.0l-1.25 0l-0.1875 -1.1875l0.9375 0q0.25 0 0.25 -0.25l0 -3.875l-1.4375 0.5625q-0.125 0.4375 -0.25 0.1875l-0.375 -1.4375l2.0625 -0.625l0 -3.6875l-1.75 0l0 -1.1875l1.75 0l0 -2.6875l1.1875 0q0.5 0.0625 0.0625 0.375l0 2.3125l1.8125 0l0 1.1875l-1.8125 0l0 3.3125zm2.875 -6.625l6.9375 0l0 5.25l-6.9375 0l0 -5.25zm1.0625 1.0l0 1.125l4.8125 0l0 -1.125l-4.8125 0zm0 2.125l0 1.125l4.8125 0l0 -1.125l-4.8125 0z" fill-rule="nonzero"/><path fill="#000000" fill-opacity="0.0" d="m52.99348 55.83835l31.999996 0l0 18.25l-31.999996 0l0 -18.25z" fill-rule="nonzero"/><path fill="#2c3e50" d="m60.24348 58.77585q0.125 1.4375 0.375 2.53125q0.25 1.09375 0.75 2.21875q0.5 1.125 1.5625 2.5625q0.8125 -1.5625 1.1562462 -2.84375q0.34375 -1.28125 0.59375 -2.53125q0.25 -1.25 0.4375 -2.875q0.6875 0.1875 1.625 0.3125q-0.375 0.5625 -0.5 1.09375q-0.125 0.53125 -0.3125 1.53125q-0.1875 1.0 -0.5625 2.5625q-0.375 1.5625 -1.4999962 3.75q0.9999962 1.0 1.9999962 1.53125q1.0 0.53125 2.4375 0.90625q-0.6875 0.5 -1.125 1.5q-1.625 -0.9375 -2.375 -1.40625q-0.75 -0.46875 -1.8124962 -1.59375q-1.125 1.25 -2.0 1.90625q-0.875 0.65625 -1.875 1.34375q-0.5625 -0.4375 -1.375 -1.125q1.3125 -0.5 2.46875 -1.28125q1.15625 -0.78125 1.84375 -1.78125q-1.1875 -1.5625 -1.75 -2.9375q-0.5625 -1.375 -0.84375 -2.53125q-0.28125 -1.15625 -0.53125 -2.59375q0.625 -0.0625 1.3125 -0.25zm-4.25 12.1875q-0.4375 -0.5625 -1.0625 -1.25q0.875 -0.5625 0.875 -1.5l0 -5.5625l-0.8125 0q-0.625 0 -1.375 0.0625l0 -1.25q0.75 0.125 1.375 0.125l2.0625 0q-0.0625 1.0625 -0.0625 2.4375l0 3.9375q0.6875 -0.75 1.8125 -2.0625q0.25 0.3125 0.8125 1.0q-0.9375 0.9375 -1.875 1.90625q-0.9375 0.96875 -1.75 2.15625zm6.5 -14.5625q0.6875 3.0 1.0625 4.9375q-0.75 0.0625 -1.25 0.25q-0.375 -2.25 -1.0625 -4.8125q0.5625 -0.1875 1.25 -0.375zm-6.375 0.25q1.0 1.6875 1.5 2.6875q-0.5625 0.25 -1.1875 0.625q-1.0 -2.125 -1.375 -2.6875q0.5625 -0.25 1.0625 -0.625zm23.374996 12.4375q-0.125 -0.75 -0.625 -1.5q1.25 0 1.90625 -0.125q0.65625 -0.125 0.71875 -0.75l0.125 -3.375l-5.3125 0l0 5.4375q0 1.125 0.0625 2.3125l-1.4375 0q0.125 -1.125 0.125 -2.3125l0 -5.4375l-1.375 0q-2.0625 0 -3.3125 0.0625l0 -1.1875q1.3125 0.0625 2.6875 0.0625l10.0 0q-0.1875 2.625 -0.25 4.25q-0.0625 1.625 -0.9375 2.03125q-0.875 0.40625 -2.375 0.53125zm-4.3125 -9.375q0 1.125 0.0625 1.9375l-1.375 0q0.0625 -0.9375 0.0625 -1.9375l-2.125 0q-0.875 0 -1.9375 0.125l0 -1.25q1.0625 0.0625 1.9375 0.0625l2.125 0q0 -1.1875 -0.0625 -2.0l1.375 0q-0.0625 0.8125 -0.0625 2.0l3.3125 0q0 -1.25 -0.0625 -2.0l1.4375 0q-0.0625 0.75 -0.0625 2.0l2.0 0q1.1875 0 2.1875 -0.0625l0 1.1875q-1.0 -0.0625 -2.1875 -0.0625l-2.0 0q0 1.0 0.0625 1.9375l-1.4375 0q0.0625 -1.0 0.0625 -1.9375l-3.3125 0z" fill-rule="nonzero"/><path fill="#000000" fill-opacity="0.0" d="m84.99348 55.83835l16.0 0l0 16.0l-16.0 0l0 -16.0z" fill-rule="nonzero"/><path fill="#2c3e50" d="m97.43098 66.96335q1.25 1.1875 2.25 2.9375l-1.5 0.75q-0.875 -1.875 -1.875 -3.0625l1.125 -0.625zm-2.875 0.0625q1.0625 1.75 1.25 3.375l-1.5625 0.375q-0.25 -1.6875 -0.9375 -3.3125l1.25 -0.4375zm-8.25 3.0625q1.125 -1.125 1.8125 -3.0l1.3125 0.5q-0.4375 1.875 -1.75 3.3125l-1.375 -0.8125zm5.4375 -2.6875q0.5 1.1875 0.375 3.3125l-1.5 0.0625q0.0625 -2.125 -0.1875 -3.3125l1.3125 -0.0625zm4.875 -2.375l0 -2.4375l-7.0 0l0 2.4375l7.0 0zm-3.3125 -8.25q0.5 0.0625 0.0625 0.375l0 1.375l5.25 0l0 1.1875l-5.25 0l0 1.6875l4.6875 0l0 5.1875l-1.4375 0l0 -0.375l-7.0 0l0 0.5l-1.4375 0l0 -5.3125l3.75 0l0 -4.625l1.375 0z" fill-rule="nonzero"/><path fill="#000000" fill-opacity="0.0" d="m100.99348 55.103973l13.34375 0l0 18.398438l-13.34375 0l0 -18.398438z" fill-rule="nonzero"/><path fill="#2c3e50" d="m111.40754 69.58835l-1.40625 0l0 -8.96875q-0.515625 0.484375 -1.34375 0.96875q-0.8125 0.484375 -1.46875 0.734375l0 -1.359375q1.171875 -0.5625 2.046875 -1.34375q0.890625 -0.796875 1.265625 -1.53125l0.90625 0l0 11.5z" fill-rule="nonzero"/><path fill="#010000" fill-opacity="0.0" d="m114.33723 55.103973l0 0l0 18.398438l0 0l0 -18.398438z" fill-rule="nonzero"/><path fill="#000000" fill-opacity="0.0" d="m140.9567 64.614174l624.0315 -2.614174" fill-rule="evenodd"/><path stroke="#000000" stroke-width="1.0" stroke-linejoin="round" stroke-linecap="butt" d="m140.9567 64.614174l618.0316 -2.5890388" fill-rule="evenodd"/><path fill="#000000" stroke="#000000" stroke-width="1.0" stroke-linecap="butt" d="m758.9952 63.676853l4.531128 -1.6707306l-4.544983 -1.6327057z" fill-rule="evenodd"/><path fill="#000000" fill-opacity="0.0" d="m10.374016 83.10105l130.58267 0l0 38.771652l-130.58267 0z" fill-rule="evenodd"/><path fill="#ffffff" d="m36.99348 92.10105l77.34375 0l0 19.199997l-77.34375 0l0 -19.199997z" fill-rule="nonzero"/><path fill="#000000" fill-opacity="0.0" d="m36.99348 93.71105l16.0 0l0 16.0l-16.0 0l0 -16.0z" fill-rule="nonzero"/><path fill="#2c3e50" d="m45.18098 105.33605q0.4375 0.75 1.75 1.5l0 -4.25l-3.9375 0l0 -1.1875l9.0625 0l0 1.1875l-3.875 0l0 1.375l2.9375 0l0 1.1875l-2.9375 0l0 2.125q0.5625 0.125 1.4375 0.125l2.5625 0l-0.1875 1.1875l-2.5 0q-3.0625 0 -4.75 -2.0625q-1.125 1.75 -2.1875 2.3125l-0.8125 -1.0q2.3125 -1.75 2.625 -4.5625l1.3125 0.3125q0.4375 0.25 -0.125 0.375l-0.375 1.375zm-4.125 -3.625l1.25 -0.4375l0.25 1.0625l-1.5 0.625l0 4.75q0 1.0 -1.0 1.0l-1.25 0l-0.1875 -1.1875l0.9375 0q0.25 0 0.25 -0.25l0 -3.875l-1.4375 0.5625q-0.125 0.4375 -0.25 0.1875l-0.375 -1.4375l2.0625 -0.625l0 -3.6875l-1.75 0l0 -1.1875l1.75 0l0 -2.6875l1.1875 0q0.5 0.0625 0.0625 0.375l0 2.3125l1.8125 0l0 1.1875l-1.8125 0l0 3.3125zm2.875 -6.625l6.9375 0l0 5.25l-6.9375 0l0 -5.25zm1.0625 1.0l0 1.125l4.8125 0l0 -1.125l-4.8125 0zm0 2.125l0 1.125l4.8125 0l0 -1.125l-4.8125 0z" fill-rule="nonzero"/><path fill="#000000" fill-opacity="0.0" d="m52.99348 93.71105l31.999996 0l0 18.25l-31.999996 0l0 -18.25z" fill-rule="nonzero"/><path fill="#2c3e50" d="m60.24348 96.64855q0.125 1.4375 0.375 2.53125q0.25 1.09375 0.75 2.21875q0.5 1.125 1.5625 2.5625q0.8125 -1.5625 1.1562462 -2.84375q0.34375 -1.28125 0.59375 -2.53125q0.25 -1.25 0.4375 -2.875q0.6875 0.1875 1.625 0.3125q-0.375 0.5625 -0.5 1.09375q-0.125 0.53125 -0.3125 1.53125q-0.1875 1.0 -0.5625 2.5625q-0.375 1.5625 -1.4999962 3.75q0.9999962 1.0 1.9999962 1.53125q1.0 0.53125 2.4375 0.90625q-0.6875 0.5 -1.125 1.5q-1.625 -0.9375 -2.375 -1.40625q-0.75 -0.46875 -1.8124962 -1.59375q-1.125 1.25 -2.0 1.90625q-0.875 0.65625 -1.875 1.34375q-0.5625 -0.4375 -1.375 -1.125q1.3125 -0.5 2.46875 -1.28125q1.15625 -0.78125 1.84375 -1.78125q-1.1875 -1.5625 -1.75 -2.9375q-0.5625 -1.375 -0.84375 -2.53125q-0.28125 -1.15625 -0.53125 -2.59375q0.625 -0.0625 1.3125 -0.25zm-4.25 12.1875q-0.4375 -0.5625 -1.0625 -1.25q0.875 -0.5625 0.875 -1.5l0 -5.5625l-0.8125 0q-0.625 0 -1.375 0.0625l0 -1.25q0.75 0.125 1.375 0.125l2.0625 0q-0.0625 1.0625 -0.0625 2.4375l0 3.9375q0.6875 -0.75 1.8125 -2.0625q0.25 0.3125 0.8125 1.0q-0.9375 0.9375 -1.875 1.90625q-0.9375 0.96875 -1.75 2.15625zm6.5 -14.5625q0.6875 3.0 1.0625 4.9375q-0.75 0.0625 -1.25 0.25q-0.375 -2.25 -1.0625 -4.8125q0.5625 -0.1875 1.25 -0.375zm-6.375 0.25q1.0 1.6875 1.5 2.6875q-0.5625 0.25 -1.1875 0.625q-1.0 -2.125 -1.375 -2.6875q0.5625 -0.25 1.0625 -0.625zm23.374996 12.4375q-0.125 -0.75 -0.625 -1.5q1.25 0 1.90625 -0.125q0.65625 -0.125 0.71875 -0.75l0.125 -3.375l-5.3125 0l0 5.4375q0 1.125 0.0625 2.3125l-1.4375 0q0.125 -1.125 0.125 -2.3125l0 -5.4375l-1.375 0q-2.0625 0 -3.3125 0.0625l0 -1.1875q1.3125 0.0625 2.6875 0.0625l10.0 0q-0.1875 2.625 -0.25 4.25q-0.0625 1.625 -0.9375 2.03125q-0.875 0.40625 -2.375 0.53125zm-4.3125 -9.375q0 1.125 0.0625 1.9375l-1.375 0q0.0625 -0.9375 0.0625 -1.9375l-2.125 0q-0.875 0 -1.9375 0.125l0 -1.25q1.0625 0.0625 1.9375 0.0625l2.125 0q0 -1.1875 -0.0625 -2.0l1.375 0q-0.0625 0.8125 -0.0625 2.0l3.3125 0q0 -1.25 -0.0625 -2.0l1.4375 0q-0.0625 0.75 -0.0625 2.0l2.0 0q1.1875 0 2.1875 -0.0625l0 1.1875q-1.0 -0.0625 -2.1875 -0.0625l-2.0 0q0 1.0 0.0625 1.9375l-1.4375 0q0.0625 -1.0 0.0625 -1.9375l-3.3125 0z" fill-rule="nonzero"/><path fill="#000000" fill-opacity="0.0" d="m84.99348 93.71105l16.0 0l0 16.0l-16.0 0l0 -16.0z" fill-rule="nonzero"/><path fill="#2c3e50" d="m97.43098 104.83605q1.25 1.1875 2.25 2.9375l-1.5 0.75q-0.875 -1.875 -1.875 -3.0625l1.125 -0.625zm-2.875 0.0625q1.0625 1.75 1.25 3.375l-1.5625 0.375q-0.25 -1.6875 -0.9375 -3.3125l1.25 -0.4375zm-8.25 3.0625q1.125 -1.125 1.8125 -3.0l1.3125 0.5q-0.4375 1.875 -1.75 3.3125l-1.375 -0.8125zm5.4375 -2.6875q0.5 1.1875 0.375 3.3125l-1.5 0.0625q0.0625 -2.125 -0.1875 -3.3125l1.3125 -0.0625zm4.875 -2.375l0 -2.4375l-7.0 0l0 2.4375l7.0 0zm-3.3125 -8.25q0.5 0.0625 0.0625 0.375l0 1.375l5.25 0l0 1.1875l-5.25 0l0 1.6875l4.6875 0l0 5.1875l-1.4375 0l0 -0.375l-7.0 0l0 0.5l-1.4375 0l0 -5.3125l3.75 0l0 -4.625l1.375 0z" fill-rule="nonzero"/><path fill="#000000" fill-opacity="0.0" d="m100.99348 92.97668l13.34375 0l0 18.398438l-13.34375 0l0 -18.398438z" fill-rule="nonzero"/><path fill="#2c3e50" d="m113.50129 106.10168l0 1.359375l-7.578125 0q-0.015625 -0.515625 0.171875 -0.984375q0.28125 -0.765625 0.921875 -1.515625q0.640625 -0.75 1.84375 -1.734375q1.859375 -1.53125 2.515625 -2.421875q0.65625 -0.90625 0.65625 -1.703125q0 -0.828125 -0.59375 -1.40625q-0.59375 -0.578125 -1.5625 -0.578125q-1.015625 0 -1.625 0.609375q-0.609375 0.609375 -0.609375 1.6875l-1.453125 -0.140625q0.15625 -1.625 1.125 -2.46875q0.96875 -0.84375 2.59375 -0.84375q1.65625 0 2.609375 0.921875q0.96875 0.90625 0.96875 2.25q0 0.6875 -0.28125 1.359375q-0.28125 0.65625 -0.9375 1.390625q-0.65625 0.734375 -2.171875 2.015625q-1.265625 1.0625 -1.625 1.453125q-0.359375 0.375 -0.59375 0.75l5.625 0z" fill-rule="nonzero"/><path fill="#000000" fill-opacity="0.0" d="m114.33723 92.97668l0 0l0 18.398438l0 0l0 -18.398438z" fill-rule="nonzero"/><path fill="#000000" fill-opacity="0.0" d="m140.9567 102.48688l620.0315 -3.4960632" fill-rule="evenodd"/><path stroke="#000000" stroke-width="1.0" stroke-linejoin="round" stroke-linecap="butt" d="m140.9567 102.48688l614.0316 -3.4622269" fill-rule="evenodd"/><path fill="#000000" stroke="#000000" stroke-width="1.0" stroke-linecap="butt" d="m754.9976 100.67635l4.5286865 -1.6772995l-4.5473633 -1.6261139z" fill-rule="evenodd"/><path fill="#000000" fill-opacity="0.0" d="m9.381889 126.35696l130.58267 0l0 38.77166l-130.58267 0z" fill-rule="evenodd"/><path fill="#ffffff" d="m35.55604 135.35695l78.234375 0l0 19.200012l-78.234375 0l0 -19.200012z" fill-rule="nonzero"/><path fill="#000000" fill-opacity="0.0" d="m35.55604 136.96695l32.000004 0l0 16.0l-32.000004 0l0 -16.0z" fill-rule="nonzero"/><path fill="#2c3e50" d="m45.05604 140.34195l3.625 0l0 4.1875l1.8125 0l0 1.375l-4.875 0q1.5 2.875 5.1875 4.5l-0.8125 1.3125q-3.6875 -1.875 -5.25 -5.0q-0.625 3.625 -4.75 5.25l-0.5 -1.25q3.6875 -1.25 4.1875 -4.8125l-3.5625 0l0 -1.375l3.6875 0l0 -2.8125l-2.625 0l0 -1.375l2.625 0l0 -2.5l1.1875 0q0.5 0.0625 0.0625 0.375l0 2.125zm2.375 4.1875l0 -2.8125l-2.375 0l0 2.8125l2.375 0zm-9.25 -5.1875q1.4375 0.8125 2.375 2.0l-1.0 1.1875q-1.0 -1.1875 -2.4375 -2.1875l1.0625 -1.0zm-1.875 10.25q1.75 -1.5625 3.1875 -3.75l0.8125 1.0625q-1.375 2.125 -2.875 3.5625q-0.1875 1.0 -0.5 0.1875l-0.625 -1.0625zm29.750004 2.125q-3.3125038 -0.8125 -5.875004 -3.375l0 3.75l-1.25 0l0 -3.75q-1.6875 2.0625 -5.5625 3.4375l-0.625 -1.375q4.0625 -1.1875 6.1875 -3.8125l0 -0.75l-3.125 0l0 2.25l-1.25 0l0 -3.25l4.375 0l0 -1.0l-6.125 0l0 -1.0l6.125 0l0 -1.3125l1.1875 0q0.5 0.0625 0.0625 0.375l0 0.9375l6.125004 0l0 1.0l-6.125004 0l0 1.0l4.562504 0l0 2.4375q0 0.875 -0.7500038 0.875l-1.25 0l-0.25 -1.1875l0.75 0q0.25 0 0.25 -0.25l0 -0.875l-3.3125 0l0 0.8125q1.9375 2.4375 6.250004 3.5625l-0.375 1.5zm-4.437504 -13.375q-0.25 0.625 -0.4375 1.0625l5.125004 0l0 1.0l-2.9375038 0l0.6875038 1.3125l-1.3750038 0.375l-0.5625 -1.6875l-1.375 0q-0.5 0.875 -0.75 1.0625l-1.0 -0.6875l0.375 -0.375l-2.1875 0l0.6875 1.4375l-1.375 0.375l-0.5 -1.8125l-1.0625 0q-0.5625 0.9375 -1.5 1.875l-0.875 -0.9375q1.625 -1.3125 2.125 -3.6875l1.25 0.375q0.25 0.25 -0.1875 0.3125q-0.1875 0.5625 -0.375 1.0625l4.125 0l0 0.8125q0.875 -1.375 1.125 -2.5625l1.1875 0.375q0.25 0.25 -0.1875 0.3125z" fill-rule="nonzero"/><path fill="#000000" fill-opacity="0.0" d="m67.556046 136.96695l15.999992 0l0 18.25l-15.999992 0l0 -18.25z" fill-rule="nonzero"/><path fill="#2c3e50" d="m78.05604 150.21695q-0.125 -0.75 -0.625 -1.5q1.25 0 1.90625 -0.125q0.65625 -0.125 0.71875 -0.75l0.125 -3.375l-5.3125 0l0 5.4375q0 1.125 0.0625 2.3125l-1.4375 0q0.125 -1.125 0.125 -2.3125l0 -5.4375l-1.3749924 0q-2.0625 0 -3.3125 0.0625l0 -1.1875q1.3125 0.0625 2.6875 0.0625l9.999992 0q-0.1875 2.625 -0.25 4.25q-0.0625 1.625 -0.9375 2.03125q-0.875 0.40625 -2.375 0.53125zm-4.3125 -9.375q0 1.125 0.0625 1.9375l-1.3749924 0q0.0625 -0.9375 0.0625 -1.9375l-2.125 0q-0.875 0 -1.9375 0.125l0 -1.25q1.0625 0.0625 1.9375 0.0625l2.125 0q0 -1.1875 -0.0625 -2.0l1.3749924 0q-0.0625 0.8125 -0.0625 2.0l3.3125 0q0 -1.25 -0.0625 -2.0l1.4375 0q-0.0625 0.75 -0.0625 2.0l2.0 0q1.1875 0 2.1875 -0.0625l0 1.1875q-1.0 -0.0625 -2.1875 -0.0625l-2.0 0q0 1.0 0.0625 1.9375l-1.4375 0q0.0625 -1.0 0.0625 -1.9375l-3.3125 0z" fill-rule="nonzero"/><path fill="#000000" fill-opacity="0.0" d="m83.55604 136.96695l16.0 0l0 16.0l-16.0 0l0 -16.0z" fill-rule="nonzero"/><path fill="#2c3e50" d="m95.99354 148.09195q1.25 1.1875 2.25 2.9375l-1.5 0.75q-0.875 -1.875 -1.875 -3.0625l1.125 -0.625zm-2.875 0.0625q1.0625 1.75 1.25 3.375l-1.5625 0.375q-0.25 -1.6875 -0.9375 -3.3125l1.25 -0.4375zm-8.25 3.0625q1.125 -1.125 1.8125 -3.0l1.3125 0.5q-0.4375 1.875 -1.75 3.3125l-1.375 -0.8125zm5.4375 -2.6875q0.5 1.1875 0.375 3.3125l-1.5 0.0625q0.0625 -2.125 -0.1875 -3.3125l1.3125 -0.0625zm4.875 -2.375l0 -2.4375l-7.0 0l0 2.4375l7.0 0zm-3.3125 -8.25q0.5 0.0625 0.0625 0.375l0 1.375l5.25 0l0 1.1875l-5.25 0l0 1.6875l4.6875 0l0 5.1875l-1.4375 0l0 -0.375l-7.0 0l0 0.5l-1.4375 0l0 -5.3125l3.75 0l0 -4.625l1.375 0z" fill-rule="nonzero"/><path fill="#000000" fill-opacity="0.0" d="m99.55604 136.23257l14.234375 0l0 18.398438l-14.234375 0l0 -18.398438z" fill-rule="nonzero"/><path fill="#2c3e50" d="m103.08729 150.71695l4.40625 -11.453125l1.640625 0l4.6875 11.453125l-1.734375 0l-1.328125 -3.46875l-4.796875 0l-1.25 3.46875l-1.625 0zm3.3125 -4.703125l3.890625 0l-1.203125 -3.171875q-0.546875 -1.453125 -0.8125 -2.375q-0.21875 1.09375 -0.609375 2.1875l-1.265625 3.359375z" fill-rule="nonzero"/><path fill="#010000" fill-opacity="0.0" d="m113.79041 136.23257l0 0l0 18.398438l0 0l0 -18.398438z" fill-rule="nonzero"/><path fill="#000000" fill-opacity="0.0" d="m139.96457 145.74278l619.02356 -3.7480316" fill-rule="evenodd"/><path stroke="#000000" stroke-width="1.0" stroke-linejoin="round" stroke-linecap="butt" d="m139.96457 145.74278l613.0237 -3.7117004" fill-rule="evenodd"/><path fill="#000000" stroke="#000000" stroke-width="1.0" stroke-linecap="butt" d="m752.9983 143.68279l4.528015 -1.679184l-4.5480347 -1.6242218z" fill-rule="evenodd"/><path fill="#000000" fill-opacity="0.0" d="m10.374016 169.61548l130.58267 0l0 38.771667l-130.58267 0z" fill-rule="evenodd"/><path fill="#ffffff" d="m36.106762 178.6155l79.11719 0l0 19.199997l-79.11719 0l0 -19.199997z" fill-rule="nonzero"/><path fill="#000000" fill-opacity="0.0" d="m36.106762 180.22548l31.999996 0l0 16.0l-31.999996 0l0 -16.0z" fill-rule="nonzero"/><path fill="#2c3e50" d="m45.606762 183.60048l3.625 0l0 4.1875l1.8125 0l0 1.375l-4.875 0q1.5 2.875 5.1875 4.5l-0.8125 1.3125q-3.6875 -1.875 -5.25 -5.0q-0.625 3.625 -4.75 5.25l-0.5 -1.25q3.6875 -1.25 4.1875 -4.8125l-3.5625 0l0 -1.375l3.6875 0l0 -2.8125l-2.625 0l0 -1.375l2.625 0l0 -2.5l1.1875 0q0.5 0.0625 0.0625 0.375l0 2.125zm2.375 4.1875l0 -2.8125l-2.375 0l0 2.8125l2.375 0zm-9.25 -5.1875q1.4375 0.8125 2.375 2.0l-1.0 1.1875q-1.0 -1.1875 -2.4375 -2.1875l1.0625 -1.0zm-1.875 10.25q1.75 -1.5625 3.1875 -3.75l0.8125 1.0625q-1.375 2.125 -2.875 3.5625q-0.1875 1.0 -0.5 0.1875l-0.625 -1.0625zm29.749996 2.125q-3.3124962 -0.8125 -5.874996 -3.375l0 3.75l-1.25 0l0 -3.75q-1.6875 2.0625 -5.5625 3.4375l-0.625 -1.375q4.0625 -1.1875 6.1875 -3.8125l0 -0.75l-3.125 0l0 2.25l-1.25 0l0 -3.25l4.375 0l0 -1.0l-6.125 0l0 -1.0l6.125 0l0 -1.3125l1.1875 0q0.5 0.0625 0.0625 0.375l0 0.9375l6.124996 0l0 1.0l-6.124996 0l0 1.0l4.562496 0l0 2.4375q0 0.875 -0.75 0.875l-1.2499962 0l-0.25 -1.1875l0.75 0q0.24999619 0 0.24999619 -0.25l0 -0.875l-3.3124962 0l0 0.8125q1.9375 2.4375 6.249996 3.5625l-0.375 1.5zm-4.437496 -13.375q-0.25 0.625 -0.4375 1.0625l5.124996 0l0 1.0l-2.9374962 0l0.6874962 1.3125l-1.3749962 0.375l-0.5625 -1.6875l-1.375 0q-0.5 0.875 -0.75 1.0625l-1.0 -0.6875l0.375 -0.375l-2.1875 0l0.6875 1.4375l-1.375 0.375l-0.5 -1.8125l-1.0625 0q-0.5625 0.9375 -1.5 1.875l-0.875 -0.9375q1.625 -1.3125 2.125 -3.6875l1.25 0.375q0.25 0.25 -0.1875 0.3125q-0.1875 0.5625 -0.375 1.0625l4.125 0l0 0.8125q0.875 -1.375 1.125 -2.5625l1.1875 0.375q0.25 0.25 -0.1875 0.3125z" fill-rule="nonzero"/><path fill="#000000" fill-opacity="0.0" d="m68.10676 180.22548l16.0 0l0 18.25l-16.0 0l0 -18.25z" fill-rule="nonzero"/><path fill="#2c3e50" d="m78.60676 193.47548q-0.125 -0.75 -0.625 -1.5q1.25 0 1.90625 -0.125q0.65625 -0.125 0.71875 -0.75l0.125 -3.375l-5.3125 0l0 5.4375q0 1.125 0.0625 2.3125l-1.4375 0q0.125 -1.125 0.125 -2.3125l0 -5.4375l-1.375 0q-2.0625 0 -3.3125 0.0625l0 -1.1875q1.3125 0.0625 2.6875 0.0625l10.0 0q-0.1875 2.625 -0.25 4.25q-0.0625 1.625 -0.9375 2.03125q-0.875 0.40625 -2.375 0.53125zm-4.3125 -9.375q0 1.125 0.0625 1.9375l-1.375 0q0.0625 -0.9375 0.0625 -1.9375l-2.125 0q-0.875 0 -1.9375 0.125l0 -1.25q1.0625 0.0625 1.9375 0.0625l2.125 0q0 -1.1875 -0.0625 -2.0l1.375 0q-0.0625 0.8125 -0.0625 2.0l3.3125 0q0 -1.25 -0.0625 -2.0l1.4375 0q-0.0625 0.75 -0.0625 2.0l2.0 0q1.1875 0 2.1875 -0.0625l0 1.1875q-1.0 -0.0625 -2.1875 -0.0625l-2.0 0q0 1.0 0.0625 1.9375l-1.4375 0q0.0625 -1.0 0.0625 -1.9375l-3.3125 0z" fill-rule="nonzero"/><path fill="#000000" fill-opacity="0.0" d="m84.10676 180.22548l16.0 0l0 16.0l-16.0 0l0 -16.0z" fill-rule="nonzero"/><path fill="#2c3e50" d="m96.54426 191.35048q1.25 1.1875 2.25 2.9375l-1.5 0.75q-0.875 -1.875 -1.875 -3.0625l1.125 -0.625zm-2.875 0.0625q1.0625 1.75 1.25 3.375l-1.5625 0.375q-0.25 -1.6875 -0.9375 -3.3125l1.25 -0.4375zm-8.25 3.0625q1.125 -1.125 1.8125 -3.0l1.3125 0.5q-0.4375 1.875 -1.75 3.3125l-1.375 -0.8125zm5.4375 -2.6875q0.5 1.1875 0.375 3.3125l-1.5 0.0625q0.0625 -2.125 -0.1875 -3.3125l1.3125 -0.0625zm4.875 -2.375l0 -2.4375l-7.0 0l0 2.4375l7.0 0zm-3.3125 -8.25q0.5 0.0625 0.0625 0.375l0 1.375l5.25 0l0 1.1875l-5.25 0l0 1.6875l4.6875 0l0 5.1875l-1.4375 0l0 -0.375l-7.0 0l0 0.5l-1.4375 0l0 -5.3125l3.75 0l0 -4.625l1.375 0z" fill-rule="nonzero"/><path fill="#000000" fill-opacity="0.0" d="m100.10676 179.4911l15.1171875 0l0 18.398438l-15.1171875 0l0 -18.398438z" fill-rule="nonzero"/><path fill="#2c3e50" d="m105.723946 193.97548l0 -11.453125l4.296875 0q1.3125 0 2.109375 0.34375q0.796875 0.34375 1.234375 1.078125q0.453125 0.71875 0.453125 1.5q0 0.734375 -0.40625 1.390625q-0.390625 0.640625 -1.1875 1.046875q1.03125 0.296875 1.59375 1.03125q0.5625 0.734375 0.5625 1.734375q0 0.8125 -0.34375 1.5q-0.34375 0.6875 -0.84375 1.0625q-0.5 0.375 -1.25 0.578125q-0.75 0.1875 -1.84375 0.1875l-4.375 0zm1.515625 -6.640625l2.484375 0q1.0 0 1.4375 -0.140625q0.578125 -0.171875 0.875 -0.5625q0.296875 -0.40625 0.296875 -1.0q0 -0.578125 -0.28125 -1.0q-0.265625 -0.4375 -0.78125 -0.59375q-0.5 -0.171875 -1.734375 -0.171875l-2.296875 0l0 3.46875zm0 5.28125l2.859375 0q0.734375 0 1.03125 -0.046875q0.515625 -0.09375 0.859375 -0.3125q0.359375 -0.21875 0.578125 -0.640625q0.234375 -0.421875 0.234375 -0.96875q0 -0.640625 -0.328125 -1.109375q-0.328125 -0.46875 -0.90625 -0.65625q-0.578125 -0.203125 -1.671875 -0.203125l-2.65625 0l0 3.9375z" fill-rule="nonzero"/><path fill="#000000" fill-opacity="0.0" d="m115.223946 179.4911l0 0l0 18.398438l0 0l0 -18.398438z" fill-rule="nonzero"/><path fill="#000000" fill-opacity="0.0" d="m140.9567 189.00131l615.0552 -6.015747" fill-rule="evenodd"/><path stroke="#000000" stroke-width="1.0" stroke-linejoin="round" stroke-linecap="butt" d="m140.9567 189.00131l609.0554 -5.957062" fill-rule="evenodd"/><path fill="#000000" stroke="#000000" stroke-width="1.0" stroke-linecap="butt" d="m750.02826 184.69589l4.5217285 -1.6960297l-4.554016 -1.6072693z" fill-rule="evenodd"/><path fill="#000000" fill-opacity="0.0" d="m10.374016 212.8727l130.58267 0l0 38.771667l-130.58267 0z" fill-rule="evenodd"/><path fill="#ffffff" d="m35.665356 221.87271l80.0 0l0 19.199997l-80.0 0l0 -19.199997z" fill-rule="nonzero"/><path fill="#000000" fill-opacity="0.0" d="m35.665356 223.4827l31.999996 0l0 16.0l-31.999996 0l0 -16.0z" fill-rule="nonzero"/><path fill="#2c3e50" d="m45.165356 226.8577l3.625 0l0 4.1875l1.8125 0l0 1.375l-4.875 0q1.5 2.875 5.1875 4.5l-0.8125 1.3125q-3.6875 -1.875 -5.25 -5.0q-0.625 3.625 -4.75 5.25l-0.5 -1.25q3.6875 -1.25 4.1875 -4.8125l-3.5625 0l0 -1.375l3.6875 0l0 -2.8125l-2.625 0l0 -1.375l2.625 0l0 -2.5l1.1875 0q0.5 0.0625 0.0625 0.375l0 2.125zm2.375 4.1875l0 -2.8125l-2.375 0l0 2.8125l2.375 0zm-9.25 -5.1875q1.4375 0.8125 2.375 2.0l-1.0 1.1875q-1.0 -1.1875 -2.4375 -2.1875l1.0625 -1.0zm-1.875 10.25q1.75 -1.5625 3.1875 -3.75l0.8125 1.0625q-1.375 2.125 -2.875 3.5625q-0.1875 1.0 -0.5 0.1875l-0.625 -1.0625zm29.749996 2.125q-3.3124962 -0.8125 -5.874996 -3.375l0 3.75l-1.25 0l0 -3.75q-1.6875 2.0625 -5.5625 3.4375l-0.625 -1.375q4.0625 -1.1875 6.1875 -3.8125l0 -0.75l-3.125 0l0 2.25l-1.25 0l0 -3.25l4.375 0l0 -1.0l-6.125 0l0 -1.0l6.125 0l0 -1.3125l1.1875 0q0.5 0.0625 0.0625 0.375l0 0.9375l6.124996 0l0 1.0l-6.124996 0l0 1.0l4.562496 0l0 2.4375q0 0.875 -0.75 0.875l-1.2499962 0l-0.25 -1.1875l0.75 0q0.25 0 0.25 -0.25l0 -0.875l-3.3125 0l0 0.8125q1.9375 2.4375 6.249996 3.5625l-0.375 1.5zm-4.437496 -13.375q-0.25 0.625 -0.4375 1.0625l5.124996 0l0 1.0l-2.9374962 0l0.6874962 1.3125l-1.3749962 0.375l-0.5625 -1.6875l-1.375 0q-0.5 0.875 -0.75 1.0625l-1.0 -0.6875l0.375 -0.375l-2.1875 0l0.6875 1.4375l-1.375 0.375l-0.5 -1.8125l-1.0625 0q-0.5625 0.9375 -1.5 1.875l-0.875 -0.9375q1.625 -1.3125 2.125 -3.6875l1.25 0.375q0.25 0.25 -0.1875 0.3125q-0.1875 0.5625 -0.375 1.0625l4.125 0l0 0.8125q0.875 -1.375 1.125 -2.5625l1.1875 0.375q0.25 0.25 -0.1875 0.3125z" fill-rule="nonzero"/><path fill="#000000" fill-opacity="0.0" d="m67.66535 223.4827l16.0 0l0 18.25l-16.0 0l0 -18.25z" fill-rule="nonzero"/><path fill="#2c3e50" d="m78.16535 236.7327q-0.125 -0.75 -0.625 -1.5q1.25 0 1.90625 -0.125q0.65625 -0.125 0.71875 -0.75l0.125 -3.375l-5.3125 0l0 5.4375q0 1.125 0.0625 2.3125l-1.4375 0q0.125 -1.125 0.125 -2.3125l0 -5.4375l-1.375 0q-2.0625 0 -3.3125 0.0625l0 -1.1875q1.3125 0.0625 2.6875 0.0625l10.0 0q-0.1875 2.625 -0.25 4.25q-0.0625 1.625 -0.9375 2.03125q-0.875 0.40625 -2.375 0.53125zm-4.3125 -9.375q0 1.125 0.0625 1.9375l-1.375 0q0.0625 -0.9375 0.0625 -1.9375l-2.125 0q-0.875 0 -1.9375 0.125l0 -1.25q1.0625 0.0625 1.9375 0.0625l2.125 0q0 -1.1875 -0.0625 -2.0l1.375 0q-0.0625 0.8125 -0.0625 2.0l3.3125 0q0 -1.25 -0.0625 -2.0l1.4375 0q-0.0625 0.75 -0.0625 2.0l2.0 0q1.1875 0 2.1875 -0.0625l0 1.1875q-1.0 -0.0625 -2.1875 -0.0625l-2.0 0q0 1.0 0.0625 1.9375l-1.4375 0q0.0625 -1.0 0.0625 -1.9375l-3.3125 0z" fill-rule="nonzero"/><path fill="#000000" fill-opacity="0.0" d="m83.66535 223.4827l16.0 0l0 16.0l-16.0 0l0 -16.0z" fill-rule="nonzero"/><path fill="#2c3e50" d="m96.10285 234.6077q1.25 1.1875 2.25 2.9375l-1.5 0.75q-0.875 -1.875 -1.875 -3.0625l1.125 -0.625zm-2.875 0.0625q1.0625 1.75 1.25 3.375l-1.5625 0.375q-0.25 -1.6875 -0.9375 -3.3125l1.25 -0.4375zm-8.25 3.0625q1.125 -1.125 1.8125 -3.0l1.3125 0.5q-0.4375 1.875 -1.75 3.3125l-1.375 -0.8125zm5.4375 -2.6875q0.5 1.1875 0.375 3.3125l-1.5 0.0625q0.0625 -2.125 -0.1875 -3.3125l1.3125 -0.0625zm4.875 -2.375l0 -2.4375l-7.0 0l0 2.4375l7.0 0zm-3.3125 -8.25q0.5 0.0625 0.0625 0.375l0 1.375l5.25 0l0 1.1875l-5.25 0l0 1.6875l4.6875 0l0 5.1875l-1.4375 0l0 -0.375l-7.0 0l0 0.5l-1.4375 0l0 -5.3125l3.75 0l0 -4.625l1.375 0z" fill-rule="nonzero"/><path fill="#000000" fill-opacity="0.0" d="m99.66535 222.74832l16.0 0l0 18.398438l-16.0 0l0 -18.398438z" fill-rule="nonzero"/><path fill="#2c3e50" d="m113.516914 233.21707l1.515625 0.375q-0.46875 1.875 -1.71875 2.859375q-1.234375 0.984375 -3.015625 0.984375q-1.859375 0 -3.015625 -0.75q-1.15625 -0.765625 -1.765625 -2.1875q-0.609375 -1.4375 -0.609375 -3.078125q0 -1.796875 0.6875 -3.125q0.6875 -1.328125 1.9375 -2.015625q1.265625 -0.703125 2.78125 -0.703125q1.71875 0 2.890625 0.875q1.171875 0.875 1.640625 2.46875l-1.5 0.34375q-0.390625 -1.25 -1.15625 -1.8125q-0.75 -0.578125 -1.90625 -0.578125q-1.3125 0 -2.203125 0.640625q-0.890625 0.625 -1.25 1.703125q-0.359375 1.0625 -0.359375 2.1875q0 1.46875 0.421875 2.5625q0.4375 1.078125 1.328125 1.625q0.90625 0.53125 1.953125 0.53125q1.265625 0 2.140625 -0.734375q0.890625 -0.734375 1.203125 -2.171875z" fill-rule="nonzero"/><path fill="#000000" fill-opacity="0.0" d="m115.66535 222.74832l0 0l0 18.398438l0 0l0 -18.398438z" fill-rule="nonzero"/><path fill="#000000" fill-opacity="0.0" d="m140.9567 232.25853l613.0393 -4.2519684" fill-rule="evenodd"/><path stroke="#000000" stroke-width="1.0" stroke-linejoin="round" stroke-linecap="butt" d="m140.9567 232.25853l607.03955 -4.2103577" fill-rule="evenodd"/><path fill="#000000" stroke="#000000" stroke-width="1.0" stroke-linecap="butt" d="m748.0077 229.69987l4.5264893 -1.6831665l-4.5494385 -1.620224z" fill-rule="evenodd"/><path fill="#000000" fill-opacity="0.0" d="m676.1312 226.87007l70.99213 0l0 38.771652l-70.99213 0z" fill-rule="evenodd"/><path fill="#000000" d="m701.9398 239.79257q-0.0625 2.25 -0.0625 5.4375q0 3.1875 0.0625 5.0l-1.3125 0l0 -1.1875l-2.5 0l0 2.0625l-1.3125 0q0.0625 -2.875 0.0625 -5.75q0 -2.9375 -0.0625 -5.5625l5.125 0zm5.875 1.875q0 -1.875 -0.0625 -3.5l1.375 0q-0.0625 1.625 -0.0625 3.5q0.9375 0 2.0 -0.0625l0 1.1875q-1.0625 -0.0625 -2.0 -0.0625l0 8.375q0 0.9375 -0.75 1.1875q-0.75 0.25 -1.9375 0.375q0 -0.75 -0.6875 -1.4375q1.1875 0.125 1.65625 0.0625q0.46875 -0.0625 0.46875 -0.8125l0 -7.75q-3.125 0 -5.25 0.0625l0 -1.1875q2.0 0.0625 5.25 0.0625zm-7.1875 6.3125l0 -3.125l-2.5 0l0 3.125l2.5 0zm0 -4.1875l0 -2.9375l-2.5 0l0 2.9375l2.5 0zm3.875 0.625q0.8125 1.3125 1.5625 2.8125q-0.625 0.1875 -1.3125 0.5625q-0.5 -1.5 -1.4375 -2.8125q0.5625 -0.25 1.1875 -0.5625zm18.25 -2.0625q-0.0625 1.1875 -0.0625 2.0625l0 3.3125q0 0.8125 0.0625 1.9375l-6.3125 0q0.0625 -1.125 0.0625 -2.0l0 -3.25q0 -0.875 -0.0625 -2.0625l6.3125 0zm3.375 -3.3125q-0.0625 1.1875 -0.0625 2.375l0 9.1875q0.0625 1.4375 -0.78125 1.75q-0.84375 0.3125 -1.84375 0.4375q-0.0625 -0.75 -0.5 -1.5q1.1875 0.0625 1.53125 -0.125q0.34375 -0.1875 0.34375 -0.8125l0 -10.25l-3.75 0q-1.5 0 -2.8125 0.0625l0 -1.1875q1.3125 0.0625 2.8125 0.0625l5.0625 0zm-13.125 13.5q0.125 -1.25 0.125 -2.625l0 -6.5625q0 -1.3125 -0.125 -2.1875l1.4375 0q-0.0625 0.9375 -0.0625 1.8125l0 7.0q0 1.25 0.0625 2.5625l-1.4375 0zm8.5 -3.875l0 -2.3125l-3.8125 0l0 2.3125l3.8125 0zm0 -3.3125l0 -2.0l-3.8125 0l0 2.0l3.8125 0zm-6.0625 -7.375q0.5625 0.75 1.75 2.375q-0.6875 0.3125 -1.3125 0.6875q-0.625 -1.25 -1.5625 -2.375q0.6875 -0.5 1.125 -0.6875z" fill-rule="nonzero"/><path fill="#000000" fill-opacity="0.0" d="m145.35695 10.282152l121.00789 0l0 51.716537l-121.00789 0z" fill-rule="evenodd"/><path fill="#000000" d="m187.36089 24.113401l0.8125 -2.140625l1.0625 0.25q0.203125 0.203125 -0.15625 0.265625l-0.703125 1.625l2.984375 0l0 0.953125l-2.890625 0l0 1.53125l2.28125 0l0 0.96875l-2.28125 0l0 1.46875l2.28125 0l0 0.96875l-2.28125 0l0 1.625l3.25 0l0 0.9687519l-6.1875 0l0 0.40625l-1.015625 0l0 -7.125002q-0.46875 0.71875 -1.421875 1.734375l-0.71875 -0.921875q2.28125 -2.234375 3.0 -4.96875l1.109375 0.296875q0.265625 0.203125 -0.09375 0.265625q-0.25 0.8125 -0.8125 1.828125l1.78125 0zm-7.109375 7.3125q1.15625 -1.375 2.171875 -3.203125l0.8125 0.8125q-0.859375 1.671875 -1.921875 3.156252q0 0.40625 -0.203125 0.296875l-0.859375 -1.0625019zm7.203125 -4.828125l0 -1.53125l-1.921875 0l0 1.53125l1.921875 0zm0 0.96875l-1.921875 0l0 1.46875l1.921875 0l0 -1.46875zm0 2.4375l-1.921875 0l0 1.625l1.921875 0l0 -1.625zm-5.9375 -7.3125q1.171875 0.609375 1.78125 1.359375l-0.765625 0.921875q-0.71875 -0.765625 -1.734375 -1.421875l0.71875 -0.859375z" fill-rule="nonzero"/><path fill="#000000" d="m203.15776 27.863401q-0.0625 0.9375 -0.0625 2.765625q0 1.7656269 0.0625 2.750002l-1.0 0l0 -0.671875l-5.875 0l0 0.671875l-0.984375 0q0.046875 -0.984375 0.046875 -2.750002q0 -1.828125 -0.046875 -2.765625l7.859375 0zm-9.53125 0.3125q-0.109375 -0.46875 -0.578125 -0.984375q1.3125 -0.109375 2.84375 -0.421875q1.53125 -0.3125 2.46875 -0.828125q-1.1875 -0.984375 -1.96875 -1.765625q-0.625 0.625 -1.46875 1.34375q-0.46875 -0.40625 -0.828125 -0.5625q2.03125 -1.5625 3.171875 -3.90625q0.53125 0.3125 1.09375 0.515625l-0.40625 0.421875q-0.15625 0.15625 -0.53125 0.625l5.78125 0q-0.46875 0.875 -1.234375 1.734375q-0.75 0.859375 -1.78125 1.640625q0.828125 0.421875 2.40625 0.6875q1.59375 0.25 2.796875 0.140625q-0.3125 0.53125 -0.46875 1.09375q-1.875 -0.203125 -3.125 -0.4375q-1.25 -0.234375 -2.546875 -0.90625q-1.453125 0.671875 -3.046875 1.046875q-1.59375 0.359375 -2.578125 0.5625zm3.28125 -4.6875q1.09375 1.046875 2.4375 1.984375q1.09375 -0.671875 2.296875 -2.140625l-4.578125 0l-0.15625 0.15625zm5.25 6.40625l0 -1.25l-2.5 0l0 1.25l2.5 0zm-3.421875 0l0 -1.25l-2.453125 0l0 1.25l2.453125 0zm3.421875 1.984375l0 -1.203125l-2.5 0l0 1.203125l2.5 0zm-3.421875 0l0 -1.203125l-2.453125 0l0 1.203125l2.453125 0zm12.703125 -2.8125q0 -0.890625 -0.0625 -2.09375l6.046875 0q-0.0625 0.890625 -0.0625 1.78125l0 3.750002q0 0.46875 -0.34375 0.59375q-0.328125 0.125 -1.15625 0.28125q-0.109375 -0.46875 -0.421875 -0.9375q0.9375 0 0.9375 -0.3125l0 -1.0312519l-3.953125 0l0 2.187502l-1.046875 0q0.0625 -1.046875 0.0625 -2.031252l0 -2.1875zm-1.09375 -3.546875q0.828125 0.046875 3.53125 0.046875l0 -0.984375q-1.96875 0 -2.8125 0.0625l0 -0.78125q0.84375 0.046875 2.8125 0.046875l0 -0.78125q-2.234375 0 -3.125 0.046875l0 -0.828125q0.9375 0.046875 3.125 0.046875q0 -0.5625 -0.046875 -1.09375l1.09375 0q-0.0625 0.578125 -0.0625 1.09375q2.453125 0 3.28125 -0.046875l0 0.828125q-0.828125 -0.046875 -3.28125 -0.046875l0 0.78125q2.296875 0 2.96875 -0.046875l0 0.78125q-0.78125 -0.0625 -2.96875 -0.0625l0 0.984375q2.96875 0 3.75 -0.046875l0 0.828125q-0.671875 -0.046875 -4.0625 -0.046875q-3.328125 0 -4.203125 0.046875l0 -0.828125zm0.515625 4.84375q-0.671875 0.515625 -1.40625 1.171875q-0.734375 0.6562519 -1.203125 1.1718769q-0.359375 -0.578125 -0.71875 -0.9375019q0.515625 -0.359375 0.515625 -0.984375l0 -4.4375q-0.78125 0 -1.609375 0.0625l0 -0.9375q0.671875 0.046875 1.09375 0.046875l1.5 0q-0.046875 0.828125 -0.046875 1.875l0 3.390625q0.828125 -0.734375 1.296875 -1.3125q0.21875 0.53125 0.578125 0.890625zm5.515625 0l0 -0.984375l-3.953125 0l0 0.984375l3.953125 0zm0 -1.71875l0 -0.890625l-3.953125 0l0 0.890625l3.953125 0zm-7.234375 -4.375q-0.78125 -1.140625 -1.765625 -2.03125q0.359375 -0.25 0.671875 -0.5625q1.203125 1.03125 1.875 1.921875q-0.46875 0.421875 -0.78125 0.671875z" fill-rule="nonzero"/><path fill="#000000" d="m220.00151 30.754026q3.09375 -1.671875 5.03125 -3.34375l0 -2.484375l-4.984375 0l0 -0.96875l4.984375 0l0 -2.28125l0.96875 0q0.40625 0.046875 0.046875 0.296875l0 1.984375l2.640625 0q-0.609375 -0.609375 -1.625 -1.0625l0.8125 -0.875q0.90625 0.359375 1.78125 1.171875l-0.8125 0.765625l2.125 0l0 0.96875l-4.921875 0l0 0.40625q0.203125 0.859375 1.0625 2.171875q1.125 -0.8125 2.078125 -1.96875l0.96875 0.859375q0.046875 0.25 -0.25 0.15625q-0.71875 0.703125 -2.140625 1.71875q1.125 1.46875 3.609375 2.59375l-0.65625 1.2656269q-3.09375 -1.5156269 -4.671875 -4.671877l0 4.828127q0 0.8125 -0.8125 0.8125l-1.265625 0l-0.203125 -1.1250019l1.0625 0q0.203125 0 0.203125 -0.203125l0 -2.984375q-1.328125 1.21875 -4.015625 2.9375q0.109375 0.3125019 -0.15625 0.25l-0.859375 -1.21875zm2.796875 -2.4375q-0.8125 -1.015625 -1.671875 -1.671875l0.859375 -0.859375q0.90625 0.5 1.78125 1.515625l-0.96875 1.015625z" fill-rule="nonzero"/><path fill="#000000" d="m197.50642 50.738403l0 -12.203125l2.578125 0l0 0.96875l-1.40625 0l0 10.25l1.40625 0l0 0.984375l-2.578125 0zm7.7654877 -2.65625l-1.171875 0l0 -7.46875q-0.421875 0.40625 -1.109375 0.8125q-0.6875 0.40625 -1.234375 0.609375l0 -1.140625q0.984375 -0.453125 1.71875 -1.109375q0.734375 -0.671875 1.03125 -1.28125l0.765625 0l0 9.578125zm3.6312256 0l0 -1.328125l1.328125 0l0 1.328125q0 0.734375 -0.265625 1.1875q-0.25 0.453125 -0.8125 0.703125l-0.328125 -0.5q0.375 -0.171875 0.546875 -0.484375q0.171875 -0.3125 0.1875 -0.90625l-0.65625 0zm5.3592377 2.65625l-2.59375 0l0 -0.984375l1.421875 0l0 -10.25l-1.421875 0l0 -0.96875l2.59375 0l0 12.203125z" fill-rule="nonzero"/><path fill="#000000" fill-opacity="0.0" d="m286.46982 55.581364l121.00787 0l0 51.716534l-121.00787 0z" fill-rule="evenodd"/><path fill="#000000" d="m328.47375 69.41261l0.8125 -2.140625l1.0625 0.25q0.203125 0.203125 -0.15625 0.265625l-0.703125 1.625l2.984375 0l0 0.953125l-2.890625 0l0 1.53125l2.28125 0l0 0.96875l-2.28125 0l0 1.46875l2.28125 0l0 0.96875l-2.28125 0l0 1.625l3.25 0l0 0.96875l-6.1875 0l0 0.40625l-1.015625 0l0 -7.125q-0.46875 0.71875 -1.421875 1.734375l-0.71875 -0.921875q2.28125 -2.234375 3.0 -4.96875l1.109375 0.296875q0.265625 0.203125 -0.09375 0.265625q-0.25 0.8125 -0.8125 1.828125l1.78125 0zm-7.109375 7.3125q1.15625 -1.375 2.171875 -3.203125l0.8125 0.8125q-0.859375 1.671875 -1.921875 3.15625q0 0.40625 -0.203125 0.296875l-0.859375 -1.0625zm7.203125 -4.828125l0 -1.53125l-1.921875 0l0 1.53125l1.921875 0zm0 0.96875l-1.921875 0l0 1.46875l1.921875 0l0 -1.46875zm0 2.4375l-1.921875 0l0 1.625l1.921875 0l0 -1.625zm-5.9375 -7.3125q1.171875 0.609375 1.78125 1.359375l-0.765625 0.921875q-0.71875 -0.765625 -1.734375 -1.421875l0.71875 -0.859375z" fill-rule="nonzero"/><path fill="#000000" d="m344.27063 73.16261q-0.0625 0.9375 -0.0625 2.765625q0 1.765625 0.0625 2.75l-1.0 0l0 -0.671875l-5.875 0l0 0.671875l-0.984375 0q0.046875 -0.984375 0.046875 -2.75q0 -1.828125 -0.046875 -2.765625l7.859375 0zm-9.53125 0.3125q-0.109375 -0.46875 -0.578125 -0.984375q1.3125 -0.109375 2.84375 -0.421875q1.53125 -0.3125 2.46875 -0.828125q-1.1875 -0.984375 -1.96875 -1.765625q-0.625 0.625 -1.46875 1.34375q-0.46875 -0.40625 -0.828125 -0.5625q2.03125 -1.5625 3.171875 -3.90625q0.53125 0.3125 1.09375 0.515625l-0.40625 0.421875q-0.15625 0.15625 -0.53125 0.625l5.78125 0q-0.46875 0.875 -1.234375 1.734375q-0.75 0.859375 -1.78125 1.640625q0.828125 0.421875 2.40625 0.6875q1.59375 0.25 2.796875 0.140625q-0.3125 0.53125 -0.46875 1.09375q-1.875 -0.203125 -3.125 -0.4375q-1.25 -0.234375 -2.546875 -0.90625q-1.453125 0.671875 -3.046875 1.046875q-1.59375 0.359375 -2.578125 0.5625zm3.28125 -4.6875q1.09375 1.046875 2.4375 1.984375q1.09375 -0.671875 2.296875 -2.140625l-4.578125 0l-0.15625 0.15625zm5.25 6.40625l0 -1.25l-2.5 0l0 1.25l2.5 0zm-3.421875 0l0 -1.25l-2.453125 0l0 1.25l2.453125 0zm3.421875 1.984375l0 -1.203125l-2.5 0l0 1.203125l2.5 0zm-3.421875 0l0 -1.203125l-2.453125 0l0 1.203125l2.453125 0zm12.703125 -2.8125q0 -0.890625 -0.0625 -2.09375l6.046875 0q-0.0625 0.890625 -0.0625 1.78125l0 3.75q0 0.46875 -0.34375 0.59375q-0.328125 0.125 -1.15625 0.28125q-0.109375 -0.46875 -0.421875 -0.9375q0.9375 0 0.9375 -0.3125l0 -1.03125l-3.953125 0l0 2.1875l-1.046875 0q0.0625 -1.046875 0.0625 -2.03125l0 -2.1875zm-1.09375 -3.546875q0.828125 0.046875 3.53125 0.046875l0 -0.984375q-1.96875 0 -2.8125 0.0625l0 -0.78125q0.84375 0.046875 2.8125 0.046875l0 -0.78125q-2.234375 0 -3.125 0.046875l0 -0.828125q0.9375 0.046875 3.125 0.046875q0 -0.5625 -0.046875 -1.09375l1.09375 0q-0.0625 0.578125 -0.0625 1.09375q2.453125 0 3.28125 -0.046875l0 0.828125q-0.828125 -0.046875 -3.28125 -0.046875l0 0.78125q2.296875 0 2.96875 -0.046875l0 0.78125q-0.78125 -0.0625 -2.96875 -0.0625l0 0.984375q2.96875 0 3.75 -0.046875l0 0.828125q-0.671875 -0.046875 -4.0625 -0.046875q-3.328125 0 -4.203125 0.046875l0 -0.828125zm0.515625 4.84375q-0.671875 0.515625 -1.40625 1.171875q-0.734375 0.65625 -1.203125 1.171875q-0.359375 -0.578125 -0.71875 -0.9375q0.515625 -0.359375 0.515625 -0.984375l0 -4.4375q-0.78125 0 -1.609375 0.0625l0 -0.9375q0.671875 0.046875 1.09375 0.046875l1.5 0q-0.046875 0.828125 -0.046875 1.875l0 3.390625q0.828125 -0.734375 1.296875 -1.3125q0.21875 0.53125 0.578125 0.890625zm5.515625 0l0 -0.984375l-3.953125 0l0 0.984375l3.953125 0zm0 -1.71875l0 -0.890625l-3.953125 0l0 0.890625l3.953125 0zm-7.234375 -4.375q-0.78125 -1.140625 -1.765625 -2.03125q0.359375 -0.25 0.671875 -0.5625q1.203125 1.03125 1.875 1.921875q-0.46875 0.421875 -0.78125 0.671875z" fill-rule="nonzero"/><path fill="#000000" d="m361.11438 76.05324q3.09375 -1.671875 5.03125 -3.34375l0 -2.484375l-4.984375 0l0 -0.96875l4.984375 0l0 -2.28125l0.96875 0q0.40625 0.046875 0.046875 0.296875l0 1.984375l2.640625 0q-0.609375 -0.609375 -1.625 -1.0625l0.8125 -0.875q0.90625 0.359375 1.78125 1.171875l-0.8125 0.765625l2.125 0l0 0.96875l-4.921875 0l0 0.40625q0.203125 0.859375 1.0625 2.171875q1.125 -0.8125 2.078125 -1.96875l0.96875 0.859375q0.046875 0.25 -0.25 0.15625q-0.71875 0.703125 -2.140625 1.71875q1.125 1.46875 3.609375 2.59375l-0.65625 1.265625q-3.09375 -1.515625 -4.671875 -4.671875l0 4.828125q0 0.8125 -0.8125 0.8125l-1.265625 0l-0.203125 -1.125l1.0625 0q0.203125 0 0.203125 -0.203125l0 -2.984375q-1.328125 1.21875 -4.015625 2.9375q0.109375 0.3125 -0.15625 0.25l-0.859375 -1.21875zm2.796875 -2.4375q-0.8125 -1.015625 -1.671875 -1.671875l0.859375 -0.859375q0.90625 0.5 1.78125 1.515625l-0.96875 1.015625z" fill-rule="nonzero"/><path fill="#000000" d="m338.6193 96.03761l0 -12.203125l2.578125 0l0 0.96875l-1.40625 0l0 10.25l1.40625 0l0 0.984375l-2.578125 0zm3.3592224 -5.171875l1.171875 -0.15625q0.203125 1.0 0.6875 1.4375q0.484375 0.4375 1.171875 0.4375q0.828125 0 1.390625 -0.578125q0.578125 -0.578125 0.578125 -1.421875q0 -0.796875 -0.53125 -1.3125q-0.515625 -0.53125 -1.328125 -0.53125q-0.34375 0 -0.828125 0.125l0.125 -1.03125q0.125 0.015625 0.1875 0.015625q0.75 0 1.34375 -0.390625q0.609375 -0.390625 0.609375 -1.203125q0 -0.640625 -0.4375 -1.0625q-0.4375 -0.421875 -1.125 -0.421875q-0.6875 0 -1.140625 0.4375q-0.453125 0.421875 -0.59375 1.28125l-1.171875 -0.21875q0.21875 -1.171875 0.984375 -1.8125q0.765625 -0.65625 1.890625 -0.65625q0.78125 0 1.4375 0.34375q0.65625 0.328125 1.0 0.90625q0.359375 0.578125 0.359375 1.234375q0 0.609375 -0.34375 1.125q-0.328125 0.5 -0.96875 0.796875q0.84375 0.203125 1.3125 0.828125q0.46875 0.609375 0.46875 1.53125q0 1.25 -0.921875 2.125q-0.90625 0.859375 -2.296875 0.859375q-1.25 0 -2.09375 -0.75q-0.828125 -0.75 -0.9375 -1.9375zm8.037476 2.515625l0 -1.328125l1.328125 0l0 1.328125q0 0.734375 -0.265625 1.1875q-0.25 0.453125 -0.8125 0.703125l-0.328125 -0.5q0.375 -0.171875 0.546875 -0.484375q0.171875 -0.3125 0.1875 -0.90625l-0.65625 0zm5.359253 2.65625l-2.59375 0l0 -0.984375l1.421875 0l0 -10.25l-1.421875 0l0 -0.96875l2.59375 0l0 12.203125z" fill-rule="nonzero"/><path fill="#000000" fill-opacity="0.0" d="m205.86089 61.998688l-9.51181 82.04724" fill-rule="evenodd"/><path stroke="#000000" stroke-width="1.0" stroke-linejoin="round" stroke-linecap="butt" d="m205.86089 61.998688l-8.820831 76.08716" fill-rule="evenodd"/><path fill="#000000" stroke="#000000" stroke-width="1.0" stroke-linecap="butt" d="m195.39929 137.89563l1.1181488 4.69812l2.1633453 -4.317688z" fill-rule="evenodd"/><path fill="#000000" fill-opacity="0.0" d="m205.86089 61.998688l37.669296 123.68504" fill-rule="evenodd"/><path stroke="#000000" stroke-width="1.0" stroke-linejoin="round" stroke-linecap="butt" d="m205.86089 61.998688l35.92122 117.94533" fill-rule="evenodd"/><path fill="#000000" stroke="#000000" stroke-width="1.0" stroke-linecap="butt" d="m240.20203 180.42525l2.902237 3.8600006l0.2579193 -4.8224487z" fill-rule="evenodd"/><path fill="#000000" fill-opacity="0.0" d="m205.86089 61.998688l277.51184 165.03937" fill-rule="evenodd"/><path stroke="#000000" stroke-width="1.0" stroke-linejoin="round" stroke-linecap="butt" d="m205.86089 61.998688l272.35486 161.97249" fill-rule="evenodd"/><path fill="#000000" stroke="#000000" stroke-width="1.0" stroke-linecap="butt" d="m477.37146 225.39081l4.744751 0.8999939l-3.0561829 -3.7392883z" fill-rule="evenodd"/><path fill="#000000" fill-opacity="0.0" d="m346.97375 107.2979l-32.125977 33.417328" fill-rule="evenodd"/><path stroke="#000000" stroke-width="1.0" stroke-linejoin="round" stroke-linecap="butt" d="m346.97375 107.2979l-27.967743 29.091934" fill-rule="evenodd"/><path fill="#000000" stroke="#000000" stroke-width="1.0" stroke-linecap="butt" d="m317.81528 135.24512l-1.9543457 4.4162292l4.3358154 -2.1268005z" fill-rule="evenodd"/><path fill="#000000" fill-opacity="0.0" d="m346.97375 107.2979l18.614166 77.76378" fill-rule="evenodd"/><path stroke="#000000" stroke-width="1.0" stroke-linejoin="round" stroke-linecap="butt" d="m346.97375 107.2979l17.217438 71.92862" fill-rule="evenodd"/><path fill="#000000" stroke="#000000" stroke-width="1.0" stroke-linecap="butt" d="m362.5848 179.61102l2.6628113 4.0289154l0.54989624 -4.797928z" fill-rule="evenodd"/><path fill="#000000" fill-opacity="0.0" d="m346.97375 107.2979l72.031494 118.456696" fill-rule="evenodd"/><path stroke="#000000" stroke-width="1.0" stroke-linejoin="round" stroke-linecap="butt" d="m346.97375 107.2979l68.91412 113.330124" fill-rule="evenodd"/><path fill="#000000" stroke="#000000" stroke-width="1.0" stroke-linecap="butt" d="m414.47656 221.48619l3.7691345 3.0193024l-0.9465332 -4.735672z" fill-rule="evenodd"/><path fill="#000000" fill-opacity="0.0" d="m402.8084 16.396326l136.0 0l0 51.716537l-136.0 0z" fill-rule="evenodd"/><path fill="#000000" d="m452.3084 30.227575l0.8125 -2.140625l1.0625 0.25q0.203125 0.203125 -0.15625 0.265625l-0.703125 1.625l2.984375 0l0 0.953125l-2.890625 0l0 1.5312481l2.28125 0l0 0.96875l-2.28125 0l0 1.46875l2.28125 0l0 0.96875l-2.28125 0l0 1.625l3.25 0l0 0.96875l-6.1875 0l0 0.40625l-1.015625 0l0 -7.124998q-0.46875 0.7187481 -1.421875 1.7343731l-0.71875 -0.921875q2.28125 -2.234373 3.0 -4.968748l1.109375 0.296875q0.265625 0.203125 -0.09375 0.265625q-0.25 0.8125 -0.8125 1.828125l1.78125 0zm-7.109375 7.312498q1.15625 -1.375 2.171875 -3.203125l0.8125 0.8125q-0.859375 1.671875 -1.921875 3.15625q0 0.40625 -0.203125 0.296875l-0.859375 -1.0625zm7.203125 -4.828125l0 -1.5312481l-1.921875 0l0 1.5312481l1.921875 0zm0 0.96875l-1.921875 0l0 1.46875l1.921875 0l0 -1.46875zm0 2.4375l-1.921875 0l0 1.625l1.921875 0l0 -1.625zm-5.9375 -7.312498q1.171875 0.609375 1.78125 1.359375l-0.765625 0.921875q-0.71875 -0.765625 -1.734375 -1.421875l0.71875 -0.859375z" fill-rule="nonzero"/><path fill="#000000" d="m468.1053 33.977573q-0.0625 0.9375 -0.0625 2.765625q0 1.765625 0.0625 2.75l-1.0 0l0 -0.671875l-5.875 0l0 0.671875l-0.984375 0q0.046875 -0.984375 0.046875 -2.75q0 -1.828125 -0.046875 -2.765625l7.859375 0zm-9.53125 0.3125q-0.109375 -0.46875 -0.578125 -0.984375q1.3125 -0.109375 2.84375 -0.421875q1.53125 -0.3125 2.46875 -0.828125q-1.1875 -0.9843731 -1.96875 -1.7656231q-0.625 0.625 -1.46875 1.34375q-0.46875 -0.40625 -0.828125 -0.5625q2.03125 -1.5625 3.171875 -3.90625q0.53125 0.3125 1.09375 0.515625l-0.40625 0.421875q-0.15625 0.15625 -0.53125 0.625l5.78125 0q-0.46875 0.875 -1.234375 1.734375q-0.75 0.859375 -1.78125 1.6406231q0.828125 0.421875 2.40625 0.6875q1.59375 0.25 2.796875 0.140625q-0.3125 0.53125 -0.46875 1.09375q-1.875 -0.203125 -3.125 -0.4375q-1.25 -0.234375 -2.546875 -0.90625q-1.453125 0.671875 -3.046875 1.046875q-1.59375 0.359375 -2.578125 0.5625zm3.28125 -4.687498q1.09375 1.046875 2.4375 1.984375q1.09375 -0.671875 2.296875 -2.140625l-4.578125 0l-0.15625 0.15625zm5.25 6.406248l0 -1.25l-2.5 0l0 1.25l2.5 0zm-3.421875 0l0 -1.25l-2.453125 0l0 1.25l2.453125 0zm3.421875 1.984375l0 -1.203125l-2.5 0l0 1.203125l2.5 0zm-3.421875 0l0 -1.203125l-2.453125 0l0 1.203125l2.453125 0z" fill-rule="nonzero"/><path fill="#000000" d="m474.1053 30.165075l-1.265625 0l0 4.874998l1.265625 0l0 -4.874998zm-1.265625 5.843748l0 1.015625l-1.015625 0l0 -7.812498l3.296875 0l0 7.515623l-1.015625 0l0 -0.71875l-1.265625 0zm4.015625 -5.484373l0 8.484373l-1.015625 0l0 -9.453123l1.375 0l0.75 -1.921875l1.125 0.453125q0.203125 0.203125 -0.15625 0.25l-0.765625 1.21875l4.421875 0l0 8.687498q0 0.8125 -0.8125 0.8125l-1.46875 0l-0.109375 -1.109375l1.171875 0q0.203125 0 0.203125 -0.203125l0 -7.218748l-4.71875 0zm1.71875 2.390623l0 2.28125l1.21875 0l0 -2.28125l-1.21875 0zm2.140625 3.140625l-2.140625 0l0 0.71875l-0.90625 0l0 -4.71875l3.046875 0l0 4.0z" fill-rule="nonzero"/><path fill="#000000" d="m491.15216 27.21195q0.359375 0.9375 0.671875 1.828125l1.875 0q1.09375 0 2.296875 -0.0625l0 0.9375q-1.203125 -0.046875 -2.296875 -0.046875l-6.8125 0q0 3.062498 -0.109375 4.374998q-0.109375 1.296875 -0.390625 2.65625q-0.28125 1.34375 -1.015625 2.59375q-0.359375 -0.46875 -0.9375 -0.78125q0.671875 -0.875 1.03125 -2.46875q0.375 -1.59375 0.421875 -3.40625q0.0625 -1.8281231 0 -3.796873l4.6875 0q-0.15625 -0.734375 -0.515625 -1.46875q0.515625 -0.09375 1.09375 -0.359375zm4.375 4.46875q-0.53125 1.1562481 -0.921875 2.249998q-0.390625 1.09375 -1.53125 3.796875l1.453125 0q0.734375 0 1.625 -0.046875l0 1.09375q-0.890625 -0.0625 -1.625 -0.0625l-5.5625 0q-0.890625 0 -2.140625 0.0625l0 -1.09375q1.203125 0.046875 2.140625 0.046875l3.0625 0q0.78125 -1.609375 1.375 -3.375q0.609375 -1.78125 0.875 -3.124998q0.671875 0.359375 1.25 0.453125zm-7.34375 0.5781231q1.359375 2.140625 2.03125 3.75q-0.359375 0.203125 -0.890625 0.515625q-1.03125 -2.34375 -1.96875 -3.6875q0.46875 -0.375 0.828125 -0.578125zm2.5 -1.1874981q1.03125 1.8124981 1.8125 3.578123q-0.46875 0.265625 -0.984375 0.53125q-0.625 -1.78125 -1.65625 -3.656248q0.40625 -0.140625 0.828125 -0.453125z" fill-rule="nonzero"/><path fill="#000000" d="m442.01166 56.852573l0 -12.203125l2.578125 0l0 0.96875l-1.40625 0l0 10.25l1.40625 0l0 0.984375l-2.578125 0z" fill-rule="nonzero"/><path fill="#000000" d="m448.3084 46.883823q-0.703125 -1.21875 -1.3125 -1.875l0.859375 -0.671875q0.8125 0.765625 1.46875 1.9375l-1.015625 0.609375zm4.125 6.390625l0 -0.34375l-2.546875 0l0 0.65625l-1.015625 0l0 -4.21875l4.578125 0l0 3.90625l-1.015625 0zm-2.546875 -1.3125l2.546875 0l0 -1.625l-2.546875 0l0 1.625zm1.9375 -8.078125q0.5 0.109375 0.046875 0.40625l0 2.953125l4.21875 0l0 7.15625q0 0.65625 -0.671875 0.65625l-1.421875 0l-0.140625 -0.96875l1.015625 0q0.203125 0 0.203125 -0.203125l0 -5.6875l-7.578125 0l0 6.921875l-1.015625 0l0 -7.875l4.21875 0l0 -3.359375l1.125 0zm3.390625 0.8125q0.15625 0.15625 -0.140625 0.203125q-0.46875 0.96875 -1.078125 2.03125l-0.90625 -0.453125q0.765625 -1.375 1.109375 -2.28125l1.015625 0.5zm13.515625 7.359375l1.109375 0.3125l-0.25 1.0625q-0.296875 1.28125 -1.375 1.28125l-2.9375 0q-0.96875 0 -0.96875 -0.96875l0 -3.453125q-0.96875 3.5 -5.28125 4.671875l-0.40625 -1.21875q4.671875 -1.015625 4.78125 -4.984375l-4.671875 0l0 -0.96875l4.671875 0l0 -2.28125l-3.65625 0l0 -0.96875l9.078125 0l0 0.96875l-4.40625 0l0 2.28125l5.375 0l0 0.96875l-5.375 0q0 0.65625 -0.109375 1.328125l0.96875 0q0.5 0.09375 0.046875 0.40625l0 2.890625q0 0.359375 0.453125 0.359375l1.890625 0q0.609375 0 0.8125 -0.71875l0.25 -0.96875zm8.734375 0.40625q0.359375 0.609375 1.421875 1.21875l0 -3.453125l-3.203125 0l0 -0.953125l7.359375 0l0 0.953125l-3.140625 0l0 1.125l2.390625 0l0 0.96875l-2.390625 0l0 1.71875q0.453125 0.109375 1.171875 0.109375l2.078125 0l-0.15625 0.96875l-2.03125 0q-2.484375 0 -3.859375 -1.6875q-0.90625 1.421875 -1.78125 1.890625l-0.65625 -0.8125q1.875 -1.4375 2.140625 -3.71875l1.0625 0.25q0.359375 0.203125 -0.109375 0.3125l-0.296875 1.109375zm-3.359375 -2.9375l1.015625 -0.359375l0.203125 0.859375l-1.21875 0.515625l0 3.859375q0 0.8125 -0.8125 0.8125l-1.015625 0l-0.140625 -0.96875l0.75 0q0.203125 0 0.203125 -0.203125l0 -3.140625l-1.15625 0.453125q-0.109375 0.359375 -0.203125 0.15625l-0.3125 -1.171875l1.671875 -0.515625l0 -2.984375l-1.421875 0l0 -0.96875l1.421875 0l0 -2.1875l0.96875 0q0.40625 0.046875 0.046875 0.3125l0 1.875l1.484375 0l0 0.96875l-1.484375 0l0 2.6875zm2.34375 -5.390625l5.640625 0l0 4.265625l-5.640625 0l0 -4.265625zm0.859375 0.8125l0 0.921875l3.90625 0l0 -0.921875l-3.90625 0zm0 1.734375l0 0.90625l3.90625 0l0 -0.90625l-3.90625 0zm11.9375 0.90625q-0.15625 0.3125 -0.453125 0.5625q1.015625 0.109375 2.4375 0.359375q0.546875 -0.453125 0.75 -0.921875l-2.734375 0zm1.171875 1.484375q-0.96875 -0.265625 -2.140625 -0.359375q-0.09375 0.15625 -0.40625 0.40625l-0.765625 -0.359375q0.921875 -0.90625 1.125 -1.171875l-1.78125 0l0 -0.8125l2.34375 0q0.203125 -0.203125 0.5 -0.703125l0.859375 0.09375q0.15625 0.109375 -0.09375 0.203125q-0.109375 0.203125 -0.3125 0.40625l4.53125 0l0 0.8125l-1.328125 0q-0.25 0.609375 -0.8125 1.125q1.53125 0.359375 3.15625 0.90625l-0.5625 0.765625q-2.140625 -0.859375 -3.296875 -1.109375q-1.328125 1.109375 -5.234375 1.265625l-0.40625 -0.921875q2.84375 0.15625 4.625 -0.546875zm0.453125 1.828125l5.03125 0l0 0.8125l-4.78125 0q2.234375 1.5625 5.078125 1.921875l-0.359375 1.171875q-3.09375 -0.765625 -4.96875 -2.28125l0 2.84375l-1.015625 0l0 -2.84375q-1.625 1.46875 -4.828125 2.53125l-0.359375 -1.109375q2.90625 -0.609375 4.875 -2.234375l-4.671875 0l0 -0.8125l4.984375 0l0 -0.71875l0.96875 0q0.40625 0.046875 0.046875 0.3125l0 0.40625zm0 -5.953125l4.921875 0l0 2.1875l-1.015625 0l0 -1.375l-8.828125 0l0 1.375l-1.015625 0l0 -2.1875l4.921875 0l0 -1.109375l0.96875 0q0.40625 0.046875 0.046875 0.296875l0 0.8125z" fill-rule="nonzero"/><path fill="#000000" d="m499.65216 56.852573l-2.59375 0l0 -0.984375l1.421875 0l0 -10.25l-1.421875 0l0 -0.96875l2.59375 0l0 12.203125z" fill-rule="nonzero"/><path fill="#000000" fill-opacity="0.0" d="m549.5617 55.582676l136.0 0l0 51.716534l-136.0 0z" fill-rule="evenodd"/><path fill="#000000" d="m599.0617 69.413925l0.8125 -2.140625l1.0625 0.25q0.203125 0.203125 -0.15625 0.265625l-0.703125 1.625l2.984375 0l0 0.953125l-2.890625 0l0 1.53125l2.28125 0l0 0.96875l-2.28125 0l0 1.46875l2.28125 0l0 0.96875l-2.28125 0l0 1.625l3.25 0l0 0.96875l-6.1875 0l0 0.40625l-1.015625 0l0 -7.125q-0.46875 0.71875 -1.421875 1.734375l-0.71875 -0.921875q2.28125 -2.234375 3.0 -4.96875l1.109375 0.296875q0.265625 0.203125 -0.09375 0.265625q-0.25 0.8125 -0.8125 1.828125l1.78125 0zm-7.109375 7.3125q1.15625 -1.375 2.171875 -3.203125l0.8125 0.8125q-0.859375 1.671875 -1.921875 3.15625q0 0.40625 -0.203125 0.296875l-0.859375 -1.0625zm7.203125 -4.828125l0 -1.53125l-1.921875 0l0 1.53125l1.921875 0zm0 0.96875l-1.921875 0l0 1.46875l1.921875 0l0 -1.46875zm0 2.4375l-1.921875 0l0 1.625l1.921875 0l0 -1.625zm-5.9375 -7.3125q1.171875 0.609375 1.78125 1.359375l-0.765625 0.921875q-0.71875 -0.765625 -1.734375 -1.421875l0.71875 -0.859375z" fill-rule="nonzero"/><path fill="#000000" d="m614.8586 73.163925q-0.0625 0.9375 -0.0625 2.765625q0 1.765625 0.0625 2.75l-1.0 0l0 -0.671875l-5.875 0l0 0.671875l-0.984375 0q0.046875 -0.984375 0.046875 -2.75q0 -1.828125 -0.046875 -2.765625l7.859375 0zm-9.53125 0.3125q-0.109375 -0.46875 -0.578125 -0.984375q1.3125 -0.109375 2.84375 -0.421875q1.53125 -0.3125 2.46875 -0.828125q-1.1875 -0.984375 -1.96875 -1.765625q-0.625 0.625 -1.46875 1.34375q-0.46875 -0.40625 -0.828125 -0.5625q2.03125 -1.5625 3.171875 -3.90625q0.53125 0.3125 1.09375 0.515625l-0.40625 0.421875q-0.15625 0.15625 -0.53125 0.625l5.78125 0q-0.46875 0.875 -1.234375 1.734375q-0.75 0.859375 -1.78125 1.640625q0.828125 0.421875 2.40625 0.6875q1.59375 0.25 2.796875 0.140625q-0.3125 0.53125 -0.46875 1.09375q-1.875 -0.203125 -3.125 -0.4375q-1.25 -0.234375 -2.546875 -0.90625q-1.453125 0.671875 -3.046875 1.046875q-1.59375 0.359375 -2.578125 0.5625zm3.28125 -4.6875q1.09375 1.046875 2.4375 1.984375q1.09375 -0.671875 2.296875 -2.140625l-4.578125 0l-0.15625 0.15625zm5.25 6.40625l0 -1.25l-2.5 0l0 1.25l2.5 0zm-3.421875 0l0 -1.25l-2.453125 0l0 1.25l2.453125 0zm3.421875 1.984375l0 -1.203125l-2.5 0l0 1.203125l2.5 0zm-3.421875 0l0 -1.203125l-2.453125 0l0 1.203125l2.453125 0z" fill-rule="nonzero"/><path fill="#000000" d="m620.8586 69.351425l-1.265625 0l0 4.875l1.265625 0l0 -4.875zm-1.265625 5.84375l0 1.015625l-1.015625 0l0 -7.8125l3.296875 0l0 7.515625l-1.015625 0l0 -0.71875l-1.265625 0zm4.015625 -5.484375l0 8.484375l-1.015625 0l0 -9.453125l1.375 0l0.75 -1.921875l1.125 0.453125q0.203125 0.203125 -0.15625 0.25l-0.765625 1.21875l4.421875 0l0 8.6875q0 0.8125 -0.8125 0.8125l-1.46875 0l-0.109375 -1.109375l1.171875 0q0.203125 0 0.203125 -0.203125l0 -7.21875l-4.71875 0zm1.71875 2.390625l0 2.28125l1.21875 0l0 -2.28125l-1.21875 0zm2.140625 3.140625l-2.140625 0l0 0.71875l-0.90625 0l0 -4.71875l3.046875 0l0 4.0z" fill-rule="nonzero"/><path fill="#000000" d="m637.90546 66.3983q0.359375 0.9375 0.671875 1.828125l1.875 0q1.09375 0 2.296875 -0.0625l0 0.9375q-1.203125 -0.046875 -2.296875 -0.046875l-6.8125 0q0 3.0625 -0.109375 4.375q-0.109375 1.296875 -0.390625 2.65625q-0.28125 1.34375 -1.015625 2.59375q-0.359375 -0.46875 -0.9375 -0.78125q0.671875 -0.875 1.03125 -2.46875q0.375 -1.59375 0.421875 -3.40625q0.0625 -1.828125 0 -3.796875l4.6875 0q-0.15625 -0.734375 -0.515625 -1.46875q0.515625 -0.09375 1.09375 -0.359375zm4.375 4.46875q-0.53125 1.15625 -0.921875 2.25q-0.390625 1.09375 -1.53125 3.796875l1.453125 0q0.734375 0 1.625 -0.046875l0 1.09375q-0.890625 -0.0625 -1.625 -0.0625l-5.5625 0q-0.890625 0 -2.140625 0.0625l0 -1.09375q1.203125 0.046875 2.140625 0.046875l3.0625 0q0.78125 -1.609375 1.375 -3.375q0.609375 -1.78125 0.875 -3.125q0.671875 0.359375 1.25 0.453125zm-7.34375 0.578125q1.359375 2.140625 2.03125 3.75q-0.359375 0.203125 -0.890625 0.515625q-1.03125 -2.34375 -1.96875 -3.6875q0.46875 -0.375 0.828125 -0.578125zm2.5 -1.1875q1.03125 1.8125 1.8125 3.578125q-0.46875 0.265625 -0.984375 0.53125q-0.625 -1.78125 -1.65625 -3.65625q0.40625 -0.140625 0.828125 -0.453125z" fill-rule="nonzero"/><path fill="#000000" d="m588.76495 96.038925l0 -12.203125l2.578125 0l0 0.96875l-1.40625 0l0 10.25l1.40625 0l0 0.984375l-2.578125 0z" fill-rule="nonzero"/><path fill="#000000" d="m595.0617 86.070175q-0.703125 -1.21875 -1.3125 -1.875l0.859375 -0.671875q0.8125 0.765625 1.46875 1.9375l-1.015625 0.609375zm4.125 6.390625l0 -0.34375l-2.546875 0l0 0.65625l-1.015625 0l0 -4.21875l4.578125 0l0 3.90625l-1.015625 0zm-2.546875 -1.3125l2.546875 0l0 -1.625l-2.546875 0l0 1.625zm1.9375 -8.078125q0.5 0.109375 0.046875 0.40625l0 2.953125l4.21875 0l0 7.15625q0 0.65625 -0.671875 0.65625l-1.421875 0l-0.140625 -0.96875l1.015625 0q0.203125 0 0.203125 -0.203125l0 -5.6875l-7.578125 0l0 6.921875l-1.015625 0l0 -7.875l4.21875 0l0 -3.359375l1.125 0zm3.390625 0.8125q0.15625 0.15625 -0.140625 0.203125q-0.46875 0.96875 -1.078125 2.03125l-0.90625 -0.453125q0.765625 -1.375 1.109375 -2.28125l1.015625 0.5zm13.515625 7.359375l1.109375 0.3125l-0.25 1.0625q-0.296875 1.28125 -1.375 1.28125l-2.9375 0q-0.96875 0 -0.96875 -0.96875l0 -3.453125q-0.96875 3.5 -5.28125 4.671875l-0.40625 -1.21875q4.671875 -1.015625 4.78125 -4.984375l-4.671875 0l0 -0.96875l4.671875 0l0 -2.28125l-3.65625 0l0 -0.96875l9.078125 0l0 0.96875l-4.40625 0l0 2.28125l5.375 0l0 0.96875l-5.375 0q0 0.65625 -0.109375 1.328125l0.96875 0q0.5 0.09375 0.046875 0.40625l0 2.890625q0 0.359375 0.453125 0.359375l1.890625 0q0.609375 0 0.8125 -0.71875l0.25 -0.96875zm8.734375 0.40625q0.359375 0.609375 1.421875 1.21875l0 -3.453125l-3.203125 0l0 -0.953125l7.359375 0l0 0.953125l-3.140625 0l0 1.125l2.390625 0l0 0.96875l-2.390625 0l0 1.71875q0.453125 0.109375 1.171875 0.109375l2.078125 0l-0.15625 0.96875l-2.03125 0q-2.484375 0 -3.859375 -1.6875q-0.90625 1.421875 -1.78125 1.890625l-0.65625 -0.8125q1.875 -1.4375 2.140625 -3.71875l1.0625 0.25q0.359375 0.203125 -0.109375 0.3125l-0.296875 1.109375zm-3.359375 -2.9375l1.015625 -0.359375l0.203125 0.859375l-1.21875 0.515625l0 3.859375q0 0.8125 -0.8125 0.8125l-1.015625 0l-0.140625 -0.96875l0.75 0q0.203125 0 0.203125 -0.203125l0 -3.140625l-1.15625 0.453125q-0.109375 0.359375 -0.203125 0.15625l-0.3125 -1.171875l1.671875 -0.515625l0 -2.984375l-1.421875 0l0 -0.96875l1.421875 0l0 -2.1875l0.96875 0q0.40625 0.046875 0.046875 0.3125l0 1.875l1.484375 0l0 0.96875l-1.484375 0l0 2.6875zm2.34375 -5.390625l5.640625 0l0 4.265625l-5.640625 0l0 -4.265625zm0.859375 0.8125l0 0.921875l3.90625 0l0 -0.921875l-3.90625 0zm0 1.734375l0 0.90625l3.90625 0l0 -0.90625l-3.90625 0zm11.9375 0.90625q-0.15625 0.3125 -0.453125 0.5625q1.015625 0.109375 2.4375 0.359375q0.546875 -0.453125 0.75 -0.921875l-2.734375 0zm1.171875 1.484375q-0.96875 -0.265625 -2.140625 -0.359375q-0.09375 0.15625 -0.40625 0.40625l-0.765625 -0.359375q0.921875 -0.90625 1.125 -1.171875l-1.78125 0l0 -0.8125l2.34375 0q0.203125 -0.203125 0.5 -0.703125l0.859375 0.09375q0.15625 0.109375 -0.09375 0.203125q-0.109375 0.203125 -0.3125 0.40625l4.53125 0l0 0.8125l-1.328125 0q-0.25 0.609375 -0.8125 1.125q1.53125 0.359375 3.15625 0.90625l-0.5625 0.765625q-2.140625 -0.859375 -3.296875 -1.109375q-1.328125 1.109375 -5.234375 1.265625l-0.40625 -0.921875q2.84375 0.15625 4.625 -0.546875zm0.453125 1.828125l5.03125 0l0 0.8125l-4.78125 0q2.234375 1.5625 5.078125 1.921875l-0.359375 1.171875q-3.09375 -0.765625 -4.96875 -2.28125l0 2.84375l-1.015625 0l0 -2.84375q-1.625 1.46875 -4.828125 2.53125l-0.359375 -1.109375q2.90625 -0.609375 4.875 -2.234375l-4.671875 0l0 -0.8125l4.984375 0l0 -0.71875l0.96875 0q0.40625 0.046875 0.046875 0.3125l0 0.40625zm0 -5.953125l4.921875 0l0 2.1875l-1.015625 0l0 -1.375l-8.828125 0l0 1.375l-1.015625 0l0 -2.1875l4.921875 0l0 -1.109375l0.96875 0q0.40625 0.046875 0.046875 0.296875l0 0.8125z" fill-rule="nonzero"/><path fill="#000000" d="m646.40546 96.038925l-2.59375 0l0 -0.984375l1.421875 0l0 -10.25l-1.421875 0l0 -0.96875l2.59375 0l0 12.203125z" fill-rule="nonzero"/><path fill="#000000" fill-opacity="0.0" d="m199.82677 143.29396l272.44098 -75.1811" fill-rule="evenodd"/><path stroke="#000000" stroke-width="1.0" stroke-linejoin="round" stroke-linecap="butt" d="m199.82677 143.29396l266.6571 -73.58503" fill-rule="evenodd"/><path fill="#000000" stroke="#000000" stroke-width="1.0" stroke-linecap="butt" d="m466.92328 71.30115l3.9352112 -2.799408l-4.813965 -0.38503265z" fill-rule="evenodd"/><path fill="#000000" fill-opacity="0.0" d="m488.0866 16.396326l136.0 0l0 51.716537l-136.0 0z" fill-rule="evenodd"/><path fill="#000000" d="m537.5866 30.227575l0.8125 -2.140625l1.0625 0.25q0.203125 0.203125 -0.15625 0.265625l-0.703125 1.625l2.984375 0l0 0.953125l-2.890625 0l0 1.5312481l2.28125 0l0 0.96875l-2.28125 0l0 1.46875l2.28125 0l0 0.96875l-2.28125 0l0 1.625l3.25 0l0 0.96875l-6.1875 0l0 0.40625l-1.015625 0l0 -7.124998q-0.46875 0.7187481 -1.421875 1.7343731l-0.71875 -0.921875q2.28125 -2.234373 3.0 -4.968748l1.109375 0.296875q0.265625 0.203125 -0.09375 0.265625q-0.25 0.8125 -0.8125 1.828125l1.78125 0zm-7.109375 7.312498q1.15625 -1.375 2.171875 -3.203125l0.8125 0.8125q-0.859375 1.671875 -1.921875 3.15625q0 0.40625 -0.203125 0.296875l-0.859375 -1.0625zm7.203125 -4.828125l0 -1.5312481l-1.921875 0l0 1.5312481l1.921875 0zm0 0.96875l-1.921875 0l0 1.46875l1.921875 0l0 -1.46875zm0 2.4375l-1.921875 0l0 1.625l1.921875 0l0 -1.625zm-5.9375 -7.312498q1.171875 0.609375 1.78125 1.359375l-0.765625 0.921875q-0.71875 -0.765625 -1.734375 -1.421875l0.71875 -0.859375z" fill-rule="nonzero"/><path fill="#000000" d="m553.3835 33.977573q-0.0625 0.9375 -0.0625 2.765625q0 1.765625 0.0625 2.75l-1.0 0l0 -0.671875l-5.875 0l0 0.671875l-0.984375 0q0.046875 -0.984375 0.046875 -2.75q0 -1.828125 -0.046875 -2.765625l7.859375 0zm-9.53125 0.3125q-0.109375 -0.46875 -0.578125 -0.984375q1.3125 -0.109375 2.84375 -0.421875q1.53125 -0.3125 2.46875 -0.828125q-1.1875 -0.9843731 -1.96875 -1.7656231q-0.625 0.625 -1.46875 1.34375q-0.46875 -0.40625 -0.828125 -0.5625q2.03125 -1.5625 3.171875 -3.90625q0.53125 0.3125 1.09375 0.515625l-0.40625 0.421875q-0.15625 0.15625 -0.53125 0.625l5.78125 0q-0.46875 0.875 -1.234375 1.734375q-0.75 0.859375 -1.78125 1.6406231q0.828125 0.421875 2.40625 0.6875q1.59375 0.25 2.796875 0.140625q-0.3125 0.53125 -0.46875 1.09375q-1.875 -0.203125 -3.125 -0.4375q-1.25 -0.234375 -2.546875 -0.90625q-1.453125 0.671875 -3.046875 1.046875q-1.59375 0.359375 -2.578125 0.5625zm3.28125 -4.687498q1.09375 1.046875 2.4375 1.984375q1.09375 -0.671875 2.296875 -2.140625l-4.578125 0l-0.15625 0.15625zm5.25 6.406248l0 -1.25l-2.5 0l0 1.25l2.5 0zm-3.421875 0l0 -1.25l-2.453125 0l0 1.25l2.453125 0zm3.421875 1.984375l0 -1.203125l-2.5 0l0 1.203125l2.5 0zm-3.421875 0l0 -1.203125l-2.453125 0l0 1.203125l2.453125 0z" fill-rule="nonzero"/><path fill="#000000" d="m559.3835 30.165075l-1.265625 0l0 4.874998l1.265625 0l0 -4.874998zm-1.265625 5.843748l0 1.015625l-1.015625 0l0 -7.812498l3.296875 0l0 7.515623l-1.015625 0l0 -0.71875l-1.265625 0zm4.015625 -5.484373l0 8.484373l-1.015625 0l0 -9.453123l1.375 0l0.75 -1.921875l1.125 0.453125q0.203125 0.203125 -0.15625 0.25l-0.765625 1.21875l4.421875 0l0 8.687498q0 0.8125 -0.8125 0.8125l-1.46875 0l-0.109375 -1.109375l1.171875 0q0.203125 0 0.203125 -0.203125l0 -7.218748l-4.71875 0zm1.71875 2.390623l0 2.28125l1.21875 0l0 -2.28125l-1.21875 0zm2.140625 3.140625l-2.140625 0l0 0.71875l-0.90625 0l0 -4.71875l3.046875 0l0 4.0z" fill-rule="nonzero"/><path fill="#000000" d="m576.43036 27.21195q0.359375 0.9375 0.671875 1.828125l1.875 0q1.09375 0 2.296875 -0.0625l0 0.9375q-1.203125 -0.046875 -2.296875 -0.046875l-6.8125 0q0 3.062498 -0.109375 4.374998q-0.109375 1.296875 -0.390625 2.65625q-0.28125 1.34375 -1.015625 2.59375q-0.359375 -0.46875 -0.9375 -0.78125q0.671875 -0.875 1.03125 -2.46875q0.375 -1.59375 0.421875 -3.40625q0.0625 -1.8281231 0 -3.796873l4.6875 0q-0.15625 -0.734375 -0.515625 -1.46875q0.515625 -0.09375 1.09375 -0.359375zm4.375 4.46875q-0.53125 1.1562481 -0.921875 2.249998q-0.390625 1.09375 -1.53125 3.796875l1.453125 0q0.734375 0 1.625 -0.046875l0 1.09375q-0.890625 -0.0625 -1.625 -0.0625l-5.5625 0q-0.890625 0 -2.140625 0.0625l0 -1.09375q1.203125 0.046875 2.140625 0.046875l3.0625 0q0.78125 -1.609375 1.375 -3.375q0.609375 -1.78125 0.875 -3.124998q0.671875 0.359375 1.25 0.453125zm-7.34375 0.5781231q1.359375 2.140625 2.03125 3.75q-0.359375 0.203125 -0.890625 0.515625q-1.03125 -2.34375 -1.96875 -3.6875q0.46875 -0.375 0.828125 -0.578125zm2.5 -1.1874981q1.03125 1.8124981 1.8125 3.578123q-0.46875 0.265625 -0.984375 0.53125q-0.625 -1.78125 -1.65625 -3.656248q0.40625 -0.140625 0.828125 -0.453125z" fill-rule="nonzero"/><path fill="#000000" d="m527.28986 56.852573l0 -12.203125l2.578125 0l0 0.96875l-1.40625 0l0 10.25l1.40625 0l0 0.984375l-2.578125 0z" fill-rule="nonzero"/><path fill="#000000" d="m533.5866 46.883823q-0.703125 -1.21875 -1.3125 -1.875l0.859375 -0.671875q0.8125 0.765625 1.46875 1.9375l-1.015625 0.609375zm4.125 6.390625l0 -0.34375l-2.546875 0l0 0.65625l-1.015625 0l0 -4.21875l4.578125 0l0 3.90625l-1.015625 0zm-2.546875 -1.3125l2.546875 0l0 -1.625l-2.546875 0l0 1.625zm1.9375 -8.078125q0.5 0.109375 0.046875 0.40625l0 2.953125l4.21875 0l0 7.15625q0 0.65625 -0.671875 0.65625l-1.421875 0l-0.140625 -0.96875l1.015625 0q0.203125 0 0.203125 -0.203125l0 -5.6875l-7.578125 0l0 6.921875l-1.015625 0l0 -7.875l4.21875 0l0 -3.359375l1.125 0zm3.390625 0.8125q0.15625 0.15625 -0.140625 0.203125q-0.46875 0.96875 -1.078125 2.03125l-0.90625 -0.453125q0.765625 -1.375 1.109375 -2.28125l1.015625 0.5zm13.515625 7.359375l1.109375 0.3125l-0.25 1.0625q-0.296875 1.28125 -1.375 1.28125l-2.9375 0q-0.96875 0 -0.96875 -0.96875l0 -3.453125q-0.96875 3.5 -5.28125 4.671875l-0.40625 -1.21875q4.671875 -1.015625 4.78125 -4.984375l-4.671875 0l0 -0.96875l4.671875 0l0 -2.28125l-3.65625 0l0 -0.96875l9.078125 0l0 0.96875l-4.40625 0l0 2.28125l5.375 0l0 0.96875l-5.375 0q0 0.65625 -0.109375 1.328125l0.96875 0q0.5 0.09375 0.046875 0.40625l0 2.890625q0 0.359375 0.453125 0.359375l1.890625 0q0.609375 0 0.8125 -0.71875l0.25 -0.96875zm8.734375 0.40625q0.359375 0.609375 1.421875 1.21875l0 -3.453125l-3.203125 0l0 -0.953125l7.359375 0l0 0.953125l-3.140625 0l0 1.125l2.390625 0l0 0.96875l-2.390625 0l0 1.71875q0.453125 0.109375 1.171875 0.109375l2.078125 0l-0.15625 0.96875l-2.03125 0q-2.484375 0 -3.859375 -1.6875q-0.90625 1.421875 -1.78125 1.890625l-0.65625 -0.8125q1.875 -1.4375 2.140625 -3.71875l1.0625 0.25q0.359375 0.203125 -0.109375 0.3125l-0.296875 1.109375zm-3.359375 -2.9375l1.015625 -0.359375l0.203125 0.859375l-1.21875 0.515625l0 3.859375q0 0.8125 -0.8125 0.8125l-1.015625 0l-0.140625 -0.96875l0.75 0q0.203125 0 0.203125 -0.203125l0 -3.140625l-1.15625 0.453125q-0.109375 0.359375 -0.203125 0.15625l-0.3125 -1.171875l1.671875 -0.515625l0 -2.984375l-1.421875 0l0 -0.96875l1.421875 0l0 -2.1875l0.96875 0q0.40625 0.046875 0.046875 0.3125l0 1.875l1.484375 0l0 0.96875l-1.484375 0l0 2.6875zm2.34375 -5.390625l5.640625 0l0 4.265625l-5.640625 0l0 -4.265625zm0.859375 0.8125l0 0.921875l3.90625 0l0 -0.921875l-3.90625 0zm0 1.734375l0 0.90625l3.90625 0l0 -0.90625l-3.90625 0zm11.9375 0.90625q-0.15625 0.3125 -0.453125 0.5625q1.015625 0.109375 2.4375 0.359375q0.546875 -0.453125 0.75 -0.921875l-2.734375 0zm1.171875 1.484375q-0.96875 -0.265625 -2.140625 -0.359375q-0.09375 0.15625 -0.40625 0.40625l-0.765625 -0.359375q0.921875 -0.90625 1.125 -1.171875l-1.78125 0l0 -0.8125l2.34375 0q0.203125 -0.203125 0.5 -0.703125l0.859375 0.09375q0.15625 0.109375 -0.09375 0.203125q-0.109375 0.203125 -0.3125 0.40625l4.53125 0l0 0.8125l-1.328125 0q-0.25 0.609375 -0.8125 1.125q1.53125 0.359375 3.15625 0.90625l-0.5625 0.765625q-2.140625 -0.859375 -3.296875 -1.109375q-1.328125 1.109375 -5.234375 1.265625l-0.40625 -0.921875q2.84375 0.15625 4.625 -0.546875zm0.453125 1.828125l5.03125 0l0 0.8125l-4.78125 0q2.234375 1.5625 5.078125 1.921875l-0.359375 1.171875q-3.09375 -0.765625 -4.96875 -2.28125l0 2.84375l-1.015625 0l0 -2.84375q-1.625 1.46875 -4.828125 2.53125l-0.359375 -1.109375q2.90625 -0.609375 4.875 -2.234375l-4.671875 0l0 -0.8125l4.984375 0l0 -0.71875l0.96875 0q0.40625 0.046875 0.046875 0.3125l0 0.40625zm0 -5.953125l4.921875 0l0 2.1875l-1.015625 0l0 -1.375l-8.828125 0l0 1.375l-1.015625 0l0 -2.1875l4.921875 0l0 -1.109375l0.96875 0q0.40625 0.046875 0.046875 0.296875l0 0.8125z" fill-rule="nonzero"/><path fill="#000000" d="m584.93036 56.852573l-2.59375 0l0 -0.984375l1.421875 0l0 -10.25l-1.421875 0l0 -0.96875l2.59375 0l0 12.203125z" fill-rule="nonzero"/><path fill="#000000" fill-opacity="0.0" d="m248.02362 185.05774l308.063 -116.94488" fill-rule="evenodd"/><path stroke="#000000" stroke-width="1.0" stroke-linejoin="round" stroke-linecap="butt" d="m248.02362 185.05774l302.45355 -114.81547" fill-rule="evenodd"/><path fill="#000000" stroke="#000000" stroke-width="1.0" stroke-linecap="butt" d="m551.0634 71.78648l3.656433 -3.1547928l-4.8288574 0.0663681z" fill-rule="evenodd"/><path fill="#000000" fill-opacity="0.0" d="m422.1286 221.66142l195.4331 -114.36221" fill-rule="evenodd"/><path stroke="#000000" stroke-width="1.0" stroke-linejoin="round" stroke-linecap="butt" d="m422.1286 221.66142l190.25458 -111.33189" fill-rule="evenodd"/><path fill="#000000" stroke="#000000" stroke-width="1.0" stroke-linecap="butt" d="m613.21735 111.755135l3.0825806 -3.7175827l-4.7509766 0.8664017z" fill-rule="evenodd"/><path fill="#000000" fill-opacity="0.0" d="m176.6273 135.77165l39.27559 0l0 35.55905l-39.27559 0z" fill-rule="evenodd"/><path fill="#000000" d="m187.91063 160.2279l0 -12.203125l2.578125 0l0 0.96875l-1.40625 0l0 10.25l1.40625 0l0 0.984375l-2.578125 0zm7.7654877 -2.65625l-1.171875 0l0 -7.46875q-0.421875 0.40625 -1.109375 0.8125q-0.6875 0.40625 -1.234375 0.609375l0 -1.140625q0.984375 -0.453125 1.71875 -1.109375q0.734375 -0.671875 1.03125 -1.28125l0.765625 0l0 9.578125zm3.6312256 0l0 -1.328125l1.328125 0l0 1.328125q0 0.734375 -0.265625 1.1875q-0.25 0.453125 -0.8125 0.703125l-0.328125 -0.5q0.375 -0.171875 0.546875 -0.484375q0.171875 -0.3125 0.1875 -0.90625l-0.65625 0zm5.3592377 2.65625l-2.59375 0l0 -0.984375l1.421875 0l0 -10.25l-1.421875 0l0 -0.96875l2.59375 0l0 12.203125z" fill-rule="nonzero"/><path fill="#000000" fill-opacity="0.0" d="m286.46982 134.05774l39.275574 0l0 35.55905l-39.275574 0z" fill-rule="evenodd"/><path fill="#000000" d="m297.75314 158.51399l0 -12.203125l2.578125 0l0 0.96875l-1.40625 0l0 10.25l1.40625 0l0 0.984375l-2.578125 0zm3.3592224 -5.171875l1.171875 -0.15625q0.203125 1.0 0.6875 1.4375q0.484375 0.4375 1.171875 0.4375q0.828125 0 1.390625 -0.578125q0.578125 -0.578125 0.578125 -1.421875q0 -0.796875 -0.53125 -1.3125q-0.515625 -0.53125 -1.328125 -0.53125q-0.34375 0 -0.828125 0.125l0.125 -1.03125q0.125 0.015625 0.1875 0.015625q0.75 0 1.34375 -0.390625q0.609375 -0.390625 0.609375 -1.203125q0 -0.640625 -0.4375 -1.0625q-0.4375 -0.421875 -1.125 -0.421875q-0.6875 0 -1.140625 0.4375q-0.453125 0.421875 -0.59375 1.28125l-1.171875 -0.21875q0.21875 -1.171875 0.984375 -1.8125q0.765625 -0.65625 1.890625 -0.65625q0.78125 0 1.4375 0.34375q0.65625 0.328125 1.0 0.90625q0.359375 0.578125 0.359375 1.234375q0 0.609375 -0.34375 1.125q-0.328125 0.5 -0.96875 0.796875q0.84375 0.203125 1.3125 0.828125q0.46875 0.609375 0.46875 1.53125q0 1.25 -0.921875 2.125q-0.90625 0.859375 -2.296875 0.859375q-1.25 0 -2.09375 -0.75q-0.828125 -0.75 -0.9375 -1.9375zm8.037476 2.515625l0 -1.328125l1.328125 0l0 1.328125q0 0.734375 -0.265625 1.1875q-0.25 0.453125 -0.8125 0.703125l-0.328125 -0.5q0.375 -0.171875 0.546875 -0.484375q0.171875 -0.3125 0.1875 -0.90625l-0.65625 0zm5.359253 2.65625l-2.59375 0l0 -0.984375l1.421875 0l0 -10.25l-1.421875 0l0 -0.96875l2.59375 0l0 12.203125z" fill-rule="nonzero"/><path fill="#000000" fill-opacity="0.0" d="m227.08923 180.68504l39.275604 0l0 35.55905l-39.275604 0z" fill-rule="evenodd"/><path fill="#000000" d="m238.37256 205.14128l0 -12.203125l2.578125 0l0 0.96875l-1.40625 0l0 10.25l1.40625 0l0 0.984375l-2.578125 0zm7.7654877 -2.65625l-1.171875 0l0 -7.46875q-0.421875 0.40625 -1.109375 0.8125q-0.6875 0.40625 -1.234375 0.609375l0 -1.140625q0.984375 -0.453125 1.71875 -1.109375q0.734375 -0.671875 1.03125 -1.28125l0.765625 0l0 9.578125zm3.6312256 0l0 -1.328125l1.328125 0l0 1.328125q0 0.734375 -0.265625 1.1875q-0.25 0.453125 -0.8125 0.703125l-0.328125 -0.5q0.375 -0.171875 0.546875 -0.484375q0.171875 -0.3125 0.1875 -0.90625l-0.65625 0zm5.3592377 2.65625l-2.59375 0l0 -0.984375l1.421875 0l0 -10.25l-1.421875 0l0 -0.96875l2.59375 0l0 12.203125z" fill-rule="nonzero"/><path fill="#000000" fill-opacity="0.0" d="m346.97375 177.31496l39.275574 0l0 35.55905l-39.275574 0z" fill-rule="evenodd"/><path fill="#000000" d="m358.25708 201.77121l0 -12.203125l2.578125 0l0 0.96875l-1.40625 0l0 10.25l1.40625 0l0 0.984375l-2.578125 0zm3.3592224 -5.171875l1.171875 -0.15625q0.203125 1.0 0.6875 1.4375q0.484375 0.4375 1.171875 0.4375q0.828125 0 1.390625 -0.578125q0.578125 -0.578125 0.578125 -1.421875q0 -0.796875 -0.53125 -1.3125q-0.515625 -0.53125 -1.328125 -0.53125q-0.34375 0 -0.828125 0.125l0.125 -1.03125q0.125 0.015625 0.1875 0.015625q0.75 0 1.34375 -0.390625q0.609375 -0.390625 0.609375 -1.203125q0 -0.640625 -0.4375 -1.0625q-0.4375 -0.421875 -1.125 -0.421875q-0.6875 0 -1.140625 0.4375q-0.453125 0.421875 -0.59375 1.28125l-1.171875 -0.21875q0.21875 -1.171875 0.984375 -1.8125q0.765625 -0.65625 1.890625 -0.65625q0.78125 0 1.4375 0.34375q0.65625 0.328125 1.0 0.90625q0.359375 0.578125 0.359375 1.234375q0 0.609375 -0.34375 1.125q-0.328125 0.5 -0.96875 0.796875q0.84375 0.203125 1.3125 0.828125q0.46875 0.609375 0.46875 1.53125q0 1.25 -0.921875 2.125q-0.90625 0.859375 -2.296875 0.859375q-1.25 0 -2.09375 -0.75q-0.828125 -0.75 -0.9375 -1.9375zm8.037476 2.515625l0 -1.328125l1.328125 0l0 1.328125q0 0.734375 -0.265625 1.1875q-0.25 0.453125 -0.8125 0.703125l-0.328125 -0.5q0.375 -0.171875 0.546875 -0.484375q0.171875 -0.3125 0.1875 -0.90625l-0.65625 0zm5.359253 2.65625l-2.59375 0l0 -0.984375l1.421875 0l0 -10.25l-1.421875 0l0 -0.96875l2.59375 0l0 12.203125z" fill-rule="nonzero"/><path fill="#000000" fill-opacity="0.0" d="m398.95538 223.3727l39.275574 0l0 35.559067l-39.275574 0z" fill-rule="evenodd"/><path fill="#000000" d="m410.2387 247.82895l0 -12.203125l2.578125 0l0 0.96875l-1.40625 0l0 10.25l1.40625 0l0 0.984375l-2.578125 0zm3.3592224 -5.171875l1.171875 -0.15625q0.203125 1.0 0.6875 1.4375q0.484375 0.4375 1.171875 0.4375q0.828125 0 1.390625 -0.578125q0.578125 -0.578125 0.578125 -1.421875q0 -0.796875 -0.53125 -1.3125q-0.515625 -0.53125 -1.328125 -0.53125q-0.34375 0 -0.828125 0.125l0.125 -1.03125q0.125 0.015625 0.1875 0.015625q0.75 0 1.34375 -0.390625q0.609375 -0.390625 0.609375 -1.203125q0 -0.640625 -0.4375 -1.0625q-0.4375 -0.421875 -1.125 -0.421875q-0.6875 0 -1.140625 0.4375q-0.453125 0.421875 -0.59375 1.28125l-1.171875 -0.21875q0.21875 -1.171875 0.984375 -1.8125q0.765625 -0.65625 1.890625 -0.65625q0.78125 0 1.4375 0.34375q0.65625 0.328125 1.0 0.90625q0.359375 0.578125 0.359375 1.234375q0 0.609375 -0.34375 1.125q-0.328125 0.5 -0.96875 0.796875q0.84375 0.203125 1.3125 0.828125q0.46875 0.609375 0.46875 1.53125q0 1.25 -0.921875 2.125q-0.90625 0.859375 -2.296875 0.859375q-1.25 0 -2.09375 -0.75q-0.828125 -0.75 -0.9375 -1.9375zm8.037476 2.515625l0 -1.328125l1.328125 0l0 1.328125q0 0.734375 -0.265625 1.1875q-0.25 0.453125 -0.8125 0.703125l-0.328125 -0.5q0.375 -0.171875 0.546875 -0.484375q0.171875 -0.3125 0.1875 -0.90625l-0.65625 0zm5.359253 2.65625l-2.59375 0l0 -0.984375l1.421875 0l0 -10.25l-1.421875 0l0 -0.96875l2.59375 0l0 12.203125z" fill-rule="nonzero"/><path fill="#000000" fill-opacity="0.0" d="m460.3622 223.3727l39.275574 0l0 35.559067l-39.275574 0z" fill-rule="evenodd"/><path fill="#000000" d="m471.64554 247.82895l0 -12.203125l2.578125 0l0 0.96875l-1.40625 0l0 10.25l1.40625 0l0 0.984375l-2.578125 0zm7.7654724 -2.65625l-1.171875 0l0 -7.46875q-0.421875 0.40625 -1.109375 0.8125q-0.6875 0.40625 -1.234375 0.609375l0 -1.140625q0.984375 -0.453125 1.71875 -1.109375q0.734375 -0.671875 1.03125 -1.28125l0.765625 0l0 9.578125zm3.6312256 0l0 -1.328125l1.328125 0l0 1.328125q0 0.734375 -0.265625 1.1875q-0.25 0.453125 -0.8125 0.703125l-0.328125 -0.5q0.375 -0.171875 0.546875 -0.484375q0.171875 -0.3125 0.1875 -0.90625l-0.65625 0zm5.359253 2.65625l-2.59375 0l0 -0.984375l1.421875 0l0 -10.25l-1.421875 0l0 -0.96875l2.59375 0l0 12.203125z" fill-rule="nonzero"/></g></svg>