<svg version="1.1" viewBox="0.0 0.0 843.0 281.0" fill="none" stroke="none" stroke-linecap="square" stroke-miterlimit="10" xmlns:xlink="http://www.w3.org/1999/xlink" xmlns="http://www.w3.org/2000/svg"><clipPath id="p.0"><path d="m0 0l843.0 0l0 281.0l-843.0 0l0 -281.0z" clip-rule="nonzero"/></clipPath><g clip-path="url(#p.0)"><path fill="#000000" fill-opacity="0.0" d="m0 0l843.0 0l0 281.0l-843.0 0z" fill-rule="evenodd"/><path fill="#000000" fill-opacity="0.0" d="m10.374016 45.228348l130.58267 0l0 38.771652l-130.58267 0z" fill-rule="evenodd"/><path fill="#ffffff" d="m36.99348 54.228348l77.34375 0l0 19.199997l-77.34375 0l0 -19.199997z" fill-rule="nonzero"/><path fill="#000000" fill-opacity="0.0" d="m36.99348 55.83835l16.0 0l0 16.0l-16.0 0l0 -16.0z" fill-rule="nonzero"/><path fill="#2c3e50" d="m45.18098 67.46335q0.4375 0.75 1.75 1.5l0 -4.25l-3.9375 0l0 -1.1875l9.0625 0l0 1.1875l-3.875 0l0 1.375l2.9375 0l0 1.1875l-2.9375 0l0 2.125q0.5625 0.125 1.4375 0.125l2.5625 0l-0.1875 1.1875l-2.5 0q-3.0625 0 -4.75 -2.0625q-1.125 1.75 -2.1875 2.3125l-0.8125 -1.0q2.3125 -1.75 2.625 -4.5625l1.3125 0.3125q0.4375 0.25 -0.125 0.375l-0.375 1.375zm-4.125 -3.625l1.25 -0.4375l0.25 1.0625l-1.5 0.625l0 4.75q0 1.0 -1.0 1.0l-1.25 0l-0.1875 -1.1875l0.9375 0q0.25 0 0.25 -0.25l0 -3.875l-1.4375 0.5625q-0.125 0.4375 -0.25 0.1875l-0.375 -1.4375l2.0625 -0.625l0 -3.6875l-1.75 0l0 -1.1875l1.75 0l0 -2.6875l1.1875 0q0.5 0.0625 0.0625 0.375l0 2.3125l1.8125 0l0 1.1875l-1.8125 0l0 3.3125zm2.875 -6.625l6.9375 0l0 5.25l-6.9375 0l0 -5.25zm1.0625 1.0l0 1.125l4.8125 0l0 -1.125l-4.8125 0zm0 2.125l0 1.125l4.8125 0l0 -1.125l-4.8125 0z" fill-rule="nonzero"/><path fill="#000000" fill-opacity="0.0" d="m52.99348 55.83835l31.999996 0l0 18.25l-31.999996 0l0 -18.25z" fill-rule="nonzero"/><path fill="#2c3e50" d="m60.24348 58.77585q0.125 1.4375 0.375 2.53125q0.25 1.09375 0.75 2.21875q0.5 1.125 1.5625 2.5625q0.8125 -1.5625 1.1562462 -2.84375q0.34375 -1.28125 0.59375 -2.53125q0.25 -1.25 0.4375 -2.875q0.6875 0.1875 1.625 0.3125q-0.375 0.5625 -0.5 1.09375q-0.125 0.53125 -0.3125 1.53125q-0.1875 1.0 -0.5625 2.5625q-0.375 1.5625 -1.4999962 3.75q0.9999962 1.0 1.9999962 1.53125q1.0 0.53125 2.4375 0.90625q-0.6875 0.5 -1.125 1.5q-1.625 -0.9375 -2.375 -1.40625q-0.75 -0.46875 -1.8124962 -1.59375q-1.125 1.25 -2.0 1.90625q-0.875 0.65625 -1.875 1.34375q-0.5625 -0.4375 -1.375 -1.125q1.3125 -0.5 2.46875 -1.28125q1.15625 -0.78125 1.84375 -1.78125q-1.1875 -1.5625 -1.75 -2.9375q-0.5625 -1.375 -0.84375 -2.53125q-0.28125 -1.15625 -0.53125 -2.59375q0.625 -0.0625 1.3125 -0.25zm-4.25 12.1875q-0.4375 -0.5625 -1.0625 -1.25q0.875 -0.5625 0.875 -1.5l0 -5.5625l-0.8125 0q-0.625 0 -1.375 0.0625l0 -1.25q0.75 0.125 1.375 0.125l2.0625 0q-0.0625 1.0625 -0.0625 2.4375l0 3.9375q0.6875 -0.75 1.8125 -2.0625q0.25 0.3125 0.8125 1.0q-0.9375 0.9375 -1.875 1.90625q-0.9375 0.96875 -1.75 2.15625zm6.5 -14.5625q0.6875 3.0 1.0625 4.9375q-0.75 0.0625 -1.25 0.25q-0.375 -2.25 -1.0625 -4.8125q0.5625 -0.1875 1.25 -0.375zm-6.375 0.25q1.0 1.6875 1.5 2.6875q-0.5625 0.25 -1.1875 0.625q-1.0 -2.125 -1.375 -2.6875q0.5625 -0.25 1.0625 -0.625zm23.374996 12.4375q-0.125 -0.75 -0.625 -1.5q1.25 0 1.90625 -0.125q0.65625 -0.125 0.71875 -0.75l0.125 -3.375l-5.3125 0l0 5.4375q0 1.125 0.0625 2.3125l-1.4375 0q0.125 -1.125 0.125 -2.3125l0 -5.4375l-1.375 0q-2.0625 0 -3.3125 0.0625l0 -1.1875q1.3125 0.0625 2.6875 0.0625l10.0 0q-0.1875 2.625 -0.25 4.25q-0.0625 1.625 -0.9375 2.03125q-0.875 0.40625 -2.375 0.53125zm-4.3125 -9.375q0 1.125 0.0625 1.9375l-1.375 0q0.0625 -0.9375 0.0625 -1.9375l-2.125 0q-0.875 0 -1.9375 0.125l0 -1.25q1.0625 0.0625 1.9375 0.0625l2.125 0q0 -1.1875 -0.0625 -2.0l1.375 0q-0.0625 0.8125 -0.0625 2.0l3.3125 0q0 -1.25 -0.0625 -2.0l1.4375 0q-0.0625 0.75 -0.0625 2.0l2.0 0q1.1875 0 2.1875 -0.0625l0 1.1875q-1.0 -0.0625 -2.1875 -0.0625l-2.0 0q0 1.0 0.0625 1.9375l-1.4375 0q0.0625 -1.0 0.0625 -1.9375l-3.3125 0z" fill-rule="nonzero"/><path fill="#000000" fill-opacity="0.0" d="m84.99348 55.83835l16.0 0l0 16.0l-16.0 0l0 -16.0z" fill-rule="nonzero"/><path fill="#2c3e50" d="m97.43098 66.96335q1.25 1.1875 2.25 2.9375l-1.5 0.75q-0.875 -1.875 -1.875 -3.0625l1.125 -0.625zm-2.875 0.0625q1.0625 1.75 1.25 3.375l-1.5625 0.375q-0.25 -1.6875 -0.9375 -3.3125l1.25 -0.4375zm-8.25 3.0625q1.125 -1.125 1.8125 -3.0l1.3125 0.5q-0.4375 1.875 -1.75 3.3125l-1.375 -0.8125zm5.4375 -2.6875q0.5 1.1875 0.375 3.3125l-1.5 0.0625q0.0625 -2.125 -0.1875 -3.3125l1.3125 -0.0625zm4.875 -2.375l0 -2.4375l-7.0 0l0 2.4375l7.0 0zm-3.3125 -8.25q0.5 0.0625 0.0625 0.375l0 1.375l5.25 0l0 1.1875l-5.25 0l0 1.6875l4.6875 0l0 5.1875l-1.4375 0l0 -0.375l-7.0 0l0 0.5l-1.4375 0l0 -5.3125l3.75 0l0 -4.625l1.375 0z" fill-rule="nonzero"/><path fill="#000000" fill-opacity="0.0" d="m100.99348 55.103973l13.34375 0l0 18.398438l-13.34375 0l0 -18.398438z" fill-rule="nonzero"/><path fill="#2c3e50" d="m111.40754 69.58835l-1.40625 0l0 -8.96875q-0.515625 0.484375 -1.34375 0.96875q-0.8125 0.484375 -1.46875 0.734375l0 -1.359375q1.171875 -0.5625 2.046875 -1.34375q0.890625 -0.796875 1.265625 -1.53125l0.90625 0l0 11.5z" fill-rule="nonzero"/><path fill="#010000" fill-opacity="0.0" d="m114.33723 55.103973l0 0l0 18.398438l0 0l0 -18.398438z" fill-rule="nonzero"/><path fill="#000000" fill-opacity="0.0" d="m140.9567 64.614174l624.0315 -2.614174" fill-rule="evenodd"/><path stroke="#000000" stroke-width="1.0" stroke-linejoin="round" stroke-linecap="butt" d="m140.9567 64.614174l618.0316 -2.5890388" fill-rule="evenodd"/><path fill="#000000" stroke="#000000" stroke-width="1.0" stroke-linecap="butt" d="m758.9952 63.676853l4.531128 -1.6707306l-4.544983 -1.6327057z" fill-rule="evenodd"/><path fill="#000000" fill-opacity="0.0" d="m10.374016 83.10105l130.58267 0l0 38.771652l-130.58267 0z" fill-rule="evenodd"/><path fill="#ffffff" d="m36.99348 92.10105l77.34375 0l0 19.199997l-77.34375 0l0 -19.199997z" fill-rule="nonzero"/><path fill="#000000" fill-opacity="0.0" d="m36.99348 93.71105l16.0 0l0 16.0l-16.0 0l0 -16.0z" fill-rule="nonzero"/><path fill="#2c3e50" d="m45.18098 105.33605q0.4375 0.75 1.75 1.5l0 -4.25l-3.9375 0l0 -1.1875l9.0625 0l0 1.1875l-3.875 0l0 1.375l2.9375 0l0 1.1875l-2.9375 0l0 2.125q0.5625 0.125 1.4375 0.125l2.5625 0l-0.1875 1.1875l-2.5 0q-3.0625 0 -4.75 -2.0625q-1.125 1.75 -2.1875 2.3125l-0.8125 -1.0q2.3125 -1.75 2.625 -4.5625l1.3125 0.3125q0.4375 0.25 -0.125 0.375l-0.375 1.375zm-4.125 -3.625l1.25 -0.4375l0.25 1.0625l-1.5 0.625l0 4.75q0 1.0 -1.0 1.0l-1.25 0l-0.1875 -1.1875l0.9375 0q0.25 0 0.25 -0.25l0 -3.875l-1.4375 0.5625q-0.125 0.4375 -0.25 0.1875l-0.375 -1.4375l2.0625 -0.625l0 -3.6875l-1.75 0l0 -1.1875l1.75 0l0 -2.6875l1.1875 0q0.5 0.0625 0.0625 0.375l0 2.3125l1.8125 0l0 1.1875l-1.8125 0l0 3.3125zm2.875 -6.625l6.9375 0l0 5.25l-6.9375 0l0 -5.25zm1.0625 1.0l0 1.125l4.8125 0l0 -1.125l-4.8125 0zm0 2.125l0 1.125l4.8125 0l0 -1.125l-4.8125 0z" fill-rule="nonzero"/><path fill="#000000" fill-opacity="0.0" d="m52.99348 93.71105l31.999996 0l0 18.25l-31.999996 0l0 -18.25z" fill-rule="nonzero"/><path fill="#2c3e50" d="m60.24348 96.64855q0.125 1.4375 0.375 2.53125q0.25 1.09375 0.75 2.21875q0.5 1.125 1.5625 2.5625q0.8125 -1.5625 1.1562462 -2.84375q0.34375 -1.28125 0.59375 -2.53125q0.25 -1.25 0.4375 -2.875q0.6875 0.1875 1.625 0.3125q-0.375 0.5625 -0.5 1.09375q-0.125 0.53125 -0.3125 1.53125q-0.1875 1.0 -0.5625 2.5625q-0.375 1.5625 -1.4999962 3.75q0.9999962 1.0 1.9999962 1.53125q1.0 0.53125 2.4375 0.90625q-0.6875 0.5 -1.125 1.5q-1.625 -0.9375 -2.375 -1.40625q-0.75 -0.46875 -1.8124962 -1.59375q-1.125 1.25 -2.0 1.90625q-0.875 0.65625 -1.875 1.34375q-0.5625 -0.4375 -1.375 -1.125q1.3125 -0.5 2.46875 -1.28125q1.15625 -0.78125 1.84375 -1.78125q-1.1875 -1.5625 -1.75 -2.9375q-0.5625 -1.375 -0.84375 -2.53125q-0.28125 -1.15625 -0.53125 -2.59375q0.625 -0.0625 1.3125 -0.25zm-4.25 12.1875q-0.4375 -0.5625 -1.0625 -1.25q0.875 -0.5625 0.875 -1.5l0 -5.5625l-0.8125 0q-0.625 0 -1.375 0.0625l0 -1.25q0.75 0.125 1.375 0.125l2.0625 0q-0.0625 1.0625 -0.0625 2.4375l0 3.9375q0.6875 -0.75 1.8125 -2.0625q0.25 0.3125 0.8125 1.0q-0.9375 0.9375 -1.875 1.90625q-0.9375 0.96875 -1.75 2.15625zm6.5 -14.5625q0.6875 3.0 1.0625 4.9375q-0.75 0.0625 -1.25 0.25q-0.375 -2.25 -1.0625 -4.8125q0.5625 -0.1875 1.25 -0.375zm-6.375 0.25q1.0 1.6875 1.5 2.6875q-0.5625 0.25 -1.1875 0.625q-1.0 -2.125 -1.375 -2.6875q0.5625 -0.25 1.0625 -0.625zm23.374996 12.4375q-0.125 -0.75 -0.625 -1.5q1.25 0 1.90625 -0.125q0.65625 -0.125 0.71875 -0.75l0.125 -3.375l-5.3125 0l0 5.4375q0 1.125 0.0625 2.3125l-1.4375 0q0.125 -1.125 0.125 -2.3125l0 -5.4375l-1.375 0q-2.0625 0 -3.3125 0.0625l0 -1.1875q1.3125 0.0625 2.6875 0.0625l10.0 0q-0.1875 2.625 -0.25 4.25q-0.0625 1.625 -0.9375 2.03125q-0.875 0.40625 -2.375 0.53125zm-4.3125 -9.375q0 1.125 0.0625 1.9375l-1.375 0q0.0625 -0.9375 0.0625 -1.9375l-2.125 0q-0.875 0 -1.9375 0.125l0 -1.25q1.0625 0.0625 1.9375 0.0625l2.125 0q0 -1.1875 -0.0625 -2.0l1.375 0q-0.0625 0.8125 -0.0625 2.0l3.3125 0q0 -1.25 -0.0625 -2.0l1.4375 0q-0.0625 0.75 -0.0625 2.0l2.0 0q1.1875 0 2.1875 -0.0625l0 1.1875q-1.0 -0.0625 -2.1875 -0.0625l-2.0 0q0 1.0 0.0625 1.9375l-1.4375 0q0.0625 -1.0 0.0625 -1.9375l-3.3125 0z" fill-rule="nonzero"/><path fill="#000000" fill-opacity="0.0" d="m84.99348 93.71105l16.0 0l0 16.0l-16.0 0l0 -16.0z" fill-rule="nonzero"/><path fill="#2c3e50" d="m97.43098 104.83605q1.25 1.1875 2.25 2.9375l-1.5 0.75q-0.875 -1.875 -1.875 -3.0625l1.125 -0.625zm-2.875 0.0625q1.0625 1.75 1.25 3.375l-1.5625 0.375q-0.25 -1.6875 -0.9375 -3.3125l1.25 -0.4375zm-8.25 3.0625q1.125 -1.125 1.8125 -3.0l1.3125 0.5q-0.4375 1.875 -1.75 3.3125l-1.375 -0.8125zm5.4375 -2.6875q0.5 1.1875 0.375 3.3125l-1.5 0.0625q0.0625 -2.125 -0.1875 -3.3125l1.3125 -0.0625zm4.875 -2.375l0 -2.4375l-7.0 0l0 2.4375l7.0 0zm-3.3125 -8.25q0.5 0.0625 0.0625 0.375l0 1.375l5.25 0l0 1.1875l-5.25 0l0 1.6875l4.6875 0l0 5.1875l-1.4375 0l0 -0.375l-7.0 0l0 0.5l-1.4375 0l0 -5.3125l3.75 0l0 -4.625l1.375 0z" fill-rule="nonzero"/><path fill="#000000" fill-opacity="0.0" d="m100.99348 92.97668l13.34375 0l0 18.398438l-13.34375 0l0 -18.398438z" fill-rule="nonzero"/><path fill="#2c3e50" d="m113.50129 106.10168l0 1.359375l-7.578125 0q-0.015625 -0.515625 0.171875 -0.984375q0.28125 -0.765625 0.921875 -1.515625q0.640625 -0.75 1.84375 -1.734375q1.859375 -1.53125 2.515625 -2.421875q0.65625 -0.90625 0.65625 -1.703125q0 -0.828125 -0.59375 -1.40625q-0.59375 -0.578125 -1.5625 -0.578125q-1.015625 0 -1.625 0.609375q-0.609375 0.609375 -0.609375 1.6875l-1.453125 -0.140625q0.15625 -1.625 1.125 -2.46875q0.96875 -0.84375 2.59375 -0.84375q1.65625 0 2.609375 0.921875q0.96875 0.90625 0.96875 2.25q0 0.6875 -0.28125 1.359375q-0.28125 0.65625 -0.9375 1.390625q-0.65625 0.734375 -2.171875 2.015625q-1.265625 1.0625 -1.625 1.453125q-0.359375 0.375 -0.59375 0.75l5.625 0z" fill-rule="nonzero"/><path fill="#000000" fill-opacity="0.0" d="m114.33723 92.97668l0 0l0 18.398438l0 0l0 -18.398438z" fill-rule="nonzero"/><path fill="#000000" fill-opacity="0.0" d="m140.9567 102.48688l620.0315 -3.4960632" fill-rule="evenodd"/><path stroke="#000000" stroke-width="1.0" stroke-linejoin="round" stroke-linecap="butt" d="m140.9567 102.48688l614.0316 -3.4622269" fill-rule="evenodd"/><path fill="#000000" stroke="#000000" stroke-width="1.0" stroke-linecap="butt" d="m754.9976 100.67635l4.5286865 -1.6772995l-4.5473633 -1.6261139z" fill-rule="evenodd"/><path fill="#000000" fill-opacity="0.0" d="m9.381889 126.35696l130.58267 0l0 38.77166l-130.58267 0z" fill-rule="evenodd"/><path fill="#ffffff" d="m35.55604 135.35695l78.234375 0l0 19.200012l-78.234375 0l0 -19.200012z" fill-rule="nonzero"/><path fill="#000000" fill-opacity="0.0" d="m35.55604 136.96695l32.000004 0l0 16.0l-32.000004 0l0 -16.0z" fill-rule="nonzero"/><path fill="#2c3e50" d="m45.05604 140.34195l3.625 0l0 4.1875l1.8125 0l0 1.375l-4.875 0q1.5 2.875 5.1875 4.5l-0.8125 1.3125q-3.6875 -1.875 -5.25 -5.0q-0.625 3.625 -4.75 5.25l-0.5 -1.25q3.6875 -1.25 4.1875 -4.8125l-3.5625 0l0 -1.375l3.6875 0l0 -2.8125l-2.625 0l0 -1.375l2.625 0l0 -2.5l1.1875 0q0.5 0.0625 0.0625 0.375l0 2.125zm2.375 4.1875l0 -2.8125l-2.375 0l0 2.8125l2.375 0zm-9.25 -5.1875q1.4375 0.8125 2.375 2.0l-1.0 1.1875q-1.0 -1.1875 -2.4375 -2.1875l1.0625 -1.0zm-1.875 10.25q1.75 -1.5625 3.1875 -3.75l0.8125 1.0625q-1.375 2.125 -2.875 3.5625q-0.1875 1.0 -0.5 0.1875l-0.625 -1.0625zm29.750004 2.125q-3.3125038 -0.8125 -5.875004 -3.375l0 3.75l-1.25 0l0 -3.75q-1.6875 2.0625 -5.5625 3.4375l-0.625 -1.375q4.0625 -1.1875 6.1875 -3.8125l0 -0.75l-3.125 0l0 2.25l-1.25 0l0 -3.25l4.375 0l0 -1.0l-6.125 0l0 -1.0l6.125 0l0 -1.3125l1.1875 0q0.5 0.0625 0.0625 0.375l0 0.9375l6.125004 0l0 1.0l-6.125004 0l0 1.0l4.562504 0l0 2.4375q0 0.875 -0.7500038 0.875l-1.25 0l-0.25 -1.1875l0.75 0q0.25 0 0.25 -0.25l0 -0.875l-3.3125 0l0 0.8125q1.9375 2.4375 6.250004 3.5625l-0.375 1.5zm-4.437504 -13.375q-0.25 0.625 -0.4375 1.0625l5.125004 0l0 1.0l-2.9375038 0l0.6875038 1.3125l-1.3750038 0.375l-0.5625 -1.6875l-1.375 0q-0.5 0.875 -0.75 1.0625l-1.0 -0.6875l0.375 -0.375l-2.1875 0l0.6875 1.4375l-1.375 0.375l-0.5 -1.8125l-1.0625 0q-0.5625 0.9375 -1.5 1.875l-0.875 -0.9375q1.625 -1.3125 2.125 -3.6875l1.25 0.375q0.25 0.25 -0.1875 0.3125q-0.1875 0.5625 -0.375 1.0625l4.125 0l0 0.8125q0.875 -1.375 1.125 -2.5625l1.1875 0.375q0.25 0.25 -0.1875 0.3125z" fill-rule="nonzero"/><path fill="#000000" fill-opacity="0.0" d="m67.556046 136.96695l15.999992 0l0 18.25l-15.999992 0l0 -18.25z" fill-rule="nonzero"/><path fill="#2c3e50" d="m78.05604 150.21695q-0.125 -0.75 -0.625 -1.5q1.25 0 1.90625 -0.125q0.65625 -0.125 0.71875 -0.75l0.125 -3.375l-5.3125 0l0 5.4375q0 1.125 0.0625 2.3125l-1.4375 0q0.125 -1.125 0.125 -2.3125l0 -5.4375l-1.3749924 0q-2.0625 0 -3.3125 0.0625l0 -1.1875q1.3125 0.0625 2.6875 0.0625l9.999992 0q-0.1875 2.625 -0.25 4.25q-0.0625 1.625 -0.9375 2.03125q-0.875 0.40625 -2.375 0.53125zm-4.3125 -9.375q0 1.125 0.0625 1.9375l-1.3749924 0q0.0625 -0.9375 0.0625 -1.9375l-2.125 0q-0.875 0 -1.9375 0.125l0 -1.25q1.0625 0.0625 1.9375 0.0625l2.125 0q0 -1.1875 -0.0625 -2.0l1.3749924 0q-0.0625 0.8125 -0.0625 2.0l3.3125 0q0 -1.25 -0.0625 -2.0l1.4375 0q-0.0625 0.75 -0.0625 2.0l2.0 0q1.1875 0 2.1875 -0.0625l0 1.1875q-1.0 -0.0625 -2.1875 -0.0625l-2.0 0q0 1.0 0.0625 1.9375l-1.4375 0q0.0625 -1.0 0.0625 -1.9375l-3.3125 0z" fill-rule="nonzero"/><path fill="#000000" fill-opacity="0.0" d="m83.55604 136.96695l16.0 0l0 16.0l-16.0 0l0 -16.0z" fill-rule="nonzero"/><path fill="#2c3e50" d="m95.99354 148.09195q1.25 1.1875 2.25 2.9375l-1.5 0.75q-0.875 -1.875 -1.875 -3.0625l1.125 -0.625zm-2.875 0.0625q1.0625 1.75 1.25 3.375l-1.5625 0.375q-0.25 -1.6875 -0.9375 -3.3125l1.25 -0.4375zm-8.25 3.0625q1.125 -1.125 1.8125 -3.0l1.3125 0.5q-0.4375 1.875 -1.75 3.3125l-1.375 -0.8125zm5.4375 -2.6875q0.5 1.1875 0.375 3.3125l-1.5 0.0625q0.0625 -2.125 -0.1875 -3.3125l1.3125 -0.0625zm4.875 -2.375l0 -2.4375l-7.0 0l0 2.4375l7.0 0zm-3.3125 -8.25q0.5 0.0625 0.0625 0.375l0 1.375l5.25 0l0 1.1875l-5.25 0l0 1.6875l4.6875 0l0 5.1875l-1.4375 0l0 -0.375l-7.0 0l0 0.5l-1.4375 0l0 -5.3125l3.75 0l0 -4.625l1.375 0z" fill-rule="nonzero"/><path fill="#000000" fill-opacity="0.0" d="m99.55604 136.23257l14.234375 0l0 18.398438l-14.234375 0l0 -18.398438z" fill-rule="nonzero"/><path fill="#2c3e50" d="m103.08729 150.71695l4.40625 -11.453125l1.640625 0l4.6875 11.453125l-1.734375 0l-1.328125 -3.46875l-4.796875 0l-1.25 3.46875l-1.625 0zm3.3125 -4.703125l3.890625 0l-1.203125 -3.171875q-0.546875 -1.453125 -0.8125 -2.375q-0.21875 1.09375 -0.609375 2.1875l-1.265625 3.359375z" fill-rule="nonzero"/><path fill="#010000" fill-opacity="0.0" d="m113.79041 136.23257l0 0l0 18.398438l0 0l0 -18.398438z" fill-rule="nonzero"/><path fill="#000000" fill-opacity="0.0" d="m139.96457 145.74278l619.02356 -3.7480316" fill-rule="evenodd"/><path stroke="#000000" stroke-width="1.0" stroke-linejoin="round" stroke-linecap="butt" d="m139.96457 145.74278l613.0237 -3.7117004" fill-rule="evenodd"/><path fill="#000000" stroke="#000000" stroke-width="1.0" stroke-linecap="butt" d="m752.9983 143.68279l4.528015 -1.679184l-4.5480347 -1.6242218z" fill-rule="evenodd"/><path fill="#000000" fill-opacity="0.0" d="m10.374016 169.61548l130.58267 0l0 38.771667l-130.58267 0z" fill-rule="evenodd"/><path fill="#ffffff" d="m36.106762 178.6155l79.11719 0l0 19.199997l-79.11719 0l0 -19.199997z" fill-rule="nonzero"/><path fill="#000000" fill-opacity="0.0" d="m36.106762 180.22548l31.999996 0l0 16.0l-31.999996 0l0 -16.0z" fill-rule="nonzero"/><path fill="#2c3e50" d="m45.606762 183.60048l3.625 0l0 4.1875l1.8125 0l0 1.375l-4.875 0q1.5 2.875 5.1875 4.5l-0.8125 1.3125q-3.6875 -1.875 -5.25 -5.0q-0.625 3.625 -4.75 5.25l-0.5 -1.25q3.6875 -1.25 4.1875 -4.8125l-3.5625 0l0 -1.375l3.6875 0l0 -2.8125l-2.625 0l0 -1.375l2.625 0l0 -2.5l1.1875 0q0.5 0.0625 0.0625 0.375l0 2.125zm2.375 4.1875l0 -2.8125l-2.375 0l0 2.8125l2.375 0zm-9.25 -5.1875q1.4375 0.8125 2.375 2.0l-1.0 1.1875q-1.0 -1.1875 -2.4375 -2.1875l1.0625 -1.0zm-1.875 10.25q1.75 -1.5625 3.1875 -3.75l0.8125 1.0625q-1.375 2.125 -2.875 3.5625q-0.1875 1.0 -0.5 0.1875l-0.625 -1.0625zm29.749996 2.125q-3.3124962 -0.8125 -5.874996 -3.375l0 3.75l-1.25 0l0 -3.75q-1.6875 2.0625 -5.5625 3.4375l-0.625 -1.375q4.0625 -1.1875 6.1875 -3.8125l0 -0.75l-3.125 0l0 2.25l-1.25 0l0 -3.25l4.375 0l0 -1.0l-6.125 0l0 -1.0l6.125 0l0 -1.3125l1.1875 0q0.5 0.0625 0.0625 0.375l0 0.9375l6.124996 0l0 1.0l-6.124996 0l0 1.0l4.562496 0l0 2.4375q0 0.875 -0.75 0.875l-1.2499962 0l-0.25 -1.1875l0.75 0q0.24999619 0 0.24999619 -0.25l0 -0.875l-3.3124962 0l0 0.8125q1.9375 2.4375 6.249996 3.5625l-0.375 1.5zm-4.437496 -13.375q-0.25 0.625 -0.4375 1.0625l5.124996 0l0 1.0l-2.9374962 0l0.6874962 1.3125l-1.3749962 0.375l-0.5625 -1.6875l-1.375 0q-0.5 0.875 -0.75 1.0625l-1.0 -0.6875l0.375 -0.375l-2.1875 0l0.6875 1.4375l-1.375 0.375l-0.5 -1.8125l-1.0625 0q-0.5625 0.9375 -1.5 1.875l-0.875 -0.9375q1.625 -1.3125 2.125 -3.6875l1.25 0.375q0.25 0.25 -0.1875 0.3125q-0.1875 0.5625 -0.375 1.0625l4.125 0l0 0.8125q0.875 -1.375 1.125 -2.5625l1.1875 0.375q0.25 0.25 -0.1875 0.3125z" fill-rule="nonzero"/><path fill="#000000" fill-opacity="0.0" d="m68.10676 180.22548l16.0 0l0 18.25l-16.0 0l0 -18.25z" fill-rule="nonzero"/><path fill="#2c3e50" d="m78.60676 193.47548q-0.125 -0.75 -0.625 -1.5q1.25 0 1.90625 -0.125q0.65625 -0.125 0.71875 -0.75l0.125 -3.375l-5.3125 0l0 5.4375q0 1.125 0.0625 2.3125l-1.4375 0q0.125 -1.125 0.125 -2.3125l0 -5.4375l-1.375 0q-2.0625 0 -3.3125 0.0625l0 -1.1875q1.3125 0.0625 2.6875 0.0625l10.0 0q-0.1875 2.625 -0.25 4.25q-0.0625 1.625 -0.9375 2.03125q-0.875 0.40625 -2.375 0.53125zm-4.3125 -9.375q0 1.125 0.0625 1.9375l-1.375 0q0.0625 -0.9375 0.0625 -1.9375l-2.125 0q-0.875 0 -1.9375 0.125l0 -1.25q1.0625 0.0625 1.9375 0.0625l2.125 0q0 -1.1875 -0.0625 -2.0l1.375 0q-0.0625 0.8125 -0.0625 2.0l3.3125 0q0 -1.25 -0.0625 -2.0l1.4375 0q-0.0625 0.75 -0.0625 2.0l2.0 0q1.1875 0 2.1875 -0.0625l0 1.1875q-1.0 -0.0625 -2.1875 -0.0625l-2.0 0q0 1.0 0.0625 1.9375l-1.4375 0q0.0625 -1.0 0.0625 -1.9375l-3.3125 0z" fill-rule="nonzero"/><path fill="#000000" fill-opacity="0.0" d="m84.10676 180.22548l16.0 0l0 16.0l-16.0 0l0 -16.0z" fill-rule="nonzero"/><path fill="#2c3e50" d="m96.54426 191.35048q1.25 1.1875 2.25 2.9375l-1.5 0.75q-0.875 -1.875 -1.875 -3.0625l1.125 -0.625zm-2.875 0.0625q1.0625 1.75 1.25 3.375l-1.5625 0.375q-0.25 -1.6875 -0.9375 -3.3125l1.25 -0.4375zm-8.25 3.0625q1.125 -1.125 1.8125 -3.0l1.3125 0.5q-0.4375 1.875 -1.75 3.3125l-1.375 -0.8125zm5.4375 -2.6875q0.5 1.1875 0.375 3.3125l-1.5 0.0625q0.0625 -2.125 -0.1875 -3.3125l1.3125 -0.0625zm4.875 -2.375l0 -2.4375l-7.0 0l0 2.4375l7.0 0zm-3.3125 -8.25q0.5 0.0625 0.0625 0.375l0 1.375l5.25 0l0 1.1875l-5.25 0l0 1.6875l4.6875 0l0 5.1875l-1.4375 0l0 -0.375l-7.0 0l0 0.5l-1.4375 0l0 -5.3125l3.75 0l0 -4.625l1.375 0z" fill-rule="nonzero"/><path fill="#000000" fill-opacity="0.0" d="m100.10676 179.4911l15.1171875 0l0 18.398438l-15.1171875 0l0 -18.398438z" fill-rule="nonzero"/><path fill="#2c3e50" d="m105.723946 193.97548l0 -11.453125l4.296875 0q1.3125 0 2.109375 0.34375q0.796875 0.34375 1.234375 1.078125q0.453125 0.71875 0.453125 1.5q0 0.734375 -0.40625 1.390625q-0.390625 0.640625 -1.1875 1.046875q1.03125 0.296875 1.59375 1.03125q0.5625 0.734375 0.5625 1.734375q0 0.8125 -0.34375 1.5q-0.34375 0.6875 -0.84375 1.0625q-0.5 0.375 -1.25 0.578125q-0.75 0.1875 -1.84375 0.1875l-4.375 0zm1.515625 -6.640625l2.484375 0q1.0 0 1.4375 -0.140625q0.578125 -0.171875 0.875 -0.5625q0.296875 -0.40625 0.296875 -1.0q0 -0.578125 -0.28125 -1.0q-0.265625 -0.4375 -0.78125 -0.59375q-0.5 -0.171875 -1.734375 -0.171875l-2.296875 0l0 3.46875zm0 5.28125l2.859375 0q0.734375 0 1.03125 -0.046875q0.515625 -0.09375 0.859375 -0.3125q0.359375 -0.21875 0.578125 -0.640625q0.234375 -0.421875 0.234375 -0.96875q0 -0.640625 -0.328125 -1.109375q-0.328125 -0.46875 -0.90625 -0.65625q-0.578125 -0.203125 -1.671875 -0.203125l-2.65625 0l0 3.9375z" fill-rule="nonzero"/><path fill="#000000" fill-opacity="0.0" d="m115.223946 179.4911l0 0l0 18.398438l0 0l0 -18.398438z" fill-rule="nonzero"/><path fill="#000000" fill-opacity="0.0" d="m140.9567 189.00131l615.0552 -6.015747" fill-rule="evenodd"/><path stroke="#000000" stroke-width="1.0" stroke-linejoin="round" stroke-linecap="butt" d="m140.9567 189.00131l609.0554 -5.957062" fill-rule="evenodd"/><path fill="#000000" stroke="#000000" stroke-width="1.0" stroke-linecap="butt" d="m750.02826 184.69589l4.5217285 -1.6960297l-4.554016 -1.6072693z" fill-rule="evenodd"/><path fill="#000000" fill-opacity="0.0" d="m10.374016 212.8727l130.58267 0l0 38.771667l-130.58267 0z" fill-rule="evenodd"/><path fill="#ffffff" d="m35.665356 221.87271l80.0 0l0 19.199997l-80.0 0l0 -19.199997z" fill-rule="nonzero"/><path fill="#000000" fill-opacity="0.0" d="m35.665356 223.4827l31.999996 0l0 16.0l-31.999996 0l0 -16.0z" fill-rule="nonzero"/><path fill="#2c3e50" d="m45.165356 226.8577l3.625 0l0 4.1875l1.8125 0l0 1.375l-4.875 0q1.5 2.875 5.1875 4.5l-0.8125 1.3125q-3.6875 -1.875 -5.25 -5.0q-0.625 3.625 -4.75 5.25l-0.5 -1.25q3.6875 -1.25 4.1875 -4.8125l-3.5625 0l0 -1.375l3.6875 0l0 -2.8125l-2.625 0l0 -1.375l2.625 0l0 -2.5l1.1875 0q0.5 0.0625 0.0625 0.375l0 2.125zm2.375 4.1875l0 -2.8125l-2.375 0l0 2.8125l2.375 0zm-9.25 -5.1875q1.4375 0.8125 2.375 2.0l-1.0 1.1875q-1.0 -1.1875 -2.4375 -2.1875l1.0625 -1.0zm-1.875 10.25q1.75 -1.5625 3.1875 -3.75l0.8125 1.0625q-1.375 2.125 -2.875 3.5625q-0.1875 1.0 -0.5 0.1875l-0.625 -1.0625zm29.749996 2.125q-3.3124962 -0.8125 -5.874996 -3.375l0 3.75l-1.25 0l0 -3.75q-1.6875 2.0625 -5.5625 3.4375l-0.625 -1.375q4.0625 -1.1875 6.1875 -3.8125l0 -0.75l-3.125 0l0 2.25l-1.25 0l0 -3.25l4.375 0l0 -1.0l-6.125 0l0 -1.0l6.125 0l0 -1.3125l1.1875 0q0.5 0.0625 0.0625 0.375l0 0.9375l6.124996 0l0 1.0l-6.124996 0l0 1.0l4.562496 0l0 2.4375q0 0.875 -0.75 0.875l-1.2499962 0l-0.25 -1.1875l0.75 0q0.25 0 0.25 -0.25l0 -0.875l-3.3125 0l0 0.8125q1.9375 2.4375 6.249996 3.5625l-0.375 1.5zm-4.437496 -13.375q-0.25 0.625 -0.4375 1.0625l5.124996 0l0 1.0l-2.9374962 0l0.6874962 1.3125l-1.3749962 0.375l-0.5625 -1.6875l-1.375 0q-0.5 0.875 -0.75 1.0625l-1.0 -0.6875l0.375 -0.375l-2.1875 0l0.6875 1.4375l-1.375 0.375l-0.5 -1.8125l-1.0625 0q-0.5625 0.9375 -1.5 1.875l-0.875 -0.9375q1.625 -1.3125 2.125 -3.6875l1.25 0.375q0.25 0.25 -0.1875 0.3125q-0.1875 0.5625 -0.375 1.0625l4.125 0l0 0.8125q0.875 -1.375 1.125 -2.5625l1.1875 0.375q0.25 0.25 -0.1875 0.3125z" fill-rule="nonzero"/><path fill="#000000" fill-opacity="0.0" d="m67.66535 223.4827l16.0 0l0 18.25l-16.0 0l0 -18.25z" fill-rule="nonzero"/><path fill="#2c3e50" d="m78.16535 236.7327q-0.125 -0.75 -0.625 -1.5q1.25 0 1.90625 -0.125q0.65625 -0.125 0.71875 -0.75l0.125 -3.375l-5.3125 0l0 5.4375q0 1.125 0.0625 2.3125l-1.4375 0q0.125 -1.125 0.125 -2.3125l0 -5.4375l-1.375 0q-2.0625 0 -3.3125 0.0625l0 -1.1875q1.3125 0.0625 2.6875 0.0625l10.0 0q-0.1875 2.625 -0.25 4.25q-0.0625 1.625 -0.9375 2.03125q-0.875 0.40625 -2.375 0.53125zm-4.3125 -9.375q0 1.125 0.0625 1.9375l-1.375 0q0.0625 -0.9375 0.0625 -1.9375l-2.125 0q-0.875 0 -1.9375 0.125l0 -1.25q1.0625 0.0625 1.9375 0.0625l2.125 0q0 -1.1875 -0.0625 -2.0l1.375 0q-0.0625 0.8125 -0.0625 2.0l3.3125 0q0 -1.25 -0.0625 -2.0l1.4375 0q-0.0625 0.75 -0.0625 2.0l2.0 0q1.1875 0 2.1875 -0.0625l0 1.1875q-1.0 -0.0625 -2.1875 -0.0625l-2.0 0q0 1.0 0.0625 1.9375l-1.4375 0q0.0625 -1.0 0.0625 -1.9375l-3.3125 0z" fill-rule="nonzero"/><path fill="#000000" fill-opacity="0.0" d="m83.66535 223.4827l16.0 0l0 16.0l-16.0 0l0 -16.0z" fill-rule="nonzero"/><path fill="#2c3e50" d="m96.10285 234.6077q1.25 1.1875 2.25 2.9375l-1.5 0.75q-0.875 -1.875 -1.875 -3.0625l1.125 -0.625zm-2.875 0.0625q1.0625 1.75 1.25 3.375l-1.5625 0.375q-0.25 -1.6875 -0.9375 -3.3125l1.25 -0.4375zm-8.25 3.0625q1.125 -1.125 1.8125 -3.0l1.3125 0.5q-0.4375 1.875 -1.75 3.3125l-1.375 -0.8125zm5.4375 -2.6875q0.5 1.1875 0.375 3.3125l-1.5 0.0625q0.0625 -2.125 -0.1875 -3.3125l1.3125 -0.0625zm4.875 -2.375l0 -2.4375l-7.0 0l0 2.4375l7.0 0zm-3.3125 -8.25q0.5 0.0625 0.0625 0.375l0 1.375l5.25 0l0 1.1875l-5.25 0l0 1.6875l4.6875 0l0 5.1875l-1.4375 0l0 -0.375l-7.0 0l0 0.5l-1.4375 0l0 -5.3125l3.75 0l0 -4.625l1.375 0z" fill-rule="nonzero"/><path fill="#000000" fill-opacity="0.0" d="m99.66535 222.74832l16.0 0l0 18.398438l-16.0 0l0 -18.398438z" fill-rule="nonzero"/><path fill="#2c3e50" d="m113.516914 233.21707l1.515625 0.375q-0.46875 1.875 -1.71875 2.859375q-1.234375 0.984375 -3.015625 0.984375q-1.859375 0 -3.015625 -0.75q-1.15625 -0.765625 -1.765625 -2.1875q-0.609375 -1.4375 -0.609375 -3.078125q0 -1.796875 0.6875 -3.125q0.6875 -1.328125 1.9375 -2.015625q1.265625 -0.703125 2.78125 -0.703125q1.71875 0 2.890625 0.875q1.171875 0.875 1.640625 2.46875l-1.5 0.34375q-0.390625 -1.25 -1.15625 -1.8125q-0.75 -0.578125 -1.90625 -0.578125q-1.3125 0 -2.203125 0.640625q-0.890625 0.625 -1.25 1.703125q-0.359375 1.0625 -0.359375 2.1875q0 1.46875 0.421875 2.5625q0.4375 1.078125 1.328125 1.625q0.90625 0.53125 1.953125 0.53125q1.265625 0 2.140625 -0.734375q0.890625 -0.734375 1.203125 -2.171875z" fill-rule="nonzero"/><path fill="#000000" fill-opacity="0.0" d="m115.66535 222.74832l0 0l0 18.398438l0 0l0 -18.398438z" fill-rule="nonzero"/><path fill="#000000" fill-opacity="0.0" d="m140.9567 232.25853l613.0393 -4.2519684" fill-rule="evenodd"/><path stroke="#000000" stroke-width="1.0" stroke-linejoin="round" stroke-linecap="butt" d="m140.9567 232.25853l607.03955 -4.2103577" fill-rule="evenodd"/><path fill="#000000" stroke="#000000" stroke-width="1.0" stroke-linecap="butt" d="m748.0077 229.69987l4.5264893 -1.6831665l-4.5494385 -1.620224z" fill-rule="evenodd"/><path fill="#000000" fill-opacity="0.0" d="m484.01575 236.21916l70.99213 0l0 38.771652l-70.99213 0z" fill-rule="evenodd"/><path fill="#000000" d="m509.8243 249.14166q-0.0625 2.25 -0.0625 5.4375q0 3.1875 0.0625 5.0l-1.3125 0l0 -1.1875l-2.5 0l0 2.0625l-1.3125 0q0.0625 -2.875 0.0625 -5.75q0 -2.9375 -0.0625 -5.5625l5.125 0zm5.8750305 1.875q0 -1.875 -0.0625 -3.5l1.375 0q-0.0625 1.625 -0.0625 3.5q0.9375 0 2.0 -0.0625l0 1.1875q-1.0625 -0.0625 -2.0 -0.0625l0 8.375q0 0.9375 -0.75 1.1875q-0.75 0.25 -1.9375 0.375q0 -0.75 -0.6875 -1.4375q1.1875 0.125 1.65625 0.0625q0.46875 -0.0625 0.46875 -0.8125l0 -7.75q-3.125 0 -5.2500305 0.0625l0 -1.1875q2.0000305 0.0625 5.2500305 0.0625zm-7.1875305 6.3125l0 -3.125l-2.5 0l0 3.125l2.5 0zm0 -4.1875l0 -2.9375l-2.5 0l0 2.9375l2.5 0zm3.8750305 0.625q0.8125 1.3125 1.5625 2.8125q-0.625 0.1875 -1.3125 0.5625q-0.5 -1.5 -1.4375305 -2.8125q0.5625 -0.25 1.1875305 -0.5625zm18.25 -2.0625q-0.0625 1.1875 -0.0625 2.0625l0 3.3125q0 0.8125 0.0625 1.9375l-6.3125 0q0.0625 -1.125 0.0625 -2.0l0 -3.25q0 -0.875 -0.0625 -2.0625l6.3125 0zm3.375 -3.3125q-0.0625 1.1875 -0.0625 2.375l0 9.1875q0.0625 1.4375 -0.78125 1.75q-0.84375 0.3125 -1.84375 0.4375q-0.0625 -0.75 -0.5 -1.5q1.1875 0.0625 1.53125 -0.125q0.34375 -0.1875 0.34375 -0.8125l0 -10.25l-3.75 0q-1.5 0 -2.8125 0.0625l0 -1.1875q1.3125 0.0625 2.8125 0.0625l5.0625 0zm-13.125 13.5q0.125 -1.25 0.125 -2.625l0 -6.5625q0 -1.3125 -0.125 -2.1875l1.4375 0q-0.0625 0.9375 -0.0625 1.8125l0 7.0q0 1.25 0.0625 2.5625l-1.4375 0zm8.5 -3.875l0 -2.3125l-3.8125 0l0 2.3125l3.8125 0zm0 -3.3125l0 -2.0l-3.8125 0l0 2.0l3.8125 0zm-6.0625 -7.375q0.5625 0.75 1.75 2.375q-0.6875 0.3125 -1.3125 0.6875q-0.625 -1.25 -1.5625 -2.375q0.6875 -0.5 1.125 -0.6875z" fill-rule="nonzero"/><path fill="#000000" fill-opacity="0.0" d="m146.0 7.0091863l121.00787 0l0 58.173225l-121.00787 0z" fill-rule="evenodd"/><path fill="#000000" d="m184.12894 21.556686l1.0 -2.625l1.3125 0.3125q0.25 0.25 -0.1875 0.3125l-0.875 2.0l3.6875 0l0 1.1875l-3.5625 0l0 1.875l2.8125 0l0 1.1875l-2.8125 0l0 1.8125l2.8125 0l0 1.1875l-2.8125 0l0 2.0l4.0 0l0 1.1875l-7.625 0l0 0.5l-1.25 0l0 -8.75q-0.5625 0.875 -1.75 2.125l-0.875 -1.125q2.8125 -2.75 3.6875 -6.125l1.375 0.375q0.3125 0.25 -0.125 0.3125q-0.3125 1.0 -1.0 2.25l2.1875 0zm-8.75 9.0q1.4375 -1.6875 2.6875 -3.9375l1.0 1.0q-1.0625 2.0625 -2.375 3.875q0 0.5 -0.25 0.375l-1.0625 -1.3125zm8.875 -5.9375l0 -1.875l-2.375 0l0 1.875l2.375 0zm0 1.1875l-2.375 0l0 1.8125l2.375 0l0 -1.8125zm0 3.0l-2.375 0l0 2.0l2.375 0l0 -2.0zm-7.3125 -9.0q1.4375 0.75 2.1875 1.6875l-0.9375 1.125q-0.875 -0.9375 -2.125 -1.75l0.875 -1.0625z" fill-rule="nonzero"/><path fill="#000000" d="m203.25394 26.306686q-0.0625 1.125 -0.0625 3.3125q0 2.125 0.0625 3.3125l-1.1875 0l0 -0.8125l-7.0625 0l0 0.8125l-1.1875 0q0.0625 -1.1875 0.0625 -3.3125q0 -2.1875 -0.0625 -3.3125l9.4375 0zm-11.4375 0.375q-0.125 -0.5625 -0.6875 -1.1875q1.5625 -0.125 3.40625 -0.5q1.84375 -0.375 2.96875 -1.0q-1.4375 -1.1875 -2.375 -2.125q-0.75 0.75 -1.75 1.625q-0.5625 -0.5 -1.0 -0.6875q2.4375 -1.875 3.8125 -4.6875q0.625 0.375 1.3125 0.625l-0.5 0.5q-0.1875 0.1875 -0.625 0.75l6.9375 0q-0.5625 1.0625 -1.46875 2.09375q-0.90625 1.03125 -2.15625 1.96875q1.0 0.5 2.90625 0.8125q1.90625 0.3125 3.34375 0.1875q-0.375 0.625 -0.5625 1.3125q-2.25 -0.25 -3.75 -0.53125q-1.5 -0.28125 -3.0625 -1.09375q-1.75 0.8125 -3.65625 1.25q-1.90625 0.4375 -3.09375 0.6875zm3.9375 -5.625q1.3125 1.25 2.9375 2.375q1.3125 -0.8125 2.75 -2.5625l-5.5 0l-0.1875 0.1875zm6.3125 7.6875l0 -1.5l-3.0 0l0 1.5l3.0 0zm-4.125 0l0 -1.5l-2.9375 0l0 1.5l2.9375 0zm4.125 2.375l0 -1.4375l-3.0 0l0 1.4375l3.0 0zm-4.125 0l0 -1.4375l-2.9375 0l0 1.4375l2.9375 0zm15.25 -3.375q0 -1.0625 -0.0625 -2.5l7.25 0q-0.0625 1.0625 -0.0625 2.125l0 4.5q0 0.5625 -0.40625 0.71875q-0.40625 0.15625 -1.40625 0.34375q-0.125 -0.5625 -0.5 -1.125q1.125 0 1.125 -0.375l0 -1.25l-4.75 0l0 2.625l-1.25 0q0.0625 -1.25 0.0625 -2.4375l0 -2.625zm-1.3125 -4.25q1.0 0.0625 4.25 0.0625l0 -1.1875q-2.375 0 -3.375 0.0625l0 -0.9375q1.0 0.0625 3.375 0.0625l0 -0.9375q-2.6875 0 -3.75 0.0625l0 -1.0q1.125 0.0625 3.75 0.0625q0 -0.6875 -0.0625 -1.3125l1.3125 0q-0.0625 0.6875 -0.0625 1.3125q2.9375 0 3.9375 -0.0625l0 1.0q-1.0 -0.0625 -3.9375 -0.0625l0 0.9375q2.75 0 3.5625 -0.0625l0 0.9375q-0.9375 -0.0625 -3.5625 -0.0625l0 1.1875q3.5625 0 4.5 -0.0625l0 1.0q-0.8125 -0.0625 -4.875 -0.0625q-4.0 0 -5.0625 0.0625l0 -1.0zm0.625 5.8125q-0.8125 0.625 -1.6875 1.40625q-0.875 0.78125 -1.4375 1.40625q-0.4375 -0.6875 -0.875 -1.125q0.625 -0.4375 0.625 -1.1875l0 -5.3125q-0.9375 0 -1.9375 0.0625l0 -1.125q0.8125 0.0625 1.3125 0.0625l1.8125 0q-0.0625 1.0 -0.0625 2.25l0 4.0625q1.0 -0.875 1.5625 -1.5625q0.25 0.625 0.6875 1.0625zm6.625 0l0 -1.1875l-4.75 0l0 1.1875l4.75 0zm0 -2.0625l0 -1.0625l-4.75 0l0 1.0625l4.75 0zm-8.6875 -5.25q-0.9375 -1.375 -2.125 -2.4375q0.4375 -0.3125 0.8125 -0.6875q1.4375 1.25 2.25 2.3125q-0.5625 0.5 -0.9375 0.8125z" fill-rule="nonzero"/><path fill="#000000" d="m223.50394 29.744186q3.8125 -2.0625 6.1875 -4.125l0 -3.0625l-6.125 0l0 -1.1875l6.125 0l0 -2.8125l1.1875 0q0.5 0.0625 0.0625 0.375l0 2.4375l3.25 0q-0.75 -0.75 -2.0 -1.3125l1.0 -1.0625q1.125 0.4375 2.1875 1.4375l-1.0 0.9375l2.625 0l0 1.1875l-6.0625 0l0 0.5q0.25 1.0625 1.3125 2.6875q1.375 -1.0 2.5625 -2.4375l1.1875 1.0625q0.0625 0.3125 -0.3125 0.1875q-0.875 0.875 -2.625 2.125q1.375 1.8125 4.4375 3.1875l-0.8125 1.5625q-3.8125 -1.875 -5.75 -5.75l0 5.9375q0 1.0 -1.0 1.0l-1.5625 0l-0.25 -1.375l1.3125 0q0.25 0 0.25 -0.25l0 -3.6875q-1.625 1.5 -4.9375 3.625q0.125 0.375 -0.1875 0.3125l-1.0625 -1.5zm3.4375 -3.0q-1.0 -1.25 -2.0625 -2.0625l1.0625 -1.0625q1.125 0.625 2.1875 1.875l-1.1875 1.25z" fill-rule="nonzero"/><path fill="#000000" d="m196.4805 53.756687l0 -14.640625l3.09375 0l0 1.15625l-1.6875 0l0 12.3125l1.6875 0l0 1.171875l-3.09375 0zm9.3203125 -3.1875l-1.40625 0l0 -8.96875q-0.515625 0.484375 -1.34375 0.96875q-0.8125 0.484375 -1.46875 0.734375l0 -1.359375q1.171875 -0.5625 2.046875 -1.34375q0.890625 -0.796875 1.265625 -1.53125l0.90625 0l0 11.5zm4.3515625 0l0 -1.609375l1.609375 0l0 1.609375q0 0.890625 -0.3125 1.421875q-0.3125 0.546875 -1.0 0.84375l-0.390625 -0.59375q0.453125 -0.203125 0.65625 -0.578125q0.21875 -0.375 0.234375 -1.09375l-0.796875 0zm6.4296875 3.1875l-3.09375 0l0 -1.171875l1.6875 0l0 -12.3125l-1.6875 0l0 -1.15625l3.09375 0l0 14.640625z" fill-rule="nonzero"/><path fill="#000000" fill-opacity="0.0" d="m286.46982 55.581364l121.00787 0l0 58.17323l-121.00787 0z" fill-rule="evenodd"/><path fill="#000000" d="m324.59875 70.12887l1.0 -2.625l1.3125 0.3125q0.25 0.25 -0.1875 0.3125l-0.875 2.0l3.6875 0l0 1.1875l-3.5625 0l0 1.875l2.8125 0l0 1.1875l-2.8125 0l0 1.8125l2.8125 0l0 1.1875l-2.8125 0l0 2.0l4.0 0l0 1.1875l-7.625 0l0 0.5l-1.25 0l0 -8.75q-0.5625 0.875 -1.75 2.125l-0.875 -1.125q2.8125 -2.75 3.6875 -6.125l1.375 0.375q0.3125 0.25 -0.125 0.3125q-0.3125 1.0 -1.0 2.25l2.1875 0zm-8.75 9.0q1.4375 -1.6875 2.6875 -3.9375l1.0 1.0q-1.0625 2.0625 -2.375 3.875q0 0.5 -0.25 0.375l-1.0625 -1.3125zm8.875 -5.9375l0 -1.875l-2.375 0l0 1.875l2.375 0zm0 1.1875l-2.375 0l0 1.8125l2.375 0l0 -1.8125zm0 3.0l-2.375 0l0 2.0l2.375 0l0 -2.0zm-7.3125 -9.0q1.4375 0.75 2.1875 1.6875l-0.9375 1.125q-0.875 -0.9375 -2.125 -1.75l0.875 -1.0625z" fill-rule="nonzero"/><path fill="#000000" d="m343.72375 74.87887q-0.0625 1.125 -0.0625 3.3125q0 2.125 0.0625 3.3125l-1.1875 0l0 -0.8125l-7.0625 0l0 0.8125l-1.1875 0q0.0625 -1.1875 0.0625 -3.3125q0 -2.1875 -0.0625 -3.3125l9.4375 0zm-11.4375 0.375q-0.125 -0.5625 -0.6875 -1.1875q1.5625 -0.125 3.40625 -0.5q1.84375 -0.375 2.96875 -1.0q-1.4375 -1.1875 -2.375 -2.125q-0.75 0.75 -1.75 1.625q-0.5625 -0.5 -1.0 -0.6875q2.4375 -1.875 3.8125 -4.6875q0.625 0.375 1.3125 0.625l-0.5 0.5q-0.1875 0.1875 -0.625 0.75l6.9375 0q-0.5625 1.0625 -1.46875 2.09375q-0.90625 1.03125 -2.15625 1.96875q1.0 0.5 2.90625 0.8125q1.90625 0.3125 3.34375 0.1875q-0.375 0.625 -0.5625 1.3125q-2.25 -0.25 -3.75 -0.53125q-1.5 -0.28125 -3.0625 -1.09375q-1.75 0.8125 -3.65625 1.25q-1.90625 0.4375 -3.09375 0.6875zm3.9375 -5.625q1.3125 1.25 2.9375 2.375q1.3125 -0.8125 2.75 -2.5625l-5.5 0l-0.1875 0.1875zm6.3125 7.6875l0 -1.5l-3.0 0l0 1.5l3.0 0zm-4.125 0l0 -1.5l-2.9375 0l0 1.5l2.9375 0zm4.125 2.375l0 -1.4375l-3.0 0l0 1.4375l3.0 0zm-4.125 0l0 -1.4375l-2.9375 0l0 1.4375l2.9375 0zm15.25 -3.375q0 -1.0625 -0.0625 -2.5l7.25 0q-0.0625 1.0625 -0.0625 2.125l0 4.5q0 0.5625 -0.40625 0.71875q-0.40625 0.15625 -1.40625 0.34375q-0.125 -0.5625 -0.5 -1.125q1.125 0 1.125 -0.375l0 -1.25l-4.75 0l0 2.625l-1.25 0q0.0625 -1.25 0.0625 -2.4375l0 -2.625zm-1.3125 -4.25q1.0 0.0625 4.25 0.0625l0 -1.1875q-2.375 0 -3.375 0.0625l0 -0.9375q1.0 0.0625 3.375 0.0625l0 -0.9375q-2.6875 0 -3.75 0.0625l0 -1.0q1.125 0.0625 3.75 0.0625q0 -0.6875 -0.0625 -1.3125l1.3125 0q-0.0625 0.6875 -0.0625 1.3125q2.9375 0 3.9375 -0.0625l0 1.0q-1.0 -0.0625 -3.9375 -0.0625l0 0.9375q2.75 0 3.5625 -0.0625l0 0.9375q-0.9375 -0.0625 -3.5625 -0.0625l0 1.1875q3.5625 0 4.5 -0.0625l0 1.0q-0.8125 -0.0625 -4.875 -0.0625q-4.0 0 -5.0625 0.0625l0 -1.0zm0.625 5.8125q-0.8125 0.625 -1.6875 1.40625q-0.875 0.78125 -1.4375 1.40625q-0.4375 -0.6875 -0.875 -1.125q0.625 -0.4375 0.625 -1.1875l0 -5.3125q-0.9375 0 -1.9375 0.0625l0 -1.125q0.8125 0.0625 1.3125 0.0625l1.8125 0q-0.0625 1.0 -0.0625 2.25l0 4.0625q1.0 -0.875 1.5625 -1.5625q0.25 0.625 0.6875 1.0625zm6.625 0l0 -1.1875l-4.75 0l0 1.1875l4.75 0zm0 -2.0625l0 -1.0625l-4.75 0l0 1.0625l4.75 0zm-8.6875 -5.25q-0.9375 -1.375 -2.125 -2.4375q0.4375 -0.3125 0.8125 -0.6875q1.4375 1.25 2.25 2.3125q-0.5625 0.5 -0.9375 0.8125z" fill-rule="nonzero"/><path fill="#000000" d="m363.97375 78.31637q3.8125 -2.0625 6.1875 -4.125l0 -3.0625l-6.125 0l0 -1.1875l6.125 0l0 -2.8125l1.1875 0q0.5 0.0625 0.0625 0.375l0 2.4375l3.25 0q-0.75 -0.75 -2.0 -1.3125l1.0 -1.0625q1.125 0.4375 2.1875 1.4375l-1.0 0.9375l2.625 0l0 1.1875l-6.0625 0l0 0.5q0.25 1.0625 1.3125 2.6875q1.375 -1.0 2.5625 -2.4375l1.1875 1.0625q0.0625 0.3125 -0.3125 0.1875q-0.875 0.875 -2.625 2.125q1.375 1.8125 4.4375 3.1875l-0.8125 1.5625q-3.8125 -1.875 -5.75 -5.75l0 5.9375q0 1.0 -1.0 1.0l-1.5625 0l-0.25 -1.375l1.3125 0q0.25 0 0.25 -0.25l0 -3.6875q-1.625 1.5 -4.9375 3.625q0.125 0.375 -0.1875 0.3125l-1.0625 -1.5zm3.4375 -3.0q-1.0 -1.25 -2.0625 -2.0625l1.0625 -1.0625q1.125 0.625 2.1875 1.875l-1.1875 1.25z" fill-rule="nonzero"/><path fill="#000000" d="m336.95032 102.328865l0 -14.640625l3.09375 0l0 1.15625l-1.6875 0l0 12.3125l1.6875 0l0 1.171875l-3.09375 0zm4.0234375 -6.21875l1.40625 -0.1875q0.25 1.203125 0.828125 1.734375q0.578125 0.515625 1.421875 0.515625q0.984375 0 1.671875 -0.6875q0.6875 -0.6875 0.6875 -1.703125q0 -0.96875 -0.640625 -1.59375q-0.625 -0.625 -1.609375 -0.625q-0.390625 0 -0.984375 0.15625l0.15625 -1.234375q0.140625 0.015625 0.21875 0.015625q0.90625 0 1.625 -0.46875q0.71875 -0.46875 0.71875 -1.453125q0 -0.765625 -0.53125 -1.265625q-0.515625 -0.515625 -1.34375 -0.515625q-0.828125 0 -1.375 0.515625q-0.546875 0.515625 -0.703125 1.546875l-1.40625 -0.25q0.265625 -1.421875 1.171875 -2.1875q0.921875 -0.78125 2.28125 -0.78125q0.9375 0 1.71875 0.40625q0.796875 0.390625 1.203125 1.09375q0.421875 0.6875 0.421875 1.46875q0 0.75 -0.40625 1.359375q-0.390625 0.609375 -1.171875 0.96875q1.015625 0.234375 1.578125 0.96875q0.5625 0.734375 0.5625 1.84375q0 1.5 -1.09375 2.546875q-1.09375 1.046875 -2.765625 1.046875q-1.5 0 -2.5 -0.890625q-1.0 -0.90625 -1.140625 -2.34375zm9.6484375 3.03125l0 -1.609375l1.609375 0l0 1.609375q0 0.890625 -0.3125 1.421875q-0.3125 0.546875 -1.0 0.84375l-0.390625 -0.59375q0.453125 -0.203125 0.65625 -0.578125q0.21875 -0.375 0.234375 -1.09375l-0.796875 0zm6.4296875 3.1875l-3.09375 0l0 -1.171875l1.6875 0l0 -12.3125l-1.6875 0l0 -1.15625l3.09375 0l0 14.640625z" fill-rule="nonzero"/><path fill="#000000" fill-opacity="0.0" d="m206.50394 65.18241l-9.51181 82.04725" fill-rule="evenodd"/><path stroke="#000000" stroke-width="1.0" stroke-linejoin="round" stroke-linecap="butt" d="m206.50394 65.18241l-8.820847 76.087166" fill-rule="evenodd"/><path fill="#000000" stroke="#000000" stroke-width="1.0" stroke-linecap="butt" d="m196.04234 141.07936l1.1181335 4.69812l2.1633453 -4.317688z" fill-rule="evenodd"/><path fill="#000000" fill-opacity="0.0" d="m206.50394 65.18241l26.48819 124.0315" fill-rule="evenodd"/><path stroke="#000000" stroke-width="1.0" stroke-linejoin="round" stroke-linecap="butt" d="m206.50394 65.18241l25.235092 118.163826" fill-rule="evenodd"/><path fill="#000000" stroke="#000000" stroke-width="1.0" stroke-linecap="butt" d="m230.12372 183.6912l2.563095 4.093048l0.667511 -4.7829742z" fill-rule="evenodd"/><path fill="#000000" fill-opacity="0.0" d="m206.50394 65.18241l277.5118 165.03937" fill-rule="evenodd"/><path stroke="#000000" stroke-width="1.0" stroke-linejoin="round" stroke-linecap="butt" d="m206.50394 65.18241l272.35486 161.97247" fill-rule="evenodd"/><path fill="#000000" stroke="#000000" stroke-width="1.0" stroke-linecap="butt" d="m478.01453 228.57454l4.7447205 0.8999939l-3.0561829 -3.7392883z" fill-rule="evenodd"/><path fill="#000000" fill-opacity="0.0" d="m346.97375 113.75459l-9.984253 28.472443" fill-rule="evenodd"/><path stroke="#000000" stroke-width="1.0" stroke-linejoin="round" stroke-linecap="butt" d="m346.97375 113.75459l-7.99881 22.810455" fill-rule="evenodd"/><path fill="#000000" stroke="#000000" stroke-width="1.0" stroke-linecap="butt" d="m337.41626 136.01848l0.057006836 4.82901l3.0603638 -3.735855z" fill-rule="evenodd"/><path fill="#000000" fill-opacity="0.0" d="m346.97375 113.75459l15.023621 67.46457" fill-rule="evenodd"/><path stroke="#000000" stroke-width="1.0" stroke-linejoin="round" stroke-linecap="butt" d="m346.97375 113.75459l13.719452 61.608017" fill-rule="evenodd"/><path fill="#000000" stroke="#000000" stroke-width="1.0" stroke-linecap="butt" d="m359.08093 175.72165l2.5986633 4.0705566l0.625824 -4.78862z" fill-rule="evenodd"/><path fill="#000000" fill-opacity="0.0" d="m346.97375 113.75459l72.031494 118.456696" fill-rule="evenodd"/><path stroke="#000000" stroke-width="1.0" stroke-linejoin="round" stroke-linecap="butt" d="m346.97375 113.75459l68.91412 113.33011" fill-rule="evenodd"/><path fill="#000000" stroke="#000000" stroke-width="1.0" stroke-linecap="butt" d="m414.47656 227.94289l3.7691345 3.0193024l-0.9465332 -4.735672z" fill-rule="evenodd"/></g></svg>