<svg version="1.1" viewBox="0.0 0.0 590.3753280839895 590.3753280839895" fill="none" stroke="none" stroke-linecap="square" stroke-miterlimit="10" xmlns:xlink="http://www.w3.org/1999/xlink" xmlns="http://www.w3.org/2000/svg"><clipPath id="p.0"><path d="m0 0l590.3753 0l0 590.3753l-590.3753 0l0 -590.3753z" clip-rule="nonzero"/></clipPath><g clip-path="url(#p.0)"><path fill="#000000" fill-opacity="0.0" d="m0 0l590.3753 0l0 590.3753l-590.3753 0z" fill-rule="evenodd"/><path fill="#6aa84f" d="m50.671917 125.49606l0 0c0 -19.847458 29.986347 -35.93701 66.97638 -35.93701l0 0c36.99003 0 66.97637 16.089554 66.97637 35.93701l0 0c0 19.847458 -29.986343 35.93701 -66.97637 35.93701l0 0c-36.99003 0 -66.97638 -16.089554 -66.97638 -35.93701z" fill-rule="evenodd"/><path fill="#000000" d="m91.50869 132.41606l0 -13.359375l2.5625 0l0 13.359375l-2.5625 0zm10.777054 -3.078125l2.546875 0.421875q-0.484375 1.40625 -1.546875 2.140625q-1.0625 0.734375 -2.65625 0.734375q-2.515625 0 -3.734375 -1.65625q-0.953125 -1.3125 -0.953125 -3.328125q0 -2.40625 1.25 -3.765625q1.265625 -1.359375 3.1875 -1.359375q2.15625 0 3.40625 1.421875q1.25 1.421875 1.1875 4.375l-6.40625 0q0.03125 1.140625 0.609375 1.78125q0.59375 0.625 1.484375 0.625q0.59375 0 1.0 -0.328125q0.421875 -0.328125 0.625 -1.0625zm0.15625 -2.59375q-0.03125 -1.109375 -0.578125 -1.6875q-0.546875 -0.578125 -1.328125 -0.578125q-0.84375 0 -1.390625 0.609375q-0.546875 0.609375 -0.53125 1.65625l3.828125 0zm6.531967 -1.046875l-2.328125 -0.421875q0.40625 -1.40625 1.359375 -2.078125q0.953125 -0.671875 2.84375 -0.671875q1.703125 0 2.546875 0.40625q0.84375 0.40625 1.171875 1.03125q0.34375 0.625 0.34375 2.28125l-0.015625 3.0q0 1.265625 0.109375 1.875q0.125 0.609375 0.46875 1.296875l-2.53125 0q-0.109375 -0.25 -0.25 -0.75q-0.0625 -0.234375 -0.09375 -0.3125q-0.65625 0.640625 -1.40625 0.96875q-0.734375 0.3125 -1.59375 0.3125q-1.484375 0 -2.34375 -0.8125q-0.859375 -0.8125 -0.859375 -2.046875q0 -0.828125 0.390625 -1.46875q0.390625 -0.640625 1.09375 -0.96875q0.703125 -0.34375 2.03125 -0.609375q1.796875 -0.328125 2.484375 -0.625l0 -0.25q0 -0.75 -0.359375 -1.0625q-0.359375 -0.3125 -1.375 -0.3125q-0.6875 0 -1.078125 0.28125q-0.375 0.265625 -0.609375 0.9375zm3.421875 2.078125q-0.484375 0.15625 -1.5625 0.390625q-1.0625 0.21875 -1.390625 0.4375q-0.5 0.359375 -0.5 0.90625q0 0.53125 0.40625 0.9375q0.40625 0.390625 1.015625 0.390625q0.703125 0 1.328125 -0.46875q0.46875 -0.34375 0.609375 -0.84375q0.09375 -0.328125 0.09375 -1.25l0 -0.5zm13.922592 4.640625l-2.390625 0l0 -1.421875q-0.59375 0.828125 -1.40625 1.234375q-0.796875 0.40625 -1.609375 0.40625q-1.671875 0 -2.859375 -1.34375q-1.1875 -1.34375 -1.1875 -3.75q0 -2.453125 1.15625 -3.734375q1.15625 -1.28125 2.921875 -1.28125q1.625 0 2.8125 1.34375l0 -4.8125l2.5625 0l0 13.359375zm-6.84375 -5.046875q0 1.546875 0.4375 2.234375q0.609375 1.015625 1.71875 1.015625q0.890625 0 1.5 -0.75q0.625 -0.765625 0.625 -2.25q0 -1.671875 -0.609375 -2.40625q-0.59375 -0.734375 -1.53125 -0.734375q-0.90625 0 -1.53125 0.734375q-0.609375 0.71875 -0.609375 2.15625zm14.958488 1.96875l2.546875 0.421875q-0.484375 1.40625 -1.546875 2.140625q-1.0625 0.734375 -2.65625 0.734375q-2.515625 0 -3.734375 -1.65625q-0.953125 -1.3125 -0.953125 -3.328125q0 -2.40625 1.25 -3.765625q1.265625 -1.359375 3.1875 -1.359375q2.15625 0 3.40625 1.421875q1.25 1.421875 1.1875 4.375l-6.40625 0q0.03125 1.140625 0.609375 1.78125q0.59375 0.625 1.484375 0.625q0.59375 0 1.0 -0.328125q0.421875 -0.328125 0.625 -1.0625zm0.15625 -2.59375q-0.03125 -1.109375 -0.578125 -1.6875q-0.546875 -0.578125 -1.328125 -0.578125q-0.84375 0 -1.390625 0.609375q-0.546875 0.609375 -0.53125 1.65625l3.828125 0zm7.078842 5.671875l-2.5625 0l0 -9.671875l2.375 0l0 1.375q0.609375 -0.984375 1.09375 -1.28125q0.484375 -0.3125 1.109375 -0.3125q0.875 0 1.6875 0.484375l-0.796875 2.234375q-0.640625 -0.421875 -1.203125 -0.421875q-0.53125 0 -0.90625 0.296875q-0.375 0.296875 -0.59375 1.078125q-0.203125 0.765625 -0.203125 3.234375l0 2.984375z" fill-rule="nonzero"/><path fill="#6d9eeb" d="m410.47507 125.49606l0 0c0 -19.847458 29.986359 -35.93701 66.97638 -35.93701l0 0c36.99002 0 66.97635 16.089554 66.97635 35.93701l0 0c0 19.847458 -29.986328 35.93701 -66.97635 35.93701l0 0c-36.99002 0 -66.97638 -16.089554 -66.97638 -35.93701z" fill-rule="evenodd"/><path fill="#000000" d="m441.91086 122.74419l1.421875 0l0 -0.734375q0 -1.21875 0.25 -1.8125q0.265625 -0.609375 0.953125 -0.984375q0.703125 -0.375 1.78125 -0.375q1.09375 0 2.140625 0.328125l-0.359375 1.78125q-0.609375 -0.140625 -1.171875 -0.140625q-0.546875 0 -0.796875 0.265625q-0.234375 0.25 -0.234375 0.984375l0 0.6875l1.90625 0l0 2.015625l-1.90625 0l0 7.65625l-2.5625 0l0 -7.65625l-1.421875 0l0 -2.015625zm6.743927 4.703125q0 -1.28125 0.625 -2.46875q0.625 -1.203125 1.78125 -1.828125q1.15625 -0.625 2.578125 -0.625q2.1875 0 3.59375 1.421875q1.40625 1.421875 1.40625 3.609375q0 2.1875 -1.421875 3.640625q-1.421875 1.4375 -3.5625 1.4375q-1.328125 0 -2.546875 -0.59375q-1.203125 -0.609375 -1.828125 -1.765625q-0.625 -1.171875 -0.625 -2.828125zm2.625 0.125q0 1.453125 0.671875 2.21875q0.6875 0.75 1.6875 0.75q1.0 0 1.671875 -0.75q0.6875 -0.765625 0.6875 -2.234375q0 -1.421875 -0.6875 -2.1875q-0.671875 -0.765625 -1.671875 -0.765625q-1.0 0 -1.6875 0.765625q-0.671875 0.765625 -0.671875 2.203125zm9.364746 4.84375l0 -13.359375l2.5625 0l0 13.359375l-2.5625 0zm5.1832886 0l0 -13.359375l2.5625 0l0 13.359375l-2.5625 0zm4.589569 -4.96875q0 -1.28125 0.625 -2.46875q0.625 -1.203125 1.78125 -1.828125q1.15625 -0.625 2.578125 -0.625q2.1875 0 3.59375 1.421875q1.40625 1.421875 1.40625 3.609375q0 2.1875 -1.421875 3.640625q-1.421875 1.4375 -3.5625 1.4375q-1.328125 0 -2.546875 -0.59375q-1.203125 -0.609375 -1.828125 -1.765625q-0.625 -1.171875 -0.625 -2.828125zm2.625 0.125q0 1.453125 0.671875 2.21875q0.6875 0.75 1.6875 0.75q1.0 0 1.671875 -0.75q0.6875 -0.765625 0.6875 -2.234375q0 -1.421875 -0.6875 -2.1875q-0.671875 -0.765625 -1.671875 -0.765625q-1.0 0 -1.6875 0.765625q-0.671875 0.765625 -0.671875 2.203125zm11.161591 4.84375l-3.0625 -9.671875l2.484375 0l1.8125 6.34375l1.671875 -6.34375l2.46875 0l1.609375 6.34375l1.859375 -6.34375l2.515625 0l-3.109375 9.671875l-2.453125 0l-1.671875 -6.21875l-1.640625 6.21875l-2.484375 0zm18.30832 -3.078125l2.546875 0.421875q-0.484375 1.40625 -1.546875 2.140625q-1.0625 0.734375 -2.65625 0.734375q-2.515625 0 -3.734375 -1.65625q-0.953125 -1.3125 -0.953125 -3.328125q0 -2.40625 1.25 -3.765625q1.265625 -1.359375 3.1875 -1.359375q2.15625 0 3.40625 1.421875q1.25 1.421875 1.1875 4.375l-6.40625 0q0.03125 1.140625 0.609375 1.78125q0.59375 0.625 1.484375 0.625q0.59375 0 1.0 -0.328125q0.421875 -0.328125 0.625 -1.0625zm0.15625 -2.59375q-0.03125 -1.109375 -0.578125 -1.6875q-0.546875 -0.578125 -1.328125 -0.578125q-0.84375 0 -1.390625 0.609375q-0.546875 0.609375 -0.53125 1.65625l3.828125 0zm7.078827 5.671875l-2.5625 0l0 -9.671875l2.375 0l0 1.375q0.609375 -0.984375 1.09375 -1.28125q0.484375 -0.3125 1.109375 -0.3125q0.875 0 1.6875 0.484375l-0.796875 2.234375q-0.640625 -0.421875 -1.203125 -0.421875q-0.53125 0 -0.90625 0.296875q-0.375 0.296875 -0.59375 1.078125q-0.203125 0.765625 -0.203125 3.234375l0 2.984375z" fill-rule="nonzero"/><path fill="#000000" fill-opacity="0.0" d="m193.84776 12.808399l207.40157 0l0 87.27559l-207.40157 0z" fill-rule="evenodd"/><path fill="#000000" d="m218.19151 39.728397l-2.5625 0l0 -9.640625q-1.40625 1.3125 -3.3125 1.9375l0 -2.328125q1.015625 -0.328125 2.1875 -1.234375q1.171875 -0.921875 1.609375 -2.140625l2.078125 0l0 13.40625zm4.375717 0l0 -2.5625l2.5625 0l0 2.5625l-2.5625 0z" fill-rule="nonzero"/><path fill="#000000" d="m232.60991 40.400272l-2.484375 0l0 -15.109375l12.421875 0l0 14.8125l-2.484375 0l0 -1.046875l-7.453125 0l0 1.34375zm7.453125 -9.46875l0 -3.453125l-7.453125 0l0 3.453125l7.453125 0zm0 5.9375l0 -3.75l-7.453125 0l0 3.75l7.453125 0zm20.687515 0.46875q-0.171875 3.578125 -2.1875 3.578125l-5.7187653 0q-1.71875 0 -1.71875 -1.875l0 -5.65625l1.8125 0q1.625 0.171875 0.453125 1.03125l0 4.109375q0 0.203125 0.125 0.203125l4.4531403 0q0.171875 0 0.203125 -0.203125l0.296875 -1.75l2.28125 0.5625zm-10.35939 -1.8125q-0.28125 2.21875 -1.6875 5.03125l-2.15625 -1.296875q1.25 -2.34375 1.671875 -5.46875l2.015625 0.5625q1.484375 0.59375 0.15625 1.171875zm6.0468903 -7.15625l0 1.96875l5.78125 0l0 2.1875l-13.98439 0l0 -2.1875l5.9375 0l0 -1.96875l-7.125 0l0 -2.1875l7.125 0l0 -2.453125l1.8281403 0q1.578125 0.203125 0.4375 1.046875l0 1.40625l6.96875 0l0 2.1875l-6.96875 0zm5.71875 11.484375q-1.625 -3.046875 -3.1875 -4.78125l1.78125 -1.546875q1.90625 2.015625 3.53125 4.640625l-2.125 1.6875zm-6.6562653 -7.5q1.5156403 1.703125 2.6093903 3.421875l-1.9375 1.625q-1.1875153 -2.0 -2.5468903 -3.625l1.875 -1.421875zm21.17189 5.828125q0.765625 0.328125 4.609375 0.75l-0.859375 2.390625q-3.875 -0.5 -5.671875 -1.53125q-2.109375 1.265625 -6.140625 1.671875l-0.78125 -2.25q3.546875 -0.328125 5.046875 -1.03125q-0.59375 -0.53125 -0.875 -1.0625q-0.953125 1.046875 -2.71875 1.90625l-1.34375 -1.90625q3.03125 -1.625 3.84375 -3.109375l-1.359375 0l0 -4.046875l-1.15625 1.140625l-1.796875 -1.5625q2.71875 -2.453125 4.09375 -6.078125l1.921875 0.78125q0.921875 0.921875 -0.1875 1.046875l-0.09375 0.21875l7.28125 0l0 2.1875l-8.34375 0l-0.03125 0.046875l6.890625 0l0 6.265625l-4.703125 0l-0.0625 0.109375l2.875 0l0.4375 -0.4375l1.34375 1.171875q1.40625 0.671875 -0.203125 1.046875q-0.96875 1.40625 -2.015625 2.28125zm-2.890625 -2.09375q0.140625 0.234375 0.953125 0.890625q0.921875 -0.796875 0.984375 -0.890625l-1.9375 0zm-1.3125 -6.375l0 0.171875l4.484375 0l0 -0.171875l-4.484375 0zm0 2.140625l0 0.1875l4.484375 0l0 -0.1875l-4.484375 0zm26.6875 7.171875q0 0.09375 -0.09375 0.09375l0 -14.875l1.84375 0q1.609375 0.21875 0.421875 1.046875l0 14.5q0 1.421875 -1.421875 1.421875l-2.0 0l-0.59375 -2.1875l1.84375 0zm-10.734375 -12.703125l0.703125 0l0 -2.59375l1.828125 0q1.578125 0.203125 0.4375 1.046875l0 1.546875l3.34375 0l0 2.203125l-3.34375 0l0 1.140625l4.59375 0l0 2.1875l-4.59375 0l0 0.640625l3.484375 0l0 5.875q0 1.4375 -1.421875 1.4375l-1.4375 0l-0.46875 -2.203125l1.15625 0q0 0.09375 -0.09375 0.09375l0 -3.015625l-1.21875 0l0 6.609375l-2.265625 0l0 -6.609375l-1.0 0l0 5.125l-2.265625 0l0 -7.3125l3.265625 0l0 -0.640625l-4.671875 0l0 -2.1875l4.671875 0l0 -1.140625l-1.671875 0q-0.359375 0.625 -1.109375 1.703125l-1.828125 -1.265625q1.3125 -1.84375 2.484375 -4.65625l1.75 0.578125q0.921875 0.90625 -0.15625 1.078125l-0.171875 0.359375zm7.453125 11.109375l0 -11.84375l1.828125 0q1.609375 0.21875 0.4375 1.03125l0 10.8125l-2.265625 0z" fill-rule="nonzero"/><path fill="#000000" d="m308.94946 39.728397l0 -13.359375l5.6875 0q2.140625 0 3.109375 0.359375q0.96875 0.359375 1.546875 1.28125q0.578125 0.921875 0.578125 2.109375q0 1.5 -0.890625 2.484375q-0.875 0.96875 -2.625 1.234375q0.875 0.5 1.4375 1.125q0.578125 0.609375 1.53125 2.15625l1.640625 2.609375l-3.234375 0l-1.9375 -2.90625q-1.046875 -1.5625 -1.4375 -1.96875q-0.375 -0.40625 -0.8125 -0.546875q-0.421875 -0.15625 -1.34375 -0.15625l-0.546875 0l0 5.578125l-2.703125 0zm2.703125 -7.703125l2.0 0q1.9375 0 2.421875 -0.15625q0.484375 -0.171875 0.75 -0.578125q0.28125 -0.40625 0.28125 -1.0q0 -0.671875 -0.359375 -1.078125q-0.359375 -0.421875 -1.015625 -0.53125q-0.328125 -0.046875 -1.96875 -0.046875l-2.109375 0l0 3.390625zm10.769836 7.703125l0 -13.359375l4.328125 0q2.453125 0 3.203125 0.203125q1.140625 0.296875 1.921875 1.3125q0.78125 1.0 0.78125 2.59375q0 1.234375 -0.453125 2.078125q-0.453125 0.828125 -1.140625 1.3125q-0.6875 0.46875 -1.390625 0.625q-0.96875 0.203125 -2.796875 0.203125l-1.765625 0l0 5.03125l-2.6875 0zm2.6875 -11.09375l0 3.78125l1.484375 0q1.59375 0 2.125 -0.203125q0.546875 -0.203125 0.84375 -0.65625q0.3125 -0.453125 0.3125 -1.03125q0 -0.734375 -0.4375 -1.203125q-0.421875 -0.484375 -1.078125 -0.59375q-0.484375 -0.09375 -1.9375 -0.09375l-1.3125 0zm18.302948 6.1875l2.609375 0.828125q-0.59375 2.1875 -2.0 3.25q-1.390625 1.0625 -3.546875 1.0625q-2.65625 0 -4.375 -1.8125q-1.703125 -1.828125 -1.703125 -4.984375q0 -3.328125 1.71875 -5.171875q1.71875 -1.84375 4.515625 -1.84375q2.453125 0 3.984375 1.4375q0.921875 0.859375 1.375 2.46875l-2.671875 0.640625q-0.234375 -1.046875 -0.984375 -1.640625q-0.75 -0.609375 -1.828125 -0.609375q-1.484375 0 -2.421875 1.078125q-0.921875 1.0625 -0.921875 3.4375q0 2.53125 0.90625 3.609375q0.921875 1.078125 2.375 1.078125q1.078125 0 1.84375 -0.671875q0.78125 -0.6875 1.125 -2.15625z" fill-rule="nonzero"/><path fill="#000000" d="m359.06912 34.556522q-1.640625 3.1875 -3.125 5.53125q0.375 1.8125 -0.90625 0.59375l-1.84375 -1.59375q1.5625 -1.828125 3.90625 -6.0625l1.96875 1.53125zm6.796875 -6.734375q0.96875 -1.453125 2.09375 -3.765625l1.875 0.828125q1.515625 1.109375 -0.046875 1.109375q-1.09375 1.984375 -1.828125 2.9375l-2.09375 -1.109375zm-9.390625 4.984375q-1.359375 -1.640625 -2.84375 -2.671875l1.359375 -1.6875q1.671875 0.921875 3.140625 2.578125l-1.65625 1.78125zm10.90625 4.25l-5.53125 0l0 4.15625l-2.265625 0l0 -12.65625l3.859375 0l0 -4.90625l1.828125 0q1.578125 0.203125 0.4375 1.046875l0 3.859375l3.9375 0l0 11.078125q0 1.4375 -1.4375 1.4375l-1.875 0l-0.359375 -2.203125l1.5 0q0 0.09375 -0.09375 0.09375l0 -1.90625zm-6.125 -8.03125q-0.8125 -1.890625 -1.828125 -3.484375l2.046875 -1.171875q1.296875 1.640625 2.046875 3.59375l-2.265625 1.0625zm0.59375 1.71875l0 0.921875l5.53125 0l0 -0.921875l-5.53125 0zm0 4.125l5.53125 0l0 -1.0l-5.53125 0l0 1.0zm-4.3125 -6.3125q-1.375 -1.453125 -3.015625 -2.46875l1.265625 -1.71875q1.921875 1.0 3.21875 2.5l-1.46875 1.6875zm14.65625 11.5625q1.28125 -2.390625 1.71875 -4.75l1.953125 0.53125q1.640625 0.21875 0.25 1.09375q-0.5625 1.890625 -1.71875 4.125l-2.203125 -1.0zm16.171875 0.546875q-1.53125 -2.5625 -3.390625 -4.25l1.890625 -1.4375q2.125 1.8125 3.53125 4.171875l-2.03125 1.515625zm-10.03125 -5.28125q1.609375 0.21875 0.4375 1.03125l0 2.328125q0 0.203125 0.125 0.203125l4.609375 0q0.234375 0 0.296875 -0.171875l0.390625 -1.453125l2.3125 0.4375l-0.46875 1.828125q-0.359375 1.546875 -2.453125 1.546875l-5.34375 0q-1.734375 0 -1.734375 -1.640625l0 -4.109375l1.828125 0zm-1.125 -0.484375l0 0.671875l-2.265625 0l0 -10.28125l4.09375 0l0.453125 -1.8125l2.125 0.1875q1.453125 0.765625 -0.046875 1.09375l-0.1875 0.53125l5.703125 0l0 10.203125l-2.265625 0l0 -0.59375l-7.609375 0zm3.609375 -0.71875q1.625 1.15625 3.0 3.15625l-1.875 1.453125q-1.484375 -2.078125 -2.828125 -3.25l1.703125 -1.359375zm-3.609375 -1.25l7.609375 0l0 -0.625l-7.609375 0l0 0.625zm7.609375 -3.15625l-7.609375 0l0 0.5625l7.609375 0l0 -0.5625zm-7.609375 -1.96875l7.609375 0l0 -0.546875l-7.609375 0l0 0.546875z" fill-rule="nonzero"/><path fill="#000000" d="m227.63205 65.83152l0 -13.375l1.484375 0l0 1.25q0.53125 -0.734375 1.1875 -1.09375q0.671875 -0.375 1.625 -0.375q1.234375 0 2.171875 0.640625q0.953125 0.625 1.4375 1.796875q0.484375 1.15625 0.484375 2.546875q0 1.484375 -0.53125 2.671875q-0.53125 1.1875 -1.546875 1.828125q-1.015625 0.625 -2.140625 0.625q-0.8125 0 -1.46875 -0.34375q-0.65625 -0.34375 -1.0625 -0.875l0 4.703125l-1.640625 0zm1.484375 -8.484375q0 1.859375 0.75 2.765625q0.765625 0.890625 1.828125 0.890625q1.09375 0 1.875 -0.921875q0.78125 -0.9375 0.78125 -2.875q0 -1.84375 -0.765625 -2.765625q-0.75 -0.921875 -1.8125 -0.921875q-1.046875 0 -1.859375 0.984375q-0.796875 0.96875 -0.796875 2.84375zm8.875717 4.78125l0 -9.671875l1.46875 0l0 1.46875q0.5625 -1.03125 1.03125 -1.359375q0.484375 -0.328125 1.0625 -0.328125q0.828125 0 1.6875 0.53125l-0.5625 1.515625q-0.609375 -0.359375 -1.203125 -0.359375q-0.546875 0 -0.96875 0.328125q-0.421875 0.328125 -0.609375 0.890625q-0.28125 0.875 -0.28125 1.921875l0 5.0625l-1.625 0zm12.853302 -3.109375l1.6875 0.203125q-0.40625 1.484375 -1.484375 2.3125q-1.078125 0.8125 -2.765625 0.8125q-2.125 0 -3.375 -1.296875q-1.234375 -1.3125 -1.234375 -3.671875q0 -2.453125 1.25 -3.796875q1.265625 -1.34375 3.265625 -1.34375q1.9375 0 3.15625 1.328125q1.234375 1.3125 1.234375 3.703125q0 0.15625 0 0.4375l-7.21875 0q0.09375 1.59375 0.90625 2.453125q0.8125 0.84375 2.015625 0.84375q0.90625 0 1.546875 -0.46875q0.640625 -0.484375 1.015625 -1.515625zm-5.390625 -2.65625l5.40625 0q-0.109375 -1.21875 -0.625 -1.828125q-0.78125 -0.953125 -2.03125 -0.953125q-1.125 0 -1.90625 0.765625q-0.765625 0.75 -0.84375 2.015625zm11.828842 5.765625l-3.6875 -9.671875l1.734375 0l2.078125 5.796875q0.328125 0.9375 0.625 1.9375q0.203125 -0.765625 0.609375 -1.828125l2.140625 -5.90625l1.6875 0l-3.65625 9.671875l-1.53125 0zm6.765625 0l0 -13.359375l1.78125 0l0 11.78125l6.5625 0l0 1.578125l-8.34375 0zm9.641357 -4.84375q0 -2.6875 1.484375 -3.96875q1.25 -1.078125 3.046875 -1.078125q2.0 0 3.265625 1.3125q1.265625 1.296875 1.265625 3.609375q0 1.859375 -0.5625 2.9375q-0.5625 1.0625 -1.640625 1.65625q-1.0625 0.59375 -2.328125 0.59375q-2.03125 0 -3.28125 -1.296875q-1.25 -1.3125 -1.25 -3.765625zm1.6875 0q0 1.859375 0.796875 2.796875q0.8125 0.921875 2.046875 0.921875q1.21875 0 2.03125 -0.921875q0.8125 -0.9375 0.8125 -2.84375q0 -1.796875 -0.8125 -2.71875q-0.8125 -0.921875 -2.03125 -0.921875q-1.234375 0 -2.046875 0.921875q-0.796875 0.90625 -0.796875 2.765625zm8.985077 5.640625l1.59375 0.234375q0.109375 0.75 0.5625 1.078125q0.609375 0.453125 1.671875 0.453125q1.140625 0 1.75 -0.453125q0.625 -0.453125 0.84375 -1.265625q0.125 -0.5 0.109375 -2.109375q-1.0625 1.265625 -2.671875 1.265625q-2.0 0 -3.09375 -1.4375q-1.09375 -1.4375 -1.09375 -3.453125q0 -1.390625 0.5 -2.5625q0.515625 -1.171875 1.453125 -1.796875q0.953125 -0.640625 2.25 -0.640625q1.703125 0 2.8125 1.375l0 -1.15625l1.515625 0l0 8.359375q0 2.265625 -0.46875 3.203125q-0.453125 0.9375 -1.453125 1.484375q-0.984375 0.546875 -2.453125 0.546875q-1.71875 0 -2.796875 -0.78125q-1.0625 -0.765625 -1.03125 -2.34375zm1.359375 -5.8125q0 1.90625 0.75 2.78125q0.765625 0.875 1.90625 0.875q1.125 0 1.890625 -0.859375q0.765625 -0.875 0.765625 -2.734375q0 -1.78125 -0.796875 -2.671875q-0.78125 -0.90625 -1.890625 -0.90625q-1.09375 0 -1.859375 0.890625q-0.765625 0.875 -0.765625 2.625zm9.828857 5.015625l0 -13.359375l1.765625 0l0 13.359375l-1.765625 0zm4.6832886 0l0 -9.671875l1.46875 0l0 1.375q1.0625 -1.59375 3.078125 -1.59375q0.875 0 1.609375 0.3125q0.734375 0.3125 1.09375 0.828125q0.375 0.5 0.515625 1.203125q0.09375 0.453125 0.09375 1.59375l0 5.953125l-1.640625 0l0 -5.890625q0 -1.0 -0.203125 -1.484375q-0.1875 -0.5 -0.671875 -0.796875q-0.484375 -0.296875 -1.140625 -0.296875q-1.046875 0 -1.8125 0.671875q-0.75 0.65625 -0.75 2.515625l0 5.28125l-1.640625 0zm16.641357 0l0 -1.21875q-0.90625 1.4375 -2.703125 1.4375q-1.15625 0 -2.125 -0.640625q-0.96875 -0.640625 -1.5 -1.78125q-0.53125 -1.140625 -0.53125 -2.625q0 -1.453125 0.484375 -2.625q0.484375 -1.1875 1.4375 -1.8125q0.96875 -0.625 2.171875 -0.625q0.875 0 1.546875 0.375q0.6875 0.359375 1.109375 0.953125l0 -4.796875l1.640625 0l0 13.359375l-1.53125 0zm-5.171875 -4.828125q0 1.859375 0.78125 2.78125q0.78125 0.921875 1.84375 0.921875q1.078125 0 1.828125 -0.875q0.75 -0.890625 0.75 -2.6875q0 -1.984375 -0.765625 -2.90625q-0.765625 -0.9375 -1.890625 -0.9375q-1.078125 0 -1.8125 0.890625q-0.734375 0.890625 -0.734375 2.8125zm15.906952 1.71875l1.6875 0.203125q-0.40625 1.484375 -1.484375 2.3125q-1.078125 0.8125 -2.765625 0.8125q-2.125 0 -3.375 -1.296875q-1.234375 -1.3125 -1.234375 -3.671875q0 -2.453125 1.25 -3.796875q1.265625 -1.34375 3.265625 -1.34375q1.9375 0 3.15625 1.328125q1.234375 1.3125 1.234375 3.703125q0 0.15625 0 0.4375l-7.21875 0q0.09375 1.59375 0.90625 2.453125q0.8125 0.84375 2.015625 0.84375q0.90625 0 1.546875 -0.46875q0.640625 -0.484375 1.015625 -1.515625zm-5.390625 -2.65625l5.40625 0q-0.109375 -1.21875 -0.625 -1.828125q-0.78125 -0.953125 -2.03125 -0.953125q-1.125 0 -1.90625 0.765625q-0.765625 0.75 -0.84375 2.015625zm8.047607 5.765625l3.53125 -5.03125l-3.265625 -4.640625l2.046875 0l1.484375 2.265625q0.421875 0.640625 0.671875 1.078125q0.40625 -0.59375 0.734375 -1.0625l1.640625 -2.28125l1.953125 0l-3.34375 4.546875l3.59375 5.125l-2.015625 0l-1.984375 -3.0l-0.515625 -0.8125l-2.546875 3.8125l-1.984375 0zm24.230164 -7.859375l-8.828125 0l0 -1.515625l8.828125 0l0 1.515625zm0 4.0625l-8.828125 0l0 -1.53125l8.828125 0l0 1.53125zm7.1095276 -7.8125l0 -1.578125l8.640625 0l0 1.28125q-1.28125 1.359375 -2.53125 3.609375q-1.25 2.25 -1.9375 4.625q-0.484375 1.671875 -0.625 3.671875l-1.6875 0q0.03125 -1.578125 0.625 -3.8125q0.59375 -2.234375 1.6875 -4.296875q1.109375 -2.078125 2.359375 -3.5l-6.53125 0z" fill-rule="nonzero"/><path fill="#000000" d="m227.63205 88.231514l0 -13.375l1.484375 0l0 1.25q0.53125 -0.734375 1.1875 -1.09375q0.671875 -0.375 1.625 -0.375q1.234375 0 2.171875 0.640625q0.953125 0.625 1.4375 1.796875q0.484375 1.15625 0.484375 2.546875q0 1.484375 -0.53125 2.671875q-0.53125 1.1875 -1.546875 1.828125q-1.015625 0.625 -2.140625 0.625q-0.8125 0 -1.46875 -0.34375q-0.65625 -0.34375 -1.0625 -0.875l0 4.703125l-1.640625 0zm1.484375 -8.484375q0 1.859375 0.75 2.765625q0.765625 0.890625 1.828125 0.890625q1.09375 0 1.875 -0.921875q0.78125 -0.9375 0.78125 -2.875q0 -1.84375 -0.765625 -2.765625q-0.75 -0.921875 -1.8125 -0.921875q-1.046875 0 -1.859375 0.984375q-0.796875 0.96875 -0.796875 2.84375zm8.875717 4.78125l0 -9.671875l1.46875 0l0 1.46875q0.5625 -1.03125 1.03125 -1.359375q0.484375 -0.328125 1.0625 -0.328125q0.828125 0 1.6875 0.53125l-0.5625 1.515625q-0.609375 -0.359375 -1.203125 -0.359375q-0.546875 0 -0.96875 0.328125q-0.421875 0.328125 -0.609375 0.890625q-0.28125 0.875 -0.28125 1.921875l0 5.0625l-1.625 0zm12.853302 -3.109375l1.6875 0.203125q-0.40625 1.484375 -1.484375 2.3125q-1.078125 0.8125 -2.765625 0.8125q-2.125 0 -3.375 -1.296875q-1.234375 -1.3125 -1.234375 -3.671875q0 -2.453125 1.25 -3.796875q1.265625 -1.34375 3.265625 -1.34375q1.9375 0 3.15625 1.328125q1.234375 1.3125 1.234375 3.703125q0 0.15625 0 0.4375l-7.21875 0q0.09375 1.59375 0.90625 2.453125q0.8125 0.84375 2.015625 0.84375q0.90625 0 1.546875 -0.46875q0.640625 -0.484375 1.015625 -1.515625zm-5.390625 -2.65625l5.40625 0q-0.109375 -1.21875 -0.625 -1.828125q-0.78125 -0.953125 -2.03125 -0.953125q-1.125 0 -1.90625 0.765625q-0.765625 0.75 -0.84375 2.015625zm11.828842 5.765625l-3.6875 -9.671875l1.734375 0l2.078125 5.796875q0.328125 0.9375 0.625 1.9375q0.203125 -0.765625 0.609375 -1.828125l2.140625 -5.90625l1.6875 0l-3.65625 9.671875l-1.53125 0zm6.765625 0l0 -13.359375l1.78125 0l0 11.78125l6.5625 0l0 1.578125l-8.34375 0zm9.641357 -4.84375q0 -2.6875 1.484375 -3.96875q1.25 -1.078125 3.046875 -1.078125q2.0 0 3.265625 1.3125q1.265625 1.296875 1.265625 3.609375q0 1.859375 -0.5625 2.9375q-0.5625 1.0625 -1.640625 1.65625q-1.0625 0.59375 -2.328125 0.59375q-2.03125 0 -3.28125 -1.296875q-1.25 -1.3125 -1.25 -3.765625zm1.6875 0q0 1.859375 0.796875 2.796875q0.8125 0.921875 2.046875 0.921875q1.21875 0 2.03125 -0.921875q0.8125 -0.9375 0.8125 -2.84375q0 -1.796875 -0.8125 -2.71875q-0.8125 -0.921875 -2.03125 -0.921875q-1.234375 0 -2.046875 0.921875q-0.796875 0.90625 -0.796875 2.765625zm8.985077 5.640625l1.59375 0.234375q0.109375 0.75 0.5625 1.078125q0.609375 0.453125 1.671875 0.453125q1.140625 0 1.75 -0.453125q0.625 -0.453125 0.84375 -1.265625q0.125 -0.5 0.109375 -2.109375q-1.0625 1.265625 -2.671875 1.265625q-2.0 0 -3.09375 -1.4375q-1.09375 -1.4375 -1.09375 -3.453125q0 -1.390625 0.5 -2.5625q0.515625 -1.171875 1.453125 -1.796875q0.953125 -0.640625 2.25 -0.640625q1.703125 0 2.8125 1.375l0 -1.15625l1.515625 0l0 8.359375q0 2.265625 -0.46875 3.203125q-0.453125 0.9375 -1.453125 1.484375q-0.984375 0.546875 -2.453125 0.546875q-1.71875 0 -2.796875 -0.78125q-1.0625 -0.765625 -1.03125 -2.34375zm1.359375 -5.8125q0 1.90625 0.75 2.78125q0.765625 0.875 1.90625 0.875q1.125 0 1.890625 -0.859375q0.765625 -0.875 0.765625 -2.734375q0 -1.78125 -0.796875 -2.671875q-0.78125 -0.90625 -1.890625 -0.90625q-1.09375 0 -1.859375 0.890625q-0.765625 0.875 -0.765625 2.625zm12.938232 5.015625l0 -11.78125l-4.40625 0l0 -1.578125l10.578125 0l0 1.578125l-4.40625 0l0 11.78125l-1.765625 0zm12.34259 -3.109375l1.6875 0.203125q-0.40625 1.484375 -1.484375 2.3125q-1.078125 0.8125 -2.765625 0.8125q-2.125 0 -3.375 -1.296875q-1.234375 -1.3125 -1.234375 -3.671875q0 -2.453125 1.25 -3.796875q1.265625 -1.34375 3.265625 -1.34375q1.9375 0 3.15625 1.328125q1.234375 1.3125 1.234375 3.703125q0 0.15625 0 0.4375l-7.21875 0q0.09375 1.59375 0.90625 2.453125q0.8125 0.84375 2.015625 0.84375q0.90625 0 1.546875 -0.46875q0.640625 -0.484375 1.015625 -1.515625zm-5.390625 -2.65625l5.40625 0q-0.109375 -1.21875 -0.625 -1.828125q-0.78125 -0.953125 -2.03125 -0.953125q-1.125 0 -1.90625 0.765625q-0.765625 0.75 -0.84375 2.015625zm9.125702 5.765625l0 -9.671875l1.46875 0l0 1.46875q0.5625 -1.03125 1.03125 -1.359375q0.484375 -0.328125 1.0625 -0.328125q0.828125 0 1.6875 0.53125l-0.5625 1.515625q-0.609375 -0.359375 -1.203125 -0.359375q-0.546875 0 -0.96875 0.328125q-0.421875 0.328125 -0.609375 0.890625q-0.28125 0.875 -0.28125 1.921875l0 5.0625l-1.625 0zm6.228302 0l0 -9.671875l1.46875 0l0 1.359375q0.453125 -0.71875 1.203125 -1.140625q0.765625 -0.4375 1.71875 -0.4375q1.078125 0 1.765625 0.453125q0.6875 0.4375 0.96875 1.234375q1.15625 -1.6875 2.984375 -1.6875q1.453125 0 2.21875 0.796875q0.78125 0.796875 0.78125 2.453125l0 6.640625l-1.640625 0l0 -6.09375q0 -0.984375 -0.15625 -1.40625q-0.15625 -0.4375 -0.578125 -0.703125q-0.421875 -0.265625 -0.984375 -0.265625q-1.015625 0 -1.6875 0.6875q-0.671875 0.671875 -0.671875 2.15625l0 5.625l-1.640625 0l0 -6.28125q0 -1.09375 -0.40625 -1.640625q-0.40625 -0.546875 -1.3125 -0.546875q-0.6875 0 -1.28125 0.359375q-0.59375 0.359375 -0.859375 1.0625q-0.25 0.703125 -0.25 2.03125l0 5.015625l-1.640625 0zm29.349121 -7.859375l-8.828125 0l0 -1.515625l8.828125 0l0 1.515625zm0 4.0625l-8.828125 0l0 -1.53125l8.828125 0l0 1.53125zm12.250122 3.796875l0 -3.203125l-5.796875 0l0 -1.5l6.09375 -8.65625l1.34375 0l0 8.65625l1.796875 0l0 1.5l-1.796875 0l0 3.203125l-1.640625 0zm0 -4.703125l0 -6.015625l-4.1875 6.015625l4.1875 0z" fill-rule="nonzero"/><path fill="#000000" fill-opacity="0.0" d="m200.35971 100.08476l229.73227 0" fill-rule="evenodd"/><path stroke="#000000" stroke-width="1.0" stroke-linejoin="round" stroke-linecap="butt" d="m200.35971 100.084755l223.73227 0" fill-rule="evenodd"/><path fill="#000000" stroke="#000000" stroke-width="1.0" stroke-linecap="butt" d="m424.09198 101.73649l4.5381165 -1.6517334l-4.5381165 -1.6517258z" fill-rule="evenodd"/><path fill="#000000" fill-opacity="0.0" d="m430.09198 150.90736l-265.07086 0" fill-rule="evenodd"/><path stroke="#000000" stroke-width="1.0" stroke-linejoin="round" stroke-linecap="butt" d="m430.09198 150.90736l-259.07086 0" fill-rule="evenodd"/><path fill="#000000" stroke="#000000" stroke-width="1.0" stroke-linecap="butt" d="m171.02113 149.25563l-4.538101 1.6517334l4.538101 1.6517334z" fill-rule="evenodd"/><path fill="#000000" fill-opacity="0.0" d="m230.57349 150.90814l133.95276 0l0 42.015747l-133.95276 0z" fill-rule="evenodd"/><path fill="#000000" d="m257.011 175.45314l0 2.375l-8.96875 0q0.140625 -1.34375 0.859375 -2.546875q0.734375 -1.21875 2.890625 -3.203125q1.734375 -1.625 2.125 -2.1875q0.53125 -0.796875 0.53125 -1.578125q0 -0.84375 -0.46875 -1.296875q-0.453125 -0.46875 -1.265625 -0.46875q-0.796875 0 -1.28125 0.484375q-0.46875 0.46875 -0.546875 1.59375l-2.546875 -0.25q0.234375 -2.109375 1.421875 -3.03125q1.203125 -0.921875 3.015625 -0.921875q1.96875 0 3.09375 1.0625q1.140625 1.0625 1.140625 2.65625q0 0.890625 -0.328125 1.71875q-0.3125 0.8125 -1.015625 1.703125q-0.46875 0.59375 -1.6875 1.703125q-1.203125 1.109375 -1.53125 1.484375q-0.3125 0.359375 -0.515625 0.703125l5.078125 0zm2.2819824 2.375l0 -2.5625l2.5625 0l0 2.5625l-2.5625 0z" fill-rule="nonzero"/><path fill="#000000" d="m278.17938 166.50002l0.234375 -0.59375l1.765625 1.359375q1.0625 0.90625 -0.25 1.15625q-0.75 2.453125 -1.90625 3.984375q1.28125 1.046875 3.625 1.828125l-1.078125 2.34375q-2.40625 -0.875 -4.125 -2.390625q-1.640625 1.5 -3.9375 2.65625l-1.3125 -2.109375q1.921875 -0.890625 3.59375 -2.203125q-1.375 -1.96875 -1.84375 -3.828125l-0.421875 0l0 1.75q0 3.71875 -2.234375 5.953125l-1.421875 -2.171875q1.390625 -1.140625 1.390625 -3.921875l0 -7.8125l10.65625 0l0 2.40625l-8.390625 0l0 1.59375l5.65625 0zm3.859375 10.171875l-0.46875 2.203125l-9.359375 0q-2.859375 0 -4.1875 -1.65625q-0.4375 0.71875 -2.5625 2.03125l-1.390625 -2.375q1.984375 -0.8125 2.703125 -1.46875l0 -3.96875l-2.453125 0l0 -2.40625l4.71875 0l0 6.34375q0.984375 1.296875 3.09375 1.296875l9.90625 0zm-15.453125 -14.65625q2.125 1.40625 3.296875 3.3125l-1.734375 1.734375q-1.34375 -1.890625 -3.203125 -3.3125l1.640625 -1.734375zm8.625 6.6875q0.453125 1.40625 1.109375 2.109375q0.796875 -1.125 1.09375 -2.109375l-2.203125 0zm15.125 3.21875l3.375 0l0 -3.15625l-3.375 0l0 3.15625zm3.375 2.9375l0 -0.75l-3.375 0l0 0.828125l-2.265625 0l0 -8.359375l7.90625 0l0 8.28125l-2.265625 0zm-7.3125 1.296875l11.171875 0l0 -11.3125l-11.171875 0l0 11.3125zm11.171875 2.859375l0 -0.671875l-11.171875 0l0 1.046875l-2.265625 0l0 -16.75l15.703125 0l0 16.375l-2.265625 0zm21.40625 0.296875q-6.0 -1.625 -7.71875 -5.296875q-1.734375 4.125 -8.0625 5.671875l-0.765625 -2.453125q6.1875 -1.53125 7.125 -5.421875l-7.015625 0l0 -2.1875l7.359375 0l0 -2.109375l-2.71875 0q-0.65625 1.3125 -1.890625 2.734375l-1.953125 -1.515625q2.140625 -2.546875 2.953125 -5.953125l1.921875 0.546875q1.53125 0.21875 0.1875 1.078125q-0.203125 0.703125 -0.296875 0.90625l1.796875 0l0 -3.1875l1.828125 0q1.578125 0.203125 0.4375 1.046875l0 2.140625l5.1875 0l0 2.203125l-5.1875 0l0 2.109375l7.1875 0l0 2.1875l-6.78125 0q1.40625 3.640625 7.46875 4.96875l-1.0625 2.53125z" fill-rule="nonzero"/><path fill="#000000" d="m330.72626 171.32814q-0.75 -0.84375 -1.71875 -1.203125q1.15625 -1.453125 1.859375 -3.34375q0.71875 -1.890625 1.21875 -4.9375q1.421875 0.609375 2.515625 0.71875q-0.5625 0.984375 -0.78125 1.6875q-0.203125 0.703125 -0.46875 1.453125l2.75 0q1.375 0 2.5625 -0.09375l0 2.0625q-1.046875 -0.125 -1.703125 -0.125q-0.125 1.859375 -0.53125 3.984375q-0.40625 2.109375 -1.34375 3.921875q0.328125 0.421875 1.234375 1.125q0.921875 0.6875 2.859375 1.53125q-0.96875 0.703125 -1.640625 1.734375q-1.578125 -0.84375 -2.59375 -1.703125q-1.015625 -0.859375 -1.203125 -1.125q-0.375 0.421875 -1.421875 1.203125q-1.03125 0.78125 -2.53125 1.734375q-0.53125 -0.921875 -1.671875 -1.6875q1.828125 -0.84375 2.78125 -1.4375q0.953125 -0.609375 1.765625 -1.53125q-0.859375 -1.640625 -1.234375 -3.125q-0.359375 -1.5 -0.21875 -1.6875q0.109375 0.109375 -0.484375 0.84375zm-0.796875 -7.734375q-0.078125 1.78125 -0.078125 5.328125q0 3.5625 0.078125 5.40625l-2.078125 0l0 -8.890625l-3.765625 0l0 8.96875l-2.140625 0q0.078125 -1.84375 0.078125 -5.265625q0 -3.5 -0.078125 -5.546875l7.984375 0zm-2.8125 2.796875q-0.1875 1.40625 -0.1875 2.53125q0 1.1875 -0.140625 3.3125q-0.15625 2.046875 -1.109375 3.734375q-0.953125 1.671875 -3.515625 3.453125q-0.53125 -0.75 -1.703125 -1.5625q3.109375 -1.765625 3.859375 -3.46875q0.546875 -1.59375 0.578125 -3.75q0.046875 -2.15625 -0.046875 -4.609375q1.109375 0.265625 2.265625 0.359375zm5.4375 1.640625q0.28125 1.984375 0.703125 3.484375q0.421875 1.5 0.640625 1.859375q0.25 -0.5 0.5625 -2.0625q0.3125 -1.5625 0.453125 -3.765625l-2.1875 0l-0.171875 0.484375zm-5.453125 5.640625q1.171875 1.25 3.1875 3.265625q-0.828125 0.84375 -1.5625 1.6875q-1.71875 -2.234375 -3.046875 -3.453125q0.75 -0.609375 1.421875 -1.5z" fill-rule="nonzero"/><path fill="#6aa84f" d="m60.1063 324.9449l0 0c0 -19.847473 29.986343 -35.93701 66.97638 -35.93701l0 0c36.99003 0 66.97637 16.089539 66.97637 35.93701l0 0c0 19.847473 -29.986343 35.93701 -66.97637 35.93701l0 0c-36.990036 0 -66.97638 -16.089539 -66.97638 -35.93701z" fill-rule="evenodd"/><path fill="#000000" d="m100.94308 331.86487l0 -13.359375l2.5625 0l0 13.359375l-2.5625 0zm10.777054 -3.078125l2.546875 0.421875q-0.484375 1.40625 -1.546875 2.140625q-1.0625 0.734375 -2.65625 0.734375q-2.515625 0 -3.734375 -1.65625q-0.953125 -1.3125 -0.953125 -3.328125q0 -2.40625 1.25 -3.765625q1.265625 -1.359375 3.1875 -1.359375q2.15625 0 3.40625 1.421875q1.25 1.421875 1.1875 4.375l-6.40625 0q0.03125 1.140625 0.609375 1.78125q0.59375 0.625 1.484375 0.625q0.59375 0 1.0 -0.328125q0.421875 -0.328125 0.625 -1.0625zm0.15625 -2.59375q-0.03125 -1.109375 -0.578125 -1.6875q-0.546875 -0.578125 -1.328125 -0.578125q-0.84375 0 -1.390625 0.609375q-0.546875 0.609375 -0.53125 1.65625l3.828125 0zm6.531967 -1.046875l-2.328125 -0.421875q0.40625 -1.40625 1.359375 -2.078125q0.953125 -0.671875 2.84375 -0.671875q1.703125 0 2.546875 0.40625q0.84375 0.40625 1.171875 1.03125q0.34375 0.625 0.34375 2.28125l-0.015625 3.0q0 1.265625 0.109375 1.875q0.125 0.609375 0.46875 1.296875l-2.53125 0q-0.109375 -0.25 -0.25 -0.75q-0.0625 -0.234375 -0.09375 -0.3125q-0.65625 0.640625 -1.40625 0.96875q-0.734375 0.3125 -1.59375 0.3125q-1.484375 0 -2.34375 -0.8125q-0.859375 -0.8125 -0.859375 -2.046875q0 -0.828125 0.390625 -1.46875q0.390625 -0.640625 1.09375 -0.96875q0.703125 -0.34375 2.03125 -0.609375q1.796875 -0.328125 2.484375 -0.625l0 -0.25q0 -0.75 -0.359375 -1.0625q-0.359375 -0.3125 -1.375 -0.3125q-0.6875 0 -1.078125 0.28125q-0.375 0.265625 -0.609375 0.9375zm3.421875 2.078125q-0.484375 0.15625 -1.5625 0.390625q-1.0625 0.21875 -1.390625 0.4375q-0.5 0.359375 -0.5 0.90625q0 0.53125 0.40625 0.9375q0.40625 0.390625 1.015625 0.390625q0.703125 0 1.328125 -0.46875q0.46875 -0.34375 0.609375 -0.84375q0.09375 -0.328125 0.09375 -1.25l0 -0.5zm13.922585 4.640625l-2.390625 0l0 -1.421875q-0.59375 0.828125 -1.40625 1.234375q-0.796875 0.40625 -1.609375 0.40625q-1.671875 0 -2.8593674 -1.34375q-1.1875 -1.34375 -1.1875 -3.75q0 -2.453125 1.15625 -3.734375q1.1562424 -1.28125 2.9218674 -1.28125q1.625 0 2.8125 1.34375l0 -4.8125l2.5625 0l0 13.359375zm-6.84375 -5.046875q0 1.546875 0.4375 2.234375q0.609375 1.015625 1.71875 1.015625q0.890625 0 1.5 -0.75q0.625 -0.765625 0.625 -2.25q0 -1.671875 -0.609375 -2.40625q-0.59375 -0.734375 -1.53125 -0.734375q-0.90625 0 -1.53125 0.734375q-0.609375 0.71875 -0.609375 2.15625zm14.958481 1.96875l2.546875 0.421875q-0.484375 1.40625 -1.546875 2.140625q-1.0625 0.734375 -2.65625 0.734375q-2.515625 0 -3.734375 -1.65625q-0.953125 -1.3125 -0.953125 -3.328125q0 -2.40625 1.25 -3.765625q1.265625 -1.359375 3.1875 -1.359375q2.15625 0 3.40625 1.421875q1.25 1.421875 1.1875 4.375l-6.40625 0q0.03125 1.140625 0.609375 1.78125q0.59375 0.625 1.484375 0.625q0.59375 0 1.0 -0.328125q0.421875 -0.328125 0.625 -1.0625zm0.15625 -2.59375q-0.03125 -1.109375 -0.578125 -1.6875q-0.546875 -0.578125 -1.328125 -0.578125q-0.84375 0 -1.390625 0.609375q-0.546875 0.609375 -0.53125 1.65625l3.828125 0zm7.078842 5.671875l-2.5625 0l0 -9.671875l2.375 0l0 1.375q0.609375 -0.984375 1.09375 -1.28125q0.484375 -0.3125 1.109375 -0.3125q0.875 0 1.6875 0.484375l-0.796875 2.234375q-0.640625 -0.421875 -1.203125 -0.421875q-0.53125 0 -0.90625 0.296875q-0.375 0.296875 -0.59375 1.078125q-0.203125 0.765625 -0.203125 3.234375l0 2.984375z" fill-rule="nonzero"/><path fill="#6d9eeb" d="m419.90945 324.9449l0 0c0 -19.847473 29.986328 -35.93701 66.97638 -35.93701l0 0c36.99002 0 66.97635 16.089539 66.97635 35.93701l0 0c0 19.847473 -29.986328 35.93701 -66.97635 35.93701l0 0c-36.99005 0 -66.97638 -16.089539 -66.97638 -35.93701z" fill-rule="evenodd"/><path fill="#000000" d="m451.34525 322.193l1.421875 0l0 -0.734375q0 -1.21875 0.25 -1.8125q0.265625 -0.609375 0.953125 -0.984375q0.703125 -0.375 1.78125 -0.375q1.09375 0 2.140625 0.328125l-0.359375 1.78125q-0.609375 -0.140625 -1.171875 -0.140625q-0.546875 0 -0.796875 0.265625q-0.234375 0.25 -0.234375 0.984375l0 0.6875l1.90625 0l0 2.015625l-1.90625 0l0 7.65625l-2.5625 0l0 -7.65625l-1.421875 0l0 -2.015625zm6.743927 4.703125q0 -1.28125 0.625 -2.46875q0.625 -1.203125 1.78125 -1.828125q1.15625 -0.625 2.578125 -0.625q2.1875 0 3.59375 1.421875q1.40625 1.421875 1.40625 3.609375q0 2.1875 -1.421875 3.640625q-1.421875 1.4375 -3.5625 1.4375q-1.328125 0 -2.546875 -0.59375q-1.203125 -0.609375 -1.828125 -1.765625q-0.625 -1.171875 -0.625 -2.828125zm2.625 0.125q0 1.453125 0.671875 2.21875q0.6875 0.75 1.6875 0.75q1.0 0 1.671875 -0.75q0.6875 -0.765625 0.6875 -2.234375q0 -1.421875 -0.6875 -2.1875q-0.671875 -0.765625 -1.671875 -0.765625q-1.0 0 -1.6875 0.765625q-0.671875 0.765625 -0.671875 2.203125zm9.364746 4.84375l0 -13.359375l2.5625 0l0 13.359375l-2.5625 0zm5.1832886 0l0 -13.359375l2.5625 0l0 13.359375l-2.5625 0zm4.589569 -4.96875q0 -1.28125 0.625 -2.46875q0.625 -1.203125 1.78125 -1.828125q1.15625 -0.625 2.578125 -0.625q2.1875 0 3.59375 1.421875q1.40625 1.421875 1.40625 3.609375q0 2.1875 -1.421875 3.640625q-1.421875 1.4375 -3.5625 1.4375q-1.328125 0 -2.546875 -0.59375q-1.203125 -0.609375 -1.828125 -1.765625q-0.625 -1.171875 -0.625 -2.828125zm2.625 0.125q0 1.453125 0.671875 2.21875q0.6875 0.75 1.6875 0.75q1.0 0 1.671875 -0.75q0.6875 -0.765625 0.6875 -2.234375q0 -1.421875 -0.6875 -2.1875q-0.671875 -0.765625 -1.671875 -0.765625q-1.0 0 -1.6875 0.765625q-0.671875 0.765625 -0.671875 2.203125zm11.161591 4.84375l-3.0625 -9.671875l2.484375 0l1.8125 6.34375l1.671875 -6.34375l2.46875 0l1.609375 6.34375l1.859375 -6.34375l2.515625 0l-3.109375 9.671875l-2.453125 0l-1.671875 -6.21875l-1.640625 6.21875l-2.484375 0zm18.30832 -3.078125l2.5468445 0.421875q-0.484375 1.40625 -1.546875 2.140625q-1.0624695 0.734375 -2.6562195 0.734375q-2.515625 0 -3.734375 -1.65625q-0.953125 -1.3125 -0.953125 -3.328125q0 -2.40625 1.25 -3.765625q1.265625 -1.359375 3.1875 -1.359375q2.1562195 0 3.4062195 1.421875q1.25 1.421875 1.1875 4.375l-6.4062195 0q0.03125 1.140625 0.609375 1.78125q0.59375 0.625 1.484375 0.625q0.59375 0 1.0 -0.328125q0.421875 -0.328125 0.625 -1.0625zm0.15621948 -2.59375q-0.03125 -1.109375 -0.5780945 -1.6875q-0.546875 -0.578125 -1.328125 -0.578125q-0.84375 0 -1.390625 0.609375q-0.546875 0.609375 -0.53125 1.65625l3.8280945 0zm7.0788574 5.671875l-2.5625 0l0 -9.671875l2.375 0l0 1.375q0.609375 -0.984375 1.09375 -1.28125q0.484375 -0.3125 1.109375 -0.3125q0.875 0 1.6875 0.484375l-0.796875 2.234375q-0.640625 -0.421875 -1.203125 -0.421875q-0.53125 0 -0.90625 0.296875q-0.375 0.296875 -0.59375 1.078125q-0.203125 0.765625 -0.203125 3.234375l0 2.984375z" fill-rule="nonzero"/><path fill="#000000" fill-opacity="0.0" d="m203.28477 212.25722l207.40157 0l0 87.27559l-207.40157 0z" fill-rule="evenodd"/><path fill="#000000" d="m220.9879 235.63034l2.46875 -0.296875q0.125 0.953125 0.640625 1.453125q0.53125 0.5 1.265625 0.5q0.78125 0 1.328125 -0.59375q0.546875 -0.609375 0.546875 -1.640625q0 -0.953125 -0.53125 -1.515625q-0.515625 -0.578125 -1.25 -0.578125q-0.5 0 -1.1875 0.203125l0.28125 -2.09375q1.046875 0.03125 1.59375 -0.4375q0.546875 -0.484375 0.546875 -1.28125q0 -0.671875 -0.40625 -1.078125q-0.390625 -0.40625 -1.0625 -0.40625q-0.65625 0 -1.125 0.46875q-0.453125 0.453125 -0.5625 1.328125l-2.359375 -0.40625q0.25 -1.203125 0.734375 -1.921875q0.5 -0.734375 1.390625 -1.140625q0.890625 -0.421875 2.0 -0.421875q1.875 0 3.015625 1.203125q0.9375 0.984375 0.9375 2.21875q0 1.765625 -1.921875 2.8125q1.15625 0.234375 1.84375 1.09375q0.6875 0.859375 0.6875 2.0625q0 1.765625 -1.296875 3.015625q-1.28125 1.234375 -3.1875 1.234375q-1.8125 0 -3.015625 -1.046875q-1.1875 -1.046875 -1.375 -2.734375zm11.016342 3.546875l0 -2.5625l2.5625 0l0 2.5625l-2.5625 0z" fill-rule="nonzero"/><path fill="#000000" d="m242.04692 239.84909l-2.484375 0l0 -15.109375l12.421875 0l0 14.8125l-2.484375 0l0 -1.046875l-7.453125 0l0 1.34375zm7.453125 -9.46875l0 -3.453125l-7.453125 0l0 3.453125l7.453125 0zm0 5.9375l0 -3.75l-7.453125 0l0 3.75l7.453125 0zm20.687515 0.46875q-0.171875 3.578125 -2.1875 3.578125l-5.71875 0q-1.71875 0 -1.71875 -1.875l0 -5.65625l1.8125 0q1.625 0.171875 0.453125 1.03125l0 4.109375q0 0.203125 0.125 0.203125l4.453125 0q0.171875 0 0.203125 -0.203125l0.296875 -1.75l2.28125 0.5625zm-10.359375 -1.8125q-0.28125 2.21875 -1.6875 5.03125l-2.1562653 -1.296875q1.2500153 -2.34375 1.6718903 -5.46875l2.015625 0.5625q1.484375 0.59375 0.15625 1.171875zm6.046875 -7.15625l0 1.96875l5.78125 0l0 2.1875l-13.984375 0l0 -2.1875l5.9375 0l0 -1.96875l-7.125 0l0 -2.1875l7.125 0l0 -2.453125l1.828125 0q1.578125 0.203125 0.4375 1.046875l0 1.40625l6.96875 0l0 2.1875l-6.96875 0zm5.71875 11.484375q-1.625 -3.046875 -3.1875 -4.78125l1.78125 -1.546875q1.90625 2.015625 3.53125 4.640625l-2.125 1.6875zm-6.65625 -7.5q1.515625 1.703125 2.609375 3.421875l-1.9375 1.625q-1.1875 -2.0 -2.546875 -3.625l1.875 -1.421875zm21.171875 5.828125q0.765625 0.328125 4.609375 0.75l-0.859375 2.390625q-3.875 -0.5 -5.671875 -1.53125q-2.109375 1.265625 -6.140625 1.671875l-0.78125 -2.25q3.546875 -0.328125 5.046875 -1.03125q-0.59375 -0.53125 -0.875 -1.0625q-0.953125 1.046875 -2.71875 1.90625l-1.34375 -1.90625q3.03125 -1.625 3.84375 -3.109375l-1.359375 0l0 -4.046875l-1.15625 1.140625l-1.796875 -1.5625q2.71875 -2.453125 4.09375 -6.078125l1.921875 0.78125q0.921875 0.921875 -0.1875 1.046875l-0.09375 0.21875l7.28125 0l0 2.1875l-8.34375 0l-0.03125 0.046875l6.890625 0l0 6.265625l-4.703125 0l-0.0625 0.109375l2.875 0l0.4375 -0.4375l1.34375 1.171875q1.40625 0.671875 -0.203125 1.046875q-0.96875 1.40625 -2.015625 2.28125zm-2.890625 -2.09375q0.140625 0.234375 0.953125 0.890625q0.921875 -0.796875 0.984375 -0.890625l-1.9375 0zm-1.3125 -6.375l0 0.171875l4.484375 0l0 -0.171875l-4.484375 0zm0 2.140625l0 0.1875l4.484375 0l0 -0.1875l-4.484375 0zm26.6875 7.171875q0 0.09375 -0.09375 0.09375l0 -14.875l1.84375 0q1.609375 0.21875 0.421875 1.046875l0 14.5q0 1.421875 -1.421875 1.421875l-2.0 0l-0.59375 -2.1875l1.84375 0zm-10.734375 -12.703125l0.703125 0l0 -2.59375l1.828125 0q1.578125 0.203125 0.4375 1.046875l0 1.546875l3.34375 0l0 2.203125l-3.34375 0l0 1.140625l4.59375 0l0 2.1875l-4.59375 0l0 0.640625l3.484375 0l0 5.875q0 1.4375 -1.421875 1.4375l-1.4375 0l-0.46875 -2.203125l1.15625 0q0 0.09375 -0.09375 0.09375l0 -3.015625l-1.21875 0l0 6.609375l-2.265625 0l0 -6.609375l-1.0 0l0 5.125l-2.265625 0l0 -7.3125l3.265625 0l0 -0.640625l-4.671875 0l0 -2.1875l4.671875 0l0 -1.140625l-1.671875 0q-0.359375 0.625 -1.109375 1.703125l-1.828125 -1.265625q1.3125 -1.84375 2.484375 -4.65625l1.75 0.578125q0.921875 0.90625 -0.15625 1.078125l-0.171875 0.359375zm7.453125 11.109375l0 -11.84375l1.828125 0q1.609375 0.21875 0.4375 1.03125l0 10.8125l-2.265625 0z" fill-rule="nonzero"/><path fill="#000000" d="m318.38647 239.17722l0 -13.359375l5.6875 0q2.140625 0 3.109375 0.359375q0.96875 0.359375 1.546875 1.28125q0.578125 0.921875 0.578125 2.109375q0 1.5 -0.890625 2.484375q-0.875 0.96875 -2.625 1.234375q0.875 0.5 1.4375 1.125q0.578125 0.609375 1.53125 2.15625l1.640625 2.609375l-3.234375 0l-1.9375 -2.90625q-1.046875 -1.5625 -1.4375 -1.96875q-0.375 -0.40625 -0.8125 -0.546875q-0.421875 -0.15625 -1.34375 -0.15625l-0.546875 0l0 5.578125l-2.703125 0zm2.703125 -7.703125l2.0 0q1.9375 0 2.421875 -0.15625q0.484375 -0.171875 0.75 -0.578125q0.28125 -0.40625 0.28125 -1.0q0 -0.671875 -0.359375 -1.078125q-0.359375 -0.421875 -1.015625 -0.53125q-0.328125 -0.046875 -1.96875 -0.046875l-2.109375 0l0 3.390625zm10.769836 7.703125l0 -13.359375l4.328125 0q2.453125 0 3.203125 0.203125q1.140625 0.296875 1.921875 1.3125q0.78125 1.0 0.78125 2.59375q0 1.234375 -0.453125 2.078125q-0.453125 0.828125 -1.140625 1.3125q-0.6875 0.46875 -1.390625 0.625q-0.96875 0.203125 -2.796875 0.203125l-1.765625 0l0 5.03125l-2.6875 0zm2.6875 -11.09375l0 3.78125l1.484375 0q1.59375 0 2.125 -0.203125q0.546875 -0.203125 0.84375 -0.65625q0.3125 -0.453125 0.3125 -1.03125q0 -0.734375 -0.4375 -1.203125q-0.421875 -0.484375 -1.078125 -0.59375q-0.484375 -0.09375 -1.9375 -0.09375l-1.3125 0zm18.302948 6.1875l2.609375 0.828125q-0.59375 2.1875 -2.0 3.25q-1.390625 1.0625 -3.546875 1.0625q-2.65625 0 -4.375 -1.8125q-1.703125 -1.828125 -1.703125 -4.984375q0 -3.328125 1.71875 -5.171875q1.71875 -1.84375 4.515625 -1.84375q2.453125 0 3.984375 1.4375q0.921875 0.859375 1.375 2.46875l-2.671875 0.640625q-0.234375 -1.046875 -0.984375 -1.640625q-0.75 -0.609375 -1.828125 -0.609375q-1.484375 0 -2.421875 1.078125q-0.921875 1.0625 -0.921875 3.4375q0 2.53125 0.90625 3.609375q0.921875 1.078125 2.375 1.078125q1.078125 0 1.84375 -0.671875q0.78125 -0.6875 1.125 -2.15625z" fill-rule="nonzero"/><path fill="#000000" d="m368.50613 234.00534q-1.640625 3.1875 -3.125 5.53125q0.375 1.8125 -0.90625 0.59375l-1.84375 -1.59375q1.5625 -1.828125 3.90625 -6.0625l1.96875 1.53125zm6.796875 -6.734375q0.96875 -1.453125 2.09375 -3.765625l1.875 0.828125q1.515625 1.109375 -0.046875 1.109375q-1.09375 1.984375 -1.828125 2.9375l-2.09375 -1.109375zm-9.390625 4.984375q-1.359375 -1.640625 -2.84375 -2.671875l1.359375 -1.6875q1.671875 0.921875 3.140625 2.578125l-1.65625 1.78125zm10.90625 4.25l-5.53125 0l0 4.15625l-2.265625 0l0 -12.65625l3.859375 0l0 -4.90625l1.828125 0q1.578125 0.203125 0.4375 1.046875l0 3.859375l3.9375 0l0 11.078125q0 1.4375 -1.4375 1.4375l-1.875 0l-0.359375 -2.203125l1.5 0q0 0.09375 -0.09375 0.09375l0 -1.90625zm-6.125 -8.03125q-0.8125 -1.890625 -1.828125 -3.484375l2.046875 -1.171875q1.296875 1.640625 2.046875 3.59375l-2.265625 1.0625zm0.59375 1.71875l0 0.921875l5.53125 0l0 -0.921875l-5.53125 0zm0 4.125l5.53125 0l0 -1.0l-5.53125 0l0 1.0zm-4.3125 -6.3125q-1.375 -1.453125 -3.015625 -2.46875l1.265625 -1.71875q1.921875 1.0 3.21875 2.5l-1.46875 1.6875zm14.65625 11.5625q1.28125 -2.390625 1.71875 -4.75l1.953125 0.53125q1.640625 0.21875 0.25 1.09375q-0.5625 1.890625 -1.71875 4.125l-2.203125 -1.0zm16.171875 0.546875q-1.53125 -2.5625 -3.390625 -4.25l1.890625 -1.4375q2.125 1.8125 3.53125 4.171875l-2.03125 1.515625zm-10.03125 -5.28125q1.609375 0.21875 0.4375 1.03125l0 2.328125q0 0.203125 0.125 0.203125l4.609375 0q0.234375 0 0.296875 -0.171875l0.390625 -1.453125l2.3125 0.4375l-0.46875 1.828125q-0.359375 1.546875 -2.453125 1.546875l-5.34375 0q-1.734375 0 -1.734375 -1.640625l0 -4.109375l1.828125 0zm-1.125 -0.484375l0 0.671875l-2.265625 0l0 -10.28125l4.09375 0l0.453125 -1.8125l2.125 0.1875q1.453125 0.765625 -0.046875 1.09375l-0.1875 0.53125l5.703125 0l0 10.203125l-2.265625 0l0 -0.59375l-7.609375 0zm3.609375 -0.71875q1.625 1.15625 3.0 3.15625l-1.875 1.453125q-1.484375 -2.078125 -2.828125 -3.25l1.703125 -1.359375zm-3.609375 -1.25l7.609375 0l0 -0.625l-7.609375 0l0 0.625zm7.609375 -3.15625l-7.609375 0l0 0.5625l7.609375 0l0 -0.5625zm-7.609375 -1.96875l7.609375 0l0 -0.546875l-7.609375 0l0 0.546875z" fill-rule="nonzero"/><path fill="#000000" d="m237.06906 265.28033l0 -13.375l1.484375 0l0 1.25q0.53125 -0.734375 1.1875 -1.09375q0.671875 -0.375 1.625 -0.375q1.234375 0 2.171875 0.640625q0.953125 0.625 1.4375 1.796875q0.484375 1.15625 0.484375 2.546875q0 1.484375 -0.53125 2.671875q-0.53125 1.1875 -1.546875 1.828125q-1.015625 0.625 -2.140625 0.625q-0.8125 0 -1.46875 -0.34375q-0.65625 -0.34375 -1.0625 -0.875l0 4.703125l-1.640625 0zm1.484375 -8.484375q0 1.859375 0.75 2.765625q0.765625 0.890625 1.828125 0.890625q1.09375 0 1.875 -0.921875q0.78125 -0.9375 0.78125 -2.875q0 -1.84375 -0.765625 -2.765625q-0.75 -0.921875 -1.8125 -0.921875q-1.046875 0 -1.859375 0.984375q-0.796875 0.96875 -0.796875 2.84375zm8.875717 4.78125l0 -9.671875l1.46875 0l0 1.46875q0.5625 -1.03125 1.03125 -1.359375q0.484375 -0.328125 1.0625 -0.328125q0.828125 0 1.6875 0.53125l-0.5625 1.515625q-0.609375 -0.359375 -1.203125 -0.359375q-0.546875 0 -0.96875 0.328125q-0.421875 0.328125 -0.609375 0.890625q-0.28125 0.875 -0.28125 1.921875l0 5.0625l-1.625 0zm12.853317 -3.109375l1.6875 0.203125q-0.40625 1.484375 -1.484375 2.3125q-1.078125 0.8125 -2.765625 0.8125q-2.1250153 0 -3.3750153 -1.296875q-1.234375 -1.3125 -1.234375 -3.671875q0 -2.453125 1.25 -3.796875q1.265625 -1.34375 3.2656403 -1.34375q1.9375 0 3.15625 1.328125q1.234375 1.3125 1.234375 3.703125q0 0.15625 0 0.4375l-7.2187653 0q0.09375 1.59375 0.90625 2.453125q0.81251526 0.84375 2.0156403 0.84375q0.90625 0 1.546875 -0.46875q0.640625 -0.484375 1.015625 -1.515625zm-5.3906403 -2.65625l5.4062653 0q-0.109375 -1.21875 -0.625 -1.828125q-0.78125 -0.953125 -2.03125 -0.953125q-1.125 0 -1.9062653 0.765625q-0.765625 0.75 -0.84375 2.015625zm11.828842 5.765625l-3.6875 -9.671875l1.734375 0l2.078125 5.796875q0.328125 0.9375 0.625 1.9375q0.203125 -0.765625 0.609375 -1.828125l2.140625 -5.90625l1.6875 0l-3.65625 9.671875l-1.53125 0zm6.765625 0l0 -13.359375l1.78125 0l0 11.78125l6.5625 0l0 1.578125l-8.34375 0zm9.641357 -4.84375q0 -2.6875 1.484375 -3.96875q1.25 -1.078125 3.046875 -1.078125q2.0 0 3.265625 1.3125q1.265625 1.296875 1.265625 3.609375q0 1.859375 -0.5625 2.9375q-0.5625 1.0625 -1.640625 1.65625q-1.0625 0.59375 -2.328125 0.59375q-2.03125 0 -3.28125 -1.296875q-1.25 -1.3125 -1.25 -3.765625zm1.6875 0q0 1.859375 0.796875 2.796875q0.8125 0.921875 2.046875 0.921875q1.21875 0 2.03125 -0.921875q0.8125 -0.9375 0.8125 -2.84375q0 -1.796875 -0.8125 -2.71875q-0.8125 -0.921875 -2.03125 -0.921875q-1.234375 0 -2.046875 0.921875q-0.796875 0.90625 -0.796875 2.765625zm8.985077 5.640625l1.59375 0.234375q0.109375 0.75 0.5625 1.078125q0.609375 0.453125 1.671875 0.453125q1.140625 0 1.75 -0.453125q0.625 -0.453125 0.84375 -1.265625q0.125 -0.5 0.109375 -2.109375q-1.0625 1.265625 -2.671875 1.265625q-2.0 0 -3.09375 -1.4375q-1.09375 -1.4375 -1.09375 -3.453125q0 -1.390625 0.5 -2.5625q0.515625 -1.171875 1.453125 -1.796875q0.953125 -0.640625 2.25 -0.640625q1.703125 0 2.8125 1.375l0 -1.15625l1.515625 0l0 8.359375q0 2.265625 -0.46875 3.203125q-0.453125 0.9375 -1.453125 1.484375q-0.984375 0.546875 -2.453125 0.546875q-1.71875 0 -2.796875 -0.78125q-1.0625 -0.765625 -1.03125 -2.34375zm1.359375 -5.8125q0 1.90625 0.75 2.78125q0.765625 0.875 1.90625 0.875q1.125 0 1.890625 -0.859375q0.765625 -0.875 0.765625 -2.734375q0 -1.78125 -0.796875 -2.671875q-0.78125 -0.90625 -1.890625 -0.90625q-1.09375 0 -1.859375 0.890625q-0.765625 0.875 -0.765625 2.625zm9.828857 5.015625l0 -13.359375l1.765625 0l0 13.359375l-1.765625 0zm4.6832886 0l0 -9.671875l1.46875 0l0 1.375q1.0625 -1.59375 3.078125 -1.59375q0.875 0 1.609375 0.3125q0.734375 0.3125 1.09375 0.828125q0.375 0.5 0.515625 1.203125q0.09375 0.453125 0.09375 1.59375l0 5.953125l-1.640625 0l0 -5.890625q0 -1.0 -0.203125 -1.484375q-0.1875 -0.5 -0.671875 -0.796875q-0.484375 -0.296875 -1.140625 -0.296875q-1.046875 0 -1.8125 0.671875q-0.75 0.65625 -0.75 2.515625l0 5.28125l-1.640625 0zm16.641357 0l0 -1.21875q-0.90625 1.4375 -2.703125 1.4375q-1.15625 0 -2.125 -0.640625q-0.96875 -0.640625 -1.5 -1.78125q-0.53125 -1.140625 -0.53125 -2.625q0 -1.453125 0.484375 -2.625q0.484375 -1.1875 1.4375 -1.8125q0.96875 -0.625 2.171875 -0.625q0.875 0 1.546875 0.375q0.6875 0.359375 1.109375 0.953125l0 -4.796875l1.640625 0l0 13.359375l-1.53125 0zm-5.171875 -4.828125q0 1.859375 0.78125 2.78125q0.78125 0.921875 1.84375 0.921875q1.078125 0 1.828125 -0.875q0.75 -0.890625 0.75 -2.6875q0 -1.984375 -0.765625 -2.90625q-0.765625 -0.9375 -1.890625 -0.9375q-1.078125 0 -1.8125 0.890625q-0.734375 0.890625 -0.734375 2.8125zm15.906952 1.71875l1.6875 0.203125q-0.40625 1.484375 -1.484375 2.3125q-1.078125 0.8125 -2.765625 0.8125q-2.125 0 -3.375 -1.296875q-1.234375 -1.3125 -1.234375 -3.671875q0 -2.453125 1.25 -3.796875q1.265625 -1.34375 3.265625 -1.34375q1.9375 0 3.15625 1.328125q1.234375 1.3125 1.234375 3.703125q0 0.15625 0 0.4375l-7.21875 0q0.09375 1.59375 0.90625 2.453125q0.8125 0.84375 2.015625 0.84375q0.90625 0 1.546875 -0.46875q0.640625 -0.484375 1.015625 -1.515625zm-5.390625 -2.65625l5.40625 0q-0.109375 -1.21875 -0.625 -1.828125q-0.78125 -0.953125 -2.03125 -0.953125q-1.125 0 -1.90625 0.765625q-0.765625 0.75 -0.84375 2.015625zm8.047607 5.765625l3.53125 -5.03125l-3.265625 -4.640625l2.046875 0l1.484375 2.265625q0.421875 0.640625 0.671875 1.078125q0.40625 -0.59375 0.734375 -1.0625l1.640625 -2.28125l1.953125 0l-3.34375 4.546875l3.59375 5.125l-2.015625 0l-1.984375 -3.0l-0.515625 -0.8125l-2.546875 3.8125l-1.984375 0zm24.230164 -7.859375l-8.828125 0l0 -1.515625l8.828125 0l0 1.515625zm0 4.0625l-8.828125 0l0 -1.53125l8.828125 0l0 1.53125zm15.500153 -6.28125l-1.625 0.125q-0.21875 -0.96875 -0.625 -1.40625q-0.65625 -0.703125 -1.640625 -0.703125q-0.78125 0 -1.375 0.4375q-0.765625 0.5625 -1.21875 1.65625q-0.453125 1.078125 -0.46875 3.078125q0.59375 -0.890625 1.453125 -1.328125q0.859375 -0.4375 1.796875 -0.4375q1.640625 0 2.78125 1.203125q1.15625 1.203125 1.15625 3.109375q0 1.265625 -0.546875 2.34375q-0.53125 1.078125 -1.484375 1.65625q-0.9375 0.578125 -2.140625 0.578125q-2.0625 0 -3.359375 -1.5q-1.28125 -1.515625 -1.28125 -4.984375q0 -3.875 1.421875 -5.625q1.25 -1.53125 3.375 -1.53125q1.5625 0 2.5625 0.890625q1.015625 0.875 1.21875 2.4375zm-6.6875 5.75q0 0.84375 0.359375 1.625q0.359375 0.765625 1.0 1.171875q0.640625 0.40625 1.359375 0.40625q1.03125 0 1.78125 -0.828125q0.75 -0.84375 0.75 -2.28125q0 -1.390625 -0.734375 -2.1875q-0.734375 -0.796875 -1.859375 -0.796875q-1.109375 0 -1.890625 0.796875q-0.765625 0.796875 -0.765625 2.09375z" fill-rule="nonzero"/><path fill="#000000" d="m237.06906 287.68033l0 -13.375l1.484375 0l0 1.25q0.53125 -0.734375 1.1875 -1.09375q0.671875 -0.375 1.625 -0.375q1.234375 0 2.171875 0.640625q0.953125 0.625 1.4375 1.796875q0.484375 1.15625 0.484375 2.546875q0 1.484375 -0.53125 2.671875q-0.53125 1.1875 -1.546875 1.828125q-1.015625 0.625 -2.140625 0.625q-0.8125 0 -1.46875 -0.34375q-0.65625 -0.34375 -1.0625 -0.875l0 4.703125l-1.640625 0zm1.484375 -8.484375q0 1.859375 0.75 2.765625q0.765625 0.890625 1.828125 0.890625q1.09375 0 1.875 -0.921875q0.78125 -0.9375 0.78125 -2.875q0 -1.84375 -0.765625 -2.765625q-0.75 -0.921875 -1.8125 -0.921875q-1.046875 0 -1.859375 0.984375q-0.796875 0.96875 -0.796875 2.84375zm8.875717 4.78125l0 -9.671875l1.46875 0l0 1.46875q0.5625 -1.03125 1.03125 -1.359375q0.484375 -0.328125 1.0625 -0.328125q0.828125 0 1.6875 0.53125l-0.5625 1.515625q-0.609375 -0.359375 -1.203125 -0.359375q-0.546875 0 -0.96875 0.328125q-0.421875 0.328125 -0.609375 0.890625q-0.28125 0.875 -0.28125 1.921875l0 5.0625l-1.625 0zm12.853317 -3.109375l1.6875 0.203125q-0.40625 1.484375 -1.484375 2.3125q-1.078125 0.8125 -2.765625 0.8125q-2.1250153 0 -3.3750153 -1.296875q-1.234375 -1.3125 -1.234375 -3.671875q0 -2.453125 1.25 -3.796875q1.265625 -1.34375 3.2656403 -1.34375q1.9375 0 3.15625 1.328125q1.234375 1.3125 1.234375 3.703125q0 0.15625 0 0.4375l-7.2187653 0q0.09375 1.59375 0.90625 2.453125q0.81251526 0.84375 2.0156403 0.84375q0.90625 0 1.546875 -0.46875q0.640625 -0.484375 1.015625 -1.515625zm-5.3906403 -2.65625l5.4062653 0q-0.109375 -1.21875 -0.625 -1.828125q-0.78125 -0.953125 -2.03125 -0.953125q-1.125 0 -1.9062653 0.765625q-0.765625 0.75 -0.84375 2.015625zm11.828842 5.765625l-3.6875 -9.671875l1.734375 0l2.078125 5.796875q0.328125 0.9375 0.625 1.9375q0.203125 -0.765625 0.609375 -1.828125l2.140625 -5.90625l1.6875 0l-3.65625 9.671875l-1.53125 0zm6.765625 0l0 -13.359375l1.78125 0l0 11.78125l6.5625 0l0 1.578125l-8.34375 0zm9.641357 -4.84375q0 -2.6875 1.484375 -3.96875q1.25 -1.078125 3.046875 -1.078125q2.0 0 3.265625 1.3125q1.265625 1.296875 1.265625 3.609375q0 1.859375 -0.5625 2.9375q-0.5625 1.0625 -1.640625 1.65625q-1.0625 0.59375 -2.328125 0.59375q-2.03125 0 -3.28125 -1.296875q-1.25 -1.3125 -1.25 -3.765625zm1.6875 0q0 1.859375 0.796875 2.796875q0.8125 0.921875 2.046875 0.921875q1.21875 0 2.03125 -0.921875q0.8125 -0.9375 0.8125 -2.84375q0 -1.796875 -0.8125 -2.71875q-0.8125 -0.921875 -2.03125 -0.921875q-1.234375 0 -2.046875 0.921875q-0.796875 0.90625 -0.796875 2.765625zm8.985077 5.640625l1.59375 0.234375q0.109375 0.75 0.5625 1.078125q0.609375 0.453125 1.671875 0.453125q1.140625 0 1.75 -0.453125q0.625 -0.453125 0.84375 -1.265625q0.125 -0.5 0.109375 -2.109375q-1.0625 1.265625 -2.671875 1.265625q-2.0 0 -3.09375 -1.4375q-1.09375 -1.4375 -1.09375 -3.453125q0 -1.390625 0.5 -2.5625q0.515625 -1.171875 1.453125 -1.796875q0.953125 -0.640625 2.25 -0.640625q1.703125 0 2.8125 1.375l0 -1.15625l1.515625 0l0 8.359375q0 2.265625 -0.46875 3.203125q-0.453125 0.9375 -1.453125 1.484375q-0.984375 0.546875 -2.453125 0.546875q-1.71875 0 -2.796875 -0.78125q-1.0625 -0.765625 -1.03125 -2.34375zm1.359375 -5.8125q0 1.90625 0.75 2.78125q0.765625 0.875 1.90625 0.875q1.125 0 1.890625 -0.859375q0.765625 -0.875 0.765625 -2.734375q0 -1.78125 -0.796875 -2.671875q-0.78125 -0.90625 -1.890625 -0.90625q-1.09375 0 -1.859375 0.890625q-0.765625 0.875 -0.765625 2.625zm12.938232 5.015625l0 -11.78125l-4.40625 0l0 -1.578125l10.578125 0l0 1.578125l-4.40625 0l0 11.78125l-1.765625 0zm12.34259 -3.109375l1.6875 0.203125q-0.40625 1.484375 -1.484375 2.3125q-1.078125 0.8125 -2.765625 0.8125q-2.125 0 -3.375 -1.296875q-1.234375 -1.3125 -1.234375 -3.671875q0 -2.453125 1.25 -3.796875q1.265625 -1.34375 3.265625 -1.34375q1.9375 0 3.15625 1.328125q1.234375 1.3125 1.234375 3.703125q0 0.15625 0 0.4375l-7.21875 0q0.09375 1.59375 0.90625 2.453125q0.8125 0.84375 2.015625 0.84375q0.90625 0 1.546875 -0.46875q0.640625 -0.484375 1.015625 -1.515625zm-5.390625 -2.65625l5.40625 0q-0.109375 -1.21875 -0.625 -1.828125q-0.78125 -0.953125 -2.03125 -0.953125q-1.125 0 -1.90625 0.765625q-0.765625 0.75 -0.84375 2.015625zm9.125702 5.765625l0 -9.671875l1.46875 0l0 1.46875q0.5625 -1.03125 1.03125 -1.359375q0.484375 -0.328125 1.0625 -0.328125q0.828125 0 1.6875 0.53125l-0.5625 1.515625q-0.609375 -0.359375 -1.203125 -0.359375q-0.546875 0 -0.96875 0.328125q-0.421875 0.328125 -0.609375 0.890625q-0.28125 0.875 -0.28125 1.921875l0 5.0625l-1.625 0zm6.228302 0l0 -9.671875l1.46875 0l0 1.359375q0.453125 -0.71875 1.203125 -1.140625q0.765625 -0.4375 1.71875 -0.4375q1.078125 0 1.765625 0.453125q0.6875 0.4375 0.96875 1.234375q1.15625 -1.6875 2.984375 -1.6875q1.453125 0 2.21875 0.796875q0.78125 0.796875 0.78125 2.453125l0 6.640625l-1.640625 0l0 -6.09375q0 -0.984375 -0.15625 -1.40625q-0.15625 -0.4375 -0.578125 -0.703125q-0.421875 -0.265625 -0.984375 -0.265625q-1.015625 0 -1.6875 0.6875q-0.671875 0.671875 -0.671875 2.15625l0 5.625l-1.640625 0l0 -6.28125q0 -1.09375 -0.40625 -1.640625q-0.40625 -0.546875 -1.3125 -0.546875q-0.6875 0 -1.28125 0.359375q-0.59375 0.359375 -0.859375 1.0625q-0.25 0.703125 -0.25 2.03125l0 5.015625l-1.640625 0zm29.349121 -7.859375l-8.828125 0l0 -1.515625l8.828125 0l0 1.515625zm0 4.0625l-8.828125 0l0 -1.53125l8.828125 0l0 1.53125zm7.000122 0.265625l1.640625 -0.21875q0.28125 1.40625 0.953125 2.015625q0.6875 0.609375 1.65625 0.609375q1.15625 0 1.953125 -0.796875q0.796875 -0.796875 0.796875 -1.984375q0 -1.125 -0.734375 -1.859375q-0.734375 -0.734375 -1.875 -0.734375q-0.46875 0 -1.15625 0.171875l0.1875 -1.4375q0.15625 0.015625 0.265625 0.015625q1.046875 0 1.875 -0.546875q0.84375 -0.546875 0.84375 -1.671875q0 -0.90625 -0.609375 -1.5q-0.609375 -0.59375 -1.578125 -0.59375q-0.953125 0 -1.59375 0.609375q-0.640625 0.59375 -0.8125 1.796875l-1.640625 -0.296875q0.296875 -1.640625 1.359375 -2.546875q1.0625 -0.90625 2.65625 -0.90625q1.09375 0 2.0 0.46875q0.921875 0.46875 1.40625 1.28125q0.5 0.8125 0.5 1.71875q0 0.859375 -0.46875 1.578125q-0.46875 0.703125 -1.375 1.125q1.1875 0.28125 1.84375 1.140625q0.65625 0.859375 0.65625 2.15625q0 1.734375 -1.28125 2.953125q-1.265625 1.21875 -3.21875 1.21875q-1.765625 0 -2.921875 -1.046875q-1.15625 -1.046875 -1.328125 -2.71875z" fill-rule="nonzero"/><path fill="#000000" fill-opacity="0.0" d="m209.7941 299.53357l229.73227 0" fill-rule="evenodd"/><path stroke="#000000" stroke-width="1.0" stroke-linejoin="round" stroke-linecap="butt" d="m209.79408 299.5336l223.73228 0" fill-rule="evenodd"/><path fill="#000000" stroke="#000000" stroke-width="1.0" stroke-linecap="butt" d="m433.52637 301.18533l4.538086 -1.6517334l-4.538086 -1.6517334z" fill-rule="evenodd"/><path fill="#000000" fill-opacity="0.0" d="m439.52637 350.35617l-265.07086 0" fill-rule="evenodd"/><path stroke="#000000" stroke-width="1.0" stroke-linejoin="round" stroke-linecap="butt" d="m439.52637 350.35617l-259.07086 0" fill-rule="evenodd"/><path fill="#000000" stroke="#000000" stroke-width="1.0" stroke-linecap="butt" d="m180.4555 348.70444l-4.538101 1.6517334l4.538101 1.6517334z" fill-rule="evenodd"/><path fill="#000000" fill-opacity="0.0" d="m240.00787 350.35696l133.95276 0l0 42.015747l-133.95276 0z" fill-rule="evenodd"/><path fill="#000000" d="m262.82037 377.27695l0 -2.6875l-5.46875 0l0 -2.234375l5.796875 -8.484375l2.15625 0l0 8.46875l1.65625 0l0 2.25l-1.65625 0l0 2.6875l-2.484375 0zm0 -4.9375l0 -4.5625l-3.078125 4.5625l3.078125 0zm5.9069824 4.9375l0 -2.5625l2.5625 0l0 2.5625l-2.5625 0z" fill-rule="nonzero"/><path fill="#000000" d="m287.61377 365.94882l0.234375 -0.59375l1.765625 1.359375q1.0625 0.90625 -0.25 1.15625q-0.75 2.453125 -1.90625 3.984375q1.28125 1.046875 3.625 1.828125l-1.078125 2.34375q-2.40625 -0.875 -4.125 -2.390625q-1.640625 1.5 -3.9375 2.65625l-1.3125 -2.109375q1.921875 -0.890625 3.59375 -2.203125q-1.375 -1.96875 -1.84375 -3.828125l-0.421875 0l0 1.75q0 3.71875 -2.234375 5.953125l-1.421875 -2.171875q1.390625 -1.140625 1.390625 -3.921875l0 -7.8125l10.65625 0l0 2.40625l-8.390625 0l0 1.59375l5.65625 0zm3.859375 10.171875l-0.46875 2.203125l-9.359375 0q-2.859375 0 -4.1875 -1.65625q-0.4375 0.71875 -2.5625 2.03125l-1.390625 -2.375q1.984375 -0.8125 2.703125 -1.46875l0 -3.96875l-2.453125 0l0 -2.40625l4.71875 0l0 6.34375q0.984375 1.296875 3.09375 1.296875l9.90625 0zm-15.453125 -14.65625q2.125 1.40625 3.296875 3.3125l-1.734375 1.734375q-1.34375 -1.890625 -3.203125 -3.3125l1.640625 -1.734375zm8.625 6.6875q0.453125 1.40625 1.109375 2.109375q0.796875 -1.125 1.09375 -2.109375l-2.203125 0zm15.125 3.21875l3.375 0l0 -3.15625l-3.375 0l0 3.15625zm3.375 2.9375l0 -0.75l-3.375 0l0 0.828125l-2.265625 0l0 -8.359375l7.90625 0l0 8.28125l-2.265625 0zm-7.3125 1.296875l11.171875 0l0 -11.3125l-11.171875 0l0 11.3125zm11.171875 2.859375l0 -0.671875l-11.171875 0l0 1.046875l-2.265625 0l0 -16.75l15.703125 0l0 16.375l-2.265625 0zm16.703125 -7.25q0.765625 -1.1875 1.875 -4.40625l1.8125 1.046875q1.421875 0.796875 -0.046875 1.125q-1.046875 2.59375 -2.484375 4.78125q1.359375 1.921875 1.984375 1.921875q0.3125 0 0.578125 -2.0l2.15625 1.140625q-0.71875 3.5625 -2.078125 3.5625q-2.296875 0 -4.203125 -2.9375q-1.796875 1.96875 -4.90625 3.5l-1.3125 -2.0625q3.78125 -1.875 5.015625 -3.53125q-0.984375 -2.40625 -0.984375 -6.640625l0 -0.28125l-5.53125 0l0 1.828125l4.765625 0l-0.171875 5.453125q-0.078125 1.78125 -1.5 1.78125l-2.25 0l-0.375 -2.1875l1.734375 0q0.203125 0 0.203125 -0.21875l0.140625 -2.640625l-2.546875 0l0 1.765625q0 3.84375 -2.1875 6.625l-1.875 -1.515625q1.796875 -2.21875 1.796875 -4.890625l0 -8.1875l7.796875 0l0 -3.1875l1.828125 0q1.609375 0.21875 0.4375 1.03125l0 2.15625l5.640625 0l0 2.1875l-5.640625 0l0 0.28125q0 3.421875 0.328125 4.5zm0.984375 -10.015625q1.5 0.734375 2.703125 1.953125l-1.6875 1.671875q-0.96875 -1.0625 -2.625 -2.03125l1.609375 -1.59375zm17.59375 17.125l-0.203125 -2.421875l2.125 0q0.59375 0 0.65625 -1.703125l0.34375 -6.640625l-2.21875 0q0.296875 8.8125 -8.46875 11.140625l-0.734375 -2.46875q7.203125 -1.875 6.9375 -8.671875l-3.21875 0l0 -2.203125l3.203125 0l0 -4.078125l1.828125 0q1.578125 0.203125 0.4375 1.046875l0 3.03125l4.6875 0l-0.46875 9.25q-0.15625 3.71875 -2.3125 3.71875l-2.59375 0zm-6.4375 -12.703125l0 5.703125l2.921875 -0.796875l0.21875 2.328125l-6.59375 2.03125q-0.15625 1.140625 -1.078125 0.203125l-0.75 -2.421875l3.015625 -0.75l0 -6.296875l-2.453125 0l0 -2.1875l7.3125 0l0 2.1875l-2.59375 0z" fill-rule="nonzero"/><path fill="#6aa84f" d="m68.34777 498.54855l0 0c0 -19.847473 29.986343 -35.93701 66.97637 -35.93701l0 0c36.990036 0 66.97638 16.089539 66.97638 35.93701l0 0c0 19.847443 -29.986343 35.93698 -66.97638 35.93698l0 0c-36.99003 0 -66.97637 -16.089539 -66.97637 -35.93698z" fill-rule="evenodd"/><path fill="#000000" d="m109.18455 505.46857l0 -13.359375l2.5625 0l0 13.359375l-2.5625 0zm10.777054 -3.078125l2.546875 0.421875q-0.484375 1.40625 -1.546875 2.140625q-1.0625 0.734375 -2.65625 0.734375q-2.515625 0 -3.734375 -1.65625q-0.953125 -1.3125 -0.953125 -3.328125q0 -2.40625 1.25 -3.765625q1.265625 -1.359375 3.1875 -1.359375q2.15625 0 3.40625 1.421875q1.25 1.421875 1.1875 4.375l-6.40625 0q0.03125 1.140625 0.609375 1.78125q0.59375 0.625 1.484375 0.625q0.59375 0 1.0 -0.328125q0.421875 -0.328125 0.625 -1.0625zm0.15625 -2.59375q-0.03125 -1.109375 -0.578125 -1.6875q-0.546875 -0.578125 -1.328125 -0.578125q-0.84375 0 -1.390625 0.609375q-0.546875 0.609375 -0.53125 1.65625l3.828125 0zm6.531967 -1.046875l-2.328125 -0.421875q0.40625 -1.40625 1.359375 -2.078125q0.953125 -0.671875 2.8437424 -0.671875q1.703125 0 2.546875 0.40625q0.84375 0.40625 1.171875 1.03125q0.34375 0.625 0.34375 2.28125l-0.015625 3.0q0 1.265625 0.109375 1.875q0.125 0.609375 0.46875 1.296875l-2.53125 0q-0.109375 -0.25 -0.25 -0.75q-0.0625 -0.234375 -0.09375 -0.3125q-0.65625 0.640625 -1.40625 0.96875q-0.734375 0.3125 -1.5937424 0.3125q-1.484375 0 -2.34375 -0.8125q-0.859375 -0.8125 -0.859375 -2.046875q0 -0.828125 0.390625 -1.46875q0.390625 -0.640625 1.09375 -0.96875q0.703125 -0.34375 2.03125 -0.609375q1.7968674 -0.328125 2.4843674 -0.625l0 -0.25q0 -0.75 -0.359375 -1.0625q-0.359375 -0.3125 -1.375 -0.3125q-0.6874924 0 -1.0781174 0.28125q-0.375 0.265625 -0.609375 0.9375zm3.4218674 2.078125q-0.484375 0.15625 -1.5625 0.390625q-1.0624924 0.21875 -1.3906174 0.4375q-0.5 0.359375 -0.5 0.90625q0 0.53125 0.40625 0.9375q0.40625 0.390625 1.0156174 0.390625q0.703125 0 1.328125 -0.46875q0.46875 -0.34375 0.609375 -0.84375q0.09375 -0.328125 0.09375 -1.25l0 -0.5zm13.922592 4.640625l-2.390625 0l0 -1.421875q-0.59375 0.828125 -1.40625 1.234375q-0.796875 0.40625 -1.609375 0.40625q-1.671875 0 -2.859375 -1.34375q-1.1875 -1.34375 -1.1875 -3.75q0 -2.453125 1.15625 -3.734375q1.15625 -1.28125 2.921875 -1.28125q1.625 0 2.8125 1.34375l0 -4.8125l2.5625 0l0 13.359375zm-6.84375 -5.046875q0 1.546875 0.4375 2.234375q0.609375 1.015625 1.71875 1.015625q0.890625 0 1.5 -0.75q0.625 -0.765625 0.625 -2.25q0 -1.671875 -0.609375 -2.40625q-0.59375 -0.734375 -1.53125 -0.734375q-0.90625 0 -1.53125 0.734375q-0.609375 0.71875 -0.609375 2.15625zm14.958481 1.96875l2.546875 0.421875q-0.484375 1.40625 -1.546875 2.140625q-1.0625 0.734375 -2.65625 0.734375q-2.515625 0 -3.734375 -1.65625q-0.953125 -1.3125 -0.953125 -3.328125q0 -2.40625 1.25 -3.765625q1.265625 -1.359375 3.1875 -1.359375q2.15625 0 3.40625 1.421875q1.25 1.421875 1.1875 4.375l-6.40625 0q0.03125 1.140625 0.609375 1.78125q0.59375 0.625 1.484375 0.625q0.59375 0 1.0 -0.328125q0.421875 -0.328125 0.625 -1.0625zm0.15625 -2.59375q-0.03125 -1.109375 -0.578125 -1.6875q-0.546875 -0.578125 -1.328125 -0.578125q-0.84375 0 -1.390625 0.609375q-0.546875 0.609375 -0.53125 1.65625l3.828125 0zm7.078842 5.671875l-2.5625 0l0 -9.671875l2.375 0l0 1.375q0.609375 -0.984375 1.09375 -1.28125q0.484375 -0.3125 1.109375 -0.3125q0.875 0 1.6875 0.484375l-0.796875 2.234375q-0.640625 -0.421875 -1.203125 -0.421875q-0.53125 0 -0.90625 0.296875q-0.375 0.296875 -0.59375 1.078125q-0.203125 0.765625 -0.203125 3.234375l0 2.984375z" fill-rule="nonzero"/><path fill="#6d9eeb" d="m428.1509 498.54855l0 0c0 -19.847473 29.986359 -35.93701 66.97638 -35.93701l0 0c36.99002 0 66.97641 16.089539 66.97641 35.93701l0 0c0 19.847443 -29.98639 35.93698 -66.97641 35.93698l0 0c-36.99002 0 -66.97638 -16.089539 -66.97638 -35.93698z" fill-rule="evenodd"/><path fill="#000000" d="m459.58673 495.7967l1.421875 0l0 -0.734375q0 -1.21875 0.25 -1.8125q0.265625 -0.609375 0.953125 -0.984375q0.703125 -0.375 1.78125 -0.375q1.09375 0 2.140625 0.328125l-0.359375 1.78125q-0.609375 -0.140625 -1.171875 -0.140625q-0.546875 0 -0.796875 0.265625q-0.234375 0.25 -0.234375 0.984375l0 0.6875l1.90625 0l0 2.015625l-1.90625 0l0 7.65625l-2.5625 0l0 -7.65625l-1.421875 0l0 -2.015625zm6.743927 4.703125q0 -1.28125 0.625 -2.46875q0.625 -1.203125 1.78125 -1.828125q1.15625 -0.625 2.578125 -0.625q2.1875 0 3.59375 1.421875q1.40625 1.421875 1.40625 3.609375q0 2.1875 -1.421875 3.640625q-1.421875 1.4375 -3.5625 1.4375q-1.328125 0 -2.546875 -0.59375q-1.203125 -0.609375 -1.828125 -1.765625q-0.625 -1.171875 -0.625 -2.828125zm2.625 0.125q0 1.453125 0.671875 2.21875q0.6875 0.75 1.6875 0.75q1.0 0 1.671875 -0.75q0.6875 -0.765625 0.6875 -2.234375q0 -1.421875 -0.6875 -2.1875q-0.671875 -0.765625 -1.671875 -0.765625q-1.0 0 -1.6875 0.765625q-0.671875 0.765625 -0.671875 2.203125zm9.364716 4.84375l0 -13.359375l2.5625 0l0 13.359375l-2.5625 0zm5.183319 0l0 -13.359375l2.5625 0l0 13.359375l-2.5625 0zm4.5895386 -4.96875q0 -1.28125 0.625 -2.46875q0.625 -1.203125 1.78125 -1.828125q1.15625 -0.625 2.578125 -0.625q2.1875 0 3.59375 1.421875q1.40625 1.421875 1.40625 3.609375q0 2.1875 -1.421875 3.640625q-1.421875 1.4375 -3.5625 1.4375q-1.328125 0 -2.546875 -0.59375q-1.203125 -0.609375 -1.828125 -1.765625q-0.625 -1.171875 -0.625 -2.828125zm2.625 0.125q0 1.453125 0.671875 2.21875q0.6875 0.75 1.6875 0.75q1.0 0 1.671875 -0.75q0.6875 -0.765625 0.6875 -2.234375q0 -1.421875 -0.6875 -2.1875q-0.671875 -0.765625 -1.671875 -0.765625q-1.0 0 -1.6875 0.765625q-0.671875 0.765625 -0.671875 2.203125zm11.161621 4.84375l-3.0625 -9.671875l2.484375 0l1.8125 6.34375l1.671875 -6.34375l2.46875 0l1.609375 6.34375l1.859375 -6.34375l2.5155945 0l-3.1093445 9.671875l-2.453125 0l-1.671875 -6.21875l-1.640625 6.21875l-2.484375 0zm18.30832 -3.078125l2.546875 0.421875q-0.484375 1.40625 -1.546875 2.140625q-1.0625 0.734375 -2.65625 0.734375q-2.515625 0 -3.734375 -1.65625q-0.953125 -1.3125 -0.953125 -3.328125q0 -2.40625 1.25 -3.765625q1.265625 -1.359375 3.1875 -1.359375q2.15625 0 3.40625 1.421875q1.25 1.421875 1.1875 4.375l-6.40625 0q0.03125 1.140625 0.609375 1.78125q0.59375 0.625 1.484375 0.625q0.59375 0 1.0 -0.328125q0.421875 -0.328125 0.625 -1.0625zm0.15625 -2.59375q-0.03125 -1.109375 -0.578125 -1.6875q-0.546875 -0.578125 -1.328125 -0.578125q-0.84375 0 -1.390625 0.609375q-0.546875 0.609375 -0.53125 1.65625l3.828125 0zm7.0787964 5.671875l-2.5625 0l0 -9.671875l2.375 0l0 1.375q0.609375 -0.984375 1.09375 -1.28125q0.484375 -0.3125 1.109375 -0.3125q0.875 0 1.6875 0.484375l-0.796875 2.234375q-0.640625 -0.421875 -1.203125 -0.421875q-0.53125 0 -0.90625 0.296875q-0.375 0.296875 -0.59375 1.078125q-0.203125 0.765625 -0.203125 3.234375l0 2.984375z" fill-rule="nonzero"/><path fill="#000000" fill-opacity="0.0" d="m211.52362 433.91864l207.40158 0l0 64.62991l-207.40158 0z" fill-rule="evenodd"/><path fill="#000000" d="m229.35175 457.40112l2.546875 -0.265625q0.109375 0.875 0.640625 1.375q0.546875 0.5 1.25 0.5q0.796875 0 1.34375 -0.640625q0.5625 -0.65625 0.5625 -1.96875q0 -1.234375 -0.546875 -1.84375q-0.546875 -0.609375 -1.4375 -0.609375q-1.09375 0 -1.96875 0.96875l-2.078125 -0.296875l1.3125 -6.953125l6.765625 0l0 2.390625l-4.828125 0l-0.40625 2.265625q0.859375 -0.421875 1.75 -0.421875q1.703125 0 2.890625 1.25q1.1875 1.234375 1.1875 3.203125q0 1.65625 -0.953125 2.9375q-1.3125 1.78125 -3.625 1.78125q-1.84375 0 -3.015625 -1.0q-1.15625 -1.0 -1.390625 -2.671875zm10.891342 3.4375l0 -2.5625l2.5625 0l0 2.5625l-2.5625 0z" fill-rule="nonzero"/><path fill="#000000" d="m250.28577 461.5105l-2.484375 0l0 -15.109375l12.421875 0l0 14.8125l-2.484375 0l0 -1.046875l-7.453125 0l0 1.34375zm7.453125 -9.46875l0 -3.453125l-7.453125 0l0 3.453125l7.453125 0zm0 5.9375l0 -3.75l-7.453125 0l0 3.75l7.453125 0zm20.6875 0.46875q-0.171875 3.578125 -2.1875 3.578125l-5.71875 0q-1.71875 0 -1.71875 -1.875l0 -5.65625l1.8125 0q1.625 0.171875 0.453125 1.03125l0 4.109375q0 0.203125 0.125 0.203125l4.453125 0q0.171875 0 0.203125 -0.203125l0.296875 -1.75l2.28125 0.5625zm-10.359375 -1.8125q-0.28125 2.21875 -1.6875 5.03125l-2.15625 -1.296875q1.25 -2.34375 1.671875 -5.46875l2.015625 0.5625q1.484375 0.59375 0.15625 1.171875zm6.046875 -7.15625l0 1.96875l5.78125 0l0 2.1875l-13.984375 0l0 -2.1875l5.9375 0l0 -1.96875l-7.125 0l0 -2.1875l7.125 0l0 -2.453125l1.828125 0q1.578125 0.203125 0.4375 1.046875l0 1.40625l6.96875 0l0 2.1875l-6.96875 0zm5.71875 11.484375q-1.625 -3.046875 -3.1875 -4.78125l1.78125 -1.546875q1.90625 2.015625 3.53125 4.640625l-2.125 1.6875zm-6.65625 -7.5q1.515625 1.703125 2.609375 3.421875l-1.9375 1.625q-1.1875 -2.0 -2.546875 -3.625l1.875 -1.421875zm21.171875 5.828125q0.765625 0.328125 4.609375 0.75l-0.859375 2.390625q-3.875 -0.5 -5.671875 -1.53125q-2.109375 1.265625 -6.140625 1.671875l-0.78125 -2.25q3.546875 -0.328125 5.046875 -1.03125q-0.59375 -0.53125 -0.875 -1.0625q-0.953125 1.046875 -2.71875 1.90625l-1.34375 -1.90625q3.03125 -1.625 3.84375 -3.109375l-1.359375 0l0 -4.046875l-1.15625 1.140625l-1.796875 -1.5625q2.71875 -2.453125 4.09375 -6.078125l1.921875 0.78125q0.921875 0.921875 -0.1875 1.046875l-0.09375 0.21875l7.28125 0l0 2.1875l-8.34375 0l-0.03125 0.046875l6.890625 0l0 6.265625l-4.703125 0l-0.0625 0.109375l2.875 0l0.4375 -0.4375l1.34375 1.171875q1.40625 0.671875 -0.203125 1.046875q-0.96875 1.40625 -2.015625 2.28125zm-2.890625 -2.09375q0.140625 0.234375 0.953125 0.890625q0.921875 -0.796875 0.984375 -0.890625l-1.9375 0zm-1.3125 -6.375l0 0.171875l4.484375 0l0 -0.171875l-4.484375 0zm0 2.140625l0 0.1875l4.484375 0l0 -0.1875l-4.484375 0zm26.6875 7.171875q0 0.09375 -0.09375 0.09375l0 -14.875l1.84375 0q1.609375 0.21875 0.421875 1.046875l0 14.5q0 1.421875 -1.421875 1.421875l-2.0 0l-0.59375 -2.1875l1.84375 0zm-10.734375 -12.703125l0.703125 0l0 -2.59375l1.828125 0q1.578125 0.203125 0.4375 1.046875l0 1.546875l3.34375 0l0 2.203125l-3.34375 0l0 1.140625l4.59375 0l0 2.1875l-4.59375 0l0 0.640625l3.484375 0l0 5.875q0 1.4375 -1.421875 1.4375l-1.4375 0l-0.46875 -2.203125l1.15625 0q0 0.09375 -0.09375 0.09375l0 -3.015625l-1.21875 0l0 6.609375l-2.265625 0l0 -6.609375l-1.0 0l0 5.125l-2.265625 0l0 -7.3125l3.265625 0l0 -0.640625l-4.671875 0l0 -2.1875l4.671875 0l0 -1.140625l-1.671875 0q-0.359375 0.625 -1.109375 1.703125l-1.828125 -1.265625q1.3125 -1.84375 2.484375 -4.65625l1.75 0.578125q0.921875 0.90625 -0.15625 1.078125l-0.171875 0.359375zm7.453125 11.109375l0 -11.84375l1.828125 0q1.609375 0.21875 0.4375 1.03125l0 10.8125l-2.265625 0z" fill-rule="nonzero"/><path fill="#000000" d="m326.62534 460.83862l0 -13.359375l5.6875 0q2.140625 0 3.109375 0.359375q0.96875 0.359375 1.546875 1.28125q0.578125 0.921875 0.578125 2.109375q0 1.5 -0.890625 2.484375q-0.875 0.96875 -2.625 1.234375q0.875 0.5 1.4375 1.125q0.578125 0.609375 1.53125 2.15625l1.640625 2.609375l-3.234375 0l-1.9375 -2.90625q-1.046875 -1.5625 -1.4375 -1.96875q-0.375 -0.40625 -0.8125 -0.546875q-0.421875 -0.15625 -1.34375 -0.15625l-0.546875 0l0 5.578125l-2.703125 0zm2.703125 -7.703125l2.0 0q1.9375 0 2.421875 -0.15625q0.484375 -0.171875 0.75 -0.578125q0.28125 -0.40625 0.28125 -1.0q0 -0.671875 -0.359375 -1.078125q-0.359375 -0.421875 -1.015625 -0.53125q-0.328125 -0.046875 -1.96875 -0.046875l-2.109375 0l0 3.390625zm10.769806 7.703125l0 -13.359375l4.328125 0q2.453125 0 3.203125 0.203125q1.140625 0.296875 1.921875 1.3125q0.78125 1.0 0.78125 2.59375q0 1.234375 -0.453125 2.078125q-0.453125 0.828125 -1.140625 1.3125q-0.6875 0.46875 -1.390625 0.625q-0.96875 0.203125 -2.796875 0.203125l-1.765625 0l0 5.03125l-2.6875 0zm2.6875 -11.09375l0 3.78125l1.484375 0q1.59375 0 2.125 -0.203125q0.546875 -0.203125 0.84375 -0.65625q0.3125 -0.453125 0.3125 -1.03125q0 -0.734375 -0.4375 -1.203125q-0.421875 -0.484375 -1.078125 -0.59375q-0.484375 -0.09375 -1.9375 -0.09375l-1.3125 0zm18.302948 6.1875l2.609375 0.828125q-0.59375 2.1875 -2.0 3.25q-1.390625 1.0625 -3.546875 1.0625q-2.65625 0 -4.375 -1.8125q-1.703125 -1.828125 -1.703125 -4.984375q0 -3.328125 1.71875 -5.171875q1.71875 -1.84375 4.515625 -1.84375q2.453125 0 3.984375 1.4375q0.921875 0.859375 1.375 2.46875l-2.671875 0.640625q-0.234375 -1.046875 -0.984375 -1.640625q-0.75 -0.609375 -1.828125 -0.609375q-1.484375 0 -2.421875 1.078125q-0.921875 1.0625 -0.921875 3.4375q0 2.53125 0.90625 3.609375q0.921875 1.078125 2.375 1.078125q1.078125 0 1.84375 -0.671875q0.78125 -0.6875 1.125 -2.15625z" fill-rule="nonzero"/><path fill="#000000" d="m381.7762 460.21362l1.671875 0q0 0.09375 -0.09375 0.078125l0 -3.828125l-6.09375 0l0 -2.203125l6.09375 0l0 -1.21875l-6.46875 0l0 -2.1875l4.3125 0l0 -1.375l-3.421875 0l0 -2.1875l3.421875 0l0 -2.53125l1.828125 0q1.578125 0.203125 0.4375 1.046875l0 1.484375l3.703125 0l0 2.1875l-3.703125 0l0 1.375l5.125 0l0 2.1875l-2.96875 0l0 1.21875l2.59375 0l0 2.203125l-2.59375 0l0 4.359375q0 1.578125 -1.578125 1.578125l-1.796875 0l-0.46875 -2.1875zm-9.796875 0l1.515625 0q0 0.09375 -0.09375 0.078125l0 -4.046875l-0.875 0.28125q-0.625 1.59375 -1.1875 -0.109375l-0.65625 -1.796875l2.71875 -0.703125l0 -3.6875l-2.296875 0l0 -2.203125l2.296875 0l0 -3.328125l1.8125 0q1.625 0.171875 0.453125 1.03125l0 2.296875l2.15625 0l0 2.203125l-2.15625 0l0 2.984375l1.71875 -0.609375l0.609375 1.984375l-2.328125 0.921875l0 5.3125q0 1.578125 -1.578125 1.578125l-1.640625 0l-0.46875 -2.1875zm7.703125 -3.828125q1.203125 0.8125 2.4375 2.40625l-1.765625 1.640625q-1.0 -1.28125 -2.3125 -2.515625l1.640625 -1.53125z" fill-rule="nonzero"/><path fill="#000000" d="m395.30746 445.83862q-1.109375 1.140625 -1.75 2.578125q-0.640625 1.421875 -1.1875 2.484375l1.109375 0q0.546875 -1.265625 0.859375 -2.6875q1.125 0.453125 2.71875 0.9375q-0.84375 0.6875 -1.546875 2.015625q-0.71875 1.375 -2.328125 4.046875q0 -0.078125 2.953125 -0.4375q-0.359375 1.21875 -0.359375 2.015625q-1.203125 0.109375 -2.3125 0.265625q-1.109375 0.140625 -2.734375 0.578125q-0.46875 -1.28125 -0.84375 -2.21875q0.984375 -0.3125 1.671875 -1.234375q0.6875 -0.921875 0.96875 -1.484375q-1.125 0.046875 -2.328125 0.53125q-0.453125 -1.0 -0.859375 -2.0q0.8125 -0.640625 1.625 -2.25q0.828125 -1.625 1.515625 -3.890625q1.140625 0.515625 2.828125 0.75zm5.265625 0.984375q0 -0.46875 -0.203125 -1.8125l2.375 0q-0.109375 1.1875 -0.109375 1.8125l1.59375 0q1.21875 0 2.78125 -0.109375l0 2.0625q-1.5625 -0.109375 -2.71875 -0.109375l-1.65625 0l0 0.78125l4.359375 0q-0.875 2.8125 -1.296875 4.0625q-1.0625 -0.40625 -2.046875 -0.53125q0.59375 -1.765625 0.671875 -1.765625l-4.828125 0.078125q-1.296875 0 -2.9375 0.109375l0 -2.0625q1.640625 0.109375 2.9375 0.109375l1.078125 0l0 -0.78125l-1.234375 0q-1.21875 0 -2.703125 0.109375l0 -2.0625q1.40625 0.109375 2.703125 0.109375l1.234375 0zm2.875 4.671875q-0.375 1.859375 -0.375 2.78125q0 0.953125 -0.109375 2.09375l1.046875 0q1.515625 0 3.140625 -0.109375l0 2.0625q-1.484375 -0.109375 -3.140625 -0.109375l-1.375 0q-0.8125 1.765625 -1.890625 2.5q-1.078125 0.734375 -4.21875 1.984375q-0.484375 -1.046875 -1.953125 -2.28125q3.734375 -0.453125 4.640625 -1.203125q0.921875 -0.75 1.078125 -1.0l-0.796875 0q-1.453125 0 -3.15625 0.09375l0 -2.03125q1.703125 0.09375 3.15625 0.09375l1.40625 0q0.109375 -0.953125 0.109375 -2.09375l0 -3.140625q1.09375 0.359375 2.4375 0.359375zm-7.25 6.5625q-0.125 1.1875 -0.125 2.125q-1.0625 0 -2.5625 0.328125q-1.5 0.3125 -3.109375 0.78125q-0.3125 -1.21875 -0.890625 -2.390625q2.28125 -0.203125 3.515625 -0.375q1.234375 -0.1875 3.171875 -0.46875zm6.765625 0.140625q3.25 1.71875 4.703125 2.53125q-0.890625 0.96875 -1.421875 1.875q-3.0 -1.953125 -4.421875 -2.5625q0.765625 -1.078125 1.140625 -1.84375zm-5.515625 -5.296875q1.765625 1.53125 2.90625 2.46875q-0.8125 0.6875 -1.578125 1.578125q-1.640625 -1.71875 -2.75 -2.40625q0.84375 -0.734375 1.421875 -1.640625zm1.125 -1.984375q0.546875 0.4375 3.015625 2.171875q-0.96875 0.734375 -1.703125 1.5625q-1.5 -1.390625 -2.71875 -2.21875q0.796875 -0.8125 1.40625 -1.515625z" fill-rule="nonzero"/><path fill="#000000" d="m235.91425 478.05112q3.421875 -0.90625 5.640625 -2.859375l1.328125 1.328125q0.640625 1.09375 -0.578125 0.9375q-2.234375 1.8125 -5.703125 2.578125l-0.6875 -1.984375zm-1.234375 -9.484375q-0.265625 1.546875 -1.25 3.53125l0.078125 -0.15625q0.921875 0.46875 0.109375 1.015625l0 11.765625l-2.265625 0l0.03125 -8.359375q0 0.03125 -1.03125 1.1875l-1.25 -1.9375q2.78125 -3.25 3.5 -8.59375l2.15625 0.46875q0.921875 0.921875 -0.078125 1.078125zm1.453125 5.03125l0 8.296875l-2.265625 0l0 -12.125l1.8125 0q1.625 0.171875 0.453125 1.03125l0 0.734375q1.9375 -1.671875 2.828125 -4.703125l1.828125 0.609375q0.921875 0.9375 -0.140625 1.0625q-0.171875 0.5625 -0.25 0.671875l6.125 0l0 2.1875l-1.9375 0q-0.8125 1.640625 -1.71875 2.375q1.25 0.796875 4.875 1.453125l-0.671875 2.25q-4.15625 -0.921875 -5.765625 -2.25q-1.515625 1.25 -4.953125 2.328125l-1.015625 -2.03125q3.34375 -1.0 4.203125 -1.734375q-0.921875 -0.90625 -1.234375 -1.40625q-0.265625 0.375 -1.796875 1.6875l-0.375 -0.4375zm-0.4375 9.125q6.09375 -0.625 9.609375 -4.515625l1.40625 1.390625q1.15625 1.15625 -0.515625 0.984375q-3.75 3.6875 -9.9375 4.25l-0.5625 -2.109375zm8.953125 -4.5q0.890625 1.296875 -0.484375 0.96875q-2.375 2.015625 -6.875 3.3125l-0.796875 -2.078125q4.109375 -1.0625 6.84375 -3.546875l1.3125 1.34375zm-3.484375 -5.6875q0.71875 -0.625 1.0 -1.171875l-2.171875 0q0.140625 0.328125 1.171875 1.171875zm18.625 9.15625q0.765625 0.328125 4.609375 0.75l-0.859375 2.390625q-3.875 -0.5 -5.671875 -1.53125q-2.109375 1.265625 -6.140625 1.671875l-0.78125 -2.25q3.546875 -0.328125 5.046875 -1.03125q-0.59375 -0.53125 -0.875 -1.0625q-0.953125 1.046875 -2.71875 1.90625l-1.34375 -1.90625q3.03125 -1.625 3.84375 -3.109375l-1.359375 0l0 -4.046875l-1.15625 1.140625l-1.796875 -1.5625q2.71875 -2.453125 4.09375 -6.078125l1.921875 0.78125q0.921875 0.921875 -0.1875 1.046875l-0.09375 0.21875l7.28125 0l0 2.1875l-8.34375 0l-0.03125 0.046875l6.890625 0l0 6.265625l-4.703125 0l-0.0625 0.109375l2.875 0l0.4375 -0.4375l1.34375 1.171875q1.40625 0.671875 -0.203125 1.046875q-0.96875 1.40625 -2.015625 2.28125zm-2.890625 -2.09375q0.140625 0.234375 0.953125 0.890625q0.921875 -0.796875 0.984375 -0.890625l-1.9375 0zm-1.3125 -6.375l0 0.171875l4.484375 0l0 -0.171875l-4.484375 0zm0 2.140625l0 0.1875l4.484375 0l0 -0.1875l-4.484375 0zm27.734375 4.578125q-2.703125 -3.015625 -5.78125 -4.859375l1.515625 -1.9375q3.234375 1.671875 6.125 4.796875l-1.859375 2.0zm-15.015625 -11.359375l16.375 0l0 2.40625l-6.5625 0q-0.15625 0.515625 -0.5625 1.265625l0 12.328125l-2.5 0l0 -8.78125q-1.875 2.390625 -6.140625 4.28125l-1.46875 -2.390625q5.796875 -2.421875 7.90625 -6.703125l-7.046875 0l0 -2.40625zm35.140625 5.703125l0 2.421875l-16.4375 0l0 -2.421875l16.4375 0zm14.078125 -1.296875q0.3125 3.21875 0.96875 4.6875q0.953125 -2.046875 1.078125 -4.6875l-2.046875 0zm-4.359375 2.453125q2.578125 -3.21875 3.046875 -8.390625l2.25 0.28125q0.9375 0.9375 -0.0625 1.09375q-0.265625 1.453125 -0.5625 2.375l5.28125 0l0 2.1875l-1.265625 0q0 3.265625 -1.90625 6.75q1.09375 1.078125 3.921875 2.5l-1.359375 2.3125q-2.390625 -1.234375 -3.921875 -2.890625q-1.703125 1.96875 -5.3125 3.375l-1.296875 -2.234375q3.6875 -1.328125 5.15625 -3.0625q-1.015625 -2.046875 -1.15625 -4.03125q0.03125 0.078125 -1.28125 1.484375l-1.53125 -1.75zm1.640625 -7.3125l0 2.1875l-3.828125 0q-0.65625 1.640625 -1.203125 2.625l1.71875 -0.203125l-0.984375 -1.359375l1.765625 -1.140625q1.5625 1.90625 2.828125 3.90625l-1.921875 1.234375l-0.4375 -0.71875l-1.28125 0.203125l0 1.796875l2.828125 0l0 2.203125l-2.828125 0l0 1.703125l3.09375 -0.78125l0.484375 2.0l-7.546875 2.125q-0.15625 1.03125 -1.0625 0.125l-0.765625 -2.140625l3.53125 -0.765625l0 -2.265625l-2.671875 0l0 -2.203125l2.671875 0l0 -1.46875l-2.0 0.21875q-0.15625 0.984375 -1.0625 0.0625l-0.609375 -2.1875l1.734375 -0.09375q0.78125 -1.484375 1.265625 -2.875l-2.515625 0l0 -2.1875l8.796875 0zm22.921875 9.78125q0.640625 -1.265625 0.84375 -4.84375l-1.703125 0q0.203125 3.578125 0.859375 4.84375zm3.109375 -4.84375q-0.125 4.328125 -1.6875 7.0q0.96875 1.203125 3.421875 2.46875l-1.390625 2.34375q-2.78125 -1.828125 -3.5 -2.875q-1.4375 1.625 -5.421875 3.203125l-1.078125 -2.1875q4.140625 -1.6875 5.1875 -3.046875q-1.1875 -2.28125 -1.140625 -3.640625q0.09375 0.09375 -0.625 1.046875l-1.859375 -1.4375q2.375 -3.484375 2.859375 -8.640625l2.046875 0.484375q1.28125 0.828125 -0.03125 1.140625q-0.1875 1.078125 -0.421875 1.953125l4.921875 0l0 2.1875l-1.28125 0zm-6.984375 -3.59375q-0.390625 0.953125 -1.234375 2.0l-1.828125 -1.03125q0.796875 -1.28125 1.453125 -2.890625l1.78125 0.859375q0.890625 0.890625 -0.171875 1.0625zm-4.453125 9.875q0.59375 0.171875 1.171875 0.4375q0.328125 -0.390625 0.546875 -1.15625l-1.390625 0q-0.203125 0.453125 -0.328125 0.71875zm-1.484375 2.625l-1.890625 -1.078125q0.96875 -1.4375 1.40625 -2.265625l-2.5625 0l0 -1.96875l3.40625 0q0.328125 -0.703125 0.65625 -1.703125l1.875 0.5q0.9375 0.9375 -0.1875 1.0625l-0.0625 0.140625l4.0 0l0 1.96875l-1.203125 0q-0.3125 1.265625 -0.828125 1.984375q0.25 0.109375 1.34375 0.75l-1.046875 1.875q-1.15625 -0.71875 -1.546875 -0.890625q-1.828125 1.84375 -5.53125 2.328125l-0.8125 -2.09375q3.28125 -0.328125 4.28125 -1.203125q-0.234375 -0.109375 -0.75 -0.296875l-0.546875 0.890625zm0.953125 -14.875l1.59375 0q1.625 0.171875 0.453125 1.03125l0 2.59375l3.78125 0l0 1.96875l-2.65625 0q0.21875 0.265625 2.234375 1.328125l-1.25 1.9375q-1.640625 -0.984375 -2.109375 -1.53125l0 1.09375l-2.046875 0l0 -0.6875q-0.53125 0.671875 -2.96875 2.0625l-1.484375 -1.8125q2.671875 -1.375 3.546875 -2.390625l-2.953125 0l0 -1.96875l3.859375 0l0 -3.625zm-1.84375 4.375q-0.6875 -1.453125 -1.796875 -2.5625l1.875 -1.1875q1.15625 1.171875 1.75 2.5l-1.828125 1.25zm22.921875 -3.9375l10.5 0l0 5.453125l-3.328125 0l0 1.375l4.15625 0l0 1.96875l-4.15625 0l0 1.453125l2.890625 0l0 6.9375l-2.046875 0l0 -0.8125l-3.671875 0l0 1.03125l-2.046875 0l0 -7.15625l2.609375 0l0 -1.453125l-2.859375 0l0 0.796875q0 5.125 -2.546875 7.765625l-1.65625 -1.671875q2.15625 -2.171875 2.15625 -6.390625l0 -9.296875zm8.015625 12.21875l-3.671875 0l0 2.1875l3.671875 0l0 -2.1875zm-3.109375 -5.390625l0 -1.375l-2.859375 0l0 1.375l2.859375 0zm-2.859375 -3.34375l6.1875 0l0 -1.515625l-6.1875 0l0 1.515625zm-1.90625 6.234375l-1.953125 0.671875l0 5.515625q0 1.578125 -1.578125 1.578125l-1.8125 0l-0.34375 -2.1875l1.5625 0q0 0.09375 -0.09375 0.09375l0 -4.28125l-0.828125 0.265625q-0.15625 1.046875 -1.0625 0.125l-0.671875 -2.28125l2.5625 -0.53125l0 -3.15625l-2.078125 0l0 -2.1875l2.078125 0l0 -3.859375l1.828125 0q1.609375 0.21875 0.4375 1.03125l0 2.828125l1.921875 0l0 2.1875l-1.921875 0l0 2.65625l1.734375 -0.5l0.21875 2.03125z" fill-rule="nonzero"/><path fill="#000000" fill-opacity="0.0" d="m202.29265 498.54855l225.85826 0" fill-rule="evenodd"/><path stroke="#000000" stroke-width="1.0" stroke-linejoin="round" stroke-linecap="butt" d="m208.29265 498.54855l213.85826 0" fill-rule="evenodd"/><path fill="#000000" stroke="#000000" stroke-width="1.0" stroke-linecap="butt" d="m208.29265 496.89682l-4.538101 1.6517334l4.538101 1.6517334z" fill-rule="evenodd"/><path fill="#000000" stroke="#000000" stroke-width="1.0" stroke-linecap="butt" d="m422.1509 500.2003l4.5381165 -1.6517334l-4.5381165 -1.6517334z" fill-rule="evenodd"/></g></svg>