<svg version="1.1" viewBox="0.0 0.0 658.1207349081365 259.4278215223097" fill="none" stroke="none" stroke-linecap="square" stroke-miterlimit="10" xmlns:xlink="http://www.w3.org/1999/xlink" xmlns="http://www.w3.org/2000/svg"><clipPath id="p.0"><path d="m0 0l658.1207 0l0 259.42783l-658.1207 0l0 -259.42783z" clip-rule="nonzero"/></clipPath><g clip-path="url(#p.0)"><path fill="#000000" fill-opacity="0.0" d="m0 0l658.1207 0l0 259.42783l-658.1207 0z" fill-rule="evenodd"/><path fill="#f3f3f3" d="m84.47244 127.25459l0 0c0 -9.323608 7.558281 -16.88189 16.88189 -16.88189l79.84252 0c4.477356 0 8.771332 1.7786255 11.937302 4.9445877c3.1659698 3.1659698 4.94458 7.4599457 4.94458 11.937302l0 0l0 0c0 9.323608 -7.5582733 16.881897 -16.881882 16.881897l-79.84252 0c-9.323608 0 -16.88189 -7.5582886 -16.88189 -16.881897z" fill-rule="evenodd"/><path stroke="#000000" stroke-width="1.0" stroke-linejoin="round" stroke-linecap="butt" d="m84.47244 127.25459l0 0c0 -9.323608 7.558281 -16.88189 16.88189 -16.88189l79.84252 0c4.477356 0 8.771332 1.7786255 11.937302 4.9445877c3.1659698 3.1659698 4.94458 7.4599457 4.94458 11.937302l0 0l0 0c0 9.323608 -7.5582733 16.881897 -16.881882 16.881897l-79.84252 0c-9.323608 0 -16.88189 -7.5582886 -16.88189 -16.881897z" fill-rule="evenodd"/><path fill="#000000" d="m109.572464 133.1146l0 -11.453125l7.84375 0l0 1.9375l-5.53125 0l0 2.703125l4.78125 0l0 1.9375l-4.78125 0l0 4.875l-2.3125 0zm9.2265625 -4.265625q0 -1.09375 0.53125 -2.109375q0.546875 -1.03125 1.53125 -1.5625q1.0 -0.546875 2.21875 -0.546875q1.875 0 3.078125 1.21875q1.203125 1.21875 1.203125 3.09375q0 1.875 -1.21875 3.125q-1.203125 1.234375 -3.046875 1.234375q-1.140625 0 -2.1875 -0.515625q-1.03125 -0.515625 -1.578125 -1.515625q-0.53125 -1.0 -0.53125 -2.421875zm2.25 0.109375q0 1.234375 0.578125 1.890625q0.59375 0.65625 1.453125 0.65625q0.859375 0 1.4375 -0.65625q0.59375 -0.65625 0.59375 -1.90625q0 -1.21875 -0.59375 -1.875q-0.578125 -0.65625 -1.4375 -0.65625q-0.859375 0 -1.453125 0.65625q-0.578125 0.65625 -0.578125 1.890625zm8.0390625 4.15625l0 -11.453125l2.1875 0l0 11.453125l-2.1875 0zm4.4453125 0l0 -11.453125l2.1875 0l0 11.453125l-2.1875 0zm3.9296875 -4.265625q0 -1.09375 0.53125 -2.109375q0.546875 -1.03125 1.53125 -1.5625q1.0 -0.546875 2.21875 -0.546875q1.875 0 3.078125 1.21875q1.203125 1.21875 1.203125 3.09375q0 1.875 -1.21875 3.125q-1.203125 1.234375 -3.046875 1.234375q-1.140625 0 -2.1875 -0.515625q-1.03125 -0.515625 -1.578125 -1.515625q-0.53125 -1.0 -0.53125 -2.421875zm2.25 0.109375q0 1.234375 0.578125 1.890625q0.59375 0.65625 1.453125 0.65625q0.859375 0 1.4375 -0.65625q0.59375 -0.65625 0.59375 -1.90625q0 -1.21875 -0.59375 -1.875q-0.578125 -0.65625 -1.4375 -0.65625q-0.859375 0 -1.453125 0.65625q-0.578125 0.65625 -0.578125 1.890625zm9.5859375 4.15625l-2.625 -8.296875l2.125 0l1.5625 5.4375l1.421875 -5.4375l2.125 0l1.375 5.4375l1.59375 -5.4375l2.15625 0l-2.65625 8.296875l-2.109375 0l-1.4375 -5.34375l-1.40625 5.34375l-2.125 0zm15.6953125 -2.640625l2.1875 0.359375q-0.421875 1.203125 -1.328125 1.84375q-0.90625 0.625 -2.28125 0.625q-2.15625 0 -3.203125 -1.421875q-0.8125 -1.125 -0.8125 -2.859375q0 -2.0625 1.078125 -3.21875q1.078125 -1.171875 2.71875 -1.171875q1.859375 0 2.921875 1.21875q1.078125 1.21875 1.03125 3.75l-5.5 0q0.015625 0.96875 0.515625 1.515625q0.515625 0.546875 1.28125 0.546875q0.515625 0 0.859375 -0.28125q0.359375 -0.28125 0.53125 -0.90625zm0.125 -2.21875q-0.015625 -0.953125 -0.484375 -1.453125q-0.46875 -0.5 -1.140625 -0.5q-0.71875 0 -1.1875 0.53125q-0.46875 0.515625 -0.46875 1.421875l3.28125 0zm6.0703125 4.859375l-2.1875 0l0 -8.296875l2.03125 0l0 1.171875q0.53125 -0.828125 0.9375 -1.09375q0.421875 -0.265625 0.953125 -0.265625q0.75 0 1.453125 0.40625l-0.6875 1.921875q-0.546875 -0.359375 -1.03125 -0.359375q-0.453125 0 -0.78125 0.25q-0.3125 0.25 -0.5 0.921875q-0.1875 0.65625 -0.1875 2.78125l0 2.5625z" fill-rule="nonzero"/><path fill="#f3f3f3" d="m304.77954 128.3412l0 0c0 -9.923729 8.044769 -17.968498 17.968475 -17.968498l77.66931 0c4.7655334 0 9.335907 1.8931046 12.705658 5.2628555c3.369751 3.3697433 5.262848 7.9401016 5.262848 12.705643l0 0l0 0c0 9.923737 -8.044769 17.968506 -17.968506 17.968506l-77.66931 0c-9.923706 0 -17.968475 -8.044769 -17.968475 -17.968506z" fill-rule="evenodd"/><path stroke="#000000" stroke-width="1.0" stroke-linejoin="round" stroke-linecap="butt" d="m304.77954 128.3412l0 0c0 -9.923729 8.044769 -17.968498 17.968475 -17.968498l77.66931 0c4.7655334 0 9.335907 1.8931046 12.705658 5.2628555c3.369751 3.3697433 5.262848 7.9401016 5.262848 12.705643l0 0l0 0c0 9.923737 -8.044769 17.968506 -17.968506 17.968506l-77.66931 0c-9.923706 0 -17.968475 -8.044769 -17.968475 -17.968506z" fill-rule="evenodd"/><path fill="#000000" d="m331.4108 129.98245l2.234375 0.71875q-0.515625 1.875 -1.71875 2.796875q-1.1875 0.90625 -3.03125 0.90625q-2.28125 0 -3.75 -1.5625q-1.46875 -1.5625 -1.46875 -4.265625q0 -2.8593674 1.46875 -4.4374924q1.484375 -1.59375 3.890625 -1.59375q2.09375 0 3.40625 1.25q0.78125 0.734375 1.171875 2.109375l-2.28125 0.546875q-0.203125 -0.890625 -0.859375 -1.40625q-0.640625 -0.515625 -1.5625 -0.515625q-1.265625 0 -2.0625 0.921875q-0.796875 0.90625 -0.796875 2.9531174q0 2.171875 0.78125 3.09375q0.78125 0.921875 2.03125 0.921875q0.921875 0 1.578125 -0.578125q0.671875 -0.59375 0.96875 -1.859375zm5.8515625 -1.546875l-2.0 -0.359375q0.34375 -1.2031174 1.15625 -1.7812424q0.828125 -0.578125 2.4375 -0.578125q1.46875 0 2.1875 0.34375q0.71875 0.34375 1.015625 0.890625q0.296875 0.53125 0.296875 1.9531174l-0.03125 2.5625q0 1.09375 0.109375 1.625q0.109375 0.515625 0.390625 1.109375l-2.171875 0q-0.078125 -0.21875 -0.203125 -0.65625q-0.0625 -0.1875 -0.078125 -0.25q-0.5625 0.546875 -1.203125 0.828125q-0.640625 0.265625 -1.375 0.265625q-1.28125 0 -2.015625 -0.6875q-0.734375 -0.703125 -0.734375 -1.765625q0 -0.703125 0.328125 -1.25q0.34375 -0.5625 0.9375 -0.84375q0.609375 -0.296875 1.75 -0.515625q1.546875 -0.296875 2.140625 -0.546875l0 -0.21875q0 -0.6249924 -0.3125 -0.8906174q-0.3125 -0.28125 -1.1875 -0.28125q-0.578125 0 -0.90625 0.234375q-0.328125 0.234375 -0.53125 0.8124924zm2.9375 1.78125q-0.421875 0.140625 -1.34375 0.34375q-0.90625 0.1875 -1.1875 0.375q-0.4375 0.296875 -0.4375 0.765625q0 0.46875 0.34375 0.8125q0.34375 0.328125 0.875 0.328125q0.59375 0 1.140625 -0.390625q0.390625 -0.296875 0.515625 -0.734375q0.09375 -0.28125 0.09375 -1.0625l0 -0.4375zm11.8671875 3.984375l-2.203125 0l0 -4.234375q0 -1.34375 -0.140625 -1.734375q-0.140625 -0.40624237 -0.453125 -0.6249924q-0.3125 -0.21875 -0.765625 -0.21875q-0.5625 0 -1.015625 0.3125q-0.453125 0.31249237 -0.625 0.8281174q-0.171875 0.515625 -0.171875 1.90625l0 3.765625l-2.1875 0l0 -8.296867l2.03125 0l0 1.21875q1.09375 -1.40625 2.734375 -1.40625q0.734375 0 1.328125 0.265625q0.609375 0.25 0.90625 0.65625q0.3125 0.40625 0.4375 0.921875q0.125 0.5156174 0.125 1.4843674l0 5.15625zm9.8359375 0l-2.046875 0l0 -1.21875q-0.5 0.703125 -1.203125 1.0625q-0.6875 0.34375 -1.390625 0.34375q-1.421875 0 -2.453125 -1.15625q-1.015625 -1.15625 -1.015625 -3.21875q0 -2.1093674 0.984375 -3.2031174q1.0 -1.09375 2.515625 -1.09375q1.390625 0 2.40625 1.15625l0 -4.125l2.203125 0l0 11.453117zm-5.859375 -4.328125q0 1.328125 0.359375 1.921875q0.53125 0.859375 1.484375 0.859375q0.765625 0 1.296875 -0.640625q0.53125 -0.65625 0.53125 -1.9375q0 -1.421875 -0.515625 -2.046875q-0.515625 -0.6406174 -1.328125 -0.6406174q-0.78125 0 -1.3125 0.6249924q-0.515625 0.625 -0.515625 1.859375zm8.0234375 -5.0937424l0 -2.03125l2.1875 0l0 2.03125l-2.1875 0zm0 9.421867l0 -8.296867l2.1875 0l0 8.296867l-2.1875 0zm12.0546875 0l-2.046875 0l0 -1.21875q-0.5 0.703125 -1.203125 1.0625q-0.6875 0.34375 -1.390625 0.34375q-1.421875 0 -2.453125 -1.15625q-1.015625 -1.15625 -1.015625 -3.21875q0 -2.1093674 0.984375 -3.2031174q1.0 -1.09375 2.515625 -1.09375q1.390625 0 2.40625 1.15625l0 -4.125l2.203125 0l0 11.453117zm-5.859375 -4.328125q0 1.328125 0.359375 1.921875q0.53125 0.859375 1.484375 0.859375q0.765625 0 1.296875 -0.640625q0.53125 -0.65625 0.53125 -1.9375q0 -1.421875 -0.515625 -2.046875q-0.515625 -0.6406174 -1.328125 -0.6406174q-0.78125 0 -1.3125 0.6249924q-0.515625 0.625 -0.515625 1.859375zm9.6640625 -1.4375l-2.0 -0.359375q0.34375 -1.2031174 1.15625 -1.7812424q0.828125 -0.578125 2.4375 -0.578125q1.46875 0 2.1875 0.34375q0.71875 0.34375 1.015625 0.890625q0.296875 0.53125 0.296875 1.9531174l-0.03125 2.5625q0 1.09375 0.109375 1.625q0.109375 0.515625 0.390625 1.109375l-2.171875 0q-0.078125 -0.21875 -0.203125 -0.65625q-0.0625 -0.1875 -0.078125 -0.25q-0.5625 0.546875 -1.203125 0.828125q-0.640625 0.265625 -1.375 0.265625q-1.28125 0 -2.015625 -0.6875q-0.734375 -0.703125 -0.734375 -1.765625q0 -0.703125 0.328125 -1.25q0.34375 -0.5625 0.9375 -0.84375q0.609375 -0.296875 1.75 -0.515625q1.546875 -0.296875 2.140625 -0.546875l0 -0.21875q0 -0.6249924 -0.3125 -0.8906174q-0.3125 -0.28125 -1.1875 -0.28125q-0.578125 0 -0.90625 0.234375q-0.328125 0.234375 -0.53125 0.8124924zm2.9375 1.78125q-0.421875 0.140625 -1.34375 0.34375q-0.90625 0.1875 -1.1875 0.375q-0.4375 0.296875 -0.4375 0.765625q0 0.46875 0.34375 0.8125q0.34375 0.328125 0.875 0.328125q0.59375 0 1.140625 -0.390625q0.390625 -0.296875 0.515625 -0.734375q0.09375 -0.28125 0.09375 -1.0625l0 -0.4375zm8.1171875 -4.3124924l0 1.75l-1.5 0l0 3.3437424q0 1.015625 0.046875 1.1875q0.046875 0.15625 0.1875 0.265625q0.15625 0.109375 0.375 0.109375q0.3125 0 0.890625 -0.203125l0.1875 1.703125q-0.765625 0.328125 -1.734375 0.328125q-0.59375 0 -1.078125 -0.203125q-0.46875 -0.203125 -0.703125 -0.515625q-0.21875 -0.3125 -0.296875 -0.859375q-0.078125 -0.375 -0.078125 -1.546875l0 -3.6093674l-1.0 0l0 -1.75l1.0 0l0 -1.65625l2.203125 -1.28125l0 2.9375l1.5 0zm6.328125 5.6562424l2.1875 0.359375q-0.421875 1.203125 -1.328125 1.84375q-0.90625 0.625 -2.28125 0.625q-2.15625 0 -3.203125 -1.421875q-0.8125 -1.125 -0.8125 -2.859375q0 -2.0625 1.078125 -3.2187424q1.078125 -1.171875 2.71875 -1.171875q1.859375 0 2.921875 1.21875q1.078125 1.2187424 1.03125 3.7499924l-5.5 0q0.015625 0.96875 0.515625 1.515625q0.515625 0.546875 1.28125 0.546875q0.515625 0 0.859375 -0.28125q0.359375 -0.28125 0.53125 -0.90625zm0.125 -2.21875q-0.015625 -0.953125 -0.484375 -1.4531174q-0.46875 -0.5 -1.140625 -0.5q-0.71875 0 -1.1875 0.53125q-0.46875 0.5156174 -0.46875 1.4218674l3.28125 0z" fill-rule="nonzero"/><path fill="#f3f3f3" d="m497.39896 127.25459l0 0c0 -9.323608 7.5582886 -16.88189 16.881866 -16.88189l79.84253 0c4.477356 0 8.771362 1.7786255 11.937317 4.9445877c3.1659546 3.1659698 4.94458 7.4599457 4.94458 11.937302l0 0l0 0c0 9.323608 -7.5582886 16.881897 -16.881897 16.881897l-79.84253 0c-9.323578 0 -16.881866 -7.5582886 -16.881866 -16.881897z" fill-rule="evenodd"/><path stroke="#000000" stroke-width="1.0" stroke-linejoin="round" stroke-linecap="butt" d="m497.39896 127.25459l0 0c0 -9.323608 7.5582886 -16.88189 16.881866 -16.88189l79.84253 0c4.477356 0 8.771362 1.7786255 11.937317 4.9445877c3.1659546 3.1659698 4.94458 7.4599457 4.94458 11.937302l0 0l0 0c0 9.323608 -7.5582886 16.881897 -16.881897 16.881897l-79.84253 0c-9.323578 0 -16.881866 -7.5582886 -16.881866 -16.881897z" fill-rule="evenodd"/><path fill="#000000" d="m529.2021 133.1146l0 -11.359375l2.3125 0l0 9.421875l5.75 0l0 1.9375l-8.0625 0zm14.4921875 -2.640625l2.1875 0.359375q-0.421875 1.203125 -1.328125 1.84375q-0.90625 0.625 -2.28125 0.625q-2.15625 0 -3.203125 -1.421875q-0.8125 -1.125 -0.8125 -2.859375q0 -2.0625 1.078125 -3.21875q1.078125 -1.171875 2.71875 -1.171875q1.859375 0 2.921875 1.21875q1.078125 1.21875 1.03125 3.75l-5.5 0q0.015625 0.96875 0.515625 1.515625q0.515625 0.546875 1.28125 0.546875q0.515625 0 0.859375 -0.28125q0.359375 -0.28125 0.53125 -0.90625zm0.125 -2.21875q-0.015625 -0.953125 -0.484375 -1.453125q-0.46875 -0.5 -1.140625 -0.5q-0.71875 0 -1.1875 0.53125q-0.46875 0.515625 -0.46875 1.421875l3.28125 0zm5.6171875 -0.90625l-2.0 -0.359375q0.34375 -1.203125 1.15625 -1.78125q0.828125 -0.578125 2.4375 -0.578125q1.46875 0 2.1875 0.34375q0.71875 0.34375 1.015625 0.890625q0.296875 0.53125 0.296875 1.953125l-0.03125 2.5625q0 1.09375 0.109375 1.625q0.109375 0.515625 0.390625 1.109375l-2.171875 0q-0.078125 -0.21875 -0.203125 -0.65625q-0.0625 -0.1875 -0.078125 -0.25q-0.5625 0.546875 -1.203125 0.828125q-0.640625 0.265625 -1.375 0.265625q-1.28125 0 -2.015625 -0.6875q-0.734375 -0.703125 -0.734375 -1.765625q0 -0.703125 0.328125 -1.25q0.34375 -0.5625 0.9375 -0.84375q0.609375 -0.296875 1.75 -0.515625q1.546875 -0.296875 2.140625 -0.546875l0 -0.21875q0 -0.625 -0.3125 -0.890625q-0.3125 -0.28125 -1.1875 -0.28125q-0.578125 0 -0.90625 0.234375q-0.328125 0.234375 -0.53125 0.8125zm2.9375 1.78125q-0.421875 0.140625 -1.34375 0.34375q-0.90625 0.1875 -1.1875 0.375q-0.4375 0.296875 -0.4375 0.765625q0 0.46875 0.34375 0.8125q0.34375 0.328125 0.875 0.328125q0.59375 0 1.140625 -0.390625q0.390625 -0.296875 0.515625 -0.734375q0.09375 -0.28125 0.09375 -1.0625l0 -0.4375zm11.9296875 3.984375l-2.046875 0l0 -1.21875q-0.5 0.703125 -1.203125 1.0625q-0.6875 0.34375 -1.390625 0.34375q-1.421875 0 -2.453125 -1.15625q-1.015625 -1.15625 -1.015625 -3.21875q0 -2.109375 0.984375 -3.203125q1.0 -1.09375 2.515625 -1.09375q1.390625 0 2.40625 1.15625l0 -4.125l2.203125 0l0 11.453125zm-5.859375 -4.328125q0 1.328125 0.359375 1.921875q0.53125 0.859375 1.484375 0.859375q0.765625 0 1.296875 -0.640625q0.53125 -0.65625 0.53125 -1.9375q0 -1.421875 -0.515625 -2.046875q-0.515625 -0.640625 -1.328125 -0.640625q-0.78125 0 -1.3125 0.625q-0.515625 0.625 -0.515625 1.859375zm12.8203125 1.6875l2.1875 0.359375q-0.421875 1.203125 -1.328125 1.84375q-0.90625 0.625 -2.28125 0.625q-2.15625 0 -3.203125 -1.421875q-0.8125 -1.125 -0.8125 -2.859375q0 -2.0625 1.078125 -3.21875q1.078125 -1.171875 2.71875 -1.171875q1.859375 0 2.921875 1.21875q1.078125 1.21875 1.03125 3.75l-5.5 0q0.015625 0.96875 0.515625 1.515625q0.515625 0.546875 1.28125 0.546875q0.515625 0 0.859375 -0.28125q0.359375 -0.28125 0.53125 -0.90625zm0.125 -2.21875q-0.015625 -0.953125 -0.484375 -1.453125q-0.46875 -0.5 -1.140625 -0.5q-0.71875 0 -1.1875 0.53125q-0.46875 0.515625 -0.46875 1.421875l3.28125 0zm6.0703125 4.859375l-2.1875 0l0 -8.296875l2.03125 0l0 1.171875q0.53125 -0.828125 0.9375 -1.09375q0.421875 -0.265625 0.953125 -0.265625q0.75 0 1.453125 0.40625l-0.6875 1.921875q-0.546875 -0.359375 -1.03125 -0.359375q-0.453125 0 -0.78125 0.25q-0.3125 0.25 -0.5 0.921875q-0.1875 0.65625 -0.1875 2.78125l0 2.5625z" fill-rule="nonzero"/><path fill="#000000" fill-opacity="0.0" d="m141.27559 110.3727c0 -27.368767 55.078735 -54.745407 110.157486 -54.737534c55.078735 0.007873535 110.15747 27.40026 110.15747 54.80052" fill-rule="evenodd"/><path stroke="#000000" stroke-width="1.0" stroke-linejoin="round" stroke-linecap="butt" d="m141.27559 110.3727c0 -27.368767 55.078735 -54.745407 110.157486 -54.737534c27.539368 0.0039367676 55.078735 6.854004 75.73328 17.12812c10.32724 5.1370544 18.93332 11.130127 24.95755 17.551445c3.012085 3.2106628 5.3787537 6.5283813 6.992401 9.899696c0.40341187 0.84282684 0.7597656 1.6890106 1.0673523 2.5377045c0.1538086 0.4243393 0.29544067 0.8493271 0.4246521 1.2748184c0.032287598 0.10638428 0.063812256 0.21278381 0.094573975 0.3192215l0.04208374 0.14940643" fill-rule="evenodd"/><path fill="#000000" stroke="#000000" stroke-width="1.0" stroke-linecap="butt" d="m359.10968 104.72837l2.2748413 4.2600174l0.9956665 -4.7255936z" fill-rule="evenodd"/><path fill="#000000" fill-opacity="0.0" d="m361.58267 110.3727c0 -26.115486 15.589294 -49.202454 29.13794 -52.230976c13.5486145 -3.0285225 25.05655 14.0014 29.137909 29.517063c4.08136 15.515663 0.736084 29.51706 1.4721985 29.51706" fill-rule="evenodd"/><path stroke="#000000" stroke-width="1.0" stroke-linejoin="round" stroke-linecap="butt" d="m361.58267 110.3727c0 -26.115494 15.589294 -49.202454 29.137909 -52.230976c13.548645 -3.0285225 25.05658 14.0014 29.13794 29.517063c2.04068 7.7578354 2.224701 15.1371 1.9905701 20.576904c-0.029296875 0.6799774 -0.06506348 1.3296432 -0.10458374 1.945961c-0.01977539 0.3081665 -0.04046631 0.6079941 -0.06173706 0.8990936l-0.008117676 0.10496521" fill-rule="evenodd"/><path fill="#000000" stroke="#000000" stroke-width="1.0" stroke-linecap="butt" d="m420.02567 111.09103l1.388855 4.625328l1.9091797 -4.4359436z" fill-rule="evenodd"/><path fill="#000000" fill-opacity="0.0" d="m361.58267 110.3727c0 -17.59449 48.15747 -35.196854 96.31497 -35.18898c48.15747 0.007881165 96.31494 17.625984 96.31494 35.25197" fill-rule="evenodd"/><path stroke="#000000" stroke-width="1.0" stroke-linejoin="round" stroke-linecap="butt" d="m361.58267 110.3727c0 -17.59449 48.15747 -35.196854 96.31497 -35.18898c24.078735 0.003944397 48.15747 4.4104385 66.21655 11.019196c9.02948 3.3043823 16.554138 7.1593246 21.82135 11.289803c2.633606 2.065239 4.702881 4.1993484 6.1137695 6.3679733c0.088134766 0.13554382 0.17376709 0.27121735 0.2567749 0.40702057l0.23913574 0.4043045" fill-rule="evenodd"/><path fill="#000000" stroke="#000000" stroke-width="1.0" stroke-linecap="butt" d="m550.95856 105.13102l2.8477783 3.9003525l0.32562256 -4.8183517z" fill-rule="evenodd"/><path fill="#000000" fill-opacity="0.0" d="m554.2021 144.13649c0 35.947495 -103.22833 71.88713 -206.4567 71.895004c-103.22833 0.007873535 -206.45668 -35.916016 -206.45668 -71.832016" fill-rule="evenodd"/><path stroke="#000000" stroke-width="1.0" stroke-linejoin="round" stroke-linecap="butt" d="m554.2021 144.13649c0 35.947495 -103.22833 71.88713 -206.4567 71.895004c-51.614166 0.0039367676 -103.22833 -8.975067 -141.93896 -22.44455c-19.355316 -6.734741 -35.48474 -14.592117 -46.775345 -23.010544c-5.645294 -4.2092133 -10.080887 -8.558701 -13.105164 -12.978241c-1.5121155 -2.2097778 -2.6714325 -4.437088 -3.4526978 -6.673111c-0.048828125 -0.13975525 -0.09617615 -0.27954102 -0.14204407 -0.4193573l-0.11984253 -0.37757874" fill-rule="evenodd"/><path fill="#000000" stroke="#000000" stroke-width="1.0" stroke-linecap="butt" d="m143.84343 149.87413l-2.3299255 -4.230133l-0.9342499 4.738098z" fill-rule="evenodd"/><path fill="#000000" fill-opacity="0.0" d="m361.58267 146.30971c0 23.833328 -55.078735 47.93831 -110.15747 47.666656c-55.07875 -0.27165222 -110.157486 -24.919937 -110.157486 -49.839874" fill-rule="evenodd"/><path stroke="#000000" stroke-width="1.0" stroke-linejoin="round" stroke-linecap="butt" d="m361.58267 146.30971c0 23.833328 -55.078735 47.93831 -110.15747 47.666656c-27.539368 -0.13583374 -55.07875 -6.365814 -75.73328 -15.676849c-10.327255 -4.6555023 -18.93332 -10.081268 -24.95755 -15.90065c-3.0121155 -2.9096985 -5.378784 -5.9177856 -6.9924164 -8.977219c-0.40341187 -0.7648468 -0.75975037 -1.5329132 -1.0673523 -2.3034515c-0.0769043 -0.19264221 -0.15075684 -0.38542175 -0.2215271 -0.5783539c-0.03540039 -0.096466064 -0.07002258 -0.1929779 -0.103881836 -0.289505l-0.068496704 -0.19998169" fill-rule="evenodd"/><path fill="#000000" stroke="#000000" stroke-width="1.0" stroke-linecap="butt" d="m143.90874 149.77148l-2.3942108 -4.194092l-0.86183167 4.751831z" fill-rule="evenodd"/><path fill="#000000" fill-opacity="0.0" d="m34.362206 77.144356c0 25.055122 25.055119 50.110237 50.110237 50.110237" fill-rule="evenodd"/><path stroke="#000000" stroke-width="1.0" stroke-linejoin="round" stroke-linecap="butt" d="m34.362206 77.144356c0 12.527557 6.2637787 25.055122 15.659447 34.45079c4.697838 4.69783 10.178642 8.612694 16.050934 11.353096c2.9361496 1.3702011 5.970169 2.4467926 9.053123 3.180832c0.7707367 0.18350983 1.5445328 0.34560394 2.3206253 0.48552704c0.19402313 0.034988403 0.38819122 0.06858063 0.582489 0.10077667l0.46174622 0.073143005" fill-rule="evenodd"/><path fill="#000000" stroke="#000000" stroke-width="1.0" stroke-linecap="butt" d="m78.36227 128.43526l4.652687 -1.29422l-4.39608 -1.99926z" fill-rule="evenodd"/><path fill="#000000" fill-opacity="0.0" d="m34.362206 66.85302l64.62992 0l0 30.48819l-64.62992 0z" fill-rule="evenodd"/><path fill="#000000" d="m44.424706 88.653015q3.0 -0.8125 3.0 -2.890625l0 -1.171875l-3.25 0l0 -1.125l3.25 0l0 -3.09375l-2.484375 0l0 -1.109375l9.84375 0l0 1.109375l-2.375 0l0 3.09375l3.140625 0l0 1.125l-3.140625 0l0 5.03125l-1.171875 0l0 -5.03125l-2.640625 0l0 1.171875q0 2.9375 -3.65625 4.0625l-0.515625 -1.171875zm4.171875 -8.28125l0 3.09375l2.640625 0l0 -3.09375l-2.640625 0zm13.8125 3.15625q-0.25 0.296875 -0.3125 0l-0.25 -1.078125l0.921875 0q0.546875 -1.625 1.15625 -4.265625l1.21875 0.359375q0.3125 0.25 -0.203125 0.359375q-0.609375 1.828125 -1.21875 3.5l3.046875 -0.203125q-0.453125 -0.765625 -1.0625 -1.578125l0.859375 -0.40625q1.171875 1.28125 2.09375 3.109375l-1.015625 0.5l-0.40625 -0.8125l-4.828125 0.515625zm-3.0 -1.828125q-0.25 1.625 -0.65625 3.140625q0.609375 0.40625 1.21875 0.8125q0.359375 -1.265625 0.5625 -3.953125l-1.125 0zm1.375 4.515625q0.40625 0.296875 1.015625 0.8125l-0.5625 1.0625q-0.359375 -0.40625 -0.90625 -0.859375q-0.8125 1.3125 -2.390625 2.34375l-0.65625 -0.8125q1.46875 -0.96875 2.28125 -2.1875q-0.5625 -0.40625 -1.125 -0.875l-0.25 0.671875l-0.90625 -0.40625q0.75 -1.890625 1.15625 -4.265625l-1.21875 0l0 -0.96875l1.375 0q0.15625 -1.171875 0.3125 -2.390625l0.90625 0.203125q0.515625 0.15625 0 0.359375q-0.09375 0.90625 -0.25 1.828125l1.171875 0l0.203125 -0.203125l0.75 0.5l-0.140625 0.203125q-0.203125 3.3125 -0.765625 4.984375zm5.9375 2.84375l-3.203125 0l0 0.65625l-1.015625 0l0 -5.171875l5.234375 0l0 4.96875l-1.015625 0l0 -0.453125zm0 -0.96875l0 -2.59375l-3.203125 0l0 2.59375l3.203125 0z" fill-rule="nonzero"/><path fill="#000000" fill-opacity="0.0" d="m173.77821 27.419947l127.05513 0l0 33.76378l-127.05513 0z" fill-rule="evenodd"/><path fill="#000000" d="m195.16884 49.063698l-0.15625 0.96875l-5.625 0q-2.90625 0 -4.328125 -2.140625q-0.140625 1.21875 -0.953125 2.390625l-0.671875 -0.65625q0.921875 -1.625 0.921875 -3.25l0 -1.671875l0.8125 0q0.40625 0.046875 0.046875 0.296875l0 1.671875q0.3125 0.5625 0.765625 1.125l0 -4.21875l-2.140625 0l0 -0.8125l2.140625 0l0 -1.515625l-1.875 0l0 -0.8125l1.875 0l0 -1.6875l0.96875 0q0.40625 0.0625 0.046875 0.3125l0 1.375l1.828125 0l0 0.8125l-1.828125 0l0 1.515625l1.921875 0l0 0.8125l-1.921875 0l0 1.828125l1.71875 0l0 0.8125l-1.71875 0l0 2.234375q0.90625 0.609375 2.84375 0.609375l5.328125 0zm-1.875 -4.015625l-2.796875 0l0 1.890625l2.796875 0l0 -1.890625zm-3.65625 -0.8125l4.515625 0l0 4.015625l-0.859375 0l0 -0.5l-2.796875 0l0 0.75l-0.859375 0l0 -4.265625zm-0.15625 -4.765625l5.078125 0l-0.15625 2.796875q-0.046875 1.265625 -0.953125 1.265625l-1.078125 0l-0.09375 -0.8125l0.703125 0q0.359375 0 0.40625 -0.515625l0.109375 -1.921875l-1.671875 0q-0.109375 2.59375 -2.1875 3.65625l-0.609375 -0.8125q1.828125 -1.125 1.78125 -2.84375l-1.328125 0l0 -0.8125z" fill-rule="nonzero"/><path fill="#000000" d="m201.04384 39.688698q-0.0625 1.875 -0.0625 4.53125q0 2.65625 0.0625 4.171875l-1.09375 0l0 -1.0l-2.09375 0l0 1.71875l-1.09375 0q0.0625 -2.390625 0.0625 -4.78125q0 -2.453125 -0.0625 -4.640625l4.28125 0zm4.890625 1.5625q0 -1.5625 -0.0625 -2.90625l1.15625 0q-0.0625 1.34375 -0.0625 2.90625q0.78125 0 1.671875 -0.046875l0 0.984375q-0.890625 -0.046875 -1.671875 -0.046875l0 6.96875q0 0.78125 -0.625 0.984375q-0.625 0.21875 -1.609375 0.328125q0 -0.625 -0.578125 -1.203125q1.0 0.109375 1.390625 0.046875q0.390625 -0.046875 0.390625 -0.671875l0 -6.453125q-2.609375 0 -4.375 0.046875l0 -0.984375q1.65625 0.046875 4.375 0.046875zm-5.984375 5.265625l0 -2.609375l-2.09375 0l0 2.609375l2.09375 0zm0 -3.5l0 -2.4375l-2.09375 0l0 2.4375l2.09375 0zm3.21875 0.53125q0.671875 1.09375 1.296875 2.34375q-0.515625 0.15625 -1.09375 0.46875q-0.40625 -1.25 -1.1875 -2.34375q0.46875 -0.21875 0.984375 -0.46875z" fill-rule="nonzero"/><path fill="#000000" d="m210.37196 47.891823l1.171875 0l0 1.125l-0.609375 1.375l-0.5625 0l0.515625 -1.375l-0.515625 0l0 -1.125zm12.3984375 1.4375q0.203125 0 0.203125 -0.21875l0 -2.171875l-2.84375 0q0 2.125 -0.96875 3.34375l-0.703125 -0.703125q0.8125 -1.171875 0.8125 -2.796875l0 -3.96875q-0.265625 0.359375 -0.671875 0.71875l-0.546875 -0.765625q1.71875 -1.671875 2.28125 -4.15625l1.015625 0.140625q0.203125 0.203125 -0.15625 0.265625l-0.15625 0.453125l1.421875 0l0.15625 -0.25l0.765625 0.453125q0.359375 0.203125 -0.046875 0.25l-0.8125 1.578125l1.3125 0l0 8.078125q0 0.703125 -0.703125 0.703125l-0.921875 0l-0.15625 -0.953125l0.71875 0zm6.34375 0.8125q-0.09375 -0.515625 -0.203125 -0.875q-1.984375 0.265625 -4.15625 0.515625q-0.0625 0.453125 -0.265625 0.15625l-0.34375 -1.171875l2.4375 -0.15625l0 -2.890625l-1.015625 0l0 0.90625l-0.875 0l0 -5.328125l1.890625 0l0 -2.484375l0.8125 0q0.40625 0.046875 0.046875 0.296875l0 2.1875l2.03125 0l0 4.828125l-0.859375 0l0 -0.40625l-1.171875 0l0 2.84375l1.265625 -0.109375q-0.15625 -0.5625 -0.453125 -1.421875l0.859375 -0.203125q0.609375 1.171875 1.0625 3.109375l-1.0625 0.203125zm-0.5 -5.234375l0 -2.796875l-1.171875 0l0 2.796875l1.171875 0zm-2.03125 0l0 -2.796875l-1.015625 0l0 2.796875l1.015625 0zm-3.609375 1.21875l0 -1.484375l-0.96875 0l0 1.484375l0.96875 0zm-1.828125 -1.484375l-1.015625 0l0 1.484375l1.015625 0l0 -1.484375zm-1.015625 -0.8125l1.015625 0l0 -1.515625l-1.015625 0l0 1.515625zm2.84375 0l0 -1.515625l-0.96875 0l0 1.515625l0.96875 0zm-0.859375 -3.546875l-1.328125 0q-0.25 0.65625 -0.609375 1.21875l1.328125 0l0.609375 -1.21875z" fill-rule="nonzero"/><path fill="#000000" d="m237.97353 38.969948q-0.265625 0.5625 -0.421875 1.171875q-0.140625 0.59375 -0.40625 1.640625l4.15625 0q0.53125 0 1.5625 -0.0625l0 0.984375q-1.03125 -0.046875 -1.5625 -0.046875l-4.359375 0q-0.3125 0.78125 -0.6875 1.5625l5.515625 0q-0.984375 2.390625 -2.75 4.015625q1.40625 0.984375 4.109375 1.296875q-0.359375 0.421875 -0.625 1.046875q-1.046875 -0.21875 -2.140625 -0.609375q-1.09375 -0.390625 -2.125 -1.109375q-0.828125 0.515625 -2.03125 1.0q-1.203125 0.5 -2.453125 0.8125q-0.09375 -0.515625 -0.515625 -0.984375q1.140625 -0.15625 2.28125 -0.546875q1.15625 -0.390625 2.03125 -0.96875q-0.875 -0.875 -1.96875 -2.546875q-0.578125 0.9375 -1.46875 1.828125q-0.875 0.875 -1.921875 1.609375q-0.203125 -0.359375 -0.828125 -0.78125q0.78125 -0.421875 1.53125 -1.09375q0.765625 -0.671875 1.59375 -1.796875q0.828125 -1.125 1.40625 -2.734375q-1.359375 0 -2.09375 0.0625q-0.71875 0.046875 -1.078125 0.203125q-0.15625 -0.46875 -0.421875 -0.984375q0.515625 -0.109375 0.75 -0.78125q0.234375 -0.6875 0.5 -2.09375q0.421875 0.21875 1.140625 0.421875q-0.25 0.515625 -0.46875 1.0625q-0.203125 0.546875 -0.46875 1.234375l2.40625 0q0.40625 -1.671875 0.625 -3.1875q0.5625 0.3125 1.1875 0.375zm-1.65625 6.078125q0.71875 1.3125 2.015625 2.609375q1.15625 -0.9375 2.03125 -2.609375l-4.046875 0zm3.578125 -6.390625q0.890625 0.984375 1.78125 2.03125q-0.375 0.203125 -0.890625 0.671875q-0.828125 -1.203125 -1.609375 -2.03125q0.359375 -0.265625 0.71875 -0.671875zm10.84375 0.46875q-0.375 0.5625 -0.625 1.296875l1.703125 0q0 -1.046875 -0.046875 -1.984375l1.203125 0q-0.109375 0.734375 -0.109375 1.984375q1.828125 -0.046875 2.609375 -0.046875l0 0.875q-0.890625 -0.046875 -2.609375 -0.046875l0 1.8125l1.765625 0q0.78125 0 1.5625153 -0.046875l0 0.9375q-0.78126526 -0.046875 -2.3906403 -0.046875l0 2.859375q0 0.515625 0.578125 0.515625l0.625 0q0.359375 -0.203125 0.40625 -1.1875q0.53125 0.3125 1.0937653 0.40625q-0.3125 1.78125 -1.0937653 1.78125l-1.40625 0q-1.1875 0 -1.1875 -1.09375l0 -3.28125l-1.046875 0q0 1.5625 -0.578125 2.65625q-0.5625 1.09375 -1.546875 2.03125q-0.375 -0.375 -1.046875 -0.578125q1.296875 -0.9375 1.734375 -1.84375q0.453125 -0.921875 0.453125 -2.265625q-1.5625 0 -2.34375 0.046875l0 -0.984375q0.828125 0.09375 1.453125 0.09375l1.921875 0l0 -1.8125l-1.96875 0q-0.265625 0.625 -0.421875 1.203125q-0.5625 -0.21875 -1.03125 -0.375q0.78125 -1.34375 1.140625 -3.21875q0.515625 0.15625 1.203125 0.3125zm-3.1875 4.109375q-0.046875 1.09375 -0.046875 1.96875l0 2.8125q1.359375 1.09375 4.3125 1.203125q2.96875 0.109375 5.0000153 -0.265625q-0.25 0.265625 -0.515625 1.203125q-3.2343903 0.046875 -4.6718903 -0.0625q-1.421875 -0.09375 -2.40625 -0.390625q-0.984375 -0.28125 -1.5625 -0.640625q-0.578125 -0.359375 -1.0 0.078125q-0.40625 0.4375 -0.921875 1.125q-0.375 -0.421875 -0.9375 -0.6875q0.5625 -0.625 1.71875 -1.453125l0 -4.0625q-0.78125 0 -1.671875 0.046875l0 -0.9375q0.984375 0.0625 2.703125 0.0625zm-0.78125 -4.109375q0.6875 1.5625 0.9375 2.34375q-0.46875 0.15625 -0.9375 0.359375q-0.203125 -0.625 -1.03125 -2.34375q0.46875 -0.15625 1.03125 -0.359375zm21.60939 -0.265625q-0.515625 0.671875 -0.859375 1.359375q-0.34375 0.671875 -0.703125 1.453125l1.203125 0q0.625 0 1.875 -0.046875l0 1.03125q-1.203125 -0.046875 -1.875 -0.046875l-1.625 0q1.203125 2.03125 3.75 2.5q-0.203125 0.25 -0.671875 1.09375q-1.25 -0.421875 -2.1875 -1.09375l0 0.828125q-0.9375 -0.046875 -2.703125 -0.046875l0 1.453125l3.015625 0q0.671875 0 1.453125 -0.109375l0 1.09375q-0.71875 -0.046875 -1.65625 -0.046875l-2.8125 0q0 1.515625 0.046875 2.34375l-1.09375 0q0.0625 -0.828125 0.0625 -2.34375l-2.921875 0q-0.671875 0 -1.5625 0.109375l0 -1.09375q0.890625 0.046875 1.5625 0.046875l2.921875 0l0 -1.453125q-1.875 0 -2.8125 0.046875l0 -0.890625q-0.9375 0.734375 -2.09375 1.3125q-0.25 -0.46875 -0.875 -0.9375q2.1875 -0.578125 3.953125 -2.8125l-1.25 0q-1.046875 0 -2.234375 0.046875l0 -1.03125q1.25 0.046875 2.234375 0.046875l5.203125 0q1.140625 -2.453125 1.296875 -3.28125q0.78125 0.3125 1.359375 0.46875zm-7.390625 6.03125q0.671875 0.0625 2.609375 0.0625q0 -0.9375 -0.0625 -1.671875l1.09375 0q-0.046875 0.734375 -0.046875 1.671875q1.71875 0 2.390625 -0.0625q-1.046875 -0.78125 -1.671875 -2.28125l-2.390625 0q-0.5625 1.09375 -1.921875 2.28125zm-0.828125 -6.1875q0.3125 0.3125 0.671875 0.8125q0.359375 0.484375 0.828125 1.109375q-0.3125 0.15625 -0.984375 0.734375q-0.359375 -0.671875 -1.40625 -1.921875q0.421875 -0.265625 0.890625 -0.734375zm4.203125 0.578125q0.265625 0.625 0.46875 1.25q-0.359375 0.046875 -1.078125 0.359375q-0.21875 -0.890625 -0.84375 -2.296875q0.578125 -0.15625 1.09375 -0.359375l0.359375 1.046875z" fill-rule="nonzero"/><path fill="#000000" fill-opacity="0.0" d="m339.83728 27.419947l103.055115 0l0 33.76378l-103.055115 0z" fill-rule="evenodd"/><path fill="#000000" d="m361.2279 49.063698l-0.15625 0.96875l-5.625 0q-2.90625 0 -4.328125 -2.140625q-0.140625 1.21875 -0.953125 2.390625l-0.671875 -0.65625q0.921875 -1.625 0.921875 -3.25l0 -1.671875l0.8125 0q0.40625 0.046875 0.046875 0.296875l0 1.671875q0.3125 0.5625 0.765625 1.125l0 -4.21875l-2.140625 0l0 -0.8125l2.140625 0l0 -1.515625l-1.875 0l0 -0.8125l1.875 0l0 -1.6875l0.96875 0q0.40625 0.0625 0.046875 0.3125l0 1.375l1.828125 0l0 0.8125l-1.828125 0l0 1.515625l1.921875 0l0 0.8125l-1.921875 0l0 1.828125l1.71875 0l0 0.8125l-1.71875 0l0 2.234375q0.90625 0.609375 2.84375 0.609375l5.328125 0zm-1.875 -4.015625l-2.796875 0l0 1.890625l2.796875 0l0 -1.890625zm-3.65625 -0.8125l4.515625 0l0 4.015625l-0.859375 0l0 -0.5l-2.796875 0l0 0.75l-0.859375 0l0 -4.265625zm-0.15625 -4.765625l5.078125 0l-0.15625 2.796875q-0.046875 1.265625 -0.953125 1.265625l-1.078125 0l-0.09375 -0.8125l0.703125 0q0.359375 0 0.40625 -0.515625l0.109375 -1.921875l-1.671875 0q-0.109375 2.59375 -2.1875 3.65625l-0.609375 -0.8125q1.828125 -1.125 1.78125 -2.84375l-1.328125 0l0 -0.8125z" fill-rule="nonzero"/><path fill="#000000" d="m367.1029 39.688698q-0.0625 1.875 -0.0625 4.53125q0 2.65625 0.0625 4.171875l-1.09375 0l0 -1.0l-2.09375 0l0 1.71875l-1.09375 0q0.0625 -2.390625 0.0625 -4.78125q0 -2.453125 -0.0625 -4.640625l4.28125 0zm4.890625 1.5625q0 -1.5625 -0.0625 -2.90625l1.15625 0q-0.0625 1.34375 -0.0625 2.90625q0.78125 0 1.671875 -0.046875l0 0.984375q-0.890625 -0.046875 -1.671875 -0.046875l0 6.96875q0 0.78125 -0.625 0.984375q-0.625 0.21875 -1.609375 0.328125q0 -0.625 -0.578125 -1.203125q1.0 0.109375 1.390625 0.046875q0.390625 -0.046875 0.390625 -0.671875l0 -6.453125q-2.609375 0 -4.375 0.046875l0 -0.984375q1.65625 0.046875 4.375 0.046875zm-5.984375 5.265625l0 -2.609375l-2.09375 0l0 2.609375l2.09375 0zm0 -3.5l0 -2.4375l-2.09375 0l0 2.4375l2.09375 0zm3.21875 0.53125q0.671875 1.09375 1.296875 2.34375q-0.515625 0.15625 -1.09375 0.46875q-0.40625 -1.25 -1.1875 -2.34375q0.46875 -0.21875 0.984375 -0.46875z" fill-rule="nonzero"/><path fill="#000000" d="m376.43103 47.891823l1.171875 0l0 1.125l-0.609375 1.375l-0.5625 0l0.515625 -1.375l-0.515625 0l0 -1.125zm12.6484375 1.53125q2.078125 -1.125 2.078125 -3.8125l0 -5.84375l1.078125 0.203125l2.734375 -0.859375l0.765625 1.015625q0.09375 0.3125 -0.359375 0.109375l-3.203125 0.609375l0 2.171875l4.015625 0l0 0.96875l-1.515625 0l0 6.359375l-1.015625 0l0 -6.359375l-1.484375 0l0 1.9375q0 2.984375 -2.53125 4.46875l-0.5625 -0.96875zm-0.96875 0.96875l-1.015625 0l0 -3.046875q-0.8125 1.3125 -1.765625 2.078125l-0.765625 -0.921875q1.421875 -1.015625 2.390625 -2.53125l-2.140625 0l0 -0.96875l2.28125 0l0 -1.109375l-2.578125 0l0 -0.96875l3.546875 0l0.5625 -1.828125l-3.765625 0l0 -0.96875l2.234375 0l0 -1.421875l0.96875 0q0.40625 0.046875 0.046875 0.3125l0 1.109375l2.234375 0l0 0.96875l-0.65625 0l-0.703125 1.828125l1.625 0l0 0.96875l-2.5 0l0 1.109375l2.234375 0l0 0.96875l-2.234375 0l0 0.453125q0.71875 0.203125 1.984375 1.0625l-0.609375 1.015625q-0.703125 -0.703125 -1.375 -1.109375l0 3.0zm-2.03125 -7.578125q-0.203125 -0.703125 -0.546875 -1.359375l0.953125 -0.3125q0.40625 0.65625 0.609375 1.375l-1.015625 0.296875z" fill-rule="nonzero"/><path fill="#000000" d="m403.4701 39.126198q-0.375 0.5625 -0.625 1.296875l1.703125 0q0 -1.046875 -0.046875 -1.984375l1.203125 0q-0.109375 0.734375 -0.109375 1.984375q1.828125 -0.046875 2.609375 -0.046875l0 0.875q-0.890625 -0.046875 -2.609375 -0.046875l0 1.8125l1.765625 0q0.78125 0 1.5625 -0.046875l0 0.9375q-0.78125 -0.046875 -2.390625 -0.046875l0 2.859375q0 0.515625 0.578125 0.515625l0.625 0q0.359375 -0.203125 0.40625 -1.1875q0.53125 0.3125 1.09375 0.40625q-0.3125 1.78125 -1.09375 1.78125l-1.40625 0q-1.1875 0 -1.1875 -1.09375l0 -3.28125l-1.046875 0q0 1.5625 -0.578125 2.65625q-0.5625 1.09375 -1.546875 2.03125q-0.375 -0.375 -1.046875 -0.578125q1.296875 -0.9375 1.734375 -1.84375q0.453125 -0.921875 0.453125 -2.265625q-1.5625 0 -2.34375 0.046875l0 -0.984375q0.828125 0.09375 1.453125 0.09375l1.921875 0l0 -1.8125l-1.96875 0q-0.265625 0.625 -0.421875 1.203125q-0.5625 -0.21875 -1.03125 -0.375q0.78125 -1.34375 1.140625 -3.21875q0.515625 0.15625 1.203125 0.3125zm-3.1875 4.109375q-0.046875 1.09375 -0.046875 1.96875l0 2.8125q1.359375 1.09375 4.3125 1.203125q2.96875 0.109375 5.0 -0.265625q-0.25 0.265625 -0.515625 1.203125q-3.234375 0.046875 -4.671875 -0.0625q-1.421875 -0.09375 -2.40625 -0.390625q-0.984375 -0.28125 -1.5625 -0.640625q-0.578125 -0.359375 -1.0 0.078125q-0.40625 0.4375 -0.921875 1.125q-0.375 -0.421875 -0.9375 -0.6875q0.5625 -0.625 1.71875 -1.453125l0 -4.0625q-0.78125 0 -1.671875 0.046875l0 -0.9375q0.984375 0.0625 2.703125 0.0625zm-0.78125 -4.109375q0.6875 1.5625 0.9375 2.34375q-0.46875 0.15625 -0.9375 0.359375q-0.203125 -0.625 -1.03125 -2.34375q0.46875 -0.15625 1.03125 -0.359375zm21.609375 -0.265625q-0.515625 0.671875 -0.859375 1.359375q-0.34375 0.671875 -0.703125 1.453125l1.203125 0q0.625 0 1.875 -0.046875l0 1.03125q-1.203125 -0.046875 -1.875 -0.046875l-1.625 0q1.203125 2.03125 3.75 2.5q-0.203125 0.25 -0.671875 1.09375q-1.25 -0.421875 -2.1875 -1.09375l0 0.828125q-0.9375 -0.046875 -2.703125 -0.046875l0 1.453125l3.015625 0q0.671875 0 1.453125 -0.109375l0 1.09375q-0.71875 -0.046875 -1.65625 -0.046875l-2.8125 0q0 1.515625 0.046875 2.34375l-1.09375 0q0.0625 -0.828125 0.0625 -2.34375l-2.921875 0q-0.671875 0 -1.5625 0.109375l0 -1.09375q0.890625 0.046875 1.5625 0.046875l2.921875 0l0 -1.453125q-1.875 0 -2.8125 0.046875l0 -0.890625q-0.9375 0.734375 -2.09375 1.3125q-0.25 -0.46875 -0.875 -0.9375q2.1875 -0.578125 3.953125 -2.8125l-1.25 0q-1.046875 0 -2.234375 0.046875l0 -1.03125q1.25 0.046875 2.234375 0.046875l5.203125 0q1.140625 -2.453125 1.296875 -3.28125q0.78125 0.3125 1.359375 0.46875zm-7.390625 6.03125q0.671875 0.0625 2.609375 0.0625q0 -0.9375 -0.0625 -1.671875l1.09375 0q-0.046875 0.734375 -0.046875 1.671875q1.71875 0 2.390625 -0.0625q-1.046875 -0.78125 -1.671875 -2.28125l-2.390625 0q-0.5625 1.09375 -1.921875 2.28125zm-0.828125 -6.1875q0.3125 0.3125 0.671875 0.8125q0.359375 0.484375 0.828125 1.109375q-0.3125 0.15625 -0.984375 0.734375q-0.359375 -0.671875 -1.40625 -1.921875q0.421875 -0.265625 0.890625 -0.734375zm4.203125 0.578125q0.265625 0.625 0.46875 1.25q-0.359375 0.046875 -1.078125 0.359375q-0.21875 -0.890625 -0.84375 -2.296875q0.578125 -0.15625 1.09375 -0.359375l0.359375 1.046875z" fill-rule="nonzero"/><path fill="#000000" fill-opacity="0.0" d="m452.91602 50.6063l118.48816 0l0 33.76378l-118.48816 0z" fill-rule="evenodd"/><path fill="#000000" d="m470.91602 65.437546q-0.09375 0.5625 -0.09375 2.078125l1.875 0q0.78125 0 1.34375 -0.0625l0 0.9375q-0.5625 -0.046875 -1.34375 -0.046875l-1.828125 0q0.109375 0.515625 0.359375 1.140625q0.265625 0.625 0.734375 1.234375q0.46875 0.59375 1.140625 1.140625q0.6875 0.546875 1.203125 0.703125q-0.625 0.46875 -0.890625 0.9375q-0.9375 -0.671875 -1.765625 -1.640625q-0.828125 -0.96875 -1.296875 -2.265625q-0.375 1.09375 -0.875 1.828125q-0.484375 0.71875 -0.921875 1.21875q-0.4375 0.5 -1.171875 1.015625q-0.359375 -0.46875 -0.78125 -0.78125q0.625 -0.359375 1.1875 -0.875q0.578125 -0.53125 0.96875 -1.15625q0.390625 -0.625 0.640625 -1.328125q0.265625 -0.703125 0.328125 -1.171875l-0.578125 0q-0.875 0 -1.8125 0.046875l0 -0.9375q0.9375 0.0625 1.8125 0.0625l0.671875 0q0 -1.671875 -0.046875 -2.234375q0.515625 0.09375 1.140625 0.15625zm-3.640625 0.296875q-0.359375 0.21875 -0.734375 0.5q-0.359375 0.28125 -0.5625 0.5q0.515625 0.71875 0.78125 1.84375q0.265625 1.125 0.125 2.375q-0.125 1.25 -0.890625 1.84375q-0.75 0.59375 -2.046875 0.859375q-0.046875 -0.421875 -0.421875 -0.9375q1.203125 -0.15625 1.6875 -0.515625q0.5 -0.375 0.625 -0.859375q0.140625 -0.5 0.15625 -0.984375q0.03125 -0.5 -0.0625 -1.34375q-0.375 0.53125 -0.890625 0.96875q-0.515625 0.4375 -1.671875 1.328125q-0.25 -0.421875 -0.71875 -0.734375q0.9375 -0.40625 1.734375 -1.109375q0.8125 -0.703125 1.28125 -1.328125q-0.203125 -0.53125 -0.421875 -0.84375q-0.25 0.21875 -0.640625 0.484375q-0.390625 0.25 -1.234375 0.765625q-0.3125 -0.359375 -0.671875 -0.671875q1.140625 -0.46875 2.03125 -1.25q-0.671875 -0.578125 -1.25 -0.828125q0.359375 -0.3125 0.625 -0.734375q0.9375 0.671875 1.359375 0.984375q0.71875 -0.5625 0.984375 -1.03125q0.265625 0.359375 0.828125 0.71875zm-0.046875 -1.9218712q0 0.5312462 0.046875 1.0468712l-1.09375 0q0.0625 -0.671875 0.0625 -1.0468712l-1.40625 0q-0.78125 0 -1.71875 0.0625l0 -0.9375q0.984375 0.046875 1.765625 0.046875l1.359375 0q0 -0.625 -0.0625 -1.25l1.09375 0q-0.046875 0.515625 -0.046875 1.25l2.65625 0q0 -0.734375 -0.0625 -1.296875l1.09375 0q-0.046875 0.5625 -0.046875 1.296875l1.296875 0q0.84375 0 1.875 -0.046875l0 0.9375q-0.9375 -0.0625 -1.8125 -0.0625l-1.359375 0q0 0.4687462 0.046875 1.0468712l-1.09375 0q0.0625 -0.515625 0.0625 -1.0468712l-2.65625 0zm5.046875 1.4687462q0.578125 0.515625 1.296875 1.5q-0.40625 0.265625 -0.78125 0.625q-0.625 -0.9375 -1.25 -1.5625q0.265625 -0.15625 0.734375 -0.5625z" fill-rule="nonzero"/><path fill="#000000" d="m475.9004 68.14067q1.9375 -1.265625 3.25 -3.609375l0.765625 0.609375q0.203125 0.15625 -0.15625 0.25q-0.65625 1.078125 -0.953125 1.484375l0 6.703125l-1.015625 0l0 -5.640625q-0.5625 0.5625 -1.328125 1.171875l-0.5625 -0.96875zm0.3125 -3.5625q1.578125 -1.0156212 2.53125 -2.6406212l0.8125 0.609375q0.203125 0.203125 -0.140625 0.265625q-1.171875 1.8281212 -2.640625 2.7343712l-0.5625 -0.96875zm5.375 5.484375q0.671875 0.46875 1.578125 1.625l-0.859375 0.71875q-0.765625 -1.0625 -1.53125 -1.734375l0.8125 -0.609375zm-2.125 -0.25l0 -0.96875l5.171875 0l0 -0.859375l-5.125 0l0 -0.96875l8.03125 0l0 0.96875l-1.890625 0l0 0.859375l1.828125 0l0 0.96875l-1.828125 0l0 2.90625q0 0.75 -0.703125 0.75l-1.171875 0l-0.203125 -0.953125l0.859375 0q0.203125 0 0.203125 -0.21875l0 -2.484375l-5.171875 0zm5.84375 -5.171875l-3.65625 0l0 0.90625l3.65625 0l0 -0.90625zm0 -1.6249962l-3.65625 0l0 0.8125l3.65625 0l0 -0.8125zm0.859375 -0.8125l0 4.156246l-5.390625 0l0 -4.156246l5.390625 0zm2.890625 9.953121q4.671875 -1.625 4.921875 -6.25l-4.5625 0l0 -1.125l4.671875 0l0 -2.6874962l1.109375 0q0.515625 0.109375 0.0625 0.40625l0 2.2812462l4.875 0l0 1.125l-4.78125 0q1.0625 4.21875 5.1875 5.984375l-0.671875 1.234375q-3.546875 -1.640625 -5.015625 -5.5q-0.875 4.171875 -5.34375 5.75l-0.453125 -1.21875zm14.671875 -2.34375q3.765625 -1.0625 5.1875 -3.34375l1.109375 0.25q0.203125 0.203125 -0.140625 0.25l-0.46875 0.609375l2.640625 0l0.109375 -0.203125l0.8125 0.609375q0.40625 0.25 0 0.359375q-2.84375 4.578125 -9.59375 5.234375l-0.3125 -1.125q3.359375 -0.296875 4.921875 -1.171875q-0.453125 -0.703125 -1.46875 -1.359375q-1.21875 0.546875 -2.28125 0.90625l-0.515625 -1.015625zm-0.90625 -2.078125q2.484375 -0.453125 3.8125 -1.265625q-0.515625 -0.5625 -1.421875 -1.21875q-0.46875 0.34375 -1.828125 0.90625l-0.515625 -0.96875q2.953125 -1.15625 3.859375 -3.2968712l1.015625 0.3125q0.15625 0.203125 -0.15625 0.25l-0.296875 0.453125l3.203125 0l0.09375 -0.25l0.8125 0.609375q0.40625 0.25 0 0.359375q-2.53125 3.8593712 -8.078125 5.124996l-0.5 -1.015625zm4.828125 -1.875q1.21875 -0.671875 2.234375 -1.9843712l-3.203125 0q-0.359375 0.4062462 -0.71875 0.7031212q0.921875 0.609375 1.6875 1.28125zm-0.15625 3.5q0.96875 0.609375 1.625 1.3125q1.3125 -0.8125 2.328125 -2.125l-2.890625 0q-0.5625 0.5 -1.0625 0.8125zm16.203125 0.25q0.703125 -1.375 0.859375 -4.15625l-1.734375 0q0.15625 2.78125 0.875 4.15625zm1.875 -4.15625q-0.109375 3.140625 -1.21875 5.078125q0.8125 1.015625 2.28125 1.765625l-0.65625 1.125q-1.625 -1.0625 -2.28125 -2.03125q-1.171875 1.328125 -3.609375 2.28125l-0.515625 -1.015625q2.640625 -1.0625 3.515625 -2.1875q-0.875 -1.671875 -0.96875 -3.34375q-0.3125 0.765625 -0.609375 1.171875l-0.859375 -0.671875q1.515625 -2.234375 1.828125 -5.531246l1.0625 0.25q0.296875 0.203125 -0.15625 0.3125q-0.15625 0.90625 -0.40625 1.8281212l3.453125 0l0 0.96875l-0.859375 0zm-4.71875 -2.4374962q-0.3125 0.75 -0.71875 1.2656212l-0.8125 -0.4531212q0.40625 -0.671875 0.765625 -1.53125l0.90625 0.453125q0.203125 0.203125 -0.140625 0.265625zm-3.25 7.156246q0.703125 0.203125 1.265625 0.453125q0.40625 -0.453125 0.65625 -1.375l-1.46875 0q-0.203125 0.46875 -0.453125 0.921875zm-0.71875 1.265625l-0.8125 -0.453125q0.515625 -0.765625 1.015625 -1.734375l-1.921875 0l0 -0.8125l2.234375 0q0.296875 -0.65625 0.453125 -1.109375l0.96875 0.25q0.203125 0.203125 -0.15625 0.25l-0.3125 0.609375l2.90625 0l0 0.8125l-0.765625 0q-0.25 1.015625 -0.765625 1.734375q0.453125 0.203125 0.96875 0.5l-0.453125 0.8125q-0.5625 -0.34375 -1.015625 -0.546875q-1.328125 1.3125 -3.5625 1.625l-0.359375 -0.921875q1.984375 -0.203125 3.046875 -1.109375q-0.546875 -0.265625 -1.109375 -0.46875l-0.359375 0.5625zm1.015625 -9.546871l0.8125 0q0.40625 0.046875 0.046875 0.3125l0 2.1718712l2.59375 0l0 0.8125l-2.125 0q0.546875 0.671875 1.71875 1.28125l-0.5625 0.859375q-0.859375 -0.515625 -1.625 -1.421875l0 1.21875l-0.859375 0l0 -0.96875q-0.8125 1.015625 -2.234375 1.828125l-0.65625 -0.8125q1.578125 -0.8125 2.59375 -1.984375l-2.34375 0l0 -0.8125l2.640625 0l0 -2.4843712zm-1.421875 2.3437462q-0.359375 -0.7656212 -0.90625 -1.3281212l0.8125 -0.5q0.609375 0.609375 0.90625 1.265625l-0.8125 0.5624962zm19.8125 -1.0156212l-1.984375 0l0 1.0156212q0 2.078125 -1.828125 2.9375l-0.5625 -0.90625q1.375 -0.671875 1.375 -2.1875l0 -1.8281212l4.015625 0l0 2.9999962q0 0.40625 0.34375 0.40625l0.671875 0q0.203125 0 0.203125 -0.203125l0 -1.015625l1.015625 0.25l0 1.015625q0 0.90625 -1.078125 0.90625l-1.265625 0q-0.90625 0 -0.90625 -0.859375l0 -2.5312462zm0.296875 7.921871q1.0625 0.65625 3.046875 1.21875l-0.40625 1.015625q-2.078125 -0.65625 -3.34375 -1.53125q-1.53125 1.171875 -3.65625 1.734375l-0.40625 -1.015625q2.078125 -0.515625 3.296875 -1.328125q-1.125 -1.109375 -1.734375 -2.6875l-0.75 0l0 -0.96875l4.8125 0l0.203125 -0.203125l0.765625 0.65625q0.359375 0.265625 -0.09375 0.3125q-0.5625 1.625 -1.734375 2.796875zm-2.28125 -2.59375q0.65625 1.171875 1.515625 2.03125q0.875 -0.859375 1.328125 -2.03125l-2.84375 0zm-3.453125 -6.546871q0.40625 0.046875 0.046875 0.296875l0 1.9374962l1.578125 0l0 0.953125l-1.578125 0l0 2.640625l1.015625 -0.40625l0.359375 0.921875l-1.375 0.5625l0 3.859375q0 0.8125 -0.8125 0.8125l-1.015625 0l-0.15625 -0.96875l0.765625 0q0.203125 0 0.203125 -0.203125l0 -3.15625l-1.109375 0.46875q-0.0625 0.34375 -0.265625 0.140625l-0.40625 -1.15625l1.78125 -0.5625l0 -2.953125l-1.78125 0l0 -0.953125l1.78125 0l0 -2.2343712l0.96875 0zm13.765625 9.390621q0.203125 0.25 -0.15625 0.203125q-1.21875 1.015625 -2.84375 1.9375l-0.5625 -0.96875q1.53125 -0.71875 2.796875 -1.9375l0.765625 0.765625zm4.8125 -0.765625q1.984375 1.421875 3.109375 1.671875l-0.40625 1.125q-1.375 -0.359375 -3.453125 -2.03125l0.75 -0.765625zm-2.125 2.03125q0 0.8125 -0.8125 0.8125l-0.921875 0l-0.203125 -0.953125l0.71875 0q0.203125 0 0.203125 -0.21875l0 -1.921875l-5.125 0l0 -0.96875l11.265625 0l0 0.96875l-5.125 0l0 2.28125zm-5.84375 -10.406246l10.5625 0l0 0.96875l-3.5 0l0 0.9531212l2.796875 0l0 2.796875l-9.140625 0l0 -2.796875l2.734375 0l0 -0.9531212l-3.453125 0l0 -0.96875zm6.046875 0.96875l-1.578125 0l0 0.9531212l1.578125 0l0 -0.9531212zm2.796875 1.7656212l-1.78125 0l0 1.171875l1.78125 0l0 -1.171875zm-5.390625 1.171875l0 -1.171875l-1.71875 0l0 1.171875l1.71875 0zm2.59375 0l0 -1.171875l-1.578125 0l0 1.171875l1.578125 0zm3.453125 2.546875l-8.328125 0l0 -0.96875l8.328125 0l0 0.96875z" fill-rule="nonzero"/><path fill="#000000" fill-opacity="0.0" d="m283.9567 206.4042l188.8819 0l0 33.76378l-188.8819 0z" fill-rule="evenodd"/><path fill="#000000" d="m300.19107 217.9542q-0.265625 0.5625 -0.421875 1.171875q-0.140625 0.59375 -0.40625 1.640625l4.15625 0q0.53125 0 1.5625 -0.0625l0 0.984375q-1.03125 -0.046875 -1.5625 -0.046875l-4.359375 0q-0.3125 0.78125 -0.6875 1.5625l5.515625 0q-0.984375 2.390625 -2.75 4.015625q1.40625 0.984375 4.109375 1.296875q-0.359375 0.421875 -0.625 1.046875q-1.046875 -0.21875 -2.140625 -0.609375q-1.09375 -0.390625 -2.125 -1.109375q-0.828125 0.515625 -2.03125 1.0q-1.203125 0.5 -2.453125 0.8125q-0.09375 -0.515625 -0.515625 -0.984375q1.140625 -0.15625 2.28125 -0.546875q1.15625 -0.390625 2.03125 -0.96875q-0.875 -0.875 -1.96875 -2.546875q-0.578125 0.9375 -1.46875 1.828125q-0.875 0.875 -1.921875 1.609375q-0.203125 -0.359375 -0.828125 -0.78125q0.78125 -0.421875 1.53125 -1.09375q0.765625 -0.671875 1.59375 -1.796875q0.828125 -1.125 1.40625 -2.734375q-1.359375 0 -2.09375 0.0625q-0.71875 0.046875 -1.078125 0.203125q-0.15625 -0.46875 -0.421875 -0.984375q0.515625 -0.109375 0.75 -0.78125q0.234375 -0.6875 0.5 -2.09375q0.421875 0.21875 1.140625 0.421875q-0.25 0.515625 -0.46875 1.0625q-0.203125 0.546875 -0.46875 1.234375l2.40625 0q0.40625 -1.671875 0.625 -3.1875q0.5625 0.3125 1.1875 0.375zm-1.65625 6.078125q0.71875 1.3125 2.015625 2.609375q1.15625 -0.9375 2.03125 -2.609375l-4.046875 0zm3.578125 -6.390625q0.890625 0.984375 1.78125 2.03125q-0.375 0.203125 -0.890625 0.671875q-0.828125 -1.203125 -1.609375 -2.03125q0.359375 -0.265625 0.71875 -0.671875zm13.859375 2.546875q-0.21875 0.578125 -0.296875 1.828125q-0.078125 1.234375 -0.328125 2.640625l1.03125 0q-0.046875 0.53125 -0.046875 1.40625l0 1.671875q0 0.78125 0.28125 0.828125q0.296875 0.0625 0.65625 0.03125q0.359375 -0.03125 0.515625 -0.375q0.15625 -0.328125 0.21875 -1.21875q0.515625 0.3125 1.140625 0.421875q-0.265625 1.09375 -0.53125 1.484375q-0.25 0.390625 -1.078125 0.5l-1.046875 0q-1.140625 0 -1.140625 -1.0l0 -3.640625q-0.46875 1.671875 -1.359375 2.796875q-0.890625 1.109375 -2.65625 2.046875q-0.25 -0.421875 -0.875 -0.734375q1.65625 -0.671875 2.4375 -1.46875q0.78125 -0.8125 1.25 -2.0625q0.46875 -1.25 0.546875 -2.59375q0.078125 -1.359375 0.03125 -2.71875q0.671875 0.109375 1.25 0.15625zm-5.828125 -1.609375q0.5625 0 1.40625 -0.0625l0 1.0q-0.84375 -0.0625 -1.78125 -0.0625l0 2.859375q0.734375 0 1.5625 -0.046875l0 0.984375q-0.828125 -0.046875 -1.5625 -0.046875l0 3.171875q0.890625 -0.203125 1.828125 -0.515625q-0.046875 0.578125 -0.046875 0.984375q-1.71875 0.421875 -2.765625 0.796875q-1.046875 0.359375 -1.5625 0.609375q-0.15625 -0.71875 -0.421875 -1.25q0.84375 -0.09375 2.03125 -0.359375l0 -3.4375q-0.828125 0 -1.609375 0.046875l0 -0.984375q0.78125 0.046875 1.609375 0.046875l0 -2.859375q-0.9375 0 -1.65625 0.0625l0 -1.0q0.625 0.0625 1.1875 0.0625l1.78125 0zm8.109375 -0.53125q-0.046875 0.84375 -0.046875 1.671875l0 3.484375q0 0.984375 0.046875 1.71875l-0.984375 0l0 -6.03125l-3.953125 0l0 6.078125l-0.984375 0q0.046875 -0.875 0.046875 -1.96875l0 -2.859375q0 -1.15625 -0.046875 -2.09375l5.921875 0z" fill-rule="nonzero"/><path fill="#000000" d="m328.90982 219.62607l1.984375 0l0 0.953125l-1.984375 0l0 4.984375l2.796875 0l0 0.96875l-11.328125 0l0 -0.96875l2.796875 0l0 -4.984375l-1.984375 0l0 -0.953125l1.984375 0l0 -1.78125l0.953125 0q0.40625 0.046875 0.0625 0.296875l0 1.484375l3.703125 0l0 -1.78125l0.96875 0q0.40625 0.046875 0.046875 0.296875l0 1.484375zm-8.234375 8.6875q2.03125 -0.625 3.609375 -1.640625l0.765625 0.921875q0.203125 0.25 -0.3125 0.15625q-1.625 0.8125 -3.59375 1.578125l-0.46875 -1.015625zm7.21875 -6.71875l0 -1.015625l-3.703125 0l0 1.015625l3.703125 0zm0 1.9375l0 -0.96875l-3.703125 0l0 0.96875l3.703125 0zm0 2.03125l0 -1.0625l-3.703125 0l0 1.0625l3.703125 0zm-0.15625 1.171875q1.265625 0.75 3.765625 1.265625l-0.46875 1.0625q-2.53125 -0.546875 -4.0 -1.46875l0.703125 -0.859375zm5.328125 -3.3125q1.9375 -2.125 2.390625 -5.6875l1.21875 0.359375q0.203125 0.203125 -0.15625 0.25q-0.140625 1.125 -0.703125 2.75q0.609375 0.15625 0.15625 0.40625l0 7.765625l-1.015625 0l0 -6.390625q-0.359375 0.703125 -1.015625 1.421875l-0.875 -0.875zm11.9375 3.40625l-0.09375 1.015625q-0.109375 1.078125 -1.125 1.078125l-5.28125 0q-0.90625 0 -0.90625 -0.875l0 -4.921875l-1.015625 0.296875l-0.3125 -1.015625l1.328125 -0.34375l0 -2.84375l0.953125 0q0.40625 0.046875 0.0625 0.296875l0 2.234375l1.625 -0.453125l0 -3.40625l0.953125 0q0.40625 0.046875 0.0625 0.3125l0 2.78125l1.828125 -0.609375l0.140625 -0.25l0.96875 0.515625q0.40625 0.140625 0 0.34375l-0.15625 4.125q-0.046875 0.953125 -1.015625 0.953125l-1.015625 0l-0.203125 -0.953125l0.765625 0q0.453125 0 0.453125 -0.40625l0.109375 -3.25l-1.875 0.546875l0 4.53125l-1.015625 0l0 -4.21875l-1.625 0.5l0 4.734375q0 0.40625 0.34375 0.40625l4.375 0q0.40625 0 0.453125 -0.359375l0.109375 -1.015625l1.109375 0.25z" fill-rule="nonzero"/><path fill="#000000" d="m354.36295 227.78232q-0.109375 -0.625 -0.53125 -1.25q1.046875 0 1.59375 -0.09375q0.546875 -0.109375 0.59375 -0.625l0.109375 -2.8125l-4.421875 0l0 4.53125q0 0.9375 0.046875 1.921875l-1.1875 0q0.09375 -0.9375 0.09375 -1.921875l0 -4.53125l-1.140625 0q-1.71875 0 -2.765625 0.046875l0 -0.984375q1.09375 0.046875 2.25 0.046875l8.328125 0q-0.15625 2.1875 -0.21875 3.546875q-0.046875 1.34375 -0.78125 1.6875q-0.71875 0.34375 -1.96875 0.4375zm-3.59375 -7.796875q0 0.9375 0.046875 1.609375l-1.140625 0q0.046875 -0.78125 0.046875 -1.609375l-1.765625 0q-0.734375 0 -1.609375 0.09375l0 -1.03125q0.875 0.046875 1.609375 0.046875l1.765625 0q0 -0.984375 -0.046875 -1.671875l1.140625 0q-0.046875 0.6875 -0.046875 1.671875l2.75 0q0 -1.046875 -0.046875 -1.671875l1.203125 0q-0.0625 0.625 -0.0625 1.671875l1.671875 0q0.984375 0 1.828125 -0.046875l0 0.984375q-0.84375 -0.046875 -1.828125 -0.046875l-1.671875 0q0 0.828125 0.0625 1.609375l-1.203125 0q0.046875 -0.828125 0.046875 -1.609375l-2.75 0z" fill-rule="nonzero"/><path fill="#000000" d="m369.05045 226.06357q1.015625 0.96875 1.828125 2.390625l-1.21875 0.609375q-0.71875 -1.515625 -1.53125 -2.484375l0.921875 -0.515625zm-2.34375 0.0625q0.875 1.421875 1.015625 2.734375l-1.265625 0.3125q-0.203125 -1.375 -0.765625 -2.703125l1.015625 -0.34375zm-6.703125 2.484375q0.921875 -0.921875 1.484375 -2.4375l1.0625 0.40625q-0.359375 1.515625 -1.421875 2.6875l-1.125 -0.65625zm4.421875 -2.1875q0.40625 0.96875 0.3125 2.703125l-1.21875 0.046875q0.046875 -1.734375 -0.15625 -2.703125l1.0625 -0.046875zm3.96875 -1.921875l0 -1.984375l-5.6875 0l0 1.984375l5.6875 0zm-2.703125 -6.703125q0.40625 0.046875 0.0625 0.296875l0 1.125l4.265625 0l0 0.953125l-4.265625 0l0 1.375l3.796875 0l0 4.21875l-1.15625 0l0 -0.3125l-5.6875 0l0 0.40625l-1.171875 0l0 -4.3125l3.046875 0l0 -3.75l1.109375 0zm10.46875 0.546875q-0.25 1.421875 -0.8125 2.796875l0.15625 0.046875q0.140625 0.15625 -0.109375 0.3125l0 7.625l-1.015625 0l0 -6.25q-0.25 0.546875 -1.109375 1.359375l-0.765625 -0.8125q2.125 -2.171875 2.59375 -5.625l1.21875 0.296875q0.203125 0.203125 -0.15625 0.25zm0.296875 0.96875q3.8125 -0.15625 6.15625 -0.90625l0.65625 1.0625q0.09375 0.25 -0.359375 0.09375q-1.0625 0.203125 -2.328125 0.359375l0 3.25l3.34375 0l0 0.96875l-3.34375 0l0 3.546875l2.984375 0l0 0.96875l-7.203125 0l0 -0.96875l3.203125 0l0 -3.546875l-3.65625 0l0 -0.96875l3.65625 0l0 -3.09375q-1.734375 0.203125 -2.90625 0.25l-0.203125 -1.015625zm9.34375 9.046875q1.171875 -0.96875 2.03125 -2.390625l0.875 0.5625q0.34375 0.25 -0.15625 0.296875q-0.8125 1.328125 -1.875 2.390625l-0.875 -0.859375zm9.859375 -3.25l-1.78125 0q-0.09375 2.6875 -2.53125 4.3125l-0.71875 -0.859375q2.234375 -1.375 2.234375 -3.65625l0 -6.609375l3.8125 0l0 10.15625q0 0.8125 -0.8125 0.8125l-1.0625 0l-0.109375 -1.109375l0.765625 0q0.203125 0 0.203125 -0.203125l0 -2.84375zm-4.828125 2.9375q-0.609375 -0.703125 -1.421875 -1.375l0.765625 -0.703125q0.90625 0.65625 1.46875 1.265625l-0.8125 0.8125zm4.828125 -5.84375l-1.78125 0l0 1.9375l1.78125 0l0 -1.9375zm0 -2.9375l-1.78125 0l0 1.984375l1.78125 0l0 -1.984375zm-5.484375 4.5625l-2.03125 0l0 1.078125l2.03125 0l0 -1.078125zm0 -1.765625l-2.03125 0l0 0.953125l2.03125 0l0 -0.953125zm0 -1.734375l-2.03125 0l0 0.921875l2.03125 0l0 -0.921875zm2.125 -0.8125l0 0.8125l-1.265625 0l0 4.578125l1.421875 0l0 0.8125l-6.796875 0l0 -0.8125l1.625 0l0 -4.578125l-1.328125 0l0 -0.8125l1.328125 0l0 -1.71875l0.8125 0q0.5 0.046875 0.046875 0.296875l0 1.421875l2.03125 0l0 -1.71875l0.8125 0q0.5 0.046875 0.046875 0.296875l0 1.421875l1.265625 0z" fill-rule="nonzero"/><path fill="#000000" d="m406.84732 217.2667q0.203125 0.84375 0.40625 1.5625l2.71875 0q-0.0625 0.625 -0.0625 1.40625q0 0.78125 0.0625 1.359375l-5.578125 0q-0.046875 0.78125 -0.09375 1.296875l6.140625 0q-0.0625 0.828125 -0.0625 1.765625l0 3.59375q0 0.78125 -0.34375 0.984375q-0.328125 0.21875 -1.109375 0.421875q-0.15625 -0.625 -0.46875 -1.140625q0.734375 0 0.890625 -0.078125q0.15625 -0.078125 0.15625 -0.546875l0 -1.765625l-1.046875 0q0 1.140625 0.046875 2.1875l-0.9375 0q0.0625 -1.046875 0.0625 -2.1875l-1.046875 0q0 1.609375 0.046875 2.234375l-0.9375 0q0.0625 -0.625 0.0625 -2.234375l-1.046875 0l0 3.4375l-0.984375 0q0.109375 -1.0 0.109375 -1.9375l0 -2.8125q-0.421875 1.15625 -1.0 2.140625q-0.359375 -0.671875 -0.671875 -1.046875q0.46875 -0.625 0.71875 -1.25q0.265625 -0.625 0.421875 -1.71875q0.15625 -1.09375 0.15625 -2.171875q0 -1.09375 -0.046875 -1.9375l2.703125 0q-0.109375 -0.5625 -0.359375 -1.25q0.671875 -0.15625 1.09375 -0.3125zm-5.109375 0.78125q-0.3125 0.3125 -0.90625 1.515625q-0.59375 1.203125 -1.0625 2.078125l1.453125 -0.046875q0.3125 -0.625 0.625 -1.40625q0.46875 0.359375 1.046875 0.734375q-0.46875 0.46875 -1.078125 1.4375q-0.59375 0.953125 -1.640625 2.359375q1.09375 -0.109375 2.09375 -0.265625l-0.109375 0.9375q-0.625 0.046875 -1.40625 0.15625q-0.78125 0.109375 -1.671875 0.46875q-0.09375 -0.578125 -0.3125 -1.09375q0.421875 -0.046875 0.890625 -0.71875q0.46875 -0.6875 1.203125 -1.828125q-0.46875 0 -0.9375 0.046875q-0.46875 0.046875 -1.046875 0.265625q-0.15625 -0.625 -0.359375 -1.09375q0.515625 -0.109375 1.078125 -1.4375q0.578125 -1.328125 0.890625 -2.625q0.625 0.359375 1.25 0.515625zm7.296875 2.8125l0 -1.296875l-4.640625 0l0 1.296875l4.640625 0zm-6.71875 5.671875q-0.046875 0.578125 0 1.046875q-1.09375 0.265625 -1.859375 0.53125q-0.75 0.25 -1.6875 0.71875l-0.40625 -1.25q0.625 -0.046875 1.734375 -0.328125q1.125 -0.296875 2.21875 -0.71875zm5.3125 -1.140625l0 -1.765625l-1.046875 0l0 1.765625l1.046875 0zm1.875 0l0 -1.765625l-1.046875 0l0 1.765625l1.046875 0zm-3.75 0l0 -1.765625l-1.046875 0l0 1.765625l1.046875 0z" fill-rule="nonzero"/><path fill="#000000" d="m413.81607 226.53232q0.859375 -1.53125 1.265625 -2.796875l-3.25 0l0 -0.96875l11.734375 0l0 0.96875l-7.3125 0q-0.203125 0.609375 -0.40625 1.0625l6.03125 0q-0.40625 3.046875 -1.109375 4.015625q-0.40625 0.515625 -1.53125 0.40625l-1.359375 -0.15625l-0.0625 -1.109375l1.578125 0.140625q0.515625 0.0625 0.765625 -0.5q0.09375 -0.25 0.453125 -1.828125l-5.078125 0q-0.203125 0.5 -0.5625 1.109375l-1.15625 -0.34375zm1.15625 -7.515625l0 1.671875l5.4375 0l0 -1.671875l-5.4375 0zm5.4375 2.984375l0 -0.34375l-5.4375 0l0 0.453125l-1.015625 0l0 -4.0625l7.46875 0l0 3.953125l-1.015625 0zm15.890625 7.421875q-4.0 -0.359375 -6.296875 -1.625q-1.265625 1.0625 -4.515625 1.671875l-0.359375 -1.0625q3.0 -0.515625 3.96875 -1.265625q-0.65625 -0.5625 -1.328125 -1.421875l0.921875 -0.359375q0.40625 0.5 1.109375 1.0625q0.40625 -0.65625 0.46875 -1.46875l-2.640625 0l0 0.40625l-1.015625 0l0 -5.1875l3.703125 0l0 -1.0625l-5.125 0l0 -0.96875l10.96875 0l0 0.96875l-4.828125 0l0 1.0625l3.75 0l0 5.390625l-1.015625 0l0 -0.609375l-2.78125 0q-0.0625 1.015625 -0.609375 1.984375q1.71875 1.015625 5.78125 1.375l-0.15625 1.109375zm-8.671875 -8.4375l0 1.171875l2.6875 0l0 -1.171875l-2.6875 0zm3.703125 0l0 1.171875l2.734375 0l0 -1.171875l-2.734375 0zm0 3.15625l2.734375 0l0 -1.171875l-2.734375 0l0 1.171875zm-1.015625 0l0 -1.171875l-2.6875 0l0 1.171875l2.6875 0zm13.90625 -6.546875q0.515625 0.09375 0.0625 0.40625l0 0.8125l5.078125 0l0 0.953125l-11.328125 0l0 -0.953125l5.078125 0l0 -1.21875l1.109375 0zm1.9375 3.65625l-4.875 0l0 1.0625l4.875 0l0 -1.0625zm-5.734375 1.875l0 -2.6875l6.59375 0l0 2.6875l-6.59375 0zm8.328125 5.28125q0 0.8125 -0.8125 0.8125l-0.96875 0l-0.203125 -0.96875l0.765625 0q0.203125 0 0.203125 -0.203125l0 -3.25l-8.03125 0l0 4.578125l-1.015625 0l0 -5.546875l10.0625 0l0 4.578125zm-6.765625 -0.40625l0 0.5625l-0.859375 0l0 -3.15625l5.1875 0l0 2.59375l-4.328125 0zm0 -0.8125l3.453125 0l0 -0.96875l-3.453125 0l0 0.96875z" fill-rule="nonzero"/><path fill="#000000" fill-opacity="0.0" d="m149.26247 142.79134l219.9055 0l0 33.76378l-219.9055 0z" fill-rule="evenodd"/><path fill="#000000" d="m165.49684 154.34134q-0.265625 0.5625 -0.421875 1.171875q-0.140625 0.59375 -0.40625 1.640625l4.15625 0q0.53125 0 1.5625 -0.0625l0 0.984375q-1.03125 -0.046875 -1.5625 -0.046875l-4.359375 0q-0.3125 0.78125 -0.6875 1.5625l5.515625 0q-0.984375 2.390625 -2.75 4.015625q1.40625 0.984375 4.109375 1.296875q-0.359375 0.421875 -0.625 1.046875q-1.046875 -0.21875 -2.140625 -0.609375q-1.09375 -0.390625 -2.125 -1.109375q-0.828125 0.515625 -2.03125 1.0q-1.203125 0.5 -2.453125 0.8125q-0.09375 -0.515625 -0.515625 -0.984375q1.140625 -0.15625 2.28125 -0.546875q1.15625 -0.390625 2.03125 -0.96875q-0.875 -0.875 -1.96875 -2.546875q-0.578125 0.9375 -1.46875 1.828125q-0.875 0.875 -1.921875 1.609375q-0.203125 -0.359375 -0.828125 -0.78125q0.78125 -0.421875 1.53125 -1.09375q0.765625 -0.671875 1.59375 -1.796875q0.828125 -1.125 1.40625 -2.734375q-1.359375 0 -2.09375 0.0625q-0.71875 0.046875 -1.078125 0.203125q-0.15625 -0.46875 -0.421875 -0.984375q0.515625 -0.109375 0.75 -0.78125q0.234375 -0.6875 0.5 -2.09375q0.421875 0.21875 1.140625 0.421875q-0.25 0.515625 -0.46875 1.0625q-0.203125 0.546875 -0.46875 1.234375l2.40625 0q0.40625 -1.671875 0.625 -3.1875q0.5625 0.3125 1.1875 0.375zm-1.65625 6.078125q0.71875 1.3125 2.015625 2.609375q1.15625 -0.9375 2.03125 -2.609375l-4.046875 0zm3.578125 -6.390625q0.890625 0.984375 1.78125 2.03125q-0.375 0.203125 -0.890625 0.671875q-0.828125 -1.203125 -1.609375 -2.03125q0.359375 -0.265625 0.71875 -0.671875zm13.859375 2.546875q-0.21875 0.578125 -0.296875 1.828125q-0.078125 1.234375 -0.328125 2.640625l1.03125 0q-0.046875 0.53125 -0.046875 1.40625l0 1.671875q0 0.78125 0.28125 0.828125q0.296875 0.0625 0.65625 0.03125q0.359375 -0.03125 0.515625 -0.375q0.15625 -0.328125 0.21875 -1.21875q0.515625 0.3125 1.140625 0.421875q-0.265625 1.09375 -0.53125 1.484375q-0.25 0.390625 -1.078125 0.5l-1.046875 0q-1.140625 0 -1.140625 -1.0l0 -3.640625q-0.46875 1.671875 -1.359375 2.796875q-0.890625 1.109375 -2.65625 2.046875q-0.25 -0.421875 -0.875 -0.734375q1.65625 -0.671875 2.4375 -1.46875q0.78125 -0.8125 1.25 -2.0625q0.46875 -1.25 0.546875 -2.59375q0.078125 -1.359375 0.03125 -2.71875q0.671875 0.109375 1.25 0.15625zm-5.828125 -1.609375q0.5625 0 1.40625 -0.0625l0 1.0q-0.84375 -0.0625 -1.78125 -0.0625l0 2.859375q0.734375 0 1.5625 -0.046875l0 0.984375q-0.828125 -0.046875 -1.5625 -0.046875l0 3.171875q0.890625 -0.203125 1.828125 -0.515625q-0.046875 0.578125 -0.046875 0.984375q-1.71875 0.421875 -2.765625 0.796875q-1.046875 0.359375 -1.5625 0.609375q-0.15625 -0.71875 -0.421875 -1.25q0.84375 -0.09375 2.03125 -0.359375l0 -3.4375q-0.828125 0 -1.609375 0.046875l0 -0.984375q0.78125 0.046875 1.609375 0.046875l0 -2.859375q-0.9375 0 -1.65625 0.0625l0 -1.0q0.625 0.0625 1.1875 0.0625l1.78125 0zm8.109375 -0.53125q-0.046875 0.84375 -0.046875 1.671875l0 3.484375q0 0.984375 0.046875 1.71875l-0.984375 0l0 -6.03125l-3.953125 0l0 6.078125l-0.984375 0q0.046875 -0.875 0.046875 -1.96875l0 -2.859375q0 -1.15625 -0.046875 -2.09375l5.921875 0z" fill-rule="nonzero"/><path fill="#000000" d="m189.59045 164.59134l0 -9.546875l1.265625 0l0 8.421875l4.703125 0l0 1.125l-5.96875 0zm12.053101 -2.21875l1.203125 0.140625q-0.28125 1.0625 -1.0625 1.65625q-0.765625 0.578125 -1.96875 0.578125q-1.515625 0 -2.40625 -0.9375q-0.890625 -0.9375 -0.890625 -2.609375q0 -1.75 0.890625 -2.703125q0.90625 -0.96875 2.34375 -0.96875q1.390625 0 2.265625 0.9375q0.875 0.9375 0.875 2.65625q0 0.109375 0 0.3125l-5.15625 0q0.0625 1.140625 0.640625 1.75q0.578125 0.59375 1.4375 0.59375q0.65625 0 1.109375 -0.328125q0.453125 -0.34375 0.71875 -1.078125zm-3.84375 -1.90625l3.859375 0q-0.078125 -0.859375 -0.4375 -1.296875q-0.5625 -0.6875 -1.453125 -0.6875q-0.8125 0 -1.359375 0.546875q-0.546875 0.53125 -0.609375 1.4375zm11.037476 3.265625q-0.65625 0.5625 -1.265625 0.796875q-0.59375 0.21875 -1.28125 0.21875q-1.140625 0 -1.75 -0.546875q-0.609375 -0.5625 -0.609375 -1.4375q0 -0.5 0.21875 -0.921875q0.234375 -0.421875 0.609375 -0.671875q0.375 -0.25 0.84375 -0.390625q0.34375 -0.078125 1.046875 -0.171875q1.421875 -0.171875 2.09375 -0.40625q0 -0.234375 0 -0.296875q0 -0.71875 -0.328125 -1.015625q-0.453125 -0.390625 -1.34375 -0.390625q-0.8125 0 -1.21875 0.296875q-0.390625 0.28125 -0.578125 1.015625l-1.140625 -0.15625q0.15625 -0.734375 0.515625 -1.1875q0.359375 -0.453125 1.03125 -0.6875q0.671875 -0.25 1.5625 -0.25q0.890625 0 1.4375 0.203125q0.5625 0.203125 0.8125 0.53125q0.265625 0.3125 0.375 0.796875q0.046875 0.296875 0.046875 1.078125l0 1.5625q0 1.625 0.078125 2.0625q0.078125 0.4375 0.296875 0.828125l-1.21875 0q-0.1875 -0.359375 -0.234375 -0.859375zm-0.09375 -2.609375q-0.640625 0.265625 -1.921875 0.4375q-0.71875 0.109375 -1.015625 0.25q-0.296875 0.125 -0.46875 0.375q-0.15625 0.25 -0.15625 0.546875q0 0.46875 0.34375 0.78125q0.359375 0.3125 1.046875 0.3125q0.671875 0 1.203125 -0.296875q0.53125 -0.296875 0.78125 -0.8125q0.1875 -0.390625 0.1875 -1.171875l0 -0.421875zm7.4749756 3.46875l0 -0.875q-0.65625 1.03125 -1.9375 1.03125q-0.8125 0 -1.515625 -0.453125q-0.6875 -0.453125 -1.078125 -1.265625q-0.375 -0.828125 -0.375 -1.890625q0 -1.03125 0.34375 -1.875q0.34375 -0.84375 1.03125 -1.28125q0.703125 -0.453125 1.546875 -0.453125q0.625 0 1.109375 0.265625q0.5 0.25 0.796875 0.671875l0 -3.421875l1.171875 0l0 9.546875l-1.09375 0zm-3.703125 -3.453125q0 1.328125 0.5625 1.984375q0.5625 0.65625 1.328125 0.65625q0.765625 0 1.296875 -0.625q0.53125 -0.625 0.53125 -1.90625q0 -1.421875 -0.546875 -2.078125q-0.546875 -0.671875 -1.34375 -0.671875q-0.78125 0 -1.3125 0.640625q-0.515625 0.625 -0.515625 2.0zm11.365601 1.234375l1.203125 0.140625q-0.28125 1.0625 -1.0625 1.65625q-0.765625 0.578125 -1.96875 0.578125q-1.515625 0 -2.40625 -0.9375q-0.890625 -0.9375 -0.890625 -2.609375q0 -1.75 0.890625 -2.703125q0.90625 -0.96875 2.34375 -0.96875q1.390625 0 2.265625 0.9375q0.875 0.9375 0.875 2.65625q0 0.109375 0 0.3125l-5.15625 0q0.0625 1.140625 0.640625 1.75q0.578125 0.59375 1.4375 0.59375q0.65625 0 1.109375 -0.328125q0.453125 -0.34375 0.71875 -1.078125zm-3.84375 -1.90625l3.859375 0q-0.078125 -0.859375 -0.4375 -1.296875q-0.5625 -0.6875 -1.453125 -0.6875q-0.8125 0 -1.359375 0.546875q-0.546875 0.53125 -0.609375 1.4375zm6.5062256 4.125l0 -6.90625l1.0625 0l0 1.046875q0.40625 -0.734375 0.734375 -0.96875q0.34375 -0.234375 0.765625 -0.234375q0.59375 0 1.203125 0.375l-0.40625 1.078125q-0.4375 -0.25 -0.859375 -0.25q-0.390625 0 -0.703125 0.234375q-0.296875 0.234375 -0.421875 0.640625q-0.203125 0.625 -0.203125 1.359375l0 3.625l-1.171875 0z" fill-rule="nonzero"/><path fill="#000000" d="m244.99731 162.76321l1.125 0.453125l-0.109375 0.921875q-0.15625 1.375 -0.8125 1.375q-1.421875 0 -2.84375 -2.25q-1.578125 1.53125 -3.8125 2.546875l-0.5 -1.0625q2.28125 -0.875 3.859375 -2.34375q-0.8125 -1.71875 -0.921875 -5.03125l-6.03125 0l0 -0.953125l5.9375 0l0 -2.234375l0.96875 0q0.40625 0.046875 0.046875 0.296875l0 1.9375l1.875 0q-0.5625 -0.5625 -1.265625 -1.171875l0.765625 -0.765625q0.90625 0.609375 1.359375 1.21875l-0.703125 0.71875l1.671875 0l0 0.953125l-3.609375 0q0.0625 2.34375 0.609375 4.0625q0.875 -1.5625 1.21875 -3.1875l0.96875 0.5q0.40625 0.203125 -0.15625 0.40625q-0.5 1.875 -1.5625 3.296875q0.546875 1.171875 1.359375 1.625q0.359375 0.203125 0.40625 -0.203125l0.15625 -1.109375zm-9.84375 1.671875q-0.203125 0.265625 -0.359375 0.109375l-0.25 -1.28125q2.734375 -0.140625 5.734375 -0.8125l0.15625 0.875q-2.703125 0.75 -5.28125 1.109375zm1.515625 -5.234375l0 1.734375l2.1875 0l0 -1.734375l-2.1875 0zm0 3.046875l-1.015625 0l0 -3.859375l4.21875 0l0 3.359375l-3.203125 0l0 0.5zm20.515625 -2.578125l0 5.890625l-1.015625 0l0 -0.515625l-4.5625 0l0 0.671875l-1.015625 0l0 -4.625q-1.328125 0.703125 -2.84375 1.109375l-0.359375 -0.90625q1.421875 -0.359375 3.203125 -1.28125l0 -0.34375l0.703125 0q1.0625 -0.609375 1.828125 -1.21875l-5.328125 0l0 -0.96875l4.46875 0l0 -1.21875l-3.15625 0l0 -0.96875l3.15625 0l0 -1.21875l0.96875 0q0.40625 0.046875 0.046875 0.3125l0 0.90625l2.4375 0l0 0.859375q0.609375 -0.65625 1.21875 -1.46875l0.703125 0.453125q0.359375 0.265625 -0.09375 0.3125q-0.96875 1.171875 -1.9375 2.03125l3.515625 0l0 0.96875l-4.578125 0q-1.015625 0.859375 -1.625 1.21875l4.265625 0zm-2.9375 -2.1875q0.609375 -0.453125 1.359375 -1.21875l-2.328125 0l0 1.21875l0.96875 0zm-2.640625 4.359375l4.5625 0l0 -1.359375l-4.5625 0l0 1.359375zm0 2.390625l4.5625 0l0 -1.578125l-4.5625 0l0 1.578125zm8.9375 -3.09375q2.984375 -1.671875 3.859375 -4.3125l-3.40625 0l0 -0.96875l3.65625 0q0.15625 -0.609375 0.25 -1.828125l1.328125 0.25q0.203125 0.203125 -0.15625 0.25l-0.25 1.328125l6.09375 0l0 0.96875l-6.296875 0q-0.203125 0.703125 -0.46875 1.15625l5.03125 0l0 6.765625q0 0.8125 -0.8125 0.8125l-1.171875 0l-0.25 -0.96875l1.015625 0q0.203125 0 0.203125 -0.203125l0 -1.375l-4.421875 0l0 2.703125l-1.015625 0l0 -5.59375q-1.21875 1.265625 -2.578125 2.078125l-0.609375 -1.0625zm4.203125 -0.203125l0 1.109375l4.421875 0l0 -1.109375l-4.421875 0zm4.421875 -0.96875l0 -1.015625l-4.421875 0l0 1.015625l4.421875 0zm15.6875 5.84375q-4.0 -0.359375 -6.296875 -1.625q-1.265625 1.0625 -4.515625 1.671875l-0.359375 -1.0625q3.0 -0.515625 3.96875 -1.265625q-0.65625 -0.5625 -1.328125 -1.421875l0.921875 -0.359375q0.40625 0.5 1.109375 1.0625q0.40625 -0.65625 0.46875 -1.46875l-2.640625 0l0 0.40625l-1.015625 0l0 -5.1875l3.703125 0l0 -1.0625l-5.125 0l0 -0.96875l10.96875 0l0 0.96875l-4.828125 0l0 1.0625l3.75 0l0 5.390625l-1.015625 0l0 -0.609375l-2.78125 0q-0.0625 1.015625 -0.609375 1.984375q1.71875 1.015625 5.78125 1.375l-0.15625 1.109375zm-8.671875 -8.4375l0 1.171875l2.6875 0l0 -1.171875l-2.6875 0zm3.703125 0l0 1.171875l2.734375 0l0 -1.171875l-2.734375 0zm0 3.15625l2.734375 0l0 -1.171875l-2.734375 0l0 1.171875zm-1.015625 0l0 -1.171875l-2.6875 0l0 1.171875l2.6875 0zm13.90625 -6.546875q0.515625 0.09375 0.0625 0.40625l0 0.8125l5.078125 0l0 0.953125l-11.328125 0l0 -0.953125l5.078125 0l0 -1.21875l1.109375 0zm1.9375 3.65625l-4.875 0l0 1.0625l4.875 0l0 -1.0625zm-5.734375 1.875l0 -2.6875l6.59375 0l0 2.6875l-6.59375 0zm8.328125 5.28125q0 0.8125 -0.8125 0.8125l-0.96875 0l-0.203125 -0.96875l0.765625 0q0.203125 0 0.203125 -0.203125l0 -3.25l-8.03125 0l0 4.578125l-1.015625 0l0 -5.546875l10.0625 0l0 4.578125zm-6.765625 -0.40625l0 0.5625l-0.859375 0l0 -3.15625l5.1875 0l0 2.59375l-4.328125 0zm0 -0.8125l3.453125 0l0 -0.96875l-3.453125 0l0 0.96875zm12.5 -8.84375q-0.25 1.421875 -0.8125 2.796875l0.15625 0.046875q0.140625 0.15625 -0.109375 0.3125l0 7.625l-1.015625 0l0 -6.25q-0.25 0.546875 -1.109375 1.359375l-0.765625 -0.8125q2.125 -2.171875 2.59375 -5.625l1.21875 0.296875q0.203125 0.203125 -0.15625 0.25zm0.296875 0.96875q3.8125 -0.15625 6.15625 -0.90625l0.65625 1.0625q0.09375 0.25 -0.359375 0.09375q-1.0625 0.203125 -2.328125 0.359375l0 3.25l3.34375 0l0 0.96875l-3.34375 0l0 3.546875l2.984375 0l0 0.96875l-7.203125 0l0 -0.96875l3.203125 0l0 -3.546875l-3.65625 0l0 -0.96875l3.65625 0l0 -3.09375q-1.734375 0.203125 -2.90625 0.25l-0.203125 -1.015625zm9.34375 9.046875q1.171875 -0.96875 2.03125 -2.390625l0.875 0.5625q0.34375 0.25 -0.15625 0.296875q-0.8125 1.328125 -1.875 2.390625l-0.875 -0.859375zm9.859375 -3.25l-1.78125 0q-0.09375 2.6875 -2.53125 4.3125l-0.71875 -0.859375q2.234375 -1.375 2.234375 -3.65625l0 -6.609375l3.8125 0l0 10.15625q0 0.8125 -0.8125 0.8125l-1.0625 0l-0.109375 -1.109375l0.765625 0q0.203125 0 0.203125 -0.203125l0 -2.84375zm-4.828125 2.9375q-0.609375 -0.703125 -1.421875 -1.375l0.765625 -0.703125q0.90625 0.65625 1.46875 1.265625l-0.8125 0.8125zm4.828125 -5.84375l-1.78125 0l0 1.9375l1.78125 0l0 -1.9375zm0 -2.9375l-1.78125 0l0 1.984375l1.78125 0l0 -1.984375zm-5.484375 4.5625l-2.03125 0l0 1.078125l2.03125 0l0 -1.078125zm0 -1.765625l-2.03125 0l0 0.953125l2.03125 0l0 -0.953125zm0 -1.734375l-2.03125 0l0 0.921875l2.03125 0l0 -0.921875zm2.125 -0.8125l0 0.8125l-1.265625 0l0 4.578125l1.421875 0l0 0.8125l-6.796875 0l0 -0.8125l1.625 0l0 -4.578125l-1.328125 0l0 -0.8125l1.328125 0l0 -1.71875l0.8125 0q0.5 0.046875 0.046875 0.296875l0 1.421875l2.03125 0l0 -1.71875l0.8125 0q0.5 0.046875 0.046875 0.296875l0 1.421875l1.265625 0z" fill-rule="nonzero"/><path fill="#000000" d="m333.7317 153.65384q0.203125 0.84375 0.40625 1.5625l2.71875 0q-0.0625 0.625 -0.0625 1.40625q0 0.78125 0.0625 1.359375l-5.578125 0q-0.046875 0.78125 -0.09375 1.296875l6.140625 0q-0.0625 0.828125 -0.0625 1.765625l0 3.59375q0 0.78125 -0.34375 0.984375q-0.328125 0.21875 -1.109375 0.421875q-0.15625 -0.625 -0.46875 -1.140625q0.734375 0 0.890625 -0.078125q0.15625 -0.078125 0.15625 -0.546875l0 -1.765625l-1.046875 0q0 1.140625 0.046875 2.1875l-0.9375 0q0.0625 -1.046875 0.0625 -2.1875l-1.046875 0q0 1.609375 0.046875 2.234375l-0.9375 0q0.0625 -0.625 0.0625 -2.234375l-1.046875 0l0 3.4375l-0.984375 0q0.109375 -1.0 0.109375 -1.9375l0 -2.8125q-0.421875 1.15625 -1.0 2.140625q-0.359375 -0.671875 -0.671875 -1.046875q0.46875 -0.625 0.71875 -1.25q0.265625 -0.625 0.421875 -1.71875q0.15625 -1.09375 0.15625 -2.171875q0 -1.09375 -0.046875 -1.9375l2.703125 0q-0.109375 -0.5625 -0.359375 -1.25q0.671875 -0.15625 1.09375 -0.3125zm-5.109375 0.78125q-0.3125 0.3125 -0.90625 1.515625q-0.59375 1.203125 -1.0625 2.078125l1.453125 -0.046875q0.3125 -0.625 0.625 -1.40625q0.46875 0.359375 1.046875 0.734375q-0.46875 0.46875 -1.078125 1.4375q-0.59375 0.953125 -1.640625 2.359375q1.09375 -0.109375 2.09375 -0.265625l-0.109375 0.9375q-0.625 0.046875 -1.40625 0.15625q-0.78125 0.109375 -1.671875 0.46875q-0.09375 -0.578125 -0.3125 -1.09375q0.421875 -0.046875 0.890625 -0.71875q0.46875 -0.6875 1.203125 -1.828125q-0.46875 0 -0.9375 0.046875q-0.46875 0.046875 -1.046875 0.265625q-0.15625 -0.625 -0.359375 -1.09375q0.515625 -0.109375 1.078125 -1.4375q0.578125 -1.328125 0.890625 -2.625q0.625 0.359375 1.25 0.515625zm7.296875 2.8125l0 -1.296875l-4.640625 0l0 1.296875l4.640625 0zm-6.71875 5.671875q-0.046875 0.578125 0 1.046875q-1.09375 0.265625 -1.859375 0.53125q-0.75 0.25 -1.6875 0.71875l-0.40625 -1.25q0.625 -0.046875 1.734375 -0.328125q1.125 -0.296875 2.21875 -0.71875zm5.3125 -1.140625l0 -1.765625l-1.046875 0l0 1.765625l1.046875 0zm1.875 0l0 -1.765625l-1.046875 0l0 1.765625l1.046875 0zm-3.75 0l0 -1.765625l-1.046875 0l0 1.765625l1.046875 0z" fill-rule="nonzero"/><path fill="#000000" d="m340.70044 162.91946q0.859375 -1.53125 1.265625 -2.796875l-3.25 0l0 -0.96875l11.734375 0l0 0.96875l-7.3125 0q-0.203125 0.609375 -0.40625 1.0625l6.03125 0q-0.40625 3.046875 -1.109375 4.015625q-0.40625 0.515625 -1.53125 0.40625l-1.359375 -0.15625l-0.0625 -1.109375l1.578125 0.140625q0.515625 0.0625 0.765625 -0.5q0.09375 -0.25 0.453125 -1.828125l-5.078125 0q-0.203125 0.5 -0.5625 1.109375l-1.15625 -0.34375zm1.15625 -7.515625l0 1.671875l5.4375 0l0 -1.671875l-5.4375 0zm5.4375 2.984375l0 -0.34375l-5.4375 0l0 0.453125l-1.015625 0l0 -4.0625l7.46875 0l0 3.953125l-1.015625 0z" fill-rule="nonzero"/></g></svg>