<svg version="1.1" viewBox="0.0 0.0 757.0 118.0" fill="none" stroke="none" stroke-linecap="square" stroke-miterlimit="10" xmlns:xlink="http://www.w3.org/1999/xlink" xmlns="http://www.w3.org/2000/svg"><clipPath id="p.0"><path d="m0 0l757.0 0l0 118.0l-757.0 0l0 -118.0z" clip-rule="nonzero"/></clipPath><g clip-path="url(#p.0)"><path fill="#000000" fill-opacity="0.0" d="m0 0l757.0 0l0 118.0l-757.0 0z" fill-rule="evenodd"/><path fill="#529ed5" d="m125.62467 14.28084l28.787407 0l0 36.0l-28.787407 0z" fill-rule="evenodd"/><path fill="#e79e72" d="m154.41208 14.267716l87.62204 0l0 36.0l-87.62204 0z" fill-rule="evenodd"/><path fill="#529ed5" d="m262.82678 14.28084l28.787384 0l0 36.0l-28.787384 0z" fill-rule="evenodd"/><path fill="#e79e72" d="m291.61417 14.28084l132.81891 0l0 36.0l-132.81891 0z" fill-rule="evenodd"/><path fill="#529ed5" d="m443.22833 14.28084l28.787415 0l0 36.0l-28.787415 0z" fill-rule="evenodd"/><path fill="#529ed5" d="m490.81104 14.28084l28.787415 0l0 36.0l-28.787415 0z" fill-rule="evenodd"/><path fill="#e79e72" d="m519.59845 14.28084l132.81885 0l0 36.0l-132.81885 0z" fill-rule="evenodd"/><path fill="#000000" fill-opacity="0.0" d="m125.22572 64.76903l530.80316 -0.06298828" fill-rule="evenodd"/><path stroke="#000000" stroke-width="2.0" stroke-linejoin="round" stroke-linecap="butt" d="m125.22572 64.76903l518.80316 -0.061569214" fill-rule="evenodd"/><path fill="#000000" stroke="#000000" stroke-width="2.0" stroke-linecap="butt" d="m644.02924 68.010925l9.075806 -3.3045425l-9.076538 -3.3023872z" fill-rule="evenodd"/><path fill="#000000" fill-opacity="0.0" d="m149.21523 79.25722c0 -7.244095 -2.2992096 -10.866142 -4.5984344 -14.48819c-2.2992096 -3.6220474 -4.598419 -7.244095 -4.598419 -14.48819" fill-rule="evenodd"/><path stroke="#529ed5" stroke-width="2.0" stroke-linejoin="round" stroke-linecap="butt" d="m149.21523 79.25722c0 -7.244095 -2.2992096 -10.866142 -4.5984344 -14.48819c-0.5747986 -0.90550995 -1.1495972 -1.8110237 -1.6884766 -2.7731285l-0.035491943 -0.06441116" fill-rule="evenodd"/><path fill="#529ed5" stroke="#529ed5" stroke-width="2.0" stroke-linecap="butt" d="m146.10011 61.140182l-5.381378 -8.020657l-1.0332031 9.603264z" fill-rule="evenodd"/><path fill="#000000" fill-opacity="0.0" d="m120.62467 72.267715l61.984245 0l0 36.0l-61.984245 0z" fill-rule="evenodd"/><path fill="#000000" d="m137.62466 84.502716q-0.4375 0.6875 -0.75 1.5625l2.0625 0q0 -1.25 -0.0625 -2.375l1.4375 0q-0.125 0.875 -0.125 2.375q2.1875 -0.0625 3.125 -0.0625l0 1.0625q-1.0625 -0.0625 -3.125 -0.0625l0 2.1875l2.125 0q0.9375 0 1.875 -0.0625l0 1.125q-0.9375 -0.0625 -2.875 -0.0625l0 3.4375q0 0.625 0.6875 0.625l0.75 0q0.4375 -0.25 0.5 -1.4375q0.625 0.375 1.3125 0.5q-0.375 2.125 -1.3125 2.125l-1.6875 0q-1.4375 0 -1.4375 -1.3125l0 -3.9375l-1.25 0q0 1.875 -0.6875 3.1875q-0.6875 1.3125 -1.875 2.4375q-0.4375 -0.4375 -1.25 -0.6875q1.5625 -1.125 2.09375 -2.21875q0.53125 -1.09375 0.53125 -2.71875q-1.875 0 -2.8125 0.0625l0 -1.1875q1.0 0.125 1.75 0.125l2.3125 0l0 -2.1875l-2.375 0q-0.3125 0.75 -0.5 1.4375q-0.6875 -0.25 -1.25 -0.4375q0.9375 -1.625 1.375 -3.875q0.625 0.1875 1.4375 0.375zm-3.8125 4.9375q-0.0625 1.3125 -0.0625 2.375l0 3.375q1.625 1.3125 5.1875 1.4375q3.5625 0.125 6.0 -0.3125q-0.3125 0.3125 -0.625 1.4375q-3.875 0.0625 -5.59375 -0.0625q-1.71875 -0.125 -2.90625 -0.46875q-1.1875 -0.34375 -1.875 -0.78125q-0.6875 -0.4375 -1.1875 0.09375q-0.5 0.53125 -1.125 1.34375q-0.4375 -0.5 -1.125 -0.8125q0.6875 -0.75 2.0625 -1.75l0 -4.875q-0.9375 0 -2.0 0.0625l0 -1.125q1.1875 0.0625 3.25 0.0625zm-0.9375 -4.9375q0.8125 1.875 1.125 2.8125q-0.5625 0.1875 -1.125 0.4375q-0.25 -0.75 -1.25 -2.8125q0.5625 -0.1875 1.25 -0.4375zm25.9375 -0.3125q-0.625 0.8125 -1.03125 1.625q-0.40625 0.8125 -0.84375 1.75l1.4375 0q0.75 0 2.25 -0.0625l0 1.25q-1.4375 -0.0625 -2.25 -0.0625l-1.9375 0q1.4375 2.4375 4.5 3.0q-0.25 0.3125 -0.8125 1.3125q-1.5 -0.5 -2.625 -1.3125l0 1.0q-1.125 -0.0625 -3.25 -0.0625l0 1.75l3.625 0q0.8125 0 1.75 -0.125l0 1.3125q-0.875 -0.0625 -2.0 -0.0625l-3.375 0q0 1.8125 0.0625 2.8125l-1.3125 0q0.0625 -1.0 0.0625 -2.8125l-3.5 0q-0.8125 0 -1.875 0.125l0 -1.3125q1.0625 0.0625 1.875 0.0625l3.5 0l0 -1.75q-2.25 0 -3.375 0.0625l0 -1.0625q-1.125 0.875 -2.5 1.5625q-0.3125 -0.5625 -1.0625 -1.125q2.625 -0.6875 4.75 -3.375l-1.5 0q-1.25 0 -2.6875 0.0625l0 -1.25q1.5 0.0625 2.6875 0.0625l6.25 0q1.375 -2.9375 1.5625 -3.9375q0.9375 0.375 1.625 0.5625zm-8.875 7.25q0.8125 0.0625 3.125 0.0625q0 -1.125 -0.0625 -2.0l1.3125 0q-0.0625 0.875 -0.0625 2.0q2.0625 0 2.875 -0.0625q-1.25 -0.9375 -2.0 -2.75l-2.875 0q-0.6875 1.3125 -2.3125 2.75zm-1.0 -7.4375q0.375 0.375 0.8125 0.96875q0.4375 0.59375 1.0 1.34375q-0.375 0.1875 -1.1875 0.875q-0.4375 -0.8125 -1.6875 -2.3125q0.5 -0.3125 1.0625 -0.875zm5.0625 0.6875q0.3125 0.75 0.5625 1.5q-0.4375 0.0625 -1.3125 0.4375q-0.25 -1.0625 -1.0 -2.75q0.6875 -0.1875 1.3125 -0.4375l0.4375 1.25z" fill-rule="nonzero"/><path fill="#000000" fill-opacity="0.0" d="m166.60892 72.267715l140.62991 0l0 36.0l-140.62991 0z" fill-rule="evenodd"/><path fill="#000000" d="m179.17142 97.252716q-1.125 0 -1.125 -1.0625l0 -9.0l1.375 0q0.625 0.125 0.0625 0.5l0 1.625l7.4375 0l0 -3.3125l-9.3125 0l0 -1.375l10.75 0l0 6.5l-1.4375 0l0 -0.4375l-7.4375 0l0 4.5625q0 0.625 0.625 0.625l7.875 0q0.625 0 0.75 -0.75l0.25 -1.4375l1.4375 0.5l-0.5 2.0625q-0.25 1.0 -1.4375 1.0l-9.3125 0z" fill-rule="nonzero"/><path fill="#000000" d="m199.60892 84.502716q-0.4375 0.6875 -0.75 1.5625l2.0625 0q0 -1.25 -0.0625 -2.375l1.4375 0q-0.125 0.875 -0.125 2.375q2.1875 -0.0625 3.125 -0.0625l0 1.0625q-1.0625 -0.0625 -3.125 -0.0625l0 2.1875l2.125 0q0.9375 0 1.875 -0.0625l0 1.125q-0.9375 -0.0625 -2.875 -0.0625l0 3.4375q0 0.625 0.6875 0.625l0.75 0q0.4375 -0.25 0.5 -1.4375q0.625 0.375 1.3125 0.5q-0.375 2.125 -1.3125 2.125l-1.6875 0q-1.4375 0 -1.4375 -1.3125l0 -3.9375l-1.25 0q0 1.875 -0.6875 3.1875q-0.6875 1.3125 -1.875 2.4375q-0.4375 -0.4375 -1.25 -0.6875q1.5625 -1.125 2.09375 -2.21875q0.53125 -1.09375 0.53125 -2.71875q-1.875 0 -2.8125 0.0625l0 -1.1875q1.0 0.125 1.75 0.125l2.3125 0l0 -2.1875l-2.375 0q-0.3125 0.75 -0.5 1.4375q-0.6875 -0.25 -1.25 -0.4375q0.9375 -1.625 1.375 -3.875q0.625 0.1875 1.4375 0.375zm-3.8125 4.9375q-0.0625 1.3125 -0.0625 2.375l0 3.375q1.625 1.3125 5.1875 1.4375q3.5625 0.125 6.0 -0.3125q-0.3125 0.3125 -0.625 1.4375q-3.875 0.0625 -5.59375 -0.0625q-1.71875 -0.125 -2.90625 -0.46875q-1.1875 -0.34375 -1.875 -0.78125q-0.6875 -0.4375 -1.1875 0.09375q-0.5 0.53125 -1.125 1.34375q-0.4375 -0.5 -1.125 -0.8125q0.6875 -0.75 2.0625 -1.75l0 -4.875q-0.9375 0 -2.0 0.0625l0 -1.125q1.1875 0.0625 3.25 0.0625zm-0.9375 -4.9375q0.8125 1.875 1.125 2.8125q-0.5625 0.1875 -1.125 0.4375q-0.25 -0.75 -1.25 -2.8125q0.5625 -0.1875 1.25 -0.4375z" fill-rule="nonzero"/><path fill="#000000" d="m211.17142 85.315216q0.5 0.0625 0.0625 0.375l0 3.375l3.6875 0l0 -5.0l1.1875 0q0.5 0.0625 0.0625 0.375l0 4.625l3.625 0l0 -3.6875l1.1875 0q0.5 0.0625 0.0625 0.375l0 5.0625l-1.25 0l0 -0.5625l-3.625 0l0 5.375l4.125 0l0 -3.8125l1.1875 0q0.5 0.0625 0.0625 0.375l0 5.3125l-1.25 0l0 -0.6875l-9.6875 0l0 0.875l-1.25 0l0 -5.9375l1.1875 0q0.5 0.0625 0.0625 0.375l0 3.5l4.3125 0l0 -5.375l-3.6875 0l0 0.6875l-1.25 0l0 -5.625l1.1875 0z" fill-rule="nonzero"/><path fill="#000000" d="m229.2261 96.627716l0 -11.453125l1.515625 0l0 10.09375l5.640625 0l0 1.359375l-7.15625 0zm14.4609375 -2.671875l1.453125 0.171875q-0.34375 1.28125 -1.28125 1.984375q-0.921875 0.703125 -2.359375 0.703125q-1.828125 0 -2.890625 -1.125q-1.0625 -1.125 -1.0625 -3.140625q0 -2.09375 1.078125 -3.25q1.078125 -1.15625 2.796875 -1.15625q1.65625 0 2.703125 1.140625q1.0625 1.125 1.0625 3.171875q0 0.125 0 0.375l-6.1875 0q0.078125 1.375 0.765625 2.109375q0.703125 0.71875 1.734375 0.71875q0.78125 0 1.328125 -0.40625q0.546875 -0.40625 0.859375 -1.296875zm-4.609375 -2.28125l4.625 0q-0.09375 -1.046875 -0.53125 -1.5625q-0.671875 -0.8125 -1.734375 -0.8125q-0.96875 0 -1.640625 0.65625q-0.65625 0.640625 -0.71875 1.71875zm13.2421875 3.921875q-0.78125 0.671875 -1.5 0.953125q-0.71875 0.265625 -1.546875 0.265625q-1.375 0 -2.109375 -0.671875q-0.734375 -0.671875 -0.734375 -1.703125q0 -0.609375 0.28125 -1.109375q0.28125 -0.515625 0.71875 -0.8125q0.453125 -0.3125 1.015625 -0.46875q0.421875 -0.109375 1.25 -0.203125q1.703125 -0.203125 2.515625 -0.484375q0 -0.296875 0 -0.375q0 -0.859375 -0.390625 -1.203125q-0.546875 -0.484375 -1.609375 -0.484375q-0.984375 0 -1.46875 0.359375q-0.46875 0.34375 -0.6875 1.21875l-1.375 -0.1875q0.1875 -0.875 0.609375 -1.421875q0.4375 -0.546875 1.25 -0.828125q0.8125 -0.296875 1.875 -0.296875q1.0625 0 1.71875 0.25q0.671875 0.25 0.984375 0.625q0.3125 0.375 0.4375 0.953125q0.078125 0.359375 0.078125 1.296875l0 1.875q0 1.96875 0.078125 2.484375q0.09375 0.515625 0.359375 1.0l-1.46875 0q-0.21875 -0.4375 -0.28125 -1.03125zm-0.109375 -3.140625q-0.765625 0.3125 -2.296875 0.53125q-0.875 0.125 -1.234375 0.28125q-0.359375 0.15625 -0.5625 0.46875q-0.1875 0.296875 -0.1875 0.65625q0 0.5625 0.421875 0.9375q0.4375 0.375 1.25 0.375q0.8125 0 1.4375 -0.34375q0.640625 -0.359375 0.9375 -0.984375q0.234375 -0.46875 0.234375 -1.40625l0 -0.515625zm8.9765625 4.171875l0 -1.046875q-0.78125 1.234375 -2.3125 1.234375q-1.0 0 -1.828125 -0.546875q-0.828125 -0.546875 -1.296875 -1.53125q-0.453125 -0.984375 -0.453125 -2.25q0 -1.25 0.40625 -2.25q0.421875 -1.015625 1.25 -1.546875q0.828125 -0.546875 1.859375 -0.546875q0.75 0 1.328125 0.3125q0.59375 0.3125 0.953125 0.828125l0 -4.109375l1.40625 0l0 11.453125l-1.3125 0zm-4.4375 -4.140625q0 1.59375 0.671875 2.390625q0.671875 0.78125 1.578125 0.78125q0.921875 0 1.5625 -0.75q0.65625 -0.765625 0.65625 -2.3125q0 -1.703125 -0.65625 -2.5q-0.65625 -0.796875 -1.625 -0.796875q-0.9375 0 -1.5625 0.765625q-0.625 0.765625 -0.625 2.421875zm13.6328125 1.46875l1.453125 0.171875q-0.34375 1.28125 -1.28125 1.984375q-0.921875 0.703125 -2.359375 0.703125q-1.828125 0 -2.890625 -1.125q-1.0625 -1.125 -1.0625 -3.140625q0 -2.09375 1.078125 -3.25q1.078125 -1.15625 2.796875 -1.15625q1.65625 0 2.703125 1.140625q1.0625 1.125 1.0625 3.171875q0 0.125 0 0.375l-6.1875 0q0.078125 1.375 0.765625 2.109375q0.703125 0.71875 1.734375 0.71875q0.78125 0 1.328125 -0.40625q0.546875 -0.40625 0.859375 -1.296875zm-4.609375 -2.28125l4.625 0q-0.09375 -1.046875 -0.53125 -1.5625q-0.671875 -0.8125 -1.734375 -0.8125q-0.96875 0 -1.640625 0.65625q-0.65625 0.640625 -0.71875 1.71875zm7.8203125 4.953125l0 -8.296875l1.265625 0l0 1.25q0.484375 -0.875 0.890625 -1.15625q0.40625 -0.28125 0.90625 -0.28125q0.703125 0 1.4375 0.453125l-0.484375 1.296875q-0.515625 -0.296875 -1.03125 -0.296875q-0.453125 0 -0.828125 0.28125q-0.359375 0.265625 -0.515625 0.765625q-0.234375 0.75 -0.234375 1.640625l0 4.34375l-1.40625 0z" fill-rule="nonzero"/><path fill="#000000" fill-opacity="0.0" d="m202.82152 79.25722c0 -7.244095 -2.2992096 -10.866142 -4.598419 -14.48819c-2.2992096 -3.6220474 -4.5984344 -7.244095 -4.5984344 -14.48819" fill-rule="evenodd"/><path stroke="#e79e72" stroke-width="2.0" stroke-linejoin="round" stroke-linecap="butt" d="m202.82152 79.25722c0 -7.244095 -2.2992096 -10.866142 -4.598419 -14.48819c-0.5747986 -0.90550995 -1.1496124 -1.8110237 -1.6884918 -2.7731285l-0.035491943 -0.06441116" fill-rule="evenodd"/><path fill="#e79e72" stroke="#e79e72" stroke-width="2.0" stroke-linecap="butt" d="m199.7064 61.140182l-5.381378 -8.020657l-1.0332031 9.603264z" fill-rule="evenodd"/><path fill="#000000" fill-opacity="0.0" d="m462.22046 79.25722c0 -7.244095 -2.2991943 -10.866142 -4.598419 -14.48819c-2.2991943 -3.6220474 -4.598419 -7.244095 -4.598419 -14.48819" fill-rule="evenodd"/><path stroke="#529ed5" stroke-width="2.0" stroke-linejoin="round" stroke-linecap="butt" d="m462.22046 79.25722c0 -7.244095 -2.2991943 -10.866142 -4.598419 -14.48819c-0.5747986 -0.90550995 -1.1495972 -1.8110237 -1.6884766 -2.7731285l-0.035461426 -0.06441116" fill-rule="evenodd"/><path fill="#529ed5" stroke="#529ed5" stroke-width="2.0" stroke-linecap="butt" d="m459.10535 61.140182l-5.381378 -8.020657l-1.0332031 9.603264z" fill-rule="evenodd"/><path fill="#000000" fill-opacity="0.0" d="m412.88977 72.267715l140.62994 0l0 36.0l-140.62994 0z" fill-rule="evenodd"/><path fill="#000000" d="m422.51477 95.377716q4.0625 -1.5625 6.125 -4.5625l-5.5 0l0 -1.375l6.0625 0l0 -1.875l-4.8125 0l0 -1.375l4.8125 0l0 -2.25l1.1875 0q0.625 0.125 0.0625 0.5l0 1.75l4.6875 0l0 1.375l-4.6875 0l0 1.875l6.125 0l0 1.375l-5.5625 0q1.8125 2.75 6.0 4.1875l-0.4375 1.5q-3.8125 -1.1875 -6.125 -4.5l0 5.875l-1.25 0l0 -5.6875q-3.0 3.625 -6.0 4.5l-0.6875 -1.3125z" fill-rule="nonzero"/><path fill="#000000" d="m445.88977 84.502716q-0.4375 0.6875 -0.75 1.5625l2.0625 0q0 -1.25 -0.0625 -2.375l1.4375 0q-0.125 0.875 -0.125 2.375q2.1875 -0.0625 3.125 -0.0625l0 1.0625q-1.0625 -0.0625 -3.125 -0.0625l0 2.1875l2.125 0q0.9375 0 1.875 -0.0625l0 1.125q-0.9375 -0.0625 -2.875 -0.0625l0 3.4375q0 0.625 0.6875 0.625l0.75 0q0.4375 -0.25 0.5 -1.4375q0.625 0.375 1.3125 0.5q-0.375 2.125 -1.3125 2.125l-1.6875 0q-1.4375 0 -1.4375 -1.3125l0 -3.9375l-1.25 0q0 1.875 -0.6875 3.1875q-0.6875 1.3125 -1.875 2.4375q-0.4375 -0.4375 -1.25 -0.6875q1.5625 -1.125 2.09375 -2.21875q0.53125 -1.09375 0.53125 -2.71875q-1.875 0 -2.8125 0.0625l0 -1.1875q1.0 0.125 1.75 0.125l2.3125 0l0 -2.1875l-2.375 0q-0.3125 0.75 -0.5 1.4375q-0.6875 -0.25 -1.25 -0.4375q0.9375 -1.625 1.375 -3.875q0.625 0.1875 1.4375 0.375zm-3.8125 4.9375q-0.0625 1.3125 -0.0625 2.375l0 3.375q1.625 1.3125 5.1875 1.4375q3.5625 0.125 6.0 -0.3125q-0.3125 0.3125 -0.625 1.4375q-3.875 0.0625 -5.59375 -0.0625q-1.71875 -0.125 -2.90625 -0.46875q-1.1875 -0.34375 -1.875 -0.78125q-0.6875 -0.4375 -1.1875 0.09375q-0.5 0.53125 -1.125 1.34375q-0.4375 -0.5 -1.125 -0.8125q0.6875 -0.75 2.0625 -1.75l0 -4.875q-0.9375 0 -2.0 0.0625l0 -1.125q1.1875 0.0625 3.25 0.0625zm-0.9375 -4.9375q0.8125 1.875 1.125 2.8125q-0.5625 0.1875 -1.125 0.4375q-0.25 -0.75 -1.25 -2.8125q0.5625 -0.1875 1.25 -0.4375z" fill-rule="nonzero"/><path fill="#000000" d="m457.45227 85.315216q0.5 0.0625 0.0625 0.375l0 3.375l3.6875 0l0 -5.0l1.1875 0q0.5 0.0625 0.0625 0.375l0 4.625l3.625 0l0 -3.6875l1.1875 0q0.5 0.0625 0.0625 0.375l0 5.0625l-1.25 0l0 -0.5625l-3.625 0l0 5.375l4.125 0l0 -3.8125l1.1875 0q0.5 0.0625 0.0625 0.375l0 5.3125l-1.25 0l0 -0.6875l-9.6875 0l0 0.875l-1.25 0l0 -5.9375l1.1875 0q0.5 0.0625 0.0625 0.375l0 3.5l4.3125 0l0 -5.375l-3.6875 0l0 0.6875l-1.25 0l0 -5.625l1.1875 0z" fill-rule="nonzero"/><path fill="#000000" d="m475.50696 96.627716l0 -11.453125l1.515625 0l0 10.09375l5.640625 0l0 1.359375l-7.15625 0zm14.4609375 -2.671875l1.453125 0.171875q-0.34375 1.28125 -1.28125 1.984375q-0.921875 0.703125 -2.359375 0.703125q-1.828125 0 -2.890625 -1.125q-1.0625 -1.125 -1.0625 -3.140625q0 -2.09375 1.078125 -3.25q1.078125 -1.15625 2.796875 -1.15625q1.65625 0 2.703125 1.140625q1.0625 1.125 1.0625 3.171875q0 0.125 0 0.375l-6.1875 0q0.078125 1.375 0.765625 2.109375q0.703125 0.71875 1.734375 0.71875q0.78125 0 1.328125 -0.40625q0.546875 -0.40625 0.859375 -1.296875zm-4.609375 -2.28125l4.625 0q-0.09375 -1.046875 -0.53125 -1.5625q-0.671875 -0.8125 -1.734375 -0.8125q-0.96875 0 -1.640625 0.65625q-0.65625 0.640625 -0.71875 1.71875zm13.2421875 3.921875q-0.78125 0.671875 -1.5 0.953125q-0.71875 0.265625 -1.546875 0.265625q-1.375 0 -2.109375 -0.671875q-0.734375 -0.671875 -0.734375 -1.703125q0 -0.609375 0.28125 -1.109375q0.28125 -0.515625 0.71875 -0.8125q0.453125 -0.3125 1.015625 -0.46875q0.421875 -0.109375 1.25 -0.203125q1.703125 -0.203125 2.515625 -0.484375q0 -0.296875 0 -0.375q0 -0.859375 -0.390625 -1.203125q-0.546875 -0.484375 -1.609375 -0.484375q-0.984375 0 -1.46875 0.359375q-0.46875 0.34375 -0.6875 1.21875l-1.375 -0.1875q0.1875 -0.875 0.609375 -1.421875q0.4375 -0.546875 1.25 -0.828125q0.8125 -0.296875 1.875 -0.296875q1.0625 0 1.71875 0.25q0.671875 0.25 0.984375 0.625q0.3125 0.375 0.4375 0.953125q0.078125 0.359375 0.078125 1.296875l0 1.875q0 1.96875 0.078125 2.484375q0.09375 0.515625 0.359375 1.0l-1.46875 0q-0.21875 -0.4375 -0.28125 -1.03125zm-0.109375 -3.140625q-0.765625 0.3125 -2.296875 0.53125q-0.875 0.125 -1.234375 0.28125q-0.359375 0.15625 -0.5625 0.46875q-0.1875 0.296875 -0.1875 0.65625q0 0.5625 0.421875 0.9375q0.4375 0.375 1.25 0.375q0.8125 0 1.4375 -0.34375q0.640625 -0.359375 0.9375 -0.984375q0.234375 -0.46875 0.234375 -1.40625l0 -0.515625zm8.9765625 4.171875l0 -1.046875q-0.78125 1.234375 -2.3125 1.234375q-1.0 0 -1.828125 -0.546875q-0.828125 -0.546875 -1.296875 -1.53125q-0.453125 -0.984375 -0.453125 -2.25q0 -1.25 0.40625 -2.25q0.421875 -1.015625 1.25 -1.546875q0.828125 -0.546875 1.859375 -0.546875q0.75 0 1.328125 0.3125q0.59375 0.3125 0.953125 0.828125l0 -4.109375l1.40625 0l0 11.453125l-1.3125 0zm-4.4375 -4.140625q0 1.59375 0.671875 2.390625q0.671875 0.78125 1.578125 0.78125q0.921875 0 1.5625 -0.75q0.65625 -0.765625 0.65625 -2.3125q0 -1.703125 -0.65625 -2.5q-0.65625 -0.796875 -1.625 -0.796875q-0.9375 0 -1.5625 0.765625q-0.625 0.765625 -0.625 2.421875zm13.6328125 1.46875l1.453125 0.171875q-0.34375 1.28125 -1.28125 1.984375q-0.921875 0.703125 -2.359375 0.703125q-1.828125 0 -2.890625 -1.125q-1.0625 -1.125 -1.0625 -3.140625q0 -2.09375 1.078125 -3.25q1.078125 -1.15625 2.796875 -1.15625q1.65625 0 2.703125 1.140625q1.0625 1.125 1.0625 3.171875q0 0.125 0 0.375l-6.1875 0q0.078125 1.375 0.765625 2.109375q0.703125 0.71875 1.734375 0.71875q0.78125 0 1.328125 -0.40625q0.546875 -0.40625 0.859375 -1.296875zm-4.609375 -2.28125l4.625 0q-0.09375 -1.046875 -0.53125 -1.5625q-0.671875 -0.8125 -1.734375 -0.8125q-0.96875 0 -1.640625 0.65625q-0.65625 0.640625 -0.71875 1.71875zm7.8203125 4.953125l0 -8.296875l1.265625 0l0 1.25q0.484375 -0.875 0.890625 -1.15625q0.40625 -0.28125 0.90625 -0.28125q0.703125 0 1.4375 0.453125l-0.484375 1.296875q-0.515625 -0.296875 -1.03125 -0.296875q-0.453125 0 -0.828125 0.28125q-0.359375 0.265625 -0.515625 0.765625q-0.234375 0.75 -0.234375 1.640625l0 4.34375l-1.40625 0z" fill-rule="nonzero"/><path fill="#000000" fill-opacity="0.0" d="m622.46716 72.267715l61.984253 0l0 36.0l-61.984253 0z" fill-rule="evenodd"/><path fill="#000000" d="m637.77966 85.190216q-0.0625 2.25 -0.0625 5.4375q0 3.1875 0.0625 5.0l-1.3125 0l0 -1.1875l-2.5 0l0 2.0625l-1.3125 0q0.0625 -2.875 0.0625 -5.75q0 -2.9375 -0.0625 -5.5625l5.125 0zm5.875 1.875q0 -1.875 -0.0625 -3.5l1.375 0q-0.0625 1.625 -0.0625 3.5q0.9375 0 2.0 -0.0625l0 1.1875q-1.0625 -0.0625 -2.0 -0.0625l0 8.375q0 0.9375 -0.75 1.1875q-0.75 0.25 -1.9375 0.375q0 -0.75 -0.6875 -1.4375q1.1875 0.125 1.65625 0.0625q0.46875 -0.0625 0.46875 -0.8125l0 -7.75q-3.125 0 -5.25 0.0625l0 -1.1875q2.0 0.0625 5.25 0.0625zm-7.1875 6.3125l0 -3.125l-2.5 0l0 3.125l2.5 0zm0 -4.1875l0 -2.9375l-2.5 0l0 2.9375l2.5 0zm3.875 0.625q0.8125 1.3125 1.5625 2.8125q-0.625 0.1875 -1.3125 0.5625q-0.5 -1.5 -1.4375 -2.8125q0.5625 -0.25 1.1875 -0.5625zm18.25 -2.0625q-0.0625 1.1875 -0.0625 2.0625l0 3.3125q0 0.8125 0.0625 1.9375l-6.3125 0q0.0625 -1.125 0.0625 -2.0l0 -3.25q0 -0.875 -0.0625 -2.0625l6.3125 0zm3.375 -3.3125q-0.0625 1.1875 -0.0625 2.375l0 9.1875q0.0625 1.4375 -0.78125 1.75q-0.84375 0.3125 -1.84375 0.4375q-0.0625 -0.75 -0.5 -1.5q1.1875 0.0625 1.53125 -0.125q0.34375 -0.1875 0.34375 -0.8125l0 -10.25l-3.75 0q-1.5 0 -2.8125 0.0625l0 -1.1875q1.3125 0.0625 2.8125 0.0625l5.0625 0zm-13.125 13.5q0.125 -1.25 0.125 -2.625l0 -6.5625q0 -1.3125 -0.125 -2.1875l1.4375 0q-0.0625 0.9375 -0.0625 1.8125l0 7.0q0 1.25 0.0625 2.5625l-1.4375 0zm8.5 -3.875l0 -2.3125l-3.8125 0l0 2.3125l3.8125 0zm0 -3.3125l0 -2.0l-3.8125 0l0 2.0l3.8125 0zm-6.0625 -7.375q0.5625 0.75 1.75 2.375q-0.6875 0.3125 -1.3125 0.6875q-0.625 -1.25 -1.5625 -2.375q0.6875 -0.5 1.125 -0.6875z" fill-rule="nonzero"/></g></svg>