<svg version="1.1" viewBox="0.0 0.0 463.3910761154856 349.1469816272966" fill="none" stroke="none" stroke-linecap="square" stroke-miterlimit="10" xmlns:xlink="http://www.w3.org/1999/xlink" xmlns="http://www.w3.org/2000/svg"><clipPath id="p.0"><path d="m0 0l463.39108 0l0 349.14697l-463.39108 0l0 -349.14697z" clip-rule="nonzero"/></clipPath><g clip-path="url(#p.0)"><path fill="#000000" fill-opacity="0.0" d="m0 0l463.39108 0l0 349.14697l-463.39108 0z" fill-rule="evenodd"/><path fill="#f3f3f3" d="m12.139108 59.194347l0 0c0 -3.3485641 2.714548 -6.063114 6.063113 -6.063114l147.24385 0c1.6080322 0 3.1502075 0.63879013 4.287262 1.7758446c1.1370544 1.1370544 1.7758484 2.6792297 1.7758484 4.2872696l0 24.251728c0 3.3485641 -2.7145538 6.0631104 -6.0631104 6.0631104l-147.24385 0l0 0c-3.348565 0 -6.063113 -2.7145462 -6.063113 -6.0631104z" fill-rule="evenodd"/><path stroke="#000000" stroke-width="1.0" stroke-linejoin="round" stroke-linecap="butt" d="m12.139108 59.194347l0 0c0 -3.3485641 2.714548 -6.063114 6.063113 -6.063114l147.24385 0c1.6080322 0 3.1502075 0.63879013 4.287262 1.7758446c1.1370544 1.1370544 1.7758484 2.6792297 1.7758484 4.2872696l0 24.251728c0 3.3485641 -2.7145538 6.0631104 -6.0631104 6.0631104l-147.24385 0l0 0c-3.348565 0 -6.063113 -2.7145462 -6.063113 -6.0631104z" fill-rule="evenodd"/><path fill="#2c3e50" d="m90.19454 77.180214l0 -9.515625l-3.40625 0l0 -1.9375l9.109375 0l0 1.9375l-3.390625 0l0 9.515625l-2.3125 0z" fill-rule="nonzero"/><path fill="#2c3e50" d="m99.858604 82.680214l-0.859375 0l0 -5.46875q-0.3125 0.296875 -0.8125 0.59375q-0.5 0.296875 -0.90625 0.4375l0 -0.828125q0.71875 -0.34375 1.25 -0.8125q0.546875 -0.484375 0.765625 -0.9375l0.5625 0l0 7.015625z" fill-rule="nonzero"/><path fill="#f3f3f3" d="m12.139108 142.83739l0 0c0 -3.3485565 2.714548 -6.0631104 6.063113 -6.0631104l147.24385 0c1.6080322 0 3.1502075 0.63879395 4.287262 1.7758484c1.1370544 1.1370544 1.7758484 2.6792297 1.7758484 4.287262l0 24.251724c0 3.3485718 -2.7145538 6.0631256 -6.0631104 6.0631256l-147.24385 0l0 0c-3.348565 0 -6.063113 -2.7145538 -6.063113 -6.0631256z" fill-rule="evenodd"/><path stroke="#000000" stroke-width="1.0" stroke-linejoin="round" stroke-linecap="butt" d="m12.139108 142.83739l0 0c0 -3.3485565 2.714548 -6.0631104 6.063113 -6.0631104l147.24385 0c1.6080322 0 3.1502075 0.63879395 4.287262 1.7758484c1.1370544 1.1370544 1.7758484 2.6792297 1.7758484 4.287262l0 24.251724c0 3.3485718 -2.7145538 6.0631256 -6.0631104 6.0631256l-147.24385 0l0 0c-3.348565 0 -6.063113 -2.7145538 -6.063113 -6.0631256z" fill-rule="evenodd"/><path fill="#2c3e50" d="m90.19454 160.82326l0 -9.515625l-3.40625 0l0 -1.9375l9.109375 0l0 1.9375l-3.390625 0l0 9.515625l-2.3125 0z" fill-rule="nonzero"/><path fill="#2c3e50" d="m101.139854 165.49513l0 0.828125l-4.625 0q-0.015625 -0.3125 0.09375 -0.59375q0.1875 -0.46875 0.5625 -0.921875q0.390625 -0.46875 1.125 -1.0625q1.140625 -0.9375 1.546875 -1.484375q0.40625 -0.546875 0.40625 -1.03125q0 -0.515625 -0.375 -0.859375q-0.359375 -0.359375 -0.953125 -0.359375q-0.609375 0 -0.984375 0.375q-0.375 0.375 -0.375 1.03125l-0.890625 -0.09375q0.09375 -0.984375 0.6875 -1.5q0.59375 -0.515625 1.59375 -0.515625q1.0 0 1.578125 0.5625q0.59375 0.546875 0.59375 1.375q0 0.421875 -0.171875 0.828125q-0.171875 0.40625 -0.578125 0.859375q-0.390625 0.4375 -1.3125 1.21875q-0.78125 0.65625 -1.0 0.890625q-0.21875 0.21875 -0.359375 0.453125l3.4375 0z" fill-rule="nonzero"/><path fill="#ff9900" d="m12.139108 218.55917l0 0c0 -3.3485565 2.714548 -6.0631104 6.063113 -6.0631104l147.24385 0c1.6080322 0 3.1502075 0.63879395 4.287262 1.7758484c1.1370544 1.1370544 1.7758484 2.6792297 1.7758484 4.287262l0 24.251724c0 3.3485718 -2.7145538 6.0631104 -6.0631104 6.0631104l-147.24385 0l0 0c-3.348565 0 -6.063113 -2.7145386 -6.063113 -6.0631104z" fill-rule="evenodd"/><path stroke="#434343" stroke-width="1.0" stroke-linejoin="round" stroke-linecap="butt" d="m12.139108 218.55917l0 0c0 -3.3485565 2.714548 -6.0631104 6.063113 -6.0631104l147.24385 0c1.6080322 0 3.1502075 0.63879395 4.287262 1.7758484c1.1370544 1.1370544 1.7758484 2.6792297 1.7758484 4.287262l0 24.251724c0 3.3485718 -2.7145538 6.0631104 -6.0631104 6.0631104l-147.24385 0l0 0c-3.348565 0 -6.063113 -2.7145386 -6.063113 -6.0631104z" fill-rule="evenodd"/><path fill="#2c3e50" d="m60.909607 237.60504l0 -10.109375l-3.78125 0l0 -1.34375l9.078125 0l0 1.34375l-3.78125 0l0 10.109375l-1.515625 0z" fill-rule="nonzero"/><path fill="#2c3e50" d="m66.933044 241.26129l0.859375 -0.109375q0.15625 0.71875 0.5 1.046875q0.359375 0.3125 0.875 0.3125q0.609375 0 1.015625 -0.40625q0.421875 -0.421875 0.421875 -1.046875q0 -0.59375 -0.390625 -0.96875q-0.390625 -0.390625 -0.984375 -0.390625q-0.234375 0 -0.59375 0.09375l0.09375 -0.75q0.078125 0.015625 0.140625 0.015625q0.546875 0 0.984375 -0.28125q0.4375 -0.296875 0.4375 -0.890625q0 -0.46875 -0.328125 -0.78125q-0.3125 -0.3125 -0.8125 -0.3125q-0.515625 0 -0.84375 0.3125q-0.328125 0.3125 -0.421875 0.953125l-0.859375 -0.15625q0.15625 -0.859375 0.703125 -1.328125q0.5625 -0.484375 1.390625 -0.484375q0.578125 0 1.0625 0.25q0.484375 0.234375 0.734375 0.671875q0.25 0.421875 0.25 0.890625q0 0.453125 -0.25 0.828125q-0.234375 0.375 -0.703125 0.59375q0.609375 0.140625 0.953125 0.59375q0.34375 0.453125 0.34375 1.125q0 0.90625 -0.671875 1.546875q-0.65625 0.640625 -1.6875 0.640625q-0.90625 0 -1.515625 -0.546875q-0.609375 -0.546875 -0.703125 -1.421875z" fill-rule="nonzero"/><path fill="#000000" d="m78.51619 237.60504l0 -13.359375l9.15625 0l0 2.265625l-6.453125 0l0 3.15625l5.5625 0l0 2.265625l-5.5625 0l0 5.671875l-2.703125 0zm13.270981 -6.71875l-2.328125 -0.421875q0.40625 -1.40625 1.359375 -2.078125q0.953125 -0.671875 2.84375 -0.671875q1.703125 0 2.546875 0.40625q0.84375 0.40625 1.171875 1.03125q0.34375 0.625 0.34375 2.28125l-0.015625 3.0q0 1.265625 0.109375 1.875q0.125 0.609375 0.46875 1.296875l-2.53125 0q-0.109375 -0.25 -0.25 -0.75q-0.0625 -0.234375 -0.09375 -0.3125q-0.65625 0.640625 -1.40625 0.96875q-0.734375 0.3125 -1.59375 0.3125q-1.484375 0 -2.34375 -0.8125q-0.859375 -0.8125 -0.859375 -2.046875q0 -0.828125 0.390625 -1.46875q0.390625 -0.640625 1.09375 -0.96875q0.703125 -0.34375 2.03125 -0.609375q1.796875 -0.328125 2.484375 -0.625l0 -0.25q0 -0.75 -0.359375 -1.0625q-0.359375 -0.3125 -1.375 -0.3125q-0.6875 0 -1.078125 0.28125q-0.375 0.265625 -0.609375 0.9375zm3.421875 2.078125q-0.484375 0.15625 -1.5625 0.390625q-1.0625 0.21875 -1.390625 0.4375q-0.5 0.359375 -0.5 0.90625q0 0.53125 0.40625 0.9375q0.40625 0.390625 1.015625 0.390625q0.703125 0 1.328125 -0.46875q0.46875 -0.34375 0.609375 -0.84375q0.09375 -0.328125 0.09375 -1.25l0 -0.5zm5.047592 -6.34375l0 -2.375l2.5625 0l0 2.375l-2.5625 0zm0 10.984375l0 -9.671875l2.5625 0l0 9.671875l-2.5625 0zm5.183304 0l0 -13.359375l2.5625 0l0 13.359375l-2.5625 0zm10.777054 -3.078125l2.546875 0.421875q-0.484375 1.40625 -1.546875 2.140625q-1.0625 0.734375 -2.65625 0.734375q-2.515625 0 -3.734375 -1.65625q-0.953125 -1.3125 -0.953125 -3.328125q0 -2.40625 1.25 -3.765625q1.265625 -1.359375 3.1875 -1.359375q2.15625 0 3.40625 1.421875q1.25 1.421875 1.1875 4.375l-6.40625 0q0.03125 1.140625 0.609375 1.78125q0.59375 0.625 1.484375 0.625q0.59375 0 1.0 -0.328125q0.421875 -0.328125 0.625 -1.0625zm0.15625 -2.59375q-0.03125 -1.109375 -0.578125 -1.6875q-0.546875 -0.578125 -1.328125 -0.578125q-0.84375 0 -1.390625 0.609375q-0.546875 0.609375 -0.53125 1.65625l3.828125 0zm13.500717 5.671875l-2.390625 0l0 -1.421875q-0.59375 0.828125 -1.40625 1.234375q-0.796875 0.40625 -1.609375 0.40625q-1.671875 0 -2.859375 -1.34375q-1.1875 -1.34375 -1.1875 -3.75q0 -2.453125 1.15625 -3.734375q1.15625 -1.28125 2.921875 -1.28125q1.625 0 2.8125 1.34375l0 -4.8125l2.5625 0l0 13.359375zm-6.84375 -5.046875q0 1.546875 0.4375 2.234375q0.609375 1.015625 1.71875 1.015625q0.890625 0 1.5 -0.75q0.625 -0.765625 0.625 -2.25q0 -1.671875 -0.609375 -2.40625q-0.59375 -0.734375 -1.53125 -0.734375q-0.90625 0 -1.53125 0.734375q-0.609375 0.71875 -0.609375 2.15625z" fill-rule="nonzero"/><path fill="#f3f3f3" d="m11.572179 301.46207l0 0c0 -3.3485718 2.714548 -6.0631104 6.063113 -6.0631104l147.24387 0c1.6080322 0 3.1502075 0.63879395 4.287262 1.7758484c1.1370544 1.1370544 1.7758484 2.6792297 1.7758484 4.287262l0 24.251709c0 3.3485718 -2.7145538 6.063141 -6.0631104 6.063141l-147.24387 0l0 0c-3.348565 0 -6.063113 -2.714569 -6.063113 -6.063141z" fill-rule="evenodd"/><path stroke="#000000" stroke-width="1.0" stroke-linejoin="round" stroke-linecap="butt" d="m11.572179 301.46207l0 0c0 -3.3485718 2.714548 -6.0631104 6.063113 -6.0631104l147.24387 0c1.6080322 0 3.1502075 0.63879395 4.287262 1.7758484c1.1370544 1.1370544 1.7758484 2.6792297 1.7758484 4.287262l0 24.251709c0 3.3485718 -2.7145538 6.063141 -6.0631104 6.063141l-147.24387 0l0 0c-3.348565 0 -6.063113 -2.714569 -6.063113 -6.063141z" fill-rule="evenodd"/><path fill="#2c3e50" d="m87.40496 319.44794l0 -9.515625l-3.40625 0l0 -1.9375l9.109375 0l0 1.9375l-3.390625 0l0 9.515625l-2.3125 0z" fill-rule="nonzero"/><path fill="#2c3e50" d="m94.06902 324.94794l0 -5.0625l0.78125 0l0 0.71875q0.546875 -0.828125 1.609375 -0.828125q0.453125 0 0.828125 0.171875q0.390625 0.15625 0.578125 0.421875q0.203125 0.265625 0.28125 0.625q0.046875 0.25 0.046875 0.84375l0 3.109375l-0.859375 0l0 -3.078125q0 -0.53125 -0.109375 -0.78125q-0.09375 -0.265625 -0.359375 -0.421875q-0.25 -0.15625 -0.59375 -0.15625q-0.546875 0 -0.953125 0.359375q-0.390625 0.34375 -0.390625 1.3125l0 2.765625l-0.859375 0z" fill-rule="nonzero"/><path fill="#f3f3f3" d="m288.3937 59.194347l0 0c0 -3.3485641 2.7145386 -6.063114 6.0631104 -6.063114l147.24384 0c1.6080627 0 3.150238 0.63879013 4.2872925 1.7758446c1.1370544 1.1370544 1.7758484 2.6792297 1.7758484 4.2872696l0 24.251728c0 3.3485641 -2.714569 6.0631104 -6.063141 6.0631104l-147.24384 0l0 0c-3.3485718 0 -6.0631104 -2.7145462 -6.0631104 -6.0631104z" fill-rule="evenodd"/><path stroke="#000000" stroke-width="1.0" stroke-linejoin="round" stroke-linecap="butt" d="m288.3937 59.194347l0 0c0 -3.3485641 2.7145386 -6.063114 6.0631104 -6.063114l147.24384 0c1.6080627 0 3.150238 0.63879013 4.2872925 1.7758446c1.1370544 1.1370544 1.7758484 2.6792297 1.7758484 4.2872696l0 24.251728c0 3.3485641 -2.714569 6.0631104 -6.063141 6.0631104l-147.24384 0l0 0c-3.3485718 0 -6.0631104 -2.7145462 -6.0631104 -6.0631104z" fill-rule="evenodd"/><path fill="#2c3e50" d="m371.21475 73.16459l1.515625 0.375q-0.46875 1.875 -1.71875 2.859375q-1.234375 0.984375 -3.015625 0.984375q-1.859375 0 -3.015625 -0.75q-1.15625 -0.765625 -1.765625 -2.1875q-0.609375 -1.4375 -0.609375 -3.078125q0 -1.796875 0.6875 -3.125q0.6875 -1.328125 1.9375 -2.015625q1.265625 -0.703125 2.78125 -0.703125q1.71875 0 2.890625 0.875q1.171875 0.875 1.640625 2.46875l-1.5 0.34375q-0.390625 -1.25 -1.15625 -1.8125q-0.75 -0.578125 -1.90625 -0.578125q-1.3125 0 -2.203125 0.640625q-0.890625 0.625 -1.25 1.703125q-0.359375 1.0625 -0.359375 2.1875q0 1.46875 0.421875 2.5625q0.4375 1.078125 1.328125 1.625q0.90625 0.53125 1.953125 0.53125q1.265625 0 2.140625 -0.734375q0.890625 -0.734375 1.203125 -2.171875z" fill-rule="nonzero"/><path fill="#2c3e50" d="m377.0038 82.680214l-0.859375 0l0 -5.46875q-0.3125 0.296875 -0.8125 0.59375q-0.5 0.296875 -0.90625 0.4375l0 -0.828125q0.71875 -0.34375 1.25 -0.8125q0.546875 -0.484375 0.765625 -0.9375l0.5625 0l0 7.015625z" fill-rule="nonzero"/><path fill="#f3f3f3" d="m288.3937 142.83739l0 0c0 -3.3485565 2.7145386 -6.0631104 6.0631104 -6.0631104l147.24384 0c1.6080627 0 3.150238 0.63879395 4.2872925 1.7758484c1.1370544 1.1370544 1.7758484 2.6792297 1.7758484 4.287262l0 24.251724c0 3.3485718 -2.714569 6.0631256 -6.063141 6.0631256l-147.24384 0l0 0c-3.3485718 0 -6.0631104 -2.7145538 -6.0631104 -6.0631256z" fill-rule="evenodd"/><path stroke="#000000" stroke-width="1.0" stroke-linejoin="round" stroke-linecap="butt" d="m288.3937 142.83739l0 0c0 -3.3485565 2.7145386 -6.0631104 6.0631104 -6.0631104l147.24384 0c1.6080627 0 3.150238 0.63879395 4.2872925 1.7758484c1.1370544 1.1370544 1.7758484 2.6792297 1.7758484 4.287262l0 24.251724c0 3.3485718 -2.714569 6.0631256 -6.063141 6.0631256l-147.24384 0l0 0c-3.3485718 0 -6.0631104 -2.7145538 -6.0631104 -6.0631256z" fill-rule="evenodd"/><path fill="#2c3e50" d="m371.21475 156.80763l1.515625 0.375q-0.46875 1.875 -1.71875 2.859375q-1.234375 0.984375 -3.015625 0.984375q-1.859375 0 -3.015625 -0.75q-1.15625 -0.765625 -1.765625 -2.1875q-0.609375 -1.4375 -0.609375 -3.078125q0 -1.796875 0.6875 -3.125q0.6875 -1.328125 1.9375 -2.015625q1.265625 -0.703125 2.78125 -0.703125q1.71875 0 2.890625 0.875q1.171875 0.875 1.640625 2.46875l-1.5 0.34375q-0.390625 -1.25 -1.15625 -1.8125q-0.75 -0.578125 -1.90625 -0.578125q-1.3125 0 -2.203125 0.640625q-0.890625 0.625 -1.25 1.703125q-0.359375 1.0625 -0.359375 2.1875q0 1.46875 0.421875 2.5625q0.4375 1.078125 1.328125 1.625q0.90625 0.53125 1.953125 0.53125q1.265625 0 2.140625 -0.734375q0.890625 -0.734375 1.203125 -2.171875z" fill-rule="nonzero"/><path fill="#2c3e50" d="m378.28506 165.49513l0 0.828125l-4.625 0q-0.015625 -0.3125 0.09375 -0.59375q0.1875 -0.46875 0.5625 -0.921875q0.390625 -0.46875 1.125 -1.0625q1.140625 -0.9375 1.546875 -1.484375q0.40625 -0.546875 0.40625 -1.03125q0 -0.515625 -0.375 -0.859375q-0.359375 -0.359375 -0.953125 -0.359375q-0.609375 0 -0.984375 0.375q-0.375 0.375 -0.375 1.03125l-0.890625 -0.09375q0.09375 -0.984375 0.6875 -1.5q0.59375 -0.515625 1.59375 -0.515625q1.0 0 1.578125 0.5625q0.59375 0.546875 0.59375 1.375q0 0.421875 -0.171875 0.828125q-0.171875 0.40625 -0.578125 0.859375q-0.390625 0.4375 -1.3125 1.21875q-0.78125 0.65625 -1.0 0.890625q-0.21875 0.21875 -0.359375 0.453125l3.4375 0z" fill-rule="nonzero"/><path fill="#f3f3f3" d="m288.3937 218.55917l0 0c0 -3.3485565 2.7145386 -6.0631104 6.0631104 -6.0631104l147.24384 0c1.6080627 0 3.150238 0.63879395 4.2872925 1.7758484c1.1370544 1.1370544 1.7758484 2.6792297 1.7758484 4.287262l0 24.251724c0 3.3485718 -2.714569 6.0631104 -6.063141 6.0631104l-147.24384 0l0 0c-3.3485718 0 -6.0631104 -2.7145386 -6.0631104 -6.0631104z" fill-rule="evenodd"/><path stroke="#000000" stroke-width="1.0" stroke-linejoin="round" stroke-linecap="butt" d="m288.3937 218.55917l0 0c0 -3.3485565 2.7145386 -6.0631104 6.0631104 -6.0631104l147.24384 0c1.6080627 0 3.150238 0.63879395 4.2872925 1.7758484c1.1370544 1.1370544 1.7758484 2.6792297 1.7758484 4.287262l0 24.251724c0 3.3485718 -2.714569 6.0631104 -6.063141 6.0631104l-147.24384 0l0 0c-3.3485718 0 -6.0631104 -2.7145386 -6.0631104 -6.0631104z" fill-rule="evenodd"/><path fill="#2c3e50" d="m371.21475 232.52942l1.515625 0.375q-0.46875 1.875 -1.71875 2.859375q-1.234375 0.984375 -3.015625 0.984375q-1.859375 0 -3.015625 -0.75q-1.15625 -0.765625 -1.765625 -2.1875q-0.609375 -1.4375 -0.609375 -3.078125q0 -1.796875 0.6875 -3.125q0.6875 -1.328125 1.9375 -2.015625q1.265625 -0.703125 2.78125 -0.703125q1.71875 0 2.890625 0.875q1.171875 0.875 1.640625 2.46875l-1.5 0.34375q-0.390625 -1.25 -1.15625 -1.8125q-0.75 -0.578125 -1.90625 -0.578125q-1.3125 0 -2.203125 0.640625q-0.890625 0.625 -1.25 1.703125q-0.359375 1.0625 -0.359375 2.1875q0 1.46875 0.421875 2.5625q0.4375 1.078125 1.328125 1.625q0.90625 0.53125 1.953125 0.53125q1.265625 0 2.140625 -0.734375q0.890625 -0.734375 1.203125 -2.171875z" fill-rule="nonzero"/><path fill="#2c3e50" d="m373.76944 240.2013l0.859375 -0.109375q0.15625 0.71875 0.5 1.046875q0.359375 0.3125 0.875 0.3125q0.609375 0 1.015625 -0.40625q0.421875 -0.421875 0.421875 -1.046875q0 -0.59375 -0.390625 -0.96875q-0.390625 -0.390625 -0.984375 -0.390625q-0.234375 0 -0.59375 0.09375l0.09375 -0.75q0.078125 0.015625 0.140625 0.015625q0.546875 0 0.984375 -0.28125q0.4375 -0.296875 0.4375 -0.890625q0 -0.46875 -0.328125 -0.78125q-0.3125 -0.3125 -0.8125 -0.3125q-0.515625 0 -0.84375 0.3125q-0.328125 0.3125 -0.421875 0.953125l-0.859375 -0.15625q0.15625 -0.859375 0.703125 -1.328125q0.5625 -0.484375 1.390625 -0.484375q0.578125 0 1.0625 0.25q0.484375 0.234375 0.734375 0.671875q0.25 0.421875 0.25 0.890625q0 0.453125 -0.25 0.828125q-0.234375 0.375 -0.703125 0.59375q0.609375 0.140625 0.953125 0.59375q0.34375 0.453125 0.34375 1.125q0 0.90625 -0.671875 1.546875q-0.65625 0.640625 -1.6875 0.640625q-0.90625 0 -1.515625 -0.546875q-0.609375 -0.546875 -0.703125 -1.421875z" fill-rule="nonzero"/><path fill="#000000" fill-opacity="0.0" d="m171.50919 71.32021l116.8819 0" fill-rule="evenodd"/><path stroke="#000000" stroke-width="1.0" stroke-linejoin="round" stroke-linecap="butt" stroke-dasharray="4.0,3.0" d="m171.50919 71.32021l116.8819 0" fill-rule="evenodd"/><path fill="#000000" fill-opacity="0.0" d="m171.50919 154.96326l116.8819 0" fill-rule="evenodd"/><path stroke="#000000" stroke-width="1.0" stroke-linejoin="round" stroke-linecap="butt" stroke-dasharray="4.0,3.0" d="m171.50919 154.96326l116.8819 0" fill-rule="evenodd"/><path fill="#000000" fill-opacity="0.0" d="m171.50919 230.68504l116.8819 0" fill-rule="evenodd"/><path stroke="#000000" stroke-width="1.0" stroke-linejoin="round" stroke-linecap="butt" stroke-dasharray="4.0,3.0" d="m171.50919 230.68504l116.8819 0" fill-rule="evenodd"/><path fill="#cfe2f3" d="m186.69029 211.92914l71.622055 0l0 -7.448822l14.897614 14.897644l-14.897614 14.897629l0 -7.448822l-71.622055 0z" fill-rule="evenodd"/><path stroke="#000000" stroke-width="1.0" stroke-linejoin="round" stroke-linecap="butt" d="m186.69029 211.92914l71.622055 0l0 -7.448822l14.897614 14.897644l-14.897614 14.897629l0 -7.448822l-71.622055 0z" fill-rule="evenodd"/><path fill="#ffffff" d="m83.22441 118.44357l4.015747 0l0 -14.866142l8.031494 0l0 14.866142l4.015747 0l-8.031494 8.031494z" fill-rule="evenodd"/><path stroke="#000000" stroke-width="1.0" stroke-linejoin="round" stroke-linecap="butt" d="m83.22441 118.44357l4.015747 0l0 -14.866142l8.031494 0l0 14.866142l4.015747 0l-8.031494 8.031494z" fill-rule="evenodd"/><path fill="#ffffff" d="m83.791336 199.83202l4.015747 0l0 -14.866135l8.031502 0l0 14.866135l4.015747 0l-8.031494 8.031494z" fill-rule="evenodd"/><path stroke="#000000" stroke-width="1.0" stroke-linejoin="round" stroke-linecap="butt" d="m83.791336 199.83202l4.015747 0l0 -14.866135l8.031502 0l0 14.866135l4.015747 0l-8.031494 8.031494z" fill-rule="evenodd"/><path fill="#ffffff" d="m83.791336 275.5538l4.015747 0l0 -14.86615l8.031502 0l0 14.86615l4.015747 0l-8.031494 8.031494z" fill-rule="evenodd"/><path stroke="#000000" stroke-width="1.0" stroke-linejoin="round" stroke-linecap="butt" d="m83.791336 275.5538l4.015747 0l0 -14.86615l8.031502 0l0 14.86615l4.015747 0l-8.031494 8.031494z" fill-rule="evenodd"/><path fill="#cfe2f3" d="m360.04593 192.99738l8.031494 -8.031494l8.031494 8.031494l-4.015747 0l0 14.866135l-8.031494 0l0 -14.866135z" fill-rule="evenodd"/><path stroke="#000000" stroke-width="1.0" stroke-linejoin="round" stroke-linecap="butt" d="m360.04593 192.99738l8.031494 -8.031494l8.031494 8.031494l-4.015747 0l0 14.866135l-8.031494 0l0 -14.866135z" fill-rule="evenodd"/><path fill="#cfe2f3" d="m360.04593 113.314964l8.031494 -8.031502l8.031494 8.031502l-4.015747 0l0 14.866142l-8.031494 0l0 -14.866142z" fill-rule="evenodd"/><path stroke="#000000" stroke-width="1.0" stroke-linejoin="round" stroke-linecap="butt" d="m360.04593 113.314964l8.031494 -8.031502l8.031494 8.031502l-4.015747 0l0 14.866142l-8.031494 0l0 -14.866142z" fill-rule="evenodd"/><path fill="#000000" fill-opacity="0.0" d="m36.23341 6.3149605l116.88188 0l0 38.771652l-116.88188 0z" fill-rule="evenodd"/><path fill="#000000" d="m46.85841 19.112461l12.5625 0l0 1.1875l-5.1875 0l0 3.875l4.0625 0l0 1.1875l-4.0625 0l0 4.4375l5.625 0l0 1.1875l-13.4375 0l0 -1.1875l2.3125 0l0 -7.0l1.375 0q0.5 0.0625 0.0625 0.375l0 6.625l2.625 0l0 -9.5l-5.9375 0l0 -1.1875zm25.312496 10.8125l1.25 0q0.25 0 0.25 -0.25l0 -1.6875l-3.8125 0l0 3.875l-1.25 0l0 -3.875l-3.5625 0l0 3.0625l-1.2499962 0l0 -4.25l4.812496 0l0 -1.0l-1.625 0l-1.625 0l0 -3.4375l7.625 0l0 3.4375l-3.125 0l0 1.0l5.0625 0l0 3.4375q0 0.875 -0.875 0.875l-1.625 0l-0.25 -1.1875zm-6.25 -9.5q-0.5625 -0.9375 -1.375 -1.5625l1.0 -0.8125q1.0 0.625 1.5625 1.6875l-0.9375 0.6875l2.4375 0l0 -2.75l1.1875 0q0.5 0.0625 0.0625 0.375l0 2.375l2.375 0l-1.0 -0.625l1.25 -1.9375l1.125 0.6875q0.4375 0.3125 -0.125 0.3125l-1.0625 1.5625l3.5 0l0 2.9375l-1.25 0l0 -1.9375l-10.999996 0l0 2.1875l-1.25 0l0 -3.1875l3.4999962 0zm5.8125 2.9375l-5.125 0l0 1.4375l5.125 0l0 -1.4375zm12.5625 7.5q0.25 0 0.25 -0.25l0 -1.25l-4.9375 0l0 -1.0l4.9375 0l0 -1.0l-6.5625 0l0 -1.0l6.5625 0l0 -0.9375l-4.9375 0l0 -1.0l4.9375 0l0 -0.875l-2.125 0l-2.0625 0l0 -2.6875l4.1875 0l0 -0.8125l-6.1875 0l0 -1.0l6.1875 0l0 -1.4375l1.1875 0q0.5 0.0625 0.0625 0.375l0 1.0625l6.0 0l0 1.0l-6.0 0l0 0.8125l4.0625 0l0 2.6875l-4.0625 0l0 0.875l4.8125 0l0 1.9375l1.6875 0l0 1.0l-1.6875 0l0 2.375l-1.25 0l0 -0.375l-3.5625 0l0 1.6875q0 1.0 -1.0 1.0l-1.375 0l-0.1875 -1.1875l1.0625 0zm-2.875 -8.0625l3.125 0l0 -1.1875l-3.125 0l0 1.1875zm4.375 0l3.0 0l0 -1.1875l-3.0 0l0 1.1875zm0 5.5625l3.5625 0l0 -1.0l-3.5625 0l0 1.0zm3.5625 -2.0l0 -0.9375l-3.5625 0l0 0.9375l3.5625 0z" fill-rule="nonzero"/><path fill="#000000" d="m100.358406 18.299961q-0.5 0.4375 -0.875 1.0l6.9375 0q-0.5625 0.9375 -1.46875 2.0q-0.90625 1.0625 -2.28125 2.0q0.875 0.5625 2.375 0.84375q1.5 0.28125 3.5625 0.34375q-0.5 0.5625 -0.6875 1.3125q-1.75 -0.125 -3.4375 -0.625q-1.6875 -0.5 -2.8125 -1.1875q-2.0 0.9375 -3.625 1.375q-1.625 0.4375 -3.1875 0.6875q-0.25 -0.75 -0.75 -1.3125q1.375 0 3.125 -0.375q1.75 -0.375 3.4375 -1.0625q-1.3125 -1.25 -2.25 -2.5625q-1.0625 1.3125 -2.1875 2.1875q-0.4375 -0.5 -1.125 -0.75q1.75 -1.25 2.5625 -2.40625q0.8125 -1.15625 1.1875 -2.15625q0.8125 0.4375 1.5 0.6875zm-0.125 8.25q0.125 -0.75 0.125 -1.75q0.75 0.125 1.5 0.1875q-0.1875 0.375 -0.375 1.5625l5.0625 0q-0.0625 0.75 -0.125 1.71875q-0.0625 0.96875 -0.21875 2.09375q-0.15625 1.125 -0.90625 1.3125q-0.75 0.1875 -2.375 0.375q-0.125 -0.8125 -0.625 -1.375q1.8125 0 2.1875 -0.125q0.375 -0.125 0.5 -0.6875l0.1875 -2.375l-3.8125 0q-0.875 2.6875 -2.46875 3.5q-1.59375 0.8125 -3.40625 1.4375q-0.1875 -0.5625 -0.875 -1.3125q1.5 -0.125 3.125 -0.9375q1.625 -0.8125 2.3125 -2.6875l-1.4375 0q-1.875 0 -2.75 0.125l0 -1.125q0.9375 0.0625 2.8125 0.0625l1.5625 0zm1.5 -3.9375q1.25 -0.75 2.4375 -2.375l-4.6875 0q1.1875 1.5625 2.25 2.375z" fill-rule="nonzero"/><path fill="#000000" d="m112.545906 21.299961q-0.875 -0.9375 -1.9375 -1.6875l0.9375 -1.125q1.125 0.6875 1.9375 1.625l-0.9375 1.1875zm6.8125 -1.875l4.625 0l0 1.1875l-5.25 0l-1.4375 2.375l3.6875 -0.1875l-1.375 -1.0625l1.0 -0.625q2.0625 1.1875 3.5 2.8125l-1.0625 0.875l-1.0 -1.0l-7.4375 0.5625q-0.0625 0.4375 -0.3125 0.1875l-0.4375 -1.4375l2.125 -0.0625l1.125 -2.4375l-3.25 0l0 -1.1875l4.0625 0l0 -1.6875l1.375 0q0.625 0.125 0.0625 0.5l0 1.1875zm-9.3125 11.4375q1.3125 -2.125 2.3125 -4.6875l1.125 0.75q-1.0 2.875 -2.0625 4.625q0.125 0.375 -0.1875 0.3125l-1.1875 -1.0zm2.375 -5.9375q-0.9375 -0.75 -2.0625 -1.5625l0.8125 -1.1875q1.3125 0.8125 2.125 1.5l-0.875 1.25zm6.75 6.1875l-1.25 0l0 -5.9375l1.1875 0q0.5 0.0625 0.0625 0.375l0 5.5625zm1.5 -6.0625l1.1875 0q0.5 0.0625 0.0625 0.375l0 4.6875q0 0.5 0.4375 0.5l0.375 0q0.3125 0 0.375 -0.4375l0.125 -1.0l1.25 0.3125q-0.0625 0.8125 -0.25 1.5625q-0.1875 0.75 -0.9375 0.75l-1.625 0q-1.0 0 -1.0 -1.0625l0 -5.6875zm-4.3125 3.0q0 2.625 -2.8125 4.0625l-0.875 -1.0625q2.4375 -1.25 2.4375 -3.25l0 -2.6875l1.1875 0q0.5 0.0625 0.0625 0.375l0 2.5625zm14.875008 -0.6875l-1.375 -1.5625l0 6.25l-1.25 0l0 -5.9375q-0.9375076 1.75 -2.0000076 2.6875l-0.8125 -1.1875q2.125 -2.0625 2.8125076 -4.6875l-2.3125076 0l0 -1.1875l2.3125076 0l0 -1.75l-1.9375076 0.3125l-0.375 -1.25q3.0000076 -0.5 4.8125076 -1.1875l0.875 1.1875q0.0625 0.4375 -0.375 0.1875l-1.75 0.5l0 2.0l2.25 0l0 1.1875l-2.25 0l0 1.25q1.0 0.6875 2.3125 2.0625l-0.9375 1.125zm5.5625 -1.4375l0 1.625l2.625 0l0 1.1875l-2.625 0l0 1.6875l3.5 0l0 1.1875l-8.875 0l0 -1.1875l4.125 0l0 -1.6875l-2.8125 0l0 -1.1875l2.8125 0l0 -1.625l-3.0625 0l0 -1.1875l7.375 0l0 1.1875l-3.0625 0zm1.4375 -6.125l-3.9375 0l0 2.25l3.9375 0l0 -2.25zm0 4.0l0 -0.5625l-3.9375 0l0 0.625l-1.25 0l0 -5.25l6.4375 0l0 5.1875l-1.25 0z" fill-rule="nonzero"/><path fill="#000000" fill-opacity="0.0" d="m308.4565 6.3149605l119.24411 0l0 38.771652l-119.24411 0z" fill-rule="evenodd"/><path fill="#000000" d="m323.0815 25.424961q1.3125 -1.3125 1.6875 -1.875q0.375 0.5 1.0 1.125q-0.5 0.125 -0.96875 0.46875q-0.46875 0.34375 -0.96875 0.78125q0.6875 0.5 1.6875 1.375q-0.5 0.4375 -0.9375 1.0625q-0.6875 -0.8125 -1.1875 -1.3125q-0.5 -0.5 -1.0625 -0.9375l0 3.75q0 1.0 0.0625 2.4375l-1.25 0q0.0625 -1.6875 0.0625 -2.8125l0 -3.6875q-0.8125 1.0 -2.375 2.375q-0.375 -0.625 -0.875 -1.125q1.375 -0.9375 2.59375 -2.25q1.21875 -1.3125 1.71875 -2.5l-1.25 0q-1.1875 0 -2.3125 0.0625l0 -1.1875q1.1875 0.0625 2.25 0.0625l3.1875 0q-0.375 0.8125 -0.78125 1.53125q-0.40625 0.71875 -1.03125 1.65625l0 0.4375q0.375 0.3125 0.75 0.5625zm5.25 -7.4375q-0.125 1.0625 -0.125 2.0l0 9.75q0 0.75 0.0625 2.5625l-1.375 0q0.0625 -1.8125 0.0625 -2.9375l0 -9.375q0 -1.0 -0.125 -2.0l1.5 0zm1.375 3.75q0.625 0.8125 1.5625 2.125q0.9375 1.3125 1.5 2.3125q-0.625 0.3125 -1.3125 0.8125q-0.625 -1.375 -1.46875 -2.6875q-0.84375 -1.3125 -1.28125 -1.8125l1.0 -0.75zm-7.75 -4.0625q0.5625 0.8125 1.25 2.1875q-0.5625 0.25 -1.125 0.625q-0.625 -1.375 -1.1875 -2.1875q0.625 -0.3125 1.0625 -0.625zm23.875 8.8125q1.625 0 2.625 -0.0625l0 1.0625q-1.0 -0.0625 -2.5625 -0.0625l-2.8125 0q-1.125 1.8125 -2.1875 3.0q1.3125 0 4.6875 -0.1875q-0.375 -0.5 -1.25 -1.5625q0.625 -0.375 0.9375 -0.6875q1.125 1.3125 1.65625 2.0q0.53125 0.6875 1.15625 1.5q-0.5625 0.375 -1.1875 0.75q-0.375 -0.625 -0.6875 -1.0625q-3.9375 0.125 -6.9375 0.5q-0.1875 -0.5625 -0.4375 -1.125q0.75 -0.125 1.59375 -1.15625q0.84375 -1.03125 1.28125 -1.96875l-1.4375 0q-1.1875 0 -2.0 0.0625l0 -1.0625q0.8125 0.0625 2.0 0.0625l5.5625 0zm-7.1875 -8.375q-0.375 0.5625 -1.125 2.5l0 8.1875q0 2.1875 0.0625 3.375l-1.25 0q0.0625 -1.25 0.0625 -3.4375l0 -5.6875q-0.375 0.75 -1.4375 2.3125q-0.4375 -0.5625 -0.875 -0.875q0.75 -0.8125 1.75 -2.8125q1.0 -2.0 1.4375 -4.0625q0.625 0.3125 1.375 0.5zm3.875 3.625q0 -3.125 -0.0625 -3.8125l1.3125 0q-0.0625 0.6875 -0.0625 3.8125l4.625 0q-0.0625 0.6875 -0.0625 1.375q0 0.6875 0.0625 1.4375l-1.25 0l0 -1.875l-7.75 0l0 1.875l-1.125 0q0.0625 -0.6875 0.0625 -1.4375q0 -0.75 -0.0625 -1.375l4.3125 0zm1.3125 2.375q1.1875 0 2.75 -0.0625l0 1.125q-1.5625 -0.0625 -2.75 -0.0625l-1.875 0q-1.1875 0 -1.875 0.0625l0 -1.125q0.625 0.0625 1.875 0.0625l1.875 0zm3.75 -5.0625q-1.0625 1.375 -1.75 2.3125q-0.5 -0.3125 -1.0 -0.5625q1.0 -1.1875 1.625 -2.4375q0.625 0.4375 1.125 0.6875zm-7.6875 -0.5625q1.0625 1.25 1.6875 2.125q-0.6875 0.4375 -1.0 0.75q-0.6875 -1.125 -1.5625 -2.1875q0.4375 -0.3125 0.875 -0.6875z" fill-rule="nonzero"/><path fill="#000000" d="m356.519 30.862461q0.25 0 0.25 -0.25l0 -1.25l-4.9375 0l0 -1.0l4.9375 0l0 -1.0l-6.5625 0l0 -1.0l6.5625 0l0 -0.9375l-4.9375 0l0 -1.0l4.9375 0l0 -0.875l-2.125 0l-2.0625 0l0 -2.6875l4.1875 0l0 -0.8125l-6.1875 0l0 -1.0l6.1875 0l0 -1.4375l1.1875 0q0.5 0.0625 0.0625 0.375l0 1.0625l6.0 0l0 1.0l-6.0 0l0 0.8125l4.0625 0l0 2.6875l-4.0625 0l0 0.875l4.8125 0l0 1.9375l1.6875 0l0 1.0l-1.6875 0l0 2.375l-1.25 0l0 -0.375l-3.5625 0l0 1.6875q0 1.0 -1.0 1.0l-1.375 0l-0.1875 -1.1875l1.0625 0zm-2.875 -8.0625l3.125 0l0 -1.1875l-3.125 0l0 1.1875zm4.375 0l3.0 0l0 -1.1875l-3.0 0l0 1.1875zm0 5.5625l3.5625 0l0 -1.0l-3.5625 0l0 1.0zm3.5625 -2.0l0 -0.9375l-3.5625 0l0 0.9375l3.5625 0z" fill-rule="nonzero"/><path fill="#000000" d="m372.5815 18.299961q-0.5 0.4375 -0.875 1.0l6.9375 0q-0.5625 0.9375 -1.46875 2.0q-0.90625 1.0625 -2.28125 2.0q0.875 0.5625 2.375 0.84375q1.5 0.28125 3.5625 0.34375q-0.5 0.5625 -0.6875 1.3125q-1.75 -0.125 -3.4375 -0.625q-1.6875 -0.5 -2.8125 -1.1875q-2.0 0.9375 -3.625 1.375q-1.625 0.4375 -3.1875 0.6875q-0.25 -0.75 -0.75 -1.3125q1.375 0 3.125 -0.375q1.75 -0.375 3.4375 -1.0625q-1.3125 -1.25 -2.25 -2.5625q-1.0625 1.3125 -2.1875 2.1875q-0.4375 -0.5 -1.125 -0.75q1.75 -1.25 2.5625 -2.40625q0.8125 -1.15625 1.1875 -2.15625q0.8125 0.4375 1.5 0.6875zm-0.125 8.25q0.125 -0.75 0.125 -1.75q0.75 0.125 1.5 0.1875q-0.1875 0.375 -0.375 1.5625l5.0625 0q-0.0625 0.75 -0.125 1.71875q-0.0625 0.96875 -0.21875 2.09375q-0.15625 1.125 -0.90625 1.3125q-0.75 0.1875 -2.375 0.375q-0.125 -0.8125 -0.625 -1.375q1.8125 0 2.1875 -0.125q0.375 -0.125 0.5 -0.6875l0.1875 -2.375l-3.8125 0q-0.875 2.6875 -2.46875 3.5q-1.59375 0.8125 -3.40625 1.4375q-0.1875 -0.5625 -0.875 -1.3125q1.5 -0.125 3.125 -0.9375q1.625 -0.8125 2.3125 -2.6875l-1.4375 0q-1.875 0 -2.75 0.125l0 -1.125q0.9375 0.0625 2.8125 0.0625l1.5625 0zm1.5 -3.9375q1.25 -0.75 2.4375 -2.375l-4.6875 0q1.1875 1.5625 2.25 2.375z" fill-rule="nonzero"/><path fill="#000000" d="m384.769 21.299961q-0.875 -0.9375 -1.9375 -1.6875l0.9375 -1.125q1.125 0.6875 1.9375 1.625l-0.9375 1.1875zm6.8125 -1.875l4.625 0l0 1.1875l-5.25 0l-1.4375 2.375l3.6875 -0.1875l-1.375 -1.0625l1.0 -0.625q2.0625 1.1875 3.5 2.8125l-1.0625 0.875l-1.0 -1.0l-7.4375 0.5625q-0.0625 0.4375 -0.3125 0.1875l-0.4375 -1.4375l2.125 -0.0625l1.125 -2.4375l-3.25 0l0 -1.1875l4.0625 0l0 -1.6875l1.375 0q0.625 0.125 0.0625 0.5l0 1.1875zm-9.3125 11.4375q1.3125 -2.125 2.3125 -4.6875l1.125 0.75q-1.0 2.875 -2.0625 4.625q0.125 0.375 -0.1875 0.3125l-1.1875 -1.0zm2.375 -5.9375q-0.9375 -0.75 -2.0625 -1.5625l0.8125 -1.1875q1.3125 0.8125 2.125 1.5l-0.875 1.25zm6.75 6.1875l-1.25 0l0 -5.9375l1.1875 0q0.5 0.0625 0.0625 0.375l0 5.5625zm1.5 -6.0625l1.1875 0q0.5 0.0625 0.0625 0.375l0 4.6875q0 0.5 0.4375 0.5l0.375 0q0.3125 0 0.375 -0.4375l0.125 -1.0l1.25 0.3125q-0.0625 0.8125 -0.25 1.5625q-0.1875 0.75 -0.9375 0.75l-1.625 0q-1.0 0 -1.0 -1.0625l0 -5.6875zm-4.3125 3.0q0 2.625 -2.8125 4.0625l-0.875 -1.0625q2.4375 -1.25 2.4375 -3.25l0 -2.6875l1.1875 0q0.5 0.0625 0.0625 0.375l0 2.5625zm14.875 -0.6875l-1.375 -1.5625l0 6.25l-1.25 0l0 -5.9375q-0.9375 1.75 -2.0 2.6875l-0.8125 -1.1875q2.125 -2.0625 2.8125 -4.6875l-2.3125 0l0 -1.1875l2.3125 0l0 -1.75l-1.9375 0.3125l-0.375 -1.25q3.0 -0.5 4.8125 -1.1875l0.875 1.1875q0.0625 0.4375 -0.375 0.1875l-1.75 0.5l0 2.0l2.25 0l0 1.1875l-2.25 0l0 1.25q1.0 0.6875 2.3125 2.0625l-0.9375 1.125zm5.5625 -1.4375l0 1.625l2.625 0l0 1.1875l-2.625 0l0 1.6875l3.5 0l0 1.1875l-8.875 0l0 -1.1875l4.125 0l0 -1.6875l-2.8125 0l0 -1.1875l2.8125 0l0 -1.625l-3.0625 0l0 -1.1875l7.375 0l0 1.1875l-3.0625 0zm1.4375 -6.125l-3.9375 0l0 2.25l3.9375 0l0 -2.25zm0 4.0l0 -0.5625l-3.9375 0l0 0.625l-1.25 0l0 -5.25l6.4375 0l0 5.1875l-1.25 0z" fill-rule="nonzero"/></g></svg>