<svg xmlns="http://www.w3.org/2000/svg" id="f4d6a11b-0457-4c4b-ae44-a4a2df9b26c6" data-name="Layer 1" viewBox="0 0 680.3 475.36"><defs><style>.f09797e6-9539-4c32-b49a-022e2c09fc30{fill:#466bb0}.e8fd0efc-502d-4997-81f5-96257f07fc0e,.f09797e6-9539-4c32-b49a-022e2c09fc30{opacity:.1}.a0d2ecab-bc9b-44a8-82e3-34149afae16c,.a49b4615-bc1c-41bd-b1e8-640b1f8dd42a,.b38d1ea6-a478-4fcb-bf29-b221edb8a33f,.e2e125c1-b406-488d-9663-154c8df4e9f4,.f0aad515-7ad9-45df-ab83-1f35aa91aec9,.f68635cb-cfa3-4a60-934b-de1f3aaa66c3{fill:none}.e2e125c1-b406-488d-9663-154c8df4e9f4{stroke:#466bb0;stroke-dasharray:10.01 10.01}.a49b4615-bc1c-41bd-b1e8-640b1f8dd42a,.b38d1ea6-a478-4fcb-bf29-b221edb8a33f,.e2e125c1-b406-488d-9663-154c8df4e9f4,.f68635cb-cfa3-4a60-934b-de1f3aaa66c3{stroke-linejoin:round}.a4076c78-2611-4424-b247-c2b071534796,.e19d6d5f-3b64-431f-ab4c-95c6ae498f56{font-size:12px}.a4076c78-2611-4424-b247-c2b071534796,.b1687d9f-cace-4cbf-9e86-85c41dc15326,.e19d6d5f-3b64-431f-ab4c-95c6ae498f56,.fa63d417-f2ec-400c-87e0-6baf8392cc5e{font-family:OpenSans,Open Sans}.e500ff81-4203-41af-b629-d871224c3705{fill:#e5e5e4}.e3a70dc2-4442-4ba5-bd5d-d0d7fd4bf78e{fill:#fff}.b1687d9f-cace-4cbf-9e86-85c41dc15326,.fa63d417-f2ec-400c-87e0-6baf8392cc5e{font-size:14px}.abed5706-4125-4085-bdf7-e601c0ec9f14{fill:#767576}.b38d1ea6-a478-4fcb-bf29-b221edb8a33f,.f0aad515-7ad9-45df-ab83-1f35aa91aec9{stroke:#fff}.a0d2ecab-bc9b-44a8-82e3-34149afae16c,.a49b4615-bc1c-41bd-b1e8-640b1f8dd42a,.b38d1ea6-a478-4fcb-bf29-b221edb8a33f,.f0aad515-7ad9-45df-ab83-1f35aa91aec9{stroke-width:2px}.a49b4615-bc1c-41bd-b1e8-640b1f8dd42a,.f0aad515-7ad9-45df-ab83-1f35aa91aec9{stroke-linecap:round}.a0d2ecab-bc9b-44a8-82e3-34149afae16c,.ea00890b-4b69-4c4d-b458-bb1f52794665,.f0aad515-7ad9-45df-ab83-1f35aa91aec9{stroke-miterlimit:10}.f68635cb-cfa3-4a60-934b-de1f3aaa66c3{stroke:#b14d9d;stroke-width:3px}.a0d2ecab-bc9b-44a8-82e3-34149afae16c{stroke:#00a14b}.b056d124-143c-4300-a481-77e2ca9932d3{fill:#00a14b}.a49b4615-bc1c-41bd-b1e8-640b1f8dd42a{stroke:#486baf;stroke-dasharray:6 12}.ee4e281a-3b21-4c59-b369-dc727cb09c08{fill:#486baf}.e8fd0efc-502d-4997-81f5-96257f07fc0e{fill:#009345}.ea00890b-4b69-4c4d-b458-bb1f52794665{fill:#e4e4e3;stroke:#777678}.a4076c78-2611-4424-b247-c2b071534796,.b1687d9f-cace-4cbf-9e86-85c41dc15326{isolation:isolate}.b146f52f-4430-4517-8eda-8341602c0617{fill:#486bae}</style></defs><title>arch</title><rect width="549.99" height="96.23" x="68.01" y="360.11" class="f09797e6-9539-4c32-b49a-022e2c09fc30" rx="9"/><rect width="580.5" height="458.99" x="49.9" y="15.87" class="e2e125c1-b406-488d-9663-154c8df4e9f4" rx="10"/><text class="e19d6d5f-3b64-431f-ab4c-95c6ae498f56" transform="translate(49.9 10.28)">Istio Mesh</text><text class="e19d6d5f-3b64-431f-ab4c-95c6ae498f56" transform="translate(4.53 204.66)">Ingress<tspan x="3.84" y="14.4">traffic</tspan></text><text class="e19d6d5f-3b64-431f-ab4c-95c6ae498f56" transform="translate(637.42 204.66)">Egress<tspan x="1.82" y="14.4">traffic</tspan></text><rect width="136.06" height="136.06" x="120.77" y="84.87" class="e500ff81-4203-41af-b629-d871224c3705" rx="3"/><rect width="136.06" height="136.06" x="115.06" y="79.15" class="e500ff81-4203-41af-b629-d871224c3705" rx="3"/><rect width="117" height="40.35" x="124.59" y="86.73" class="e3a70dc2-4442-4ba5-bd5d-d0d7fd4bf78e" rx="3"/><text class="fa63d417-f2ec-400c-87e0-6baf8392cc5e" transform="translate(176.13 111.42)">Service A</text><circle cx="151.04" cy="106.9" r="18" class="abed5706-4125-4085-bdf7-e601c0ec9f14"/><rect width="12.79" height="12.79" x="144.65" y="100.39" class="b38d1ea6-a478-4fcb-bf29-b221edb8a33f"/><line x1="147.02" x2="147.02" y1="100.39" y2="97.31" class="f0aad515-7ad9-45df-ab83-1f35aa91aec9"/><line x1="151.04" x2="151.04" y1="100.39" y2="97.31" class="f0aad515-7ad9-45df-ab83-1f35aa91aec9"/><line x1="155.07" x2="155.07" y1="100.39" y2="97.31" class="f0aad515-7ad9-45df-ab83-1f35aa91aec9"/><line x1="147.02" x2="147.02" y1="116.5" y2="113.42" class="f0aad515-7ad9-45df-ab83-1f35aa91aec9"/><line x1="151.04" x2="151.04" y1="116.5" y2="113.42" class="f0aad515-7ad9-45df-ab83-1f35aa91aec9"/><line x1="155.07" x2="155.07" y1="116.5" y2="113.42" class="f0aad515-7ad9-45df-ab83-1f35aa91aec9"/><line x1="144.53" x2="141.45" y1="110.93" y2="110.93" class="f0aad515-7ad9-45df-ab83-1f35aa91aec9"/><line x1="144.53" x2="141.45" y1="106.9" y2="106.9" class="f0aad515-7ad9-45df-ab83-1f35aa91aec9"/><line x1="144.53" x2="141.45" y1="102.88" y2="102.88" class="f0aad515-7ad9-45df-ab83-1f35aa91aec9"/><line x1="160.64" x2="157.56" y1="110.93" y2="110.93" class="f0aad515-7ad9-45df-ab83-1f35aa91aec9"/><line x1="160.64" x2="157.56" y1="106.9" y2="106.9" class="f0aad515-7ad9-45df-ab83-1f35aa91aec9"/><line x1="160.64" x2="157.56" y1="102.88" y2="102.88" class="f0aad515-7ad9-45df-ab83-1f35aa91aec9"/><rect width="5.68" height="5.68" x="148.2" y="103.94" class="e3a70dc2-4442-4ba5-bd5d-d0d7fd4bf78e" rx="2"/><rect width="117" height="39.08" x="124.59" y="164.69" class="e3a70dc2-4442-4ba5-bd5d-d0d7fd4bf78e" rx="3"/><polygon points="164.85 191.88 164.85 176.58 151.59 168.93 138.33 176.58 138.33 191.88 151.59 199.53 164.85 191.88" class="f68635cb-cfa3-4a60-934b-de1f3aaa66c3"/><text class="fa63d417-f2ec-400c-87e0-6baf8392cc5e" transform="translate(187.05 188.68)">Proxy</text><rect width="136.06" height="136.06" x="434.89" y="84.87" class="e500ff81-4203-41af-b629-d871224c3705" rx="3"/><rect width="136.06" height="136.06" x="429.18" y="79.15" class="e500ff81-4203-41af-b629-d871224c3705" rx="3"/><rect width="117" height="40.35" x="438.71" y="86.73" class="e3a70dc2-4442-4ba5-bd5d-d0d7fd4bf78e" rx="3"/><text class="fa63d417-f2ec-400c-87e0-6baf8392cc5e" transform="translate(490.15 111.42)">Service B</text><circle cx="465.16" cy="106.9" r="18" class="abed5706-4125-4085-bdf7-e601c0ec9f14"/><rect width="12.79" height="12.79" x="458.77" y="100.39" class="b38d1ea6-a478-4fcb-bf29-b221edb8a33f"/><line x1="461.14" x2="461.14" y1="100.39" y2="97.31" class="f0aad515-7ad9-45df-ab83-1f35aa91aec9"/><line x1="465.16" x2="465.16" y1="100.39" y2="97.31" class="f0aad515-7ad9-45df-ab83-1f35aa91aec9"/><line x1="469.19" x2="469.19" y1="100.39" y2="97.31" class="f0aad515-7ad9-45df-ab83-1f35aa91aec9"/><line x1="461.14" x2="461.14" y1="116.5" y2="113.42" class="f0aad515-7ad9-45df-ab83-1f35aa91aec9"/><line x1="465.16" x2="465.16" y1="116.5" y2="113.42" class="f0aad515-7ad9-45df-ab83-1f35aa91aec9"/><line x1="469.19" x2="469.19" y1="116.5" y2="113.42" class="f0aad515-7ad9-45df-ab83-1f35aa91aec9"/><line x1="458.65" x2="455.57" y1="110.93" y2="110.93" class="f0aad515-7ad9-45df-ab83-1f35aa91aec9"/><line x1="458.65" x2="455.57" y1="106.9" y2="106.9" class="f0aad515-7ad9-45df-ab83-1f35aa91aec9"/><line x1="458.65" x2="455.57" y1="102.88" y2="102.88" class="f0aad515-7ad9-45df-ab83-1f35aa91aec9"/><line x1="474.76" x2="471.68" y1="110.93" y2="110.93" class="f0aad515-7ad9-45df-ab83-1f35aa91aec9"/><line x1="474.76" x2="471.68" y1="106.9" y2="106.9" class="f0aad515-7ad9-45df-ab83-1f35aa91aec9"/><line x1="474.76" x2="471.68" y1="102.88" y2="102.88" class="f0aad515-7ad9-45df-ab83-1f35aa91aec9"/><rect width="5.68" height="5.68" x="462.32" y="103.94" class="e3a70dc2-4442-4ba5-bd5d-d0d7fd4bf78e" rx="2"/><rect width="117" height="39.08" x="438.71" y="164.69" class="e3a70dc2-4442-4ba5-bd5d-d0d7fd4bf78e" rx="3"/><polygon points="478.97 191.88 478.97 176.58 465.71 168.93 452.45 176.58 452.45 191.88 465.71 199.53 478.97 191.88" class="f68635cb-cfa3-4a60-934b-de1f3aaa66c3"/><text class="fa63d417-f2ec-400c-87e0-6baf8392cc5e" transform="translate(501.17 188.68)">Proxy</text><line x1="151.4" x2="151.4" y1="134.36" y2="164.69" class="a0d2ecab-bc9b-44a8-82e3-34149afae16c"/><polygon points="146.41 135.81 151.4 127.18 156.38 135.81 146.41 135.81" class="b056d124-143c-4300-a481-77e2ca9932d3"/><line x1="224.68" x2="224.68" y1="127.18" y2="157.52" class="a0d2ecab-bc9b-44a8-82e3-34149afae16c"/><polygon points="219.69 156.06 224.68 164.69 229.66 156.06 219.69 156.06" class="b056d124-143c-4300-a481-77e2ca9932d3"/><line x1="241.59" x2="431.53" y1="184.23" y2="184.23" class="a0d2ecab-bc9b-44a8-82e3-34149afae16c"/><polygon points="430.07 189.22 438.71 184.23 430.07 179.25 430.07 189.22" class="b056d124-143c-4300-a481-77e2ca9932d3"/><line x2="117.41" y1="184.23" y2="184.23" class="a0d2ecab-bc9b-44a8-82e3-34149afae16c"/><polygon points="115.95 189.22 124.59 184.23 115.95 179.25 115.95 189.22" class="b056d124-143c-4300-a481-77e2ca9932d3"/><line x1="555.71" x2="673.12" y1="184.23" y2="184.23" class="a0d2ecab-bc9b-44a8-82e3-34149afae16c"/><polygon points="671.66 189.22 680.3 184.23 671.66 179.25 671.66 189.22" class="b056d124-143c-4300-a481-77e2ca9932d3"/><line x1="465.52" x2="465.52" y1="164.69" y2="134.36" class="a0d2ecab-bc9b-44a8-82e3-34149afae16c"/><polygon points="470.5 135.81 465.52 127.18 460.53 135.81 470.5 135.81" class="b056d124-143c-4300-a481-77e2ca9932d3"/><line x1="528.97" x2="528.97" y1="157.52" y2="127.18" class="a0d2ecab-bc9b-44a8-82e3-34149afae16c"/><polygon points="533.95 156.06 528.97 164.69 523.98 156.06 533.95 156.06" class="b056d124-143c-4300-a481-77e2ca9932d3"/><polyline points="340.2 378.3 340.2 332.99 183.09 332.99 183.09 210.95" class="a49b4615-bc1c-41bd-b1e8-640b1f8dd42a"/><polygon points="188.08 212.41 183.09 203.77 178.1 212.41 188.08 212.41" class="ee4e281a-3b21-4c59-b369-dc727cb09c08"/><polyline points="340.2 332.99 497.21 332.99 497.21 210.95" class="a49b4615-bc1c-41bd-b1e8-640b1f8dd42a"/><polygon points="502.2 212.41 497.21 203.77 492.22 212.41 502.2 212.41" class="ee4e281a-3b21-4c59-b369-dc727cb09c08"/><text class="e19d6d5f-3b64-431f-ab4c-95c6ae498f56" transform="translate(313.07 297.38)">Discovery<tspan x="-11.26" y="14.4">Configuration</tspan><tspan x="-4.25" y="28.8">Certificates</tspan></text><text class="e19d6d5f-3b64-431f-ab4c-95c6ae498f56" transform="translate(306.92 176.94)">Mesh traffic</text><text class="e19d6d5f-3b64-431f-ab4c-95c6ae498f56" transform="translate(65.64 355.04)">Control plane</text><text class="e19d6d5f-3b64-431f-ab4c-95c6ae498f56" transform="translate(69.28 116.18)">Data<tspan x="-2.41" y="14.4">plane</tspan></text><rect width="549.99" height="95.67" x="68.01" y="136.4" class="e8fd0efc-502d-4997-81f5-96257f07fc0e" rx="9"/><rect width="378.75" height="59.86" x="150.77" y="378.3" class="ea00890b-4b69-4c4d-b458-bb1f52794665" rx="3"/><text class="b1687d9f-cace-4cbf-9e86-85c41dc15326" transform="translate(197.69 412.46)">istiod</text><rect id="b243f9f5-a4f0-4ace-8728-20a55919deb2" width="27.55" height="27.55" x="165.65" y="394.45" class="b146f52f-4430-4517-8eda-8341602c0617" data-name="background"/><polygon id="bab6f098-e264-4a6f-a98c-5015ef270b55" points="172.47 415.7 186.38 415.7 177.72 418.33 172.47 415.7" class="e3a70dc2-4442-4ba5-bd5d-d0d7fd4bf78e" data-name="hull"/><polygon id="b00a4eed-a014-4f11-acfe-2bb9a5571d26" points="172.47 414.92 177.72 414.13 177.72 404.68 172.47 414.92" class="e3a70dc2-4442-4ba5-bd5d-d0d7fd4bf78e" data-name="mainsail"/><polygon id="ecdc0ee3-43a6-4e31-a101-a29aed72bde8" points="178.51 414.13 186.38 414.92 178.51 397.86 178.51 414.13" class="e3a70dc2-4442-4ba5-bd5d-d0d7fd4bf78e" data-name="headsail"/><path d="M514.24,422.43h-74.6a3,3,0,0,1-3-3V397a3.08,3.08,0,0,1,3-3h74.6a3.08,3.08,0,0,1,3,3v22.4A3,3,0,0,1,514.24,422.43Z" class="e3a70dc2-4442-4ba5-bd5d-d0d7fd4bf78e"/><text class="a4076c78-2611-4424-b247-c2b071534796" transform="translate(459.81 410.94)">Galley</text><path d="M326.91,422.43h-74.6a3,3,0,0,1-3-3V397a3.08,3.08,0,0,1,3-3h74.6a3.08,3.08,0,0,1,3,3v22.4A3,3,0,0,1,326.91,422.43Z" class="e3a70dc2-4442-4ba5-bd5d-d0d7fd4bf78e"/><text class="a4076c78-2611-4424-b247-c2b071534796" transform="translate(277.22 410.94)">Pilot</text><path d="M420.58,422.43H346a3,3,0,0,1-3-3V397a3.08,3.08,0,0,1,3-3h74.6a3.08,3.08,0,0,1,3,3v22.4A3,3,0,0,1,420.58,422.43Z" class="e3a70dc2-4442-4ba5-bd5d-d0d7fd4bf78e"/><text class="a4076c78-2611-4424-b247-c2b071534796" transform="translate(363.96 410.94)">Citadel</text></svg>