<svg version="1.1" viewBox="0.0 0.0 893.7112860892388 390.5485564304462" fill="none" stroke="none" stroke-linecap="square" stroke-miterlimit="10" xmlns:xlink="http://www.w3.org/1999/xlink" xmlns="http://www.w3.org/2000/svg"><clipPath id="p.0"><path d="m0 0l893.7113 0l0 390.54855l-893.7113 0l0 -390.54855z" clip-rule="nonzero"/></clipPath><g clip-path="url(#p.0)"><path fill="#000000" fill-opacity="0.0" d="m0 0l893.7113 0l0 390.54855l-893.7113 0z" fill-rule="evenodd"/><path fill="#ffffff" d="m21.15748 47.235344l0 0c0 -18.810537 15.248953 -34.05949 34.059494 -34.05949l383.53455 0c9.033142 0 17.69632 3.5884008 24.08371 9.975795c6.38739 6.387394 9.9758 15.050558 9.9758 24.083696l0 201.42432c0 18.810547 -15.248962 34.05948 -34.05951 34.05948l-383.53455 0c-18.81054 0 -34.059494 -15.248932 -34.059494 -34.05948z" fill-rule="evenodd"/><path stroke="#000000" stroke-width="1.0" stroke-linejoin="round" stroke-linecap="butt" d="m21.15748 47.235344l0 0c0 -18.810537 15.248953 -34.05949 34.059494 -34.05949l383.53455 0c9.033142 0 17.69632 3.5884008 24.08371 9.975795c6.38739 6.387394 9.9758 15.050558 9.9758 24.083696l0 201.42432c0 18.810547 -15.248962 34.05948 -34.05951 34.05948l-383.53455 0c-18.81054 0 -34.059494 -15.248932 -34.059494 -34.05948z" fill-rule="evenodd"/><path fill="#cfe2f3" d="m52.307087 83.97928l0 0c0 -7.6625595 6.211731 -13.87429 13.874294 -13.87429l134.7711 0c3.6796875 0 7.208664 1.4617538 9.810608 4.0636826c2.6019287 2.6019363 4.063675 6.1309204 4.063675 9.810608l0 55.495514c0 7.662552 -6.211731 13.874283 -13.874283 13.874283l-134.7711 0c-7.6625633 0 -13.874294 -6.211731 -13.874294 -13.874283z" fill-rule="evenodd"/><path stroke="#000000" stroke-width="1.0" stroke-linejoin="round" stroke-linecap="butt" d="m52.307087 83.97928l0 0c0 -7.6625595 6.211731 -13.87429 13.874294 -13.87429l134.7711 0c3.6796875 0 7.208664 1.4617538 9.810608 4.0636826c2.6019287 2.6019363 4.063675 6.1309204 4.063675 9.810608l0 55.495514c0 7.662552 -6.211731 13.874283 -13.874283 13.874283l-134.7711 0c-7.6625633 0 -13.874294 -6.211731 -13.874294 -13.874283z" fill-rule="evenodd"/><path fill="#000000" d="m87.90165 107.64703l5.125 -13.359375l1.90625 0l5.46875 13.359375l-2.015625 0l-1.546875 -4.046875l-5.59375 0l-1.46875 4.046875l-1.875 0zm3.859375 -5.484375l4.53125 0l-1.40625 -3.703125q-0.625 -1.6875 -0.9375 -2.765625q-0.265625 1.28125 -0.71875 2.546875l-1.46875 3.921875zm9.849823 9.1875l0 -13.375l1.484375 0l0 1.25q0.53125 -0.734375 1.1875 -1.09375q0.671875 -0.375 1.625 -0.375q1.234375 0 2.171875 0.640625q0.953125 0.625 1.4375 1.796875q0.484375 1.15625 0.484375 2.546875q0 1.484375 -0.53125 2.671875q-0.53125 1.1875 -1.546875 1.828125q-1.015625 0.625 -2.140625 0.625q-0.8125 0 -1.46875 -0.34375q-0.65625 -0.34375 -1.0625 -0.875l0 4.703125l-1.640625 0zm1.484375 -8.484375q0 1.859375 0.75 2.765625q0.765625 0.890625 1.828125 0.890625q1.09375 0 1.875 -0.921875q0.78125 -0.9375 0.78125 -2.875q0 -1.84375 -0.765625 -2.765625q-0.75 -0.921875 -1.8125 -0.921875q-1.046875 0 -1.859375 0.984375q-0.796875 0.96875 -0.796875 2.84375zm8.891342 8.484375l0 -13.375l1.484375 0l0 1.25q0.53125 -0.734375 1.1875 -1.09375q0.671875 -0.375 1.625 -0.375q1.234375 0 2.171875 0.640625q0.953125 0.625 1.4375 1.796875q0.484375 1.15625 0.484375 2.546875q0 1.484375 -0.53125 2.671875q-0.53125 1.1875 -1.546875 1.828125q-1.015625 0.625 -2.140625 0.625q-0.8125 0 -1.46875 -0.34375q-0.65625 -0.34375 -1.0625 -0.875l0 4.703125l-1.640625 0zm1.484375 -8.484375q0 1.859375 0.75 2.765625q0.765625 0.890625 1.828125 0.890625q1.09375 0 1.875 -0.921875q0.78125 -0.9375 0.78125 -2.875q0 -1.84375 -0.765625 -2.765625q-0.75 -0.921875 -1.8125 -0.921875q-1.046875 0 -1.859375 0.984375q-0.796875 0.96875 -0.796875 2.84375zm8.844467 4.78125l0 -13.359375l1.640625 0l0 13.359375l-1.640625 0zm4.191696 -11.46875l0 -1.890625l1.6406326 0l0 1.890625l-1.6406326 0zm0 11.46875l0 -9.671875l1.6406326 0l0 9.671875l-1.6406326 0zm10.457329 -3.546875l1.609375 0.21875q-0.265625 1.65625 -1.359375 2.609375q-1.078125 0.9375 -2.671875 0.9375q-1.984375 0 -3.1875 -1.296875q-1.203125 -1.296875 -1.203125 -3.71875q0 -1.578125 0.515625 -2.75q0.515625 -1.171875 1.578125 -1.75q1.0625 -0.59375 2.3125 -0.59375q1.578125 0 2.578125 0.796875q1.0 0.796875 1.28125 2.265625l-1.59375 0.234375q-0.234375 -0.96875 -0.8125 -1.453125q-0.578125 -0.5 -1.390625 -0.5q-1.234375 0 -2.015625 0.890625q-0.78125 0.890625 -0.78125 2.8125q0 1.953125 0.75 2.84375q0.75 0.875 1.953125 0.875q0.96875 0 1.609375 -0.59375q0.65625 -0.59375 0.828125 -1.828125zm9.328125 2.359375q-0.921875 0.765625 -1.765625 1.09375q-0.828125 0.3125 -1.796875 0.3125q-1.59375 0 -2.453125 -0.78125q-0.859375 -0.78125 -0.859375 -1.984375q0 -0.71875 0.328125 -1.296875q0.328125 -0.59375 0.84375 -0.9375q0.53125 -0.359375 1.1875 -0.546875q0.46875 -0.125 1.453125 -0.25q1.984375 -0.234375 2.921875 -0.5625q0.015625 -0.34375 0.015625 -0.421875q0 -1.0 -0.46875 -1.421875q-0.625 -0.546875 -1.875 -0.546875q-1.15625 0 -1.703125 0.40625q-0.546875 0.40625 -0.8125 1.421875l-1.609375 -0.21875q0.21875 -1.015625 0.71875 -1.640625q0.5 -0.640625 1.453125 -0.984375q0.953125 -0.34375 2.1875 -0.34375q1.25 0 2.015625 0.296875q0.78125 0.28125 1.140625 0.734375q0.375 0.4375 0.515625 1.109375q0.078125 0.421875 0.078125 1.515625l0 2.1875q0 2.28125 0.109375 2.890625q0.109375 0.59375 0.40625 1.15625l-1.703125 0q-0.265625 -0.515625 -0.328125 -1.1875zm-0.140625 -3.671875q-0.890625 0.375 -2.671875 0.625q-1.015625 0.140625 -1.4375 0.328125q-0.421875 0.1875 -0.65625 0.53125q-0.21875 0.34375 -0.21875 0.78125q0 0.65625 0.5 1.09375q0.5 0.4375 1.453125 0.4375q0.9375 0 1.671875 -0.40625q0.75 -0.421875 1.09375 -1.140625q0.265625 -0.5625 0.265625 -1.640625l0 -0.609375zm7.781967 3.390625l0.234375 1.453125q-0.6875 0.140625 -1.234375 0.140625q-0.890625 0 -1.390625 -0.28125q-0.484375 -0.28125 -0.6875 -0.734375q-0.203125 -0.46875 -0.203125 -1.9375l0 -5.578125l-1.203125 0l0 -1.265625l1.203125 0l0 -2.390625l1.625 -0.984375l0 3.375l1.65625 0l0 1.265625l-1.65625 0l0 5.671875q0 0.6875 0.078125 0.890625q0.09375 0.203125 0.28125 0.328125q0.203125 0.109375 0.578125 0.109375q0.265625 0 0.71875 -0.0625zm1.6051788 -10.0l0 -1.890625l1.640625 0l0 1.890625l-1.640625 0zm0 11.46875l0 -9.671875l1.640625 0l0 9.671875l-1.640625 0zm3.5354462 -4.84375q0 -2.6875 1.484375 -3.96875q1.25 -1.078125 3.046875 -1.078125q2.0 0 3.265625 1.3125q1.265625 1.296875 1.265625 3.609375q0 1.859375 -0.5625 2.9375q-0.5625 1.0625 -1.640625 1.65625q-1.0625 0.59375 -2.328125 0.59375q-2.03125 0 -3.28125 -1.296875q-1.25 -1.3125 -1.25 -3.765625zm1.6875 0q0 1.859375 0.796875 2.796875q0.8125 0.921875 2.046875 0.921875q1.21875 0 2.03125 -0.921875q0.8125 -0.9375 0.8125 -2.84375q0 -1.796875 -0.8125 -2.71875q-0.8125 -0.921875 -2.03125 -0.921875q-1.234375 0 -2.046875 0.921875q-0.796875 0.90625 -0.796875 2.765625zm9.297592 4.84375l0 -9.671875l1.46875 0l0 1.375q1.0625 -1.59375 3.078125 -1.59375q0.875 0 1.609375 0.3125q0.734375 0.3125 1.09375 0.828125q0.375 0.5 0.515625 1.203125q0.09375 0.453125 0.09375 1.59375l0 5.953125l-1.640625 0l0 -5.890625q0 -1.0 -0.203125 -1.484375q-0.1875 -0.5 -0.671875 -0.796875q-0.484375 -0.296875 -1.140625 -0.296875q-1.046875 0 -1.8125 0.671875q-0.75 0.65625 -0.75 2.515625l0 5.28125l-1.640625 0z" fill-rule="nonzero"/><path fill="#000000" d="m104.08951 124.95953l1.765625 0.453125q-0.5625 2.171875 -2.0 3.328125q-1.4375 1.140625 -3.53125 1.140625q-2.15625 0 -3.515625 -0.875q-1.34375 -0.890625 -2.0625 -2.546875q-0.703125 -1.671875 -0.703125 -3.59375q0 -2.078125 0.796875 -3.625q0.796875 -1.5625 2.265625 -2.359375q1.484375 -0.8125 3.25 -0.8125q2.0 0 3.359375 1.015625q1.375 1.015625 1.90625 2.875l-1.734375 0.40625q-0.46875 -1.453125 -1.359375 -2.109375q-0.875 -0.671875 -2.203125 -0.671875q-1.546875 0 -2.578125 0.734375q-1.03125 0.734375 -1.453125 1.984375q-0.421875 1.234375 -0.421875 2.5625q0 1.703125 0.5 2.96875q0.5 1.265625 1.546875 1.90625q1.046875 0.625 2.265625 0.625q1.484375 0 2.515625 -0.859375q1.03125 -0.859375 1.390625 -2.546875zm3.1291962 -0.15625q0 -2.6875 1.484375 -3.96875q1.25 -1.078125 3.046875 -1.078125q2.0 0 3.265625 1.3125q1.265625 1.296875 1.265625 3.609375q0 1.859375 -0.5625 2.9375q-0.5625 1.0625 -1.640625 1.65625q-1.0625 0.59375 -2.328125 0.59375q-2.03125 0 -3.28125 -1.296875q-1.25 -1.3125 -1.25 -3.765625zm1.6875 0q0 1.859375 0.796875 2.796875q0.8125 0.921875 2.046875 0.921875q1.21875 0 2.03125 -0.921875q0.8125 -0.9375 0.8125 -2.84375q0 -1.796875 -0.8125 -2.71875q-0.8125 -0.921875 -2.03125 -0.921875q-1.234375 0 -2.046875 0.921875q-0.796875 0.90625 -0.796875 2.765625zm9.297592 4.84375l0 -9.671875l1.46875 0l0 1.375q1.0625 -1.59375 3.078125 -1.59375q0.875 0 1.609375 0.3125q0.734375 0.3125 1.09375 0.828125q0.375 0.5 0.515625 1.203125q0.09375 0.453125 0.09375 1.59375l0 5.953125l-1.640625 0l0 -5.890625q0 -1.0 -0.203125 -1.484375q-0.1875 -0.5 -0.671875 -0.796875q-0.484375 -0.296875 -1.140625 -0.296875q-1.046875 0 -1.8125 0.671875q-0.75 0.65625 -0.75 2.515625l0 5.28125l-1.640625 0zm13.953842 -1.46875l0.234375 1.453125q-0.6875 0.140625 -1.234375 0.140625q-0.890625 0 -1.390625 -0.28125q-0.484375 -0.28125 -0.6875 -0.734375q-0.203125 -0.46875 -0.203125 -1.9375l0 -5.578125l-1.203125 0l0 -1.265625l1.203125 0l0 -2.390625l1.625 -0.984375l0 3.375l1.65625 0l0 1.265625l-1.65625 0l0 5.671875q0 0.6875 0.078125 0.890625q0.09375 0.203125 0.28125 0.328125q0.203125 0.109375 0.578125 0.109375q0.265625 0 0.71875 -0.0625zm7.917679 0.28125q-0.921875 0.765625 -1.765625 1.09375q-0.828125 0.3125 -1.796875 0.3125q-1.59375 0 -2.453125 -0.78125q-0.859375 -0.78125 -0.859375 -1.984375q0 -0.71875 0.328125 -1.296875q0.328125 -0.59375 0.84375 -0.9375q0.53125 -0.359375 1.1875 -0.546875q0.46875 -0.125 1.453125 -0.25q1.984375 -0.234375 2.921875 -0.5625q0.015625 -0.34375 0.015625 -0.421875q0 -1.0 -0.46875 -1.421875q-0.625 -0.546875 -1.875 -0.546875q-1.15625 0 -1.703125 0.40625q-0.546875 0.40625 -0.8125 1.421875l-1.609375 -0.21875q0.21875 -1.015625 0.71875 -1.640625q0.5 -0.640625 1.453125 -0.984375q0.953125 -0.34375 2.1875 -0.34375q1.25 0 2.015625 0.296875q0.78125 0.28125 1.140625 0.734375q0.375 0.4375 0.515625 1.109375q0.078125 0.421875 0.078125 1.515625l0 2.1875q0 2.28125 0.109375 2.890625q0.109375 0.59375 0.40625 1.15625l-1.703125 0q-0.265625 -0.515625 -0.328125 -1.1875zm-0.140625 -3.671875q-0.890625 0.375 -2.671875 0.625q-1.015625 0.140625 -1.4375 0.328125q-0.421875 0.1875 -0.65625 0.53125q-0.21875 0.34375 -0.21875 0.78125q0 0.65625 0.5 1.09375q0.5 0.4375 1.453125 0.4375q0.9375 0 1.671875 -0.40625q0.75 -0.421875 1.09375 -1.140625q0.265625 -0.5625 0.265625 -1.640625l0 -0.609375zm4.203842 -6.609375l0 -1.890625l1.640625 0l0 1.890625l-1.640625 0zm0 11.46875l0 -9.671875l1.640625 0l0 9.671875l-1.640625 0zm4.144821 0l0 -9.671875l1.46875 0l0 1.375q1.0625 -1.59375 3.078125 -1.59375q0.875 0 1.609375 0.3125q0.734375 0.3125 1.09375 0.828125q0.375 0.5 0.515625 1.203125q0.09375 0.453125 0.09375 1.59375l0 5.953125l-1.640625 0l0 -5.890625q0 -1.0 -0.203125 -1.484375q-0.1875 -0.5 -0.671875 -0.796875q-0.484375 -0.296875 -1.140625 -0.296875q-1.046875 0 -1.8125 0.671875q-0.75 0.65625 -0.75 2.515625l0 5.28125l-1.640625 0zm17.000717 -3.109375l1.6875 0.203125q-0.40625 1.484375 -1.484375 2.3125q-1.078125 0.8125 -2.765625 0.8125q-2.125 0 -3.375 -1.296875q-1.234375 -1.3125 -1.234375 -3.671875q0 -2.453125 1.25 -3.796875q1.265625 -1.34375 3.265625 -1.34375q1.9375 0 3.15625 1.328125q1.234375 1.3125 1.234375 3.703125q0 0.15625 0 0.4375l-7.21875 0q0.09375 1.59375 0.90625 2.453125q0.8125 0.84375 2.015625 0.84375q0.90625 0 1.546875 -0.46875q0.640625 -0.484375 1.015625 -1.515625zm-5.390625 -2.65625l5.40625 0q-0.109375 -1.21875 -0.625 -1.828125q-0.78125 -0.953125 -2.03125 -0.953125q-1.125 0 -1.90625 0.765625q-0.765625 0.75 -0.84375 2.015625zm9.125717 5.765625l0 -9.671875l1.46875 0l0 1.46875q0.5625 -1.03125 1.03125 -1.359375q0.484375 -0.328125 1.0625 -0.328125q0.828125 0 1.6875 0.53125l-0.5625 1.515625q-0.609375 -0.359375 -1.203125 -0.359375q-0.546875 0 -0.96875 0.328125q-0.421875 0.328125 -0.609375 0.890625q-0.28125 0.875 -0.28125 1.921875l0 5.0625l-1.625 0z" fill-rule="nonzero"/><path fill="#f3f3f3" d="m280.3517 83.97928l0 0c0 -7.6625595 6.211731 -13.87429 13.874298 -13.87429l134.77109 0c3.6796875 0 7.208679 1.4617538 9.810608 4.0636826c2.6019287 2.6019363 4.06369 6.1309204 4.06369 9.810608l0 55.495514c0 7.662552 -6.211731 13.874283 -13.874298 13.874283l-134.77109 0c-7.662567 0 -13.874298 -6.211731 -13.874298 -13.874283z" fill-rule="evenodd"/><path stroke="#000000" stroke-width="1.0" stroke-linejoin="round" stroke-linecap="butt" d="m280.3517 83.97928l0 0c0 -7.6625595 6.211731 -13.87429 13.874298 -13.87429l134.77109 0c3.6796875 0 7.208679 1.4617538 9.810608 4.0636826c2.6019287 2.6019363 4.06369 6.1309204 4.06369 9.810608l0 55.495514c0 7.662552 -6.211731 13.874283 -13.874298 13.874283l-134.77109 0c-7.662567 0 -13.874298 -6.211731 -13.874298 -13.874283z" fill-rule="evenodd"/><path fill="#000000" d="m328.57828 103.30328l2.625 -0.25q0.234375 1.3125 0.953125 1.9375q0.734375 0.609375 1.96875 0.609375q1.296875 0 1.953125 -0.546875q0.671875 -0.546875 0.671875 -1.28125q0 -0.484375 -0.28125 -0.8125q-0.28125 -0.328125 -0.96875 -0.578125q-0.484375 -0.15625 -2.171875 -0.578125q-2.15625 -0.546875 -3.03125 -1.328125q-1.234375 -1.09375 -1.234375 -2.6875q0 -1.015625 0.578125 -1.90625q0.578125 -0.890625 1.65625 -1.34375q1.09375 -0.46875 2.640625 -0.46875q2.515625 0 3.78125 1.109375q1.28125 1.09375 1.34375 2.9375l-2.703125 0.109375q-0.171875 -1.03125 -0.75 -1.46875q-0.5625 -0.453125 -1.703125 -0.453125q-1.171875 0 -1.84375 0.46875q-0.421875 0.3125 -0.421875 0.84375q0 0.46875 0.40625 0.796875q0.5 0.4375 2.46875 0.90625q1.96875 0.453125 2.90625 0.953125q0.953125 0.5 1.484375 1.359375q0.53125 0.859375 0.53125 2.125q0 1.15625 -0.640625 2.15625q-0.640625 1.0 -1.8125 1.484375q-1.15625 0.484375 -2.890625 0.484375q-2.53125 0 -3.890625 -1.171875q-1.359375 -1.171875 -1.625 -3.40625zm13.115448 -6.640625l0 -2.375l2.5625 0l0 2.375l-2.5625 0zm0 10.984375l0 -9.671875l2.5625 0l0 9.671875l-2.5625 0zm14.058319 0l-2.390625 0l0 -1.421875q-0.59375 0.828125 -1.40625 1.234375q-0.796875 0.40625 -1.609375 0.40625q-1.671875 0 -2.859375 -1.34375q-1.1875 -1.34375 -1.1875 -3.75q0 -2.453125 1.15625 -3.734375q1.15625 -1.28125 2.921875 -1.28125q1.625 0 2.8125 1.34375l0 -4.8125l2.5625 0l0 13.359375zm-6.84375 -5.046875q0 1.546875 0.4375 2.234375q0.609375 1.015625 1.71875 1.015625q0.890625 0 1.5 -0.75q0.625 -0.765625 0.625 -2.25q0 -1.671875 -0.609375 -2.40625q-0.59375 -0.734375 -1.53125 -0.734375q-0.90625 0 -1.53125 0.734375q-0.609375 0.71875 -0.609375 2.15625zm14.958466 1.96875l2.546875 0.421875q-0.484375 1.40625 -1.546875 2.140625q-1.0625 0.734375 -2.65625 0.734375q-2.515625 0 -3.734375 -1.65625q-0.953125 -1.3125 -0.953125 -3.328125q0 -2.40625 1.25 -3.765625q1.265625 -1.359375 3.1875 -1.359375q2.15625 0 3.40625 1.421875q1.25 1.421875 1.1875 4.375l-6.40625 0q0.03125 1.140625 0.609375 1.78125q0.59375 0.625 1.484375 0.625q0.59375 0 1.0 -0.328125q0.421875 -0.328125 0.625 -1.0625zm0.15625 -2.59375q-0.03125 -1.109375 -0.578125 -1.6875q-0.546875 -0.578125 -1.328125 -0.578125q-0.84375 0 -1.390625 0.609375q-0.546875 0.609375 -0.53125 1.65625l3.828125 0zm13.063232 -1.140625l-2.53125 0.453125q-0.125 -0.75 -0.578125 -1.125q-0.453125 -0.390625 -1.171875 -0.390625q-0.953125 0 -1.53125 0.65625q-0.5625 0.65625 -0.5625 2.203125q0 1.734375 0.578125 2.4375q0.578125 0.703125 1.546875 0.703125q0.734375 0 1.203125 -0.40625q0.46875 -0.421875 0.65625 -1.421875l2.515625 0.421875q-0.390625 1.734375 -1.515625 2.625q-1.109375 0.875 -2.96875 0.875q-2.125 0 -3.390625 -1.328125q-1.25 -1.34375 -1.25 -3.71875q0 -2.390625 1.265625 -3.71875q1.265625 -1.34375 3.421875 -1.34375q1.765625 0 2.796875 0.765625q1.046875 0.75 1.515625 2.3125zm3.844452 0.09375l-2.328125 -0.421875q0.40625 -1.40625 1.359375 -2.078125q0.953125 -0.671875 2.84375 -0.671875q1.703125 0 2.546875 0.40625q0.84375 0.40625 1.171875 1.03125q0.34375 0.625 0.34375 2.28125l-0.015625 3.0q0 1.265625 0.109375 1.875q0.125 0.609375 0.46875 1.296875l-2.53125 0q-0.109375 -0.25 -0.25 -0.75q-0.0625 -0.234375 -0.09375 -0.3125q-0.65625 0.640625 -1.40625 0.96875q-0.734375 0.3125 -1.59375 0.3125q-1.484375 0 -2.34375 -0.8125q-0.859375 -0.8125 -0.859375 -2.046875q0 -0.828125 0.390625 -1.46875q0.390625 -0.640625 1.09375 -0.96875q0.703125 -0.34375 2.03125 -0.609375q1.796875 -0.328125 2.484375 -0.625l0 -0.25q0 -0.75 -0.359375 -1.0625q-0.359375 -0.3125 -1.375 -0.3125q-0.6875 0 -1.078125 0.28125q-0.375 0.265625 -0.609375 0.9375zm3.421875 2.078125q-0.484375 0.15625 -1.5625 0.390625q-1.0625 0.21875 -1.390625 0.4375q-0.5 0.359375 -0.5 0.90625q0 0.53125 0.40625 0.9375q0.40625 0.390625 1.015625 0.390625q0.703125 0 1.328125 -0.46875q0.46875 -0.34375 0.609375 -0.84375q0.09375 -0.328125 0.09375 -1.25l0 -0.5zm7.5007324 4.640625l-2.5625 0l0 -9.671875l2.375 0l0 1.375q0.609375 -0.984375 1.09375 -1.28125q0.484375 -0.3125 1.109375 -0.3125q0.875 0 1.6875 0.484375l-0.796875 2.234375q-0.640625 -0.421875 -1.203125 -0.421875q-0.53125 0 -0.90625 0.296875q-0.375 0.296875 -0.59375 1.078125q-0.203125 0.765625 -0.203125 3.234375l0 2.984375z" fill-rule="nonzero"/><path fill="#000000" d="m332.13412 124.95953l1.765625 0.453125q-0.5625 2.171875 -2.0 3.328125q-1.4375 1.140625 -3.53125 1.140625q-2.15625 0 -3.515625 -0.875q-1.34375 -0.890625 -2.0625 -2.546875q-0.703125 -1.671875 -0.703125 -3.59375q0 -2.078125 0.796875 -3.625q0.796875 -1.5625 2.265625 -2.359375q1.484375 -0.8125 3.25 -0.8125q2.0 0 3.359375 1.015625q1.375 1.015625 1.90625 2.875l-1.734375 0.40625q-0.46875 -1.453125 -1.359375 -2.109375q-0.875 -0.671875 -2.203125 -0.671875q-1.546875 0 -2.578125 0.734375q-1.03125 0.734375 -1.453125 1.984375q-0.421875 1.234375 -0.421875 2.5625q0 1.703125 0.5 2.96875q0.5 1.265625 1.546875 1.90625q1.046875 0.625 2.265625 0.625q1.484375 0 2.515625 -0.859375q1.03125 -0.859375 1.390625 -2.546875zm3.1292114 -0.15625q0 -2.6875 1.484375 -3.96875q1.25 -1.078125 3.046875 -1.078125q2.0 0 3.265625 1.3125q1.265625 1.296875 1.265625 3.609375q0 1.859375 -0.5625 2.9375q-0.5625 1.0625 -1.640625 1.65625q-1.0625 0.59375 -2.328125 0.59375q-2.03125 0 -3.28125 -1.296875q-1.25 -1.3125 -1.25 -3.765625zm1.6875 0q0 1.859375 0.796875 2.796875q0.8125 0.921875 2.046875 0.921875q1.21875 0 2.03125 -0.921875q0.8125 -0.9375 0.8125 -2.84375q0 -1.796875 -0.8125 -2.71875q-0.8125 -0.921875 -2.03125 -0.921875q-1.234375 0 -2.046875 0.921875q-0.796875 0.90625 -0.796875 2.765625zm9.297577 4.84375l0 -9.671875l1.46875 0l0 1.375q1.0625 -1.59375 3.078125 -1.59375q0.875 0 1.609375 0.3125q0.734375 0.3125 1.09375 0.828125q0.375 0.5 0.515625 1.203125q0.09375 0.453125 0.09375 1.59375l0 5.953125l-1.640625 0l0 -5.890625q0 -1.0 -0.203125 -1.484375q-0.1875 -0.5 -0.671875 -0.796875q-0.484375 -0.296875 -1.140625 -0.296875q-1.046875 0 -1.8125 0.671875q-0.75 0.65625 -0.75 2.515625l0 5.28125l-1.640625 0zm13.953857 -1.46875l0.234375 1.453125q-0.6875 0.140625 -1.234375 0.140625q-0.890625 0 -1.390625 -0.28125q-0.484375 -0.28125 -0.6875 -0.734375q-0.203125 -0.46875 -0.203125 -1.9375l0 -5.578125l-1.203125 0l0 -1.265625l1.203125 0l0 -2.390625l1.625 -0.984375l0 3.375l1.65625 0l0 1.265625l-1.65625 0l0 5.671875q0 0.6875 0.078125 0.890625q0.09375 0.203125 0.28125 0.328125q0.203125 0.109375 0.578125 0.109375q0.265625 0 0.71875 -0.0625zm7.9176636 0.28125q-0.921875 0.765625 -1.765625 1.09375q-0.828125 0.3125 -1.796875 0.3125q-1.59375 0 -2.453125 -0.78125q-0.859375 -0.78125 -0.859375 -1.984375q0 -0.71875 0.328125 -1.296875q0.328125 -0.59375 0.84375 -0.9375q0.53125 -0.359375 1.1875 -0.546875q0.46875 -0.125 1.453125 -0.25q1.984375 -0.234375 2.921875 -0.5625q0.015625 -0.34375 0.015625 -0.421875q0 -1.0 -0.46875 -1.421875q-0.625 -0.546875 -1.875 -0.546875q-1.15625 0 -1.703125 0.40625q-0.546875 0.40625 -0.8125 1.421875l-1.609375 -0.21875q0.21875 -1.015625 0.71875 -1.640625q0.5 -0.640625 1.453125 -0.984375q0.953125 -0.34375 2.1875 -0.34375q1.25 0 2.015625 0.296875q0.78125 0.28125 1.140625 0.734375q0.375 0.4375 0.515625 1.109375q0.078125 0.421875 0.078125 1.515625l0 2.1875q0 2.28125 0.109375 2.890625q0.109375 0.59375 0.40625 1.15625l-1.703125 0q-0.265625 -0.515625 -0.328125 -1.1875zm-0.140625 -3.671875q-0.890625 0.375 -2.671875 0.625q-1.015625 0.140625 -1.4375 0.328125q-0.421875 0.1875 -0.65625 0.53125q-0.21875 0.34375 -0.21875 0.78125q0 0.65625 0.5 1.09375q0.5 0.4375 1.453125 0.4375q0.9375 0 1.671875 -0.40625q0.75 -0.421875 1.09375 -1.140625q0.265625 -0.5625 0.265625 -1.640625l0 -0.609375zm4.2038574 -6.609375l0 -1.890625l1.640625 0l0 1.890625l-1.640625 0zm0 11.46875l0 -9.671875l1.640625 0l0 9.671875l-1.640625 0zm4.144806 0l0 -9.671875l1.46875 0l0 1.375q1.0625 -1.59375 3.078125 -1.59375q0.875 0 1.609375 0.3125q0.734375 0.3125 1.09375 0.828125q0.375 0.5 0.515625 1.203125q0.09375 0.453125 0.09375 1.59375l0 5.953125l-1.640625 0l0 -5.890625q0 -1.0 -0.203125 -1.484375q-0.1875 -0.5 -0.671875 -0.796875q-0.484375 -0.296875 -1.140625 -0.296875q-1.046875 0 -1.8125 0.671875q-0.75 0.65625 -0.75 2.515625l0 5.28125l-1.640625 0zm17.000732 -3.109375l1.6875 0.203125q-0.40625 1.484375 -1.484375 2.3125q-1.078125 0.8125 -2.765625 0.8125q-2.125 0 -3.375 -1.296875q-1.234375 -1.3125 -1.234375 -3.671875q0 -2.453125 1.25 -3.796875q1.265625 -1.34375 3.265625 -1.34375q1.9375 0 3.15625 1.328125q1.234375 1.3125 1.234375 3.703125q0 0.15625 0 0.4375l-7.21875 0q0.09375 1.59375 0.90625 2.453125q0.8125 0.84375 2.015625 0.84375q0.90625 0 1.546875 -0.46875q0.640625 -0.484375 1.015625 -1.515625zm-5.390625 -2.65625l5.40625 0q-0.109375 -1.21875 -0.625 -1.828125q-0.78125 -0.953125 -2.03125 -0.953125q-1.125 0 -1.90625 0.765625q-0.765625 0.75 -0.84375 2.015625zm9.125702 5.765625l0 -9.671875l1.46875 0l0 1.46875q0.5625 -1.03125 1.03125 -1.359375q0.484375 -0.328125 1.0625 -0.328125q0.828125 0 1.6875 0.53125l-0.5625 1.515625q-0.609375 -0.359375 -1.203125 -0.359375q-0.546875 0 -0.96875 0.328125q-0.421875 0.328125 -0.609375 0.890625q-0.28125 0.875 -0.28125 1.921875l0 5.0625l-1.625 0z" fill-rule="nonzero"/><path fill="#f3f3f3" d="m185.8819 220.23097l0 0c0 -4.5211945 27.356445 -8.186356 61.102356 -8.186356c33.74591 0 61.102356 3.6651611 61.102356 8.186356l0 32.745407c0 4.5212097 -27.356445 8.18634 -61.102356 8.18634c-33.74591 0 -61.102356 -3.6651306 -61.102356 -8.18634z" fill-rule="evenodd"/><path fill="#000000" fill-opacity="0.0" d="m308.0866 220.23097l0 0c0 4.5211945 -27.356445 8.186356 -61.102356 8.186356c-33.74591 0 -61.102356 -3.6651611 -61.102356 -8.186356" fill-rule="evenodd"/><path fill="#000000" fill-opacity="0.0" d="m185.8819 220.23097l0 0c0 -4.5211945 27.356445 -8.186356 61.102356 -8.186356c33.74591 0 61.102356 3.6651611 61.102356 8.186356l0 32.745407c0 4.5212097 -27.356445 8.18634 -61.102356 8.18634c-33.74591 0 -61.102356 -3.6651306 -61.102356 -8.18634z" fill-rule="evenodd"/><path stroke="#000000" stroke-width="1.0" stroke-linejoin="round" stroke-linecap="butt" d="m308.0866 220.23097l0 0c0 4.5211945 -27.356445 8.186356 -61.102356 8.186356c-33.74591 0 -61.102356 -3.6651611 -61.102356 -8.186356" fill-rule="evenodd"/><path stroke="#000000" stroke-width="1.0" stroke-linejoin="round" stroke-linecap="butt" d="m185.8819 220.23097l0 0c0 -4.5211945 27.356445 -8.186356 61.102356 -8.186356c33.74591 0 61.102356 3.6651611 61.102356 8.186356l0 32.745407c0 4.5212097 -27.356445 8.18634 -61.102356 8.18634c-33.74591 0 -61.102356 -3.6651306 -61.102356 -8.18634z" fill-rule="evenodd"/><path fill="#000000" d="m220.83568 247.61685l-3.6875 -9.671875l1.734375 0l2.078125 5.796875q0.328125 0.9375 0.625 1.9375q0.203125 -0.765625 0.609375 -1.828125l2.140625 -5.90625l1.6875 0l-3.65625 9.671875l-1.53125 0zm6.03125 -4.84375q0 -2.6875 1.484375 -3.96875q1.25 -1.078125 3.046875 -1.078125q2.0 0 3.265625 1.3125q1.265625 1.296875 1.265625 3.609375q0 1.859375 -0.5625 2.9375q-0.5625 1.0625 -1.640625 1.65625q-1.0625 0.59375 -2.328125 0.59375q-2.03125 0 -3.28125 -1.296875q-1.25 -1.3125 -1.25 -3.765625zm1.6875 0q0 1.859375 0.796875 2.796875q0.8125 0.921875 2.046875 0.921875q1.21875 0 2.03125 -0.921875q0.8125 -0.9375 0.8125 -2.84375q0 -1.796875 -0.8125 -2.71875q-0.8125 -0.921875 -2.03125 -0.921875q-1.234375 0 -2.046875 0.921875q-0.796875 0.90625 -0.796875 2.765625zm9.250717 4.84375l0 -13.359375l1.640625 0l0 13.359375l-1.640625 0zm10.519821 0l0 -1.421875q-1.125 1.640625 -3.0625 1.640625q-0.859375 0 -1.609375 -0.328125q-0.734375 -0.328125 -1.09375 -0.828125q-0.359375 -0.5 -0.5 -1.21875q-0.109375 -0.46875 -0.109375 -1.53125l0 -5.984375l1.640625 0l0 5.359375q0 1.28125 0.109375 1.734375q0.15625 0.640625 0.65625 1.015625q0.5 0.375 1.234375 0.375q0.734375 0 1.375 -0.375q0.65625 -0.390625 0.921875 -1.03125q0.265625 -0.65625 0.265625 -1.890625l0 -5.1875l1.640625 0l0 9.671875l-1.46875 0zm4.047592 0l0 -9.671875l1.46875 0l0 1.359375q0.453125 -0.71875 1.203125 -1.140625q0.765625 -0.4375 1.71875 -0.4375q1.078125 0 1.765625 0.453125q0.6875 0.4375 0.96875 1.234375q1.15625 -1.6875 2.984375 -1.6875q1.453125 0 2.21875 0.796875q0.78125 0.796875 0.78125 2.453125l0 6.640625l-1.640625 0l0 -6.09375q0 -0.984375 -0.15625 -1.40625q-0.15625 -0.4375 -0.578125 -0.703125q-0.421875 -0.265625 -0.984375 -0.265625q-1.015625 0 -1.6875 0.6875q-0.671875 0.671875 -0.671875 2.15625l0 5.625l-1.640625 0l0 -6.28125q0 -1.09375 -0.40625 -1.640625q-0.40625 -0.546875 -1.3125 -0.546875q-0.6875 0 -1.28125 0.359375q-0.59375 0.359375 -0.859375 1.0625q-0.25 0.703125 -0.25 2.03125l0 5.015625l-1.640625 0zm22.165802 -3.109375l1.6875 0.203125q-0.40625 1.484375 -1.484375 2.3125q-1.078125 0.8125 -2.765625 0.8125q-2.125 0 -3.375 -1.296875q-1.234375 -1.3125 -1.234375 -3.671875q0 -2.453125 1.25 -3.796875q1.265625 -1.34375 3.265625 -1.34375q1.9375 0 3.15625 1.328125q1.234375 1.3125 1.234375 3.703125q0 0.15625 0 0.4375l-7.21875 0q0.09375 1.59375 0.90625 2.453125q0.8125 0.84375 2.015625 0.84375q0.90625 0 1.546875 -0.46875q0.640625 -0.484375 1.015625 -1.515625zm-5.390625 -2.65625l5.40625 0q-0.109375 -1.21875 -0.625 -1.828125q-0.78125 -0.953125 -2.03125 -0.953125q-1.125 0 -1.90625 0.765625q-0.765625 0.75 -0.84375 2.015625z" fill-rule="nonzero"/><path fill="#000000" fill-opacity="0.0" d="m133.56693 153.34908l0 83.244095l52.314972 0" fill-rule="evenodd"/><path stroke="#000000" stroke-width="1.0" stroke-linejoin="round" stroke-linecap="butt" d="m133.56693 153.34908l0 83.244095l46.314972 0" fill-rule="evenodd"/><path fill="#000000" stroke="#000000" stroke-width="1.0" stroke-linecap="butt" d="m179.8819 238.2449l4.538086 -1.6517334l-4.538086 -1.6517334z" fill-rule="evenodd"/><path fill="#000000" fill-opacity="0.0" d="m308.0866 236.60367l53.51181 0l0 -83.244095" fill-rule="evenodd"/><path stroke="#000000" stroke-width="1.0" stroke-linejoin="round" stroke-linecap="butt" d="m308.0866 236.60367l53.51181 0l0 -77.244095" fill-rule="evenodd"/><path fill="#000000" stroke="#000000" stroke-width="1.0" stroke-linecap="butt" d="m363.25015 159.35957l-1.6517334 -4.538086l-1.6517334 4.538086z" fill-rule="evenodd"/><path fill="#000000" fill-opacity="0.0" d="m280.3517 111.727036l-65.511826 0" fill-rule="evenodd"/><path stroke="#000000" stroke-width="1.0" stroke-linejoin="round" stroke-linecap="butt" d="m274.3517 111.727036l-53.511826 0" fill-rule="evenodd"/><path fill="#000000" stroke="#000000" stroke-width="1.0" stroke-linecap="butt" d="m274.3517 113.37877l4.538086 -1.6517334l-4.538086 -1.6517334z" fill-rule="evenodd"/><path fill="#000000" stroke="#000000" stroke-width="1.0" stroke-linecap="butt" d="m220.83989 110.0753l-4.538086 1.6517334l4.538086 1.6517334z" fill-rule="evenodd"/><path fill="#000000" fill-opacity="0.0" d="m209.25197 22.761154l75.464554 0l0 42.015747l-75.464554 0z" fill-rule="evenodd"/><path fill="#000000" d="m222.94635 49.681152l0 -13.359375l4.328125 0q2.453125 0 3.203125 0.203125q1.140625 0.296875 1.921875 1.3125q0.78125 1.0 0.78125 2.59375q0 1.234375 -0.453125 2.078125q-0.453125 0.828125 -1.140625 1.3125q-0.6875 0.46875 -1.390625 0.625q-0.96875 0.203125 -2.796875 0.203125l-1.765625 0l0 5.03125l-2.6875 0zm2.6875 -11.09375l0 3.78125l1.484375 0q1.59375 0 2.125 -0.203125q0.546875 -0.203125 0.84375 -0.65625q0.3125 -0.453125 0.3125 -1.03125q0 -0.734375 -0.4375 -1.203125q-0.421875 -0.484375 -1.078125 -0.59375q-0.484375 -0.09375 -1.9375 -0.09375l-1.3125 0zm9.146698 6.125q0 -1.28125 0.625 -2.46875q0.625 -1.203125 1.78125 -1.828125q1.15625 -0.625 2.578125 -0.625q2.1875 0 3.59375 1.421875q1.40625 1.421875 1.40625 3.609375q0 2.1875 -1.421875 3.640625q-1.421875 1.4375 -3.5625 1.4375q-1.328125 0 -2.546875 -0.59375q-1.203125 -0.609375 -1.828125 -1.765625q-0.625 -1.171875 -0.625 -2.828125zm2.625 0.125q0 1.453125 0.671875 2.21875q0.6875 0.75 1.6875 0.75q1.0 0 1.671875 -0.75q0.6875 -0.765625 0.6875 -2.234375q0 -1.421875 -0.6875 -2.1875q-0.671875 -0.765625 -1.671875 -0.765625q-1.0 0 -1.6875 0.765625q-0.671875 0.765625 -0.671875 2.203125zm18.23973 4.84375l-2.390625 0l0 -1.421875q-0.59375 0.828125 -1.40625 1.234375q-0.796875 0.40625 -1.609375 0.40625q-1.671875 0 -2.859375 -1.34375q-1.1875 -1.34375 -1.1875 -3.75q0 -2.453125 1.15625 -3.734375q1.15625 -1.28125 2.921875 -1.28125q1.625 0 2.8125 1.34375l0 -4.8125l2.5625 0l0 13.359375zm-6.84375 -5.046875q0 1.546875 0.4375 2.234375q0.609375 1.015625 1.71875 1.015625q0.890625 0 1.5 -0.75q0.625 -0.765625 0.625 -2.25q0 -1.671875 -0.609375 -2.40625q-0.59375 -0.734375 -1.53125 -0.734375q-0.90625 0 -1.53125 0.734375q-0.609375 0.71875 -0.609375 2.15625zm20.54805 5.046875l-2.5625 0l0 -9.640625q-1.40625 1.3125 -3.3125 1.9375l0 -2.328125q1.015625 -0.328125 2.1875 -1.234375q1.171875 -0.921875 1.609375 -2.140625l2.078125 0l0 13.40625z" fill-rule="nonzero"/><path fill="#ffffff" d="m525.94226 52.931595l0 0c0 -21.962288 17.803955 -39.76624 39.766235 -39.76624l248.68799 0c10.546692 0 20.661377 4.189645 28.118958 11.647262c7.4576416 7.457617 11.647278 17.572313 11.647278 28.118979l0 182.82973c0 21.96228 -17.803955 39.766235 -39.766235 39.766235l-248.68799 0c-21.96228 0 -39.766235 -17.803955 -39.766235 -39.766235z" fill-rule="evenodd"/><path stroke="#000000" stroke-width="1.0" stroke-linejoin="round" stroke-linecap="butt" d="m525.94226 52.931595l0 0c0 -21.962288 17.803955 -39.76624 39.766235 -39.76624l248.68799 0c10.546692 0 20.661377 4.189645 28.118958 11.647262c7.4576416 7.457617 11.647278 17.572313 11.647278 28.118979l0 182.82973c0 21.96228 -17.803955 39.766235 -39.766235 39.766235l-248.68799 0c-21.96228 0 -39.766235 -17.803955 -39.766235 -39.766235z" fill-rule="evenodd"/><path fill="#f3f3f3" d="m537.3412 83.97928l0 0c0 -7.6625595 6.211731 -13.87429 13.874329 -13.87429l82.456116 0c3.6796875 0 7.208679 1.4617538 9.810608 4.0636826c2.6019287 2.6019363 4.0637207 6.1309204 4.0637207 9.810608l0 55.495514c0 7.662552 -6.211731 13.874283 -13.874329 13.874283l-82.456116 0l0 0c-7.6625977 0 -13.874329 -6.211731 -13.874329 -13.874283z" fill-rule="evenodd"/><path stroke="#000000" stroke-width="1.0" stroke-linejoin="round" stroke-linecap="butt" d="m537.3412 83.97928l0 0c0 -7.6625595 6.211731 -13.87429 13.874329 -13.87429l82.456116 0c3.6796875 0 7.208679 1.4617538 9.810608 4.0636826c2.6019287 2.6019363 4.0637207 6.1309204 4.0637207 9.810608l0 55.495514c0 7.662552 -6.211731 13.874283 -13.874329 13.874283l-82.456116 0l0 0c-7.6625977 0 -13.874329 -6.211731 -13.874329 -13.874283z" fill-rule="evenodd"/><path fill="#000000" d="m561.6591 103.35016l1.65625 -0.140625q0.125 1.0 0.546875 1.640625q0.4375 0.640625 1.34375 1.046875q0.921875 0.390625 2.0625 0.390625q1.0 0 1.78125 -0.296875q0.78125 -0.296875 1.15625 -0.8125q0.375 -0.53125 0.375 -1.15625q0 -0.625 -0.375 -1.09375q-0.359375 -0.46875 -1.1875 -0.796875q-0.546875 -0.203125 -2.390625 -0.640625q-1.828125 -0.453125 -2.5625 -0.84375q-0.96875 -0.5 -1.4375 -1.234375q-0.46875 -0.75 -0.46875 -1.671875q0 -1.0 0.578125 -1.875q0.578125 -0.890625 1.671875 -1.34375q1.109375 -0.453125 2.453125 -0.453125q1.484375 0 2.609375 0.484375q1.140625 0.46875 1.75 1.40625q0.609375 0.921875 0.65625 2.09375l-1.6875 0.125q-0.140625 -1.265625 -0.9375 -1.90625q-0.78125 -0.65625 -2.3125 -0.65625q-1.609375 0 -2.34375 0.59375q-0.734375 0.59375 -0.734375 1.421875q0 0.71875 0.53125 1.171875q0.5 0.46875 2.65625 0.96875q2.15625 0.484375 2.953125 0.84375q1.171875 0.53125 1.71875 1.359375q0.5625 0.828125 0.5625 1.90625q0 1.0625 -0.609375 2.015625q-0.609375 0.9375 -1.75 1.46875q-1.140625 0.515625 -2.578125 0.515625q-1.8125 0 -3.046875 -0.53125q-1.21875 -0.53125 -1.921875 -1.59375q-0.6875 -1.0625 -0.71875 -2.40625zm12.8342285 -7.171875l0 -1.890625l1.640625 0l0 1.890625l-1.640625 0zm0 11.46875l0 -9.671875l1.640625 0l0 9.671875l-1.640625 0zm10.410461 0l0 -1.21875q-0.90625 1.4375 -2.703125 1.4375q-1.15625 0 -2.125 -0.640625q-0.96875 -0.640625 -1.5 -1.78125q-0.53125 -1.140625 -0.53125 -2.625q0 -1.453125 0.484375 -2.625q0.484375 -1.1875 1.4375 -1.8125q0.96875 -0.625 2.171875 -0.625q0.875 0 1.546875 0.375q0.6875 0.359375 1.109375 0.953125l0 -4.796875l1.640625 0l0 13.359375l-1.53125 0zm-5.171875 -4.828125q0 1.859375 0.78125 2.78125q0.78125 0.921875 1.84375 0.921875q1.078125 0 1.828125 -0.875q0.75 -0.890625 0.75 -2.6875q0 -1.984375 -0.765625 -2.90625q-0.765625 -0.9375 -1.890625 -0.9375q-1.078125 0 -1.8125 0.890625q-0.734375 0.890625 -0.734375 2.8125zm15.906921 1.71875l1.6875 0.203125q-0.40625 1.484375 -1.484375 2.3125q-1.078125 0.8125 -2.765625 0.8125q-2.125 0 -3.375 -1.296875q-1.234375 -1.3125 -1.234375 -3.671875q0 -2.453125 1.25 -3.796875q1.265625 -1.34375 3.265625 -1.34375q1.9375 0 3.15625 1.328125q1.234375 1.3125 1.234375 3.703125q0 0.15625 0 0.4375l-7.21875 0q0.09375 1.59375 0.90625 2.453125q0.8125 0.84375 2.015625 0.84375q0.90625 0 1.546875 -0.46875q0.640625 -0.484375 1.015625 -1.515625zm-5.390625 -2.65625l5.40625 0q-0.109375 -1.21875 -0.625 -1.828125q-0.78125 -0.953125 -2.03125 -0.953125q-1.125 0 -1.90625 0.765625q-0.765625 0.75 -0.84375 2.015625zm15.453857 2.21875l1.609375 0.21875q-0.265625 1.65625 -1.359375 2.609375q-1.078125 0.9375 -2.671875 0.9375q-1.984375 0 -3.1875 -1.296875q-1.203125 -1.296875 -1.203125 -3.71875q0 -1.578125 0.515625 -2.75q0.515625 -1.171875 1.578125 -1.75q1.0625 -0.59375 2.3125 -0.59375q1.578125 0 2.578125 0.796875q1.0 0.796875 1.28125 2.265625l-1.59375 0.234375q-0.234375 -0.96875 -0.8125 -1.453125q-0.578125 -0.5 -1.390625 -0.5q-1.234375 0 -2.015625 0.890625q-0.78125 0.890625 -0.78125 2.8125q0 1.953125 0.75 2.84375q0.75 0.875 1.953125 0.875q0.96875 0 1.609375 -0.59375q0.65625 -0.59375 0.828125 -1.828125zm9.328125 2.359375q-0.921875 0.765625 -1.765625 1.09375q-0.828125 0.3125 -1.796875 0.3125q-1.59375 0 -2.453125 -0.78125q-0.859375 -0.78125 -0.859375 -1.984375q0 -0.71875 0.328125 -1.296875q0.328125 -0.59375 0.84375 -0.9375q0.53125 -0.359375 1.1875 -0.546875q0.46875 -0.125 1.453125 -0.25q1.984375 -0.234375 2.921875 -0.5625q0.015625 -0.34375 0.015625 -0.421875q0 -1.0 -0.46875 -1.421875q-0.625 -0.546875 -1.875 -0.546875q-1.15625 0 -1.703125 0.40625q-0.546875 0.40625 -0.8125 1.421875l-1.609375 -0.21875q0.21875 -1.015625 0.71875 -1.640625q0.5 -0.640625 1.453125 -0.984375q0.953125 -0.34375 2.1875 -0.34375q1.25 0 2.015625 0.296875q0.78125 0.28125 1.140625 0.734375q0.375 0.4375 0.515625 1.109375q0.078125 0.421875 0.078125 1.515625l0 2.1875q0 2.28125 0.109375 2.890625q0.109375 0.59375 0.40625 1.15625l-1.703125 0q-0.265625 -0.515625 -0.328125 -1.1875zm-0.140625 -3.671875q-0.890625 0.375 -2.671875 0.625q-1.015625 0.140625 -1.4375 0.328125q-0.421875 0.1875 -0.65625 0.53125q-0.21875 0.34375 -0.21875 0.78125q0 0.65625 0.5 1.09375q0.5 0.4375 1.453125 0.4375q0.9375 0 1.671875 -0.40625q0.75 -0.421875 1.09375 -1.140625q0.265625 -0.5625 0.265625 -1.640625l0 -0.609375zm4.1882324 4.859375l0 -9.671875l1.46875 0l0 1.46875q0.5625 -1.03125 1.03125 -1.359375q0.484375 -0.328125 1.0625 -0.328125q0.828125 0 1.6875 0.53125l-0.5625 1.515625q-0.609375 -0.359375 -1.203125 -0.359375q-0.546875 0 -0.96875 0.328125q-0.421875 0.328125 -0.609375 0.890625q-0.28125 0.875 -0.28125 1.921875l0 5.0625l-1.625 0z" fill-rule="nonzero"/><path fill="#000000" d="m562.9661 124.95953l1.765625 0.453125q-0.5625 2.171875 -2.0 3.328125q-1.4375 1.140625 -3.53125 1.140625q-2.15625 0 -3.515625 -0.875q-1.34375 -0.890625 -2.0625 -2.546875q-0.703125 -1.671875 -0.703125 -3.59375q0 -2.078125 0.796875 -3.625q0.796875 -1.5625 2.265625 -2.359375q1.484375 -0.8125 3.25 -0.8125q2.0 0 3.359375 1.015625q1.375 1.015625 1.90625 2.875l-1.734375 0.40625q-0.46875 -1.453125 -1.359375 -2.109375q-0.875 -0.671875 -2.203125 -0.671875q-1.546875 0 -2.578125 0.734375q-1.03125 0.734375 -1.453125 1.984375q-0.421875 1.234375 -0.421875 2.5625q0 1.703125 0.5 2.96875q0.5 1.265625 1.546875 1.90625q1.046875 0.625 2.265625 0.625q1.484375 0 2.515625 -0.859375q1.03125 -0.859375 1.390625 -2.546875zm3.1292114 -0.15625q0 -2.6875 1.484375 -3.96875q1.25 -1.078125 3.046875 -1.078125q2.0 0 3.265625 1.3125q1.265625 1.296875 1.265625 3.609375q0 1.859375 -0.5625 2.9375q-0.5625 1.0625 -1.640625 1.65625q-1.0625 0.59375 -2.328125 0.59375q-2.03125 0 -3.28125 -1.296875q-1.25 -1.3125 -1.25 -3.765625zm1.6875 0q0 1.859375 0.796875 2.796875q0.8125 0.921875 2.046875 0.921875q1.21875 0 2.03125 -0.921875q0.8125 -0.9375 0.8125 -2.84375q0 -1.796875 -0.8125 -2.71875q-0.8125 -0.921875 -2.03125 -0.921875q-1.234375 0 -2.046875 0.921875q-0.796875 0.90625 -0.796875 2.765625zm9.297607 4.84375l0 -9.671875l1.46875 0l0 1.375q1.0625 -1.59375 3.078125 -1.59375q0.875 0 1.609375 0.3125q0.734375 0.3125 1.09375 0.828125q0.375 0.5 0.515625 1.203125q0.09375 0.453125 0.09375 1.59375l0 5.953125l-1.640625 0l0 -5.890625q0 -1.0 -0.203125 -1.484375q-0.1875 -0.5 -0.671875 -0.796875q-0.484375 -0.296875 -1.140625 -0.296875q-1.046875 0 -1.8125 0.671875q-0.75 0.65625 -0.75 2.515625l0 5.28125l-1.640625 0zm13.953857 -1.46875l0.234375 1.453125q-0.6875 0.140625 -1.234375 0.140625q-0.890625 0 -1.390625 -0.28125q-0.484375 -0.28125 -0.6875 -0.734375q-0.203125 -0.46875 -0.203125 -1.9375l0 -5.578125l-1.203125 0l0 -1.265625l1.203125 0l0 -2.390625l1.625 -0.984375l0 3.375l1.65625 0l0 1.265625l-1.65625 0l0 5.671875q0 0.6875 0.078125 0.890625q0.09375 0.203125 0.28125 0.328125q0.203125 0.109375 0.578125 0.109375q0.265625 0 0.71875 -0.0625zm7.9176636 0.28125q-0.921875 0.765625 -1.765625 1.09375q-0.828125 0.3125 -1.796875 0.3125q-1.59375 0 -2.453125 -0.78125q-0.859375 -0.78125 -0.859375 -1.984375q0 -0.71875 0.328125 -1.296875q0.328125 -0.59375 0.84375 -0.9375q0.53125 -0.359375 1.1875 -0.546875q0.46875 -0.125 1.453125 -0.25q1.984375 -0.234375 2.921875 -0.5625q0.015625 -0.34375 0.015625 -0.421875q0 -1.0 -0.46875 -1.421875q-0.625 -0.546875 -1.875 -0.546875q-1.15625 0 -1.703125 0.40625q-0.546875 0.40625 -0.8125 1.421875l-1.609375 -0.21875q0.21875 -1.015625 0.71875 -1.640625q0.5 -0.640625 1.453125 -0.984375q0.953125 -0.34375 2.1875 -0.34375q1.25 0 2.015625 0.296875q0.78125 0.28125 1.140625 0.734375q0.375 0.4375 0.515625 1.109375q0.078125 0.421875 0.078125 1.515625l0 2.1875q0 2.28125 0.109375 2.890625q0.109375 0.59375 0.40625 1.15625l-1.703125 0q-0.265625 -0.515625 -0.328125 -1.1875zm-0.140625 -3.671875q-0.890625 0.375 -2.671875 0.625q-1.015625 0.140625 -1.4375 0.328125q-0.421875 0.1875 -0.65625 0.53125q-0.21875 0.34375 -0.21875 0.78125q0 0.65625 0.5 1.09375q0.5 0.4375 1.453125 0.4375q0.9375 0 1.671875 -0.40625q0.75 -0.421875 1.09375 -1.140625q0.265625 -0.5625 0.265625 -1.640625l0 -0.609375zm4.2038574 -6.609375l0 -1.890625l1.640625 0l0 1.890625l-1.640625 0zm0 11.46875l0 -9.671875l1.640625 0l0 9.671875l-1.640625 0zm4.1447754 0l0 -9.671875l1.46875 0l0 1.375q1.0625 -1.59375 3.078125 -1.59375q0.875 0 1.609375 0.3125q0.734375 0.3125 1.09375 0.828125q0.375 0.5 0.515625 1.203125q0.09375 0.453125 0.09375 1.59375l0 5.953125l-1.640625 0l0 -5.890625q0 -1.0 -0.203125 -1.484375q-0.1875 -0.5 -0.671875 -0.796875q-0.484375 -0.296875 -1.140625 -0.296875q-1.046875 0 -1.8125 0.671875q-0.75 0.65625 -0.75 2.515625l0 5.28125l-1.640625 0zm17.000732 -3.109375l1.6875 0.203125q-0.40625 1.484375 -1.484375 2.3125q-1.078125 0.8125 -2.765625 0.8125q-2.125 0 -3.375 -1.296875q-1.234375 -1.3125 -1.234375 -3.671875q0 -2.453125 1.25 -3.796875q1.265625 -1.34375 3.265625 -1.34375q1.9375 0 3.15625 1.328125q1.234375 1.3125 1.234375 3.703125q0 0.15625 0 0.4375l-7.21875 0q0.09375 1.59375 0.90625 2.453125q0.8125 0.84375 2.015625 0.84375q0.90625 0 1.546875 -0.46875q0.640625 -0.484375 1.015625 -1.515625zm-5.390625 -2.65625l5.40625 0q-0.109375 -1.21875 -0.625 -1.828125q-0.78125 -0.953125 -2.03125 -0.953125q-1.125 0 -1.90625 0.765625q-0.765625 0.75 -0.84375 2.015625zm9.125732 5.765625l0 -9.671875l1.46875 0l0 1.46875q0.5625 -1.03125 1.03125 -1.359375q0.484375 -0.328125 1.0625 -0.328125q0.828125 0 1.6875 0.53125l-0.5625 1.515625q-0.609375 -0.359375 -1.203125 -0.359375q-0.546875 0 -0.96875 0.328125q-0.421875 0.328125 -0.609375 0.890625q-0.28125 0.875 -0.28125 1.921875l0 5.0625l-1.625 0z" fill-rule="nonzero"/><path fill="#000000" fill-opacity="0.0" d="m442.8714 111.727036l94.456665 0" fill-rule="evenodd"/><path stroke="#000000" stroke-width="2.0" stroke-linejoin="round" stroke-linecap="butt" d="m454.8714 111.727036l70.456665 0" fill-rule="evenodd"/><path fill="#000000" stroke="#000000" stroke-width="2.0" stroke-linecap="butt" d="m454.8714 108.42357l-9.076202 3.3034668l9.076202 3.3034668z" fill-rule="evenodd"/><path fill="#000000" stroke="#000000" stroke-width="2.0" stroke-linecap="butt" d="m525.32806 115.0305l9.076233 -3.3034668l-9.076233 -3.3034668z" fill-rule="evenodd"/><path fill="#cfe2f3" d="m658.92126 83.97928l0 0c0 -7.6625595 6.211731 -13.87429 13.874268 -13.87429l134.77112 0c3.6796875 0 7.208679 1.4617538 9.810608 4.0636826c2.6019287 2.6019363 4.0636597 6.1309204 4.0636597 9.810608l0 55.495514c0 7.662552 -6.211731 13.874283 -13.874268 13.874283l-134.77112 0c-7.6625366 0 -13.874268 -6.211731 -13.874268 -13.874283z" fill-rule="evenodd"/><path stroke="#000000" stroke-width="1.0" stroke-linejoin="round" stroke-linecap="butt" d="m658.92126 83.97928l0 0c0 -7.6625595 6.211731 -13.87429 13.874268 -13.87429l134.77112 0c3.6796875 0 7.208679 1.4617538 9.810608 4.0636826c2.6019287 2.6019363 4.0636597 6.1309204 4.0636597 9.810608l0 55.495514c0 7.662552 -6.211731 13.874283 -13.874268 13.874283l-134.77112 0c-7.6625366 0 -13.874268 -6.211731 -13.874268 -13.874283z" fill-rule="evenodd"/><path fill="#000000" d="m694.5158 107.64703l5.125 -13.359375l1.90625 0l5.46875 13.359375l-2.015625 0l-1.546875 -4.046875l-5.59375 0l-1.46875 4.046875l-1.875 0zm3.859375 -5.484375l4.53125 0l-1.40625 -3.703125q-0.625 -1.6875 -0.9375 -2.765625q-0.265625 1.28125 -0.71875 2.546875l-1.46875 3.921875zm9.8498535 9.1875l0 -13.375l1.484375 0l0 1.25q0.53125 -0.734375 1.1875 -1.09375q0.671875 -0.375 1.625 -0.375q1.234375 0 2.171875 0.640625q0.953125 0.625 1.4375 1.796875q0.484375 1.15625 0.484375 2.546875q0 1.484375 -0.53125 2.671875q-0.53125 1.1875 -1.546875 1.828125q-1.015625 0.625 -2.140625 0.625q-0.8125 0 -1.46875 -0.34375q-0.65625 -0.34375 -1.0625 -0.875l0 4.703125l-1.640625 0zm1.484375 -8.484375q0 1.859375 0.75 2.765625q0.765625 0.890625 1.828125 0.890625q1.09375 0 1.875 -0.921875q0.78125 -0.9375 0.78125 -2.875q0 -1.84375 -0.765625 -2.765625q-0.75 -0.921875 -1.8125 -0.921875q-1.046875 0 -1.859375 0.984375q-0.796875 0.96875 -0.796875 2.84375zm8.891357 8.484375l0 -13.375l1.484375 0l0 1.25q0.53125 -0.734375 1.1875 -1.09375q0.671875 -0.375 1.625 -0.375q1.234375 0 2.171875 0.640625q0.953125 0.625 1.4375 1.796875q0.484375 1.15625 0.484375 2.546875q0 1.484375 -0.53125 2.671875q-0.53125 1.1875 -1.546875 1.828125q-1.015625 0.625 -2.140625 0.625q-0.8125 0 -1.46875 -0.34375q-0.65625 -0.34375 -1.0625 -0.875l0 4.703125l-1.640625 0zm1.484375 -8.484375q0 1.859375 0.75 2.765625q0.765625 0.890625 1.828125 0.890625q1.09375 0 1.875 -0.921875q0.78125 -0.9375 0.78125 -2.875q0 -1.84375 -0.765625 -2.765625q-0.75 -0.921875 -1.8125 -0.921875q-1.046875 0 -1.859375 0.984375q-0.796875 0.96875 -0.796875 2.84375zm8.844421 4.78125l0 -13.359375l1.640625 0l0 13.359375l-1.640625 0zm4.1917114 -11.46875l0 -1.890625l1.640625 0l0 1.890625l-1.640625 0zm0 11.46875l0 -9.671875l1.640625 0l0 9.671875l-1.640625 0zm10.457336 -3.546875l1.609375 0.21875q-0.265625 1.65625 -1.359375 2.609375q-1.078125 0.9375 -2.671875 0.9375q-1.984375 0 -3.1875 -1.296875q-1.203125 -1.296875 -1.203125 -3.71875q0 -1.578125 0.515625 -2.75q0.515625 -1.171875 1.578125 -1.75q1.0625 -0.59375 2.3125 -0.59375q1.578125 0 2.578125 0.796875q1.0 0.796875 1.28125 2.265625l-1.59375 0.234375q-0.234375 -0.96875 -0.8125 -1.453125q-0.578125 -0.5 -1.390625 -0.5q-1.234375 0 -2.015625 0.890625q-0.78125 0.890625 -0.78125 2.8125q0 1.953125 0.75 2.84375q0.75 0.875 1.953125 0.875q0.96875 0 1.609375 -0.59375q0.65625 -0.59375 0.828125 -1.828125zm9.328125 2.359375q-0.921875 0.765625 -1.765625 1.09375q-0.828125 0.3125 -1.796875 0.3125q-1.59375 0 -2.453125 -0.78125q-0.859375 -0.78125 -0.859375 -1.984375q0 -0.71875 0.328125 -1.296875q0.328125 -0.59375 0.84375 -0.9375q0.53125 -0.359375 1.1875 -0.546875q0.46875 -0.125 1.453125 -0.25q1.984375 -0.234375 2.921875 -0.5625q0.015625 -0.34375 0.015625 -0.421875q0 -1.0 -0.46875 -1.421875q-0.625 -0.546875 -1.875 -0.546875q-1.15625 0 -1.703125 0.40625q-0.546875 0.40625 -0.8125 1.421875l-1.609375 -0.21875q0.21875 -1.015625 0.71875 -1.640625q0.5 -0.640625 1.453125 -0.984375q0.953125 -0.34375 2.1875 -0.34375q1.25 0 2.015625 0.296875q0.78125 0.28125 1.140625 0.734375q0.375 0.4375 0.515625 1.109375q0.078125 0.421875 0.078125 1.515625l0 2.1875q0 2.28125 0.109375 2.890625q0.109375 0.59375 0.40625 1.15625l-1.703125 0q-0.265625 -0.515625 -0.328125 -1.1875zm-0.140625 -3.671875q-0.890625 0.375 -2.671875 0.625q-1.015625 0.140625 -1.4375 0.328125q-0.421875 0.1875 -0.65625 0.53125q-0.21875 0.34375 -0.21875 0.78125q0 0.65625 0.5 1.09375q0.5 0.4375 1.453125 0.4375q0.9375 0 1.671875 -0.40625q0.75 -0.421875 1.09375 -1.140625q0.265625 -0.5625 0.265625 -1.640625l0 -0.609375zm7.7819824 3.390625l0.234375 1.453125q-0.6875 0.140625 -1.234375 0.140625q-0.890625 0 -1.390625 -0.28125q-0.484375 -0.28125 -0.6875 -0.734375q-0.203125 -0.46875 -0.203125 -1.9375l0 -5.578125l-1.203125 0l0 -1.265625l1.203125 0l0 -2.390625l1.625 -0.984375l0 3.375l1.65625 0l0 1.265625l-1.65625 0l0 5.671875q0 0.6875 0.078125 0.890625q0.09375 0.203125 0.28125 0.328125q0.203125 0.109375 0.578125 0.109375q0.265625 0 0.71875 -0.0625zm1.6051636 -10.0l0 -1.890625l1.640625 0l0 1.890625l-1.640625 0zm0 11.46875l0 -9.671875l1.640625 0l0 9.671875l-1.640625 0zm3.5354614 -4.84375q0 -2.6875 1.484375 -3.96875q1.25 -1.078125 3.046875 -1.078125q2.0 0 3.265625 1.3125q1.265625 1.296875 1.265625 3.609375q0 1.859375 -0.5625 2.9375q-0.5625 1.0625 -1.640625 1.65625q-1.0625 0.59375 -2.328125 0.59375q-2.03125 0 -3.28125 -1.296875q-1.25 -1.3125 -1.25 -3.765625zm1.6875 0q0 1.859375 0.796875 2.796875q0.8125 0.921875 2.046875 0.921875q1.21875 0 2.03125 -0.921875q0.8125 -0.9375 0.8125 -2.84375q0 -1.796875 -0.8125 -2.71875q-0.8125 -0.921875 -2.03125 -0.921875q-1.234375 0 -2.046875 0.921875q-0.796875 0.90625 -0.796875 2.765625zm9.297546 4.84375l0 -9.671875l1.46875 0l0 1.375q1.0625 -1.59375 3.078125 -1.59375q0.875 0 1.609375 0.3125q0.734375 0.3125 1.09375 0.828125q0.375 0.5 0.515625 1.203125q0.09375 0.453125 0.09375 1.59375l0 5.953125l-1.640625 0l0 -5.890625q0 -1.0 -0.203125 -1.484375q-0.1875 -0.5 -0.671875 -0.796875q-0.484375 -0.296875 -1.140625 -0.296875q-1.046875 0 -1.8125 0.671875q-0.75 0.65625 -0.75 2.515625l0 5.28125l-1.640625 0z" fill-rule="nonzero"/><path fill="#000000" d="m710.7037 124.95953l1.765625 0.453125q-0.5625 2.171875 -2.0 3.328125q-1.4375 1.140625 -3.53125 1.140625q-2.15625 0 -3.515625 -0.875q-1.34375 -0.890625 -2.0625 -2.546875q-0.703125 -1.671875 -0.703125 -3.59375q0 -2.078125 0.796875 -3.625q0.796875 -1.5625 2.265625 -2.359375q1.484375 -0.8125 3.25 -0.8125q2.0 0 3.359375 1.015625q1.375 1.015625 1.90625 2.875l-1.734375 0.40625q-0.46875 -1.453125 -1.359375 -2.109375q-0.875 -0.671875 -2.203125 -0.671875q-1.546875 0 -2.578125 0.734375q-1.03125 0.734375 -1.453125 1.984375q-0.421875 1.234375 -0.421875 2.5625q0 1.703125 0.5 2.96875q0.5 1.265625 1.546875 1.90625q1.046875 0.625 2.265625 0.625q1.484375 0 2.515625 -0.859375q1.03125 -0.859375 1.390625 -2.546875zm3.1292114 -0.15625q0 -2.6875 1.484375 -3.96875q1.25 -1.078125 3.046875 -1.078125q2.0 0 3.265625 1.3125q1.265625 1.296875 1.265625 3.609375q0 1.859375 -0.5625 2.9375q-0.5625 1.0625 -1.640625 1.65625q-1.0625 0.59375 -2.328125 0.59375q-2.03125 0 -3.28125 -1.296875q-1.25 -1.3125 -1.25 -3.765625zm1.6875 0q0 1.859375 0.796875 2.796875q0.8125 0.921875 2.046875 0.921875q1.21875 0 2.03125 -0.921875q0.8125 -0.9375 0.8125 -2.84375q0 -1.796875 -0.8125 -2.71875q-0.8125 -0.921875 -2.03125 -0.921875q-1.234375 0 -2.046875 0.921875q-0.796875 0.90625 -0.796875 2.765625zm9.297607 4.84375l0 -9.671875l1.46875 0l0 1.375q1.0625 -1.59375 3.078125 -1.59375q0.875 0 1.609375 0.3125q0.734375 0.3125 1.09375 0.828125q0.375 0.5 0.515625 1.203125q0.09375 0.453125 0.09375 1.59375l0 5.953125l-1.640625 0l0 -5.890625q0 -1.0 -0.203125 -1.484375q-0.1875 -0.5 -0.671875 -0.796875q-0.484375 -0.296875 -1.140625 -0.296875q-1.046875 0 -1.8125 0.671875q-0.75 0.65625 -0.75 2.515625l0 5.28125l-1.640625 0zm13.953796 -1.46875l0.234375 1.453125q-0.6875 0.140625 -1.234375 0.140625q-0.890625 0 -1.390625 -0.28125q-0.484375 -0.28125 -0.6875 -0.734375q-0.203125 -0.46875 -0.203125 -1.9375l0 -5.578125l-1.203125 0l0 -1.265625l1.203125 0l0 -2.390625l1.625 -0.984375l0 3.375l1.65625 0l0 1.265625l-1.65625 0l0 5.671875q0 0.6875 0.078125 0.890625q0.09375 0.203125 0.28125 0.328125q0.203125 0.109375 0.578125 0.109375q0.265625 0 0.71875 -0.0625zm7.9177246 0.28125q-0.921875 0.765625 -1.765625 1.09375q-0.828125 0.3125 -1.796875 0.3125q-1.59375 0 -2.453125 -0.78125q-0.859375 -0.78125 -0.859375 -1.984375q0 -0.71875 0.328125 -1.296875q0.328125 -0.59375 0.84375 -0.9375q0.53125 -0.359375 1.1875 -0.546875q0.46875 -0.125 1.453125 -0.25q1.984375 -0.234375 2.921875 -0.5625q0.015625 -0.34375 0.015625 -0.421875q0 -1.0 -0.46875 -1.421875q-0.625 -0.546875 -1.875 -0.546875q-1.15625 0 -1.703125 0.40625q-0.546875 0.40625 -0.8125 1.421875l-1.609375 -0.21875q0.21875 -1.015625 0.71875 -1.640625q0.5 -0.640625 1.453125 -0.984375q0.953125 -0.34375 2.1875 -0.34375q1.25 0 2.015625 0.296875q0.78125 0.28125 1.140625 0.734375q0.375 0.4375 0.515625 1.109375q0.078125 0.421875 0.078125 1.515625l0 2.1875q0 2.28125 0.109375 2.890625q0.109375 0.59375 0.40625 1.15625l-1.703125 0q-0.265625 -0.515625 -0.328125 -1.1875zm-0.140625 -3.671875q-0.890625 0.375 -2.671875 0.625q-1.015625 0.140625 -1.4375 0.328125q-0.421875 0.1875 -0.65625 0.53125q-0.21875 0.34375 -0.21875 0.78125q0 0.65625 0.5 1.09375q0.5 0.4375 1.453125 0.4375q0.9375 0 1.671875 -0.40625q0.75 -0.421875 1.09375 -1.140625q0.265625 -0.5625 0.265625 -1.640625l0 -0.609375zm4.2037964 -6.609375l0 -1.890625l1.640625 0l0 1.890625l-1.640625 0zm0 11.46875l0 -9.671875l1.640625 0l0 9.671875l-1.640625 0zm4.1448364 0l0 -9.671875l1.46875 0l0 1.375q1.0625 -1.59375 3.078125 -1.59375q0.875 0 1.609375 0.3125q0.734375 0.3125 1.09375 0.828125q0.375 0.5 0.515625 1.203125q0.09375 0.453125 0.09375 1.59375l0 5.953125l-1.640625 0l0 -5.890625q0 -1.0 -0.203125 -1.484375q-0.1875 -0.5 -0.671875 -0.796875q-0.484375 -0.296875 -1.140625 -0.296875q-1.046875 0 -1.8125 0.671875q-0.75 0.65625 -0.75 2.515625l0 5.28125l-1.640625 0zm17.000732 -3.109375l1.6875 0.203125q-0.40625 1.484375 -1.484375 2.3125q-1.078125 0.8125 -2.765625 0.8125q-2.125 0 -3.375 -1.296875q-1.234375 -1.3125 -1.234375 -3.671875q0 -2.453125 1.25 -3.796875q1.265625 -1.34375 3.265625 -1.34375q1.9375 0 3.15625 1.328125q1.234375 1.3125 1.234375 3.703125q0 0.15625 0 0.4375l-7.21875 0q0.09375 1.59375 0.90625 2.453125q0.8125 0.84375 2.015625 0.84375q0.90625 0 1.546875 -0.46875q0.640625 -0.484375 1.015625 -1.515625zm-5.390625 -2.65625l5.40625 0q-0.109375 -1.21875 -0.625 -1.828125q-0.78125 -0.953125 -2.03125 -0.953125q-1.125 0 -1.90625 0.765625q-0.765625 0.75 -0.84375 2.015625zm9.125732 5.765625l0 -9.671875l1.46875 0l0 1.46875q0.5625 -1.03125 1.03125 -1.359375q0.484375 -0.328125 1.0625 -0.328125q0.828125 0 1.6875 0.53125l-0.5625 1.515625q-0.609375 -0.359375 -1.203125 -0.359375q-0.546875 0 -0.96875 0.328125q-0.421875 0.328125 -0.609375 0.890625q-0.28125 0.875 -0.28125 1.921875l0 5.0625l-1.625 0z" fill-rule="nonzero"/><path fill="#ffffff" d="m437.26373 254.44072c-2.0325012 -16.38147 4.640442 -32.59816 17.187317 -41.768784c12.546875 -9.1706085 28.767212 -9.686829 41.778168 -1.3296051l0 0c4.6086426 -9.525543 13.044067 -16.102295 22.754608 -17.740845c9.710571 -1.6385498 19.555664 1.8535919 26.55719 9.420044l0 0c3.9260864 -8.636307 11.635132 -14.4388275 20.39154 -15.348465c8.756409 -0.9096527 17.320923 3.2023163 22.654297 10.8767395l0 0c7.0932007 -9.153946 18.37854 -13.008087 28.9729 -9.894745c10.59436 3.1133423 18.594849 12.6349945 20.539612 24.444931l0 0c8.690002 2.5998077 15.928528 9.208771 19.84552 18.119354c3.9169312 8.9105835 4.1280518 19.248718 0.5787964 28.343369c8.557678 12.215057 10.559692 28.491638 5.258789 42.755554c-5.3009033 14.2638855 -17.108276 24.37204 -31.015686 26.552246c-0.09802246 13.387634 -6.7921143 25.671936 -17.502075 32.11792c-10.709961 6.445984 -23.763306 6.047058 -34.128662 -1.0429993c-4.415161 16.033966 -16.84259 27.831604 -31.913147 30.295868c-15.070496 2.464264 -30.082397 -4.846649 -38.549866 -18.774078l0 0c-10.379303 6.8647766 -22.83368 8.842316 -34.55359 5.4865417c-11.71991 -3.355774 -21.71814 -11.762207 -27.739258 -23.322937l0 0c-10.606262 1.3613281 -20.861115 -4.66568 -25.67508 -15.089874c-4.8139954 -10.424194 -3.1623535 -23.02655 4.135193 -31.552551l0 0c-9.461578 -6.107666 -14.289459 -18.227325 -11.966095 -30.039032c2.3233643 -11.811737 11.271515 -20.638947 22.178314 -21.87857z" fill-rule="evenodd"/><path fill="#ffffff" d="m423.9655 164.39767c0 3.124298 -2.5327454 5.6570435 -5.6570435 5.6570435c-3.124298 0 -5.6570435 -2.5327454 -5.6570435 -5.6570435c0 -3.124298 2.5327454 -5.6570435 5.6570435 -5.6570435c3.124298 0 5.6570435 2.5327454 5.6570435 5.6570435z" fill-rule="evenodd"/><path fill="#ffffff" d="m441.63092 176.57494c0 6.248596 -5.0654907 11.314087 -11.314087 11.314087c-6.248596 0 -11.314087 -5.0654907 -11.314087 -11.314087c0 -6.248596 5.0654907 -11.314087 11.314087 -11.314087c6.248596 0 11.314087 5.0654907 11.314087 11.314087z" fill-rule="evenodd"/><path fill="#ffffff" d="m467.2405 196.80815l0 0c0 9.372894 -7.598236 16.97113 -16.97113 16.97113c-9.372894 0 -16.97113 -7.598236 -16.97113 -16.97113c0 -9.372894 7.598236 -16.97113 16.97113 -16.97113c9.372894 0 16.97113 7.598236 16.97113 16.97113z" fill-rule="evenodd"/><path fill="#000000" fill-opacity="0.0" d="m441.89188 309.9448l0 0c-5.1586 0.4428711 -10.316589 -0.864563 -14.781525 -3.7467346m27.823242 44.748993c-2.0743713 0.90560913 -4.248749 1.5085449 -6.467102 1.7932739m62.191986 17.908508l0 0c-1.5602112 -2.5662231 -2.866455 -5.308441 -3.8965454 -8.179932m75.95566 -12.217682c-0.22937012 3.0437622 -0.7509155 6.0523376 -1.5558472 8.975494m32.49286 -64.43204l0 0c11.6953125 6.2420654 19.075867 19.292114 18.971497 33.54492m25.778198 -69.27255c-1.894043 4.8532715 -4.7855225 9.158569 -8.447754 12.578308m-11.82373 -59.25061l0 0c0.3227539 1.9598999 0.47210693 3.9492645 0.44604492 5.940506m-54.397156 -12.869812l0 0c1.100708 -2.7406006 2.5584717 -5.2923737 4.327881 -7.5758514m-44.80548 11.185608l0 0c0.44903564 -2.2648468 1.1531372 -4.4595947 2.0960083 -6.5336914m-49.601074 8.7535095l0 0c2.7530823 1.7683868 5.3000793 3.89682 7.5850525 6.338562m-65.19531 43.478485l0 0c-0.60098267 -2.1812744 -1.0436096 -4.4112854 -1.323761 -6.6691437" fill-rule="evenodd"/><path stroke="#000000" stroke-width="1.0" stroke-linejoin="round" stroke-linecap="butt" d="m437.26373 254.44072c-2.0325012 -16.38147 4.640442 -32.59816 17.187317 -41.768784c12.546875 -9.1706085 28.767212 -9.686829 41.778168 -1.3296051l0 0c4.6086426 -9.525543 13.044067 -16.102295 22.754608 -17.740845c9.710571 -1.6385498 19.555664 1.8535919 26.55719 9.420044l0 0c3.9260864 -8.636307 11.635132 -14.4388275 20.39154 -15.348465c8.756409 -0.9096527 17.320923 3.2023163 22.654297 10.8767395l0 0c7.0932007 -9.153946 18.37854 -13.008087 28.9729 -9.894745c10.59436 3.1133423 18.594849 12.6349945 20.539612 24.444931l0 0c8.690002 2.5998077 15.928528 9.208771 19.84552 18.119354c3.9169312 8.9105835 4.1280518 19.248718 0.5787964 28.343369c8.557678 12.215057 10.559692 28.491638 5.258789 42.755554c-5.3009033 14.2638855 -17.108276 24.37204 -31.015686 26.552246c-0.09802246 13.387634 -6.7921143 25.671936 -17.502075 32.11792c-10.709961 6.445984 -23.763306 6.047058 -34.128662 -1.0429993c-4.415161 16.033966 -16.84259 27.831604 -31.913147 30.295868c-15.070496 2.464264 -30.082397 -4.846649 -38.549866 -18.774078l0 0c-10.379303 6.8647766 -22.83368 8.842316 -34.55359 5.4865417c-11.71991 -3.355774 -21.71814 -11.762207 -27.739258 -23.322937l0 0c-10.606262 1.3613281 -20.861115 -4.66568 -25.67508 -15.089874c-4.8139954 -10.424194 -3.1623535 -23.02655 4.135193 -31.552551l0 0c-9.461578 -6.107666 -14.289459 -18.227325 -11.966095 -30.039032c2.3233643 -11.811737 11.271515 -20.638947 22.178314 -21.87857z" fill-rule="evenodd"/><path stroke="#000000" stroke-width="1.0" stroke-linejoin="round" stroke-linecap="butt" d="m423.9655 164.39767c0 3.124298 -2.5327454 5.6570435 -5.6570435 5.6570435c-3.124298 0 -5.6570435 -2.5327454 -5.6570435 -5.6570435c0 -3.124298 2.5327454 -5.6570435 5.6570435 -5.6570435c3.124298 0 5.6570435 2.5327454 5.6570435 5.6570435z" fill-rule="evenodd"/><path stroke="#000000" stroke-width="1.0" stroke-linejoin="round" stroke-linecap="butt" d="m441.63092 176.57494c0 6.248596 -5.0654907 11.314087 -11.314087 11.314087c-6.248596 0 -11.314087 -5.0654907 -11.314087 -11.314087c0 -6.248596 5.0654907 -11.314087 11.314087 -11.314087c6.248596 0 11.314087 5.0654907 11.314087 11.314087z" fill-rule="evenodd"/><path stroke="#000000" stroke-width="1.0" stroke-linejoin="round" stroke-linecap="butt" d="m467.2405 196.80815l0 0c0 9.372894 -7.598236 16.97113 -16.97113 16.97113c-9.372894 0 -16.97113 -7.598236 -16.97113 -16.97113c0 -9.372894 7.598236 -16.97113 16.97113 -16.97113c9.372894 0 16.97113 7.598236 16.97113 16.97113z" fill-rule="evenodd"/><path stroke="#000000" stroke-width="1.0" stroke-linejoin="round" stroke-linecap="butt" d="m441.89188 309.9448l0 0c-5.1586 0.4428711 -10.316589 -0.864563 -14.781525 -3.7467346m27.823242 44.748993c-2.0743713 0.90560913 -4.248749 1.5085449 -6.467102 1.7932739m62.191986 17.908508l0 0c-1.5602112 -2.5662231 -2.866455 -5.308441 -3.8965454 -8.179932m75.95566 -12.217682c-0.22937012 3.0437622 -0.7509155 6.0523376 -1.5558472 8.975494m32.49286 -64.43204l0 0c11.6953125 6.2420654 19.075867 19.292114 18.971497 33.54492m25.778198 -69.27255c-1.894043 4.8532715 -4.7855225 9.158569 -8.447754 12.578308m-11.82373 -59.25061l0 0c0.3227539 1.9598999 0.47210693 3.9492645 0.44604492 5.940506m-54.397156 -12.869812l0 0c1.100708 -2.7406006 2.5584717 -5.2923737 4.327881 -7.5758514m-44.80548 11.185608l0 0c0.44903564 -2.2648468 1.1531372 -4.4595947 2.0960083 -6.5336914m-49.601074 8.7535095l0 0c2.7530823 1.7683868 5.3000793 3.89682 7.5850525 6.338562m-65.19531 43.478485l0 0c-0.60098267 -2.1812744 -1.0436096 -4.4112854 -1.323761 -6.6691437" fill-rule="evenodd"/><path fill="#000000" fill-opacity="0.0" d="m472.81104 206.96588l154.55115 0l0 177.76376l-154.55115 0z" fill-rule="evenodd"/><path fill="#000000" d="m500.37213 224.60463q1.0 0 1.96875 0.53125q0.96875 0.515625 1.5 1.484375q0.53125 0.96875 0.53125 2.0q0 1.671875 -1.171875 2.84375q-1.171875 1.171875 -2.828125 1.171875q-1.671875 0 -2.84375 -1.171875q-1.171875 -1.171875 -1.171875 -2.84375q0 -1.046875 0.53125 -2.0q0.546875 -0.96875 1.5 -1.484375q0.96875 -0.53125 1.984375 -0.53125z" fill-rule="nonzero"/><path fill="#000000" d="m526.50836 219.41713q0.8125 0.0625 0.0625 0.59375l0.234375 4.15625l5.484375 -0.59375l0.21875 1.40625l-5.484375 0.59375q0.515625 5.125 2.890625 6.96875q1.109375 0.890625 1.265625 -0.4375l0.140625 -1.34375l1.5625 0.828125l-0.21875 1.109375q-0.671875 3.34375 -3.34375 1.484375q-3.34375 -2.296875 -3.859375 -8.46875l-4.15625 0.375l-0.078125 -1.40625l4.015625 -0.375l-0.21875 -5.046875l1.484375 0.15625zm-10.390625 7.421875q2.671875 -2.15625 3.921875 -7.71875l1.640625 0.515625q0.4375 0.296875 -0.21875 0.375q-0.234375 1.40625 -1.34375 4.0q0.890625 0.15625 0.21875 0.515625l0 10.625l-1.484375 0l0 -8.84375q-0.953125 1.421875 -1.625 1.9375l-1.109375 -1.40625zm12.6875 -6.90625q1.40625 1.03125 2.15625 1.921875l-1.34375 1.265625q-0.671875 -0.96875 -2.0 -2.0l1.1875 -1.1875zm12.609436 11.0625q-2.890625 1.03125 -5.406311 1.703125q-0.234375 0.59375 -0.453125 0.21875l-0.515625 -1.703125l2.593811 -0.515625l0 -4.09375l-2.000061 0l0 -1.40625l2.000061 0l0 -3.9375l-2.218811 0l0 -1.40625l5.937561 0l0 1.40625l-2.234375 0l0 3.9375l2.0 0l0 1.40625l-2.0 0l0 3.71875q0.59375 -0.078125 2.15625 -0.59375l0.140625 1.265625zm5.875 -3.5l0 2.15625l4.15625 0l0 1.40625l-4.15625 0l0 2.3125l4.890625 0l0 1.40625l-11.796875 0l0 -1.40625l5.640625 0l0 -2.3125l-4.015625 0l0 -1.40625l4.015625 0l0 -2.15625l-2.671875 0l0 0.96875l-1.265625 0l0 -9.125l9.203125 0l0 8.828125l-1.265625 0l0 -0.671875l-2.734375 0zm2.734375 -3.40625l-2.734375 0l0 2.21875l2.734375 0l0 -2.21875zm0 -3.5625l-2.734375 0l0 2.375l2.734375 0l0 -2.375zm-4.0 2.375l0 -2.375l-2.671875 0l0 2.375l2.671875 0zm0 1.1875l-2.671875 0l0 2.21875l2.671875 0l0 -2.21875z" fill-rule="nonzero"/><path fill="#000000" d="m500.37213 247.00462q1.0 0 1.96875 0.53125q0.96875 0.515625 1.5 1.484375q0.53125 0.96875 0.53125 2.0q0 1.671875 -1.171875 2.84375q-1.171875 1.171875 -2.828125 1.171875q-1.671875 0 -2.84375 -1.171875q-1.171875 -1.171875 -1.171875 -2.84375q0 -1.046875 0.53125 -2.0q0.546875 -0.96875 1.5 -1.484375q0.96875 -0.53125 1.984375 -0.53125z" fill-rule="nonzero"/><path fill="#000000" d="m522.649 242.44212q-0.296875 2.46875 -0.625 4.15625q-0.328125 1.671875 -0.90625 3.421875q1.015625 1.53125 2.109375 3.34375q-0.65625 0.515625 -1.3125 1.09375q-0.71875 -1.671875 -1.59375 -3.046875q-0.578125 1.15625 -1.453125 2.21875q-0.875 1.046875 -1.90625 2.140625q-0.4375 -0.578125 -1.3125 -1.3125q1.390625 -0.9375 2.265625 -1.953125q0.875 -1.03125 1.53125 -2.34375q-1.234375 -1.8125 -2.546875 -3.203125q0.65625 -0.515625 1.15625 -0.953125q1.03125 1.09375 2.046875 2.703125q0.71875 -2.328125 1.015625 -5.109375l-2.25 0q-1.3125 0 -2.40625 0.078125l0 -1.3125q1.015625 0.078125 2.328125 0.078125l3.859375 0zm6.34375 13.1875q0 0.65626526 0.328125 0.71876526q0.328125 0.078125 0.984375 0.078125q0.71875 0 0.90625 -0.25q0.1875 -0.25001526 0.328125 -1.8593903q0.65625 0.4375 1.53125 0.65625q-0.4375 2.1875153 -0.953125 2.4687653q-0.5 0.296875 -1.3125 0.296875l-1.671875 0q-0.875 0 -1.171875 -0.515625q-0.28125 -0.5 -0.28125 -1.078125l0 -4.5312653q-0.359375 1.390625 -1.234375 2.671875q-0.875 1.265625 -2.078125 2.2500153q-1.203125 0.984375 -2.515625 1.640625q-0.296875 -0.71875 -1.171875 -1.453125q2.046875 -0.515625 3.390625 -1.8281403q1.34375 -1.3125 1.890625 -2.765625q0.546875 -1.453125 0.65625 -3.3125q0.109375 -1.859375 0.046875 -3.828125q1.015625 0.140625 1.671875 0.21875q-0.296875 1.171875 -0.375 3.0625q-0.0625 1.890625 -0.28125 3.0625l1.453125 0q-0.0625 0.4375 -0.140625 1.96875l0 2.328125zm2.6875 -14.0625q-0.0625 1.15625 -0.0625 4.953125q0 3.796875 0.0625 5.171875l-1.453125 0l0 -8.96875l-5.09375 0l0 9.046875l-1.46875 0q0.078125 -1.75 0.078125 -5.109375q0 -3.421875 -0.078125 -5.09375l8.015625 0zm13.781311 0.9375q-0.078125 0.734375 -0.078125 2.125l0 5.171875q0 1.3125 0.078125 2.546875l-1.390625 0l0 -8.671875l-3.5 0l0 8.75l-1.3125 0q0.078125 -1.3125 0.078125 -2.625l0 -5.171875q0 -0.59375 -0.078125 -2.125l6.203125 0zm5.46875 -1.015625q-0.078125 0.796875 -0.078125 2.046875l0 12.750015q0 0.953125 -0.65625 1.234375q-0.65625 0.296875 -1.96875 0.515625q-0.140625 -0.796875 -0.578125 -1.609375q1.015625 0 1.40625 -0.078125q0.40625 -0.0625 0.40625 -0.79689026l0 -12.015625q0 -1.171875 -0.0625 -2.046875l1.53125 0zm-7.65625 3.9375q-0.140625 0.953125 -0.21875 4.09375q-0.078125 3.125 -1.0625 5.171875q-0.984375 2.0312653 -2.21875 3.3437653q-0.65625 -0.578125 -1.375 -0.796875q1.734375 -1.6875153 2.53125 -3.7500153q0.8125 -2.078125 0.84375 -4.40625q0.046875 -2.34375 -0.109375 -3.875q0.8125 0.140625 1.609375 0.21875zm4.875 -1.609375q-0.0625 0.8125 -0.0625 2.046875l0 5.109375q0 1.515625 0.0625 2.828125l-1.453125 0q0.078125 -0.875 0.078125 -2.828125l0 -5.109375q0 -1.234375 -0.078125 -2.046875l1.453125 0zm-9.46875 7.59375q-0.9375 1.734375 -1.703125 3.453125q-0.76568604 1.7187653 -1.140686 2.5937653q-0.65625 -0.59375 -1.53125 -1.09375q0.8125 -0.95314026 1.640625 -2.5468903q0.84375 -1.609375 1.421936 -3.359375q0.65625 0.515625 1.3125 0.953125zm4.953125 1.8125q1.171875 1.171875 2.625 3.4218903q-0.578125 0.296875 -1.234375 0.953125q-1.171875 -2.1093903 -2.484375 -3.5000153q0.59375 -0.359375 1.09375 -0.875zm-8.156311 -7.21875q1.531311 1.171875 2.625061 2.1875q-0.578125 0.59375 -1.015625 1.171875q-0.95318604 -1.171875 -2.484436 -2.265625q0.4375 -0.4375 0.875 -1.09375zm2.187561 -1.375q-1.171936 -1.09375 -2.546936 -1.96875q0.4375 -0.515625 0.875 -1.09375q1.531311 1.015625 2.609436 1.96875q-0.5 0.359375 -0.9375 1.09375z" fill-rule="nonzero"/><path fill="#000000" d="m500.37213 269.40463q1.0 0 1.96875 0.53125q0.96875 0.515625 1.5 1.484375q0.53125 0.96875 0.53125 2.0q0 1.671875 -1.171875 2.84375q-1.171875 1.171875 -2.828125 1.171875q-1.671875 0 -2.84375 -1.171875q-1.171875 -1.171875 -1.171875 -2.84375q0 -1.046875 0.53125 -2.0q0.546875 -0.96875 1.5 -1.484375q0.96875 -0.53125 1.984375 -0.53125z" fill-rule="nonzero"/><path fill="#000000" d="m524.86774 267.84213q0.453125 0.234375 -0.078125 0.375q-0.296875 0.75 -0.953125 2.078125l8.90625 0l0 1.40625l-3.640625 0q-0.515625 2.375 -2.078125 4.3125q2.453125 1.03125 4.671875 2.75l-1.328125 1.40625q-2.3125 -1.859375 -4.453125 -2.890625q-2.90625 2.375 -8.609375 2.96875l-0.296875 -1.78125q4.59375 -0.15625 7.34375 -1.9375q-1.9375 -0.8125 -3.34375 -1.328125q-0.296875 0.4375 -0.671875 0.890625l-1.25 -0.890625q1.03125 -1.421875 2.296875 -3.5l-4.96875 0l0 -1.40625l5.640625 0q0.890625 -1.859375 1.25 -2.96875l1.5625 0.515625zm0.671875 7.5q1.484375 -1.78125 1.921875 -3.640625l-4.296875 0q-0.453125 0.890625 -1.40625 2.3125q1.546875 0.4375 3.78125 1.328125zm6.75 -6.3125l-1.484375 0l0 -2.296875l-12.46875 0l0 2.296875l-1.484375 0l0 -3.703125l6.90625 0l0 -2.15625l1.40625 0q0.59375 0.078125 0.078125 0.453125l0 1.703125l7.046875 0l0 3.703125zm10.984436 -3.78125q-2.15625 3.046875 -4.234375 4.453125l9.359375 0q-2.453125 -1.328125 -5.125 -4.453125zm-4.890625 4.90625q-1.046875 0.59375 -2.453186 1.328125l-0.75 -1.5625q5.046936 -2.140625 7.421936 -6.75l1.640625 0.21875q0.59375 0.234375 -0.078125 0.375l-0.140625 0.21875q3.328125 4.09375 7.9375 5.5l-0.75 1.625q-0.890625 -0.296875 -2.515625 -1.25l0 1.25l-4.375 0l0 2.53125l4.8125 0l0 1.40625l-4.8125 0l0 2.890625l6.828125 0l0 1.421875l-15.140686 0l0 -1.421875l6.828186 0l0 -2.890625l-4.828125 0l0 -1.40625l4.828125 0l0 -2.53125l-4.453125 0l0 -0.953125z" fill-rule="nonzero"/><path fill="#000000" d="m500.37213 291.80463q1.0 0 1.96875 0.53125q0.96875 0.515625 1.5 1.484375q0.53125 0.96875 0.53125 2.0q0 1.671875 -1.171875 2.84375q-1.171875 1.171875 -2.828125 1.171875q-1.671875 0 -2.84375 -1.171875q-1.171875 -1.171875 -1.171875 -2.84375q0 -1.046875 0.53125 -2.0q0.546875 -0.96875 1.5 -1.484375q0.96875 -0.53125 1.984375 -0.53125z" fill-rule="nonzero"/><path fill="#000000" d="m523.88336 291.89838q0 -0.71875 -0.0625 -1.75l1.53125 0q-0.078125 0.953125 -0.078125 1.75l5.53125 0q-0.0625 1.53125 -0.0625 4.15625q0 2.546875 0.0625 3.9375l-1.375 0l0 -0.734375l-4.15625 0q0 2.1875 0.078125 3.71875l-1.53125 0q0.0625 -1.53125 0.0625 -3.71875l-4.078125 0l0 0.8125l-1.375 0q0.0625 -1.09375 0.0625 -3.859375q0 -2.78125 -0.0625 -4.3125l5.453125 0zm0.4375 -6.265625q0.734375 1.828125 0.953125 2.484375l7.0625 0q-0.0625 0.875 -0.0625 1.59375q0 0.734375 0.0625 1.53125l-1.453125 0l0 -1.890625l-13.046875 0l0 2.1875l-1.53125 0q0.078125 -0.875 0.078125 -1.671875q0 -0.875 -0.078125 -1.75l7.296875 0q-0.375 -1.09375 -0.953125 -1.96875q0.796875 -0.140625 1.671875 -0.515625zm5.109375 12.390625l0 -1.890625l-4.15625 0l0 1.890625l4.15625 0zm-5.546875 0l0 -1.890625l-4.078125 0l0 1.890625l4.078125 0zm5.546875 -3.125l0 -1.828125l-4.15625 0l0 1.828125l4.15625 0zm-5.546875 0l0 -1.828125l-4.078125 0l0 1.828125l4.078125 0zm21.281311 -2.84375l0 -3.65625q0 -1.453125 -0.0625 -2.25l1.53125 0q-0.078125 0.9375 -0.078125 1.671875l0 4.234375l2.984375 0q0.875 0 1.890625 -0.078125l0 1.390625q-1.09375 -0.078125 -1.8125 -0.078125l-3.0625 0l0 7.28125q0 0.875 0.078125 2.125l-1.53125 0q0.0625 -1.25 0.0625 -2.046875l0 -7.359375l-2.84375 0q-1.09375 0 -2.1875 0.078125l0 -1.390625q1.09375 0.078125 2.046875 0.078125l2.984375 0zm-6.265625 -0.15625q-0.078125 1.390625 -0.078125 2.921875l0 4.4375q1.25 -1.234375 1.96875 -2.25q0.4375 0.578125 1.03125 1.15625l-2.046875 2.046875q-0.953125 0.953125 -1.8125 1.890625q-0.515625 -0.65625 -0.953125 -1.15625q0.515625 -0.59375 0.4375 -1.75l0 -6.046875q-1.968811 0 -2.921936 0.0625l0 -1.375q1.171875 0.0625 1.609375 0.0625l2.765686 0zm-1.8125 -5.53125q0.9375 0.9375 2.984375 3.0625q-0.65625 0.578125 -1.25 1.09375q-0.9375 -1.390625 -2.828186 -3.28125q0.5 -0.359375 1.093811 -0.875z" fill-rule="nonzero"/><path fill="#000000" d="m500.37213 314.20462q1.0 0 1.96875 0.53125q0.96875 0.515625 1.5 1.484375q0.53125 0.96875 0.53125 2.0q0 1.671875 -1.171875 2.84375q-1.171875 1.171875 -2.828125 1.171875q-1.671875 0 -2.84375 -1.171875q-1.171875 -1.171875 -1.171875 -2.84375q0 -1.046875 0.53125 -2.0q0.546875 -0.96875 1.5 -1.484375q0.96875 -0.53125 1.984375 -0.53125z" fill-rule="nonzero"/><path fill="#000000" d="m526.50836 307.82962l1.703125 0.4375q0.296875 0.296875 -0.21875 0.375l-0.96875 1.40625l4.078125 0l0 5.125l-6.75 0l0 1.484375l7.5 0l0 5.5625l-1.484375 0l0 -0.515625l-6.015625 0l0 0.671875l-1.484375 0l0 -12.328125l2.59375 0l1.046875 -2.21875zm-10.390625 15.4375q1.703125 -0.53125 2.96875 -1.34375l0 -4.828125l-2.53125 0l0 -1.40625l4.015625 0l0 6.09375q1.25 1.328125 4.0 1.328125l8.609375 0l-0.21875 1.421875l-9.125 0q-2.609375 0 -3.9375 -1.5q-1.5625 1.5 -2.96875 2.09375l-0.8125 -1.859375zm13.5 -9.5l0 -2.3125l-5.265625 0l0 2.3125l5.265625 0zm0.75 6.53125l0 -2.234375l-6.015625 0l0 2.234375l6.015625 0zm-10.46875 -7.71875q-1.34375 -1.640625 -2.59375 -2.609375l1.109375 -1.25q1.5625 0.953125 2.75 2.59375l-1.265625 1.265625zm15.65625 11.71875q-0.296875 0.828125 -0.515625 -0.0625l-0.296875 -1.265625l0.890625 -0.234375l0 -6.59375l1.187561 0q0.59375 0.0625 0.078125 0.4375l0 5.859375l0.953125 -0.296875l0 -7.640625l-1.109436 0l-1.109375 0l0 -5.640625l5.343811 0l0 5.640625l-1.859375 0l0 2.53125l1.9375 0l0 1.40625l-1.9375 0l0 3.40625l2.078125 -0.65625l0 1.25l-5.640686 1.859375zm9.125061 -4.53125q0.59375 0.234375 -0.0625 0.453125q-1.125 2.453125 -2.96875 4.234375l-0.96875 -1.1875q1.5625 -1.34375 2.8125 -3.859375l1.1875 0.359375zm2.828125 4.015625q0 1.1875 -1.046875 1.1875l-1.25 0l-0.296875 -1.40625l0.8125 0q0.296875 0 0.296875 -0.296875l0 -4.828125l-4.3125 0l0 -1.40625l10.328125 0l0 1.40625l-4.53125 0l0 5.34375zm2.296875 -4.453125q0.8125 1.625 2.453125 3.109375l-0.96875 1.34375q-1.5625 -1.5625 -2.75 -3.78125l1.265625 -0.671875zm-2.453125 -11.28125q0.59375 0.078125 0.078125 0.4375l0 2.15625l4.375 0l0 3.484375l-1.25 0l0 -2.296875l-7.578125 0l0 2.234375l-1.265625 0l0 -3.421875l4.234375 0l0 -2.59375l1.40625 0zm-3.921875 5.859375l6.671875 0l0 1.40625l-6.671875 0l0 -1.40625zm-3.71875 -0.59375l0 -3.265625l-2.8125 0l0 3.265625l2.8125 0z" fill-rule="nonzero"/><path fill="#000000" d="m500.37213 336.6046q1.0 0 1.96875 0.53125q0.96875 0.515625 1.5 1.484375q0.53125 0.96875 0.53125 2.0q0 1.671875 -1.171875 2.84375q-1.171875 1.171875 -2.828125 1.171875q-1.671875 0 -2.84375 -1.171875q-1.171875 -1.171875 -1.171875 -2.84375q0 -1.046875 0.53125 -2.0q0.546875 -0.96875 1.5 -1.484375q0.96875 -0.53125 1.984375 -0.53125z" fill-rule="nonzero"/><path fill="#000000" d="m520.49274 346.55774l-1.703125 0l0 -14.328125l11.640625 0l0 14.03125l-1.703125 0l0 -1.046875l-8.234375 0l0 1.34375zm8.234375 -8.6875l0 -4.234375l-8.234375 0l0 4.234375l8.234375 0zm0 5.9375l0 -4.53125l-8.234375 0l0 4.53125l8.234375 0zm19.890686 0.375q-0.140625 2.890625 -1.78125 2.890625l-5.71875 0q-1.328125 0 -1.328125 -1.484375l0 -5.265625l1.40625 0q0.59375 0.0625 0.078125 0.4375l0 4.3125q0 0.59375 0.515625 0.59375l4.453125 0q0.515625 0 0.59375 -0.53125l0.21875 -1.328125l1.5625 0.375zm-10.3125 -2.375q-0.296875 2.375 -1.484375 4.75l-1.484436 -0.890625q1.109375 -2.078125 1.484436 -4.828125l1.5625 0.4375q0.59375 0.234375 -0.078125 0.53125zm6.015625 -7.28125l0 2.75l5.78125 0l0 1.40625l-13.203125 0l0 -1.40625l5.9375 0l0 -2.75l-7.125061 0l0 -1.40625l7.125061 0l0 -2.453125l1.40625 0q0.59375 0.078125 0.078125 0.453125l0 2.0l6.96875 0l0 1.40625l-6.96875 0zm6.234375 11.28125q-1.421875 -2.671875 -2.75 -4.15625l1.1875 -1.03125q1.625 1.703125 3.046875 4.0l-1.484375 1.1875zm-6.828125 -6.375q1.25 1.40625 2.140625 2.8125l-1.328125 1.109375q-0.96875 -1.625 -2.078125 -2.96875l1.265625 -0.953125z" fill-rule="nonzero"/><path fill="#000000" d="m500.37213 359.0046q1.0 0 1.96875 0.53125q0.96875 0.515625 1.5 1.484375q0.53125 0.96875 0.53125 2.0q0 1.671875 -1.171875 2.84375q-1.171875 1.171875 -2.828125 1.171875q-1.671875 0 -2.84375 -1.171875q-1.171875 -1.171875 -1.171875 -2.84375q0 -1.046875 0.53125 -2.0q0.546875 -0.96875 1.5 -1.484375q0.96875 -0.53125 1.984375 -0.53125z" fill-rule="nonzero"/><path fill="#000000" d="m517.24274 368.28586l0 -1.875l1.875 0l0 1.875l-1.875 0zm6.234375 0l0 -1.875l1.859375 0l0 1.875l-1.859375 0zm6.203125 0l0 -1.875l1.875 0l0 1.875l-1.875 0z" fill-rule="nonzero"/><path fill="#000000" fill-opacity="0.0" d="m652.3202 13.175853l75.4646 0l0 42.015747l-75.4646 0z" fill-rule="evenodd"/><path fill="#000000" d="m666.0146 40.09585l0 -13.359375l4.328125 0q2.453125 0 3.203125 0.203125q1.140625 0.296875 1.921875 1.3125q0.78125 1.0 0.78125 2.59375q0 1.234375 -0.453125 2.078125q-0.453125 0.828125 -1.140625 1.3125q-0.6875 0.46875 -1.390625 0.625q-0.96875 0.203125 -2.796875 0.203125l-1.765625 0l0 5.03125l-2.6875 0zm2.6875 -11.09375l0 3.78125l1.484375 0q1.59375 0 2.125 -0.203125q0.546875 -0.203125 0.84375 -0.65625q0.3125 -0.453125 0.3125 -1.03125q0 -0.734375 -0.4375 -1.203125q-0.421875 -0.484375 -1.078125 -0.59375q-0.484375 -0.09375 -1.9375 -0.09375l-1.3125 0zm9.1467285 6.125q0 -1.28125 0.625 -2.46875q0.625 -1.203125 1.78125 -1.828125q1.15625 -0.625 2.578125 -0.625q2.1875 0 3.59375 1.421875q1.40625 1.421875 1.40625 3.609375q0 2.1875 -1.421875 3.640625q-1.421875 1.4375 -3.5625 1.4375q-1.328125 0 -2.546875 -0.59375q-1.203125 -0.609375 -1.828125 -1.765625q-0.625 -1.171875 -0.625 -2.828125zm2.625 0.125q0 1.453125 0.671875 2.21875q0.6875 0.75 1.6875 0.75q1.0 0 1.671875 -0.75q0.6875 -0.765625 0.6875 -2.234375q0 -1.421875 -0.6875 -2.1875q-0.671875 -0.765625 -1.671875 -0.765625q-1.0 0 -1.6875 0.765625q-0.671875 0.765625 -0.671875 2.203125zm18.239685 4.84375l-2.390625 0l0 -1.421875q-0.59375 0.828125 -1.40625 1.234375q-0.796875 0.40625 -1.609375 0.40625q-1.671875 0 -2.859375 -1.34375q-1.1875 -1.34375 -1.1875 -3.75q0 -2.453125 1.15625 -3.734375q1.15625 -1.28125 2.921875 -1.28125q1.625 0 2.8125 1.34375l0 -4.8125l2.5625 0l0 13.359375zm-6.84375 -5.046875q0 1.546875 0.4375 2.234375q0.609375 1.015625 1.71875 1.015625q0.890625 0 1.5 -0.75q0.625 -0.765625 0.625 -2.25q0 -1.671875 -0.609375 -2.40625q-0.59375 -0.734375 -1.53125 -0.734375q-0.90625 0 -1.53125 0.734375q-0.609375 0.71875 -0.609375 2.15625zm22.641785 2.671875l0 2.375l-8.96875 0q0.140625 -1.34375 0.859375 -2.546875q0.734375 -1.21875 2.890625 -3.203125q1.734375 -1.625 2.125 -2.1875q0.53125 -0.796875 0.53125 -1.578125q0 -0.84375 -0.46875 -1.296875q-0.453125 -0.46875 -1.265625 -0.46875q-0.796875 0 -1.28125 0.484375q-0.46875 0.46875 -0.546875 1.59375l-2.546875 -0.25q0.234375 -2.109375 1.421875 -3.03125q1.203125 -0.921875 3.015625 -0.921875q1.96875 0 3.09375 1.0625q1.140625 1.0625 1.140625 2.65625q0 0.890625 -0.328125 1.71875q-0.3125 0.8125 -1.015625 1.703125q-0.46875 0.59375 -1.6875 1.703125q-1.203125 1.109375 -1.53125 1.484375q-0.3125 0.359375 -0.515625 0.703125l5.078125 0z" fill-rule="nonzero"/></g></svg>