<svg id="SvgjsSvg1230" width="490.96875" height="787" xmlns="http://www.w3.org/2000/svg" version="1.1" xmlns:xlink="http://www.w3.org/1999/xlink" xmlns:svgjs="http://svgjs.com/svgjs"><defs id="SvgjsDefs1231"><pattern patternUnits="userSpaceOnUse" id="pattern_mark_0" width="300" height="300"><text x="150" y="100" fill="rgba(229,229,229,0.8)" font-size="18" transform="rotate(-45, 150, 150)" style="dominant-baseline: middle; text-anchor: middle;"></text></pattern><pattern patternUnits="userSpaceOnUse" id="pattern_mark_1" width="300" height="300"><text x="150" y="200" fill="rgba(229,229,229,0.8)" font-size="18" transform="rotate(-45, 150, 150)" style="dominant-baseline: middle; text-anchor: middle;"></text></pattern><marker id="SvgjsMarker1278" markerWidth="13" markerHeight="9" refX="9.5" refY="4.5" viewBox="0 0 13 9" orient="auto" markerUnits="userSpaceOnUse" stroke-dasharray="0,0"><path id="SvgjsPath1279" d="M0,0 L13,4.5 L0,9 L0,0" fill="#323232" stroke="#323232" stroke-width="1"></path></marker><marker id="SvgjsMarker1304" markerWidth="13" markerHeight="9" refX="3.5" refY="4.5" viewBox="0 0 13 9" orient="0" markerUnits="userSpaceOnUse" stroke-dasharray="0,0"><path id="SvgjsPath1305" d="M13,0 L0,4.5 L13,9 L13,0" fill="#323232" stroke="#323232" stroke-width="1"></path></marker><marker id="SvgjsMarker1314" markerWidth="13" markerHeight="9" refX="3.5" refY="4.5" viewBox="0 0 13 9" orient="0" markerUnits="userSpaceOnUse" stroke-dasharray="0,0"><path id="SvgjsPath1315" d="M13,0 L0,4.5 L13,9 L13,0" fill="#323232" stroke="#323232" stroke-width="1"></path></marker><marker id="SvgjsMarker1330" markerWidth="13" markerHeight="9" refX="9.5" refY="4.5" viewBox="0 0 13 9" orient="auto" markerUnits="userSpaceOnUse" stroke-dasharray="0,0"><path id="SvgjsPath1331" d="M0,0 L13,4.5 L0,9 L0,0" fill="#323232" stroke="#323232" stroke-width="1"></path></marker><marker id="SvgjsMarker1362" markerWidth="13" markerHeight="9" refX="3.5" refY="4.5" viewBox="0 0 13 9" orient="0" markerUnits="userSpaceOnUse" stroke-dasharray="0,0"><path id="SvgjsPath1363" d="M13,0 L0,4.5 L13,9 L13,0" fill="#323232" stroke="#323232" stroke-width="1"></path></marker><marker id="SvgjsMarker1366" markerWidth="13" markerHeight="9" refX="3.5" refY="4.5" viewBox="0 0 13 9" orient="0" markerUnits="userSpaceOnUse" stroke-dasharray="0,0"><path id="SvgjsPath1367" d="M13,0 L0,4.5 L13,9 L13,0" fill="#323232" stroke="#323232" stroke-width="1"></path></marker><marker id="SvgjsMarker1408" markerWidth="13" markerHeight="9" refX="9.5" refY="4.5" viewBox="0 0 13 9" orient="auto" markerUnits="userSpaceOnUse" stroke-dasharray="0,0"><path id="SvgjsPath1409" d="M0,0 L13,4.5 L0,9 L0,0" fill="#323232" stroke="#323232" stroke-width="1"></path></marker><marker id="SvgjsMarker1418" markerWidth="13" markerHeight="9" refX="9.5" refY="4.5" viewBox="0 0 13 9" orient="auto" markerUnits="userSpaceOnUse" stroke-dasharray="0,0"><path id="SvgjsPath1419" d="M0,0 L13,4.5 L0,9 L0,0" fill="#323232" stroke="#323232" stroke-width="1"></path></marker><marker id="SvgjsMarker1434" markerWidth="13" markerHeight="9" refX="9.5" refY="4.5" viewBox="0 0 13 9" orient="auto" markerUnits="userSpaceOnUse" stroke-dasharray="0,0"><path id="SvgjsPath1435" d="M0,0 L13,4.5 L0,9 L0,0" fill="#323232" stroke="#323232" stroke-width="1"></path></marker><marker id="SvgjsMarker1438" markerWidth="13" markerHeight="9" refX="9.5" refY="4.5" viewBox="0 0 13 9" orient="auto" markerUnits="userSpaceOnUse" stroke-dasharray="0,0"><path id="SvgjsPath1439" d="M0,0 L13,4.5 L0,9 L0,0" fill="#323232" stroke="#323232" stroke-width="1"></path></marker></defs><rect id="svgbackgroundid" width="490.96875" height="787" fill="transparent"></rect><rect id="SvgjsRect1233" width="490.96875" height="787" fill="url(#pattern_mark_0)"></rect><rect id="SvgjsRect1234" width="490.96875" height="787" fill="url(#pattern_mark_1)"></rect><g id="SvgjsG1235" transform="translate(25,25)"><path id="SvgjsPath1236" d="M 51.7569006309148 30L 51.7569006309148 737" stroke-dasharray="3,4" stroke="rgba(0,0,0,1)" stroke-width="2" fill="none"></path><path id="SvgjsPath1237" d="M 0 0L 103.5138012618296 0L 103.5138012618296 30L 0 30Z" stroke="rgba(0,0,0,1)" stroke-width="1" fill-opacity="1" fill="#ffffff"></path><g id="SvgjsG1238"><text id="SvgjsText1239" font-family="微软雅黑" text-anchor="middle" font-size="13px" width="84px" fill="#323232" font-weight="700" align="middle" lineHeight="125%" anchor="middle" family="微软雅黑" size="13px" weight="700" font-style="" opacity="1" y="4.375" transform="rotate(0)"><tspan id="SvgjsTspan1240" dy="16.25" x="52"><tspan id="SvgjsTspan1241" style="">商店</tspan></tspan></text></g></g><g id="SvgjsG1242" transform="translate(381.9696372239746,25.000000000000057)"><path id="SvgjsPath1243" d="M 42.082807570977934 30L 42.082807570977934 736.9999999999999" stroke-dasharray="3,4" stroke="rgba(0,0,0,1)" stroke-width="2" fill="none"></path><path id="SvgjsPath1244" d="M 0 0L 84.16561514195587 0L 84.16561514195587 30L 0 30Z" stroke="rgba(0,0,0,1)" stroke-width="1" fill-opacity="1" fill="#ffffcc"></path><g id="SvgjsG1245"><text id="SvgjsText1246" font-family="微软雅黑" text-anchor="middle" font-size="13px" width="65px" fill="#323232" font-weight="700" align="middle" lineHeight="125%" anchor="middle" family="微软雅黑" size="13px" weight="700" font-style="" opacity="1" y="4.375" transform="rotate(0)"><tspan id="SvgjsTspan1247" dy="16.25" x="42.5"><tspan id="SvgjsTspan1248" style="">仓库服务</tspan></tspan></text></g></g><g id="SvgjsG1249" transform="translate(201.74526813880118,25.000000000000057)"><path id="SvgjsPath1250" d="M 53.49645110410091 30L 53.49645110410091 736.9999999999999" stroke-dasharray="3,4" stroke="rgba(0,0,0,1)" stroke-width="2" fill="none"></path><path id="SvgjsPath1251" d="M 0 0L 106.99290220820183 0L 106.99290220820183 30L 0 30Z" stroke="rgba(0,0,0,1)" stroke-width="1" fill-opacity="1" fill="#ffffcc"></path><g id="SvgjsG1252"><text id="SvgjsText1253" font-family="微软雅黑" text-anchor="middle" font-size="13px" width="87px" fill="#323232" font-weight="700" align="middle" lineHeight="125%" anchor="middle" family="微软雅黑" size="13px" weight="700" font-style="" opacity="1" y="4.375" transform="rotate(0)"><tspan id="SvgjsTspan1254" dy="16.25" x="53.5"><tspan id="SvgjsTspan1255" style="">支付服务</tspan></tspan></text></g></g><g id="SvgjsG1256" transform="translate(65.52089905362777,591.2733778625955)"><path id="SvgjsPath1257" d="M 0 4Q 0 0 4 0L 366.4791009463722 0Q 370.4791009463722 0 370.4791009463722 4L 370.4791009463722 162.27337786259545Q 370.4791009463722 166.27337786259545 366.4791009463722 166.27337786259545L 4 166.27337786259545Q 0 166.27337786259545 0 162.27337786259545Z" stroke="rgba(33,41,48,1)" stroke-width="1.5" fill-opacity="1" fill="#ffffff"></path><path id="SvgjsPath1258" d="M 0 25L 111.14373028391167 25L 119.14373028391167 17L 119.14373028391167 0" stroke="rgba(33,41,48,1)" stroke-width="1.5" fill-opacity="1" fill="#ffffff"></path><path id="SvgjsPath1259" d="M 0 0L 370.4791009463722 0L 370.4791009463722 166.27337786259545L 0 166.27337786259545Z" stroke="none" fill="none"></path><g id="SvgjsG1260"><text id="SvgjsText1261" font-family="微软雅黑" text-anchor="start" font-size="13px" width="351px" fill="#323232" font-weight="400" align="top" lineHeight="125%" anchor="start" family="微软雅黑" size="13px" weight="400" font-style="" opacity="1" y="27.375" transform="rotate(0)"></text></g><g id="SvgjsG1262"><text id="SvgjsText1263" font-family="微软雅黑" text-anchor="start" font-size="13px" width="102px" fill="#323232" font-weight="400" align="middle" lineHeight="125%" anchor="start" family="微软雅黑" size="13px" weight="400" font-style="" opacity="1" y="1.875" transform="rotate(0)"><tspan id="SvgjsTspan1264" dy="16.25" x="10"><tspan id="SvgjsTspan1265" style="">opt</tspan></tspan></text></g></g><g id="SvgjsG1266" transform="translate(71,628)"><path id="SvgjsPath1267" d="M 0 4Q 0 0 4 0L 355.5208990536278 0Q 359.5208990536278 0 359.5208990536278 4L 359.5208990536278 112.72662213740455Q 359.5208990536278 116.72662213740455 355.5208990536278 116.72662213740455L 4 116.72662213740455Q 0 116.72662213740455 0 112.72662213740455Z" stroke="rgba(33,41,48,1)" stroke-width="1.5" fill-opacity="1" fill="#ffffff"></path><path id="SvgjsPath1268" d="M 0 25L 107.85626971608833 25L 115.85626971608833 17L 115.85626971608833 0" stroke="rgba(33,41,48,1)" stroke-width="1.5" fill-opacity="1" fill="#ffffff"></path><path id="SvgjsPath1269" d="M 0 0L 359.5208990536278 0L 359.5208990536278 116.72662213740455L 0 116.72662213740455Z" stroke="none" fill="none"></path><g id="SvgjsG1270"><text id="SvgjsText1271" font-family="微软雅黑" text-anchor="start" font-size="13px" width="340px" fill="#323232" font-weight="400" align="top" lineHeight="125%" anchor="start" family="微软雅黑" size="13px" weight="400" font-style="" opacity="1" y="27.375" transform="rotate(0)"></text></g><g id="SvgjsG1272"><text id="SvgjsText1273" font-family="微软雅黑" text-anchor="start" font-size="13px" width="98px" fill="#323232" font-weight="400" align="middle" lineHeight="125%" anchor="start" family="微软雅黑" size="13px" weight="400" font-style="" opacity="1" y="1.875" transform="rotate(0)"><tspan id="SvgjsTspan1274" dy="16.25" x="10"><tspan id="SvgjsTspan1275" style="">loop</tspan></tspan></text></g></g><g id="SvgjsG1276"><path id="SvgjsPath1277" d="M90 91.27337786259545L170.88022476340694 91.27337786259545L170.88022476340694 91.27337786259545L251.7604495268139 91.27337786259545" stroke="#323232" stroke-width="1.5" fill="none" marker-end="url(#SvgjsMarker1278)"></path></g><g id="SvgjsG1280" transform="translate(107.28134858044166,55.27337786259545)"><path id="SvgjsPath1281" d="M 0 0L 123.47910094637223 0L 123.47910094637223 40L 0 40Z" stroke="none" fill="none"></path><g id="SvgjsG1282"><text id="SvgjsText1283" font-family="微软雅黑" text-anchor="middle" font-size="13px" width="124px" fill="#323232" font-weight="400" align="middle" lineHeight="125%" anchor="middle" family="微软雅黑" size="13px" weight="400" font-style="" opacity="1" y="9.375" transform="rotate(0)"><tspan id="SvgjsTspan1284" dy="16.25" x="62"><tspan id="SvgjsTspan1285" style="">业务检查，冻结货款</tspan></tspan></text></g></g><g id="SvgjsG1286" transform="translate(66.52089905362777,116.27337786259545)"><path id="SvgjsPath1287" d="M 0 4Q 0 0 4 0L 201 0Q 205 0 205 4L 205 102.72662213740455Q 205 106.72662213740455 201 106.72662213740455L 4 106.72662213740455Q 0 106.72662213740455 0 102.72662213740455Z" stroke="rgba(33,41,48,1)" stroke-width="1.5" fill-opacity="1" fill="#ffffff"></path><path id="SvgjsPath1288" d="M 0 25L 61.5 25L 69.5 17L 69.5 0" stroke="rgba(33,41,48,1)" stroke-width="1.5" fill-opacity="1" fill="#ffffff"></path><path id="SvgjsPath1289" d="M 0 0L 205 0L 205 106.72662213740455L 0 106.72662213740455Z" stroke="none" fill="none"></path><g id="SvgjsG1290"><text id="SvgjsText1291" font-family="微软雅黑" text-anchor="start" font-size="13px" width="185px" fill="#323232" font-weight="400" align="top" lineHeight="125%" anchor="start" family="微软雅黑" size="13px" weight="400" font-style="" opacity="1" y="27.375" transform="rotate(0)"></text></g><g id="SvgjsG1292"><text id="SvgjsText1293" font-family="微软雅黑" text-anchor="start" font-size="13px" width="52px" fill="#323232" font-weight="400" align="middle" lineHeight="125%" anchor="start" family="微软雅黑" size="13px" weight="400" font-style="" opacity="1" y="1.875" transform="rotate(0)"><tspan id="SvgjsTspan1294" dy="16.25" x="10"><tspan id="SvgjsTspan1295" style="">alt</tspan></tspan></text></g></g><g id="SvgjsG1296" transform="translate(135.01735015772869,112.27337786259545)"><path id="SvgjsPath1297" d="M 0 0L 100 0L 100 40L 0 40Z" stroke="none" fill="none"></path><g id="SvgjsG1298"><text id="SvgjsText1299" font-family="微软雅黑" text-anchor="middle" font-size="13px" width="100px" fill="#323232" font-weight="400" align="middle" lineHeight="125%" anchor="middle" family="微软雅黑" size="13px" weight="400" font-style="" opacity="1" y="9.375" transform="rotate(0)"><tspan id="SvgjsTspan1300" dy="16.25" x="50"><tspan id="SvgjsTspan1301" style="">[成功]</tspan></tspan></text></g></g><g id="SvgjsG1302"><path id="SvgjsPath1303" d="M71 162L170.5 162L170.5 162L270 162" stroke-dasharray="8,5" stroke="#323232" stroke-width="1.5" fill="none" marker-start="url(#SvgjsMarker1304)"></path></g><g id="SvgjsG1306" transform="translate(132.52089905362777,128.91006679389318)"><path id="SvgjsPath1307" d="M 0 0L 112.47910094637223 0L 112.47910094637223 40L 0 40Z" stroke="none" fill="none"></path><g id="SvgjsG1308"><text id="SvgjsText1309" font-family="微软雅黑" text-anchor="middle" font-size="13px" width="113px" fill="#323232" font-weight="400" align="middle" lineHeight="125%" anchor="middle" family="微软雅黑" size="13px" weight="400" font-style="" opacity="1" y="9.375" transform="rotate(0)"><tspan id="SvgjsTspan1310" dy="16.25" x="56.5"><tspan id="SvgjsTspan1311" style="">进入 Confirm 阶段</tspan></tspan></text></g></g><g id="SvgjsG1312"><path id="SvgjsPath1313" d="M71 208L170.5 208L170.5 208L270 208" stroke-dasharray="8,5" stroke="#323232" stroke-width="1.5" fill="none" marker-start="url(#SvgjsMarker1314)"></path></g><g id="SvgjsG1316" transform="translate(122.53824921135646,175.27337786259545)"><path id="SvgjsPath1317" d="M 0 0L 112.47910094637223 0L 112.47910094637223 40L 0 40Z" stroke="none" fill="none"></path><g id="SvgjsG1318"><text id="SvgjsText1319" font-family="微软雅黑" text-anchor="middle" font-size="13px" width="113px" fill="#323232" font-weight="400" align="middle" lineHeight="125%" anchor="middle" family="微软雅黑" size="13px" weight="400" font-style="" opacity="1" y="9.375" transform="rotate(0)"><tspan id="SvgjsTspan1320" dy="16.25" x="56.5"><tspan id="SvgjsTspan1321" style="">进入 Cancel 阶段</tspan></tspan></text></g></g><g id="SvgjsG1322" transform="translate(127.96253943217641,155.27337786259545)"><path id="SvgjsPath1323" d="M 0 0L 100 0L 100 40L 0 40Z" stroke="none" fill="none"></path><g id="SvgjsG1324"><text id="SvgjsText1325" font-family="微软雅黑" text-anchor="middle" font-size="13px" width="100px" fill="#323232" font-weight="400" align="middle" lineHeight="125%" anchor="middle" family="微软雅黑" size="13px" weight="400" font-style="" opacity="1" y="9.375" transform="rotate(0)"><tspan id="SvgjsTspan1326" dy="16.25" x="50"><tspan id="SvgjsTspan1327" style="">[业务或网络异常]</tspan></tspan></text></g></g><g id="SvgjsG1328"><path id="SvgjsPath1329" d="M77.52089905362777 247.27337786259545L251.7604495268139 247.27337786259545L251.7604495268139 247.27337786259545L426 247.27337786259545" stroke="#323232" stroke-width="1.5" fill="none" marker-end="url(#SvgjsMarker1330)"></path></g><g id="SvgjsG1332" transform="translate(127.96253943217641,214.27337786259545)"><path id="SvgjsPath1333" d="M 0 0L 123.47910094637223 0L 123.47910094637223 40L 0 40Z" stroke="none" fill="none"></path><g id="SvgjsG1334"><text id="SvgjsText1335" font-family="微软雅黑" text-anchor="middle" font-size="13px" width="124px" fill="#323232" font-weight="400" align="middle" lineHeight="125%" anchor="middle" family="微软雅黑" size="13px" weight="400" font-style="" opacity="1" y="9.375" transform="rotate(0)"><tspan id="SvgjsTspan1336" dy="16.25" x="62"><tspan id="SvgjsTspan1337" style="">业务检查，冻结商品</tspan></tspan></text></g></g><g id="SvgjsG1338" transform="translate(66.52089905362777,273.27337786259545)"><path id="SvgjsPath1339" d="M 0 4Q 0 0 4 0L 364.4791009463722 0Q 368.4791009463722 0 368.4791009463722 4L 368.4791009463722 109.72662213740455Q 368.4791009463722 113.72662213740455 364.4791009463722 113.72662213740455L 4 113.72662213740455Q 0 113.72662213740455 0 109.72662213740455Z" stroke="rgba(33,41,48,1)" stroke-width="1.5" fill-opacity="1" fill="#ffffff"></path><path id="SvgjsPath1340" d="M 0 25L 110.54373028391167 25L 118.54373028391167 17L 118.54373028391167 0" stroke="rgba(33,41,48,1)" stroke-width="1.5" fill-opacity="1" fill="#ffffff"></path><path id="SvgjsPath1341" d="M 0 0L 368.4791009463722 0L 368.4791009463722 113.72662213740455L 0 113.72662213740455Z" stroke="none" fill="none"></path><g id="SvgjsG1342"><text id="SvgjsText1343" font-family="微软雅黑" text-anchor="start" font-size="13px" width="349px" fill="#323232" font-weight="400" align="top" lineHeight="125%" anchor="start" family="微软雅黑" size="13px" weight="400" font-style="" opacity="1" y="27.375" transform="rotate(0)"></text></g><g id="SvgjsG1344"><text id="SvgjsText1345" font-family="微软雅黑" text-anchor="start" font-size="13px" width="101px" fill="#323232" font-weight="400" align="middle" lineHeight="125%" anchor="start" family="微软雅黑" size="13px" weight="400" font-style="" opacity="1" y="1.875" transform="rotate(0)"><tspan id="SvgjsTspan1346" dy="16.25" x="10"><tspan id="SvgjsTspan1347" style="">alt</tspan></tspan></text></g></g><g id="SvgjsG1348" transform="translate(207.52089905362777,283.27337786259545)"><path id="SvgjsPath1349" d="M 0 0L 112.47910094637223 0L 112.47910094637223 40L 0 40Z" stroke="none" fill="none"></path><g id="SvgjsG1350"><text id="SvgjsText1351" font-family="微软雅黑" text-anchor="middle" font-size="13px" width="113px" fill="#323232" font-weight="400" align="middle" lineHeight="125%" anchor="middle" family="微软雅黑" size="13px" weight="400" font-style="" opacity="1" y="9.375" transform="rotate(0)"><tspan id="SvgjsTspan1352" dy="16.25" x="56.5"><tspan id="SvgjsTspan1353" style="">进入 Confirm 阶段</tspan></tspan></text></g></g><g id="SvgjsG1354" transform="translate(205.2417192429021,265.27337786259545)"><path id="SvgjsPath1355" d="M 0 0L 100 0L 100 40L 0 40Z" stroke="none" fill="none"></path><g id="SvgjsG1356"><text id="SvgjsText1357" font-family="微软雅黑" text-anchor="middle" font-size="13px" width="100px" fill="#323232" font-weight="400" align="middle" lineHeight="125%" anchor="middle" family="微软雅黑" size="13px" weight="400" font-style="" opacity="1" y="9.375" transform="rotate(0)"><tspan id="SvgjsTspan1358" dy="16.25" x="50"><tspan id="SvgjsTspan1359" style="">[成功]</tspan></tspan></text></g></g><g id="SvgjsG1360"><path id="SvgjsPath1361" d="M75 322L249.5 322L249.5 322L424 322" stroke-dasharray="8,5" stroke="#323232" stroke-width="1.5" fill="none" marker-start="url(#SvgjsMarker1362)"></path></g><g id="SvgjsG1364"><path id="SvgjsPath1365" d="M74 376L248.5 376L248.5 376L423 376" stroke-dasharray="8,5" stroke="#323232" stroke-width="1.5" fill="none" marker-start="url(#SvgjsMarker1366)"></path></g><g id="SvgjsG1368" transform="translate(197.18976735015735,323.27337786259545)"><path id="SvgjsPath1369" d="M 0 0L 147.0374605678236 0L 147.0374605678236 40L 0 40Z" stroke="none" fill="none"></path><g id="SvgjsG1370"><text id="SvgjsText1371" font-family="微软雅黑" text-anchor="middle" font-size="13px" width="148px" fill="#323232" font-weight="400" align="middle" lineHeight="125%" anchor="middle" family="微软雅黑" size="13px" weight="400" font-style="" opacity="1" y="9.375" transform="rotate(0)"><tspan id="SvgjsTspan1372" dy="16.25" x="74"><tspan id="SvgjsTspan1373" style="">[业务或网络异常]</tspan></tspan></text></g></g><g id="SvgjsG1374" transform="translate(183.64067429022083,342.27337786259545)"><path id="SvgjsPath1375" d="M 0 0L 160.2395504731861 0L 160.2395504731861 40L 0 40Z" stroke="none" fill="none"></path><g id="SvgjsG1376"><text id="SvgjsText1377" font-family="微软雅黑" text-anchor="middle" font-size="13px" width="161px" fill="#323232" font-weight="400" align="middle" lineHeight="125%" anchor="middle" family="微软雅黑" size="13px" weight="400" font-style="" opacity="1" y="9.375" transform="rotate(0)"><tspan id="SvgjsTspan1378" dy="16.25" x="80.5"><tspan id="SvgjsTspan1379" style="">进入 Cancel 阶段</tspan></tspan></text></g></g><g id="SvgjsG1380" transform="translate(65.52089905362777,406)"><path id="SvgjsPath1381" d="M 0 4Q 0 0 4 0L 366.4791009463722 0Q 370.4791009463722 0 370.4791009463722 4L 370.4791009463722 162.27337786259545Q 370.4791009463722 166.27337786259545 366.4791009463722 166.27337786259545L 4 166.27337786259545Q 0 166.27337786259545 0 162.27337786259545Z" stroke="rgba(33,41,48,1)" stroke-width="1.5" fill-opacity="1" fill="#ffffff"></path><path id="SvgjsPath1382" d="M 0 25L 111.14373028391167 25L 119.14373028391167 17L 119.14373028391167 0" stroke="rgba(33,41,48,1)" stroke-width="1.5" fill-opacity="1" fill="#ffffff"></path><path id="SvgjsPath1383" d="M 0 0L 370.4791009463722 0L 370.4791009463722 166.27337786259545L 0 166.27337786259545Z" stroke="none" fill="none"></path><g id="SvgjsG1384"><text id="SvgjsText1385" font-family="微软雅黑" text-anchor="start" font-size="13px" width="351px" fill="#323232" font-weight="400" align="top" lineHeight="125%" anchor="start" family="微软雅黑" size="13px" weight="400" font-style="" opacity="1" y="27.375" transform="rotate(0)"></text></g><g id="SvgjsG1386"><text id="SvgjsText1387" font-family="微软雅黑" text-anchor="start" font-size="13px" width="102px" fill="#323232" font-weight="400" align="middle" lineHeight="125%" anchor="start" family="微软雅黑" size="13px" weight="400" font-style="" opacity="1" y="1.875" transform="rotate(0)"><tspan id="SvgjsTspan1388" dy="16.25" x="10"><tspan id="SvgjsTspan1389" style="">opt</tspan></tspan></text></g></g><g id="SvgjsG1390" transform="translate(71,437.27337786259545)"><path id="SvgjsPath1391" d="M 0 4Q 0 0 4 0L 355.5208990536278 0Q 359.5208990536278 0 359.5208990536278 4L 359.5208990536278 112.72662213740455Q 359.5208990536278 116.72662213740455 355.5208990536278 116.72662213740455L 4 116.72662213740455Q 0 116.72662213740455 0 112.72662213740455Z" stroke="rgba(33,41,48,1)" stroke-width="1.5" fill-opacity="1" fill="#ffffff"></path><path id="SvgjsPath1392" d="M 0 25L 107.85626971608833 25L 115.85626971608833 17L 115.85626971608833 0" stroke="rgba(33,41,48,1)" stroke-width="1.5" fill-opacity="1" fill="#ffffff"></path><path id="SvgjsPath1393" d="M 0 0L 359.5208990536278 0L 359.5208990536278 116.72662213740455L 0 116.72662213740455Z" stroke="none" fill="none"></path><g id="SvgjsG1394"><text id="SvgjsText1395" font-family="微软雅黑" text-anchor="start" font-size="13px" width="340px" fill="#323232" font-weight="400" align="top" lineHeight="125%" anchor="start" family="微软雅黑" size="13px" weight="400" font-style="" opacity="1" y="27.375" transform="rotate(0)"></text></g><g id="SvgjsG1396"><text id="SvgjsText1397" font-family="微软雅黑" text-anchor="start" font-size="13px" width="98px" fill="#323232" font-weight="400" align="middle" lineHeight="125%" anchor="start" family="微软雅黑" size="13px" weight="400" font-style="" opacity="1" y="1.875" transform="rotate(0)"><tspan id="SvgjsTspan1398" dy="16.25" x="10"><tspan id="SvgjsTspan1399" style="">loop</tspan></tspan></text></g></g><g id="SvgjsG1400" transform="translate(227.9625394321764,401.27337786259545)"><path id="SvgjsPath1401" d="M 0 0L 154.00709779179817 0L 154.00709779179817 40L 0 40Z" stroke="none" fill="none"></path><g id="SvgjsG1402"><text id="SvgjsText1403" font-family="微软雅黑" text-anchor="middle" font-size="13px" width="155px" fill="#323232" font-weight="400" align="middle" lineHeight="125%" anchor="middle" family="微软雅黑" size="13px" weight="400" font-style="" opacity="1" y="9.375" transform="rotate(0)"><tspan id="SvgjsTspan1404" dy="16.25" x="77.5"><tspan id="SvgjsTspan1405" style="">[全部记录返回 Confirm]</tspan></tspan></text></g></g><g id="SvgjsG1406"><path id="SvgjsPath1407" d="M83 502L177.2604495268139 502L177.2604495268139 502L271.5208990536278 502" stroke="#323232" stroke-width="1.5" fill="none" marker-end="url(#SvgjsMarker1408)"></path></g><g id="SvgjsG1410" transform="translate(95.75906940063078,460.27337786259545)"><path id="SvgjsPath1411" d="M 0 0L 166.0374605678236 0L 166.0374605678236 40L 0 40Z" stroke="none" fill="none"></path><g id="SvgjsG1412"><text id="SvgjsText1413" font-family="微软雅黑" text-anchor="middle" font-size="13px" width="167px" fill="#323232" font-weight="400" align="middle" lineHeight="125%" anchor="middle" family="微软雅黑" size="13px" weight="400" font-style="" opacity="1" y="9.375" transform="rotate(0)"><tspan id="SvgjsTspan1414" dy="16.25" x="83.5"><tspan id="SvgjsTspan1415" style="">完成业务，扣减冻结的货款</tspan></tspan></text></g></g><g id="SvgjsG1416"><path id="SvgjsPath1417" d="M76 542L252 542L252 542L428 542" stroke="#323232" stroke-width="1.5" fill="none" marker-end="url(#SvgjsMarker1418)"></path></g><g id="SvgjsG1420" transform="translate(95.75906940063078,508)"><path id="SvgjsPath1421" d="M 0 0L 166.0374605678236 0L 166.0374605678236 40L 0 40Z" stroke="none" fill="none"></path><g id="SvgjsG1422"><text id="SvgjsText1423" font-family="微软雅黑" text-anchor="middle" font-size="13px" width="167px" fill="#323232" font-weight="400" align="middle" lineHeight="125%" anchor="middle" family="微软雅黑" size="13px" weight="400" font-style="" opacity="1" y="9.375" transform="rotate(0)"><tspan id="SvgjsTspan1424" dy="16.25" x="83.5"><tspan id="SvgjsTspan1425" style="">完成业务，扣减冻结的货物</tspan></tspan></text></g></g><g id="SvgjsG1426" transform="translate(197.18976735015735,591.2733778625955)"><path id="SvgjsPath1427" d="M 0 0L 215.5526419558363 0L 215.5526419558363 40L 0 40Z" stroke="none" fill="none"></path><g id="SvgjsG1428"><text id="SvgjsText1429" font-family="微软雅黑" text-anchor="middle" font-size="13px" width="216px" fill="#323232" font-weight="400" align="middle" lineHeight="125%" anchor="middle" family="微软雅黑" size="13px" weight="400" font-style="" opacity="1" y="9.375" transform="rotate(0)"><tspan id="SvgjsTspan1430" dy="16.25" x="108"><tspan id="SvgjsTspan1431" style="">[任意服务超时或者返回 Cancel 阶段]</tspan></tspan></text></g></g><g id="SvgjsG1432"><path id="SvgjsPath1433" d="M78 728L254 728L254 728L430 728" stroke="#323232" stroke-width="1.5" fill="none" marker-end="url(#SvgjsMarker1434)"></path></g><g id="SvgjsG1436"><path id="SvgjsPath1437" d="M80 683L174.2604495268139 683L174.2604495268139 683L268.5208990536278 683" stroke="#323232" stroke-width="1.5" fill="none" marker-end="url(#SvgjsMarker1438)"></path></g><g id="SvgjsG1440" transform="translate(85.40417981072505,650.2733778625955)"><path id="SvgjsPath1441" d="M 0 0L 166.0374605678236 0L 166.0374605678236 40L 0 40Z" stroke="none" fill="none"></path><g id="SvgjsG1442"><text id="SvgjsText1443" font-family="微软雅黑" text-anchor="middle" font-size="13px" width="167px" fill="#323232" font-weight="400" align="middle" lineHeight="125%" anchor="middle" family="微软雅黑" size="13px" weight="400" font-style="" opacity="1" y="9.375" transform="rotate(0)"><tspan id="SvgjsTspan1444" dy="16.25" x="83.5"><tspan id="SvgjsTspan1445" style="">取消业务，解冻货款</tspan></tspan></text></g></g><g id="SvgjsG1446" transform="translate(78.96253943217641,692.7266221374045)"><path id="SvgjsPath1447" d="M 0 0L 166.0374605678236 0L 166.0374605678236 40L 0 40Z" stroke="none" fill="none"></path><g id="SvgjsG1448"><text id="SvgjsText1449" font-family="微软雅黑" text-anchor="middle" font-size="13px" width="167px" fill="#323232" font-weight="400" align="middle" lineHeight="125%" anchor="middle" family="微软雅黑" size="13px" weight="400" font-style="" opacity="1" y="9.375" transform="rotate(0)"><tspan id="SvgjsTspan1450" dy="16.25" x="83.5"><tspan id="SvgjsTspan1451" style="">取消业务，解冻货物</tspan></tspan></text></g></g></svg>