<svg version="1.1" viewBox="0.0 0.0 722.1312335958005 542.7585301837271" fill="none" stroke="none" stroke-linecap="square" stroke-miterlimit="10" xmlns:xlink="http://www.w3.org/1999/xlink" xmlns="http://www.w3.org/2000/svg"><clipPath id="p.0"><path d="m0 0l722.1312 0l0 542.75854l-722.1312 0l0 -542.75854z" clip-rule="nonzero"/></clipPath><g clip-path="url(#p.0)"><path fill="#000000" fill-opacity="0.0" d="m0 0l722.1312 0l0 542.75854l-722.1312 0z" fill-rule="evenodd"/><path fill="#ffffff" d="m20.060368 74.29396l0 0c0 -0.0030822754 0.002500534 -0.005584717 0.005586624 -0.005584717l670.2936 0.005584717c0.0015258789 0 0.0029296875 5.874634E-4 0.003967285 0.0016403198c0.0010375977 0.001045227 0.0016479492 0.0024642944 0.0016479492 0.003944397l-0.0056152344 325.25427c0 0.0030822754 -0.0025024414 0.005584717 -0.005554199 0.005584717l-670.29364 -0.005584717l0 0c-0.0030841827 0 -0.005586624 -0.0025024414 -0.005586624 -0.005584717z" fill-rule="evenodd"/><path stroke="#000000" stroke-width="1.0" stroke-linejoin="round" stroke-linecap="butt" d="m20.060368 74.29396l0 0c0 -0.0030822754 0.002500534 -0.005584717 0.005586624 -0.005584717l670.2936 0.005584717c0.0015258789 0 0.0029296875 5.874634E-4 0.003967285 0.0016403198c0.0010375977 0.001045227 0.0016479492 0.0024642944 0.0016479492 0.003944397l-0.0056152344 325.25427c0 0.0030822754 -0.0025024414 0.005584717 -0.005554199 0.005584717l-670.29364 -0.005584717l0 0c-0.0030841827 0 -0.005586624 -0.0025024414 -0.005586624 -0.005584717z" fill-rule="evenodd"/><path fill="#cfe2f3" d="m263.69415 288.08646l181.62006 0l0 46.551117l-181.62006 0z" fill-rule="evenodd"/><path fill="#6d9eeb" d="m346.35754 288.0866l15.224091 0l0 46.551117l-15.224091 0z" fill-rule="evenodd"/><path fill="#6d9eeb" d="m367.7086 288.0866l15.22406 0l0 46.551117l-15.22406 0z" fill-rule="evenodd"/><path fill="#6d9eeb" d="m389.06158 288.0866l15.22406 0l0 46.551117l-15.22406 0z" fill-rule="evenodd"/><path fill="#6d9eeb" d="m413.2256 288.0866l15.22406 0l0 46.551117l-15.22406 0z" fill-rule="evenodd"/><path fill="#000000" fill-opacity="0.0" d="m284.5853 330.31628l139.84253 0l0 35.55905l-139.84253 0z" fill-rule="evenodd"/><path fill="#000000" d="m319.53802 349.05377l1.203125 -0.109375q0.078125 0.71875 0.390625 1.1875q0.3125 0.453125 0.953125 0.734375q0.65625 0.28125 1.46875 0.28125q0.71875 0 1.265625 -0.21875q0.5625 -0.21875 0.828125 -0.578125q0.265625 -0.375 0.265625 -0.828125q0 -0.453125 -0.265625 -0.78125q-0.25 -0.328125 -0.84375 -0.5625q-0.390625 -0.15625 -1.703125 -0.46875q-1.3125 -0.3125 -1.84375 -0.59375q-0.671875 -0.359375 -1.015625 -0.890625q-0.328125 -0.53125 -0.328125 -1.1875q0 -0.71875 0.40625 -1.34375q0.40625 -0.625 1.1875 -0.953125q0.796875 -0.328125 1.765625 -0.328125q1.046875 0 1.859375 0.34375q0.8125 0.34375 1.25 1.015625q0.4375 0.65625 0.46875 1.484375l-1.203125 0.09375q-0.109375 -0.90625 -0.671875 -1.359375q-0.5625 -0.46875 -1.65625 -0.46875q-1.140625 0 -1.671875 0.421875q-0.515625 0.421875 -0.515625 1.015625q0 0.515625 0.359375 0.84375q0.375 0.328125 1.90625 0.6875q1.546875 0.34375 2.109375 0.59375q0.84375 0.390625 1.234375 0.984375q0.390625 0.578125 0.390625 1.359375q0 0.75 -0.4375 1.4375q-0.421875 0.671875 -1.25 1.046875q-0.8125 0.359375 -1.828125 0.359375q-1.296875 0 -2.171875 -0.375q-0.875 -0.375 -1.375 -1.125q-0.5 -0.765625 -0.53125 -1.71875zm12.01474 3.0625l0 -4.046875l-3.6875 -5.5l1.546875 0l1.875 2.875q0.515625 0.8125 0.96875 1.625q0.4375 -0.75 1.046875 -1.6875l1.84375 -2.8125l1.46875 0l-3.796875 5.5l0 4.046875l-1.265625 0zm6.1866455 0l0 -9.546875l1.296875 0l5.015625 7.5l0 -7.5l1.203125 0l0 9.546875l-1.296875 0l-5.015625 -7.5l0 7.5l-1.203125 0zm20.578125 -1.015625q0.875 0.59375 1.609375 0.875l-0.359375 0.875q-1.03125 -0.359375 -2.0625 -1.15625q-1.0625 0.578125 -2.34375 0.578125q-1.296875 0 -2.34375 -0.625q-1.046875 -0.625 -1.625 -1.75q-0.5625 -1.125 -0.5625 -2.546875q0 -1.421875 0.5625 -2.578125q0.578125 -1.15625 1.625 -1.75q1.0625 -0.609375 2.375 -0.609375q1.328125 0 2.375 0.625q1.0625 0.625 1.625 1.75q0.5625 1.125 0.5625 2.546875q0 1.1875 -0.359375 2.125q-0.359375 0.9375 -1.078125 1.640625zm-2.78125 -1.625q1.09375 0.3125 1.796875 0.921875q1.109375 -1.015625 1.109375 -3.0625q0 -1.15625 -0.390625 -2.015625q-0.390625 -0.875 -1.15625 -1.34375q-0.75 -0.484375 -1.703125 -0.484375q-1.40625 0 -2.34375 0.96875q-0.921875 0.96875 -0.921875 2.890625q0 1.859375 0.921875 2.859375q0.921875 0.984375 2.34375 0.984375q0.6875 0 1.28125 -0.25q-0.59375 -0.390625 -1.25 -0.546875l0.3125 -0.921875zm10.28894 2.640625l0 -1.015625q-0.8125 1.171875 -2.1875 1.171875q-0.609375 0 -1.140625 -0.234375q-0.53125 -0.234375 -0.796875 -0.578125q-0.25 -0.359375 -0.359375 -0.875q-0.0625 -0.34375 -0.0625 -1.09375l0 -4.28125l1.171875 0l0 3.828125q0 0.921875 0.0625 1.234375q0.109375 0.46875 0.46875 0.734375q0.359375 0.25 0.890625 0.25q0.515625 0 0.984375 -0.265625q0.46875 -0.265625 0.65625 -0.734375q0.1875 -0.46875 0.1875 -1.34375l0 -3.703125l1.171875 0l0 6.90625l-1.046875 0zm7.6156006 -2.21875l1.203125 0.140625q-0.28125 1.0625 -1.0625 1.65625q-0.765625 0.578125 -1.96875 0.578125q-1.515625 0 -2.40625 -0.9375q-0.890625 -0.9375 -0.890625 -2.609375q0 -1.75 0.890625 -2.703125q0.90625 -0.96875 2.34375 -0.96875q1.390625 0 2.265625 0.9375q0.875 0.9375 0.875 2.65625q0 0.109375 0 0.3125l-5.15625 0q0.0625 1.140625 0.640625 1.75q0.578125 0.59375 1.4375 0.59375q0.65625 0 1.109375 -0.328125q0.453125 -0.34375 0.71875 -1.078125zm-3.84375 -1.90625l3.859375 0q-0.078125 -0.859375 -0.4375 -1.296875q-0.5625 -0.6875 -1.453125 -0.6875q-0.8125 0 -1.359375 0.546875q-0.546875 0.53125 -0.609375 1.4375zm11.053101 4.125l0 -1.015625q-0.8125 1.171875 -2.1875 1.171875q-0.609375 0 -1.140625 -0.234375q-0.53125 -0.234375 -0.796875 -0.578125q-0.25 -0.359375 -0.359375 -0.875q-0.0625 -0.34375 -0.0625 -1.09375l0 -4.28125l1.171875 0l0 3.828125q0 0.921875 0.0625 1.234375q0.109375 0.46875 0.46875 0.734375q0.359375 0.25 0.890625 0.25q0.515625 0 0.984375 -0.265625q0.46875 -0.265625 0.65625 -0.734375q0.1875 -0.46875 0.1875 -1.34375l0 -3.703125l1.171875 0l0 6.90625l-1.046875 0zm7.6156006 -2.21875l1.203125 0.140625q-0.28125 1.0625 -1.0625 1.65625q-0.765625 0.578125 -1.96875 0.578125q-1.515625 0 -2.40625 -0.9375q-0.890625 -0.9375 -0.890625 -2.609375q0 -1.75 0.890625 -2.703125q0.90625 -0.96875 2.34375 -0.96875q1.390625 0 2.265625 0.9375q0.875 0.9375 0.875 2.65625q0 0.109375 0 0.3125l-5.15625 0q0.0625 1.140625 0.640625 1.75q0.578125 0.59375 1.4375 0.59375q0.65625 0 1.109375 -0.328125q0.453125 -0.34375 0.71875 -1.078125zm-3.84375 -1.90625l3.859375 0q-0.078125 -0.859375 -0.4375 -1.296875q-0.5625 -0.6875 -1.453125 -0.6875q-0.8125 0 -1.359375 0.546875q-0.546875 0.53125 -0.609375 1.4375z" fill-rule="nonzero"/><path fill="#000000" fill-opacity="0.0" d="m256.41733 182.80315l139.84253 0l0 35.55905l-139.84253 0z" fill-rule="evenodd"/><path fill="#000000" d="m284.0901 204.60315l3.65625 -9.546875l1.359375 0l3.90625 9.546875l-1.4375 0l-1.109375 -2.890625l-3.984375 0l-1.046875 2.890625l-1.34375 0zm2.75 -3.921875l3.234375 0l-1.0 -2.640625q-0.453125 -1.203125 -0.671875 -1.96875q-0.1875 0.90625 -0.515625 1.8125l-1.046875 2.796875zm11.54599 1.390625l1.15625 0.15625q-0.1875 1.1875 -0.96875 1.859375q-0.78125 0.671875 -1.921875 0.671875q-1.40625 0 -2.28125 -0.921875q-0.859375 -0.9375 -0.859375 -2.65625q0 -1.125 0.375 -1.96875q0.375 -0.84375 1.125 -1.25q0.765625 -0.421875 1.65625 -0.421875q1.125 0 1.84375 0.578125q0.71875 0.5625 0.921875 1.609375l-1.140625 0.171875q-0.171875 -0.703125 -0.59375 -1.046875q-0.40625 -0.359375 -0.984375 -0.359375q-0.890625 0 -1.453125 0.640625q-0.546875 0.640625 -0.546875 2.0q0 1.40625 0.53125 2.03125q0.546875 0.625 1.40625 0.625q0.6875 0 1.140625 -0.421875q0.46875 -0.421875 0.59375 -1.296875zm6.6640625 0l1.15625 0.15625q-0.1875 1.1875 -0.96875 1.859375q-0.78125 0.671875 -1.921875 0.671875q-1.40625 0 -2.28125 -0.921875q-0.859375 -0.9375 -0.859375 -2.65625q0 -1.125 0.375 -1.96875q0.375 -0.84375 1.125 -1.25q0.765625 -0.421875 1.65625 -0.421875q1.125 0 1.84375 0.578125q0.71875 0.5625 0.921875 1.609375l-1.140625 0.171875q-0.171875 -0.703125 -0.59375 -1.046875q-0.40625 -0.359375 -0.984375 -0.359375q-0.890625 0 -1.453125 0.640625q-0.546875 0.640625 -0.546875 2.0q0 1.40625 0.53125 2.03125q0.546875 0.625 1.40625 0.625q0.6875 0 1.140625 -0.421875q0.46875 -0.421875 0.59375 -1.296875zm6.8828125 0.3125l1.203125 0.140625q-0.28125 1.0625 -1.0625 1.65625q-0.765625 0.578125 -1.96875 0.578125q-1.515625 0 -2.40625 -0.9375q-0.890625 -0.9375 -0.890625 -2.609375q0 -1.75 0.890625 -2.703125q0.90625 -0.96875 2.34375 -0.96875q1.390625 0 2.265625 0.9375q0.875 0.9375 0.875 2.65625q0 0.109375 0 0.3125l-5.15625 0q0.0625 1.140625 0.640625 1.75q0.578125 0.59375 1.4375 0.59375q0.65625 0 1.109375 -0.328125q0.453125 -0.34375 0.71875 -1.078125zm-3.84375 -1.90625l3.859375 0q-0.078125 -0.859375 -0.4375 -1.296875q-0.5625 -0.6875 -1.453125 -0.6875q-0.8125 0 -1.359375 0.546875q-0.546875 0.53125 -0.609375 1.4375zm6.5218506 6.78125l0 -9.5625l1.078125 0l0 0.890625q0.375 -0.53125 0.84375 -0.78125q0.484375 -0.265625 1.15625 -0.265625q0.875 0 1.546875 0.453125q0.6875 0.453125 1.03125 1.28125q0.34375 0.828125 0.34375 1.828125q0 1.046875 -0.375 1.90625q-0.375 0.84375 -1.109375 1.296875q-0.71875 0.453125 -1.53125 0.453125q-0.578125 0 -1.046875 -0.25q-0.46875 -0.25 -0.765625 -0.625l0 3.375l-1.171875 0zm1.0625 -6.078125q0 1.34375 0.53125 1.984375q0.546875 0.625 1.3125 0.625q0.78125 0 1.34375 -0.65625q0.5625 -0.65625 0.5625 -2.046875q0 -1.3125 -0.546875 -1.96875q-0.546875 -0.671875 -1.296875 -0.671875q-0.75 0 -1.328125 0.703125q-0.578125 0.703125 -0.578125 2.03125zm8.912476 2.375l0.171875 1.03125q-0.5 0.109375 -0.890625 0.109375q-0.640625 0 -1.0 -0.203125q-0.34375 -0.203125 -0.484375 -0.53125q-0.140625 -0.328125 -0.140625 -1.390625l0 -3.96875l-0.859375 0l0 -0.90625l0.859375 0l0 -1.71875l1.171875 -0.703125l0 2.421875l1.171875 0l0 0.90625l-1.171875 0l0 4.046875q0 0.5 0.046875 0.640625q0.0625 0.140625 0.203125 0.234375q0.140625 0.078125 0.40625 0.078125q0.203125 0 0.515625 -0.046875zm12.2341 0.03125q0.875 0.59375 1.609375 0.875l-0.359375 0.875q-1.03125 -0.359375 -2.0625 -1.15625q-1.0625 0.578125 -2.34375 0.578125q-1.296875 0 -2.34375 -0.625q-1.046875 -0.625 -1.625 -1.75q-0.5625 -1.125 -0.5625 -2.546875q0 -1.421875 0.5625 -2.578125q0.578125 -1.15625 1.625 -1.75q1.0625 -0.609375 2.375 -0.609375q1.328125 0 2.375 0.625q1.0625 0.625 1.625 1.75q0.5625 1.125 0.5625 2.546875q0 1.1875 -0.359375 2.125q-0.359375 0.9375 -1.078125 1.640625zm-2.78125 -1.625q1.09375 0.3125 1.796875 0.921875q1.109375 -1.015625 1.109375 -3.0625q0 -1.15625 -0.390625 -2.015625q-0.390625 -0.875 -1.15625 -1.34375q-0.75 -0.484375 -1.703125 -0.484375q-1.40625 0 -2.34375 0.96875q-0.921875 0.96875 -0.921875 2.890625q0 1.859375 0.921875 2.859375q0.921875 0.984375 2.34375 0.984375q0.6875 0 1.28125 -0.25q-0.59375 -0.390625 -1.25 -0.546875l0.3125 -0.921875zm10.28894 2.640625l0 -1.015625q-0.8125 1.171875 -2.1875 1.171875q-0.609375 0 -1.140625 -0.234375q-0.53125 -0.234375 -0.796875 -0.578125q-0.25 -0.359375 -0.359375 -0.875q-0.0625 -0.34375 -0.0625 -1.09375l0 -4.28125l1.171875 0l0 3.828125q0 0.921875 0.0625 1.234375q0.109375 0.46875 0.46875 0.734375q0.359375 0.25 0.890625 0.25q0.515625 0 0.984375 -0.265625q0.46875 -0.265625 0.65625 -0.734375q0.1875 -0.46875 0.1875 -1.34375l0 -3.703125l1.171875 0l0 6.90625l-1.046875 0zm7.6156006 -2.21875l1.203125 0.140625q-0.28125 1.0625 -1.0625 1.65625q-0.765625 0.578125 -1.96875 0.578125q-1.515625 0 -2.40625 -0.9375q-0.890625 -0.9375 -0.890625 -2.609375q0 -1.75 0.890625 -2.703125q0.90625 -0.96875 2.34375 -0.96875q1.390625 0 2.265625 0.9375q0.875 0.9375 0.875 2.65625q0 0.109375 0 0.3125l-5.15625 0q0.0625 1.140625 0.640625 1.75q0.578125 0.59375 1.4375 0.59375q0.65625 0 1.109375 -0.328125q0.453125 -0.34375 0.71875 -1.078125zm-3.84375 -1.90625l3.859375 0q-0.078125 -0.859375 -0.4375 -1.296875q-0.5625 -0.6875 -1.453125 -0.6875q-0.8125 0 -1.359375 0.546875q-0.546875 0.53125 -0.609375 1.4375zm11.053101 4.125l0 -1.015625q-0.8125 1.171875 -2.1875 1.171875q-0.609375 0 -1.140625 -0.234375q-0.53125 -0.234375 -0.796875 -0.578125q-0.25 -0.359375 -0.359375 -0.875q-0.0625 -0.34375 -0.0625 -1.09375l0 -4.28125l1.171875 0l0 3.828125q0 0.921875 0.0625 1.234375q0.109375 0.46875 0.46875 0.734375q0.359375 0.25 0.890625 0.25q0.515625 0 0.984375 -0.265625q0.46875 -0.265625 0.65625 -0.734375q0.1875 -0.46875 0.1875 -1.34375l0 -3.703125l1.171875 0l0 6.90625l-1.046875 0zm7.6156006 -2.21875l1.203125 0.140625q-0.28125 1.0625 -1.0625 1.65625q-0.765625 0.578125 -1.96875 0.578125q-1.515625 0 -2.40625 -0.9375q-0.890625 -0.9375 -0.890625 -2.609375q0 -1.75 0.890625 -2.703125q0.90625 -0.96875 2.34375 -0.96875q1.390625 0 2.265625 0.9375q0.875 0.9375 0.875 2.65625q0 0.109375 0 0.3125l-5.15625 0q0.0625 1.140625 0.640625 1.75q0.578125 0.59375 1.4375 0.59375q0.65625 0 1.109375 -0.328125q0.453125 -0.34375 0.71875 -1.078125zm-3.84375 -1.90625l3.859375 0q-0.078125 -0.859375 -0.4375 -1.296875q-0.5625 -0.6875 -1.453125 -0.6875q-0.8125 0 -1.359375 0.546875q-0.546875 0.53125 -0.609375 1.4375z" fill-rule="nonzero"/><path fill="#d9d9d9" d="m228.4567 476.0054l0 0c0 -4.2850037 3.4736786 -7.7586975 7.7586823 -7.7586975l224.89207 0c2.0577393 0 4.031189 0.81744385 5.4862366 2.2724915c1.4550171 1.4550171 2.272461 3.4284668 2.272461 5.486206l0 31.033813c0 4.2850037 -3.4736938 7.7586975 -7.7586975 7.7586975l-224.89207 0l0 0c-4.2850037 0 -7.7586823 -3.4736938 -7.7586823 -7.7586975z" fill-rule="evenodd"/><path fill="#000000" d="m295.2903 499.03854l0 -1.40625q-1.046875 -0.140625 -1.71875 -0.484375q-0.65625 -0.34375 -1.140625 -1.09375q-0.46875 -0.765625 -0.546875 -1.859375l1.40625 -0.265625q0.171875 1.140625 0.578125 1.671875q0.59375 0.75 1.421875 0.828125l0 -4.46875q-0.859375 -0.171875 -1.765625 -0.671875q-0.671875 -0.375 -1.046875 -1.03125q-0.359375 -0.671875 -0.359375 -1.515625q0 -1.5 1.0625 -2.4375q0.71875 -0.625 2.109375 -0.765625l0 -0.671875l0.828125 0l0 0.671875q1.234375 0.125 1.953125 0.71875q0.921875 0.765625 1.109375 2.109375l-1.453125 0.21875q-0.125 -0.828125 -0.53125 -1.265625q-0.390625 -0.453125 -1.078125 -0.59375l0 4.0625q1.0625 0.265625 1.40625 0.40625q0.65625 0.296875 1.0625 0.71875q0.421875 0.40625 0.640625 0.984375q0.234375 0.5625 0.234375 1.21875q0 1.46875 -0.9375 2.453125q-0.921875 0.96875 -2.40625 1.046875l0 1.421875l-0.828125 0zm0 -12.328125q-0.8125 0.125 -1.296875 0.65625q-0.46875 0.53125 -0.46875 1.265625q0 0.71875 0.40625 1.203125q0.40625 0.484375 1.359375 0.765625l0 -3.890625zm0.828125 9.71875q0.828125 -0.09375 1.359375 -0.703125q0.53125 -0.609375 0.53125 -1.515625q0 -0.765625 -0.375 -1.21875q-0.375 -0.46875 -1.515625 -0.84375l0 4.28125zm19.445312 -2.09375l1.390625 0.1875q-0.234375 1.421875 -1.171875 2.234375q-0.921875 0.8125 -2.28125 0.8125q-1.703125 0 -2.75 -1.109375q-1.03125 -1.125 -1.03125 -3.203125q0 -1.34375 0.4375 -2.34375q0.453125 -1.015625 1.359375 -1.515625q0.921875 -0.5 1.984375 -0.5q1.359375 0 2.21875 0.6875q0.859375 0.671875 1.09375 1.9375l-1.359375 0.203125q-0.203125 -0.828125 -0.703125 -1.25q-0.484375 -0.421875 -1.1875 -0.421875q-1.0625 0 -1.734375 0.765625q-0.65625 0.75 -0.65625 2.40625q0 1.671875 0.640625 2.4375q0.640625 0.75 1.671875 0.75q0.828125 0 1.375 -0.5q0.5625 -0.515625 0.703125 -1.578125zm8.03125 3.046875l0 -1.21875q-0.96875 1.40625 -2.640625 1.40625q-0.734375 0 -1.375 -0.28125q-0.625 -0.28125 -0.9375 -0.703125q-0.3125 -0.4375 -0.4375 -1.046875q-0.078125 -0.421875 -0.078125 -1.3125l0 -5.140625l1.40625 0l0 4.59375q0 1.109375 0.078125 1.484375q0.140625 0.5625 0.5625 0.875q0.4375 0.3125 1.0625 0.3125q0.640625 0 1.1875 -0.3125q0.5625 -0.328125 0.78125 -0.890625q0.234375 -0.5625 0.234375 -1.625l0 -4.4375l1.40625 0l0 8.296875l-1.25 0zm3.4453125 0l0 -8.296875l1.265625 0l0 1.25q0.484375 -0.875 0.890625 -1.15625q0.40625 -0.28125 0.90625 -0.28125q0.703125 0 1.4375 0.453125l-0.484375 1.296875q-0.515625 -0.296875 -1.03125 -0.296875q-0.453125 0 -0.828125 0.28125q-0.359375 0.265625 -0.515625 0.765625q-0.234375 0.75 -0.234375 1.640625l0 4.34375l-1.40625 0zm5.3125 0l0 -11.453125l1.40625 0l0 11.453125l-1.40625 0zm7.46875 -2.484375l1.390625 -0.21875q0.109375 0.84375 0.640625 1.296875q0.546875 0.4375 1.5 0.4375q0.96875 0 1.4375 -0.390625q0.46875 -0.40625 0.46875 -0.9375q0 -0.46875 -0.40625 -0.75q-0.296875 -0.1875 -1.4375 -0.46875q-1.546875 -0.390625 -2.15625 -0.671875q-0.59375 -0.296875 -0.90625 -0.796875q-0.296875 -0.5 -0.296875 -1.109375q0 -0.5625 0.25 -1.03125q0.25 -0.46875 0.6875 -0.78125q0.328125 -0.25 0.890625 -0.40625q0.578125 -0.171875 1.21875 -0.171875q0.984375 0 1.71875 0.28125q0.734375 0.28125 1.078125 0.765625q0.359375 0.46875 0.5 1.28125l-1.375 0.1875q-0.09375 -0.640625 -0.546875 -1.0q-0.453125 -0.359375 -1.265625 -0.359375q-0.96875 0 -1.390625 0.328125q-0.40625 0.3125 -0.40625 0.734375q0 0.28125 0.171875 0.5q0.171875 0.21875 0.53125 0.375q0.21875 0.078125 1.25 0.359375q1.484375 0.390625 2.078125 0.65625q0.59375 0.25 0.921875 0.734375q0.34375 0.484375 0.34375 1.203125q0 0.703125 -0.421875 1.328125q-0.40625 0.609375 -1.1875 0.953125q-0.765625 0.34375 -1.734375 0.34375q-1.625 0 -2.46875 -0.671875q-0.84375 -0.671875 -1.078125 -2.0zm14.234375 -0.1875l1.453125 0.171875q-0.34375 1.28125 -1.28125 1.984375q-0.921875 0.703125 -2.359375 0.703125q-1.828125 0 -2.890625 -1.125q-1.0625 -1.125 -1.0625 -3.140625q0 -2.09375 1.078125 -3.25q1.078125 -1.15625 2.796875 -1.15625q1.65625 0 2.703125 1.140625q1.0625 1.125 1.0625 3.171875q0 0.125 0 0.375l-6.1875 0q0.078125 1.375 0.765625 2.109375q0.703125 0.71875 1.734375 0.71875q0.78125 0 1.328125 -0.40625q0.546875 -0.40625 0.859375 -1.296875zm-4.609375 -2.28125l4.625 0q-0.09375 -1.046875 -0.53125 -1.5625q-0.671875 -0.8125 -1.734375 -0.8125q-0.96875 0 -1.640625 0.65625q-0.65625 0.640625 -0.71875 1.71875zm7.8203125 4.953125l0 -8.296875l1.265625 0l0 1.25q0.484375 -0.875 0.890625 -1.15625q0.40625 -0.28125 0.90625 -0.28125q0.703125 0 1.4375 0.453125l-0.484375 1.296875q-0.515625 -0.296875 -1.03125 -0.296875q-0.453125 0 -0.828125 0.28125q-0.359375 0.265625 -0.515625 0.765625q-0.234375 0.75 -0.234375 1.640625l0 4.34375l-1.40625 0zm7.640625 0l-3.15625 -8.296875l1.484375 0l1.78125 4.96875q0.296875 0.796875 0.53125 1.671875q0.1875 -0.65625 0.53125 -1.578125l1.84375 -5.0625l1.4375 0l-3.140625 8.296875l-1.3125 0zm11.375 -2.671875l1.453125 0.171875q-0.34375 1.28125 -1.28125 1.984375q-0.921875 0.703125 -2.359375 0.703125q-1.828125 0 -2.890625 -1.125q-1.0625 -1.125 -1.0625 -3.140625q0 -2.09375 1.078125 -3.25q1.078125 -1.15625 2.796875 -1.15625q1.65625 0 2.703125 1.140625q1.0625 1.125 1.0625 3.171875q0 0.125 0 0.375l-6.1875 0q0.078125 1.375 0.765625 2.109375q0.703125 0.71875 1.734375 0.71875q0.78125 0 1.328125 -0.40625q0.546875 -0.40625 0.859375 -1.296875zm-4.609375 -2.28125l4.625 0q-0.09375 -1.046875 -0.53125 -1.5625q-0.671875 -0.8125 -1.734375 -0.8125q-0.96875 0 -1.640625 0.65625q-0.65625 0.640625 -0.71875 1.71875zm7.8203125 4.953125l0 -8.296875l1.265625 0l0 1.25q0.484375 -0.875 0.890625 -1.15625q0.40625 -0.28125 0.90625 -0.28125q0.703125 0 1.4375 0.453125l-0.484375 1.296875q-0.515625 -0.296875 -1.03125 -0.296875q-0.453125 0 -0.828125 0.28125q-0.359375 0.265625 -0.515625 0.765625q-0.234375 0.75 -0.234375 1.640625l0 4.34375l-1.40625 0zm5.734375 -6.703125l0 -1.59375l1.59375 0l0 1.59375l-1.59375 0zm0 6.703125l0 -1.609375l1.59375 0l0 1.609375l-1.59375 0zm5.8203125 -6.21875q-0.875 -0.3125 -1.296875 -0.90625q-0.421875 -0.59375 -0.421875 -1.421875q0 -1.25 0.890625 -2.09375q0.90625 -0.859375 2.40625 -0.859375q1.5 0 2.40625 0.875q0.921875 0.859375 0.921875 2.109375q0 0.796875 -0.421875 1.390625q-0.421875 0.59375 -1.265625 0.90625q1.046875 0.34375 1.59375 1.109375q0.5625 0.765625 0.5625 1.828125q0 1.46875 -1.046875 2.484375q-1.03125 1.0 -2.734375 1.0q-1.6875 0 -2.734375 -1.0q-1.03125 -1.015625 -1.03125 -2.515625q0 -1.125 0.5625 -1.875q0.5625 -0.75 1.609375 -1.03125zm-0.28125 -2.375q0 0.8125 0.515625 1.328125q0.53125 0.515625 1.375 0.515625q0.8125 0 1.328125 -0.515625q0.515625 -0.515625 0.515625 -1.25q0 -0.78125 -0.53125 -1.296875q-0.53125 -0.53125 -1.328125 -0.53125q-0.8125 0 -1.34375 0.515625q-0.53125 0.515625 -0.53125 1.234375zm-0.453125 5.28125q0 0.609375 0.28125 1.171875q0.296875 0.5625 0.859375 0.875q0.5625 0.296875 1.203125 0.296875q1.015625 0 1.671875 -0.640625q0.65625 -0.65625 0.65625 -1.65625q0 -1.015625 -0.6875 -1.671875q-0.671875 -0.671875 -1.6875 -0.671875q-0.984375 0 -1.640625 0.65625q-0.65625 0.65625 -0.65625 1.640625zm7.4765625 -2.34375q0 -2.03125 0.40625 -3.265625q0.421875 -1.234375 1.25 -1.90625q0.828125 -0.671875 2.078125 -0.671875q0.921875 0 1.609375 0.375q0.703125 0.359375 1.15625 1.0625q0.453125 0.703125 0.703125 1.703125q0.265625 1.0 0.265625 2.703125q0 2.015625 -0.421875 3.265625q-0.40625 1.234375 -1.234375 1.921875q-0.828125 0.671875 -2.078125 0.671875q-1.65625 0 -2.609375 -1.203125q-1.125 -1.421875 -1.125 -4.65625zm1.4375 0q0 2.828125 0.65625 3.765625q0.671875 0.921875 1.640625 0.921875q0.96875 0 1.625 -0.9375q0.65625 -0.9375 0.65625 -3.75q0 -2.828125 -0.65625 -3.75q-0.65625 -0.9375 -1.640625 -0.9375q-0.96875 0 -1.546875 0.828125q-0.734375 1.046875 -0.734375 3.859375z" fill-rule="nonzero"/><path fill="#93c47d" d="m235.52756 16.685194l0 0c0 -4.2850027 3.4736786 -7.758685 7.7586823 -7.758685l210.75035 0c2.0577393 0 4.031189 0.8174305 5.486206 2.2724667c1.4550476 1.4550362 2.2724915 3.4284878 2.2724915 5.4862185l0 31.033812c0 4.2850037 -3.4736938 7.758686 -7.7586975 7.758686l-210.75035 0c-4.2850037 0 -7.7586823 -3.4736824 -7.7586823 -7.758686z" fill-rule="evenodd"/><path fill="#000000" d="m299.19266 38.0621l0 -11.453127l1.5625 0l6.015625 8.984377l0 -8.984377l1.453125 0l0 11.453127l-1.5625 0l-6.015625 -9.000002l0 9.000002l-1.453125 0zm11.1328125 0.6875l1.375 0.203125q0.078125 0.640625 0.46875 0.921875q0.53125 0.390625 1.4375 0.390625q0.96875 0 1.5 -0.390625q0.53125 -0.390625 0.71875 -1.09375q0.109375 -0.421875 0.109375 -1.8125q-0.921875 1.09375 -2.296875 1.09375q-1.71875 0 -2.65625 -1.234375q-0.9375 -1.234375 -0.9375 -2.96875q0 -1.1875 0.421875 -2.187502q0.4375 -1.0 1.25 -1.546875q0.828125 -0.546875 1.921875 -0.546875q1.46875 0 2.421875 1.1875l0 -1.0l1.296875 0l0 7.171877q0 1.9375 -0.390625 2.75q-0.390625 0.8125 -1.25 1.28125q-0.859375 0.46875 -2.109375 0.46875q-1.484375 0 -2.40625 -0.671875q-0.90625 -0.671875 -0.875 -2.015625zm1.171875 -4.984375q0 1.625 0.640625 2.375q0.65625 0.75 1.625 0.75q0.96875 0 1.625 -0.734375q0.65625 -0.75 0.65625 -2.34375q0 -1.53125 -0.671875 -2.296877q-0.671875 -0.78125 -1.625 -0.78125q-0.9375 0 -1.59375 0.765625q-0.65625 0.7656269 -0.65625 2.265627zm7.9921875 -5.546877l0 -1.609375l1.40625 0l0 1.609375l-1.40625 0zm0 9.843752l0 -8.296877l1.40625 0l0 8.296877l-1.40625 0zm3.5546875 0l0 -8.296877l1.265625 0l0 1.171875q0.90625 -1.359375 2.640625 -1.359375q0.75 0 1.375 0.265625q0.625 0.265625 0.9375 0.703125q0.3125 0.4375 0.4375 1.046875q0.078125 0.390625 0.078125 1.3593769l0 5.109375l-1.40625 0l0 -5.046875q0 -0.859375 -0.171875 -1.2812519q-0.15625 -0.4375 -0.578125 -0.6875q-0.40625 -0.25 -0.96875 -0.25q-0.90625 0 -1.5625 0.578125q-0.640625 0.5625 -0.640625 2.156252l0 4.53125l-1.40625 0zm7.9609375 0l3.03125 -4.3125l-2.8125 -3.984377l1.765625 0l1.265625 1.9375q0.359375 0.5625019 0.578125 0.9375019q0.34375 -0.515625 0.640625 -0.9218769l1.390625 -1.953125l1.6875 0l-2.875 3.906252l3.09375 4.390625l-1.734375 0l-1.703125 -2.578125l-0.453125 -0.703125l-2.171875 3.28125l-1.703125 0zm13.3828125 3.1875l0 -11.484377l1.28125 0l0 1.078125q0.453125 -0.640625 1.015625 -0.953125q0.578125 -0.3125 1.390625 -0.3125q1.0625 0 1.875 0.546875q0.8125 0.546875 1.21875 1.546875q0.421875 0.9843769 0.421875 2.171877q0 1.28125 -0.46875 2.296875q-0.453125 1.015625 -1.328125 1.5625q-0.859375 0.546875 -1.828125 0.546875q-0.703125 0 -1.265625 -0.296875q-0.546875 -0.296875 -0.90625 -0.75l0 4.046875l-1.40625 0zm1.265625 -7.296875q0 1.609375 0.640625 2.375q0.65625 0.765625 1.578125 0.765625q0.9375 0 1.609375 -0.796875q0.671875 -0.796875 0.671875 -2.453125q0 -1.59375 -0.65625 -2.375002q-0.65625 -0.796875 -1.5625 -0.796875q-0.890625 0 -1.59375 0.84375q-0.6875 0.8437519 -0.6875 2.437502zm7.6171875 4.109375l0 -8.296877l1.265625 0l0 1.25q0.484375 -0.875 0.890625 -1.15625q0.40625 -0.28125 0.90625 -0.28125q0.703125 0 1.4375 0.453125l-0.484375 1.296875q-0.515625 -0.296875 -1.03125 -0.296875q-0.453125 0 -0.828125 0.28125q-0.359375 0.265625 -0.515625 0.7656269q-0.234375 0.75 -0.234375 1.640625l0 4.34375l-1.40625 0zm4.8125 -4.15625q0 -2.296877 1.28125 -3.406252q1.078125 -0.921875 2.609375 -0.921875q1.71875 0 2.796875 1.125q1.09375 1.109375 1.09375 3.093752q0 1.59375 -0.484375 2.515625q-0.484375 0.921875 -1.40625 1.4375q-0.90625 0.5 -2.0 0.5q-1.734375 0 -2.8125 -1.109375q-1.078125 -1.125 -1.078125 -3.234375zm1.453125 0q0 1.59375 0.6875 2.390625q0.703125 0.796875 1.75 0.796875q1.046875 0 1.734375 -0.796875q0.703125 -0.796875 0.703125 -2.4375q0 -1.53125 -0.703125 -2.328127q-0.6875 -0.796875 -1.734375 -0.796875q-1.046875 0 -1.75 0.796875q-0.6875 0.7812519 -0.6875 2.375002zm13.3828125 1.109375l1.390625 0.1875q-0.234375 1.421875 -1.171875 2.234375q-0.921875 0.8125 -2.28125 0.8125q-1.703125 0 -2.75 -1.109375q-1.03125 -1.125 -1.03125 -3.203125q0 -1.34375 0.4375 -2.343752q0.453125 -1.015625 1.359375 -1.515625q0.921875 -0.5 1.984375 -0.5q1.359375 0 2.21875 0.6875q0.859375 0.671875 1.09375 1.9375019l-1.359375 0.203125q-0.203125 -0.8281269 -0.703125 -1.2500019q-0.484375 -0.421875 -1.1875 -0.421875q-1.0625 0 -1.734375 0.765625q-0.65625 0.7500019 -0.65625 2.406252q0 1.671875 0.640625 2.4375q0.640625 0.75 1.671875 0.75q0.828125 0 1.375 -0.5q0.5625 -0.515625 0.703125 -1.578125zm8.265625 0.375l1.453125 0.171875q-0.34375 1.28125 -1.28125 1.984375q-0.921875 0.703125 -2.359375 0.703125q-1.828125 0 -2.890625 -1.125q-1.0625 -1.125 -1.0625 -3.140625q0 -2.093752 1.078125 -3.250002q1.078125 -1.15625 2.796875 -1.15625q1.65625 0 2.703125 1.140625q1.0625 1.125 1.0625 3.171877q0 0.125 0 0.375l-6.1875 0q0.078125 1.375 0.765625 2.109375q0.703125 0.71875 1.734375 0.71875q0.78125 0 1.328125 -0.40625q0.546875 -0.40625 0.859375 -1.296875zm-4.609375 -2.28125l4.625 0q-0.09375 -1.046875 -0.53125 -1.5625019q-0.671875 -0.8125 -1.734375 -0.8125q-0.96875 0 -1.640625 0.65625q-0.65625 0.6406269 -0.71875 1.7187519zm7.2734375 2.46875l1.390625 -0.21875q0.109375 0.84375 0.640625 1.296875q0.546875 0.4375 1.5 0.4375q0.96875 0 1.4375 -0.390625q0.46875 -0.40625 0.46875 -0.9375q0 -0.46875 -0.40625 -0.75q-0.296875 -0.1875 -1.4375 -0.46875q-1.546875 -0.390625 -2.15625 -0.671875q-0.59375 -0.296875 -0.90625 -0.796875q-0.296875 -0.5 -0.296875 -1.1093769q0 -0.5625 0.25 -1.03125q0.25 -0.46875 0.6875 -0.78125q0.328125 -0.25 0.890625 -0.40625q0.578125 -0.171875 1.21875 -0.171875q0.984375 0 1.71875 0.28125q0.734375 0.28125 1.078125 0.765625q0.359375 0.46875 0.5 1.28125l-1.375 0.1875019q-0.09375 -0.6406269 -0.546875 -1.0000019q-0.453125 -0.359375 -1.265625 -0.359375q-0.96875 0 -1.390625 0.328125q-0.40625 0.3125 -0.40625 0.734375q0 0.2812519 0.171875 0.5000019q0.171875 0.21875 0.53125 0.375q0.21875 0.078125 1.25 0.359375q1.484375 0.390625 2.078125 0.65625q0.59375 0.25 0.921875 0.734375q0.34375 0.484375 0.34375 1.203125q0 0.703125 -0.421875 1.328125q-0.40625 0.609375 -1.1875 0.953125q-0.765625 0.34375 -1.734375 0.34375q-1.625 0 -2.46875 -0.671875q-0.84375 -0.671875 -1.078125 -2.0zm8.0 0l1.390625 -0.21875q0.109375 0.84375 0.640625 1.296875q0.546875 0.4375 1.5 0.4375q0.96875 0 1.4375 -0.390625q0.46875 -0.40625 0.46875 -0.9375q0 -0.46875 -0.40625 -0.75q-0.296875 -0.1875 -1.4375 -0.46875q-1.546875 -0.390625 -2.15625 -0.671875q-0.59375 -0.296875 -0.90625 -0.796875q-0.296875 -0.5 -0.296875 -1.1093769q0 -0.5625 0.25 -1.03125q0.25 -0.46875 0.6875 -0.78125q0.328125 -0.25 0.890625 -0.40625q0.578125 -0.171875 1.21875 -0.171875q0.984375 0 1.71875 0.28125q0.734375 0.28125 1.078125 0.765625q0.359375 0.46875 0.5 1.28125l-1.375 0.1875019q-0.09375 -0.6406269 -0.546875 -1.0000019q-0.453125 -0.359375 -1.265625 -0.359375q-0.96875 0 -1.390625 0.328125q-0.40625 0.3125 -0.40625 0.734375q0 0.2812519 0.171875 0.5000019q0.171875 0.21875 0.53125 0.375q0.21875 0.078125 1.25 0.359375q1.484375 0.390625 2.078125 0.65625q0.59375 0.25 0.921875 0.734375q0.34375 0.484375 0.34375 1.203125q0 0.703125 -0.421875 1.328125q-0.40625 0.609375 -1.1875 0.953125q-0.765625 0.34375 -1.734375 0.34375q-1.625 0 -2.46875 -0.671875q-0.84375 -0.671875 -1.078125 -2.0z" fill-rule="nonzero"/><path fill="#000000" fill-opacity="0.0" d="m228.4567 491.5223l-25.000046 0l0 -180.15747l60.244125 0" fill-rule="evenodd"/><path stroke="#000000" stroke-width="1.0" stroke-linejoin="round" stroke-linecap="butt" d="m228.4567 491.5223l-25.000046 0l0 -180.15747l54.244125 0" fill-rule="evenodd"/><path fill="#000000" stroke="#000000" stroke-width="1.0" stroke-linecap="butt" d="m257.70078 313.01657l4.5381165 -1.6517334l-4.5381165 -1.6517334z" fill-rule="evenodd"/><path fill="#000000" fill-opacity="0.0" d="m445.3142 311.362l28.944885 0l0 161.0079" fill-rule="evenodd"/><path stroke="#000000" stroke-width="1.0" stroke-linejoin="round" stroke-linecap="butt" d="m445.3142 311.36203l28.944885 0l0 155.00784" fill-rule="evenodd"/><path fill="#000000" stroke="#000000" stroke-width="1.0" stroke-linecap="butt" d="m472.60736 466.36987l1.6517334 4.538086l1.6517334 -4.538086z" fill-rule="evenodd"/><path fill="#ffffff" d="m54.56185 371.26028l0 0c0 -6.0633545 4.915886 -10.978638 10.979942 -10.978638l0 0c2.9120636 0 5.704857 1.1566772 7.764 3.2155457c2.0591354 2.058899 3.21595 4.8513794 3.21595 7.763092l0 0c0 6.063324 -4.9158936 10.978638 -10.97995 10.978638l0 0c-6.0640564 0 -10.979942 -4.9153137 -10.979942 -10.978638z" fill-rule="evenodd"/><path stroke="#000000" stroke-width="1.0" stroke-linejoin="round" stroke-linecap="butt" d="m54.56185 371.26028l0 0c0 -6.0633545 4.915886 -10.978638 10.979942 -10.978638l0 0c2.9120636 0 5.704857 1.1566772 7.764 3.2155457c2.0591354 2.058899 3.21595 4.8513794 3.21595 7.763092l0 0c0 6.063324 -4.9158936 10.978638 -10.97995 10.978638l0 0c-6.0640564 0 -10.979942 -4.9153137 -10.979942 -10.978638z" fill-rule="evenodd"/><path fill="#000000" fill-opacity="0.0" d="m48.95224 351.86826l33.179115 0l0 38.78415l-33.179115 0z" fill-rule="evenodd"/><path fill="#000000" d="m67.061325 376.22827l-1.40625 0l0 -8.96875q-0.515625 0.484375 -1.34375 0.96875q-0.8124962 0.484375 -1.4687462 0.734375l0 -1.359375q1.1718712 -0.5625 2.0468712 -1.34375q0.890625 -0.796875 1.265625 -1.53125l0.90625 0l0 11.5z" fill-rule="nonzero"/><path fill="#ffffff" d="m503.90042 362.28784l0 0c0 -6.0633545 4.9158936 -10.978638 10.97995 -10.978638l0 0c2.9120483 0 5.704834 1.1566772 7.763977 3.2155762c2.059143 2.0588684 3.2160034 4.851349 3.2160034 7.7630615l0 0c0 6.063324 -4.9158936 10.978638 -10.97998 10.978638l0 0c-6.0640564 0 -10.97995 -4.9153137 -10.97995 -10.978638z" fill-rule="evenodd"/><path stroke="#000000" stroke-width="1.0" stroke-linejoin="round" stroke-linecap="butt" d="m503.90042 362.28784l0 0c0 -6.0633545 4.9158936 -10.978638 10.97995 -10.978638l0 0c2.9120483 0 5.704834 1.1566772 7.763977 3.2155762c2.059143 2.0588684 3.2160034 4.851349 3.2160034 7.7630615l0 0c0 6.063324 -4.9158936 10.978638 -10.97998 10.978638l0 0c-6.0640564 0 -10.97995 -4.9153137 -10.97995 -10.978638z" fill-rule="evenodd"/><path fill="#000000" fill-opacity="0.0" d="m498.29083 342.89584l33.179077 0l0 38.78412l-33.179077 0z" fill-rule="evenodd"/><path fill="#000000" d="m518.49365 365.89645l0 1.359375l-7.578125 0q-0.015625 -0.515625 0.171875 -0.984375q0.28125 -0.765625 0.921875 -1.515625q0.640625 -0.75 1.84375 -1.734375q1.859375 -1.53125 2.515625 -2.421875q0.65625 -0.90625 0.65625 -1.703125q0 -0.828125 -0.59375 -1.40625q-0.59375 -0.578125 -1.5625 -0.578125q-1.015625 0 -1.625 0.609375q-0.609375 0.609375 -0.609375 1.6875l-1.453125 -0.140625q0.15625 -1.625 1.125 -2.46875q0.96875 -0.84375 2.59375 -0.84375q1.65625 0 2.609375 0.921875q0.96875 0.90625 0.96875 2.25q0 0.6875 -0.28125 1.359375q-0.28125 0.65625 -0.9375 1.390625q-0.65625 0.734375 -2.171875 2.015625q-1.265625 1.0625 -1.625 1.453125q-0.359375 0.375 -0.59375 0.75l5.625 0z" fill-rule="nonzero"/><path fill="#ffffff" d="m366.1183 93.68548l0 0c0 -6.063339 4.9158936 -10.978645 10.97995 -10.978645l0 0c2.9120483 0 5.704834 1.1566772 7.763977 3.2155685c2.059143 2.058899 3.215973 4.8513565 3.215973 7.763077l0 0c0 6.063339 -4.9158936 10.978645 -10.97995 10.978645l0 0c-6.0640564 0 -10.97995 -4.915306 -10.97995 -10.978645z" fill-rule="evenodd"/><path stroke="#000000" stroke-width="1.0" stroke-linejoin="round" stroke-linecap="butt" d="m366.1183 93.68548l0 0c0 -6.063339 4.9158936 -10.978645 10.97995 -10.978645l0 0c2.9120483 0 5.704834 1.1566772 7.763977 3.2155685c2.059143 2.058899 3.215973 4.8513565 3.215973 7.763077l0 0c0 6.063339 -4.9158936 10.978645 -10.97995 10.978645l0 0c-6.0640564 0 -10.97995 -4.915306 -10.97995 -10.978645z" fill-rule="evenodd"/><path fill="#000000" fill-opacity="0.0" d="m360.50867 74.293465l33.179108 0l0 38.784126l-33.179108 0z" fill-rule="evenodd"/><path fill="#000000" d="m377.8209 98.653465l0 -2.75l-4.96875 0l0 -1.28125l5.234375 -7.421875l1.140625 0l0 7.421875l1.546875 0l0 1.28125l-1.546875 0l0 2.75l-1.40625 0zm0 -4.03125l0 -5.171875l-3.578125 5.171875l3.578125 0z" fill-rule="nonzero"/><path fill="#f3f3f3" d="m198.8924 95.40539l156.37796 0l0 32.850395l-156.37796 0z" fill-rule="evenodd"/><path stroke="#000000" stroke-width="1.0" stroke-linejoin="round" stroke-linecap="butt" stroke-dasharray="4.0,3.0" d="m198.8924 95.40539l156.37796 0l0 32.850395l-156.37796 0z" fill-rule="evenodd"/><path fill="#000000" d="m223.19856 116.36496l-1.203125 0l-1.875 -3.171875l-1.1875 1.140625l0 2.03125l-1.046875 0l0 -8.890625l1.046875 0l0 5.671875l2.59375 -2.609375l1.3125 0l-2.03125 1.984375l2.390625 3.84375zm6.5078125 -1.96875q-0.109375 0.9375 -0.84375 1.515625q-0.71875 0.5625 -1.703125 0.5625q-1.25 0 -2.0625 -0.796875q-0.8125 -0.8125 -0.8125 -2.21875q0 -1.40625 0.8125 -2.21875q0.8125 -0.8125 2.0625 -0.8125q1.09375 0 1.796875 0.703125q0.703125 0.703125 0.703125 2.328125l-4.21875 0q0 1.140625 0.484375 1.609375q0.5 0.46875 1.234375 0.46875q0.5625 0 0.921875 -0.28125q0.375 -0.296875 0.484375 -0.859375l1.140625 0zm-1.25 -1.78125q-0.109375 -0.71875 -0.46875 -1.0q-0.359375 -0.296875 -0.9375 -0.296875q-0.515625 0 -0.9375 0.296875q-0.421875 0.28125 -0.625 1.0l2.96875 0zm7.1796875 -1.03125q-0.984375 -0.15625 -1.671875 0.28125q-0.671875 0.4375 -1.140625 1.53125l0 2.96875l-1.03125 0l0 -5.828125l1.03125 0l0 1.515625q0.46875 -0.84375 1.171875 -1.234375q0.703125 -0.390625 1.640625 -0.390625l0 1.15625zm7.2890625 4.78125l-1.03125 0l0 -3.75q0 -0.625 -0.3125 -0.984375q-0.3125 -0.359375 -0.84375 -0.359375q-0.671875 0 -1.28125 0.703125q-0.59375 0.703125 -0.59375 1.734375l0 2.65625l-1.03125 0l0 -5.828125l1.03125 0l0 1.09375q0.421875 -0.578125 0.90625 -0.890625q0.5 -0.3125 1.28125 -0.3125q0.9375 0 1.40625 0.53125q0.46875 0.515625 0.46875 1.296875l0 4.109375zm6.7734375 -1.96875q-0.109375 0.9375 -0.84375 1.515625q-0.71875 0.5625 -1.703125 0.5625q-1.25 0 -2.0625 -0.796875q-0.8125 -0.8125 -0.8125 -2.21875q0 -1.40625 0.8125 -2.21875q0.8125 -0.8125 2.0625 -0.8125q1.09375 0 1.796875 0.703125q0.703125 0.703125 0.703125 2.328125l-4.21875 0q0 1.140625 0.484375 1.609375q0.5 0.46875 1.234375 0.46875q0.5625 0 0.921875 -0.28125q0.375 -0.296875 0.484375 -0.859375l1.140625 0zm-1.25 -1.78125q-0.109375 -0.71875 -0.46875 -1.0q-0.359375 -0.296875 -0.9375 -0.296875q-0.515625 0 -0.9375 0.296875q-0.421875 0.28125 -0.625 1.0l2.96875 0zm5.7734375 3.75l-1.03125 0l0 -8.890625l1.03125 0l0 8.890625zm14.73436 -4.78125q-0.984375 -0.15625 -1.671875 0.28125q-0.671875 0.4375 -1.140625 1.53125l0 2.96875l-1.03125 0l0 -5.828125l1.03125 0l0 1.515625q0.46875 -0.84375 1.171875 -1.234375q0.703125 -0.390625 1.640625 -0.390625l0 1.15625zm7.3984375 2.8125q-0.109375 0.9375 -0.84375 1.515625q-0.71875 0.5625 -1.703125 0.5625q-1.25 0 -2.0625 -0.796875q-0.8125 -0.8125 -0.8125 -2.21875q0 -1.40625 0.8125 -2.21875q0.8125 -0.8125 2.0625 -0.8125q1.09375 0 1.796875 0.703125q0.703125 0.703125 0.703125 2.328125l-4.21875 0q0 1.140625 0.484375 1.609375q0.5 0.46875 1.234375 0.46875q0.5625 0 0.921875 -0.28125q0.375 -0.296875 0.484375 -0.859375l1.140625 0zm-1.25 -1.78125q-0.109375 -0.71875 -0.46875 -1.0q-0.359375 -0.296875 -0.9375 -0.296875q-0.515625 0 -0.9375 0.296875q-0.421875 0.28125 -0.625 1.0l2.96875 0zm7.9140625 1.40625q0 1.09375 -0.765625 1.78125q-0.75 0.671875 -1.890625 0.671875q-1.140625 0 -1.984375 -0.796875q-0.828125 -0.8125 -0.828125 -2.21875q0 -1.40625 0.828125 -2.21875q0.84375 -0.8125 1.984375 -0.8125q1.140625 0 1.8125 0.609375q0.6875 0.59375 0.6875 1.421875l-1.140625 0q-0.0625 -0.625 -0.453125 -0.859375q-0.390625 -0.234375 -0.90625 -0.234375q-0.625 0 -1.15625 0.5q-0.515625 0.5 -0.515625 1.59375q0 1.09375 0.515625 1.59375q0.53125 0.484375 1.15625 0.484375q0.671875 0 1.09375 -0.359375q0.421875 -0.375 0.421875 -1.15625l1.140625 0zm6.7109375 -3.484375l-2.1875 5.9375l-1.140625 0l-2.1875 -5.9375l1.09375 0l1.609375 4.53125l0.109375 0l1.609375 -4.53125l1.09375 0zm13.234375 2.921875q0 1.5 -0.734375 2.265625q-0.734375 0.75 -1.765625 0.75q-0.578125 0 -1.0 -0.203125q-0.40625 -0.21875 -0.71875 -0.6875l0 0.78125l-1.046875 0l0 -8.890625l1.046875 0l0 3.84375q0.3125 -0.46875 0.71875 -0.703125q0.421875 -0.234375 1.0 -0.234375q1.03125 0 1.765625 0.78125q0.734375 0.78125 0.734375 2.296875zm-1.15625 0q0 -1.0 -0.390625 -1.5625q-0.390625 -0.578125 -1.171875 -0.578125q-0.625 0 -1.0625 0.578125q-0.4375 0.5625 -0.4375 1.5625q0 0.984375 0.4375 1.53125q0.4375 0.546875 1.0625 0.546875q0.78125 0 1.171875 -0.546875q0.390625 -0.546875 0.390625 -1.53125zm7.7578125 2.90625l-1.03125 0l0 -1.09375q-0.421875 0.578125 -0.921875 0.890625q-0.484375 0.3125 -1.265625 0.3125q-0.9375 0 -1.40625 -0.515625q-0.46875 -0.53125 -0.46875 -1.3125l0 -4.109375l1.03125 0l0 3.75q0 0.625 0.3125 1.0q0.3125 0.359375 0.84375 0.359375q0.671875 0 1.265625 -0.703125q0.609375 -0.703125 0.609375 -1.75l0 -2.65625l1.03125 0l0 5.828125zm6.7734375 -7.703125q-0.265625 -0.15625 -0.625 -0.25q-0.359375 -0.109375 -0.9375 -0.109375q-0.578125 0 -0.78125 0.296875q-0.203125 0.28125 -0.203125 0.6875l0 1.25l2.125 0l0 0.828125l-2.125 0l0 5.0l-1.046875 0l0 -5.0l-1.765625 0l0 -0.828125l1.765625 0l0 -1.1875q0 -0.9375 0.5625 -1.453125q0.578125 -0.53125 1.515625 -0.53125q0.578125 0 0.90625 0.078125q0.34375 0.078125 0.609375 0.1875l0 1.03125zm6.6640625 0q-0.265625 -0.15625 -0.625 -0.25q-0.359375 -0.109375 -0.9375 -0.109375q-0.578125 0 -0.78125 0.296875q-0.203125 0.28125 -0.203125 0.6875l0 1.25l2.125 0l0 0.828125l-2.125 0l0 5.0l-1.046875 0l0 -5.0l-1.765625 0l0 -0.828125l1.765625 0l0 -1.1875q0 -0.9375 0.5625 -1.453125q0.578125 -0.53125 1.515625 -0.53125q0.578125 0 0.90625 0.078125q0.34375 0.078125 0.609375 0.1875l0 1.03125zm6.6640625 5.734375q-0.109375 0.9375 -0.84375 1.515625q-0.71875 0.5625 -1.703125 0.5625q-1.25 0 -2.0625 -0.796875q-0.8125 -0.8125 -0.8125 -2.21875q0 -1.40625 0.8125 -2.21875q0.8125 -0.8125 2.0625 -0.8125q1.09375 0 1.796875 0.703125q0.703125 0.703125 0.703125 2.328125l-4.21875 0q0 1.140625 0.484375 1.609375q0.5 0.46875 1.234375 0.46875q0.5625 0 0.921875 -0.28125q0.375 -0.296875 0.484375 -0.859375l1.140625 0zm-1.25 -1.78125q-0.109375 -0.71875 -0.46875 -1.0q-0.359375 -0.296875 -0.9375 -0.296875q-0.515625 0 -0.9375 0.296875q-0.421875 0.28125 -0.625 1.0l2.96875 0zm7.1796875 -1.03125q-0.984375 -0.15625 -1.671875 0.28125q-0.671875 0.4375 -1.140625 1.53125l0 2.96875l-1.03125 0l0 -5.828125l1.03125 0l0 1.515625q0.46875 -0.84375 1.171875 -1.234375q0.703125 -0.390625 1.640625 -0.390625l0 1.15625z" fill-rule="nonzero"/><path fill="#000000" fill-opacity="0.0" d="m348.9134 144.89502l-0.25198364 -89.41733" fill-rule="evenodd"/><path stroke="#000000" stroke-width="1.0" stroke-linejoin="round" stroke-linecap="butt" d="m348.9134 144.89502l-0.2350769 -83.41736" fill-rule="evenodd"/><path fill="#000000" stroke="#000000" stroke-width="1.0" stroke-linecap="butt" d="m350.33005 61.47301l-1.6645203 -4.5334244l-1.638916 4.5427322z" fill-rule="evenodd"/><path fill="#000000" fill-opacity="0.0" d="m523.95013 267.08136l-73.41733 30.960632" fill-rule="evenodd"/><path stroke="#9900ff" stroke-width="1.0" stroke-linejoin="round" stroke-linecap="butt" d="m523.95013 267.08136l-67.888824 28.629211" fill-rule="evenodd"/><path fill="#9900ff" stroke="#9900ff" stroke-width="1.0" stroke-linecap="butt" d="m455.41953 294.18863l-3.5397034 3.2853088l4.823303 -0.24142456z" fill-rule="evenodd"/><path fill="#000000" fill-opacity="0.0" d="m461.7953 230.21785l181.60626 0l0 38.771652l-181.60626 0z" fill-rule="evenodd"/><path fill="#9900ff" d="m474.9203 253.31223l0.203125 1.25q-0.59375 0.125 -1.0625 0.125q-0.765625 0 -1.1875 -0.234375q-0.421875 -0.25 -0.59375 -0.640625q-0.171875 -0.40625 -0.171875 -1.671875l0 -4.765625l-1.03125 0l0 -1.09375l1.03125 0l0 -2.0625l1.40625 -0.84375l0 2.90625l1.40625 0l0 1.09375l-1.40625 0l0 4.84375q0 0.609375 0.0625 0.78125q0.078125 0.171875 0.25 0.28125q0.171875 0.09375 0.484375 0.09375q0.234375 0 0.609375 -0.0625zm6.7890625 -1.78125l1.390625 0.1875q-0.234375 1.421875 -1.171875 2.234375q-0.921875 0.8125 -2.28125 0.8125q-1.703125 0 -2.75 -1.109375q-1.03125 -1.125 -1.03125 -3.203125q0 -1.34375 0.4375 -2.34375q0.453125 -1.015625 1.359375 -1.515625q0.921875 -0.5 1.984375 -0.5q1.359375 0 2.21875 0.6875q0.859375 0.671875 1.09375 1.9375l-1.359375 0.203125q-0.203125 -0.828125 -0.703125 -1.25q-0.484375 -0.421875 -1.1875 -0.421875q-1.0625 0 -1.734375 0.765625q-0.65625 0.75 -0.65625 2.40625q0 1.671875 0.640625 2.4375q0.640625 0.75 1.671875 0.75q0.828125 0 1.375 -0.5q0.5625 -0.515625 0.703125 -1.578125zm2.59375 6.234375l0 -11.484375l1.28125 0l0 1.078125q0.453125 -0.640625 1.015625 -0.953125q0.578125 -0.3125 1.390625 -0.3125q1.0625 0 1.875 0.546875q0.8125 0.546875 1.21875 1.546875q0.421875 0.984375 0.421875 2.171875q0 1.28125 -0.46875 2.296875q-0.453125 1.015625 -1.328125 1.5625q-0.859375 0.546875 -1.828125 0.546875q-0.703125 0 -1.265625 -0.296875q-0.546875 -0.296875 -0.90625 -0.75l0 4.046875l-1.40625 0zm1.265625 -7.296875q0 1.609375 0.640625 2.375q0.65625 0.765625 1.578125 0.765625q0.9375 0 1.609375 -0.796875q0.671875 -0.796875 0.671875 -2.453125q0 -1.59375 -0.65625 -2.375q-0.65625 -0.796875 -1.5625 -0.796875q-0.890625 0 -1.59375 0.84375q-0.6875 0.84375 -0.6875 2.4375zm6.3203125 7.296875l0 -1.015625l9.328125 0l0 1.015625l-9.328125 0zm10.2109375 -3.1875l0 -8.296875l1.25 0l0 1.15625q0.390625 -0.609375 1.03125 -0.96875q0.65625 -0.375 1.484375 -0.375q0.921875 0 1.515625 0.390625q0.59375 0.375 0.828125 1.0625q0.984375 -1.453125 2.5625 -1.453125q1.234375 0 1.890625 0.6875q0.671875 0.671875 0.671875 2.09375l0 5.703125l-1.390625 0l0 -5.234375q0 -0.84375 -0.140625 -1.203125q-0.140625 -0.375 -0.5 -0.59375q-0.359375 -0.234375 -0.84375 -0.234375q-0.875 0 -1.453125 0.578125q-0.578125 0.578125 -0.578125 1.859375l0 4.828125l-1.40625 0l0 -5.390625q0 -0.9375 -0.34375 -1.40625q-0.34375 -0.46875 -1.125 -0.46875q-0.59375 0 -1.09375 0.3125q-0.5 0.3125 -0.734375 0.921875q-0.21875 0.59375 -0.21875 1.71875l0 4.3125l-1.40625 0zm18.734375 -1.03125q-0.78125 0.671875 -1.5 0.953125q-0.71875 0.265625 -1.546875 0.265625q-1.375 0 -2.109375 -0.671875q-0.734375 -0.671875 -0.734375 -1.703125q0 -0.609375 0.28125 -1.109375q0.28125 -0.515625 0.71875 -0.8125q0.453125 -0.3125 1.015625 -0.46875q0.421875 -0.109375 1.25 -0.203125q1.703125 -0.203125 2.515625 -0.484375q0 -0.296875 0 -0.375q0 -0.859375 -0.390625 -1.203125q-0.546875 -0.484375 -1.609375 -0.484375q-0.984375 0 -1.46875 0.359375q-0.46875 0.34375 -0.6875 1.21875l-1.375 -0.1875q0.1875 -0.875 0.609375 -1.421875q0.4375 -0.546875 1.25 -0.828125q0.8125 -0.296875 1.875 -0.296875q1.0625 0 1.71875 0.25q0.671875 0.25 0.984375 0.625q0.3125 0.375 0.4375 0.953125q0.078125 0.359375 0.078125 1.296875l0 1.875q0 1.96875 0.078125 2.484375q0.09375 0.515625 0.359375 1.0l-1.46875 0q-0.21875 -0.4375 -0.28125 -1.03125zm-0.109375 -3.140625q-0.765625 0.3125 -2.296875 0.53125q-0.875 0.125 -1.234375 0.28125q-0.359375 0.15625 -0.5625 0.46875q-0.1875 0.296875 -0.1875 0.65625q0 0.5625 0.421875 0.9375q0.4375 0.375 1.25 0.375q0.8125 0 1.4375 -0.34375q0.640625 -0.359375 0.9375 -0.984375q0.234375 -0.46875 0.234375 -1.40625l0 -0.515625zm2.6640625 4.171875l3.03125 -4.3125l-2.8125 -3.984375l1.765625 0l1.265625 1.9375q0.359375 0.5625 0.578125 0.9375q0.34375 -0.515625 0.640625 -0.921875l1.390625 -1.953125l1.6875 0l-2.875 3.90625l3.09375 4.390625l-1.734375 0l-1.703125 -2.578125l-0.453125 -0.703125l-2.171875 3.28125l-1.703125 0zm7.625 3.1875l0 -1.015625l9.328125 0l0 1.015625l-9.328125 0zm9.6484375 -5.671875l1.390625 -0.21875q0.109375 0.84375 0.640625 1.296875q0.546875 0.4375 1.5 0.4375q0.96875 0 1.4375 -0.390625q0.46875 -0.40625 0.46875 -0.9375q0 -0.46875 -0.40625 -0.75q-0.296875 -0.1875 -1.4375 -0.46875q-1.546875 -0.390625 -2.15625 -0.671875q-0.59375 -0.296875 -0.90625 -0.796875q-0.296875 -0.5 -0.296875 -1.109375q0 -0.5625 0.25 -1.03125q0.25 -0.46875 0.6875 -0.78125q0.328125 -0.25 0.890625 -0.40625q0.578125 -0.171875 1.21875 -0.171875q0.984375 0 1.71875 0.28125q0.734375 0.28125 1.078125 0.765625q0.359375 0.46875 0.5 1.28125l-1.375 0.1875q-0.09375 -0.640625 -0.546875 -1.0q-0.453125 -0.359375 -1.265625 -0.359375q-0.96875 0 -1.390625 0.328125q-0.40625 0.3125 -0.40625 0.734375q0 0.28125 0.171875 0.5q0.171875 0.21875 0.53125 0.375q0.21875 0.078125 1.25 0.359375q1.484375 0.390625 2.078125 0.65625q0.59375 0.25 0.921875 0.734375q0.34375 0.484375 0.34375 1.203125q0 0.703125 -0.421875 1.328125q-0.40625 0.609375 -1.1875 0.953125q-0.765625 0.34375 -1.734375 0.34375q-1.625 0 -2.46875 -0.671875q-0.84375 -0.671875 -1.078125 -2.0zm8.5 5.6875l-0.15625 -1.328125q0.453125 0.125 0.796875 0.125q0.46875 0 0.75 -0.15625q0.28125 -0.15625 0.46875 -0.4375q0.125 -0.203125 0.421875 -1.046875q0.046875 -0.109375 0.125 -0.34375l-3.140625 -8.3125l1.515625 0l1.71875 4.796875q0.34375 0.921875 0.609375 1.921875q0.234375 -0.96875 0.578125 -1.890625l1.765625 -4.828125l1.40625 0l-3.15625 8.4375q-0.5 1.375 -0.78125 1.890625q-0.375 0.6875 -0.859375 1.015625q-0.484375 0.328125 -1.15625 0.328125q-0.40625 0 -0.90625 -0.171875zm8.0625 -3.203125l0 -8.296875l1.265625 0l0 1.171875q0.90625 -1.359375 2.640625 -1.359375q0.75 0 1.375 0.265625q0.625 0.265625 0.9375 0.703125q0.3125 0.4375 0.4375 1.046875q0.078125 0.390625 0.078125 1.359375l0 5.109375l-1.40625 0l0 -5.046875q0 -0.859375 -0.171875 -1.28125q-0.15625 -0.4375 -0.578125 -0.6875q-0.40625 -0.25 -0.96875 -0.25q-0.90625 0 -1.5625 0.578125q-0.640625 0.5625 -0.640625 2.15625l0 4.53125l-1.40625 0zm7.5859375 3.1875l0 -1.015625l9.328125 0l0 1.015625l-9.328125 0zm11.5078125 -3.1875l-1.3125 0l0 -11.453125l1.40625 0l0 4.078125q0.890625 -1.109375 2.28125 -1.109375q0.765625 0 1.4375 0.3125q0.6875 0.296875 1.125 0.859375q0.453125 0.5625 0.703125 1.359375q0.25 0.78125 0.25 1.671875q0 2.140625 -1.0625 3.3125q-1.046875 1.15625 -2.53125 1.15625q-1.46875 0 -2.296875 -1.234375l0 1.046875zm-0.015625 -4.21875q0 1.5 0.40625 2.15625q0.65625 1.09375 1.796875 1.09375q0.921875 0 1.59375 -0.796875q0.671875 -0.8125 0.671875 -2.390625q0 -1.625 -0.65625 -2.390625q-0.640625 -0.78125 -1.546875 -0.78125q-0.921875 0 -1.59375 0.796875q-0.671875 0.796875 -0.671875 2.3125zm13.0234375 3.1875q-0.78125 0.671875 -1.5 0.953125q-0.71875 0.265625 -1.546875 0.265625q-1.375 0 -2.109375 -0.671875q-0.734375 -0.671875 -0.734375 -1.703125q0 -0.609375 0.28125 -1.109375q0.28125 -0.515625 0.71875 -0.8125q0.453125 -0.3125 1.015625 -0.46875q0.421875 -0.109375 1.25 -0.203125q1.703125 -0.203125 2.515625 -0.484375q0 -0.296875 0 -0.375q0 -0.859375 -0.390625 -1.203125q-0.546875 -0.484375 -1.609375 -0.484375q-0.984375 0 -1.46875 0.359375q-0.46875 0.34375 -0.6875 1.21875l-1.375 -0.1875q0.1875 -0.875 0.609375 -1.421875q0.4375 -0.546875 1.25 -0.828125q0.8125 -0.296875 1.875 -0.296875q1.0625 0 1.71875 0.25q0.671875 0.25 0.984375 0.625q0.3125 0.375 0.4375 0.953125q0.078125 0.359375 0.078125 1.296875l0 1.875q0 1.96875 0.078125 2.484375q0.09375 0.515625 0.359375 1.0l-1.46875 0q-0.21875 -0.4375 -0.28125 -1.03125zm-0.109375 -3.140625q-0.765625 0.3125 -2.296875 0.53125q-0.875 0.125 -1.234375 0.28125q-0.359375 0.15625 -0.5625 0.46875q-0.1875 0.296875 -0.1875 0.65625q0 0.5625 0.421875 0.9375q0.4375 0.375 1.25 0.375q0.8125 0 1.4375 -0.34375q0.640625 -0.359375 0.9375 -0.984375q0.234375 -0.46875 0.234375 -1.40625l0 -0.515625zm9.0078125 1.125l1.390625 0.1875q-0.234375 1.421875 -1.171875 2.234375q-0.921875 0.8125 -2.28125 0.8125q-1.703125 0 -2.75 -1.109375q-1.03125 -1.125 -1.03125 -3.203125q0 -1.34375 0.4375 -2.34375q0.453125 -1.015625 1.359375 -1.515625q0.921875 -0.5 1.984375 -0.5q1.359375 0 2.21875 0.6875q0.859375 0.671875 1.09375 1.9375l-1.359375 0.203125q-0.203125 -0.828125 -0.703125 -1.25q-0.484375 -0.421875 -1.1875 -0.421875q-1.0625 0 -1.734375 0.765625q-0.65625 0.75 -0.65625 2.40625q0 1.671875 0.640625 2.4375q0.640625 0.75 1.671875 0.75q0.828125 0 1.375 -0.5q0.5625 -0.515625 0.703125 -1.578125zm2.59375 3.046875l0 -11.453125l1.40625 0l0 6.53125l3.328125 -3.375l1.828125 0l-3.171875 3.078125l3.484375 5.21875l-1.734375 0l-2.734375 -4.25l-1.0 0.953125l0 3.296875l-1.40625 0zm7.96875 0l0 -11.453125l1.40625 0l0 11.453125l-1.40625 0zm3.0546875 -4.15625q0 -2.296875 1.28125 -3.40625q1.078125 -0.921875 2.609375 -0.921875q1.71875 0 2.796875 1.125q1.09375 1.109375 1.09375 3.09375q0 1.59375 -0.484375 2.515625q-0.484375 0.921875 -1.40625 1.4375q-0.90625 0.5 -2.0 0.5q-1.734375 0 -2.8125 -1.109375q-1.078125 -1.125 -1.078125 -3.234375zm1.453125 0q0 1.59375 0.6875 2.390625q0.703125 0.796875 1.75 0.796875q1.046875 0 1.734375 -0.796875q0.703125 -0.796875 0.703125 -2.4375q0 -1.53125 -0.703125 -2.328125q-0.6875 -0.796875 -1.734375 -0.796875q-1.046875 0 -1.75 0.796875q-0.6875 0.78125 -0.6875 2.375zm7.7109375 4.84375l1.375 0.203125q0.078125 0.640625 0.46875 0.921875q0.53125 0.390625 1.4375 0.390625q0.96875 0 1.5 -0.390625q0.53125 -0.390625 0.71875 -1.09375q0.109375 -0.421875 0.109375 -1.8125q-0.921875 1.09375 -2.296875 1.09375q-1.71875 0 -2.65625 -1.234375q-0.9375 -1.234375 -0.9375 -2.96875q0 -1.1875 0.421875 -2.1875q0.4375 -1.0 1.25 -1.546875q0.828125 -0.546875 1.921875 -0.546875q1.46875 0 2.421875 1.1875l0 -1.0l1.296875 0l0 7.171875q0 1.9375 -0.390625 2.75q-0.390625 0.8125 -1.25 1.28125q-0.859375 0.46875 -2.109375 0.46875q-1.484375 0 -2.40625 -0.671875q-0.90625 -0.671875 -0.875 -2.015625zm1.171875 -4.984375q0 1.625 0.640625 2.375q0.65625 0.75 1.625 0.75q0.96875 0 1.625 -0.734375q0.65625 -0.75 0.65625 -2.34375q0 -1.53125 -0.671875 -2.296875q-0.671875 -0.78125 -1.625 -0.78125q-0.9375 0 -1.59375 0.765625q-0.65625 0.765625 -0.65625 2.265625z" fill-rule="nonzero"/><path fill="#000000" fill-opacity="0.0" d="m461.7953 152.67455l215.84253 0l0 38.771652l-215.84253 0z" fill-rule="evenodd"/><path fill="#9900ff" d="m471.8578 177.03455l0 -8.296875l1.25 0l0 1.15625q0.390625 -0.609375 1.03125 -0.96875q0.65625 -0.375 1.484375 -0.375q0.921875 0 1.515625 0.390625q0.59375 0.375 0.828125 1.0625q0.984375 -1.453125 2.5625 -1.453125q1.234375 0 1.890625 0.6875q0.671875 0.671875 0.671875 2.09375l0 5.703125l-1.390625 0l0 -5.234375q0 -0.84375 -0.140625 -1.203125q-0.140625 -0.375 -0.5 -0.59375q-0.359375 -0.234375 -0.84375 -0.234375q-0.875 0 -1.453125 0.578125q-0.578125 0.578125 -0.578125 1.859375l0 4.828125l-1.40625 0l0 -5.390625q0 -0.9375 -0.34375 -1.40625q-0.34375 -0.46875 -1.125 -0.46875q-0.59375 0 -1.09375 0.3125q-0.5 0.3125 -0.734375 0.921875q-0.21875 0.59375 -0.21875 1.71875l0 4.3125l-1.40625 0zm13.328125 -9.84375l0 -1.609375l1.40625 0l0 1.609375l-1.40625 0zm0 9.84375l0 -8.296875l1.40625 0l0 8.296875l-1.40625 0zm3.5546875 0l0 -8.296875l1.265625 0l0 1.171875q0.90625 -1.359375 2.640625 -1.359375q0.75 0 1.375 0.265625q0.625 0.265625 0.9375 0.703125q0.3125 0.4375 0.4375 1.046875q0.078125 0.390625 0.078125 1.359375l0 5.109375l-1.40625 0l0 -5.046875q0 -0.859375 -0.171875 -1.28125q-0.15625 -0.4375 -0.578125 -0.6875q-0.40625 -0.25 -0.96875 -0.25q-0.90625 0 -1.5625 0.578125q-0.640625 0.5625 -0.640625 2.15625l0 4.53125l-1.40625 0zm11.5859375 3.375q-1.171875 -1.46875 -1.984375 -3.4375q-0.796875 -1.984375 -0.796875 -4.09375q0 -1.859375 0.609375 -3.5625q0.703125 -1.96875 2.171875 -3.9375l1.0 0q-0.9375 1.625 -1.25 2.328125q-0.46875 1.078125 -0.75 2.25q-0.328125 1.453125 -0.328125 2.9375q0 3.75 2.328125 7.515625l-1.0 0zm3.9375 -3.375l-1.3125 0l0 -11.453125l1.40625 0l0 4.078125q0.890625 -1.109375 2.28125 -1.109375q0.765625 0 1.4375 0.3125q0.6875 0.296875 1.125 0.859375q0.453125 0.5625 0.703125 1.359375q0.25 0.78125 0.25 1.671875q0 2.140625 -1.0625 3.3125q-1.046875 1.15625 -2.53125 1.15625q-1.46875 0 -2.296875 -1.234375l0 1.046875zm-0.015625 -4.21875q0 1.5 0.40625 2.15625q0.65625 1.09375 1.796875 1.09375q0.921875 0 1.59375 -0.796875q0.671875 -0.8125 0.671875 -2.390625q0 -1.625 -0.65625 -2.390625q-0.640625 -0.78125 -1.546875 -0.78125q-0.921875 0 -1.59375 0.796875q-0.671875 0.796875 -0.671875 2.3125zm13.0234375 3.1875q-0.78125 0.671875 -1.5 0.953125q-0.71875 0.265625 -1.546875 0.265625q-1.375 0 -2.109375 -0.671875q-0.734375 -0.671875 -0.734375 -1.703125q0 -0.609375 0.28125 -1.109375q0.28125 -0.515625 0.71875 -0.8125q0.453125 -0.3125 1.015625 -0.46875q0.421875 -0.109375 1.25 -0.203125q1.703125 -0.203125 2.515625 -0.484375q0 -0.296875 0 -0.375q0 -0.859375 -0.390625 -1.203125q-0.546875 -0.484375 -1.609375 -0.484375q-0.984375 0 -1.46875 0.359375q-0.46875 0.34375 -0.6875 1.21875l-1.375 -0.1875q0.1875 -0.875 0.609375 -1.421875q0.4375 -0.546875 1.25 -0.828125q0.8125 -0.296875 1.875 -0.296875q1.0625 0 1.71875 0.25q0.671875 0.25 0.984375 0.625q0.3125 0.375 0.4375 0.953125q0.078125 0.359375 0.078125 1.296875l0 1.875q0 1.96875 0.078125 2.484375q0.09375 0.515625 0.359375 1.0l-1.46875 0q-0.21875 -0.4375 -0.28125 -1.03125zm-0.109375 -3.140625q-0.765625 0.3125 -2.296875 0.53125q-0.875 0.125 -1.234375 0.28125q-0.359375 0.15625 -0.5625 0.46875q-0.1875 0.296875 -0.1875 0.65625q0 0.5625 0.421875 0.9375q0.4375 0.375 1.25 0.375q0.8125 0 1.4375 -0.34375q0.640625 -0.359375 0.9375 -0.984375q0.234375 -0.46875 0.234375 -1.40625l0 -0.515625zm9.0078125 1.125l1.390625 0.1875q-0.234375 1.421875 -1.171875 2.234375q-0.921875 0.8125 -2.28125 0.8125q-1.703125 0 -2.75 -1.109375q-1.03125 -1.125 -1.03125 -3.203125q0 -1.34375 0.4375 -2.34375q0.453125 -1.015625 1.359375 -1.515625q0.921875 -0.5 1.984375 -0.5q1.359375 0 2.21875 0.6875q0.859375 0.671875 1.09375 1.9375l-1.359375 0.203125q-0.203125 -0.828125 -0.703125 -1.25q-0.484375 -0.421875 -1.1875 -0.421875q-1.0625 0 -1.734375 0.765625q-0.65625 0.75 -0.65625 2.40625q0 1.671875 0.640625 2.4375q0.640625 0.75 1.671875 0.75q0.828125 0 1.375 -0.5q0.5625 -0.515625 0.703125 -1.578125zm2.59375 3.046875l0 -11.453125l1.40625 0l0 6.53125l3.328125 -3.375l1.828125 0l-3.171875 3.078125l3.484375 5.21875l-1.734375 0l-2.734375 -4.25l-1.0 0.953125l0 3.296875l-1.40625 0zm7.96875 0l0 -11.453125l1.40625 0l0 11.453125l-1.40625 0zm3.0546875 -4.15625q0 -2.296875 1.28125 -3.40625q1.078125 -0.921875 2.609375 -0.921875q1.71875 0 2.796875 1.125q1.09375 1.109375 1.09375 3.09375q0 1.59375 -0.484375 2.515625q-0.484375 0.921875 -1.40625 1.4375q-0.90625 0.5 -2.0 0.5q-1.734375 0 -2.8125 -1.109375q-1.078125 -1.125 -1.078125 -3.234375zm1.453125 0q0 1.59375 0.6875 2.390625q0.703125 0.796875 1.75 0.796875q1.046875 0 1.734375 -0.796875q0.703125 -0.796875 0.703125 -2.4375q0 -1.53125 -0.703125 -2.328125q-0.6875 -0.796875 -1.734375 -0.796875q-1.046875 0 -1.75 0.796875q-0.6875 0.78125 -0.6875 2.375zm7.7109375 4.84375l1.375 0.203125q0.078125 0.640625 0.46875 0.921875q0.53125 0.390625 1.4375 0.390625q0.96875 0 1.5 -0.390625q0.53125 -0.390625 0.71875 -1.09375q0.109375 -0.421875 0.109375 -1.8125q-0.921875 1.09375 -2.296875 1.09375q-1.71875 0 -2.65625 -1.234375q-0.9375 -1.234375 -0.9375 -2.96875q0 -1.1875 0.421875 -2.1875q0.4375 -1.0 1.25 -1.546875q0.828125 -0.546875 1.921875 -0.546875q1.46875 0 2.421875 1.1875l0 -1.0l1.296875 0l0 7.171875q0 1.9375 -0.390625 2.75q-0.390625 0.8125 -1.25 1.28125q-0.859375 0.46875 -2.109375 0.46875q-1.484375 0 -2.40625 -0.671875q-0.90625 -0.671875 -0.875 -2.015625zm1.171875 -4.984375q0 1.625 0.640625 2.375q0.65625 0.75 1.625 0.75q0.96875 0 1.625 -0.734375q0.65625 -0.75 0.65625 -2.34375q0 -1.53125 -0.671875 -2.296875q-0.671875 -0.78125 -1.625 -0.78125q-0.9375 0 -1.59375 0.765625q-0.65625 0.765625 -0.65625 2.265625zm8.3515625 4.296875l0 -1.609375l1.609375 0l0 1.609375q0 0.890625 -0.3125 1.421875q-0.3125 0.546875 -1.0 0.84375l-0.390625 -0.59375q0.453125 -0.203125 0.65625 -0.578125q0.21875 -0.375 0.234375 -1.09375l-0.796875 0zm7.96875 -2.484375l1.390625 -0.21875q0.109375 0.84375 0.640625 1.296875q0.546875 0.4375 1.5 0.4375q0.96875 0 1.4375 -0.390625q0.46875 -0.40625 0.46875 -0.9375q0 -0.46875 -0.40625 -0.75q-0.296875 -0.1875 -1.4375 -0.46875q-1.546875 -0.390625 -2.15625 -0.671875q-0.59375 -0.296875 -0.90625 -0.796875q-0.296875 -0.5 -0.296875 -1.109375q0 -0.5625 0.25 -1.03125q0.25 -0.46875 0.6875 -0.78125q0.328125 -0.25 0.890625 -0.40625q0.578125 -0.171875 1.21875 -0.171875q0.984375 0 1.71875 0.28125q0.734375 0.28125 1.078125 0.765625q0.359375 0.46875 0.5 1.28125l-1.375 0.1875q-0.09375 -0.640625 -0.546875 -1.0q-0.453125 -0.359375 -1.265625 -0.359375q-0.96875 0 -1.390625 0.328125q-0.40625 0.3125 -0.40625 0.734375q0 0.28125 0.171875 0.5q0.171875 0.21875 0.53125 0.375q0.21875 0.078125 1.25 0.359375q1.484375 0.390625 2.078125 0.65625q0.59375 0.25 0.921875 0.734375q0.34375 0.484375 0.34375 1.203125q0 0.703125 -0.421875 1.328125q-0.40625 0.609375 -1.1875 0.953125q-0.765625 0.34375 -1.734375 0.34375q-1.625 0 -2.46875 -0.671875q-0.84375 -0.671875 -1.078125 -2.0zm8.03125 -1.671875q0 -2.296875 1.28125 -3.40625q1.078125 -0.921875 2.609375 -0.921875q1.71875 0 2.796875 1.125q1.09375 1.109375 1.09375 3.09375q0 1.59375 -0.484375 2.515625q-0.484375 0.921875 -1.40625 1.4375q-0.90625 0.5 -2.0 0.5q-1.734375 0 -2.8125 -1.109375q-1.078125 -1.125 -1.078125 -3.234375zm1.453125 0q0 1.59375 0.6875 2.390625q0.703125 0.796875 1.75 0.796875q1.046875 0 1.734375 -0.796875q0.703125 -0.796875 0.703125 -2.4375q0 -1.53125 -0.703125 -2.328125q-0.6875 -0.796875 -1.734375 -0.796875q-1.046875 0 -1.75 0.796875q-0.6875 0.78125 -0.6875 2.375zm7.9765625 4.15625l0 -8.296875l1.25 0l0 1.15625q0.390625 -0.609375 1.03125 -0.96875q0.65625 -0.375 1.484375 -0.375q0.921875 0 1.515625 0.390625q0.59375 0.375 0.828125 1.0625q0.984375 -1.453125 2.5625 -1.453125q1.234375 0 1.890625 0.6875q0.671875 0.671875 0.671875 2.09375l0 5.703125l-1.390625 0l0 -5.234375q0 -0.84375 -0.140625 -1.203125q-0.140625 -0.375 -0.5 -0.59375q-0.359375 -0.234375 -0.84375 -0.234375q-0.875 0 -1.453125 0.578125q-0.578125 0.578125 -0.578125 1.859375l0 4.828125l-1.40625 0l0 -5.390625q0 -0.9375 -0.34375 -1.40625q-0.34375 -0.46875 -1.125 -0.46875q-0.59375 0 -1.09375 0.3125q-0.5 0.3125 -0.734375 0.921875q-0.21875 0.59375 -0.21875 1.71875l0 4.3125l-1.40625 0zm18.734375 -1.03125q-0.78125 0.671875 -1.5 0.953125q-0.71875 0.265625 -1.546875 0.265625q-1.375 0 -2.109375 -0.671875q-0.734375 -0.671875 -0.734375 -1.703125q0 -0.609375 0.28125 -1.109375q0.28125 -0.515625 0.71875 -0.8125q0.453125 -0.3125 1.015625 -0.46875q0.421875 -0.109375 1.25 -0.203125q1.703125 -0.203125 2.515625 -0.484375q0 -0.296875 0 -0.375q0 -0.859375 -0.390625 -1.203125q-0.546875 -0.484375 -1.609375 -0.484375q-0.984375 0 -1.46875 0.359375q-0.46875 0.34375 -0.6875 1.21875l-1.375 -0.1875q0.1875 -0.875 0.609375 -1.421875q0.4375 -0.546875 1.25 -0.828125q0.8125 -0.296875 1.875 -0.296875q1.0625 0 1.71875 0.25q0.671875 0.25 0.984375 0.625q0.3125 0.375 0.4375 0.953125q0.078125 0.359375 0.078125 1.296875l0 1.875q0 1.96875 0.078125 2.484375q0.09375 0.515625 0.359375 1.0l-1.46875 0q-0.21875 -0.4375 -0.28125 -1.03125zm-0.109375 -3.140625q-0.765625 0.3125 -2.296875 0.53125q-0.875 0.125 -1.234375 0.28125q-0.359375 0.15625 -0.5625 0.46875q-0.1875 0.296875 -0.1875 0.65625q0 0.5625 0.421875 0.9375q0.4375 0.375 1.25 0.375q0.8125 0 1.4375 -0.34375q0.640625 -0.359375 0.9375 -0.984375q0.234375 -0.46875 0.234375 -1.40625l0 -0.515625zm2.6640625 4.171875l3.03125 -4.3125l-2.8125 -3.984375l1.765625 0l1.265625 1.9375q0.359375 0.5625 0.578125 0.9375q0.34375 -0.515625 0.640625 -0.921875l1.390625 -1.953125l1.6875 0l-2.875 3.90625l3.09375 4.390625l-1.734375 0l-1.703125 -2.578125l-0.453125 -0.703125l-2.171875 3.28125l-1.703125 0zm14.34375 -3.046875l1.390625 0.1875q-0.234375 1.421875 -1.171875 2.234375q-0.921875 0.8125 -2.28125 0.8125q-1.703125 0 -2.75 -1.109375q-1.03125 -1.125 -1.03125 -3.203125q0 -1.34375 0.4375 -2.34375q0.453125 -1.015625 1.359375 -1.515625q0.921875 -0.5 1.984375 -0.5q1.359375 0 2.21875 0.6875q0.859375 0.671875 1.09375 1.9375l-1.359375 0.203125q-0.203125 -0.828125 -0.703125 -1.25q-0.484375 -0.421875 -1.1875 -0.421875q-1.0625 0 -1.734375 0.765625q-0.65625 0.75 -0.65625 2.40625q0 1.671875 0.640625 2.4375q0.640625 0.75 1.671875 0.75q0.828125 0 1.375 -0.5q0.5625 -0.515625 0.703125 -1.578125zm2.0625 -1.109375q0 -2.296875 1.28125 -3.40625q1.078125 -0.921875 2.609375 -0.921875q1.71875 0 2.796875 1.125q1.09375 1.109375 1.09375 3.09375q0 1.59375 -0.484375 2.515625q-0.484375 0.921875 -1.40625 1.4375q-0.90625 0.5 -2.0 0.5q-1.734375 0 -2.8125 -1.109375q-1.078125 -1.125 -1.078125 -3.234375zm1.453125 0q0 1.59375 0.6875 2.390625q0.703125 0.796875 1.75 0.796875q1.046875 0 1.734375 -0.796875q0.703125 -0.796875 0.703125 -2.4375q0 -1.53125 -0.703125 -2.328125q-0.6875 -0.796875 -1.734375 -0.796875q-1.046875 0 -1.75 0.796875q-0.6875 0.78125 -0.6875 2.375zm7.9765625 4.15625l0 -8.296875l1.265625 0l0 1.171875q0.90625 -1.359375 2.640625 -1.359375q0.75 0 1.375 0.265625q0.625 0.265625 0.9375 0.703125q0.3125 0.4375 0.4375 1.046875q0.078125 0.390625 0.078125 1.359375l0 5.109375l-1.40625 0l0 -5.046875q0 -0.859375 -0.171875 -1.28125q-0.15625 -0.4375 -0.578125 -0.6875q-0.40625 -0.25 -0.96875 -0.25q-0.90625 0 -1.5625 0.578125q-0.640625 0.5625 -0.640625 2.15625l0 4.53125l-1.40625 0zm8.8984375 0l0 -8.296875l1.265625 0l0 1.171875q0.90625 -1.359375 2.640625 -1.359375q0.75 0 1.375 0.265625q0.625 0.265625 0.9375 0.703125q0.3125 0.4375 0.4375 1.046875q0.078125 0.390625 0.078125 1.359375l0 5.109375l-1.40625 0l0 -5.046875q0 -0.859375 -0.171875 -1.28125q-0.15625 -0.4375 -0.578125 -0.6875q-0.40625 -0.25 -0.96875 -0.25q-0.90625 0 -1.5625 0.578125q-0.640625 0.5625 -0.640625 2.15625l0 4.53125l-1.40625 0zm9.8203125 3.375l-1.015625 0q2.34375 -3.765625 2.34375 -7.515625q0 -1.46875 -0.34375 -2.921875q-0.265625 -1.171875 -0.734375 -2.25q-0.3125 -0.703125 -1.265625 -2.34375l1.015625 0q1.46875 1.96875 2.171875 3.9375q0.59375 1.703125 0.59375 3.5625q0 2.109375 -0.8125 4.09375q-0.796875 1.96875 -1.953125 3.4375z" fill-rule="nonzero"/><path fill="#000000" fill-opacity="0.0" d="m74.38976 345.40158l258.86615 0l0 58.173218l-258.86615 0z" fill-rule="evenodd"/><path fill="#000000" d="m88.38976 370.76157l0 -3.9375l-3.125 1.125q-0.1875 0.625 -0.4375 0.125l-0.625 -1.25l1.25 -0.375l0 -7.75l1.1875 0q0.5 0.0625 0.0625 0.375l0 7.0l1.6875 -0.5625l0 -8.3125l1.1875 0q0.5 0.0625 0.0625 0.375l0 13.1875l-1.25 0zm5.875 -4.8125q1.0625 -1.8125 1.375 -4.1875l-2.75 0q0.3125 2.5 1.375 4.1875zm-4.3125 -1.875q2.0625 -2.375 2.875 -7.0l1.0 0.1875q0.75 0.1875 0.0625 0.4375q-0.25 1.125 -0.75 2.875l5.1875 0l0 1.1875l-1.5 0q-0.5 3.125 -1.8125 5.1875q1.375 1.375 3.375 2.25l-0.6875 1.25q-1.9375 -0.9375 -3.4375 -2.4375q-1.5 1.75 -3.5625 2.625l-0.6875 -1.125q2.375 -1.0 3.5 -2.5q-1.0 -1.5625 -1.5625 -3.6875q-0.6875 1.125 -1.125 1.5625l-0.875 -0.8125zm23.875 -6.6875q0.5 0.0625 0.0625 0.375l0 12.1875q0 1.0 -1.0 1.0l-1.25 0l-0.1875 -1.1875l0.9375 0q0.25 0 0.25 -0.25l0 -12.125l1.1875 0zm-4.125 10.5l0 -9.0625l1.1875 0q0.5 0.0625 0.0625 0.375l0 8.6875l-1.25 0zm-8.625 -2.5l2.875 0l0 -1.8125l1.1875 0q0.5 0.0625 0.0625 0.375l0 1.4375l2.9375 0l0 1.1875l-2.9375 0l0 2.1875l3.375 -0.5l0.1875 1.0625l-7.5 1.375q-0.0625 0.4375 -0.3125 0.1875l-0.5 -1.5l3.5 -0.4375l0 -2.375l-2.875 0l0 -1.1875zm0.1875 -2.0q-0.0625 0.4375 -0.3125 0.1875l-0.375 -1.5l1.625 -0.0625l1.1875 -3.125l-2.75 0l0 -1.1875l7.875 0l0 1.1875l-3.6875 0l-1.375 3.0625l3.0 -0.25q-0.4375 -0.625 -1.1875 -1.375l1.0 -0.6875q1.5 1.375 2.4375 3.0l-1.125 0.8125l-0.5 -0.75l-5.8125 0.6875z" fill-rule="nonzero"/><path fill="#000000" d="m120.553825 366.07407l1.4375 -0.125q0.09375 0.859375 0.46875 1.421875q0.375 0.546875 1.15625 0.890625q0.78125 0.328125 1.75 0.328125q0.875 0 1.53125 -0.25q0.671875 -0.265625 0.984375 -0.703125q0.32813263 -0.453125 0.32813263 -0.984375q0 -0.546875 -0.31250763 -0.9375q-0.3125 -0.40625 -1.03125 -0.6875q-0.453125 -0.171875 -2.03125 -0.546875q-1.578125 -0.390625 -2.21875 -0.71875q-0.8125 -0.4375 -1.21875 -1.0625q-0.40625 -0.640625 -0.40625 -1.4375q0 -0.859375 0.484375 -1.609375q0.5 -0.765625 1.4375 -1.15625q0.953125 -0.390625 2.109375 -0.390625q1.28125 0 2.25 0.421875q0.9687576 0.40625 1.4843826 1.203125q0.53125 0.796875 0.578125 1.796875l-1.4531326 0.109375q-0.125 -1.078125 -0.796875 -1.625q-0.671875 -0.5625 -2.0 -0.5625q-1.375 0 -2.0 0.5q-0.625 0.5 -0.625 1.21875q0 0.609375 0.4375 1.015625q0.4375 0.390625 2.28125 0.8125q1.859375 0.421875 2.546875 0.734375q1.0000076 0.453125 1.4687576 1.171875q0.484375 0.703125 0.484375 1.625q0 0.90625 -0.53125 1.71875q-0.515625 0.8125 -1.5000076 1.265625q-0.984375 0.453125 -2.203125 0.453125q-1.5625 0 -2.609375 -0.453125q-1.046875 -0.46875 -1.65625 -1.375q-0.59375 -0.90625 -0.625 -2.0625zm14.421883 3.6875l0 -4.859375l-4.421875 -6.59375l1.84375 0l2.265625 3.453125q0.625 0.96875 1.15625 1.9375q0.515625 -0.90625 1.25 -2.03125l2.21875 -3.359375l1.765625 0l-4.5625 6.59375l0 4.859375l-1.515625 0zm7.421875 0l0 -11.453125l1.5625 0l6.015625 8.984375l0 -8.984375l1.453125 0l0 11.453125l-1.5625 0l-6.015625 -9.0l0 9.0l-1.453125 0z" fill-rule="nonzero"/><path fill="#000000" d="m163.86633 366.13657q0 -1.0625 -0.0625 -2.5l7.25 0q-0.0625 1.0625 -0.0625 2.125l0 4.5q0 0.5625 -0.40625 0.71875q-0.40625 0.15625 -1.40625 0.34375q-0.125 -0.5625 -0.5 -1.125q1.125 0 1.125 -0.375l0 -1.25l-4.75 0l0 2.625l-1.25 0q0.0625 -1.25 0.0625 -2.4375l0 -2.625zm-1.3125 -4.25q1.0 0.0625 4.25 0.0625l0 -1.1875q-2.375 0 -3.375 0.0625l0 -0.9375q1.0 0.0625 3.375 0.0625l0 -0.9375q-2.6875 0 -3.75 0.0625l0 -1.0q1.125 0.0625 3.75 0.0625q0 -0.6875 -0.0625 -1.3125l1.3125 0q-0.0625 0.6875 -0.0625 1.3125q2.9375 0 3.9375 -0.0625l0 1.0q-1.0 -0.0625 -3.9375 -0.0625l0 0.9375q2.75 0 3.5625 -0.0625l0 0.9375q-0.9375 -0.0625 -3.5625 -0.0625l0 1.1875q3.5625 0 4.5 -0.0625l0 1.0q-0.8125 -0.0625 -4.875 -0.0625q-4.0 0 -5.0625 0.0625l0 -1.0zm0.625 5.8125q-0.8125 0.625 -1.6875 1.40625q-0.875 0.78125 -1.4375 1.40625q-0.4375 -0.6875 -0.875 -1.125q0.625 -0.4375 0.625 -1.1875l0 -5.3125q-0.9375 0 -1.9375 0.0625l0 -1.125q0.8125 0.0625 1.3125 0.0625l1.8125 0q-0.0625 1.0 -0.0625 2.25l0 4.0625q1.0 -0.875 1.5625 -1.5625q0.25 0.625 0.6875 1.0625zm6.625 0l0 -1.1875l-4.75 0l0 1.1875l4.75 0zm0 -2.0625l0 -1.0625l-4.75 0l0 1.0625l4.75 0zm-8.6875 -5.25q-0.9375 -1.375 -2.125 -2.4375q0.4375 -0.3125 0.8125 -0.6875q1.4375 1.25 2.25 2.3125q-0.5625 0.5 -0.9375 0.8125z" fill-rule="nonzero"/><path fill="#000000" d="m174.17883 368.13657q3.8125 -2.0625 6.1875 -4.125l0 -3.0625l-6.125 0l0 -1.1875l6.125 0l0 -2.8125l1.1875 0q0.5 0.0625 0.0625 0.375l0 2.4375l3.25 0q-0.75 -0.75 -2.0 -1.3125l1.0 -1.0625q1.125 0.4375 2.1875 1.4375l-1.0 0.9375l2.625 0l0 1.1875l-6.0625 0l0 0.5q0.25 1.0625 1.3125 2.6875q1.375 -1.0 2.5625 -2.4375l1.1875 1.0625q0.0625 0.3125 -0.3125 0.1875q-0.875 0.875 -2.625 2.125q1.375 1.8125 4.4375 3.1875l-0.8125 1.5625q-3.8125 -1.875 -5.75 -5.75l0 5.9375q0 1.0 -1.0 1.0l-1.5625 0l-0.25 -1.375l1.3125 0q0.25 0 0.25 -0.25l0 -3.6875q-1.625 1.5 -4.9375 3.625q0.125 0.375 -0.1875 0.3125l-1.0625 -1.5zm3.4375 -3.0q-1.0 -1.25 -2.0625 -2.0625l1.0625 -1.0625q1.125 0.625 2.1875 1.875l-1.1875 1.25zm13.125 3.0l1.4375 0l0 1.375l-0.75 1.6875l-0.6875 0l0.625 -1.6875l-0.625 0l0 -1.375z" fill-rule="nonzero"/><path fill="#000000" d="m88.70226 386.83658q-0.1875 -0.6875 -0.5 -1.375q1.1875 0 1.53125 -0.3125q0.34375 -0.3125 0.28125 -2.9375l-2.875 0l0 5.8125q0 0.875 0.75 0.875l2.5625 0q0.4375 0.0625 0.65625 -0.4375q0.21875 -0.5 0.28125 -1.25q0.5 0.3125 1.3125 0.5625q-0.4375 1.625 -0.84375 1.90625q-0.40625 0.28125 -1.09375 0.28125l-3.5 0q-1.25 0 -1.25 -1.3125l0 -5.3125q0 -0.9375 -0.0625 -2.0625q-0.4375 0.5 -1.0 1.0625q-0.5625 -0.625 -1.0625 -0.9375q0.6875 -0.5 1.3125 -1.09375q0.625 -0.59375 1.1875 -1.34375q0.5625 -0.75 1.0625 -1.5q0.5 -0.75 0.875 -1.6875q0.5 0.375 1.375 0.8125q-0.375 0.25 -0.625 0.5q0.5625 0.4375 1.4375 1.0q0.875 0.5625 2.1875 1.875q-0.5 0.375 -0.9375 1.0q-1.1875 -1.4375 -1.84375 -1.9375q-0.65625 -0.5 -1.34375 -1.0q-0.9375 1.3125 -1.5 2.0l-0.9375 1.0625l5.125 0q-0.0625 1.8125 -0.0625 2.8125q0 0.9375 -0.15625 1.59375q-0.15625 0.65625 -0.78125 0.9375q-0.625 0.28125 -1.5625 0.40625zm9.0 -10.625q-0.0625 1.0625 -0.0625 2.1875l0 10.3125q0 1.0625 -0.53125 1.3125q-0.53125 0.25 -1.78125 0.4375q-0.1875 -0.8125 -0.5625 -1.4375q1.125 0 1.4375 -0.0625q0.3125 -0.0625 0.3125 -0.6875l0 -9.875q0 -1.0 -0.0625 -2.1875l1.25 0zm-3.25 2.1875q-0.0625 1.0 -0.0625 2.1875l0 4.5q0 1.1875 0.0625 2.0l-1.3125 0q0.0625 -1.0 0.0625 -2.0l0 -4.6875q0 -0.9375 -0.0625 -2.0l1.3125 0z" fill-rule="nonzero"/><path fill="#000000" d="m114.63976 388.64908l-0.375 1.1875l-6.875 0q-2.5 0 -4.0625 -1.5q-1.1875 1.5 -2.375 2.1875l-0.8125 -1.25q1.3125 -0.6875 2.375 -1.9375q-1.1875 -2.0 -1.5625 -3.3125l1.0625 -0.25q0.3125 1.0 1.125 2.375q0.5625 -1.5625 0.5625 -3.0625l0 -0.5625l-1.3125 0l-0.5625 0.8125l-1.1875 -0.5q1.375 -2.3125 2.5 -4.625l-2.5625 0l0 -1.1875l2.8125 0l0.25 -0.3125l1.25 0.9375q0.125 0.125 -0.25 0.25l-1.6875 3.4375l2.0 0l0 0.9375q0 3.0625 -1.0 5.0625q1.25 1.3125 3.9375 1.3125l6.75 0zm-5.875 -9.0625l0 -1.0625l-2.9375 0l0 -1.0l2.9375 0l0 -1.5625l1.0 0q0.5 0.0625 0.0625 0.375l0 1.1875l3.25 0l0 2.0625l1.25 0l0 1.0l-1.25 0l0 2.125l-3.25 0l0 0.875l3.4375 0l0 1.0l-3.4375 0l0 1.1875l4.1875 0l0 1.0l-4.1875 0l0 1.375l-1.0625 0l0 -1.375l-3.6875 0l0 -1.0l3.6875 0l0 -1.1875l-2.875 0l0 -1.0l2.875 0l0 -0.875l-2.9375 0l0 -1.0l2.9375 0l0 -1.125l-4.0625 0l0 -1.0l4.0625 0zm3.25 1.0l-2.1875 0l0 1.125l2.1875 0l0 -1.125zm0 -2.0625l-2.1875 0l0 1.0625l2.1875 0l0 -1.0625z" fill-rule="nonzero"/><path fill="#000000" d="m120.88195 388.96158l0 -8.296875l1.265625 0l0 1.25q0.484375 -0.875 0.890625 -1.15625q0.40625 -0.28125 0.90625 -0.28125q0.703125 0 1.4375 0.453125l-0.484375 1.296875q-0.515625 -0.296875 -1.03125 -0.296875q-0.453125 0 -0.828125 0.28125q-0.359375 0.265625 -0.515625 0.765625q-0.234375 0.75 -0.234375 1.640625l0 4.34375l-1.40625 0zm11.015633 -2.671875l1.453125 0.171875q-0.34375 1.28125 -1.28125 1.984375q-0.921875 0.703125 -2.359375 0.703125q-1.8281326 0 -2.8906326 -1.125q-1.0625 -1.125 -1.0625 -3.140625q0 -2.09375 1.078125 -3.25q1.078125 -1.15625 2.7968826 -1.15625q1.65625 0 2.703125 1.140625q1.0625 1.125 1.0625 3.171875q0 0.125 0 0.375l-6.1875076 0q0.078125 1.375 0.765625 2.109375q0.7031326 0.71875 1.7343826 0.71875q0.78125 0 1.328125 -0.40625q0.546875 -0.40625 0.859375 -1.296875zm-4.6093826 -2.28125l4.6250076 0q-0.09375 -1.046875 -0.53125 -1.5625q-0.671875 -0.8125 -1.734375 -0.8125q-0.96875 0 -1.640625 0.65625q-0.6562576 0.640625 -0.7187576 1.71875zm13.117195 8.140625l0 -4.078125q-0.328125 0.46875 -0.921875 0.78125q-0.578125 0.296875 -1.25 0.296875q-1.46875 0 -2.546875 -1.171875q-1.0625 -1.1875 -1.0625 -3.25q0 -1.25 0.4375 -2.234375q0.4375 -1.0 1.25 -1.5q0.828125 -0.515625 1.8125 -0.515625q1.546875 0 2.421875 1.296875l0 -1.109375l1.265625 0l0 11.484375l-1.40625 0zm-4.328125 -7.359375q0 1.59375 0.671875 2.40625q0.671875 0.796875 1.609375 0.796875q0.890625 0 1.53125 -0.765625q0.65625 -0.765625 0.65625 -2.3125q0 -1.65625 -0.6875 -2.484375q-0.671875 -0.84375 -1.59375 -0.84375q-0.921875 0 -1.5625 0.78125q-0.625 0.765625 -0.625 2.421875zm11.828125 1.6875l1.390625 -0.21875q0.109375 0.84375 0.640625 1.296875q0.546875 0.4375 1.5 0.4375q0.96875 0 1.4375 -0.390625q0.46875 -0.40625 0.46875 -0.9375q0 -0.46875 -0.40625 -0.75q-0.296875 -0.1875 -1.4375 -0.46875q-1.546875 -0.390625 -2.15625 -0.671875q-0.59375 -0.296875 -0.90625 -0.796875q-0.296875 -0.5 -0.296875 -1.109375q0 -0.5625 0.25 -1.03125q0.25 -0.46875 0.6875 -0.78125q0.328125 -0.25 0.890625 -0.40625q0.578125 -0.171875 1.21875 -0.171875q0.984375 0 1.71875 0.28125q0.734375 0.28125 1.078125 0.765625q0.359375 0.46875 0.5 1.28125l-1.375 0.1875q-0.09375 -0.640625 -0.546875 -1.0q-0.453125 -0.359375 -1.265625 -0.359375q-0.96875 0 -1.390625 0.328125q-0.40625 0.3125 -0.40625 0.734375q0 0.28125 0.171875 0.5q0.171875 0.21875 0.53125 0.375q0.21875 0.078125 1.25 0.359375q1.484375 0.390625 2.078125 0.65625q0.59375 0.25 0.921875 0.734375q0.34375 0.484375 0.34375 1.203125q0 0.703125 -0.421875 1.328125q-0.40625 0.609375 -1.1875 0.953125q-0.765625 0.34375 -1.734375 0.34375q-1.625 0 -2.46875 -0.671875q-0.84375 -0.671875 -1.078125 -2.0zm8.03125 -1.671875q0 -2.296875 1.28125 -3.40625q1.078125 -0.921875 2.609375 -0.921875q1.71875 0 2.796875 1.125q1.09375 1.109375 1.09375 3.09375q0 1.59375 -0.484375 2.515625q-0.484375 0.921875 -1.40625 1.4375q-0.90625 0.5 -2.0 0.5q-1.734375 0 -2.8125 -1.109375q-1.078125 -1.125 -1.078125 -3.234375zm1.453125 0q0 1.59375 0.6875 2.390625q0.703125 0.796875 1.75 0.796875q1.046875 0 1.734375 -0.796875q0.703125 -0.796875 0.703125 -2.4375q0 -1.53125 -0.703125 -2.328125q-0.6875 -0.796875 -1.734375 -0.796875q-1.046875 0 -1.75 0.796875q-0.6875 0.78125 -0.6875 2.375zm13.3828125 1.109375l1.390625 0.1875q-0.234375 1.421875 -1.171875 2.234375q-0.921875 0.8125 -2.28125 0.8125q-1.703125 0 -2.75 -1.109375q-1.03125 -1.125 -1.03125 -3.203125q0 -1.34375 0.4375 -2.34375q0.453125 -1.015625 1.359375 -1.515625q0.921875 -0.5 1.984375 -0.5q1.359375 0 2.21875 0.6875q0.859375 0.671875 1.09375 1.9375l-1.359375 0.203125q-0.203125 -0.828125 -0.703125 -1.25q-0.484375 -0.421875 -1.1875 -0.421875q-1.0625 0 -1.734375 0.765625q-0.65625 0.75 -0.65625 2.40625q0 1.671875 0.640625 2.4375q0.640625 0.75 1.671875 0.75q0.828125 0 1.375 -0.5q0.5625 -0.515625 0.703125 -1.578125zm2.59375 3.046875l0 -11.453125l1.40625 0l0 6.53125l3.328125 -3.375l1.828125 0l-3.171875 3.078125l3.484375 5.21875l-1.734375 0l-2.734375 -4.25l-1.0 0.953125l0 3.296875l-1.40625 0zm6.9375 0.203125l3.328125 -11.859375l1.125 0l-3.3125 11.859375l-1.140625 0zm10.9140625 -3.25l1.390625 0.1875q-0.234375 1.421875 -1.171875 2.234375q-0.921875 0.8125 -2.28125 0.8125q-1.703125 0 -2.75 -1.109375q-1.03125 -1.125 -1.03125 -3.203125q0 -1.34375 0.4375 -2.34375q0.453125 -1.015625 1.359375 -1.515625q0.921875 -0.5 1.984375 -0.5q1.359375 0 2.21875 0.6875q0.859375 0.671875 1.09375 1.9375l-1.359375 0.203125q-0.203125 -0.828125 -0.703125 -1.25q-0.484375 -0.421875 -1.1875 -0.421875q-1.0625 0 -1.734375 0.765625q-0.65625 0.75 -0.65625 2.40625q0 1.671875 0.640625 2.4375q0.640625 0.75 1.671875 0.75q0.828125 0 1.375 -0.5q0.5625 -0.515625 0.703125 -1.578125zm2.0625 -1.109375q0 -2.296875 1.28125 -3.40625q1.078125 -0.921875 2.609375 -0.921875q1.71875 0 2.796875 1.125q1.09375 1.109375 1.09375 3.09375q0 1.59375 -0.484375 2.515625q-0.484375 0.921875 -1.40625 1.4375q-0.90625 0.5 -2.0 0.5q-1.734375 0 -2.8125 -1.109375q-1.078125 -1.125 -1.078125 -3.234375zm1.453125 0q0 1.59375 0.6875 2.390625q0.703125 0.796875 1.75 0.796875q1.046875 0 1.734375 -0.796875q0.703125 -0.796875 0.703125 -2.4375q0 -1.53125 -0.703125 -2.328125q-0.6875 -0.796875 -1.734375 -0.796875q-1.046875 0 -1.75 0.796875q-0.6875 0.78125 -0.6875 2.375zm7.9765625 4.15625l0 -8.296875l1.265625 0l0 1.171875q0.90625 -1.359375 2.640625 -1.359375q0.75 0 1.375 0.265625q0.625 0.265625 0.9375 0.703125q0.3125 0.4375 0.4375 1.046875q0.078125 0.390625 0.078125 1.359375l0 5.109375l-1.40625 0l0 -5.046875q0 -0.859375 -0.171875 -1.28125q-0.15625 -0.4375 -0.578125 -0.6875q-0.40625 -0.25 -0.96875 -0.25q-0.90625 0 -1.5625 0.578125q-0.640625 0.5625 -0.640625 2.15625l0 4.53125l-1.40625 0zm8.8984375 0l0 -8.296875l1.265625 0l0 1.171875q0.90625 -1.359375 2.640625 -1.359375q0.75 0 1.375 0.265625q0.625 0.265625 0.9375 0.703125q0.3125 0.4375 0.4375 1.046875q0.078125 0.390625 0.078125 1.359375l0 5.109375l-1.40625 0l0 -5.046875q0 -0.859375 -0.171875 -1.28125q-0.15625 -0.4375 -0.578125 -0.6875q-0.40625 -0.25 -0.96875 -0.25q-0.90625 0 -1.5625 0.578125q-0.640625 0.5625 -0.640625 2.15625l0 4.53125l-1.40625 0z" fill-rule="nonzero"/><path fill="#000000" d="m237.57727 380.33658q-0.1875 3.125 -1.5625 5.9375q1.1875 1.5 3.0625 2.625l-0.8125 1.375q-1.75 -1.125 -3.0625 -2.8125q-1.9375 2.1875 -3.625 2.9375l-0.625 -1.3125q2.0 -1.125 3.4375 -2.6875q-1.125 -1.9375 -1.625 -4.1875q-0.5 1.0625 -1.0625 1.8125l-0.8125 -1.3125q1.5625 -2.4375 2.1875 -6.625l1.375 0.1875q0.4375 0.1875 -0.125 0.3125q-0.1875 1.0625 -0.5625 2.5625l5.25 0l0 1.1875l-1.4375 0zm-6.0 -0.3125l-3.625 0l0 1.8125l2.75 0l0 7.125q0 1.0625 -1.0 1.0625l-1.5625 0l-0.1875 -1.1875l1.3125 0q0.1875 0 0.1875 -0.1875l0 -5.625l-1.5 0l0 0.875q0 3.9375 -2.3125 6.5625l-0.875 -1.125q1.9375 -2.0 1.9375 -5.4375l0 -3.875l-2.0 0l0 -1.1875l2.5625 0l0 -2.875l1.1875 0q0.5 0.0625 0.0625 0.375l0 2.5l3.0625 0l0 1.1875zm3.5625 5.125q0.75 -1.5 1.1875 -4.8125l-2.75 0q0.5625 3.125 1.5625 4.8125zm18.875 4.625q-4.8125 -2.5 -6.0625 -7.875q-1.3125 6.0625 -6.3125 8.25l-0.75 -1.4375q5.4375 -2.25 5.875 -8.6875l0.8125 0.0625l0 -2.0l-3.25 0l0 -1.1875l4.6875 0l0 2.25q0 6.0 5.875 9.0625l-0.875 1.5625z" fill-rule="nonzero"/><path fill="#000000" d="m261.05383 385.27408l1.4375 -0.125q0.09375 0.859375 0.46875 1.421875q0.375 0.546875 1.15625 0.890625q0.78125 0.328125 1.75 0.328125q0.875 0 1.53125 -0.25q0.671875 -0.265625 0.984375 -0.703125q0.328125 -0.453125 0.328125 -0.984375q0 -0.546875 -0.3125 -0.9375q-0.3125 -0.40625 -1.03125 -0.6875q-0.453125 -0.171875 -2.03125 -0.546875q-1.578125 -0.390625 -2.21875 -0.71875q-0.8125 -0.4375 -1.21875 -1.0625q-0.40625 -0.640625 -0.40625 -1.4375q0 -0.859375 0.484375 -1.609375q0.5 -0.765625 1.4375 -1.15625q0.953125 -0.390625 2.109375 -0.390625q1.28125 0 2.25 0.421875q0.96875 0.40625 1.484375 1.203125q0.53125 0.796875 0.578125 1.796875l-1.453125 0.109375q-0.125 -1.078125 -0.796875 -1.625q-0.671875 -0.5625 -2.0 -0.5625q-1.375 0 -2.0 0.5q-0.625 0.5 -0.625 1.21875q0 0.609375 0.4375 1.015625q0.4375 0.390625 2.28125 0.8125q1.859375 0.421875 2.546875 0.734375q1.0 0.453125 1.46875 1.171875q0.484375 0.703125 0.484375 1.625q0 0.90625 -0.53125 1.71875q-0.515625 0.8125 -1.5 1.265625q-0.984375 0.453125 -2.203125 0.453125q-1.5625 0 -2.609375 -0.453125q-1.046875 -0.46875 -1.65625 -1.375q-0.59375 -0.90625 -0.625 -2.0625zm14.421875 3.6875l0 -4.859375l-4.421875 -6.59375l1.84375 0l2.265625 3.453125q0.625 0.96875 1.15625 1.9375q0.515625 -0.90625 1.25 -2.03125l2.21875 -3.359375l1.765625 0l-4.5625 6.59375l0 4.859375l-1.515625 0zm7.421875 0l0 -11.453125l1.5625 0l6.015625 8.984375l0 -8.984375l1.453125 0l0 11.453125l-1.5625 0l-6.015625 -9.0l0 9.0l-1.453125 0zm24.703125 -1.234375q1.046875 0.734375 1.9375 1.0625l-0.4375 1.0625q-1.234375 -0.4375 -2.46875 -1.40625q-1.265625 0.71875 -2.8125 0.71875q-1.546875 0 -2.8125 -0.75q-1.265625 -0.765625 -1.953125 -2.125q-0.6875 -1.359375 -0.6875 -3.0625q0 -1.6875 0.6875 -3.078125q0.6875 -1.390625 1.953125 -2.109375q1.28125 -0.734375 2.84375 -0.734375q1.59375 0 2.859375 0.75q1.28125 0.75 1.9375 2.109375q0.671875 1.359375 0.671875 3.0625q0 1.40625 -0.4375 2.546875q-0.421875 1.125 -1.28125 1.953125zm-3.34375 -1.9375q1.3125 0.375 2.171875 1.09375q1.328125 -1.21875 1.328125 -3.65625q0 -1.390625 -0.46875 -2.421875q-0.46875 -1.046875 -1.390625 -1.625q-0.90625 -0.578125 -2.03125 -0.578125q-1.703125 0 -2.828125 1.171875q-1.109375 1.15625 -1.109375 3.453125q0 2.234375 1.109375 3.4375q1.109375 1.1875 2.828125 1.1875q0.8125 0 1.53125 -0.296875q-0.71875 -0.46875 -1.5 -0.65625l0.359375 -1.109375z" fill-rule="nonzero"/><path fill="#000000" fill-opacity="0.0" d="m523.9496 342.90158l146.17322 0l0 38.771637l-146.17322 0z" fill-rule="evenodd"/><path fill="#000000" d="m539.1996 362.94907l3.5 0l0 -3.3125l-3.5 0l0 3.3125zm3.5 1.8125l0 -0.625l-3.5 0l0 0.6875l-1.25 0l0 -6.375l6.0 0l0 6.3125l-1.25 0zm-6.8125 1.75l10.0625 0l0 -10.1875l-10.0625 0l0 10.1875zm10.0625 1.75l0 -0.5625l-10.0625 0l0 0.875l-1.25 0l0 -13.4375l12.5625 0l0 13.125l-1.25 0zm12.375 -1.875q1.1875 0.5 4.0625 0.8125l-0.5 1.375q-2.9375 -0.375 -4.5625 -1.3125q-1.875 1.125 -4.9375 1.4375l-0.4375 -1.25q2.625 -0.25 4.375 -1.0625q-0.8125 -0.75 -1.25 -1.5625q-1.0625 1.1875 -2.25 1.75l-0.75 -1.0625q2.3125 -1.25 3.3125 -3.0625l-1.375 0l0 -3.875l-1.3125 1.3125l-1.0 -0.875q2.0625 -1.875 3.125 -4.6875l1.25 0.5q0.25 0.25 -0.1875 0.3125l-0.375 0.8125l6.3125 0l0 1.1875l-6.875 0l-0.4375 0.6875l6.0625 0l0 4.625l-3.8125 0l-0.4375 0.75l3.125 0l0.25 -0.25l0.9375 0.8125q0.375 0.1875 -0.1875 0.3125q-0.875 1.25 -2.125 2.3125zm-2.375 -2.1875q0.4375 0.75 1.375 1.5q1.0 -0.875 1.5 -1.5l-2.875 0zm-0.875 -5.375l0 0.8125l4.4375 0l0 -0.8125l-4.4375 0zm0 1.8125l0 0.8125l4.4375 0l0 -0.8125l-4.4375 0z" fill-rule="nonzero"/><path fill="#000000" d="m570.11365 363.57407l1.4375 -0.125q0.09375 0.859375 0.46875 1.421875q0.375 0.546875 1.15625 0.890625q0.78125 0.328125 1.75 0.328125q0.875 0 1.53125 -0.25q0.671875 -0.265625 0.984375 -0.703125q0.328125 -0.453125 0.328125 -0.984375q0 -0.546875 -0.3125 -0.9375q-0.3125 -0.40625 -1.03125 -0.6875q-0.453125 -0.171875 -2.03125 -0.546875q-1.578125 -0.390625 -2.21875 -0.71875q-0.8125 -0.4375 -1.21875 -1.0625q-0.40625 -0.640625 -0.40625 -1.4375q0 -0.859375 0.484375 -1.609375q0.5 -0.765625 1.4375 -1.15625q0.953125 -0.390625 2.109375 -0.390625q1.28125 0 2.25 0.421875q0.96875 0.40625 1.484375 1.203125q0.53125 0.796875 0.578125 1.796875l-1.453125 0.109375q-0.125 -1.078125 -0.796875 -1.625q-0.671875 -0.5625 -2.0 -0.5625q-1.375 0 -2.0 0.5q-0.625 0.5 -0.625 1.21875q0 0.609375 0.4375 1.015625q0.4375 0.390625 2.28125 0.8125q1.859375 0.421875 2.546875 0.734375q1.0 0.453125 1.46875 1.171875q0.484375 0.703125 0.484375 1.625q0 0.90625 -0.53125 1.71875q-0.515625 0.8125 -1.5 1.265625q-0.984375 0.453125 -2.203125 0.453125q-1.5625 0 -2.609375 -0.453125q-1.046875 -0.46875 -1.65625 -1.375q-0.59375 -0.90625 -0.625 -2.0625zm14.421875 3.6875l0 -4.859375l-4.421875 -6.59375l1.84375 0l2.265625 3.453125q0.625 0.96875 1.15625 1.9375q0.515625 -0.90625 1.25 -2.03125l2.21875 -3.359375l1.765625 0l-4.5625 6.59375l0 4.859375l-1.515625 0zm7.421875 0l0 -11.453125l1.5625 0l6.015625 8.984375l0 -8.984375l1.453125 0l0 11.453125l-1.5625 0l-6.015625 -9.0l0 9.0l-1.453125 0zm18.796875 -1.859375l0 -3.140625l-3.125 0l0 -1.3125l3.125 0l0 -3.109375l1.328125 0l0 3.109375l3.109375 0l0 1.3125l-3.109375 0l0 3.140625l-1.328125 0zm8.859375 1.859375l4.40625 -11.453125l1.640625 0l4.6875 11.453125l-1.734375 0l-1.328125 -3.46875l-4.796875 0l-1.25 3.46875l-1.625 0zm3.3125 -4.703125l3.890625 0l-1.203125 -3.171875q-0.546875 -1.453125 -0.8125 -2.375q-0.21875 1.09375 -0.609375 2.1875l-1.265625 3.359375zm16.796875 0.6875l1.515625 0.375q-0.46875 1.875 -1.71875 2.859375q-1.234375 0.984375 -3.015625 0.984375q-1.859375 0 -3.015625 -0.75q-1.15625 -0.765625 -1.765625 -2.1875q-0.609375 -1.4375 -0.609375 -3.078125q0 -1.796875 0.6875 -3.125q0.6875 -1.328125 1.9375 -2.015625q1.265625 -0.703125 2.78125 -0.703125q1.71875 0 2.890625 0.875q1.171875 0.875 1.640625 2.46875l-1.5 0.34375q-0.390625 -1.25 -1.15625 -1.8125q-0.75 -0.578125 -1.90625 -0.578125q-1.3125 0 -2.203125 0.640625q-0.890625 0.625 -1.25 1.703125q-0.359375 1.0625 -0.359375 2.1875q0 1.46875 0.421875 2.5625q0.4375 1.078125 1.328125 1.625q0.90625 0.53125 1.953125 0.53125q1.265625 0 2.140625 -0.734375q0.890625 -0.734375 1.203125 -2.171875zm3.3203125 4.015625l0 -11.453125l1.515625 0l0 5.671875l5.6875 -5.671875l2.0625 0l-4.8125 4.640625l5.015625 6.8125l-2.0 0l-4.078125 -5.796875l-1.875 1.828125l0 3.96875l-1.515625 0z" fill-rule="nonzero"/><path fill="#ffffff" d="m54.56185 203.67235l0 0c0 -6.063339 4.915886 -10.978638 10.979942 -10.978638l0 0c2.9120636 0 5.704857 1.1566772 7.764 3.2155762c2.0591354 2.0588837 3.21595 4.851349 3.21595 7.7630615l0 0c0 6.063339 -4.9158936 10.978653 -10.97995 10.978653l0 0c-6.0640564 0 -10.979942 -4.9153137 -10.979942 -10.978653z" fill-rule="evenodd"/><path stroke="#000000" stroke-width="1.0" stroke-linejoin="round" stroke-linecap="butt" d="m54.56185 203.67235l0 0c0 -6.063339 4.915886 -10.978638 10.979942 -10.978638l0 0c2.9120636 0 5.704857 1.1566772 7.764 3.2155762c2.0591354 2.0588837 3.21595 4.851349 3.21595 7.7630615l0 0c0 6.063339 -4.9158936 10.978653 -10.97995 10.978653l0 0c-6.0640564 0 -10.979942 -4.9153137 -10.979942 -10.978653z" fill-rule="evenodd"/><path fill="#000000" fill-opacity="0.0" d="m48.95224 184.28035l33.179115 0l0 38.78412l-33.179115 0z" fill-rule="evenodd"/><path fill="#000000" d="m61.764454 205.6091l1.40625 -0.1875q0.25 1.203125 0.828125 1.734375q0.5781212 0.515625 1.4218712 0.515625q0.984375 0 1.671875 -0.6875q0.6875 -0.6875 0.6875 -1.703125q0 -0.96875 -0.640625 -1.59375q-0.625 -0.625 -1.609375 -0.625q-0.390625 0 -0.984375 0.15625l0.15625 -1.234375q0.140625 0.015625 0.21875 0.015625q0.90625 0 1.625 -0.46875q0.71875 -0.46875 0.71875 -1.453125q0 -0.765625 -0.53125 -1.265625q-0.515625 -0.515625 -1.34375 -0.515625q-0.828125 0 -1.375 0.515625q-0.5468712 0.515625 -0.7031212 1.546875l-1.40625 -0.25q0.265625 -1.421875 1.171875 -2.1875q0.921875 -0.78125 2.2812462 -0.78125q0.9375 0 1.71875 0.40625q0.796875 0.390625 1.203125 1.09375q0.421875 0.6875 0.421875 1.46875q0 0.75 -0.40625 1.359375q-0.390625 0.609375 -1.171875 0.96875q1.015625 0.234375 1.578125 0.96875q0.5625 0.734375 0.5625 1.84375q0 1.5 -1.09375 2.546875q-1.09375 1.046875 -2.765625 1.046875q-1.4999962 0 -2.4999962 -0.890625q-1.0 -0.90625 -1.140625 -2.34375z" fill-rule="nonzero"/><path fill="#000000" fill-opacity="0.0" d="m72.367455 177.81627l202.92914 0l0 58.173233l-202.92914 0z" fill-rule="evenodd"/><path fill="#000000" d="m86.367455 203.17627l0 -3.9375l-3.125 1.125q-0.1875 0.625 -0.4375 0.125l-0.625 -1.25l1.25 -0.375l0 -7.75l1.1875 0q0.5 0.0625 0.0625 0.375l0 7.0l1.6875 -0.5625l0 -8.3125l1.1875 0q0.5 0.0625 0.0625 0.375l0 13.1875l-1.25 0zm5.875 -4.8125q1.0625 -1.8125 1.375 -4.1875l-2.75 0q0.3125 2.5 1.375 4.1875zm-4.3125 -1.875q2.0625 -2.375 2.875 -7.0l1.0 0.1875q0.75 0.1875 0.0625 0.4375q-0.25 1.125 -0.75 2.875l5.1875 0l0 1.1875l-1.5 0q-0.5 3.125 -1.8125 5.1875q1.375 1.375 3.375 2.25l-0.6875 1.25q-1.9375 -0.9375 -3.4375 -2.4375q-1.5 1.75 -3.5625 2.625l-0.6875 -1.125q2.375 -1.0 3.5 -2.5q-1.0 -1.5625 -1.5625 -3.6875q-0.6875 1.125 -1.125 1.5625l-0.875 -0.8125zm23.875 -6.6875q0.5 0.0625 0.0625 0.375l0 12.1875q0 1.0 -1.0 1.0l-1.25 0l-0.1875 -1.1875l0.9375 0q0.25 0 0.25 -0.25l0 -12.125l1.1875 0zm-4.125 10.5l0 -9.0625l1.1875 0q0.5 0.0625 0.0625 0.375l0 8.6875l-1.25 0zm-8.625 -2.5l2.875 0l0 -1.8125l1.1875 0q0.5 0.0625 0.0625 0.375l0 1.4375l2.9375 0l0 1.1875l-2.9375 0l0 2.1875l3.375 -0.5l0.1875 1.0625l-7.5 1.375q-0.0625 0.4375 -0.3125 0.1875l-0.5 -1.5l3.5 -0.4375l0 -2.375l-2.875 0l0 -1.1875zm0.1875 -2.0q-0.0625 0.4375 -0.3125 0.1875l-0.375 -1.5l1.625 -0.0625l1.1875 -3.125l-2.75 0l0 -1.1875l7.875 0l0 1.1875l-3.6875 0l-1.375 3.0625l3.0 -0.25q-0.4375 -0.625 -1.1875 -1.375l1.0 -0.6875q1.5 1.375 2.4375 3.0l-1.125 0.8125l-0.5 -0.75l-5.8125 0.6875z" fill-rule="nonzero"/><path fill="#000000" d="m116.898705 202.17627l4.40625 -11.453125l1.640625 0l4.6875 11.453125l-1.734375 0l-1.328125 -3.46875l-4.796875 0l-1.25 3.46875l-1.625 0zm3.3125 -4.703125l3.890625 0l-1.203125 -3.171875q-0.546875 -1.453125 -0.8125 -2.375q-0.21875 1.09375 -0.609375 2.1875l-1.265625 3.359375zm16.796867 0.6875l1.515625 0.375q-0.46875 1.875 -1.71875 2.859375q-1.234375 0.984375 -3.015625 0.984375q-1.859375 0 -3.015625 -0.75q-1.15625 -0.765625 -1.765625 -2.1875q-0.609375 -1.4375 -0.609375 -3.078125q0 -1.796875 0.6875 -3.125q0.6875 -1.328125 1.9375 -2.015625q1.265625 -0.703125 2.78125 -0.703125q1.71875 0 2.890625 0.875q1.171875 0.875 1.640625 2.46875l-1.5 0.34375q-0.390625 -1.25 -1.15625 -1.8125q-0.75 -0.578125 -1.90625 -0.578125q-1.3125 0 -2.203125 0.640625q-0.890625 0.625 -1.25 1.703125q-0.359375 1.0625 -0.359375 2.1875q0 1.46875 0.421875 2.5625q0.4375 1.078125 1.328125 1.625q0.90625 0.53125 1.953125 0.53125q1.265625 0 2.140625 -0.734375q0.890625 -0.734375 1.203125 -2.171875zm3.3203125 4.015625l0 -11.453125l1.515625 0l0 5.671875l5.6875 -5.671875l2.0625 0l-4.8125 4.640625l5.015625 6.8125l-2.0 0l-4.078125 -5.796875l-1.875 1.828125l0 3.96875l-1.515625 0z" fill-rule="nonzero"/><path fill="#000000" d="m151.39088 200.55127l1.4375 0l0 1.375l-0.75 1.6875l-0.6875 0l0.625 -1.6875l-0.625 0l0 -1.375z" fill-rule="nonzero"/><path fill="#000000" d="m81.867455 218.8919l1.390625 -0.21875q0.109375 0.84375 0.640625 1.296875q0.546875 0.4375 1.5 0.4375q0.96875 0 1.4375 -0.390625q0.46875 -0.40625 0.46875 -0.9375q0 -0.46875 -0.40625 -0.75q-0.296875 -0.1875 -1.4375 -0.46875q-1.546875 -0.390625 -2.15625 -0.671875q-0.59375 -0.296875 -0.90625 -0.796875q-0.296875 -0.5 -0.296875 -1.109375q0 -0.5625 0.25 -1.03125q0.25 -0.46875 0.6875 -0.78125q0.328125 -0.25 0.890625 -0.40625q0.578125 -0.171875 1.21875 -0.171875q0.984375 0 1.71875 0.28125q0.734375 0.28125 1.078125 0.765625q0.359375 0.46875 0.5 1.28125l-1.375 0.1875q-0.09375 -0.640625 -0.546875 -1.0q-0.453125 -0.359375 -1.265625 -0.359375q-0.96875 0 -1.390625 0.328125q-0.40625 0.3125 -0.40625 0.734375q0 0.28125 0.171875 0.5q0.171875 0.21875 0.53125 0.375q0.21875 0.078125 1.25 0.359375q1.484375 0.390625 2.078125 0.65625q0.59375 0.25 0.921875 0.734375q0.34375 0.484375 0.34375 1.203125q0 0.703125 -0.421875 1.328125q-0.40625 0.609375 -1.1875 0.953125q-0.765625 0.34375 -1.734375 0.34375q-1.625 0 -2.46875 -0.671875q-0.84375 -0.671875 -1.078125 -2.0zm8.03125 -1.671875q0 -2.296875 1.28125 -3.40625q1.078125 -0.921875 2.609375 -0.921875q1.71875 0 2.796875 1.125q1.09375 1.109375 1.09375 3.09375q0 1.59375 -0.484375 2.515625q-0.484375 0.921875 -1.40625 1.4375q-0.90625 0.5 -2.0 0.5q-1.734375 0 -2.8125 -1.109375q-1.078125 -1.125 -1.078125 -3.234375zm1.453125 0q0 1.59375 0.6875 2.390625q0.703125 0.796875 1.75 0.796875q1.046875 0 1.734375 -0.796875q0.703125 -0.796875 0.703125 -2.4375q0 -1.53125 -0.703125 -2.328125q-0.6875 -0.796875 -1.734375 -0.796875q-1.046875 0 -1.75 0.796875q-0.6875 0.78125 -0.6875 2.375zm13.3828125 1.109375l1.390625 0.1875q-0.234375 1.421875 -1.171875 2.234375q-0.921875 0.8125 -2.28125 0.8125q-1.703125 0 -2.75 -1.109375q-1.03125 -1.125 -1.03125 -3.203125q0 -1.34375 0.4375 -2.34375q0.453125 -1.015625 1.359375 -1.515625q0.921875 -0.5 1.984375 -0.5q1.359375 0 2.21875 0.6875q0.859375 0.671875 1.09375 1.9375l-1.359375 0.203125q-0.203125 -0.828125 -0.703125 -1.25q-0.484375 -0.421875 -1.1875 -0.421875q-1.0625 0 -1.734375 0.765625q-0.65625 0.75 -0.65625 2.40625q0 1.671875 0.640625 2.4375q0.640625 0.75 1.671875 0.75q0.828125 0 1.375 -0.5q0.5625 -0.515625 0.703125 -1.578125zm2.59375 3.046875l0 -11.453125l1.40625 0l0 6.53125l3.328125 -3.375l1.828125 0l-3.171875 3.078125l3.484375 5.21875l-1.734375 0l-2.734375 -4.25l-1.0 0.953125l0 3.296875l-1.40625 0zm6.9375 0.203125l3.328125 -11.859375l1.125 0l-3.3125 11.859375l-1.140625 0zm10.9140625 -3.25l1.390625 0.1875q-0.234375 1.421875 -1.171875 2.234375q-0.921875 0.8125 -2.28125 0.8125q-1.703125 0 -2.75 -1.109375q-1.03125 -1.125 -1.03125 -3.203125q0 -1.34375 0.4375 -2.34375q0.453125 -1.015625 1.359375 -1.515625q0.921875 -0.5 1.984375 -0.5q1.359375 0 2.21875 0.6875q0.859375 0.671875 1.09375 1.9375l-1.359375 0.203125q-0.203125 -0.828125 -0.703125 -1.25q-0.484375 -0.421875 -1.1875 -0.421875q-1.0625 0 -1.734375 0.765625q-0.65625 0.75 -0.65625 2.40625q0 1.671875 0.640625 2.4375q0.640625 0.75 1.671875 0.75q0.828125 0 1.375 -0.5q0.5625 -0.515625 0.703125 -1.578125zm2.0625 -1.109375q0 -2.296875 1.2812424 -3.40625q1.078125 -0.921875 2.609375 -0.921875q1.71875 0 2.796875 1.125q1.09375 1.109375 1.09375 3.09375q0 1.59375 -0.484375 2.515625q-0.484375 0.921875 -1.40625 1.4375q-0.90625 0.5 -2.0 0.5q-1.734375 0 -2.8125 -1.109375q-1.0781174 -1.125 -1.0781174 -3.234375zm1.4531174 0q0 1.59375 0.6875 2.390625q0.703125 0.796875 1.75 0.796875q1.046875 0 1.734375 -0.796875q0.703125 -0.796875 0.703125 -2.4375q0 -1.53125 -0.703125 -2.328125q-0.6875 -0.796875 -1.734375 -0.796875q-1.046875 0 -1.75 0.796875q-0.6875 0.78125 -0.6875 2.375zm7.9765625 4.15625l0 -8.296875l1.265625 0l0 1.171875q0.90625 -1.359375 2.640625 -1.359375q0.75 0 1.375 0.265625q0.625 0.265625 0.9375 0.703125q0.3125 0.4375 0.4375 1.046875q0.078125 0.390625 0.078125 1.359375l0 5.109375l-1.40625 0l0 -5.046875q0 -0.859375 -0.171875 -1.28125q-0.15625 -0.4375 -0.578125 -0.6875q-0.40625 -0.25 -0.96875 -0.25q-0.90625 0 -1.5625 0.578125q-0.640625 0.5625 -0.640625 2.15625l0 4.53125l-1.40625 0zm8.8984375 0l0 -8.296875l1.265625 0l0 1.171875q0.90625 -1.359375 2.640625 -1.359375q0.75 0 1.375 0.265625q0.625 0.265625 0.9375 0.703125q0.3125 0.4375 0.4375 1.046875q0.078125 0.390625 0.078125 1.359375l0 5.109375l-1.40625 0l0 -5.046875q0 -0.859375 -0.171875 -1.28125q-0.15625 -0.4375 -0.578125 -0.6875q-0.40625 -0.25 -0.96875 -0.25q-0.90625 0 -1.5625 0.578125q-0.640625 0.5625 -0.640625 2.15625l0 4.53125l-1.40625 0z" fill-rule="nonzero"/><path fill="#000000" d="m171.53932 212.75128q-0.1875 3.125 -1.5625 5.9375q1.1875 1.5 3.0625 2.625l-0.8125 1.375q-1.75 -1.125 -3.0625 -2.8125q-1.9375 2.1875 -3.625 2.9375l-0.625 -1.3125q2.0 -1.125 3.4375 -2.6875q-1.125 -1.9375 -1.625 -4.1875q-0.5 1.0625 -1.0625 1.8125l-0.8125 -1.3125q1.5625 -2.4375 2.1875 -6.625l1.375 0.1875q0.4375 0.1875 -0.125 0.3125q-0.1875 1.0625 -0.5625 2.5625l5.25 0l0 1.1875l-1.4375 0zm-6.0 -0.3125l-3.625 0l0 1.8125l2.75 0l0 7.125q0 1.0625 -1.0 1.0625l-1.5625 0l-0.1875 -1.1875l1.3125 0q0.1875 0 0.1875 -0.1875l0 -5.625l-1.5 0l0 0.875q0 3.9375 -2.3125 6.5625l-0.875 -1.125q1.9375 -2.0 1.9375 -5.4375l0 -3.875l-2.0 0l0 -1.1875l2.5625 0l0 -2.875l1.1875 0q0.5 0.0625 0.0625 0.375l0 2.5l3.0625 0l0 1.1875zm3.5625 5.125q0.75 -1.5 1.1875 -4.8125l-2.75 0q0.5625 3.125 1.5625 4.8125zm18.875 4.625q-4.8125 -2.5 -6.0625 -7.875q-1.3125 6.0625 -6.3125 8.25l-0.75 -1.4375q5.4375 -2.25 5.875 -8.6875l0.8125 0.0625l0 -2.0l-3.25 0l0 -1.1875l4.6875 0l0 2.25q0 6.0 5.875 9.0625l-0.875 1.5625z" fill-rule="nonzero"/><path fill="#000000" d="m193.38307 221.37628l4.40625 -11.453125l1.640625 0l4.6875 11.453125l-1.734375 0l-1.328125 -3.46875l-4.796875 0l-1.25 3.46875l-1.625 0zm3.3125 -4.703125l3.890625 0l-1.203125 -3.171875q-0.546875 -1.453125 -0.8125 -2.375q-0.21875 1.09375 -0.609375 2.1875l-1.265625 3.359375zm13.859375 1.65625l1.390625 0.1875q-0.234375 1.421875 -1.171875 2.234375q-0.921875 0.8125 -2.28125 0.8125q-1.703125 0 -2.75 -1.109375q-1.03125 -1.125 -1.03125 -3.203125q0 -1.34375 0.4375 -2.34375q0.453125 -1.015625 1.359375 -1.515625q0.921875 -0.5 1.984375 -0.5q1.359375 0 2.21875 0.6875q0.859375 0.671875 1.09375 1.9375l-1.359375 0.203125q-0.203125 -0.828125 -0.703125 -1.25q-0.484375 -0.421875 -1.1875 -0.421875q-1.0625 0 -1.734375 0.765625q-0.65625 0.75 -0.65625 2.40625q0 1.671875 0.640625 2.4375q0.640625 0.75 1.671875 0.75q0.828125 0 1.375 -0.5q0.5625 -0.515625 0.703125 -1.578125zm8.0 0l1.390625 0.1875q-0.234375 1.421875 -1.171875 2.234375q-0.921875 0.8125 -2.28125 0.8125q-1.703125 0 -2.75 -1.109375q-1.03125 -1.125 -1.03125 -3.203125q0 -1.34375 0.4375 -2.34375q0.453125 -1.015625 1.359375 -1.515625q0.921875 -0.5 1.984375 -0.5q1.359375 0 2.21875 0.6875q0.859375 0.671875 1.09375 1.9375l-1.359375 0.203125q-0.203125 -0.828125 -0.703125 -1.25q-0.484375 -0.421875 -1.1875 -0.421875q-1.0625 0 -1.734375 0.765625q-0.65625 0.75 -0.65625 2.40625q0 1.671875 0.640625 2.4375q0.640625 0.75 1.671875 0.75q0.828125 0 1.375 -0.5q0.5625 -0.515625 0.703125 -1.578125zm8.265625 0.375l1.453125 0.171875q-0.34375 1.28125 -1.28125 1.984375q-0.921875 0.703125 -2.359375 0.703125q-1.828125 0 -2.890625 -1.125q-1.0625 -1.125 -1.0625 -3.140625q0 -2.09375 1.078125 -3.25q1.078125 -1.15625 2.796875 -1.15625q1.65625 0 2.703125 1.140625q1.0625 1.125 1.0625 3.171875q0 0.125 0 0.375l-6.1875 0q0.078125 1.375 0.765625 2.109375q0.703125 0.71875 1.734375 0.71875q0.78125 0 1.328125 -0.40625q0.546875 -0.40625 0.859375 -1.296875zm-4.609375 -2.28125l4.625 0q-0.09375 -1.046875 -0.53125 -1.5625q-0.671875 -0.8125 -1.734375 -0.8125q-0.96875 0 -1.640625 0.65625q-0.65625 0.640625 -0.71875 1.71875zm7.8359375 8.140625l0 -11.484375l1.28125 0l0 1.078125q0.453125 -0.640625 1.015625 -0.953125q0.578125 -0.3125 1.390625 -0.3125q1.0625 0 1.875 0.546875q0.8125 0.546875 1.21875 1.546875q0.421875 0.984375 0.421875 2.171875q0 1.28125 -0.46875 2.296875q-0.453125 1.015625 -1.328125 1.5625q-0.859375 0.546875 -1.828125 0.546875q-0.703125 0 -1.265625 -0.296875q-0.546875 -0.296875 -0.90625 -0.75l0 4.046875l-1.40625 0zm1.265625 -7.296875q0 1.609375 0.640625 2.375q0.65625 0.765625 1.578125 0.765625q0.9375 0 1.609375 -0.796875q0.671875 -0.796875 0.671875 -2.453125q0 -1.59375 -0.65625 -2.375q-0.65625 -0.796875 -1.5625 -0.796875q-0.890625 0 -1.59375 0.84375q-0.6875 0.84375 -0.6875 2.4375zm10.6953125 2.84375l0.203125 1.25q-0.59375 0.125 -1.0625 0.125q-0.765625 0 -1.1875 -0.234375q-0.421875 -0.25 -0.59375 -0.640625q-0.171875 -0.40625 -0.171875 -1.671875l0 -4.765625l-1.03125 0l0 -1.09375l1.03125 0l0 -2.0625l1.40625 -0.84375l0 2.90625l1.40625 0l0 1.09375l-1.40625 0l0 4.84375q0 0.609375 0.0625 0.78125q0.078125 0.171875 0.25 0.28125q0.171875 0.09375 0.484375 0.09375q0.234375 0 0.609375 -0.0625zm14.687515 0.03125q1.046875 0.734375 1.9375 1.0625l-0.4375 1.0625q-1.234375 -0.4375 -2.4687653 -1.40625q-1.265625 0.71875 -2.8125 0.71875q-1.546875 0 -2.8125 -0.75q-1.265625 -0.765625 -1.953125 -2.125q-0.6875 -1.359375 -0.6875 -3.0625q0 -1.6875 0.6875 -3.078125q0.6875 -1.390625 1.953125 -2.109375q1.28125 -0.734375 2.84375 -0.734375q1.59375 0 2.859375 0.75q1.2812653 0.75 1.9375153 2.109375q0.671875 1.359375 0.671875 3.0625q0 1.40625 -0.4375 2.546875q-0.421875 1.125 -1.28125 1.953125zm-3.3437653 -1.9375q1.3125 0.375 2.171875 1.09375q1.3281403 -1.21875 1.3281403 -3.65625q0 -1.390625 -0.46875 -2.421875q-0.46876526 -1.046875 -1.3906403 -1.625q-0.90625 -0.578125 -2.03125 -0.578125q-1.703125 0 -2.828125 1.171875q-1.109375 1.15625 -1.109375 3.453125q0 2.234375 1.109375 3.4375q1.109375 1.1875 2.828125 1.1875q0.8125 0 1.53125 -0.296875q-0.71875 -0.46875 -1.5 -0.65625l0.359375 -1.109375z" fill-rule="nonzero"/><path fill="#cfe2f3" d="m235.52881 136.57465l181.62006 0l0 46.551117l-181.62006 0z" fill-rule="evenodd"/><path fill="#6d9eeb" d="m318.1922 136.5748l15.22406 0l0 46.551117l-15.22406 0z" fill-rule="evenodd"/><path fill="#6d9eeb" d="m339.5432 136.5748l15.224091 0l0 46.551117l-15.224091 0z" fill-rule="evenodd"/><path fill="#6d9eeb" d="m360.89624 136.5748l15.22406 0l0 46.551117l-15.22406 0z" fill-rule="evenodd"/><path fill="#6d9eeb" d="m385.06024 136.5748l15.22406 0l0 46.551117l-15.22406 0z" fill-rule="evenodd"/><path fill="#000000" fill-opacity="0.0" d="m353.954 288.10217l0 -52.488403l-143.42476 0l0 -75.763565l24.999557 0" fill-rule="evenodd"/><path stroke="#000000" stroke-width="1.0" stroke-linejoin="round" stroke-linecap="butt" d="m353.95404 288.10217l0 -52.488403l-143.42477 0l0 -75.763565l18.999542 0" fill-rule="evenodd"/><path fill="#000000" stroke="#000000" stroke-width="1.0" stroke-linecap="butt" d="m229.52881 161.50194l4.538101 -1.6517334l-4.538101 -1.6517334z" fill-rule="evenodd"/></g></svg>