<svg version="1.1" viewBox="0.0 0.0 546.1364829396325 100.0" fill="none" stroke="none" stroke-linecap="square" stroke-miterlimit="10" xmlns:xlink="http://www.w3.org/1999/xlink" xmlns="http://www.w3.org/2000/svg"><clipPath id="p.0"><path d="m0 0l546.1365 0l0 100.0l-546.1365 0l0 -100.0z" clip-rule="nonzero"/></clipPath><g clip-path="url(#p.0)"><path fill="#000000" fill-opacity="0.0" d="m0 0l546.1365 0l0 100.0l-546.1365 0z" fill-rule="evenodd"/><path fill="#ffffff" d="m6.422572 28.125984l120.59843 0l0 43.74803l-120.59843 0z" fill-rule="evenodd"/><path stroke="#000000" stroke-width="1.0" stroke-linejoin="round" stroke-linecap="butt" d="m6.422572 28.125984l120.59843 0l0 43.74803l-120.59843 0z" fill-rule="evenodd"/><path fill="#000000" d="m40.33116 42.45125q0.8125 0.0625 0.0625 0.59375l0.234375 4.15625l5.484375 -0.59375l0.21875 1.40625l-5.484375 0.59375q0.515625 5.125 2.890625 6.96875q1.109375 0.890625 1.265625 -0.4375l0.140625 -1.34375l1.5625 0.828125l-0.21875 1.109375q-0.671875 3.34375 -3.34375 1.484375q-3.34375 -2.296875 -3.859375 -8.46875l-4.15625 0.375l-0.078125 -1.40625l4.015625 -0.375l-0.21875 -5.046875l1.484375 0.15625zm-10.390625 7.421875q2.671875 -2.15625 3.921875 -7.71875l1.640625 0.515625q0.4375 0.296875 -0.21875 0.375q-0.234375 1.40625 -1.34375 4.0q0.890625 0.15625 0.21875 0.515625l0 10.625l-1.484375 0l0 -8.84375q-0.953125 1.421875 -1.625 1.9375l-1.109375 -1.40625zm12.6875 -6.90625q1.40625 1.03125 2.15625 1.921875l-1.34375 1.265625q-0.671875 -0.96875 -2.0 -2.0l1.1875 -1.1875z" fill-rule="nonzero"/><path fill="#000000" d="m53.64366 43.07625q1.03125 0 2.1875 -0.078125l0 1.234375q-1.234375 -0.0625 -1.8125 -0.0625l-1.09375 0q-0.296875 1.75 -0.953125 3.859375l3.5 0q-0.078125 1.234375 -0.078125 2.1875l0 3.5q0 0.9375 0.078125 2.765625l-1.3125 0l0 -1.3125l-2.1875 0l0 2.109375l-1.375 0q0.0625 -1.8125 0.0625 -2.90625l0 -3.421875q-0.5 0.9375 -1.15625 2.109375q-0.4375 -0.59375 -1.03125 -1.015625q1.3125 -1.75 2.109375 -4.046875q0.8125 -2.296875 0.953125 -3.828125q-1.3125 0 -2.625 0.0625l0 -1.234375q1.3125 0.078125 2.265625 0.078125l2.46875 0zm8.03125 6.78125l0.71875 -6.0625l-3.34375 0q-1.25 0 -2.5625 0.078125l0 -1.3125q1.3125 0.15625 2.5625 0.15625l4.875 0q-0.359375 1.953125 -0.953125 7.140625l2.34375 0q-0.15625 0.796875 -0.265625 2.6875q-0.109375 1.890625 -0.40625 3.5q-0.28125 1.609375 -0.984375 2.078125q-0.6875 0.46875 -2.71875 0.625q-0.078125 -0.8125 -0.578125 -1.609375q1.890625 0.078125 2.390625 -0.140625q0.515625 -0.21875 0.734375 -2.15625q0.21875 -1.9375 0.296875 -3.828125l-6.78125 0q0.21875 -1.59375 0.390625 -3.15625q0.1875 -1.578125 0.265625 -3.03125l1.609375 0.28125q-0.296875 0.734375 -0.484375 2.015625q-0.171875 1.265625 -0.328125 2.734375l3.21875 0zm-7.515625 4.140625l0 -4.796875l-2.1875 0l0 4.796875l2.1875 0zm6.34375 -0.9375q0.875 0 2.765625 -0.078125l0 1.3125q-1.96875 -0.078125 -3.28125 -0.078125l-1.890625 0q-0.796875 0 -1.96875 0.078125l0 -1.3125q0.796875 0.078125 1.96875 0.078125l2.40625 0z" fill-rule="nonzero"/><path fill="#000000" d="m69.89366 53.57625l0 -6.3125l-2.0 0l0 -1.40625l2.0 0l0 -3.859375l1.4062424 0q0.59375 0.078125 0.078125 0.453125l0 3.40625l2.0 0l0 1.40625l-2.0 0l0 5.9375l2.0 -0.59375l0.296875 1.265625l-5.2656174 1.640625q-0.078125 0.515625 -0.375 0.21875l-0.375 -1.640625l2.234375 -0.515625zm13.656242 -2.15625l-1.265625 0l0 -0.734375l-2.75 0l0 2.21875l4.015625 0l0 1.421875l-4.015625 0l0 2.296875l4.984375 0l0 1.40625l-12.171875 0l0 -1.40625l5.703125 0l0 -2.296875l-3.78125 0l0 -1.421875l3.78125 0l0 -2.21875l-2.4375 0l0 0.8125l-1.265625 0l0 -9.125l9.203125 0l0 9.046875zm-5.5 -5.40625l0 -2.453125l-2.4375 0l0 2.453125l2.4375 0zm1.484375 0l2.75 0l0 -2.453125l-2.75 0l0 2.453125zm-1.484375 3.484375l0 -2.296875l-2.4375 0l0 2.296875l2.4375 0zm1.484375 0l2.75 0l0 -2.296875l-2.75 0l0 2.296875zm20.78125 4.296875q1.484375 1.421875 2.671875 3.5l-1.78125 0.890625q-1.03125 -2.234375 -2.21875 -3.640625l1.328125 -0.75zm-3.40625 0.078125q1.265625 2.078125 1.484375 4.015625l-1.859375 0.4375q-0.296875 -2.0 -1.109375 -3.9375l1.484375 -0.515625zm-9.796875 3.640625q1.328125 -1.34375 2.15625 -3.5625l1.546875 0.59375q-0.515625 2.21875 -2.078125 3.9375l-1.625 -0.96875zm6.453125 -3.1875q0.59375 1.40625 0.453125 3.9375l-1.78125 0.0625q0.0625 -2.515625 -0.234375 -3.9375l1.5625 -0.0625zm5.796875 -2.828125l0 -2.890625l-8.3125 0l0 2.890625l8.3125 0zm-3.9375 -9.796875q0.59375 0.078125 0.078125 0.453125l0 1.625l6.234375 0l0 1.40625l-6.234375 0l0 2.015625l5.5625 0l0 6.15625l-1.703125 0l0 -0.453125l-8.3125 0l0 0.59375l-1.71875 0l0 -6.296875l4.453125 0l0 -5.5l1.640625 0z" fill-rule="nonzero"/><path fill="#ffffff" d="m212.76903 28.125984l120.598434 0l0 43.74803l-120.598434 0z" fill-rule="evenodd"/><path stroke="#000000" stroke-width="1.0" stroke-linejoin="round" stroke-linecap="butt" d="m212.76903 28.125984l120.598434 0l0 43.74803l-120.598434 0z" fill-rule="evenodd"/><path fill="#000000" d="m249.05261 52.841873q1.03125 -2.015625 1.25 -6.09375l-2.515625 0q0.21875 4.078125 1.265625 6.09375zm2.734375 -6.09375q-0.140625 4.609375 -1.78125 7.421875q1.1875 1.484375 3.34375 2.59375l-0.96875 1.640625q-2.375 -1.5625 -3.328125 -2.96875q-1.71875 1.9375 -5.28125 3.34375l-0.734375 -1.484375q3.859375 -1.5625 5.125 -3.203125q-1.265625 -2.4375 -1.421875 -4.890625q-0.4375 1.109375 -0.890625 1.703125l-1.25 -0.96875q2.21875 -3.265625 2.671875 -8.078125l1.546875 0.359375q0.453125 0.296875 -0.21875 0.453125q-0.21875 1.328125 -0.59375 2.671875l5.046875 0l0 1.40625l-1.265625 0zm-6.890625 -3.5625q-0.453125 1.109375 -1.046875 1.859375l-1.1875 -0.671875q0.59375 -0.96875 1.109375 -2.21875l1.34375 0.65625q0.296875 0.296875 -0.21875 0.375zm-4.75 10.46875q1.03125 0.296875 1.84375 0.671875q0.59375 -0.671875 0.96875 -2.015625l-2.15625 0q-0.296875 0.671875 -0.65625 1.34375zm-1.046875 1.859375l-1.1875 -0.671875q0.75 -1.109375 1.484375 -2.53125l-2.8125 0l0 -1.1875l3.265625 0q0.4375 -0.953125 0.65625 -1.625l1.421875 0.375q0.296875 0.296875 -0.234375 0.359375l-0.4375 0.890625l4.234375 0l0 1.1875l-1.125 0q-0.359375 1.484375 -1.109375 2.53125q0.671875 0.296875 1.40625 0.734375l-0.65625 1.1875q-0.828125 -0.515625 -1.484375 -0.8125q-1.9375 1.9375 -5.203125 2.375l-0.515625 -1.328125q2.890625 -0.296875 4.453125 -1.640625q-0.8125 -0.375 -1.640625 -0.671875l-0.515625 0.828125zm1.484375 -13.953125l1.1875 0q0.59375 0.0625 0.078125 0.4375l0 3.1875l3.78125 0l0 1.1875l-3.109375 0q0.8125 0.96875 2.515625 1.859375l-0.8125 1.265625q-1.265625 -0.75 -2.375 -2.078125l0 1.78125l-1.265625 0l0 -1.40625q-1.1875 1.484375 -3.265625 2.671875l-0.96875 -1.1875q2.3125 -1.1875 3.796875 -2.90625l-3.421875 0l0 -1.1875l3.859375 0l0 -3.625zm-2.078125 3.40625q-0.515625 -1.109375 -1.328125 -1.921875l1.1875 -0.75q0.890625 0.890625 1.328125 1.859375l-1.1875 0.8125zm23.15625 -2.96875l9.71875 0l0 4.671875l-3.328125 0l0 2.15625l4.15625 0l0 1.1875l-4.15625 0l0 2.234375l2.890625 0l0 6.15625l-1.265625 0l0 -0.8125l-4.453125 0l0 1.03125l-1.265625 0l0 -6.375l2.609375 0l0 -2.234375l-3.640625 0l0 1.1875q0 4.96875 -2.15625 7.203125l-1.109375 -1.109375q2.0 -2.015625 2.0 -6.390625l0 -8.90625zm8.015625 11.4375l-4.453125 0l0 2.96875l4.453125 0l0 -2.96875zm-3.109375 -4.609375l0 -2.15625l-3.640625 0l0 2.15625l3.640625 0zm-3.640625 -3.34375l6.96875 0l0 -2.296875l-6.96875 0l0 2.296875zm-1.9375 5.578125l-1.921875 0.65625l0 5.796875q0 1.1875 -1.1875 1.1875l-1.484375 0l-0.21875 -1.40625l1.109375 0q0.296875 0 0.296875 -0.296875l0 -4.828125l-1.5625 0.515625q-0.078125 0.515625 -0.375 0.21875l-0.515625 -1.78125l2.453125 -0.515625l0 -3.859375l-2.078125 0l0 -1.40625l2.078125 0l0 -3.859375l1.40625 0q0.59375 0.078125 0.078125 0.4375l0 3.421875l1.921875 0l0 1.40625l-1.921875 0l0 3.5625l1.78125 -0.515625l0.140625 1.265625zm16.265625 0.59375q-1.640625 1.625 -2.3125 2.0l-0.8125 -1.5625q1.78125 -1.109375 3.125 -2.890625l0 -1.34375l0.890625 0.234375q0.953125 -1.484375 1.484375 -3.046875l-5.046875 0l0 -1.40625l5.40625 0q0.234375 -0.671875 0.53125 -2.078125l1.625 0.4375q0.296875 0.296875 -0.21875 0.375l-0.296875 1.265625l8.984375 0l0 1.40625l-9.4375 0q-0.8125 2.515625 -2.4375 4.828125l0 8.609375l-1.484375 0l0 -6.828125zm4.078125 -4.828125l6.75 0l0.21875 -0.21875l1.1875 0.953125q0.453125 0.453125 -0.296875 0.59375l-2.8125 2.234375l0 1.109375l4.671875 0l0 1.40625l-4.671875 0l0 4.234375q0 1.1875 -1.1875 1.1875l-1.484375 0l-0.21875 -1.40625l1.109375 0q0.296875 0 0.296875 -0.296875l0 -3.71875l-5.125 0l0 -1.40625l5.125 0l0 -2.15625l0.734375 0.078125l1.265625 -1.1875l-5.5625 0l0 -1.40625z" fill-rule="nonzero"/><path fill="#000000" d="m304.27136 44.01375q0 -1.296875 -0.078125 -2.171875l1.390625 0q-0.078125 0.796875 -0.078125 2.171875q0.65625 0 1.53125 -0.0625l0 1.234375q-0.796875 -0.078125 -1.53125 -0.078125l0 2.625l0.515625 0q1.59375 -2.765625 1.953125 -4.296875l1.609375 0.734375q-0.515625 0.359375 -1.09375 1.609375q-0.578125 1.234375 -1.015625 1.953125l0.796875 0q1.015625 0 1.890625 -0.0625l0 1.3125q-0.875 -0.15625 -2.109375 -0.15625l-1.234375 0q-0.578125 0.734375 -1.234375 1.609375l3.265625 0q-0.0625 1.09375 -0.0625 4.078125q0 2.984375 0.140625 3.796875l-1.390625 0l0 -1.03125l-3.421875 0l0 1.3125l-1.375 0q0.140625 -0.875 0.140625 -5.90625q-0.578125 0.4375 -1.234375 1.03125q-0.515625 -0.65625 -1.03125 -1.171875q1.171875 -0.5 2.265625 -1.3125q-0.078125 -0.5 -0.140625 -0.796875l1.09375 0q1.015625 -0.953125 1.453125 -1.609375l-1.828125 0q-1.375 0 -2.25 0.15625l0 -1.3125q0.875 0.0625 1.890625 0.0625l1.171875 0l0 -2.625q-1.171875 0 -2.125 0.078125l0 -1.234375q0.953125 0.0625 2.125 0.0625zm-6.5625 -1.453125q-0.515625 0.578125 -1.3125 3.203125l0 9.765625q0 1.828125 0.078125 3.0625l-1.46875 0q0.15625 -1.453125 0.15625 -2.90625l0 -7.65625q-0.515625 0.953125 -1.390625 2.328125q-0.4375 -0.71875 -0.953125 -1.09375q0.515625 -0.71875 1.640625 -2.875q1.140625 -2.15625 1.5 -4.484375q0.734375 0.375 1.75 0.65625zm2.40625 5.171875q-0.15625 0.875 -0.15625 2.625l0 4.515625q0.65625 -0.4375 1.171875 -0.9375q0.140625 0.71875 0.4375 1.3125q-1.890625 1.3125 -2.484375 1.96875q-0.4375 -0.65625 -0.875 -1.09375q0.59375 -0.515625 0.515625 -1.46875l0 -5.75q-0.796875 0 -1.53125 0.078125l0 -1.3125q0.953125 0.0625 1.75 0.0625l1.171875 0zm7.421875 8.453125l0 -1.890625l-3.421875 0l0 1.890625l3.421875 0zm0 -2.984375l0 -1.671875l-3.421875 0l0 1.671875l3.421875 0zm-7.71875 -10.125q0.21875 0.65625 0.5 1.5q0.296875 0.828125 0.515625 1.5625q-0.65625 0.21875 -1.3125 0.5q-0.21875 -1.09375 -0.9375 -3.125q0.5 -0.15625 1.234375 -0.4375z" fill-rule="nonzero"/><path fill="#ffffff" d="m419.11548 28.125984l120.59845 0l0 43.74803l-120.59845 0z" fill-rule="evenodd"/><path stroke="#000000" stroke-width="1.0" stroke-linejoin="round" stroke-linecap="butt" d="m419.11548 28.125984l120.59845 0l0 43.74803l-120.59845 0z" fill-rule="evenodd"/><path fill="#000000" d="m450.3522 44.17q0 -1.171875 -0.0625 -2.265625l1.453125 0q-0.078125 1.015625 -0.078125 2.265625l4.515625 0q1.03125 0 2.484375 -0.078125l0 1.390625q-1.453125 -0.078125 -2.484375 -0.078125l-2.609375 0q0.796875 1.171875 2.390625 2.046875q1.609375 0.875 3.65625 1.375q-0.734375 0.59375 -1.03125 1.46875q-2.25 -0.8125 -3.828125 -1.96875q-1.5625 -1.171875 -2.65625 -2.921875l-0.4375 0l0 4.015625l4.59375 0q-0.078125 1.3125 -0.078125 2.90625q0 1.53125 0.078125 3.0625l-10.34375 0q0.078125 -1.390625 0.078125 -2.984375q0 -1.671875 -0.078125 -2.984375q-0.953125 0.578125 -2.265625 1.234375q-0.4375 -0.796875 -1.015625 -1.3125q1.609375 -0.359375 3.203125 -1.453125q1.609375 -1.09375 2.546875 -2.484375l-2.109375 0q-1.3125 0 -2.765625 0.078125l0 -1.390625q1.453125 0.078125 2.765625 0.078125l4.078125 0zm6.265625 12.75q1.25 0 2.40625 -0.078125l0 1.3125q-2.765625 -0.0625 -3.859375 -0.0625l-9.25 0q-1.3125 0 -2.625 0.0625l0 -1.3125q1.390625 0.078125 2.625 0.078125l10.703125 0zm-1.734375 -2.703125l0 -1.3125l-7.59375 0l0 1.3125l7.59375 0zm0 -2.390625l0 -1.25l-7.59375 0l0 1.25l7.59375 0zm-4.53125 -2.40625l0 -4.015625l-0.359375 0q-0.796875 1.234375 -1.75 2.1875q-0.953125 0.953125 -2.25 1.828125l4.359375 0zm21.578125 -7.078125q-0.578125 0.4375 -1.53125 2.265625l7.5 0q-0.0625 1.15625 -0.0625 2.90625l0 9.328125q0 1.09375 -0.8125 1.421875q-0.796875 0.328125 -2.1875 0.546875q-0.140625 -1.015625 -0.796875 -1.59375q1.453125 -0.078125 1.921875 -0.1875q0.484375 -0.109375 0.5625 -0.765625l0 -10.5625l-6.640625 0q-0.875 1.453125 -1.15625 1.96875l5.6875 0q-0.078125 1.015625 -0.078125 4.0q0 2.984375 0.078125 4.515625l-6.0625 0q0.078125 -1.375 0.078125 -2.84375l0 -5.09375q-0.578125 0.875 -1.171875 1.609375q-0.65625 -0.734375 -1.375 -0.953125q1.015625 -1.09375 1.625 -2.078125q0.625 -0.984375 1.359375 -2.40625q0.734375 -1.421875 1.3125 -2.953125q0.578125 0.65625 1.75 0.875zm-7.0625 5.328125q-0.078125 1.375 -0.078125 2.84375l0 5.171875q0.9375 -1.03125 1.59375 -1.75q0.21875 0.359375 0.953125 1.15625q-0.953125 0.8125 -1.828125 1.6875q-0.859375 0.875 -1.515625 1.8125q-0.59375 -0.796875 -1.3125 -1.3125q0.71875 -0.71875 0.71875 -1.53125l0 -6.84375l-0.65625 0q-0.578125 0 -1.671875 0.078125l0 -1.390625q1.09375 0.078125 1.671875 0.078125l2.125 0zm8.078125 3.71875l0 -2.625l-3.125 0l0 2.625l3.125 0zm0 3.640625l0 -2.5625l-3.125 0l0 2.5625l3.125 0zm-9.109375 -12.90625q0.4375 0.65625 1.890625 2.921875q-0.71875 0.28125 -1.515625 0.71875q-1.09375 -1.96875 -1.828125 -2.90625q0.796875 -0.359375 1.453125 -0.734375z" fill-rule="nonzero"/><path fill="#000000" d="m479.96158 56.998123q1.78125 -2.609375 1.78125 -5.203125l0 -9.640625l13.8125 0l0 4.75l-1.484375 0l0 -0.53125l-2.078125 0l0 1.640625l3.328125 0l0 1.40625l-3.328125 0l0 1.640625l4.515625 0l0 1.40625l-5.640625 0q0.375 0.96875 1.125 1.703125l2.078125 -1.5625l1.1875 1.265625q0.0625 0.375 -0.375 0.21875l-2.0 1.046875q1.84375 1.265625 4.15625 1.703125l-0.53125 1.640625q-5.34375 -1.1875 -7.1875 -6.015625l-1.859375 0l0 4.0l3.34375 -0.515625l0.21875 1.34375l-6.6875 1.265625q-0.0625 0.515625 -0.359375 0.21875l-0.59375 -2.015625l2.59375 -0.140625l0 -4.15625l-2.75 0q-0.140625 3.484375 -2.078125 5.9375l-1.1875 -1.40625zm3.265625 -12.03125l10.84375 0l0 -1.40625l-10.84375 0l0 1.40625zm4.90625 6.09375l2.375 0l0 -1.640625l-2.375 0l0 1.640625zm0 -3.046875l2.375 0l0 -1.640625l-2.375 0l0 1.640625zm-1.484375 0l0 -1.640625l-3.421875 0l0 4.6875l3.421875 0l0 -1.640625l-2.671875 0l0 -1.40625l2.671875 0zm25.078125 2.453125q1.4843445 2.4375 4.0780945 4.296875l-1.25 1.40625q-2.453125 -2.0 -4.1562195 -4.8125l1.328125 -0.890625zm-3.1875 6.15625q0 1.34375 -1.265625 1.34375l-2.078125 0l-0.296875 -1.640625l1.640625 0q0.296875 0 0.296875 -0.296875l0 -6.984375l-7.28125 0l0 -1.625l15.9530945 0l0 1.625l-6.9687195 0l0 7.578125zm-6.53125 -11.953125l0 -1.625l11.2812195 0l0 1.625l-11.2812195 0zm-2.453125 10.390625q2.078125 -1.484375 3.640625 -4.53125l1.484375 0.828125q0.59375 0.359375 -0.21875 0.515625q-1.265625 2.671875 -3.71875 4.59375l-1.1875 -1.40625z" fill-rule="nonzero"/><path fill="#000000" fill-opacity="0.0" d="m127.020996 50.0l85.76378 0" fill-rule="evenodd"/><path stroke="#000000" stroke-width="1.0" stroke-linejoin="round" stroke-linecap="butt" d="m127.020996 50.0l79.76378 0" fill-rule="evenodd"/><path fill="#000000" stroke="#000000" stroke-width="1.0" stroke-linecap="butt" d="m206.78477 51.651733l4.538101 -1.6517334l-4.538101 -1.6517334z" fill-rule="evenodd"/><path fill="#000000" fill-opacity="0.0" d="m333.36746 50.0l85.76376 0" fill-rule="evenodd"/><path stroke="#000000" stroke-width="1.0" stroke-linejoin="round" stroke-linecap="butt" d="m333.36746 50.0l79.76376 0" fill-rule="evenodd"/><path fill="#000000" stroke="#000000" stroke-width="1.0" stroke-linecap="butt" d="m413.13123 51.651733l4.5381165 -1.6517334l-4.5381165 -1.6517334z" fill-rule="evenodd"/></g></svg>