<svg version="1.1" viewBox="0.0 0.0 392.9501312335958 342.9160104986877" fill="none" stroke="none" stroke-linecap="square" stroke-miterlimit="10" xmlns:xlink="http://www.w3.org/1999/xlink" xmlns="http://www.w3.org/2000/svg"><clipPath id="p.0"><path d="m0 0l392.95013 0l0 342.91602l-392.95013 0l0 -342.91602z" clip-rule="nonzero"/></clipPath><g clip-path="url(#p.0)"><path fill="#000000" fill-opacity="0.0" d="m0 0l392.95013 0l0 342.91602l-392.95013 0z" fill-rule="evenodd"/><path fill="#fcb040" d="m46.372704 27.461943l0 0c0 -11.123972 9.017761 -20.141733 20.141731 -20.141733l104.944885 0c5.341919 0 10.465042 2.122069 14.242355 5.8993764c3.777298 3.7773085 5.8993683 8.900435 5.8993683 14.242356l0 0l0 0c0 11.123972 -9.017761 20.141733 -20.141724 20.141733l-104.944885 0c-11.12397 0 -20.141731 -9.017761 -20.141731 -20.141733z" fill-rule="evenodd"/><path fill="#ffffff" d="m99.01813 28.88194l-7.859375 0l-0.75 1.34375l6.90625 0l0 4.531248q0 1.265625 -1.265625 1.265625l-1.03125 0l-0.296875 -1.421875l0.890625 0q0.21875 0 0.21875 -0.21875l0 -2.968748l-2.671875 0l0 4.374998l-1.265625 0l0 -4.374998l-2.59375 0l0 4.374998l-1.265625 0l0 -4.374998l-2.296875 0l0 4.671873l-1.484375 0l0 -5.859373l4.828125 0l0.515625 -1.34375l-7.5625 0l0 -1.1875l16.984375 0l0 1.1875zm-10.09375 -4.078125l-4.0 0l0 -0.890625l4.0 0l0 0.890625zm0 1.046875l0 0.890625l-4.0 0l0 -0.890625l4.0 0zm7.28125 0l0 0.890625l-4.015625 0l0 -0.890625l4.015625 0zm0 -1.046875l-4.015625 0l0 -0.890625l4.015625 0l0 0.890625zm-12.03125 -5.484375l12.765625 0l0 1.1875l-5.640625 0l0 1.25l7.125 0l0 3.125l-1.484375 0l0 -1.9375l-5.640625 0l0 4.015625l-1.484375 0l0 -4.015625l-5.640625 0l0 1.9375l-1.484375 0l0 -3.125l7.125 0l0 -1.25l-5.640625 0l0 -1.1875zm17.0 13.124998q4.53125 -2.437498 7.34375 -4.890623l0 -3.640625l-7.265625 0l0 -1.40625l7.265625 0l0 -3.34375l1.421875 0q0.59375 0.078125 0.0625 0.453125l0 2.890625l3.859375 0q-0.890625 -0.890625 -2.375 -1.5625l1.1875 -1.265625q1.34375 0.53125 2.609375 1.71875l-1.1875 1.109375l3.109375 0l0 1.40625l-7.203125 0l0 0.59375q0.296875 1.265625 1.5625 3.1875q1.640625 -1.1875 3.046875 -2.890625l1.40625 1.265625q0.078125 0.375 -0.375 0.21875q-1.03125 1.046875 -3.109375 2.53125q1.625 2.140625 5.265625 3.781248l-0.96875 1.859375q-4.515625 -2.234375 -6.828125 -6.828123l0 7.046873q0 1.1875 -1.1875 1.1875l-1.84375 0l-0.296875 -1.640625l1.546875 0q0.296875 0 0.296875 -0.296875l0 -4.374998q-1.921875 1.78125 -5.859375 4.312498q0.15625 0.4375 -0.21875 0.359375l-1.265625 -1.78125zm4.078125 -3.562498q-1.1875 -1.484375 -2.4375 -2.4375l1.25 -1.265625q1.34375 0.734375 2.609375 2.21875l-1.421875 1.484375zm28.28125 -2.375l-0.296875 6.015623q-0.140625 3.125 -2.15625 3.125l-2.21875 0l-0.21875 -1.640625l1.84375 0q0.96875 0 1.046875 -1.265625l0.296875 -4.812498l-4.078125 0l-0.078125 0.59375q-0.515625 4.078123 -5.859375 7.499998l-1.125 -1.421875q4.828125 -2.749998 5.34375 -5.781248l0.15625 -0.890625l-2.828125 0l0 -1.421875l10.171875 0zm-6.671875 -5.859375q-1.78125 3.859375 -5.71875 7.046875l-1.1875 -1.40625q3.859375 -2.671875 5.640625 -6.90625l1.40625 0.890625q0.453125 0.296875 -0.140625 0.375zm9.203125 7.046875q-4.09375 -2.375 -6.015625 -7.78125l1.40625 -0.59375q1.78125 4.75 5.71875 6.828125l-1.109375 1.546875zm18.765625 -7.046875q0.296875 0.671875 -0.4375 0.375q-2.828125 0.59375 -5.9375 0.734375l0 3.125l7.421875 0l0 1.40625l-2.890625 0l0 9.578123l-1.484375 0l0 -9.578123l-3.046875 0l0 3.34375q0 4.234373 -2.53125 6.390623l-0.953125 -1.421875q2.0 -1.859375 2.0 -4.890623l0 -9.5l1.484375 0.359375q3.265625 -0.296875 5.5625 -1.328125l0.8125 1.40625zm-16.03125 10.25q2.75 -3.203125 3.421875 -6.765625l-2.828125 0l0 -1.40625l2.828125 0l0 -3.78125l1.40625 0q0.59375 0.078125 0.078125 0.4375l0 3.34375l2.75 0l0 1.40625l-2.75 0l0 2.234375q1.5625 0.671875 2.75 1.5625l-0.671875 1.484375q-0.96875 -0.671875 -2.078125 -1.421875l0 7.874998l-1.484375 0l0 -7.640623q-1.046875 2.671875 -2.53125 4.078123l-0.890625 -1.4062481z" fill-rule="nonzero"/><path fill="#e25f64" d="m83.64567 80.07481l0 0c0 -11.123978 9.017761 -20.141735 20.141731 -20.141735l104.944885 0c5.341919 0 10.465042 2.1220703 14.242355 5.8993797c3.7773132 3.7773056 5.8993683 8.900436 5.8993683 14.242355l0 0l0 0c0 11.12397 -9.017746 20.141731 -20.141724 20.141731l-104.944885 0c-11.12397 0 -20.141731 -9.017761 -20.141731 -20.141731z" fill-rule="evenodd"/><path fill="#ffffff" d="m144.22859 79.63543q1.171875 0.078125 2.625 0.078125l6.5625 0q-0.4375 1.3125 -1.203125 2.875q-0.765625 1.5625 -2.078125 3.09375q2.328125 1.53125 5.390625 1.609375q-0.578125 0.65625 -0.875 1.53125q-3.125 -0.65625 -5.609375 -2.265625q-0.9375 0.578125 -2.25 1.265625q-1.3125 0.703125 -2.84375 1.140625q-0.296875 -0.578125 -1.09375 -1.09375q1.59375 -0.296875 3.015625 -0.953125q1.421875 -0.65625 2.15625 -1.3125q-1.609375 -1.671875 -2.625 -4.734375l-1.171875 0l0 -1.234375zm7.4375 -0.734375q-1.234375 0 -1.3125 -1.015625l0 -4.078125l-3.203125 0q0 2.03125 -0.484375 3.203125q-0.46875 1.171875 -2.0 2.40625q-0.28125 -0.515625 -1.15625 -0.875q1.8125 -1.234375 2.0625 -2.84375q0.265625 -1.609375 0.1875 -3.0625l6.125 0q-0.078125 0.875 -0.078125 2.1875l0 1.96875q0 0.578125 0.40625 0.6875q0.40625 0.109375 1.125 0.078125q0.734375 -0.03125 1.6875 -0.109375q-0.15625 0.734375 0 1.453125l-3.359375 0zm-9.25 -1.3125q-0.078125 1.3125 -0.078125 2.921875l0 4.4375q0.953125 -0.875 1.609375 -1.75q0.21875 0.734375 0.71875 1.53125q-0.9375 0.875 -1.75 1.6875q-0.796875 0.796875 -1.453125 1.75q-0.5 -0.8125 -1.09375 -1.25q0.59375 -0.578125 0.59375 -1.671875l0 -6.40625q-1.53125 0 -2.5625 0.0625l0 -1.375q0.953125 0.0625 1.96875 0.0625l2.046875 0zm6.703125 7.078125q1.453125 -1.46875 2.265625 -3.796875l-4.53125 0q0.515625 2.265625 2.265625 3.796875zm-8.53125 -12.75q1.171875 0.9375 2.84375 2.984375q-0.578125 0.359375 -1.15625 0.9375q-1.25 -1.671875 -2.625 -2.984375q0.4375 -0.28125 0.9375 -0.9375zm27.109375 6.046875l0 -3.65625q0 -1.453125 -0.0625 -2.25l1.53125 0q-0.078125 0.9375 -0.078125 1.671875l0 4.234375l2.984375 0q0.875 0 1.890625 -0.078125l0 1.390625q-1.09375 -0.078125 -1.8125 -0.078125l-3.0625 0l0 7.28125q0 0.875 0.078125 2.125l-1.53125 0q0.0625 -1.25 0.0625 -2.046875l0 -7.359375l-2.84375 0q-1.09375 0 -2.1875 0.078125l0 -1.390625q1.09375 0.078125 2.046875 0.078125l2.984375 0zm-6.265625 -0.15625q-0.078125 1.390625 -0.078125 2.921875l0 4.4375q1.25 -1.234375 1.96875 -2.25q0.4375 0.578125 1.03125 1.15625l-2.046875 2.046875q-0.953125 0.953125 -1.8125 1.890625q-0.515625 -0.65625 -0.953125 -1.15625q0.515625 -0.59375 0.4375 -1.75l0 -6.046875q-1.96875 0 -2.921875 0.0625l0 -1.375q1.171875 0.0625 1.609375 0.0625l2.765625 0zm-1.8125 -5.53125q0.9375 0.9375 2.984375 3.0625q-0.65625 0.578125 -1.25 1.09375q-0.9375 -1.390625 -2.828125 -3.28125q0.5 -0.359375 1.09375 -0.875z" fill-rule="nonzero"/><path fill="#089ead" d="m116.2021 132.68767l0 0c0 -11.123978 9.017761 -20.141739 20.141724 -20.141739l104.944885 0c5.341919 0 10.465057 2.1220703 14.242355 5.899376c3.7773132 3.7773132 5.8993835 8.900436 5.8993835 14.242363l0 0l0 0c0 11.123962 -9.017761 20.141724 -20.141739 20.141724l-104.944885 0c-11.123962 0 -20.141724 -9.017761 -20.141724 -20.141724z" fill-rule="evenodd"/><path fill="#ffffff" d="m182.62877 124.31078q0.28125 1.15625 0.578125 2.171875l3.78125 0q-0.0625 0.875 -0.0625 1.9687576q0 1.09375 0.0625 1.90625l-7.796875 0q-0.0625 1.09375 -0.140625 1.8125l8.59375 0q-0.0625 1.171875 -0.0625 2.484375l0 5.03125q0 1.09375 -0.484375 1.375q-0.46875 0.296875 -1.5625 0.59375q-0.21875 -0.875 -0.65625 -1.609375q1.015625 0 1.234375 -0.109375q0.21875 -0.109375 0.21875 -0.765625l0 -2.484375l-1.453125 0q0 1.609375 0.078125 3.0625l-1.3125 0q0.078125 -1.453125 0.078125 -3.0625l-1.46875 0q0 2.265625 0.078125 3.140625l-1.3125 0q0.078125 -0.875 0.078125 -3.140625l-1.46875 0l0 4.8125l-1.375 0q0.140625 -1.375 0.140625 -2.6875l0 -3.9375q-0.578125 1.59375 -1.390625 2.984375q-0.5 -0.953125 -0.9375 -1.453125q0.65625 -0.875 1.015625 -1.75q0.359375 -0.875 0.578125 -2.40625q0.21875 -1.53125 0.21875 -3.0625q0 -1.5312576 -0.0625 -2.7031326l3.78125 0q-0.140625 -0.796875 -0.5 -1.734375q0.9375 -0.21875 1.53125 -0.4375zm-7.15625 1.09375q-0.4375 0.421875 -1.28125 2.109375q-0.828125 1.6718826 -1.484375 2.9062576l2.046875 -0.0625q0.4375 -0.875 0.875 -1.96875q0.65625 0.5 1.453125 1.015625q-0.65625 0.65625 -1.5 2.015625q-0.828125 1.34375 -2.28125 3.3125q1.53125 -0.15625 2.90625 -0.375l-0.140625 1.3125q-0.875 0.078125 -1.96875 0.21875q-1.09375 0.140625 -2.328125 0.65625q-0.15625 -0.796875 -0.4375 -1.53125q0.578125 -0.078125 1.234375 -1.015625q0.65625 -0.953125 1.671875 -2.546875q-0.65625 0 -1.3125 0.078125q-0.65625 0.0625 -1.453125 0.359375q-0.21875 -0.875 -0.515625 -1.53125q0.734375 -0.15625 1.53125 -2.015625q0.8125 -1.8593826 1.25 -3.6718826q0.875 0.515625 1.734375 0.734375zm10.203125 3.9218826l0 -1.8125076l-6.484375 0l0 1.8125076l6.484375 0zm-9.390625 7.953125q-0.078125 0.796875 0 1.453125q-1.53125 0.359375 -2.59375 0.734375q-1.046875 0.359375 -2.359375 1.015625l-0.59375 -1.75q0.875 -0.078125 2.4375 -0.46875q1.578125 -0.40625 3.109375 -0.984375zm7.4375 -1.609375l0 -2.46875l-1.46875 0l0 2.46875l1.46875 0zm2.609375 0l0 -2.46875l-1.453125 0l0 2.46875l1.453125 0zm-5.234375 0l0 -2.46875l-1.46875 0l0 2.46875l1.46875 0zm13.46875 -9.906258q1.03125 0 2.1875 -0.078125l0 1.234375q-1.234375 -0.0625 -1.8125 -0.0625l-1.09375 0q-0.296875 1.7500076 -0.953125 3.8593826l3.5 0q-0.078125 1.234375 -0.078125 2.1875l0 3.5q0 0.9375 0.078125 2.765625l-1.3125 0l0 -1.3125l-2.1875 0l0 2.109375l-1.375 0q0.0625 -1.8125 0.0625 -2.90625l0 -3.421875q-0.5 0.9375 -1.15625 2.109375q-0.4375 -0.59375 -1.03125 -1.015625q1.3125 -1.75 2.109375 -4.046875q0.8125 -2.296875 0.953125 -3.8281326q-1.3125 0 -2.625 0.0625l0 -1.234375q1.3125 0.078125 2.265625 0.078125l2.46875 0zm8.03125 6.7812576l0.71875 -6.0625076l-3.34375 0q-1.25 0 -2.5625 0.078125l0 -1.3125q1.3125 0.15625 2.5625 0.15625l4.875 0q-0.359375 1.953125 -0.953125 7.1406326l2.34375 0q-0.15625 0.796875 -0.265625 2.6875q-0.109375 1.890625 -0.40625 3.5q-0.28125 1.609375 -0.984375 2.078125q-0.6875 0.46875 -2.71875 0.625q-0.078125 -0.8125 -0.578125 -1.609375q1.890625 0.078125 2.390625 -0.140625q0.515625 -0.21875 0.734375 -2.15625q0.21875 -1.9375 0.296875 -3.828125l-6.78125 0q0.21875 -1.59375 0.390625 -3.15625q0.1875 -1.578125 0.265625 -3.0312576l1.609375 0.28125q-0.296875 0.7343826 -0.484375 2.0156326q-0.171875 1.265625 -0.328125 2.734375l3.21875 0zm-7.515625 4.140625l0 -4.796875l-2.1875 0l0 4.796875l2.1875 0zm6.34375 -0.9375q0.875 0 2.765625 -0.078125l0 1.3125q-1.96875 -0.078125 -3.28125 -0.078125l-1.890625 0q-0.796875 0 -1.96875 0.078125l0 -1.3125q0.796875 0.078125 1.96875 0.078125l2.40625 0z" fill-rule="nonzero"/><path fill="#9cba48" d="m141.96326 185.29921l0 0c0 -11.123962 9.017761 -20.141724 20.141724 -20.141724l104.944885 0c5.341919 0 10.465057 2.1220703 14.242371 5.8993683c3.7772827 3.7773132 5.899353 8.900436 5.899353 14.242355l0 0l0 0c0 11.123978 -9.017761 20.141739 -20.141724 20.141739l-104.944885 0c-11.123962 0 -20.141724 -9.017761 -20.141724 -20.141739z" fill-rule="evenodd"/><path fill="#ffffff" d="m207.65555 178.43796q-0.078125 0.734375 -0.078125 2.125l0 5.171875q0 1.3125 0.078125 2.546875l-1.390625 0l0 -8.671875l-3.5 0l0 8.75l-1.3125 0q0.078125 -1.3125 0.078125 -2.625l0 -5.171875q0 -0.59375 -0.078125 -2.125l6.203125 0zm5.46875 -1.015625q-0.078125 0.796875 -0.078125 2.046875l0 12.75q0 0.953125 -0.65625 1.234375q-0.65625 0.296875 -1.96875 0.515625q-0.140625 -0.796875 -0.578125 -1.609375q1.015625 0 1.40625 -0.078125q0.40625 -0.0625 0.40625 -0.796875l0 -12.015625q0 -1.171875 -0.0625 -2.046875l1.53125 0zm-7.65625 3.9375q-0.140625 0.953125 -0.21875 4.09375q-0.078125 3.125 -1.0625 5.171875q-0.984375 2.03125 -2.21875 3.34375q-0.65625 -0.578125 -1.375 -0.796875q1.734375 -1.6875 2.53125 -3.75q0.8125 -2.078125 0.84375 -4.40625q0.046875 -2.34375 -0.109375 -3.875q0.8125 0.140625 1.609375 0.21875zm4.875 -1.609375q-0.0625 0.8125 -0.0625 2.046875l0 5.109375q0 1.515625 0.0625 2.828125l-1.453125 0q0.078125 -0.875 0.078125 -2.828125l0 -5.109375q0 -1.234375 -0.078125 -2.046875l1.453125 0zm-9.46875 7.59375q-0.9375 1.734375 -1.703125 3.453125q-0.765625 1.71875 -1.140625 2.59375q-0.65625 -0.59375 -1.53125 -1.09375q0.8125 -0.953125 1.640625 -2.546875q0.84375 -1.609375 1.421875 -3.359375q0.65625 0.515625 1.3125 0.953125zm4.953125 1.8125q1.171875 1.171875 2.625 3.421875q-0.578125 0.296875 -1.234375 0.953125q-1.171875 -2.109375 -2.484375 -3.5q0.59375 -0.359375 1.09375 -0.875zm-8.15625 -7.21875q1.53125 1.171875 2.625 2.1875q-0.578125 0.59375 -1.015625 1.171875q-0.953125 -1.171875 -2.484375 -2.265625q0.4375 -0.4375 0.875 -1.09375zm2.1875 -1.375q-1.171875 -1.09375 -2.546875 -1.96875q0.4375 -0.515625 0.875 -1.09375q1.53125 1.015625 2.609375 1.96875q-0.5 0.359375 -0.9375 1.09375zm26.234375 0.5q-0.078125 -1.453125 -0.078125 -2.109375q0 -0.734375 -0.0625 -1.96875q0.875 0.21875 1.59375 0.296875q-0.0625 0.875 -0.0625 1.53125l0 2.25l2.109375 0q1.015625 0 2.109375 -0.0625l0 1.3125q-1.015625 -0.078125 -2.1875 -0.078125l-1.96875 0q0.15625 1.96875 0.40625 3.546875q0.25 1.5625 0.71875 3.203125q0.484375 1.625 1.09375 2.578125q0.625 0.953125 0.84375 0.078125q0.21875 -0.875 0.296875 -2.046875q0.578125 0.796875 1.453125 1.09375q-0.359375 2.328125 -1.015625 2.953125q-0.65625 0.625 -1.46875 0.140625q-0.796875 -0.46875 -1.484375 -1.734375q-0.6875 -1.28125 -1.171875 -2.953125q-0.46875 -1.6875 -0.6875 -3.46875q-0.21875 -1.78125 -0.359375 -3.390625l-3.4375 0q-1.453125 0 -2.6875 0.078125l0 -1.3125q1.15625 0.0625 2.625 0.0625l3.421875 0zm-7.140625 1.90625q-0.078125 1.453125 -0.078125 2.90625l0 4.515625q1.015625 -0.9375 1.890625 -1.75q0.296875 0.65625 0.734375 1.25q-1.390625 1.09375 -3.640625 3.34375q-0.359375 -0.65625 -0.875 -1.15625q0.578125 -0.375 0.578125 -1.390625l0 -6.40625q-1.15625 0 -2.109375 0.0625l0 -1.453125q0.953125 0.078125 1.53125 0.078125l1.96875 0zm6.625 2.90625q-0.796875 -0.0625 -1.53125 -0.0625l0 4.734375q0.953125 -0.296875 1.90625 -0.65625q0 0.796875 0.140625 1.375q-1.09375 0.21875 -2.34375 0.59375q-1.234375 0.359375 -2.546875 0.875q-0.21875 -0.8125 -0.71875 -1.390625q1.15625 -0.140625 2.25 -0.515625l0 -5.015625q-0.796875 0 -1.671875 0.0625l0 -1.375q1.09375 0.0625 2.265625 0.0625q1.234375 0 2.25 -0.0625l0 1.375zm-8.296875 -8.15625q1.015625 0.9375 2.25 2.546875q-0.5 0.515625 -1.09375 0.953125q-0.4375 -0.8125 -2.1875 -2.5625q0.59375 -0.5 1.03125 -0.9375zm12.3125 -0.515625q0.5 0.4375 2.03125 2.265625q-0.796875 0.5 -1.234375 0.9375q-0.875 -1.375 -1.890625 -2.390625q0.4375 -0.296875 1.09375 -0.8125z" fill-rule="nonzero"/><path fill="#ec5b29" d="m168.94751 237.91077l0 0c0 -11.123978 9.017761 -20.141739 20.141724 -20.141739l104.944885 0c5.341919 0 10.465057 2.1220703 14.242371 5.8993835c3.7772827 3.777298 5.899353 8.900436 5.899353 14.242355l0 0l0 0c0 11.123962 -9.017761 20.141724 -20.141724 20.141724l-104.944885 0c-11.123962 0 -20.141724 -9.017761 -20.141724 -20.141724z" fill-rule="evenodd"/><path fill="#ffffff" d="m237.03043 244.08076l-0.296875 -1.625l1.1875 0q1.046875 0 0.828125 -1.703125q-0.296875 -2.078125 -1.859375 -3.640625l1.328125 -4.96875l-2.4375 0l0 14.390625l-1.484375 0l0 -15.8125l4.375 0l0.140625 -0.21875l1.34375 1.109375l-0.296875 0.234375l-1.640625 4.96875q2.234375 2.453125 2.15625 4.375q-0.078125 2.890625 -2.0 2.890625l-1.34375 0zm-11.9375 -5.109375l7.046875 0l0 6.75l-1.484375 0l0 -0.8125l-4.078125 0l0 1.1875l-1.484375 0l0 -7.125zm1.484375 1.40625l0 3.109375l4.078125 0l0 -3.109375l-4.078125 0zm1.25 -10.90625l1.640625 0q0.734375 0.140625 0.078125 0.59375l0 1.625l3.484375 0l0 1.40625l-1.046875 0l-1.03125 3.125l2.8125 0l0 1.40625l-10.15625 0l0 -1.40625l2.8125 0l-0.890625 -3.125l-0.96875 0l0 -1.40625l3.265625 0l0 -2.21875zm2.453125 3.625l-3.046875 0l0.75 3.125l1.40625 0l0.890625 -3.125zm26.578125 6.765625l0 6.53125l-1.484375 0l0 -0.375l-6.765625 0l0 0.59375l-1.484375 0l0 -4.96875q-1.625 0.515625 -4.296875 1.25l-0.515625 -1.40625q4.75 -0.96875 7.71875 -2.59375l-7.125 0l0 -1.40625l6.59375 0l0 -1.1875l-4.21875 0l0 -1.1875l4.21875 0l0 -1.1875l-2.59375 0l-2.59375 0l0 -4.09375l13.359375 0l0 4.09375l-6.6875 0l0 1.1875l3.71875 0l0 0.65625q0.59375 -0.515625 1.265625 -1.328125l1.40625 0.8125q0.21875 0.296875 -0.453125 0.296875q-1.25 1.109375 -2.515625 1.9375l5.046875 0l0 1.40625l-6.90625 0q-0.8125 0.515625 -1.921875 0.96875l6.234375 0zm-8.546875 -8.84375l-2.515625 0l0 1.71875l2.515625 0l0 -1.71875zm3.71875 0l-2.234375 0l0 1.71875l2.234375 0l0 -1.71875zm4.15625 0l-2.671875 0l0 1.71875l2.671875 0l0 -1.71875zm-4.015625 6.46875q0.59375 -0.296875 1.859375 -1.1875l-3.046875 0l0 1.1875l1.1875 0zm3.203125 6.0l-6.765625 0l0 1.125l6.765625 0l0 -1.125zm0 -2.21875l-6.765625 0l0 1.03125l6.765625 0l0 -1.03125z" fill-rule="nonzero"/><path fill="#4b983d" d="m198.92126 290.5223l0 0c0 -11.123962 9.017761 -20.141724 20.141724 -20.141724l104.944885 0c5.341919 0 10.465057 2.1220703 14.242371 5.8993835c3.7772827 3.7772827 5.899353 8.900421 5.899353 14.24234l0 0l0 0c0 11.123962 -9.017761 20.141724 -20.141724 20.141724l-104.944885 0c-11.123962 0 -20.141724 -9.017761 -20.141724 -20.141724z" fill-rule="evenodd"/><path fill="#ffffff" d="m263.66043 282.64545q-0.359375 0.515625 -0.65625 1.28125q-0.28125 0.765625 -0.5 1.421875l4.65625 0q1.453125 0 2.625 -0.078125l0 1.3125q-1.234375 -0.078125 -2.625 -0.078125l-0.71875 0l0 2.484375q1.734375 0 2.828125 -0.078125l0 1.3125q-1.09375 -0.0625 -2.828125 -0.0625l0 2.609375q1.8125 0 2.90625 -0.0625l0 1.234375q-1.09375 -0.078125 -2.90625 -0.078125l0 2.625l1.15625 0q1.453125 0 2.921875 -0.0625l0 1.234375q-1.46875 -0.078125 -2.921875 -0.078125l-5.25 0l0 1.6875l-1.375 0q0.0625 -1.390625 0.0625 -3.71875l0 -7.078125q-0.4375 1.09375 -0.9375 2.046875q-0.734375 -0.515625 -1.25 -0.796875q0.65625 -0.953125 1.171875 -1.9375q0.515625 -0.984375 1.125 -2.734375q0.625 -1.75 0.765625 -2.90625q0.8125 0.28125 1.75 0.5zm-5.6875 0.21875q-0.640625 0.65625 -1.296875 2.265625q-0.65625 1.59375 -1.390625 3.125q1.015625 -0.140625 2.046875 -0.21875q0.71875 -1.59375 0.859375 -2.546875l1.609375 0.578125q-0.4375 0.515625 -1.25 2.046875q-0.796875 1.53125 -2.390625 4.734375l3.28125 -0.4375q-0.296875 0.875 -0.375 1.390625q-0.9375 0 -2.140625 0.1875q-1.203125 0.171875 -2.375 0.53125q-0.28125 -0.875 -0.4375 -1.53125q0.65625 -0.28125 1.3125 -1.328125q0.65625 -1.0625 1.3125 -2.375q-0.796875 0.0625 -1.5 0.171875q-0.6875 0.109375 -1.1875 0.328125q-0.21875 -0.578125 -0.59375 -1.453125q0.65625 -0.4375 1.421875 -2.1875q0.765625 -1.75 1.359375 -3.78125q0.796875 0.28125 1.734375 0.5zm2.125 12.6875q-0.078125 0.71875 -0.078125 1.3125q-1.3125 0.21875 -2.921875 0.546875q-1.59375 0.328125 -2.90625 0.828125q-0.296875 -0.796875 -0.578125 -1.671875q1.453125 -0.140625 2.71875 -0.328125q1.28125 -0.1875 3.765625 -0.6875zm5.03125 -2.78125l0 -2.609375l-2.78125 0l0 2.609375l2.78125 0zm0 3.71875l0 -2.625l-2.78125 0l0 2.625l2.78125 0zm0 -7.5l0 -2.484375l-2.78125 0l0 2.484375l2.78125 0zm0.875 -6.78125q0.28125 0.4375 1.15625 2.1875q-0.578125 0.21875 -1.234375 0.578125q-0.359375 -0.875 -1.09375 -2.03125l1.171875 -0.734375zm22.796875 3.28125q-0.0625 2.328125 -0.0625 4.296875q0 1.90625 0.0625 2.78125l-1.53125 0l0 -1.09375l-5.3125 0q-0.140625 2.546875 -0.734375 4.40625q-0.578125 1.859375 -1.890625 3.53125q-0.796875 -0.515625 -1.453125 -0.796875q0.9375 -0.953125 1.40625 -1.859375q0.484375 -0.921875 0.8125 -2.046875q0.328125 -1.125 0.46875 -3.203125q0.15625 -2.078125 0 -6.015625l8.234375 0zm-13.328125 1.09375q0 -2.40625 -0.078125 -4.078125l1.53125 0q-0.078125 1.53125 -0.078125 4.078125q1.09375 0 2.625 -0.078125l0 1.3125q-1.671875 -0.0625 -2.625 -0.0625l0 2.90625q1.03125 -0.21875 2.625 -0.65625q-0.0625 0.21875 0.078125 1.171875q-0.65625 0.140625 -2.703125 0.734375l0 5.015625q0.078125 0.8125 -0.328125 1.3125q-0.390625 0.515625 -2.578125 0.8125q-0.140625 -0.875 -0.4375 -1.53125q1.96875 0.0625 1.96875 -0.734375l0 -4.59375q-1.609375 0.375 -2.625 0.734375q-0.140625 -0.578125 -0.515625 -1.390625q0.953125 -0.140625 3.140625 -0.578125l0 -3.203125q-1.609375 0 -2.765625 0.0625l0 -1.3125q1.09375 0.078125 2.765625 0.078125zm11.875 3.71875l0 -3.640625l-5.3125 0l0 3.640625l5.3125 0zm-2.984375 -8.234375q0.875 1.3125 1.375 2.40625q-0.640625 0.21875 -1.453125 0.578125q-0.5 -1.390625 -1.234375 -2.40625q0.796875 -0.28125 1.3125 -0.578125z" fill-rule="nonzero"/><path fill="#000000" fill-opacity="0.0" d="m191.60104 27.461943c18.910675 0 33.16388 13.149607 37.82135 26.299212c4.657486 13.149605 -0.28074646 26.29921 -0.5615082 26.29921" fill-rule="evenodd"/><path stroke="#000000" stroke-width="1.0" stroke-linejoin="round" stroke-linecap="butt" d="m191.60104 27.461943c18.91069 0 33.16388 13.149607 37.821365 26.299212c2.3287354 6.5748024 2.258545 13.149605 1.5710754 18.080711c-0.08592224 0.6163864 -0.1815033 1.2070923 -0.2832489 1.7689056c-0.025436401 0.14044952 -0.051254272 0.2790985 -0.07740784 0.41588593l-0.055786133 0.28437805" fill-rule="evenodd"/><path fill="#000000" stroke="#000000" stroke-width="1.0" stroke-linecap="butt" d="m228.99431 73.8386l0.284729 4.820938l2.8807373 -3.876068z" fill-rule="evenodd"/><path fill="#000000" fill-opacity="0.0" d="m228.87401 80.07481c21.631287 0 39.191696 13.149605 43.262558 26.29921c4.070862 13.149605 -5.347809 26.299217 -10.695618 26.299217" fill-rule="evenodd"/><path stroke="#000000" stroke-width="1.0" stroke-linejoin="round" stroke-linecap="butt" d="m228.87401 80.07481c21.631287 0 39.191696 13.149605 43.26259 26.29921c2.035431 6.574806 0.6984558 13.149605 -1.8158264 18.080711c-0.62857056 1.2327728 -1.3307495 2.3628159 -2.072174 3.3644485c-0.37072754 0.5008011 -0.7512512 0.96952057 -1.1373291 1.4029312c-0.0965271 0.10835266 -0.1933899 0.21447754 -0.29055786 0.31837463l-0.16253662 0.16957092" fill-rule="evenodd"/><path fill="#000000" stroke="#000000" stroke-width="1.0" stroke-linecap="butt" d="m265.84244 128.2738l-3.13031 3.6774445l4.76178 -0.8049469z" fill-rule="evenodd"/><path fill="#000000" fill-opacity="0.0" d="m261.43045 132.68767c17.556458 0 31.892456 13.149597 35.112946 26.29921c3.220459 13.149612 -4.674591 26.29921 -9.349182 26.29921" fill-rule="evenodd"/><path stroke="#000000" stroke-width="1.0" stroke-linejoin="round" stroke-linecap="butt" d="m261.43045 132.68767c17.556458 0 31.892456 13.149597 35.112946 26.29921c1.6102295 6.5747986 0.44158936 13.149612 -1.7139282 18.080704c-0.5388794 1.2327728 -1.1394653 2.3628235 -1.7736816 3.3644714c-0.15856934 0.25038147 -0.31924438 0.4927826 -0.48156738 0.7267151c-0.08117676 0.116989136 -0.16275024 0.2318573 -0.24468994 0.34457397l-0.23675537 0.31802368" fill-rule="evenodd"/><path fill="#000000" stroke="#000000" stroke-width="1.0" stroke-linecap="butt" d="m291.13898 180.47285l-2.7512207 3.9690552l4.6588135 -1.2720337z" fill-rule="evenodd"/><path fill="#000000" fill-opacity="0.0" d="m287.1916 185.29921c19.31894 0 35.263885 13.149612 38.63788 26.29921c3.3740234 13.149612 -5.822876 26.299225 -11.645752 26.299225" fill-rule="evenodd"/><path stroke="#000000" stroke-width="1.0" stroke-linejoin="round" stroke-linecap="butt" d="m287.1916 185.29921c19.31894 0 35.263885 13.149612 38.63788 26.29921c1.6870117 6.574814 0.23132324 13.149612 -2.3740234 18.080719c-0.65133667 1.2327728 -1.3745422 2.3628082 -2.1384277 3.3644562c-0.3819275 0.50079346 -0.77404785 0.96951294 -1.1724548 1.4029083c-0.19921875 0.21670532 -0.3999939 0.4245758 -0.60183716 0.6232147l-0.04458618 0.042755127" fill-rule="evenodd"/><path fill="#000000" stroke="#000000" stroke-width="1.0" stroke-linecap="butt" d="m318.73138 233.64948l-3.2528076 3.5695496l4.7862854 -0.64356995z" fill-rule="evenodd"/><path fill="#000000" fill-opacity="0.0" d="m314.17584 237.91077c21.08133 0 38.414642 13.149597 42.16266 26.299194c3.7480469 13.149628 -6.089203 26.299225 -12.178406 26.299225" fill-rule="evenodd"/><path stroke="#000000" stroke-width="1.0" stroke-linejoin="round" stroke-linecap="butt" d="m314.17584 237.91077c21.08133 0 38.41461 13.149597 42.16266 26.299194c1.8740234 6.574829 0.3517151 13.149628 -2.4002075 18.080719c-0.6880188 1.2327881 -1.4528503 2.3628235 -2.2607117 3.3644714c-0.40393066 0.50079346 -0.818573 0.96951294 -1.2397461 1.4028931c-0.2106018 0.21670532 -0.42282104 0.42459106 -0.63616943 0.62323l-0.23931885 0.21713257" fill-rule="evenodd"/><path fill="#000000" stroke="#000000" stroke-width="1.0" stroke-linecap="butt" d="m348.8436 286.41125l-3.3672485 3.4618225l4.8046875 -0.4874878z" fill-rule="evenodd"/></g></svg>